<svg xmlns="http://www.w3.org/2000/svg" width="169.422" height="148.613" viewBox="0 0 169.422 148.613">
    <defs>
        <style>
            .cls-1,.cls-13,.cls-3,.cls-4,.cls-5{fill:none}.cls-1,.cls-5,.cls-8{stroke:#bf263f}.cls-1,.cls-13,.cls-3,.cls-4,.cls-5,.cls-8{stroke-miterlimit:10}.cls-1{stroke-width:1.426px;stroke-dasharray:2.341 4.681;opacity:.512}.cls-2{fill:#ed4d67}.cls-10,.cls-2,.cls-6{opacity:.1}.cls-3,.cls-4{stroke:#f7657d;stroke-width:1.17px}.cls-3{opacity:.18}.cls-4{opacity:.14}.cls-5{stroke-width:1.015px}.cls-7,.cls-8{fill:#fff}.cls-9{opacity:.2}.cls-11{fill:#bf263f}.cls-12{fill:#ff58d5;font-size:1px;font-family:Montserrat-Medium,Montserrat;font-weight:500}.cls-13{stroke:#ed4d67}
        </style>
    </defs>
    <g id="_08" data-name="8" transform="translate(-1354.523 -57.284)">
        <g id="Group_2358" data-name="Group 2358">
            <g id="Group_2354" data-name="Group 2354">
                <g id="Group_2352" data-name="Group 2352">
                    <path id="Path_826" d="M1373.982 91.923c10.872 33.834 16.159 56.833 6.283 89.336-10.608 34.909 61.972 26.781 89.337 6.284 26.017-19.489 70.688-44.273-6.283-89.337-31.953-18.706-100.662-41.52-89.337-6.283z" class="cls-1" data-name="Path 826"/>
                    <path id="Path_777" d="M1504.945 83.622c-15.262 34.576-23.409 58.314-16.578 93.791 7.34 38.1-68.522 21.435-95.186-3.286-25.354-23.5-69.843-54.685 16.576-93.79 35.871-16.237 111.077-32.724 95.188 3.285z" class="cls-2" data-name="Path 777"/>
                </g>
                <g id="Group_2356" data-name="Group 2356">
                    <circle id="Ellipse_80" cx="3.297" cy="3.297" r="3.297" class="cls-3" data-name="Ellipse 80" transform="translate(1499.085 87.949)"/>
                    <path id="Path_823" d="M1506.813 123.588l5.171-2.714.7-5.8 4.179 4.08 5.735-1.129-2.589 5.235 2.845 5.1-5.779-.845-3.972 4.283-.983-5.757z" class="cls-4" data-name="Path 823"/>
                    <path id="Path_828" d="M1358.092 58.376l3.389 1.9 3.5-1.713-.763 3.812 2.708 2.788-3.859.454-1.816 3.437-1.624-3.531-3.83-.663 2.857-2.635z" class="cls-4" data-name="Path 828"/>
                    <circle id="Ellipse_81" cx="5.638" cy="5.638" r="5.638" class="cls-3" data-name="Ellipse 81" transform="translate(1359.811 175.725)"/>
                </g>
            </g>
        </g>
        <g id="Group_3599" data-name="Group 3599">
            <path id="Rectangle_961" d="M1419.139 82.647h39.708c10.257 0 18.572 8.069 18.572 18.024v60.42c0 9.954-8.315 18.024-18.572 18.024h-39.708c-10.257 0-18.572-8.07-18.572-18.024v-60.42c0-9.955 8.315-18.024 18.572-18.024z" class="cls-5" data-name="Rectangle 961"/>
            <g id="Group_2336" class="cls-6" data-name="Group 2336">
                <path id="Path_787" d="M1476.15 105.517l-72.35 72.354a5.791 5.791 0 0 0 3.591 1.245h9.776l58.987-58.987z" class="cls-7" data-name="Path 787"/>
                <path id="Path_788" d="M1401.567 172.934l74.585-74.585V88.47a5.821 5.821 0 0 0-5.822-5.822h-7.7l-61.063 61.062z" class="cls-7" data-name="Path 788"/>
            </g>
            <path id="Path_789" d="M1470.329 84.1h-15.381v1.677a1.963 1.963 0 0 1-1.961 1.961h-28.255a1.964 1.964 0 0 1-1.961-1.961V84.1h-15.382a4.374 4.374 0 0 0-4.369 4.369v84.824a4.374 4.374 0 0 0 4.369 4.369h62.94a4.374 4.374 0 0 0 4.369-4.369V88.469a4.374 4.374 0 0 0-4.369-4.369z" class="cls-8" data-name="Path 789"/>
            <path id="Path_790" d="M1439.589 85.289a.729.729 0 1 1-.729-.729.729.729 0 0 1 .729.729z" class="cls-9" data-name="Path 790"/>
            <path id="Path_791" d="M1432.265 85.289a.729.729 0 1 1-.729-.729.729.729 0 0 1 .729.729z" class="cls-9" data-name="Path 791"/>
            <path id="Path_792" d="M1446.912 85.289a.729.729 0 1 1-.729-.729.729.729 0 0 1 .729.729z" class="cls-9" data-name="Path 792"/>
            <g id="Group_2339" data-name="Group 2339">
                <g id="Group_2337" class="cls-6" data-name="Group 2337">
                    <path id="Path_793" d="M1415.573 108.586h-5.062a3.761 3.761 0 0 1-3.757-3.757v-5.062a3.761 3.761 0 0 1 3.757-3.757h5.062a3.761 3.761 0 0 1 3.757 3.757v5.062a3.761 3.761 0 0 1-3.757 3.757zm-5.062-9.959a1.142 1.142 0 0 0-1.141 1.141v5.062a1.142 1.142 0 0 0 1.141 1.141h5.062a1.142 1.142 0 0 0 1.141-1.141v-5.062a1.141 1.141 0 0 0-1.141-1.141z" data-name="Path 793"/>
                </g>
                <g id="Group_2338" data-name="Group 2338">
                    <path id="Path_794" d="M1467.752 98.933h-44.394a1.148 1.148 0 0 1-1.147-1.147 1.147 1.147 0 0 1 1.147-1.147h44.392a1.146 1.146 0 0 1 1.147 1.147 1.147 1.147 0 0 1-1.145 1.147z" class="cls-10" data-name="Path 794"/>
                    <path id="Rectangle_962" d="M1423.258 101.228h44.393a1.146 1.146 0 0 1 1.147 1.147 1.147 1.147 0 0 1-1.147 1.147h-44.393a1.148 1.148 0 0 1-1.147-1.147 1.147 1.147 0 0 1 1.147-1.147z" class="cls-10" data-name="Rectangle 962"/>
                    <path id="Path_795" d="M1444.88 108.112h-21.522a1.148 1.148 0 0 1-1.147-1.147 1.147 1.147 0 0 1 1.147-1.147h21.52a1.146 1.146 0 0 1 1.147 1.147 1.147 1.147 0 0 1-1.145 1.147z" class="cls-10" data-name="Path 795"/>
                </g>
            </g>
            <g id="Group_2342" data-name="Group 2342">
                <g id="Group_2340" class="cls-6" data-name="Group 2340">
                    <path id="Path_796" d="M1415.573 127.169h-5.062a3.761 3.761 0 0 1-3.757-3.757v-5.062a3.761 3.761 0 0 1 3.757-3.757h5.062a3.761 3.761 0 0 1 3.757 3.757v5.062a3.761 3.761 0 0 1-3.757 3.757zm-5.062-9.96a1.142 1.142 0 0 0-1.141 1.141v5.062a1.142 1.142 0 0 0 1.141 1.141h5.062a1.142 1.142 0 0 0 1.141-1.141v-5.062a1.141 1.141 0 0 0-1.141-1.141z" data-name="Path 796"/>
                </g>
                <g id="Group_2341" data-name="Group 2341">
                    <path id="Path_797" d="M1467.752 117.521h-44.394a1.148 1.148 0 0 1-1.147-1.147 1.147 1.147 0 0 1 1.147-1.147h44.392a1.146 1.146 0 0 1 1.147 1.147 1.147 1.147 0 0 1-1.145 1.147z" class="cls-10" data-name="Path 797"/>
                    <path id="Path_798" d="M1467.651 122.11h-44.393a1.148 1.148 0 0 1-1.147-1.147 1.147 1.147 0 0 1 1.147-1.147h44.392a1.146 1.146 0 0 1 1.147 1.147 1.147 1.147 0 0 1-1.146 1.147z" class="cls-10" data-name="Path 798"/>
                    <path id="Rectangle_963" d="M1423.36 124.4h21.521a1.146 1.146 0 0 1 1.147 1.147 1.147 1.147 0 0 1-1.147 1.147h-21.521a1.148 1.148 0 0 1-1.147-1.147 1.147 1.147 0 0 1 1.147-1.147z" class="cls-10" data-name="Rectangle 963"/>
                </g>
            </g>
            <g id="Group_2345" data-name="Group 2345">
                <g id="Group_2343" class="cls-6" data-name="Group 2343">
                    <path id="Path_799" d="M1415.573 145.756h-5.062a3.761 3.761 0 0 1-3.757-3.757v-5.062a3.761 3.761 0 0 1 3.757-3.757h5.062a3.761 3.761 0 0 1 3.757 3.757V142a3.761 3.761 0 0 1-3.757 3.756zm-5.062-9.959a1.142 1.142 0 0 0-1.141 1.141V142a1.142 1.142 0 0 0 1.141 1.141h5.062a1.142 1.142 0 0 0 1.141-1.141v-5.062a1.141 1.141 0 0 0-1.141-1.141z" data-name="Path 799"/>
                </g>
                <g id="Group_2344" data-name="Group 2344">
                    <path id="Path_800" d="M1467.752 136.109h-44.394a1.148 1.148 0 0 1-1.147-1.147 1.147 1.147 0 0 1 1.147-1.147h44.392a1.146 1.146 0 0 1 1.147 1.147 1.147 1.147 0 0 1-1.145 1.147z" class="cls-10" data-name="Path 800"/>
                    <path id="Path_801" d="M1467.651 140.7h-44.393a1.148 1.148 0 0 1-1.147-1.147 1.147 1.147 0 0 1 1.147-1.147h44.392a1.146 1.146 0 0 1 1.147 1.147 1.147 1.147 0 0 1-1.146 1.147z" class="cls-10" data-name="Path 801"/>
                    <path id="Path_802" d="M1444.88 145.287h-21.522a1.148 1.148 0 0 1-1.147-1.147 1.147 1.147 0 0 1 1.147-1.147h21.52a1.146 1.146 0 0 1 1.147 1.147 1.147 1.147 0 0 1-1.145 1.147z" class="cls-10" data-name="Path 802"/>
                </g>
            </g>
            <g id="Group_2348" data-name="Group 2348">
                <g id="Group_2346" class="cls-6" data-name="Group 2346">
                    <path id="Path_803" d="M1415.573 164.344h-5.062a3.761 3.761 0 0 1-3.757-3.757v-5.062a3.761 3.761 0 0 1 3.757-3.757h5.062a3.761 3.761 0 0 1 3.757 3.757v5.062a3.761 3.761 0 0 1-3.757 3.757zm-5.062-9.96a1.142 1.142 0 0 0-1.141 1.141v5.062a1.142 1.142 0 0 0 1.141 1.141h5.062a1.142 1.142 0 0 0 1.141-1.141v-5.062a1.141 1.141 0 0 0-1.141-1.141z" data-name="Path 803"/>
                </g>
                <g id="Group_2347" data-name="Group 2347">
                    <path id="Path_804" d="M1467.752 154.7h-44.394a1.148 1.148 0 0 1-1.147-1.147 1.147 1.147 0 0 1 1.147-1.146h44.392a1.146 1.146 0 0 1 1.147 1.147 1.147 1.147 0 0 1-1.145 1.146z" class="cls-10" data-name="Path 804"/>
                    <path id="Rectangle_964" d="M1423.258 156.99h44.393a1.146 1.146 0 0 1 1.147 1.147 1.147 1.147 0 0 1-1.147 1.147h-44.393a1.148 1.148 0 0 1-1.147-1.147 1.147 1.147 0 0 1 1.147-1.147z" class="cls-10" data-name="Rectangle 964"/>
                    <path id="Rectangle_965" d="M1423.36 161.579h21.521a1.146 1.146 0 0 1 1.147 1.147 1.147 1.147 0 0 1-1.147 1.147h-21.521a1.148 1.148 0 0 1-1.147-1.147 1.147 1.147 0 0 1 1.147-1.147z" class="cls-10" data-name="Rectangle 965"/>
                </g>
            </g>
            <g id="Group_2349" data-name="Group 2349">
                <circle id="Ellipse_74" cx=".709" cy=".709" r=".709" class="cls-11" data-name="Ellipse 74" transform="translate(1407.24 86.018)"/>
                <circle id="Ellipse_75" cx=".709" cy=".709" r=".709" class="cls-11" data-name="Ellipse 75" transform="translate(1409.787 86.018)"/>
                <circle id="Ellipse_76" cx=".709" cy=".709" r=".709" class="cls-11" data-name="Ellipse 76" transform="translate(1412.333 86.018)"/>
                <circle id="Ellipse_77" cx=".709" cy=".709" r=".709" class="cls-11" data-name="Ellipse 77" transform="translate(1414.88 86.018)"/>
                <circle id="Ellipse_78" cx=".709" cy=".709" r=".709" class="cls-11" data-name="Ellipse 78" transform="translate(1417.427 86.018)"/>
            </g>
            <g id="Group_2350" data-name="Group 2350">
                <path id="Rectangle_966" d="M0 0h4.138v2.287H0z" class="cls-11" data-name="Rectangle 966" transform="translate(1457.375 85.521)"/>
                <path id="Rectangle_967" d="M0 0h.577v1.233H0z" class="cls-11" data-name="Rectangle 967" transform="translate(1461.513 86.048)"/>
            </g>
            <g id="Group_3598" data-name="Group 3598">
                <text id="_100_" class="cls-12" data-name="100%" transform="translate(1464.227 86.174)">
                    <tspan x="0" y="0">100%</tspan>
                </text>
            </g>
            <path id="Path_805" d="M1422.023 111.612c-2.9 2.635-5.913 5.608-8.557 8.5a22.619 22.619 0 0 1-2.25-3.481l-3.478.868a34.51 34.51 0 0 0 5.886 5.93c2.807-3.795 5.592-8.022 8.399-11.817z" class="cls-13" data-name="Path 805"/>
            <path id="Path_806" d="M1422.023 130.2c-2.9 2.634-5.913 5.608-8.557 8.5a22.62 22.62 0 0 1-2.25-3.481l-3.478.868a34.511 34.511 0 0 0 5.886 5.93c2.807-3.795 5.592-8.022 8.399-11.817z" class="cls-13" data-name="Path 806"/>
            <path id="Path_807" d="M1422.023 148.787c-2.9 2.635-5.913 5.608-8.557 8.5a22.62 22.62 0 0 1-2.25-3.481l-3.478.868a34.51 34.51 0 0 0 5.886 5.93c2.807-3.795 5.592-8.022 8.399-11.817z" class="cls-13" data-name="Path 807"/>
            <path id="Path_827" d="M1423.3 93.842c-3.183 2.288-6.517 4.9-9.476 7.473a22.691 22.691 0 0 1-1.839-3.716l-3.554.464a34.488 34.488 0 0 0 5.175 6.566c3.224-3.456 6.474-7.34 9.694-10.787z" class="cls-13" data-name="Path 827"/>
        </g>
    </g>
</svg>
