<svg xmlns="http://www.w3.org/2000/svg" width="169.42" height="148.613" viewBox="0 0 169.42 148.613">
    <defs>
        <style>
            .cls-1,.cls-3,.cls-4{fill:none;stroke-miterlimit:10}.cls-1{stroke:#bf263f;stroke-width:1.426px;stroke-dasharray:2.341 4.681;opacity:.512}.cls-2{fill:#ed4d67;opacity:.1}.cls-3,.cls-4{stroke:#f7657d;stroke-width:1.17px}.cls-3{opacity:.18}.cls-4{opacity:.14}.cls-5{fill:#fff}.cls-6{fill:#bf263f}
        </style>
    </defs>
    <g id="_21" data-name="21" transform="translate(-1157.668 -554.235)">
        <g id="Group_2358" data-name="Group 2358">
            <g id="Group_2354" data-name="Group 2354">
                <g id="Group_2352" data-name="Group 2352">
                    <path id="Path_826" d="M1177.124 588.874c10.873 33.834 16.16 56.832 6.283 89.336-10.607 34.909 61.973 26.781 89.338 6.284 26.017-19.489 70.688-44.274-6.283-89.337-31.954-18.707-100.662-41.52-89.338-6.283z" class="cls-1" data-name="Path 826"/>
                    <path id="Path_777" d="M1308.088 580.573c-15.262 34.576-23.41 58.314-16.578 93.791 7.339 38.1-68.522 21.435-95.187-3.286-25.353-23.5-69.842-54.685 16.577-93.79 35.871-16.234 111.076-32.724 95.188 3.285z" class="cls-2" data-name="Path 777"/>
                </g>
                <g id="Group_2356" data-name="Group 2356">
                    <circle id="Ellipse_80" cx="3.297" cy="3.297" r="3.297" class="cls-3" data-name="Ellipse 80" transform="translate(1302.228 584.9)"/>
                    <path id="Path_823" d="M1309.955 620.538l5.172-2.714.7-5.8 4.179 4.08 5.735-1.129-2.589 5.235 2.845 5.1-5.779-.845-3.973 4.283-.983-5.757z" class="cls-4" data-name="Path 823"/>
                    <path id="Path_828" d="M1161.235 555.327l3.389 1.9 3.495-1.712-.762 3.812 2.708 2.788-3.859.453-1.817 3.438-1.623-3.531-3.83-.664 2.857-2.635z" class="cls-4" data-name="Path 828"/>
                    <circle id="Ellipse_81" cx="5.638" cy="5.638" r="5.638" class="cls-3" data-name="Ellipse 81" transform="translate(1162.954 672.676)"/>
                </g>
            </g>
        </g>
        <g id="Group_3763" data-name="Group 3763">
            <g id="Group_3755" data-name="Group 3755">
                <path id="Path_2636" d="M1278.866 664.26c-.945-6.22-1.733-8.574-10.364-9.575-3.265-.376-12.158-1.293-15.467-3.18s-2.778-11.342-2.778-11.342h-18.065s.528 9.452-2.781 11.342-12.2 2.8-15.467 3.18c-8.631 1-9.419 3.355-10.364 9.575a97.42 97.42 0 0 0-.788 11.657h76.861a97.548 97.548 0 0 0-.787-11.657z" class="cls-5" data-name="Path 2636"/>
                <path id="Path_2637" d="M1279.653 677.235h-76.861a1.32 1.32 0 0 1-1.318-1.325 98.023 98.023 0 0 1 .8-11.848c1.051-6.908 2.315-9.619 11.515-10.687l.615-.071c3.43-.388 11.466-1.3 14.353-2.945 1.792-1.024 2.317-6.536 2.116-10.123a1.317 1.317 0 0 1 1.316-1.392h18.065a1.32 1.32 0 0 1 1.318 1.391c-.2 3.589.327 9.1 2.114 10.125 2.884 1.644 10.917 2.556 14.349 2.944l.616.07c9.2 1.069 10.464 3.78 11.514 10.688a96.772 96.772 0 0 1 .8 11.848 1.32 1.32 0 0 1-1.319 1.325zm-75.519-2.637h74.18a88.98 88.98 0 0 0-.751-10.139c-.858-5.631-1.144-7.529-9.213-8.465l-.608-.07c-3.9-.441-12-1.36-15.359-3.275-3.179-1.816-3.517-8.114-3.486-11.168h-15.343c.031 3.054-.309 9.352-3.489 11.168-3.355 1.915-11.463 2.834-15.361 3.275l-.608.07c-8.067.936-8.355 2.834-9.21 8.465a88.786 88.786 0 0 0-.752 10.141z" class="cls-6" data-name="Path 2637"/>
            </g>
            <g id="Group_3756" data-name="Group 3756">
                <path id="Path_2638" d="M1261.56 616.567h-.4c.17-1.381.343-2.741.51-4.028.871-6.672 2.83-26.164-20.444-26.164s-21.317 19.492-20.446 26.164c.167 1.287.339 2.647.512 4.028h-.4c-3.543-2.62-3.839 4.223-2.363 6.562a14.249 14.249 0 0 1 1.987 4.277c.544 1.573 1.45 1.78 2.2 1.61.1.931.178 1.743.235 2.39.327 3.6 8.973 10.8 10.93 13.054 1.836 2.114 4.9 1.29 5.878 1.246s1.465-.072 1.465-.072.471.026 1.463.072 4.042.868 5.878-1.246c1.959-2.253 10.6-9.457 10.928-13.054.059-.647.141-1.459.236-2.392.757.172 1.661-.035 2.2-1.608a14.231 14.231 0 0 1 1.988-4.277c1.483-2.339 1.183-9.182-2.357-6.562z" class="cls-5" data-name="Path 2638"/>
                <path id="Path_2639" d="M1244.95 647.219a14.058 14.058 0 0 1-1.828-.142c-.2-.025-.366-.049-.492-.054l-1.406-.069-1.4.069c-.129.005-.3.029-.494.054a14.135 14.135 0 0 1-1.829.142 5.8 5.8 0 0 1-4.611-1.9c-.453-.522-1.37-1.4-2.428-2.419-4.668-4.486-8.554-8.438-8.822-11.381-.03-.364-.072-.783-.118-1.245a3.426 3.426 0 0 1-2.253-2.442l-.154-.451a12.01 12.01 0 0 0-1.7-3.552 9 9 0 0 1-.343-7.647 2.689 2.689 0 0 1 2.657-1.514c-.085-.668-.169-1.325-.254-1.963-.459-3.52-1.854-14.23 4.284-21.218 3.749-4.27 9.627-6.436 17.47-6.436s13.721 2.166 17.473 6.437c6.136 6.992 4.738 17.7 4.279 21.217l-.252 1.964a2.683 2.683 0 0 1 2.657 1.513 9 9 0 0 1-.345 7.646 11.921 11.921 0 0 0-1.7 3.544l-.159.46a3.417 3.417 0 0 1-2.253 2.442c-.047.464-.088.882-.121 1.246-.265 2.942-4.151 6.9-8.819 11.381-1.058 1.018-1.972 1.9-2.426 2.418a5.8 5.8 0 0 1-4.613 1.9zm-3.726-2.9h.072l1.452.072c.178.008.42.036.706.072a11.7 11.7 0 0 0 1.5.121 3.22 3.22 0 0 0 2.621-.987c.531-.612 1.439-1.485 2.59-2.589 2.732-2.628 7.82-7.517 8.018-9.72.062-.652.145-1.468.24-2.406a1.318 1.318 0 0 1 1.6-1.151.672.672 0 0 0 .136.017c.25 0 .484-.642.528-.77l.157-.456a14.372 14.372 0 0 1 1.965-4.1c.886-1.4.744-4.7.136-5.14a2.614 2.614 0 0 0-.6.342 1.316 1.316 0 0 1-.785.258h-.4a1.317 1.317 0 0 1-1.307-1.479c.169-1.384.342-2.746.509-4.036.423-3.228 1.7-13.043-3.646-19.137-3.226-3.676-8.437-5.54-15.49-5.54s-12.261 1.863-15.49 5.538c-5.348 6.092-4.071 15.911-3.648 19.138.167 1.288.339 2.652.512 4.036a1.316 1.316 0 0 1-1.308 1.48h-.4a1.323 1.323 0 0 1-.785-.258 1.362 1.362 0 0 0-.646-.33c-.562.406-.708 3.718.182 5.129a14.356 14.356 0 0 1 1.965 4.1l.154.446c.047.13.281.774.536.774a.589.589 0 0 0 .134-.018 1.306 1.306 0 0 1 1.058.216 1.324 1.324 0 0 1 .544.936c.095.938.177 1.755.234 2.4.2 2.2 5.288 7.09 8.023 9.718 1.148 1.1 2.057 1.978 2.59 2.59a3.222 3.222 0 0 0 2.621.987 11.687 11.687 0 0 0 1.5-.121c.286-.036.526-.064.709-.072l1.449-.072z" class="cls-6" data-name="Path 2639"/>
            </g>
            <g id="Group_3757" data-name="Group 3757">
                <path id="Path_2640" d="M1256.938 586.375c-4.928-2.168-7.312-.966-7.312-.966v.005c-1.323-1.417-4.727-3.8-12.215-2.783-10.4 1.42-11.422 3.744-15.279 2.835a25.621 25.621 0 0 0-2.479 6.733 43.113 43.113 0 0 0 1.437 23.483 62.618 62.618 0 0 0 1.8 6.165s-.981-12.757.978-17.8 8.845-6.141 11.139-3.935 6.223 1.948 6.223 1.948 3.932.256 6.221-1.948c1.934-1.861 7.117-1.362 9.879 1.867l.909 1.33a7.593 7.593 0 0 1 .351.738c1.962 5.041.981 17.8.981 17.8a63.822 63.822 0 0 0 2.932-12.3c2.719-16.075-1.09-21.201-5.565-23.172z" class="cls-5" data-name="Path 2640"/>
                <path id="Path_2641" d="M1222.884 623.165a1.318 1.318 0 0 1-1.239-.868 63.585 63.585 0 0 1-1.838-6.307 44.406 44.406 0 0 1-1.447-24.06 26.877 26.877 0 0 1 2.626-7.12 1.314 1.314 0 0 1 1.447-.628c1.609.379 2.644.066 4.684-.58a54.086 54.086 0 0 1 10.114-2.277 26.9 26.9 0 0 1 3.615-.26c4.871 0 7.673 1.593 9.127 2.86a7.718 7.718 0 0 1 1.656-.166 14.733 14.733 0 0 1 5.84 1.408c6.666 2.937 8.677 10.754 6.331 24.6a64.6 64.6 0 0 1-2.994 12.528 1.319 1.319 0 0 1-2.554-.551c.01-.125.934-12.516-.9-17.218a5.6 5.6 0 0 0-.254-.538l-.822-1.2a7.585 7.585 0 0 0-5.5-2.433 3.631 3.631 0 0 0-2.418.711c-2.178 2.1-5.448 2.325-6.754 2.325-.172 0-.3 0-.381-.006s-.208.006-.384.006c-1.3 0-4.572-.227-6.753-2.325a3.652 3.652 0 0 0-2.433-.713 7.089 7.089 0 0 0-6.564 4.179c-1.684 4.329-1.032 15.167-.909 16.963a1.333 1.333 0 0 1 .049.354 1.319 1.319 0 0 1-1.318 1.318.064.064 0 0 1-.027-.002zm-.029-36.232a24.836 24.836 0 0 0-1.915 5.536 41.607 41.607 0 0 0 .43 19.541 28.707 28.707 0 0 1 1.264-8.438c1.573-4.026 5.778-5.858 9.02-5.858a6.086 6.086 0 0 1 4.261 1.45c1.532 1.474 4.158 1.588 4.925 1.588.176 0 .284-.005.3-.006h.167c.016 0 .124.006.3.006.77 0 3.4-.114 4.926-1.587a6.067 6.067 0 0 1 4.246-1.448 10.154 10.154 0 0 1 7.549 3.408 1.119 1.119 0 0 1 .085.111l.912 1.33a1.416 1.416 0 0 1 .079.136 8.512 8.512 0 0 1 .407.863 25.409 25.409 0 0 1 1.205 7.095q.1-.631.175-1.273c2.784-16.438-1.4-20.314-4.781-21.806a12.068 12.068 0 0 0-4.779-1.186 4.175 4.175 0 0 0-1.419.2 1.344 1.344 0 0 1-.4.124 1.312 1.312 0 0 1-1.154-.4c-.909-.976-3.136-2.612-7.814-2.612a24.275 24.275 0 0 0-3.26.236 51.824 51.824 0 0 0-9.674 2.178 11.458 11.458 0 0 1-5.055.812z" class="cls-6" data-name="Path 2641"/>
            </g>
            <path id="Path_2642" d="M1245.648 639.879a1.318 1.318 0 1 1 0-2.636c6.838 0 11.787-1.665 14.707-4.945a11.929 11.929 0 0 0 2.832-8.529 1.318 1.318 0 0 1 2.616-.321 14.4 14.4 0 0 1-3.447 10.566c-3.438 3.892-9.056 5.865-16.708 5.865z" class="cls-6" data-name="Path 2642"/>
            <g id="Group_3758" data-name="Group 3758">
                <path id="Path_2643" d="M1268.437 619.5c0-4.854-2.008-8.787-4.49-8.812h-1.617v.543c-1.825 1.236-3.288 4.467-3.288 8.273s1.463 7.036 3.288 8.272v.543h1.617c2.482-.033 4.49-3.968 4.49-8.819z" class="cls-5" data-name="Path 2643"/>
                <path id="Path_2644" d="M1263.947 629.634h-1.617a1.318 1.318 0 0 1-1.313-1.218c-1.993-1.761-3.293-5.224-3.293-8.915s1.3-7.154 3.293-8.917a1.318 1.318 0 0 1 1.313-1.218h1.617a1.321 1.321 0 0 1 .142.008c3.239.143 5.667 4.46 5.667 10.127s-2.428 9.984-5.667 10.127a1.584 1.584 0 0 1-.142.006zM1263.4 627h.535c1.331-.013 3.185-2.871 3.185-7.493s-1.854-7.48-3.185-7.494a.845.845 0 0 1-.087 0h-.448a1.365 1.365 0 0 1-.33.317c-1.344.911-2.709 3.67-2.709 7.181s1.365 6.27 2.709 7.18a1.345 1.345 0 0 1 .33.309z" class="cls-6" data-name="Path 2644"/>
            </g>
            <g id="Group_3759" data-name="Group 3759">
                <path id="Path_2645" d="M1264.063 626.458a1.91 1.91 0 0 1-1.674 2.083h-1.673a1.912 1.912 0 0 1-1.674-2.083v-13.915a1.913 1.913 0 0 1 1.674-2.084h1.673a1.912 1.912 0 0 1 1.674 2.084z" class="cls-5" data-name="Path 2645"/>
                <path id="Path_2646" d="M1262.389 629.86h-1.673a3.222 3.222 0 0 1-2.992-3.4v-13.917a3.222 3.222 0 0 1 2.992-3.4h1.673a3.22 3.22 0 0 1 2.992 3.4v13.915a3.22 3.22 0 0 1-2.992 3.402zm-1.673-18.082c-.088 0-.356.271-.356.765v13.915c0 .495.268.765.356.765h1.673c.09 0 .356-.27.356-.765v-13.915c0-.494-.266-.765-.356-.765z" class="cls-6" data-name="Path 2646"/>
            </g>
            <g id="Group_3760" data-name="Group 3760">
                <path id="Path_2647" d="M1214.008 619.5c0-4.854 2.009-8.787 4.491-8.812h1.617v.543c1.828 1.236 3.288 4.467 3.288 8.273s-1.46 7.036-3.288 8.272v.543h-1.616c-2.483-.033-4.492-3.968-4.492-8.819z" class="cls-5" data-name="Path 2647"/>
                <path id="Path_2648" d="M1220.116 629.634h-1.616c-.049 0-.095 0-.142-.006-3.239-.143-5.667-4.46-5.667-10.127s2.428-9.985 5.67-10.127a1.28 1.28 0 0 1 .139-.008h1.617a1.32 1.32 0 0 1 1.316 1.218c1.99 1.763 3.29 5.226 3.29 8.917s-1.3 7.154-3.29 8.915a1.32 1.32 0 0 1-1.317 1.218zM1218.6 627h.451a1.367 1.367 0 0 1 .327-.317c1.346-.91 2.709-3.669 2.709-7.18s-1.363-6.27-2.709-7.181a1.387 1.387 0 0 1-.327-.317h-.451a.809.809 0 0 1-.087 0c-1.329.014-3.185 2.872-3.185 7.494s1.856 7.48 3.185 7.493z" class="cls-6" data-name="Path 2648"/>
            </g>
            <g id="Group_3761" data-name="Group 3761">
                <path id="Path_2649" d="M1218.383 626.458a1.912 1.912 0 0 0 1.674 2.083h1.673a1.912 1.912 0 0 0 1.674-2.083v-13.915a1.913 1.913 0 0 0-1.674-2.084h-1.673a1.913 1.913 0 0 0-1.674 2.084z" class="cls-5" data-name="Path 2649"/>
                <path id="Path_2650" d="M1221.73 629.86h-1.673a3.222 3.222 0 0 1-2.992-3.4v-13.917a3.222 3.222 0 0 1 2.992-3.4h1.673a3.22 3.22 0 0 1 2.992 3.4v13.915a3.22 3.22 0 0 1-2.992 3.402zm-1.673-18.082c-.088 0-.356.271-.356.765v13.915c0 .495.268.765.356.765h1.673c.09 0 .356-.27.356-.765v-13.915c0-.494-.266-.765-.356-.765z" class="cls-6" data-name="Path 2650"/>
            </g>
            <g id="Group_3762" data-name="Group 3762">
                <path id="Path_2651" d="M1263.968 612.7a1.319 1.319 0 0 1-1.319-1.318c0-12.364-9.612-22.424-21.425-22.424s-21.425 10.06-21.425 22.424a1.318 1.318 0 0 1-2.637 0c0-13.819 10.794-25.061 24.062-25.061s24.062 11.242 24.062 25.061a1.317 1.317 0 0 1-1.318 1.318z" class="cls-6" data-name="Path 2651"/>
            </g>
            <rect id="Rectangle_1191" width="9.8" height="3.677" class="cls-5" data-name="Rectangle 1191" rx="1.81" transform="translate(1239.746 636.723)"/>
            <path id="Path_2652" d="M1247.739 641.718h-6.183a3.157 3.157 0 0 1 0-6.314h6.183a3.157 3.157 0 0 1 0 6.314zm-6.183-3.677a.492.492 0 0 0-.491.492.508.508 0 0 0 .491.548h6.183a.491.491 0 0 0 .489-.492.506.506 0 0 0-.489-.548z" class="cls-6" data-name="Path 2652"/>
            <path id="Path_2653" d="M1241.034 652.331l-9.561-4.125h-.005a5.361 5.361 0 0 1-2.057 3.3c-3.309 1.887-12.2 2.8-15.467 3.18-8.631 1-9.419 3.355-10.364 9.575a97.42 97.42 0 0 0-.788 11.657h76.861a97.548 97.548 0 0 0-.787-11.657c-.945-6.22-1.733-8.574-10.364-9.575-3.265-.376-12.158-1.293-15.467-3.18a5.36 5.36 0 0 1-2.055-3.3h-.005z" class="cls-5" data-name="Path 2653"/>
            <path id="Path_2654" d="M1279.682 677.235h-76.89a1.32 1.32 0 0 1-1.318-1.325 98.023 98.023 0 0 1 .8-11.848c1.051-6.908 2.315-9.619 11.515-10.687l.615-.071c3.43-.388 11.466-1.3 14.353-2.945a4.263 4.263 0 0 0 1.441-2.514A1.355 1.355 0 0 1 1232 647l9.048 3.9 9.426-3.912a1.325 1.325 0 0 1 1.777.859 4.252 4.252 0 0 0 1.445 2.513c2.881 1.644 10.914 2.556 14.346 2.944l.616.07c9.2 1.069 10.464 3.78 11.514 10.688a94.951 94.951 0 0 1 .8 11.579 1.2 1.2 0 0 1 .031.276 1.32 1.32 0 0 1-1.321 1.318zm-75.548-2.637h74.18a88.98 88.98 0 0 0-.751-10.139c-.858-5.631-1.144-7.529-9.213-8.465l-.608-.07c-3.9-.441-12-1.36-15.359-3.275a5.383 5.383 0 0 1-2.186-2.693l-8.656 3.593a1.325 1.325 0 0 1-1.027-.008l-8.271-3.567a5.362 5.362 0 0 1-2.175 2.674c-3.358 1.916-11.466 2.835-15.364 3.276l-.608.07c-8.067.936-8.355 2.834-9.21 8.465a88.786 88.786 0 0 0-.752 10.141z" class="cls-6" data-name="Path 2654"/>
            <path id="Path_2655" d="M1241.69 657.429l-.466-.654-.469.654-4.591 17.674 2.624.814h4.869l2.624-.814z" class="cls-5" data-name="Path 2655"/>
            <path id="Path_2656" d="M1243.657 677.235h-4.869a1.348 1.348 0 0 1-.388-.059l-2.624-.814a1.316 1.316 0 0 1-.886-1.591l4.591-17.674a1.3 1.3 0 0 1 .2-.435l.466-.654a1.322 1.322 0 0 1 1.074-.551 1.318 1.318 0 0 1 1.074.552l.466.654a1.3 1.3 0 0 1 .2.434l4.593 17.674a1.319 1.319 0 0 1-.885 1.591l-2.624.814a1.359 1.359 0 0 1-.388.059zm-4.668-2.637h4.47l1.231-.382-3.466-13.34-3.466 13.34z" class="cls-6" data-name="Path 2656"/>
            <path id="Path_2657" d="M1223.4 653.343c-3.571.7-7.511 1.118-9.46 1.342-8.631 1-9.419 3.355-10.364 9.575a97.42 97.42 0 0 0-.788 11.657h36z" class="cls-5" data-name="Path 2657"/>
            <path id="Path_2658" d="M1238.788 677.235h-36a1.323 1.323 0 0 1-1.318-1.325 98.023 98.023 0 0 1 .8-11.848c1.051-6.908 2.315-9.619 11.515-10.687l.592-.068c2.086-.235 5.577-.632 8.768-1.258a1.314 1.314 0 0 1 1.341.551l15.385 22.574a1.318 1.318 0 0 1-1.09 2.061zm-34.654-2.637h32.166l-13.5-19.798c-3.041.554-6.179.909-8.121 1.129l-.584.067c-8.067.936-8.355 2.834-9.21 8.465a88.88 88.88 0 0 0-.751 10.139z" class="cls-6" data-name="Path 2658"/>
            <path id="Path_2659" d="M1279.653 675.917a97.548 97.548 0 0 0-.787-11.657c-.945-6.22-1.733-8.574-10.364-9.575-1.947-.224-5.889-.641-9.46-1.342l-15.385 22.574z" class="cls-5" data-name="Path 2659"/>
            <path id="Path_2660" d="M1279.653 677.235h-36a1.32 1.32 0 0 1-1.089-2.061l15.385-22.574a1.318 1.318 0 0 1 1.344-.551c3.187.625 6.676 1.021 8.762 1.258l.6.067c9.2 1.069 10.464 3.78 11.514 10.688a96.772 96.772 0 0 1 .8 11.848 1.32 1.32 0 0 1-1.319 1.325zm-33.5-2.637h32.162a88.98 88.98 0 0 0-.751-10.139c-.858-5.631-1.144-7.529-9.213-8.465l-.59-.067c-1.941-.22-5.077-.577-8.113-1.129z" class="cls-6" data-name="Path 2660"/>
            <path id="Path_2661" d="M1237.934 655.509l3.1 3.291 3.613-3.291-3.613-3.177z" class="cls-5" data-name="Path 2661"/>
            <path id="Path_2662" d="M1241.034 660.118a1.308 1.308 0 0 1-.958-.415l-3.1-3.291a1.317 1.317 0 0 1 .015-1.824l3.1-3.177a1.318 1.318 0 0 1 1.815-.07l3.613 3.178a1.321 1.321 0 0 1 .015 1.964l-3.612 3.291a1.316 1.316 0 0 1-.888.344zm-1.272-4.594l1.344 1.428 1.565-1.427-1.568-1.377z" class="cls-6" data-name="Path 2662"/>
            <path id="Path_2663" d="M1241.034 652.331l-6.313 6.468-6.313-6.468 3.067-4.125z" class="cls-5" data-name="Path 2663"/>
            <path id="Path_2664" d="M1234.72 660.118a1.319 1.319 0 0 1-.942-.4l-6.314-6.468a1.317 1.317 0 0 1-.115-1.707l3.066-4.125A1.315 1.315 0 0 1 1232 647l9.56 4.125a1.317 1.317 0 0 1 .423 2.131l-6.314 6.468a1.329 1.329 0 0 1-.949.394zm-4.583-7.9l4.583 4.7 4.032-4.13-6.844-2.952z" class="cls-6" data-name="Path 2664"/>
            <path id="Path_2665" d="M1241.034 652.331l6.316 6.468 6.311-6.468-3.064-4.125z" class="cls-5" data-name="Path 2665"/>
            <path id="Path_2666" d="M1247.35 660.118a1.319 1.319 0 0 1-.943-.4l-6.316-6.468a1.318 1.318 0 0 1 .423-2.132l9.562-4.125a1.318 1.318 0 0 1 1.579.425l3.064 4.125a1.32 1.32 0 0 1-.114 1.707l-6.313 6.468a1.319 1.319 0 0 1-.942.4zm-4.033-7.336l4.033 4.13 4.583-4.7-1.772-2.384z" class="cls-6" data-name="Path 2666"/>
        </g>
    </g>
</svg>
