<svg xmlns="http://www.w3.org/2000/svg" width="169.421" height="148.613" viewBox="0 0 169.421 148.613">
    <defs>
        <style>
            .cls-1,.cls-3,.cls-4,.cls-6,.cls-7{fill:none}.cls-1,.cls-10,.cls-5,.cls-6,.cls-8{stroke:#bf263f}.cls-1,.cls-3,.cls-4{stroke-miterlimit:10}.cls-1{stroke-width:1.426px;stroke-dasharray:2.341 4.681;opacity:.512}.cls-2{fill:#ed4d67;opacity:.1}.cls-3,.cls-4{stroke:#f7657d;stroke-width:1.17px}.cls-3{opacity:.18}.cls-4{opacity:.14}.cls-11,.cls-5,.cls-8{fill:#fff}.cls-10,.cls-5,.cls-6,.cls-7,.cls-8{stroke-linecap:round;stroke-linejoin:round}.cls-10,.cls-5,.cls-6,.cls-7{stroke-width:1.919px}.cls-7{stroke:#4783b2}.cls-8{stroke-width:1.977px}.cls-9{fill:#bf2640}.cls-10{fill:#666}
        </style>
    </defs>
    <g id="_04" data-name="4" transform="translate(-496.239 -57.284)">
        <g id="Group_2358" data-name="Group 2358">
            <g id="Group_2354" data-name="Group 2354">
                <g id="Group_2352" data-name="Group 2352">
                    <path id="Path_826" d="M515.7 91.923c10.873 33.834 16.159 56.833 6.283 89.336-10.608 34.909 61.972 26.781 89.337 6.284 26.018-19.489 70.688-44.273-6.283-89.337C573.08 79.5 504.371 56.686 515.7 91.923z" class="cls-1" data-name="Path 826"/>
                    <path id="Path_777" d="M646.659 83.622c-15.259 34.578-23.409 58.314-16.577 93.791 7.339 38.1-68.523 21.435-95.187-3.286-25.354-23.5-69.843-54.685 16.576-93.79 35.871-16.237 111.077-32.724 95.188 3.285z" class="cls-2" data-name="Path 777"/>
                </g>
                <g id="Group_2356" data-name="Group 2356">
                    <circle id="Ellipse_80" cx="3.297" cy="3.297" r="3.297" class="cls-3" data-name="Ellipse 80" transform="translate(640.799 87.949)"/>
                    <path id="Path_823" d="M648.527 123.588l5.172-2.714.7-5.8 4.179 4.08 5.735-1.129-2.589 5.235 2.845 5.1-5.779-.845-3.97 4.285-.983-5.757z" class="cls-4" data-name="Path 823"/>
                    <path id="Path_828" d="M499.807 58.376l3.388 1.9 3.5-1.713-.762 3.812 2.708 2.788-3.86.454-1.816 3.437-1.624-3.531-3.829-.663 2.857-2.635z" class="cls-4" data-name="Path 828"/>
                    <circle id="Ellipse_81" cx="5.638" cy="5.638" r="5.638" class="cls-3" data-name="Ellipse 81" transform="translate(501.526 175.725)"/>
                </g>
            </g>
        </g>
        <g id="Group_2368" data-name="Group 2368" transform="translate(6.735 3.469)">
            <g id="Group_2374" data-name="Group 2374" transform="translate(569.984 91.7)">
                <g id="Group_2373" data-name="Group 2373" transform="translate(0 53.586)">
                    <g id="Group_2372" data-name="Group 2372">
                        <g id="Group_2370" data-name="Group 2370">
                            <path id="Path_843" d="M618.813 154.937l-9.013 23.34h-6.722l-8.947-23.323c.314-.022.643-.029.972-.029h8.462v-3.09h6.095v3.09h8.468c.228-.001.456.006.685.012z" class="cls-5" data-name="Path 843" transform="translate(-577.223 -151.8)"/>
                            <path id="Path_844" d="M637.7 173.14v5.471h-26.2l9.009-23.339c.315.008.616.029.924.058a17.017 17.017 0 0 1 1.723.231v.007a17.2 17.2 0 0 1 1.78.431 17.991 17.991 0 0 1 2.04.743h.006a18.813 18.813 0 0 1 1.759.894 17.59 17.59 0 0 1 4.141 3.291 15.9 15.9 0 0 0 1.271 1.537l.007.006c.1.128.192.259.286.387a17.678 17.678 0 0 1 3.254 10.283z" class="cls-5" data-name="Path 844" transform="translate(-578.913 -152.134)"/>
                            <path id="Path_845" d="M601.259 178.613H575.4v-5.471a17.683 17.683 0 0 1 3.01-9.928 20.3 20.3 0 0 0 1.859-2.325 17.917 17.917 0 0 1 11.408-5.558h.008c.207-.022.415-.034.622-.042z" class="cls-5" data-name="Path 845" transform="translate(-575.399 -152.136)"/>
                            <path id="Path_846" d="M580.594 161.495a20.364 20.364 0 0 1-1.859 2.324c.1-.151.2-.3.308-.444a17.785 17.785 0 0 1 1.551-1.88z" class="cls-5" data-name="Path 846" transform="translate(-575.724 -152.74)"/>
                            <path id="Path_847" d="M611.314 151.8v.034h-.179a1.354 1.354 0 0 0 .179-.034z" class="cls-5" data-name="Path 847" transform="translate(-578.877 -151.796)"/>
                            <path id="Path_848" d="M636.456 163.078a16.043 16.043 0 0 1-1.27-1.537 15.219 15.219 0 0 1 1.27 1.537z" class="cls-5" data-name="Path 848" transform="translate(-581.218 -152.745)"/>
                            <g id="Group_2369" data-name="Group 2369" transform="translate(26.354 3.125)">
                                <path id="Line_273" d="M0 5.5V0" class="cls-6" data-name="Line 273"/>
                                <path id="Line_274" d="M0 5.5V0" class="cls-6" data-name="Line 274" transform="translate(6.094)"/>
                            </g>
                        </g>
                        <g id="Group_2371" data-name="Group 2371" transform="translate(16.26 3.154)">
                            <path id="Line_275" d="M.021.042L0 0" class="cls-7" data-name="Line 275"/>
                            <path id="Line_276" d="M.022 0L0 .042" class="cls-7" data-name="Line 276" transform="translate(26.256)"/>
                        </g>
                    </g>
                </g>
                <path id="Path_849" d="M629.89 154.814a17.636 17.636 0 0 0-4.141-3.291 18.821 18.821 0 0 0-1.759-.894h-.007a18.165 18.165 0 0 0-2.039-.743 17.291 17.291 0 0 0-1.785-.431v-.007a17.049 17.049 0 0 0-1.723-.231c-.307-.029-.608-.05-.924-.058-.231-.006-.462-.014-.686-.014h-8.468v-3.09a1.118 1.118 0 0 0 .163-.034 13.575 13.575 0 0 0 11.237-13.376v-1.165h-.014l-.036-6.136c.815-6.759-4.62-8.713-5.579-12.189a54.755 54.755 0 0 1-1.939-8.633 22.892 22.892 0 0 0-.028-3.047 9.641 9.641 0 0 0 .028 3.047c-.461 7.6-4.905 11.48-11.472 12.589a9.826 9.826 0 0 0-5.235 2.76 19.708 19.708 0 0 0-4.649 8.2v4.577a13.6 13.6 0 0 0 11.414 13.41h.014v3.09H593.8c-.33 0-.659.007-.973.029a9.203 9.203 0 0 0-.621.042 17.911 17.911 0 0 0-11.408 5.559c3.362-4.886 2.639-8.72 2.639-8.72v-35.746a17.883 17.883 0 0 1 17.881-17.88h8a17.878 17.878 0 0 1 17.88 17.875v35.745a12.257 12.257 0 0 0 2.692 8.762z" class="cls-8" data-name="Path 849" transform="translate(-575.924 -92.432)"/>
                <path id="Path_850" d="M592.256 119.593a14.534 14.534 0 0 1 8.866-5.406c5.744-.969 7.566-4.273 7.879-8.262" class="cls-6" data-name="Path 850" transform="translate(-577.04 -93.745)"/>
                <path id="Path_851" d="M620.794 126.643c.815-6.758-4.62-8.712-5.579-12.188a54.848 54.848 0 0 1-1.938-8.633c-.462 7.6-4.906 11.478-11.473 12.589a9.826 9.826 0 0 0-5.235 2.76 19.707 19.707 0 0 0-4.649 8.2v4.577a13.6 13.6 0 0 0 11.414 13.41h5.93a1.357 1.357 0 0 0 .179-.034v.034a1.156 1.156 0 0 0 .164-.034 13.576 13.576 0 0 0 11.234-13.38v-1.164h-.014z" class="cls-5" data-name="Path 851" transform="translate(-577.007 -93.735)"/>
                <path id="Path_852" d="M601.53 109.632a4.54 4.54 0 0 0 4.714-3.707" class="cls-6" data-name="Path 852" transform="translate(-577.942 -93.745)"/>
                <g id="Group_3595" data-name="Group 3595" transform="translate(25.347 26.311)">
                    <path id="Path_2381" d="M607.323 134.695a7.673 7.673 0 0 1 .433-2.842 5.829 5.829 0 0 1 1.585-2.083 8.129 8.129 0 0 0 1.535-1.67 2.626 2.626 0 0 0 .382-1.359q0-2.156-1.986-2.156a2.014 2.014 0 0 0-1.509.581 2.284 2.284 0 0 0-.592 1.6h-3.692a4.906 4.906 0 0 1 1.572-3.81 7.263 7.263 0 0 1 8.41-.07 4.647 4.647 0 0 1 1.489 3.69 4.5 4.5 0 0 1-.484 2.045 8.422 8.422 0 0 1-1.693 2.135l-1.032.981a3.5 3.5 0 0 0-1.108 2.179l-.051.778zm-.368 3.9a1.854 1.854 0 0 1 .579-1.4 2.271 2.271 0 0 1 2.967 0 1.98 1.98 0 0 1 .013 2.787 2.325 2.325 0 0 1-2.992 0 1.841 1.841 0 0 1-.567-1.382z" class="cls-9" data-name="Path 2381" transform="translate(-603.479 -121.58)"/>
                </g>
            </g>
            <g id="Group_2361" data-name="Group 2361" transform="translate(532.127 103.261)">
                <g id="Group_2359" data-name="Group 2359" transform="translate(0 18.494)">
                    <path id="Path_829" d="M569.553 138.457a4.635 4.635 0 0 1 .732 2.508 4.73 4.73 0 0 1-.19 1.319 4.6 4.6 0 0 1 1.007 2.888 4.667 4.667 0 0 1-4.668 4.66 4.548 4.548 0 0 1-2.342-.641 4.655 4.655 0 0 1-8.1 2.981 2.424 2.424 0 0 1-.291-.347.121.121 0 0 1-.03-.038 3.721 3.721 0 0 1-.42.51 4.648 4.648 0 0 1-5.735.733 2.743 2.743 0 0 1-.312-.206 4.458 4.458 0 0 1-.672-.578 4.66 4.66 0 0 1-8.5-1.259 4.452 4.452 0 0 1-.153-1.155 4.536 4.536 0 0 1 .13-1.069 4.48 4.48 0 0 1-1.548.267 4.66 4.66 0 0 1-3.66-7.542 4.5 4.5 0 0 1-.357-1.776 4.633 4.633 0 0 1 1.257-3.188 3.37 3.37 0 0 1-2.242-3.186v-.512a3.371 3.371 0 0 1 3.365-3.378h.005v-3.6c2.888 1.077 7.978 2.35 12.737.462v2.509a2.352 2.352 0 0 0 4.7 0v-2.657c4.882 1.937 10.342.617 13.338-.435 0 1.365.008 2.631.008 3.707h.04a4.714 4.714 0 0 1 1.9 9.028z" class="cls-5" data-name="Path 829" transform="translate(-533.459 -125.728)"/>
                </g>
                <g id="Group_2360" data-name="Group 2360" transform="translate(3.369)">
                    <path id="Path_830" d="M571.339 107.666c0 .4 0 1.662-.016 3.408" class="cls-7" data-name="Path 830" transform="translate(-540.513 -105.476)"/>
                    <path id="Path_2382" d="M568 110.839c-.009 3.394-.027 8.62-.027 12.89-3 1.047-27.892 1.192-30.781.117v-15.318s1.516-2.925 6.725-3.268 3.845 3.972 10.715 1.634a11.513 11.513 0 0 1 11.068 1.526 10.284 10.284 0 0 1 2.3 2.419z" class="cls-5" data-name="Path 2382" transform="translate(-537.191 -105.24)"/>
                </g>
            </g>
            <g id="Group_2364" data-name="Group 2364" transform="translate(519.771 147.034)">
                <g id="Group_2362" data-name="Group 2362" transform="translate(0 1.392)">
                    <path id="Path_832" d="M582.46 172.92v5.836h-62.689v-5.836a19.142 19.142 0 0 1 11.851-17.645 21.423 21.423 0 0 0 39.778.357 14.636 14.636 0 0 1 1.495.763 19.083 19.083 0 0 1 6.086 5.567 18.855 18.855 0 0 1 3.479 10.958z" class="cls-5" data-name="Path 832" transform="translate(-519.771 -155.275)"/>
                </g>
                <g id="Group_2363" data-name="Group 2363" transform="translate(17.338)">
                    <path id="Line_265" d="M.022.045L0 0" class="cls-7" data-name="Line 265"/>
                    <path id="Line_266" d="M.022 0L0 .045" class="cls-7" data-name="Line 266" transform="translate(27.996)"/>
                </g>
            </g>
            <path id="Path_833" d="M572.674 155.478a21.423 21.423 0 0 1-39.777-.357 19.107 19.107 0 0 1 1.776-.626 18.807 18.807 0 0 1 3.73-.718c.22-.022.45-.038.671-.046.291-.023.595-.03.9-.03a4.66 4.66 0 0 0 8.5 1.259 4.489 4.489 0 0 0 .671.577 2.838 2.838 0 0 0 .313.206 4.7 4.7 0 0 0 5.735-.732 3.793 3.793 0 0 0 .42-.511.124.124 0 0 0 .03.039 2.414 2.414 0 0 0 .291.346 4.658 4.658 0 0 0 7.679-1.189h1.052c.578 0 1.136.023 1.709.076h.008a18.61 18.61 0 0 1 1.837.252v.008a16.866 16.866 0 0 1 1.884.462 17.639 17.639 0 0 1 2.571.984z" class="cls-5" data-name="Path 833" transform="translate(-1.278 -6.695)"/>
            <path id="Line_267" d="M0 0v6.589" class="cls-6" data-name="Line 267" transform="translate(554.371 147.808)"/>
            <path id="Line_268" d="M0 5.549V0" class="cls-6" data-name="Line 268" transform="translate(547.874 148.847)"/>
            <path id="Path_837" d="M567.653 108.884c-.008-.008-.008-.015-.016-.023a10.255 10.255 0 0 0-2.3-2.417 11.492 11.492 0 0 0-11.066-1.526c-6.872 2.333-5.505-1.983-10.715-1.639s-6.727 3.272-6.727 3.272v-.077l.008-8.359a9.429 9.429 0 0 0-3.387-7.123c6.536-5.368 12.995.03 12.995.03.962-4.553-.6-5.6-.6-5.6 7.823-2.334 12.377 4.086 12.377 4.086 1.4-.7 5.891-2.685 5.891-2.685 4.356 3.208 3.54 22.061 3.54 22.061z" class="cls-5" data-name="Path 837" transform="translate(-1.331)"/>
            <path id="Path_838" d="M551.3 87.858a8.734 8.734 0 0 1 6.032 4.128" class="cls-10" data-name="Path 838" transform="translate(-3.069 -.287)"/>
            <path id="Path_839" d="M566.16 90.688a47.684 47.684 0 0 1 2.362 16.328" class="cls-10" data-name="Path 839" transform="translate(-4.515 -.563)"/>
            <g id="Group_2366" data-name="Group 2366" transform="translate(566.383 118.11)">
                <path id="Path_840" d="M574.788 125.07v.51a3.374 3.374 0 0 1-3.359 3.387h-.02v-7.277a3.373 3.373 0 0 1 2.4.991 3.14 3.14 0 0 1 .426.526v.008a3.2 3.2 0 0 1 .472 1.113.166.166 0 0 1 .023.053 4.085 4.085 0 0 1 .058.689z" class="cls-5" data-name="Path 840" transform="translate(-571.409 -121.69)"/>
            </g>
            <g id="Group_2367" data-name="Group 2367" transform="translate(532.118 118.112)">
                <path id="Path_841" d="M536.828 121.692v7.276a3.372 3.372 0 0 1-3.379-3.366v-.531a4.07 4.07 0 0 1 .061-.686.147.147 0 0 1 .023-.053 3.2 3.2 0 0 1 .472-1.113v-.008a3.109 3.109 0 0 1 .427-.525 3.372 3.372 0 0 1 2.396-.994z" class="cls-5" data-name="Path 841" transform="translate(-533.449 -121.692)"/>
            </g>
            <path id="Path_842" d="M532.9 155.121a19.927 19.927 0 0 1 1.776-.626 18.858 18.858 0 0 1 3.73-.717c.22-.023.451-.038.671-.046.29-.023.595-.031.9-.031a4.66 4.66 0 0 0 8.5 1.259 4.552 4.552 0 0 0 .671.578 2.746 2.746 0 0 0 .313.2 4.7 4.7 0 0 0 5.735-.732 3.774 3.774 0 0 0 .419-.51.138.138 0 0 0 .031.038 2.48 2.48 0 0 0 .291.347 4.657 4.657 0 0 0 7.678-1.19h1.052c.578 0 1.136.023 1.708.076h.008a18.59 18.59 0 0 1 1.838.252v.008a17.065 17.065 0 0 1 1.884.462 17.661 17.661 0 0 1 2.57.984" class="cls-6" data-name="Path 842" transform="translate(-1.278 -6.696)"/>
            <path id="Rectangle_1118" d="M0 0h28.885v18.956H0z" class="cls-11" data-name="Rectangle 1118" transform="translate(536.741 112.651)"/>
            <g id="Group_3596" data-name="Group 3596" transform="translate(544.782 115.302)">
                <path id="Path_2383" d="M551.323 131.695a7.672 7.672 0 0 1 .433-2.842 5.828 5.828 0 0 1 1.585-2.083 8.127 8.127 0 0 0 1.535-1.67 2.626 2.626 0 0 0 .382-1.359q0-2.156-1.986-2.156a2.014 2.014 0 0 0-1.509.581 2.284 2.284 0 0 0-.592 1.6h-3.692a4.906 4.906 0 0 1 1.572-3.81 7.263 7.263 0 0 1 8.41-.07 4.647 4.647 0 0 1 1.489 3.69 4.5 4.5 0 0 1-.484 2.045 8.42 8.42 0 0 1-1.693 2.135l-1.032.981a3.5 3.5 0 0 0-1.108 2.179l-.051.778zm-.368 3.9a1.854 1.854 0 0 1 .579-1.4 2.271 2.271 0 0 1 2.967 0 1.98 1.98 0 0 1 .013 2.787 2.325 2.325 0 0 1-2.992 0 1.841 1.841 0 0 1-.567-1.382z" class="cls-9" data-name="Path 2383" transform="translate(-547.479 -118.58)"/>
            </g>
        </g>
    </g>
</svg>
