<svg xmlns="http://www.w3.org/2000/svg" width="143.028" height="125.421" viewBox="0 0 143.028 125.421">
    <defs>
        <style>
            .cls-1,.cls-3,.cls-4{fill:none;stroke-miterlimit:10}.cls-1,.cls-5{stroke:#bf263f}.cls-1{stroke-width:1.426px;stroke-dasharray:2.341 4.681;opacity:.512}.cls-2{fill:#ed4d67;opacity:.1}.cls-3,.cls-4{stroke:#f7657d;stroke-width:1.17px}.cls-3{opacity:.18}.cls-4{opacity:.14}.cls-5,.cls-6{fill:#fff;stroke-linecap:round;stroke-linejoin:round}.cls-5{stroke-width:1.9px}.cls-7,.cls-8{stroke:none}.cls-8{fill:#bf263f}
        </style>
    </defs>
    <g id="_04" data-name="4" transform="translate(1.269 1.092)">
        <g id="Group_2358" data-name="Group 2358">
            <g id="Group_2354" data-name="Group 2354">
                <g id="Group_2352" data-name="Group 2352" transform="translate(2.643 3.126)">
                    <path id="Path_826" d="M515.5 89.011c9.155 28.489 13.606 47.855 5.29 75.223-8.932 29.394 52.182 22.55 75.224 5.291 21.908-16.41 59.521-37.279-5.29-75.224-26.906-15.751-84.761-34.96-75.224-5.29z" class="cls-1" data-name="Path 826" transform="translate(-502.828 -63.889)"/>
                    <path id="Path_777" d="M623.592 80.22c-12.851 29.114-19.711 49.1-13.958 78.974 6.18 32.082-57.7 18.049-80.149-2.767-21.349-19.786-58.809-46.046 13.957-78.973 30.204-13.668 93.529-27.554 80.15 2.766z" class="cls-2" data-name="Path 777" transform="translate(-500.647 -62.088)"/>
                </g>
                <g id="Group_2356" data-name="Group 2356">
                    <circle id="Ellipse_80" cx="2.776" cy="2.776" r="2.776" class="cls-3" data-name="Ellipse 80" transform="translate(120.654 24.901)"/>
                    <path id="Path_823" d="M648.527 122.243l4.355-2.285.591-4.884 3.519 3.435 4.829-.951-2.18 4.408 2.4 4.294-4.866-.712-3.344 3.606-.831-4.846z" class="cls-4" data-name="Path 823" transform="translate(-521.366 -67.333)"/>
                    <path id="Path_828" d="M499.444 58.376l2.853 1.6 2.944-1.442-.642 3.21 2.28 2.348-3.25.382-1.529 2.896-1.368-2.97-3.224-.558 2.406-2.219z" class="cls-4" data-name="Path 828" transform="translate(-497.508 -58.376)"/>
                    <circle id="Ellipse_81" cx="4.747" cy="4.747" r="4.747" class="cls-3" data-name="Ellipse 81" transform="translate(3.383 98.81)"/>
                </g>
            </g>
        </g>
        <g id="Group_3698" data-name="Group 3698" transform="translate(29.47 25.261)">
            <g id="Group_3691" data-name="Group 3691" transform="translate(10.88 .259)">
                <path id="Path_2568" d="M1656.6 344.929l-2.41-1.04a1.484 1.484 0 0 1-.36-2.505l2.019-1.676a.064.064 0 0 0 .017-.077l-3.058-6.7a.064.064 0 0 0-.07-.037l-2.589.428a1.491 1.491 0 0 1-1.441-.589 1.467 1.467 0 0 1-.215-1.323l.792-2.5a.064.064 0 0 0-.027-.074l-6.193-3.98a.065.065 0 0 0-.079.006l-1.947 1.76a1.454 1.454 0 0 1-.99.384 1.471 1.471 0 0 1-1.437-1.1l-.687-2.534a.064.064 0 0 0-.062-.048h-7.363a.066.066 0 0 0-.063.048l-.685 2.534a1.474 1.474 0 0 1-1.438 1.1 1.455 1.455 0 0 1-.99-.384l-1.946-1.76a.065.065 0 0 0-.078-.006l-6.194 3.98a.066.066 0 0 0-.027.074l.793 2.5a1.468 1.468 0 0 1-.216 1.323 1.488 1.488 0 0 1-1.442.589l-2.588-.428a.064.064 0 0 0-.07.037l-3.058 6.7a.066.066 0 0 0 .017.077l2.02 1.676a1.485 1.485 0 0 1-.36 2.505l-2.409 1.04a.064.064 0 0 0-.039.068l1.048 7.287a.064.064 0 0 0 .056.055l2.605.318a1.484 1.484 0 0 1 1.051 2.3l-1.465 2.177a.065.065 0 0 0 0 .078l4.821 5.564a.065.065 0 0 0 .077.016l2.364-1.14a1.468 1.468 0 0 1 .645-.15 1.5 1.5 0 0 1 1.065.451 1.467 1.467 0 0 1 .419 1.066l-.056 2.624a.064.064 0 0 0 .046.063l7.064 2.074a.066.066 0 0 0 .073-.028l1.372-2.237a1.484 1.484 0 0 1 2.531 0l1.372 2.237a.063.063 0 0 0 .055.031h.018l7.064-2.074a.066.066 0 0 0 .047-.063l-.056-2.624a1.466 1.466 0 0 1 .419-1.066 1.5 1.5 0 0 1 1.065-.451 1.47 1.47 0 0 1 .645.15l2.363 1.14a.065.065 0 0 0 .077-.016l4.821-5.564a.063.063 0 0 0 0-.078l-1.465-2.177a1.485 1.485 0 0 1 1.051-2.3l2.6-.318a.065.065 0 0 0 .057-.055l1.047-7.287a.063.063 0 0 0-.023-.071zm-22.417 11.244a10.615 10.615 0 1 1 10.614-10.614 10.615 10.615 0 0 1-10.611 10.614z" class="cls-5" data-name="Path 2568" transform="translate(-1611.729 -323.33)"/>
            </g>
            <g id="Group_3692" data-name="Group 3692" transform="translate(9.716)">
                <path id="Path_2569" d="M1655.116 344.6l-2.41-1.039a1.485 1.485 0 0 1-.36-2.505l2.02-1.676a.065.065 0 0 0 .017-.077l-3.058-6.7a.065.065 0 0 0-.069-.037l-2.589.429a1.491 1.491 0 0 1-1.441-.589 1.465 1.465 0 0 1-.215-1.323l.792-2.5a.066.066 0 0 0-.027-.074l-6.194-3.98a.065.065 0 0 0-.079.007l-1.946 1.76a1.456 1.456 0 0 1-.99.385 1.473 1.473 0 0 1-1.438-1.1l-.685-2.533a.065.065 0 0 0-.063-.048h-7.362a.065.065 0 0 0-.062.048l-.686 2.533a1.473 1.473 0 0 1-1.438 1.1 1.456 1.456 0 0 1-.99-.385l-1.946-1.76a.065.065 0 0 0-.078-.007l-6.194 3.98a.066.066 0 0 0-.027.074l.793 2.5a1.467 1.467 0 0 1-.216 1.323 1.489 1.489 0 0 1-1.441.589l-2.589-.429a.065.065 0 0 0-.069.037l-3.058 6.7a.065.065 0 0 0 .017.077l2.02 1.676a1.485 1.485 0 0 1-.36 2.505l-2.41 1.039a.066.066 0 0 0-.038.069l1.048 7.287a.064.064 0 0 0 .056.055l2.6.318a1.484 1.484 0 0 1 1.051 2.3l-1.465 2.177a.065.065 0 0 0 0 .078l4.821 5.564a.064.064 0 0 0 .077.016l2.364-1.141a1.482 1.482 0 0 1 .645-.149 1.5 1.5 0 0 1 1.065.45 1.469 1.469 0 0 1 .419 1.067l-.056 2.624a.065.065 0 0 0 .046.063l7.064 2.074a.065.065 0 0 0 .074-.028l1.371-2.237a1.483 1.483 0 0 1 2.531 0l1.373 2.237a.064.064 0 0 0 .055.031.049.049 0 0 0 .018 0l7.064-2.074a.065.065 0 0 0 .046-.063l-.056-2.624a1.467 1.467 0 0 1 .42-1.067 1.5 1.5 0 0 1 1.065-.45 1.481 1.481 0 0 1 .645.149l2.364 1.141a.065.065 0 0 0 .077-.016l4.821-5.564a.063.063 0 0 0 0-.078l-1.465-2.177a1.484 1.484 0 0 1 1.052-2.3l2.6-.318a.066.066 0 0 0 .056-.055l1.047-7.287a.066.066 0 0 0-.024-.072zm-22.416 11.243a10.615 10.615 0 1 1 10.615-10.615 10.615 10.615 0 0 1-10.615 10.615z" class="cls-5" data-name="Path 2569" transform="translate(-1610.243 -323)"/>
            </g>
            <g id="Group_3694" data-name="Group 3694" transform="translate(39.496 37.171)">
                <g id="Group_3693" data-name="Group 3693">
                    <path id="Path_2570" d="M1682.8 395.455l-1.425-1.554a1.193 1.193 0 0 1 .56-1.955l2.031-.565a.052.052 0 0 0 .038-.05l-.04-5.915a.052.052 0 0 0-.038-.05l-2.039-.537a1.2 1.2 0 0 1-.863-.906 1.179 1.179 0 0 1 .277-1.04l1.4-1.574a.051.051 0 0 0 0-.063l-3.231-4.955a.051.051 0 0 0-.059-.02l-2.006.649a1.165 1.165 0 0 1-.852-.044 1.182 1.182 0 0 1-.693-1.277l.33-2.082a.052.052 0 0 0-.03-.056l-5.4-2.422a.051.051 0 0 0-.061.015l-1.336 1.631a1.184 1.184 0 0 1-1.415.331 1.168 1.168 0 0 1-.6-.607l-.848-1.93a.051.051 0 0 0-.056-.031l-5.849.881a.052.052 0 0 0-.044.045l-.242 2.095a1.176 1.176 0 0 1-.594.9 1.2 1.2 0 0 1-1.25-.042l-1.756-1.166a.053.053 0 0 0-.063 0l-4.444 3.9a.052.052 0 0 0-.012.062l.929 1.893a1.193 1.193 0 0 1-1.088 1.718l-2.108-.031a.052.052 0 0 0-.051.038l-1.628 5.687a.051.051 0 0 0 .023.059l1.8 1.09a1.192 1.192 0 0 1 .013 2.033l-1.79 1.114a.053.053 0 0 0-.022.06l1.7 5.664a.052.052 0 0 0 .052.037l2.107-.058a1.181 1.181 0 0 1 .522.1 1.2 1.2 0 0 1 .632.681 1.177 1.177 0 0 1-.043.92l-.9 1.905a.052.052 0 0 0 .014.062l4.5 3.843a.052.052 0 0 0 .063 0l1.742-1.189a1.192 1.192 0 0 1 1.854.832l.27 2.092a.052.052 0 0 0 .031.041h.014l5.86.8a.053.053 0 0 0 .056-.031l.822-1.942a1.182 1.182 0 0 1 .658-.644 1.209 1.209 0 0 1 .929.02 1.185 1.185 0 0 1 .423.322l1.358 1.613a.053.053 0 0 0 .062.014l5.364-2.494a.052.052 0 0 0 .03-.056l-.358-2.078a1.192 1.192 0 0 1 1.527-1.342l2.015.624a.053.053 0 0 0 .059-.022l3.165-5a.053.053 0 0 0 .004-.043zm-20.131.871a8.529 8.529 0 1 1 11.272-4.291 8.529 8.529 0 0 1-11.267 4.291z" class="cls-5" data-name="Path 2570" transform="translate(-1648.257 -370.448)"/>
                </g>
            </g>
            <g id="Group_3696" data-name="Group 3696" transform="translate(15.152 45.238)">
                <g id="Group_3695" data-name="Group 3695">
                    <path id="Path_2571" d="M1639.29 396.748l-.912-.995a.764.764 0 0 1 .358-1.251l1.3-.361a.034.034 0 0 0 .024-.032l-.025-3.785a.032.032 0 0 0-.025-.031l-1.3-.344a.768.768 0 0 1-.552-.581.755.755 0 0 1 .177-.666l.9-1.007a.034.034 0 0 0 0-.04l-2.068-3.17a.034.034 0 0 0-.038-.014l-1.284.416a.749.749 0 0 1-.545-.027.758.758 0 0 1-.443-.818l.212-1.333a.033.033 0 0 0-.02-.035l-3.453-1.55a.032.032 0 0 0-.039.009l-.855 1.044a.757.757 0 0 1-.906.212.747.747 0 0 1-.384-.389l-.543-1.235a.034.034 0 0 0-.035-.02l-3.742.564a.033.033 0 0 0-.028.029l-.155 1.34a.752.752 0 0 1-.38.575.766.766 0 0 1-.8-.027l-1.124-.746a.034.034 0 0 0-.041 0l-2.844 2.5a.034.034 0 0 0-.008.039l.595 1.211a.763.763 0 0 1-.7 1.1l-1.349-.02a.034.034 0 0 0-.032.024l-1.042 3.639a.032.032 0 0 0 .014.038l1.156.7a.763.763 0 0 1 .009 1.3l-1.145.713a.034.034 0 0 0-.015.038l1.09 3.624a.033.033 0 0 0 .033.024l1.349-.037a.754.754 0 0 1 .334.065.775.775 0 0 1 .405.436.758.758 0 0 1-.028.589l-.578 1.219a.033.033 0 0 0 .009.039l2.877 2.46a.036.036 0 0 0 .041 0l1.114-.761a.762.762 0 0 1 1.187.532l.173 1.338a.033.033 0 0 0 .02.027h.009l3.75.514a.034.034 0 0 0 .035-.02l.526-1.242a.76.76 0 0 1 .422-.412.774.774 0 0 1 .594.013.762.762 0 0 1 .271.206l.869 1.033a.033.033 0 0 0 .039.009l3.432-1.6a.031.031 0 0 0 .019-.035l-.229-1.329a.763.763 0 0 1 .978-.859l1.289.4a.034.034 0 0 0 .038-.014l2.025-3.2a.032.032 0 0 0-.006-.033zm-12.882.557a5.458 5.458 0 1 1 7.214-2.746 5.458 5.458 0 0 1-7.214 2.741z" class="cls-5" data-name="Path 2571" transform="translate(-1617.183 -380.745)"/>
                </g>
            </g>
            <g id="Group_3697" data-name="Group 3697" transform="translate(0 11.027)">
                <g id="Path_2572" class="cls-6" data-name="Path 2572">
                    <path d="M1610.486 404.523l-2.337-.322.11-.073.776-.519.085.079.097-.2.235-.157-.12-.079.347-.716.218-.449.589 2.436z" class="cls-7" transform="translate(-1597.842 -344.598)"/>
                    <path d="M1611.586 405.632h-.017l-5.73-.79a.116.116 0 0 1-.047-.211l1.939-1.294c-2.188-1.437-4.038-3.63-5.463-5.797a26.444 26.444 0 0 1-3.305-7.167c-1.727-5.99-1.337-12.384.338-18.338.045-.16.17-.23.296-.23.191 0 .389.158.33.403-1.399 5.827-1.562 12.067.297 17.817.777 2.4 1.882 4.696 3.338 6.759a22.06 22.06 0 0 0 2.48 2.954c.871.864 1.828 1.594 2.772 2.373l.01.01 1.235-2.54a.113.113 0 0 1 .103-.066c.05 0 .1.031.113.09l1.422 5.884a.115.115 0 0 1-.111.143z" class="cls-8" transform="translate(-1597.842 -344.598)"/>
                </g>
                <g id="Path_2573" class="cls-6" data-name="Path 2573">
                    <path d="M1681.201 340.508l-1.012-2.293 2.358-.098-.096.092-.685.66-.09-.055-.054.194-.204.197.133.056-.214.766-.136.481z" class="cls-7" transform="translate(-1615.38 -337.076)"/>
                    <path d="M1684.71 337.076c.102 0 .154.126.079.198l-1.678 1.619c2.409 1.025 4.619 2.854 6.406 4.732a26.43 26.43 0 0 1 4.528 6.466c2.764 5.586 3.518 11.948 2.929 18.105a.302.302 0 0 1-.314.285c-.171 0-.345-.12-.332-.343.339-5.983-.61-12.154-3.462-17.48-1.191-2.224-2.687-4.287-4.487-6.059a22.127 22.127 0 0 0-2.966-2.466c-1.01-.695-2.083-1.243-3.15-1.842l-.012-.008-.763 2.72a.114.114 0 0 1-.111.084.114.114 0 0 1-.106-.069l-2.446-5.539a.116.116 0 0 1 .102-.162l5.777-.241h.006z" class="cls-8" transform="translate(-1615.38 -337.076)"/>
                </g>
            </g>
        </g>
    </g>
</svg>
