<svg xmlns="http://www.w3.org/2000/svg" id="Group_2607" width="40" height="40" data-name="Group 2607" viewBox="0 0 40 40">
    <defs>
        <style>
            .cls-1{fill:#f9f9f9}.cls-2{fill:#ccc;stroke:#ccc}.cls-3,.cls-4{stroke:none}.cls-4{fill:#ddd}
        </style>
    </defs>
    <g id="Path_672" class="cls-1" data-name="Path 672">
        <path d="M20 39.5a19.436 19.436 0 0 1-13.789-5.711A19.436 19.436 0 0 1 .5 20 19.436 19.436 0 0 1 6.211 6.211 19.436 19.436 0 0 1 20 .5a19.436 19.436 0 0 1 13.789 5.711A19.436 19.436 0 0 1 39.5 20a19.436 19.436 0 0 1-5.711 13.789A19.436 19.436 0 0 1 20 39.5z" class="cls-3"/>
        <path d="M20 1A18.938 18.938 0 0 0 6.565 6.565 18.938 18.938 0 0 0 1 20a18.938 18.938 0 0 0 5.565 13.435A18.938 18.938 0 0 0 20 39a18.938 18.938 0 0 0 13.435-5.565A18.938 18.938 0 0 0 39 20a18.938 18.938 0 0 0-5.565-13.435A18.938 18.938 0 0 0 20 1m0-1c11.046 0 20 8.954 20 20s-8.954 20-20 20S0 31.046 0 20 8.954 0 20 0z" class="cls-4"/>
    </g>
    <path id="Path_671" d="M536.754 1374.743a1.041 1.041 0 0 1-1.04 1.041h-4.162v3.93a1.04 1.04 0 1 1-2.081 0v-3.93h-3.931a1.04 1.04 0 0 1 0-2.081h3.931v-4.162a1.04 1.04 0 1 1 2.081 0v4.162h4.162a1.04 1.04 0 0 1 1.04 1.04z" class="cls-2" data-name="Path 671" transform="translate(-510.428 -1354.428)"/>
</svg>
