<svg xmlns="http://www.w3.org/2000/svg" width="169.421" height="148.613" viewBox="0 0 169.421 148.613">
    <defs>
        <style>
            .cls-1,.cls-3,.cls-4{fill:none;stroke-miterlimit:10}.cls-1{stroke:#bf263f;stroke-width:1.426px;stroke-dasharray:2.341 4.681;opacity:.512}.cls-2{fill:#ed4d67;opacity:.1}.cls-3,.cls-4{stroke:#f7657d;stroke-width:1.17px}.cls-3{opacity:.18}.cls-4{opacity:.14}.cls-5{fill:#fff}.cls-6{fill:#bf2640}
        </style>
    </defs>
    <g id="_03" data-name="3" transform="translate(-925.382 -57.284)">
        <g id="Group_2358" data-name="Group 2358">
            <g id="Group_2354" data-name="Group 2354">
                <g id="Group_2352" data-name="Group 2352">
                    <path id="Path_826" d="M944.839 91.923c10.872 33.834 16.159 56.833 6.283 89.336-10.608 34.909 61.972 26.781 89.337 6.284 26.018-19.489 70.688-44.273-6.283-89.337-31.953-18.706-100.662-41.52-89.337-6.283z" class="cls-1" data-name="Path 826"/>
                    <path id="Path_777" d="M1075.8 83.622c-15.262 34.576-23.409 58.314-16.577 93.791 7.339 38.1-68.523 21.435-95.187-3.286-25.354-23.5-69.843-54.685 16.576-93.79 35.873-16.237 111.079-32.724 95.188 3.285z" class="cls-2" data-name="Path 777"/>
                </g>
                <g id="Group_2356" data-name="Group 2356">
                    <circle id="Ellipse_80" cx="3.297" cy="3.297" r="3.297" class="cls-3" data-name="Ellipse 80" transform="translate(1069.942 87.949)"/>
                    <path id="Path_823" d="M1077.67 123.588l5.172-2.714.7-5.8 4.179 4.08 5.735-1.129-2.589 5.235 2.845 5.1-5.779-.845-3.972 4.283-.983-5.757z" class="cls-4" data-name="Path 823"/>
                    <path id="Path_828" d="M928.949 58.376l3.389 1.9 3.5-1.713-.762 3.812 2.707 2.788-3.859.454-1.824 3.44-1.624-3.531-3.829-.663 2.857-2.635z" class="cls-4" data-name="Path 828"/>
                    <circle id="Ellipse_81" cx="5.638" cy="5.638" r="5.638" class="cls-3" data-name="Ellipse 81" transform="translate(930.668 175.725)"/>
                </g>
            </g>
        </g>
        <g id="Group_3754" data-name="Group 3754" transform="translate(-8.286 -498.612)">
            <g id="Group_3745" data-name="Group 3745">
                <g id="Group_3736" data-name="Group 3736">
                    <g id="Group_3735" data-name="Group 3735">
                        <path id="Path_2623" d="M1032.095 663.908h-36.162v-74h55.152v55.078z" class="cls-5" data-name="Path 2623"/>
                    </g>
                </g>
                <g id="Group_3744" data-name="Group 3744">
                    <g id="Group_3737" data-name="Group 3737">
                        <path id="Path_2624" d="M1033.667 665.876h-36.285a1.188 1.188 0 0 1-1.189-1.191v-73.271a1.19 1.19 0 0 1 1.189-1.191h54.427a1.188 1.188 0 0 1 1.19 1.2l-.207 55.158a1.188 1.188 0 0 1-.344.833l-17.934 18.113a1.192 1.192 0 0 1-.847.349zm-35.093-2.381h34.6l17.24-17.413.2-53.48h-52.04z" class="cls-6" data-name="Path 2624"/>
                    </g>
                    <g id="Group_3738" data-name="Group 3738">
                        <path id="Path_2625" d="M1033.667 665.876a1.191 1.191 0 0 1-1.191-1.191v-9.011c0-7.117 3.14-10.293 10.182-10.293h8.942a1.192 1.192 0 0 1 .848 2.029l-17.934 18.113a1.2 1.2 0 0 1-.847.353zm8.991-18.113c-5.687 0-7.8 2.144-7.8 7.911v6.118l13.891-14.029z" class="cls-6" data-name="Path 2625"/>
                    </g>
                    <g id="Group_3739" data-name="Group 3739">
                        <path id="Path_2626" d="M1012.107 607.361h-2.057v-1.843h2.057zm2.1 0v-10.409h3.536a4.171 4.171 0 0 1 4.343 4.342v1.727a4.243 4.243 0 0 1-1.224 3.128 4.325 4.325 0 0 1-3.119 1.212zm2.057-8.8v7.19h1.363a2.122 2.122 0 0 0 1.756-.773 2.922 2.922 0 0 0 .625-1.959v-1.727a3.035 3.035 0 0 0-.625-1.985 2.173 2.173 0 0 0-1.756-.746zm15.715 4.528a4.373 4.373 0 0 1-1.2 3.174 4.5 4.5 0 0 1-6.193 0 4.466 4.466 0 0 1-1.2-3.174v-1.869a4.292 4.292 0 0 1 1.2-3.152 4 4 0 0 1 3.074-1.26 4.105 4.105 0 0 1 3.119 1.26 4.288 4.288 0 0 1 1.2 3.152zm-2.057-1.891a3.277 3.277 0 0 0-.6-2.009 2.16 2.16 0 0 0-3.3 0 3.366 3.366 0 0 0-.579 2.009v1.891a3.339 3.339 0 0 0 .6 2.029 1.938 1.938 0 0 0 1.641.773 1.964 1.964 0 0 0 1.64-.773 3.338 3.338 0 0 0 .6-2.029zm11.439 2.613l.024.046a3.386 3.386 0 0 1-1.016 2.662 4.062 4.062 0 0 1-2.89.98 3.953 3.953 0 0 1-3.027-1.212 4.3 4.3 0 0 1-1.156-3.106v-2.055a4.359 4.359 0 0 1 1.132-3.1 3.821 3.821 0 0 1 2.936-1.214 4.263 4.263 0 0 1 2.981.98 3.519 3.519 0 0 1 1.062 2.71l-.022.046h-2.011a2.326 2.326 0 0 0-.483-1.587 1.994 1.994 0 0 0-1.527-.536 1.7 1.7 0 0 0-1.457.746 3.248 3.248 0 0 0-.553 1.937v2.077a3.122 3.122 0 0 0 .578 1.961 1.863 1.863 0 0 0 1.547.749 1.829 1.829 0 0 0 1.433-.517 2.366 2.366 0 0 0 .462-1.563z" class="cls-6" data-name="Path 2626"/>
                    </g>
                    <g id="Group_3740" data-name="Group 3740">
                        <path id="Path_2627" d="M1042.726 622.366h-36.285a1.191 1.191 0 0 1 0-2.382h36.285a1.191 1.191 0 1 1 0 2.382z" class="cls-6" data-name="Path 2627"/>
                    </g>
                    <g id="Group_3741" data-name="Group 3741">
                        <path id="Path_2628" d="M1042.726 630.768h-36.285a1.191 1.191 0 0 1 0-2.382h36.285a1.191 1.191 0 1 1 0 2.382z" class="cls-6" data-name="Path 2628"/>
                    </g>
                    <g id="Group_3742" data-name="Group 3742">
                        <path id="Path_2629" d="M1042.726 639.17h-36.285a1.189 1.189 0 0 1 0-2.379h36.285a1.189 1.189 0 1 1 0 2.379z" class="cls-6" data-name="Path 2629"/>
                    </g>
                    <g id="Group_3743" data-name="Group 3743">
                        <path id="Path_2630" d="M1024.583 647.553h-18.142a1.191 1.191 0 0 1 0-2.382h18.142a1.191 1.191 0 1 1 0 2.382z" class="cls-6" data-name="Path 2630"/>
                    </g>
                </g>
            </g>
            <g id="Group_3753" data-name="Group 3753">
                <g id="Group_3747" data-name="Group 3747">
                    <g id="Group_3746" data-name="Group 3746">
                        <path id="Path_2631" d="M1020.419 672.664h-36.162v-74h55.152v55.078z" class="cls-5" data-name="Path 2631"/>
                    </g>
                </g>
                <g id="Group_3752" data-name="Group 3752">
                    <g id="Group_3748" data-name="Group 3748">
                        <path id="Path_2632" d="M1020.442 673.8h-36.255a1.188 1.188 0 0 1-1.187-1.193v-73.234a1.188 1.188 0 0 1 1.187-1.19h54.381a1.19 1.19 0 0 1 1.19 1.2l-.21 55.111a1.182 1.182 0 0 1-.342.831l-17.92 18.122a1.185 1.185 0 0 1-.844.353zm-35.066-2.379h34.569l17.228-17.422.2-53.435h-52z" class="cls-6" data-name="Path 2632"/>
                    </g>
                    <g id="Group_3749" data-name="Group 3749">
                        <path id="Path_2633" d="M1020.44 673.8a1.188 1.188 0 0 1-1.188-1.189v-9.025c0-7.114 3.137-10.287 10.171-10.287h8.937a1.189 1.189 0 0 1 .846 2.025l-17.92 18.122a1.185 1.185 0 0 1-.846.354zm8.983-18.122c-5.68 0-7.792 2.143-7.792 7.908v6.129l13.879-14.037z" class="cls-6" data-name="Path 2633"/>
                    </g>
                    <g id="Group_3750" data-name="Group 3750">
                        <path id="Path_2634" d="M998.9 615.308h-2.054v-1.817h2.054zm4.157-3.778v3.778H1001v-10.4h4.11a4.1 4.1 0 0 1 2.794.931 3.083 3.083 0 0 1 1.016 2.4 3.119 3.119 0 0 1-1.016 2.4 4.185 4.185 0 0 1-2.794.886zm0-1.61h2.056a1.645 1.645 0 0 0 1.293-.463 1.671 1.671 0 0 0 .438-1.214 1.755 1.755 0 0 0-.438-1.236 1.608 1.608 0 0 0-1.293-.489h-2.056zm7.367 5.388v-10.4h3.533a4.2 4.2 0 0 1 4.341 4.36v1.7a4.169 4.169 0 0 1-4.341 4.336zm2.077-8.79v7.182h1.364a2.156 2.156 0 0 0 1.731-.748 3.031 3.031 0 0 0 .624-1.981v-1.725a2.927 2.927 0 0 0-.624-1.96 2.1 2.1 0 0 0-1.731-.769zm13.786 4.476h-4.318v4.314h-2.055v-10.4H1027v1.61h-5.035v2.866h4.318z" class="cls-6" data-name="Path 2634"/>
                    </g>
                    <g id="Group_3751" data-name="Group 3751">
                        <path id="Path_2635" d="M1021.18 644.244a23.844 23.844 0 0 0-4.2.47 40.777 40.777 0 0 1-6.351-9.563c1.662-7.113.832-8.117.462-8.583-.392-.511-.946-1.33-1.57-1.33a6.1 6.1 0 0 0-1.27.208 2.488 2.488 0 0 0-1.431 1.542c-.879 2.1.345 5.642 1.569 8.4a83.79 83.79 0 0 1-4.733 13.576c-4.733 2.191-7.251 4.336-7.46 6.39a3.008 3.008 0 0 0 1.386 2.82 1.887 1.887 0 0 0 1.2.42c1.109 0 2.194-.839 3.486-2.659a36.344 36.344 0 0 0 2.979-5.364 59.78 59.78 0 0 1 11.037-3.571c1.963 1.912 3.741 2.891 5.266 2.891a3.287 3.287 0 0 0 2.771-1.515 2.571 2.571 0 0 0 .485-2.705c-.485-.956-1.663-1.426-3.626-1.426zm-22.38 12.224c-.577-.468-.553-.77-.531-.885.069-.7 1.156-1.938 3.833-3.453-2.032 3.778-3.116 4.268-3.3 4.338zm10.253-28.944c.069-.024 1.316 1.4.139 4.058a3.041 3.041 0 0 1-.139-4.058zm-2.564 20.221a89.289 89.289 0 0 0 3.326-9.539 44.145 44.145 0 0 0 4.779 7 64.853 64.853 0 0 0-8.105 2.543zm16.119-.584a1.891 1.891 0 0 1-1.524.538c-.669 0-.9-.4-1.917-1.192a20.938 20.938 0 0 1 2.262-.116 2.638 2.638 0 0 1 1.456.234 1.958 1.958 0 0 1-.277.536z" class="cls-6" data-name="Path 2635"/>
                    </g>
                </g>
            </g>
        </g>
    </g>
</svg>
