<svg xmlns="http://www.w3.org/2000/svg" width="79.975" height="25" viewBox="0 0 79.975 25">
    <defs>
        <style>
            .cls-1{fill:none}.cls-2{clip-path:url(#clip-path)}.cls-3{fill:#e84c4c}.cls-4,.cls-6{fill:#fff}.cls-4{font-size:12px;font-family:Roboto-Bold,Roboto;font-weight:700}.cls-5{fill:#404041}.cls-5,.cls-6,.cls-7{fill-rule:evenodd}.cls-7{fill:#231f20}
        </style>
        <clipPath id="clip-path">
            <path d="M0 0h79.975v25H0z" class="cls-1"/>
        </clipPath>
    </defs>
    <g id="Component_1" class="cls-2" data-name="Component 1">
        <rect id="Rectangle_828" width="79.975" height="25" class="cls-3" data-name="Rectangle 828" rx="12.5"/>
        <g id="Group_2055" data-name="Group 2055" transform="translate(35.618 3)">
            <text id="Angry" class="cls-4" transform="translate(16 13)">
                <tspan x="-15.882" y="0">Angry</tspan>
            </text>
        </g>
        <g id="Group_3460" data-name="Group 3460" transform="translate(10.178 6.05)">
            <g id="Group_1459" data-name="Group 1459" transform="translate(0 6.31)">
                <path id="Path_537" d="M518.028 145.955c-.5-2.831 3.782-6.541 9.97-6.534s10.468 3.7 9.97 6.534c-1.4-.949-5.685-2.2-9.973-2.133-4.287-.067-8.575 1.186-9.967 2.133z" class="cls-5" data-name="Path 537" transform="translate(-517.989 -139.421)"/>
                <path id="Path_538" d="M519.663 145.942a15.073 15.073 0 0 1 1.826-.7l-.435-2.029a4.328 4.328 0 0 0-1.391 2.729zm2.313-.847a24.064 24.064 0 0 1 3.163-.678l-.371-3.393a10.057 10.057 0 0 0-3.253 1.766l.46 2.306zm3.667-.748a27.58 27.58 0 0 1 3.227-.218l-.026-3.8a13.794 13.794 0 0 0-3.533.523l.332 3.493zm3.736-.218a27.592 27.592 0 0 1 3.227.218l.333-3.493a13.8 13.8 0 0 0-3.533-.523l-.026 3.8zm3.731.288a24.057 24.057 0 0 1 3.162.678l.461-2.306a10.06 10.06 0 0 0-3.253-1.766l-.37 3.393zm3.651.826a15.105 15.105 0 0 1 1.825.7 4.329 4.329 0 0 0-1.391-2.729z" class="cls-6" data-name="Path 538" transform="translate(-519.115 -140.033)"/>
            </g>
            <g id="Group_1460" data-name="Group 1460" transform="translate(1.028)">
                <path id="Path_539" d="M527.738 120.136c-.819 4.8-9.8 2.018-7.676-1.843 3.868 1.929 3.864 1.319 7.676 1.843z" class="cls-7" data-name="Path 539" transform="translate(-519.738 -118.293)"/>
            </g>
            <g id="Group_1461" data-name="Group 1461" transform="translate(9.566 .011)">
                <path id="Path_540" d="M548.2 120.172c.819 4.8 9.8 2.018 7.676-1.843-3.868 1.929-3.864 1.319-7.676 1.843z" class="cls-7" data-name="Path 540" transform="translate(-548.2 -118.329)"/>
            </g>
        </g>
    </g>
</svg>
