<svg xmlns="http://www.w3.org/2000/svg" width="146.818" height="128.751" viewBox="0 0 146.818 128.751">
    <defs>
        <style>
            .cls-1,.cls-3,.cls-4{fill:none}.cls-1{stroke:#bf263f;stroke-width:1.426px;stroke-dasharray:2.341 4.681;opacity:.512}.cls-1,.cls-3,.cls-4,.cls-9{stroke-miterlimit:10}.cls-2{fill:#ed4d67;opacity:.1}.cls-3,.cls-4{stroke:#f7657d;stroke-width:1.17px}.cls-3{opacity:.18}.cls-4{opacity:.14}.cls-5{fill:rgba(0,0,0,0)}.cls-6,.cls-9{fill:#fff}.cls-11,.cls-7,.cls-8{fill:#bf263f}.cls-10,.cls-11{stroke:none}
        </style>
    </defs>
    <g id="_09" data-name="9" transform="translate(-970.401 -783.91)">
        <g id="Group_2358" data-name="Group 2358" transform="translate(971.67 785.002)">
            <g id="Group_2354" data-name="Group 2354">
                <g id="Group_2352" data-name="Group 2352" transform="translate(2.715 3.209)">
                    <path id="Path_826" d="M989.689 816.054c9.4 29.258 13.973 49.144 5.433 77.251-9.173 30.186 53.588 23.157 77.251 5.434 22.5-16.853 61.125-38.284-5.433-77.251-27.63-16.176-87.04-35.903-77.251-5.434z" class="cls-1" data-name="Path 826" transform="translate(-976.677 -790.256)"/>
                    <path id="Path_777" d="M1101.067 807.335c-13.2 29.9-20.242 50.424-14.334 81.1 6.346 32.946-59.253 18.535-82.309-2.842-21.924-20.319-60.394-47.287 14.334-81.1 31.017-14.037 96.049-28.293 82.309 2.842z" class="cls-2" data-name="Path 777" transform="translate(-974.809 -788.714)"/>
                </g>
                <g id="Group_2356" data-name="Group 2356">
                    <circle id="Ellipse_80" cx="2.851" cy="2.851" r="2.851" class="cls-3" data-name="Ellipse 80" transform="translate(123.905 25.571)"/>
                    <path id="Path_823" d="M1122.689 849.061l4.473-2.347.607-5.014 3.614 3.528 4.959-.977-2.239 4.527 2.46 4.411-5-.731-3.435 3.7-.85-4.978z" class="cls-4" data-name="Path 823" transform="translate(-992.101 -792.673)"/>
                    <path id="Path_828" d="M973.657 785l2.93 1.645 3.023-1.48-.659 3.3 2.341 2.412-3.337.392-1.57 2.973-1.4-3.053-3.311-.574 2.471-2.278z" class="cls-4" data-name="Path 828" transform="translate(-971.67 -785.002)"/>
                    <circle id="Ellipse_81" cx="4.875" cy="4.875" r="4.875" class="cls-3" data-name="Ellipse 81" transform="translate(3.474 101.472)"/>
                </g>
            </g>
        </g>
        <g id="Group_2999" data-name="Group 2999" transform="translate(990.815 791.934)">
            <g id="Group_2991" data-name="Group 2991" transform="translate(14.816 18.532)">
                <g id="Group_2985" data-name="Group 2985" transform="translate(0 40.872)">
                    <g id="Path_1384" class="cls-5" data-name="Path 1384">
                        <path d="M183.57 412.154a57.244 57.244 0 0 1-8.915-3.775l-.348-.184.096-.38.15-.594.15-.603.557.278 8.689 4.335-.379.923z" class="cls-10" transform="translate(-164.826 -367.06)"/>
                        <path d="M183.725 411.678l-8.688-4.335-.149.593a56.57 56.57 0 0 0 8.837 3.742m-.31.95a57.75 57.75 0 0 1-8.993-3.807l-.695-.367.191-.761.15-.594.302-1.206 1.114.555 8.688 4.335-.757 1.846z" class="cls-11" transform="translate(-164.826 -367.06)"/>
                    </g>
                    <g id="Path_1386" class="cls-6" data-name="Path 1386">
                        <path d="M178.76 324.7c-3.243 0-6.497-.274-9.67-.816a56.88 56.88 0 0 1-8.064-1.987l-.035-.011-.033-.017-8.688-4.335-6.136-3.061-.033-.017-.03-.02a55.285 55.285 0 0 1-2.54-1.882l-.19-.15v-.243c0-.03 0-.07.01-.118a25.669 25.669 0 0 0-.05-2.195c-.124-1.872-.432-3.779-.73-5.623-.267-1.654-.543-3.365-.69-5.068-.28-3.244.025-6.102.91-8.494.068-.182.142-.366.22-.55v-.004l.043-.1a14.055 14.055 0 0 1 .237-.51c.123-.256.254-.502.389-.732.113-.197.237-.397.368-.594l.03-.046.15-.223h.004l.012-.017.001-.002.003-.004c.136-.19.279-.376.426-.554.079-.1.164-.196.232-.273a9.97 9.97 0 0 1 .491-.522c1.274-1.261 2.874-2.2 4.889-2.868.684-.23 1.43-.43 2.217-.596 1.175-.248 2.458-.43 4.036-.57.132-.013.267-.023.397-.033l.013-.001c.101-.011.203-.02.299-.026l.018-.002h.002l.074-.005h.006c.033-.004.066-.006.1-.008l.08-.006c.05-.004.113-.01.18-.013.079-.008.163-.013.25-.016.131-.01.262-.019.39-.026l.183-.012h.011l.091-.006.1-.005a73.105 73.105 0 0 1 7.853-.041c.384.02.816.062 1.317.13.844-.58 1.678-1.15 2.463-1.685l.187-.128.22.057c.567.147 1.158.308 1.758.479a67.215 67.215 0 0 1 4.613 1.506c.057-.03.113-.059.168-.09.623-.336 1.239-.754 1.812-1.155l.046-.033.05-.036c.156-.11.312-.222.467-.333.933-.668 1.898-1.36 2.844-1.806a31.172 31.172 0 0 1 3.597-1.43c.567-.189 1.13-.356 1.67-.497a31.872 31.872 0 0 1 2.968-.646c.186-.031.376-.06.56-.088h.006c.233-.035.478-.067.75-.098l.091-.01c.071-.008.144-.016.22-.022.174-.018.348-.034.518-.047l.217-.015c.14-.01.284-.019.427-.024l.061-.004.05-.004h.05a18.705 18.705 0 0 1 2.867.103c.131.015.269.033.416.055.082.011.162.024.24.036l.101.016h.006l.024.005.075.011.008.005.082.015a16.334 16.334 0 0 1 .249.048 13.179 13.179 0 0 1 .609.137l.008.003c.06.014.115.029.17.043l.024.007c.054.012.109.027.164.045a8.078 8.078 0 0 1 .534.165l.089.028.017.006.003.001.004.001a10.53 10.53 0 0 1 2.239 1.075c.105.066.199.128.285.19l.042.028c.041.029.083.057.123.088.06.043.119.088.178.133l.079.06.003.003.004.003c.284.223.553.46.797.704 2.168 2.158 3.025 5.257 3.716 8.247 1.875 8.09 3.308 16.408 4.694 24.452l.015.082.13.762-.389-.1c.05.3.11.712.187 1.285l.04.303-.25.174a56.806 56.806 0 0 1-12.505 6.553 56.909 56.909 0 0 1-20.033 3.61z" class="cls-10" transform="translate(-142.282 -276.803)"/>
                        <path d="M178.76 324.2a56.499 56.499 0 0 0 19.859-3.577 56.252 56.252 0 0 0 12.394-6.495c-.246-1.826-.308-1.932-.367-2.037.147.036.293.07.442.108-1.413-8.198-2.825-16.404-4.703-24.506-.668-2.887-1.48-5.913-3.582-8.006a8.357 8.357 0 0 0-.753-.665c-.085-.064-.167-.128-.252-.19-.05-.039-.105-.074-.156-.11a5.959 5.959 0 0 0-.267-.178 5.327 5.327 0 0 0-.206-.128 10.001 10.001 0 0 0-1.926-.894c-.03-.01-.064-.023-.098-.03a7.588 7.588 0 0 0-.532-.164 1.377 1.377 0 0 0-.138-.04c-.067-.018-.131-.035-.198-.05a13.007 13.007 0 0 0-.617-.139c-.004-.003-.007-.003-.01-.003-.115-.023-.233-.044-.351-.067-.005 0-.01 0-.016-.003-.118-.018-.236-.038-.354-.054a15.756 15.756 0 0 0-2.04-.164c-.064-.003-.128-.003-.19-.003-.076-.002-.153-.002-.23-.002-.247 0-.494.005-.743.015h-.028l-.118.008c-.139.005-.277.013-.416.023l-.216.016c-.17.012-.339.028-.509.046-.1.008-.2.02-.3.03-.246.029-.49.06-.732.096-.187.028-.375.056-.56.087-.187.03-.375.064-.56.1a31.622 31.622 0 0 0-4.004 1.025 30.58 30.58 0 0 0-3.539 1.408c-1.055.498-2.139 1.317-3.236 2.095l-.097.07c-.617.431-1.236.847-1.857 1.183-.126.07-.254.134-.38.196a66.31 66.31 0 0 0-4.78-1.57 74.823 74.823 0 0 0-1.746-.475c-.874.596-1.75 1.194-2.622 1.795a15.845 15.845 0 0 0-1.464-.154 72.818 72.818 0 0 0-7.803.041c-.064.003-.13.008-.195.01-.193.014-.385.024-.578.04a3.94 3.94 0 0 0-.241.015 3.775 3.775 0 0 0-.175.013c-.061.005-.12.007-.182.013l-.098.007h-.005a8.392 8.392 0 0 0-.29.026c-.136.01-.275.02-.411.033-1.32.118-2.666.285-3.978.563-.735.154-1.46.344-2.163.58-1.757.583-3.377 1.446-4.695 2.75a9.44 9.44 0 0 0-.685.753c-.142.172-.278.35-.409.532-.054.077-.108.154-.156.23h-.003l-.03.047c-.124.185-.242.375-.353.568-.136.231-.262.47-.377.711-.003.003-.003.005-.003.005-.077.157-.149.316-.22.478v.003c-.088.202-.173.41-.252.621-.95 2.571-1.12 5.514-.881 8.278.31 3.585 1.184 7.124 1.42 10.702.049.757.07 1.518.051 2.278l-.007.043c-.003.008-.003.016-.003.024.82.644 1.66 1.266 2.517 1.864l6.136 3.061 8.688 4.336a56.202 56.202 0 0 0 7.993 1.97c3.115.531 6.318.809 9.587.809m0 1c-3.272 0-6.555-.277-9.756-.824a57.39 57.39 0 0 1-8.134-2.004l-.07-.023-.066-.034-8.689-4.335-6.135-3.061-.066-.033-.06-.042a55.777 55.777 0 0 1-2.563-1.898l-.382-.3v-.486c0-.057.004-.113.012-.166.014-.67-.003-1.38-.05-2.115-.123-1.848-.429-3.743-.724-5.575-.269-1.664-.546-3.384-.696-5.105-.286-3.318.03-6.249.94-8.71l.001-.004.001-.003c.059-.154.121-.312.187-.471v-.01l.086-.196c.072-.162.151-.337.238-.513l.002-.004c.13-.27.268-.53.41-.774.119-.205.248-.413.385-.62l.03-.046.298-.445h.018a11.174 11.174 0 0 1 1.069-1.228c1.329-1.316 2.991-2.294 5.081-2.987a20.199 20.199 0 0 1 2.272-.61c1.194-.252 2.495-.437 4.092-.58.138-.013.275-.023.407-.033h.004c.106-.012.21-.02.307-.027l.038-.003.057-.004h.004l.106-.008.067-.005c.052-.004.12-.01.19-.014.082-.007.168-.013.256-.016l.389-.027.181-.011h.011l.011-.001.084-.005.103-.005a73.622 73.622 0 0 1 7.903-.041c.349.017.733.053 1.168.109.79-.543 1.57-1.075 2.306-1.578l.375-.256.44.114c.57.148 1.165.31 1.769.482.3.086.593.174.813.24 1.224.368 2.442.77 3.625 1.2.588-.32 1.179-.721 1.731-1.108l.004-.002.004-.003.033-.024a4.18 4.18 0 0 1 .056-.04l.462-.33c.951-.68 1.935-1.385 2.922-1.85a31.675 31.675 0 0 1 5.35-1.959 32.403 32.403 0 0 1 3.017-.657c.19-.031.38-.06.566-.088l.006-.001c.24-.036.49-.068.77-.1h.007l.084-.01c.07-.007.147-.016.229-.023.177-.019.354-.035.527-.048l.218-.015c.143-.01.29-.019.437-.025l.054-.003.052-.004.031-.002h.04a19.199 19.199 0 0 1 2.934.108c.138.015.278.034.428.056.087.012.17.025.25.038l.06.01h.016l.062.011.15.023.016.009h.004a17.695 17.695 0 0 1 .272.053 13.622 13.622 0 0 1 .802.187l.017.005c.061.014.123.031.185.051a8.491 8.491 0 0 1 .542.167c.042.012.076.024.1.032l.012.004.006.002.006.002a11.032 11.032 0 0 1 2.346 1.126c.112.07.212.137.305.203l.037.025c.04.029.087.06.137.098.062.045.123.091.184.138l.076.058.007.006.007.005c.3.236.584.486.843.745 2.261 2.25 3.142 5.427 3.85 8.487 1.877 8.104 3.312 16.429 4.7 24.48l.013.082.263 1.523-.407-.104.075.546.082.606-.502.35a57.306 57.306 0 0 1-12.615 6.61 57.407 57.407 0 0 1-20.208 3.64z" class="cls-11" transform="translate(-142.282 -276.803)"/>
                    </g>
                    <g id="Path_1389" class="cls-6" data-name="Path 1389">
                        <path d="M169.783 337.266l-.693-.118a56.885 56.885 0 0 1-8.064-1.987l-.035-.011-.033-.017-8.688-4.335-6.136-3.061-.033-.017-.03-.02a55.397 55.397 0 0 1-2.54-1.882l-.025-.02-.022-.022-.144-.146-.003-.208c0-.048.007-.09.015-.122a25.685 25.685 0 0 0-.052-2.188c-.123-1.872-.431-3.779-.729-5.622-.267-1.655-.543-3.366-.69-5.07-.28-3.243.025-6.101.91-8.493.068-.181.142-.365.22-.55v-.004l.043-.1a14.062 14.062 0 0 1 .237-.51c.123-.256.254-.502.389-.732.113-.197.237-.397.368-.594l.031-.047.149-.222h.004l.013-.018.001-.002.002-.003a10.648 10.648 0 0 1 1.147-1.349l.146-.143h.005c1.25-1.19 2.802-2.083 4.74-2.725a19.69 19.69 0 0 1 2.217-.596c1.164-.246 2.434-.426 3.992-.567l.068-.006.12-.01.271-.024.294-.023.018-.002h.003a8.667 8.667 0 0 1 .178-.013l.08-.006c.066-.005.13-.008.184-.01a21.834 21.834 0 0 1 .637-.045l.183-.012h.012l.09-.006.101-.005a77.362 77.362 0 0 1 3.461-.116l.4-.004.092.39c.253 1.073.536 2.148.81 3.187.416 1.577.81 3.065 1.05 4.38l.008.044v.005c.06.322.12.666.183 1.03l.023.13.005.032c.09.522.19 1.113.291 1.73.503 3.078 1.105 7.06 1.627 10.55l.56 3.775c.861 5.81 1.751 11.817 2.423 15.837l.116.693z" class="cls-10" transform="translate(-142.282 -290.067)"/>
                        <path d="M169.174 336.655c-.817-4.89-1.94-12.597-2.985-19.62a846.686 846.686 0 0 0-1.625-10.544c-.103-.626-.203-1.215-.296-1.756-.074-.43-.144-.83-.213-1.2v-.005c-.396-2.16-1.22-4.844-1.854-7.543a76.56 76.56 0 0 0-3.442.115c-.064.003-.13.008-.195.01-.193.014-.385.024-.578.04-.082.004-.162.01-.241.017a3.588 3.588 0 0 0-.175.01c-.061.006-.12.008-.182.014a6.352 6.352 0 0 0-.098.007h-.005l-.29.023v.003c-.136.01-.275.02-.411.033-1.32.118-2.666.285-3.978.563-.735.154-1.46.344-2.163.58-1.757.583-3.377 1.446-4.695 2.75h-.002c-.162.16-.319.327-.465.496a10.087 10.087 0 0 0-.627.788 6.251 6.251 0 0 0-.156.232h-.003l-.03.046a10.03 10.03 0 0 0-.353.568c-.136.231-.262.47-.377.711-.003.003-.003.005-.003.005-.077.157-.149.316-.22.478v.003c-.088.202-.173.41-.252.621-.95 2.571-1.12 5.514-.881 8.278.31 3.585 1.184 7.124 1.42 10.702.049.757.07 1.518.051 2.278l-.007.043c-.003.008-.006.013-.006.02l.003.004c.82.644 1.66 1.266 2.517 1.864l6.136 3.061 8.688 4.336a56.198 56.198 0 0 0 7.993 1.97m1.217 1.22l-1.385-.235a57.389 57.389 0 0 1-8.135-2.004l-.07-.023-.066-.034-8.689-4.335-6.135-3.061-.066-.033-.06-.042a55.909 55.909 0 0 1-2.563-1.898l-.05-.04-.044-.044-.288-.292-.003-.413c0-.059.006-.118.016-.176a25.262 25.262 0 0 0-.052-2.102c-.122-1.848-.428-3.743-.723-5.575-.269-1.663-.546-3.384-.696-5.105-.286-3.318.03-6.249.94-8.71l.001-.004.001-.003c.058-.154.121-.312.187-.471v-.01l.086-.196a14.339 14.339 0 0 1 .241-.52c.13-.269.267-.528.41-.77.118-.206.247-.414.384-.62l.031-.047.297-.445h.018a11.118 11.118 0 0 1 1.066-1.228l.292-.287h.012c1.278-1.173 2.846-2.058 4.78-2.7a20.191 20.191 0 0 1 2.273-.61 32.834 32.834 0 0 1 3.594-.533v-.006l.918-.078.297-.023.038-.003a9.6 9.6 0 0 1 .167-.012l.07-.005c.07-.006.136-.01.192-.012.084-.007.163-.013.238-.017a22.348 22.348 0 0 1 .583-.039h.012l.011-.001.082-.005.107-.005a77.87 77.87 0 0 1 3.48-.117l.8-.009.184.78c.251 1.067.534 2.139.807 3.175.418 1.586.813 3.084 1.058 4.417l.016.089v.004c.058.312.115.642.176.99l.022.13.006.034c.09.523.19 1.115.291 1.732a857.525 857.525 0 0 1 1.628 10.557l.56 3.776c.861 5.808 1.751 11.813 2.422 15.829l.231 1.386z" class="cls-11" transform="translate(-142.282 -290.067)"/>
                    </g>
                    <g id="Path_1392" class="cls-6" data-name="Path 1392">
                        <path d="M300.493 321.303l-.102-.595-.462-2.703c-1.461-8.557-3.461-20.277-5.27-27.283a52.245 52.245 0 0 0-.811-2.854c-.892-2.776-1.67-4.86-2.523-6.756a37.45 37.45 0 0 0-1.264-2.557l-.031-.056c-.091-.163-.182-.327-.275-.49l-.321-.564.626-.167a31.897 31.897 0 0 1 3.529-.735h.008a22.209 22.209 0 0 1 1.578-.177l.217-.015a12.467 12.467 0 0 1 .49-.028l.049-.004h.05a18.704 18.704 0 0 1 2.866.103c.132.015.27.033.416.055.082.011.163.024.241.036l.1.016h.007l.024.005.074.011.008.004.082.016a16.139 16.139 0 0 1 .775.164l.084.021.007.003c.06.013.115.028.168.043l.027.007c.054.012.108.027.163.045a8.09 8.09 0 0 1 .534.165c.035.01.065.02.088.028l.019.006.003.001.003.001a10.53 10.53 0 0 1 2.24 1.075c.105.066.198.128.285.19l.044.03c.04.028.081.056.121.086.06.043.118.088.177.133l.08.06.003.003.003.003c.285.223.553.46.798.704 2.168 2.158 3.024 5.257 3.716 8.247 1.874 8.087 3.307 16.402 4.693 24.444l.015.09.131.761-.34-.087c.058.316.123.721.196 1.23l.042.294-.238.178a56.808 56.808 0 0 1-12.577 6.602l-.566.211z" class="cls-10" transform="translate(-244.546 -276.803)"/>
                        <path d="M300.883 320.623a56.253 56.253 0 0 0 12.454-6.534c-.17-1.183-.318-1.97-.426-1.998.146.036.292.07.441.108-1.412-8.198-2.825-16.404-4.702-24.506-.668-2.887-1.48-5.913-3.583-8.006a8.355 8.355 0 0 0-.752-.665c-.085-.064-.167-.128-.252-.19-.051-.039-.105-.074-.157-.11a5.98 5.98 0 0 0-.267-.178 5.235 5.235 0 0 0-.205-.128 10.002 10.002 0 0 0-1.926-.894c-.031-.01-.065-.023-.098-.03a7.572 7.572 0 0 0-.532-.164 1.378 1.378 0 0 0-.138-.04c-.067-.018-.131-.035-.198-.05a13.037 13.037 0 0 0-.617-.139c-.005-.003-.007-.003-.01-.003l-.352-.067c-.005 0-.01 0-.015-.003-.118-.018-.236-.038-.355-.054a15.758 15.758 0 0 0-2.04-.164c-.063-.003-.127-.003-.189-.003-.077-.002-.154-.002-.231-.002-.247 0-.493.005-.742.015h-.029l-.118.008c-.138.005-.277.013-.416.023l-.216.016c-.169.012-.338.028-.508.046-.1.008-.2.02-.3.03-.247.029-.49.06-.732.096-.188.028-.375.056-.56.087-.188.03-.375.064-.56.1a31.6 31.6 0 0 0-2.363.537 37.776 37.776 0 0 1 1.592 3.146c.992 2.206 1.803 4.507 2.543 6.809.267.834.542 1.802.82 2.881 2.01 7.79 4.234 21.255 5.74 30.026m-.782 1.36l-.204-1.19c-.148-.86-.302-1.765-.462-2.704-1.46-8.549-3.458-20.256-5.26-27.242a51.745 51.745 0 0 0-.804-2.827c-.886-2.756-1.658-4.824-2.503-6.703-.39-.87-.81-1.717-1.245-2.52l-.031-.055c-.09-.162-.18-.324-.273-.486l-.642-1.127 1.253-.334a32.393 32.393 0 0 1 3.018-.658l.565-.088.008-.001c.24-.036.49-.068.769-.1h.008l.083-.01c.07-.007.148-.016.229-.023.177-.019.354-.035.527-.048l.219-.015c.143-.01.29-.019.436-.025l.055-.003.052-.004.03-.002h.04a19.2 19.2 0 0 1 2.935.108c.138.015.279.034.428.056.087.012.17.025.25.038l.06.01h.016l.061.011.15.023.015.008.006.001a18.326 18.326 0 0 1 .272.053 13.597 13.597 0 0 1 .8.187l.018.005c.061.014.124.031.186.051a8.414 8.414 0 0 1 .542.167c.041.012.075.024.098.032l.013.004.006.002.007.002a11.035 11.035 0 0 1 2.346 1.127c.112.07.211.136.304.202l.04.027c.04.028.085.059.133.095a10.166 10.166 0 0 1 .262.197l.007.006.007.005c.3.236.583.486.842.745 2.261 2.25 3.142 5.427 3.85 8.487 1.877 8.1 3.311 16.424 4.698 24.472l.016.09.262 1.523-.345-.089.072.485.084.587-.476.356a57.305 57.305 0 0 1-12.701 6.67l-1.132.422z" class="cls-11" transform="translate(-244.546 -276.803)"/>
                    </g>
                </g>
                <g id="Group_2990" data-name="Group 2990" transform="translate(21.672)">
                    <g id="Path_1393" class="cls-6" data-name="Path 1393">
                        <path d="M241.373 255.43l-.304-.291c-1.775-1.705-3.172-3.71-4.04-5.803-.984-2.368-1.316-4.837-.986-7.337l1.82-13.79 2.495-18.894.08-.61.582.204c1.849.652 3.92.982 6.154.982 2.422 0 5.055-.37 8.05-1.134l.77-.196-.156.78c-1.198 5.984-2.126 11.444-3.023 16.725-.898 5.287-1.827 10.755-3.028 16.754-.69 3.445-5.067 10.145-8.075 12.36l-.339.25z" class="cls-10" transform="translate(-229.042 -189.219)"/>
                        <path d="M255.348 209.242c-2.782.708-5.532 1.15-8.174 1.15-2.195 0-4.315-.305-6.32-1.011l-4.315 32.684c-.672 5.09 1.583 9.55 4.877 12.713 2.926-2.156 7.218-8.75 7.88-12.056 2.4-11.985 3.652-21.496 6.052-33.48m1.292-1.361l-.311 1.557c-1.198 5.978-2.125 11.435-3.021 16.711-.899 5.291-1.828 10.763-3.031 16.769-.34 1.7-1.52 4.182-3.234 6.81-1.716 2.628-3.55 4.762-5.034 5.855l-.679.5-.607-.584c-1.824-1.751-3.262-3.816-4.156-5.97-1.018-2.452-1.361-5.007-1.02-7.595l1.821-13.79 2.495-18.894.16-1.222 1.163.41c1.795.632 3.81.953 5.988.953 2.38 0 4.973-.366 7.927-1.118l1.54-.392z" class="cls-11" transform="translate(-229.042 -189.219)"/>
                    </g>
                    <g id="Path_1394" class="cls-6" data-name="Path 1394">
                        <path d="M235.052 200.7c-1.536 0-2.995-.21-4.337-.626-2.063-.639-3.927-1.776-5.541-3.38-1.445-1.434-2.643-3.22-3.465-5.162-1.278-3.017-1.996-6.117-2.352-10.218-.52.524-1.3.874-2.14.897l-.1.002c-1.102 0-2.244-.517-3.056-1.383-.825-.88-1.222-1.98-1.45-2.73a13.868 13.868 0 0 1-.485-5.836c.244-1.874 1.045-3.135 2.317-3.647a3.565 3.565 0 0 1 1.338-.246c.5 0 1.029.09 1.53.264a9.784 9.784 0 0 1 1.5.651c-.173-3.8.129-7.637.899-11.42.05-2.564.543-6.247 2.599-9.336 2.034-3.058 5.504-4.674 10.033-4.674.948 0 1.944.072 2.961.213 4.52.628 8.144 2.948 9.944 6.365.882 1.673 1.428 3.465 1.719 5.641.037.277.08.563.126.866.198 1.298.421 2.765.205 4.098.466 2.466.604 5.142.413 7.979.117-.081.241-.155.372-.22.449-.224.968-.342 1.502-.342.516 0 1.02.111 1.459.322 1.155.555 1.88 1.729 2.153 3.49.273 1.756.211 3.53-.184 5.27-.214.94-.592 2.117-1.63 2.884-.615.454-1.497.748-2.247.748-.298 0-.57-.044-.812-.129-.247 1.7-.124 3.466-.004 5.18.047.684.096 1.39.122 2.087.085 2.277-.05 5.595-2.179 8.114-1.365 1.613-3.555 2.862-6.335 3.612-1.64.442-3.28.666-4.875.666z" class="cls-10" transform="translate(-212.511 -144.356)"/>
                        <path d="M235.052 200.2a18.34 18.34 0 0 0 4.745-.649c2.351-.634 4.623-1.726 6.083-3.452 1.846-2.182 2.162-5.063 2.062-7.772-.101-2.709-.55-5.446.02-8.11.275.321.703.453 1.173.453.678 0 1.443-.275 1.95-.65.857-.633 1.221-1.633 1.44-2.594.38-1.67.44-3.394.177-5.082-.187-1.206-.651-2.527-1.876-3.115a2.892 2.892 0 0 0-1.242-.273 2.89 2.89 0 0 0-1.28.29c-.666.332-1.138.938-1.264 1.597.377-3.265.37-6.576-.251-9.798.28-1.572-.119-3.406-.319-4.904-.257-1.922-.736-3.71-1.665-5.474-1.786-3.39-5.384-5.52-9.57-6.102a21.075 21.075 0 0 0-2.893-.209c-3.884 0-7.467 1.22-9.617 4.45-1.765 2.653-2.461 5.959-2.516 9.114a46.015 46.015 0 0 0-.843 12.31c-.657-.488-1.415-.846-2.218-1.122a4.24 4.24 0 0 0-1.367-.238c-.397 0-.79.065-1.151.21-1.341.54-1.842 1.97-2.008 3.248a13.46 13.46 0 0 0 .468 5.627c.274.905.655 1.808 1.335 2.533.662.705 1.649 1.225 2.691 1.225.03 0 .058 0 .087-.002 1.074-.03 2.14-.721 2.28-1.65a.167.167 0 0 1 .092-.026c.14 0 .285.151.203.265.273 3.85.858 7.417 2.391 11.037 1.533 3.62 4.52 6.968 8.694 8.26 1.345.416 2.763.603 4.19.603m0 1c-1.587 0-3.096-.218-4.485-.648-2.141-.663-4.075-1.841-5.747-3.503-1.49-1.48-2.725-3.32-3.573-5.322-1.205-2.846-1.92-5.759-2.305-9.483a3.79 3.79 0 0 1-1.827.469c-1.236 0-2.515-.576-3.42-1.541-.897-.956-1.322-2.129-1.563-2.928a14.365 14.365 0 0 1-.502-6.045c.338-2.607 1.614-3.639 2.625-4.046a4.062 4.062 0 0 1 1.525-.282c.554 0 1.14.1 1.693.291.283.098.552.201.808.312a47.18 47.18 0 0 1 .929-10.664c.056-2.628.571-6.387 2.681-9.557 2.132-3.203 5.745-4.897 10.45-4.897.97 0 1.99.074 3.03.218 4.68.65 8.442 3.066 10.318 6.627.91 1.727 1.472 3.572 1.771 5.808.037.272.08.556.126.856.199 1.307.423 2.781.217 4.167.414 2.228.565 4.624.453 7.15a3.968 3.968 0 0 1 1.327-.226c.59 0 1.17.128 1.675.371 1.313.63 2.13 1.93 2.431 3.864a14.48 14.48 0 0 1-.19 5.457c-.215.945-.637 2.302-1.822 3.176-.705.522-1.68.846-2.543.846-.132 0-.26-.007-.384-.022-.148 1.464-.043 2.967.066 4.539.048.687.098 1.398.124 2.103.088 2.36-.055 5.803-2.297 8.455-1.43 1.69-3.708 2.995-6.587 3.771a19.255 19.255 0 0 1-5.005.684z" class="cls-11" transform="translate(-212.511 -144.356)"/>
                    </g>
                    <g id="Path_1395" class="cls-6" data-name="Path 1395">
                        <path d="M242.552 200.511c-.843 0-1.536-.27-2.06-.805-.575-.588-.914-1.483-.997-2.614l-.084.002a2.53 2.53 0 0 1 .001-.392 19.009 19.009 0 0 0-1.928-8.24c-.79-1.621-.704-1.997-.253-3.175.08-.212.173-.452.273-.743.324-.938.39-2.057.21-3.523-.07-.553-.167-1.12-.26-1.67-.238-1.384-.483-2.815-.322-4.26a6.376 6.376 0 0 1 1.168-3.026c.602-.82 1.379-1.423 2.269-1.769-.364-.782-1.025-1.457-1.87-1.895l.264-.943c1.803.122 3.529.9 4.704 2.107.564-.298 1.247-.449 2.037-.449.615 0 1.293.091 2.016.271.313.078.628.167.932.252.921.258 1.79.502 2.676.502.11 0 .22-.003.326-.011.643-.047 1.264-.24 1.92-.443.582-.18 1.184-.366 1.822-.452.257-.035.52-.052.78-.052 1.274 0 2.559.41 3.715 1.186 1.066.716 1.96 1.712 2.515 2.803 1.201 2.363 1.144 5.025 1.094 7.373l-.332 15.544-.999.024c-.035-.502-.809-.802-1.537-.802-.26 0-.513.037-.732.106-.56.177-1.062.476-1.593.792-.498.297-1.013.603-1.596.817-.63.23-1.324.348-2.064.348-.245 0-.5-.013-.758-.039a26.919 26.919 0 0 0-8.342 2.32c-.715.325-1.454.661-2.27.794a4.527 4.527 0 0 1-.725.062z" class="cls-10" transform="translate(-229.714 -160.674)"/>
                        <path d="M238.93 167.957c1.119.58 1.961 1.554 2.292 2.652-2.143.563-3.377 2.597-3.593 4.537-.216 1.94.34 3.875.58 5.814.153 1.231.182 2.55-.232 3.748-.606 1.754-.92 1.736-.044 3.534a19.424 19.424 0 0 1 1.98 8.482 2.1 2.1 0 0 1 .064-.36c-.042 2.019.657 3.647 2.575 3.647.201 0 .416-.018.645-.055.865-.141 1.66-.542 2.46-.9a27.515 27.515 0 0 1 8.23-2.223c.254.026.508.04.76.04.646 0 1.283-.093 1.892-.316 1.141-.419 2.045-1.248 3.21-1.617.275-.087.579-.13.883-.13.985 0 1.979.446 2.036 1.269.11-5.182.221-10.363.333-15.544.051-2.418.083-4.925-1.041-7.136-1.026-2.018-3.308-3.716-5.784-3.716-.236 0-.474.015-.714.047-1.291.174-2.47.803-3.772.898a4.975 4.975 0 0 1-.362.013c-1.27 0-2.497-.462-3.73-.769a7.982 7.982 0 0 0-1.894-.256c-.782 0-1.534.16-2.128.592-1.081-1.284-2.824-2.128-4.647-2.251m.983 28.767c-.01.109-.011.22-.003.333.002-.11.003-.222.003-.333m-.915-29.765c1.796.122 3.524.857 4.77 2.007.564-.232 1.212-.35 1.937-.35.656 0 1.374.096 2.136.286.321.08.64.17.947.256.887.248 1.725.483 2.54.483.099 0 .196-.003.29-.01.587-.043 1.18-.227 1.81-.421.601-.187 1.223-.38 1.902-.47a6.37 6.37 0 0 1 .847-.057c1.374 0 2.755.44 3.993 1.271 1.137.763 2.09 1.825 2.682 2.992 1.259 2.475 1.2 5.203 1.15 7.61-.109 5.03-.216 10.061-.324 15.092l-.01.452-1.997.048c-.004-.065-.361-.337-1.038-.337-.209 0-.41.029-.581.083-.504.16-.982.444-1.489.745-.517.308-1.052.627-1.68.856a6.48 6.48 0 0 1-2.235.379c-.244 0-.497-.012-.754-.036a26.42 26.42 0 0 0-7.827 2.132l-.312.14c-.745.339-1.514.689-2.396.833a5.03 5.03 0 0 1-.806.068c-.969 0-1.805-.33-2.417-.955-.659-.673-1.046-1.676-1.138-2.927l-.085.003a3.036 3.036 0 0 1 0-.448 18.507 18.507 0 0 0-1.877-8.004c-.385-.788-.613-1.36-.64-1.947-.029-.587.147-1.045.369-1.625.08-.208.17-.444.267-.727.299-.863.358-1.911.186-3.298-.067-.542-.159-1.079-.256-1.648-.243-1.417-.495-2.884-.326-4.4a6.883 6.883 0 0 1 1.262-3.266 5.686 5.686 0 0 1 1.965-1.702 3.82 3.82 0 0 0-1.393-1.222l.528-1.886z" class="cls-11" transform="translate(-229.714 -160.674)"/>
                    </g>
                    <g id="Path_1396" class="cls-6" data-name="Path 1396">
                        <path d="M257.394 277.261c-.764 0-1.455-.207-1.998-.6-.924-.668-1.464-1.867-1.447-3.207.019-1.385.622-2.65 1.575-3.302 2.17-1.484 5.206-2.16 7.884-2.758.69-.154 1.34-.3 1.957-.453l1.71-.426 2.617-.653c.32-.08.662-.157 1.01-.157.278 0 .525.048.753.149.844.373 1.12 1.31 1.256 1.983a15.349 15.349 0 0 1-.202 6.88l-.15.575-.542-.247a10.954 10.954 0 0 0-4.525-.967c-1.784 0-3.534.421-5.061 1.218-.345.18-.693.386-1.03.585-.646.383-1.315.778-2.052 1.051a5.124 5.124 0 0 1-1.755.33z" class="cls-10" transform="translate(-241.507 -228.603)"/>
                        <path d="M270.701 266.205c-.295 0-.6.07-.889.143l-4.326 1.078c-3.039.758-7.051 1.34-9.68 3.139-1.683 1.15-1.89 4.409-.117 5.69.494.358 1.092.506 1.705.506.535 0 1.082-.113 1.582-.298 1.072-.397 2.01-1.08 3.024-1.61a11.469 11.469 0 0 1 5.292-1.275c1.627 0 3.254.336 4.733 1.012.569-2.165.636-4.46.196-6.655-.13-.642-.367-1.358-.968-1.624a1.35 1.35 0 0 0-.552-.106m0-1c.346 0 .667.064.956.192 1.179.52 1.454 1.891 1.544 2.342.47 2.339.398 4.796-.208 7.105l-.302 1.15-1.081-.494a10.45 10.45 0 0 0-4.318-.922c-1.704 0-3.374.401-4.83 1.162-.333.174-.66.367-1.006.572-.666.393-1.354.8-2.133 1.09a5.628 5.628 0 0 1-1.929.36c-.87 0-1.662-.241-2.292-.696-1.054-.763-1.672-2.116-1.653-3.618.02-1.546.707-2.967 1.792-3.709 2.25-1.538 5.336-2.226 8.058-2.833a81.414 81.414 0 0 0 1.945-.45l1.71-.426 2.617-.653c.35-.087.726-.172 1.13-.172z" class="cls-11" transform="translate(-241.507 -228.603)"/>
                    </g>
                    <g id="Group_2986" data-name="Group 2986" transform="translate(14.015 39.079)">
                        <g id="Path_1397" class="cls-7" data-name="Path 1397">
                            <path d="M259.242 278.312c-.495 0-.957-.233-1.3-.655a2.316 2.316 0 0 1-.471-1.885c.81-3.915 7.558-4.739 10.801-5.135l.317-.038c.566-.07 1.061-.104 1.513-.104 1.475 0 2.576.363 3.366 1.112.587.556 1.018 1.528.576 2.348-.328.61-.987.918-1.958.918-.315 0-.632-.03-.874-.057a14.437 14.437 0 0 0-1.57-.086c-3.165 0-6.293 1.02-8.809 2.874l-.05.037c-.402.297-.86.634-1.452.668l-.09.003z" class="cls-10" transform="translate(-257.928 -270.995)"/>
                            <path d="M259.241 277.812c.02 0 .04 0 .061-.002.465-.027.86-.332 1.235-.609 2.612-1.924 5.858-2.97 9.104-2.97.543 0 1.086.029 1.626.088.26.029.542.054.819.054.63 0 1.236-.131 1.518-.655.309-.573-.007-1.3-.48-1.748-.795-.753-1.898-.975-3.022-.975-.488 0-.98.041-1.452.1-2.957.365-9.927 1.088-10.69 4.778-.179.868.407 1.939 1.281 1.939m0 1c-.648 0-1.247-.298-1.688-.84a2.828 2.828 0 0 1-.572-2.301c.395-1.912 2.065-3.362 4.964-4.312 2.206-.722 4.65-1.02 6.266-1.218l.316-.039a12.857 12.857 0 0 1 1.575-.107c1.61 0 2.823.408 3.71 1.249.367.348.65.79.797 1.247.19.594.147 1.198-.125 1.701-.421.784-1.228 1.181-2.398 1.181a8.61 8.61 0 0 1-.928-.06 13.933 13.933 0 0 0-1.517-.083c-3.058 0-6.08.986-8.511 2.777l-.05.036c-.413.305-.979.723-1.72.765-.04.003-.08.004-.118.004z" class="cls-11" transform="translate(-257.928 -270.995)"/>
                        </g>
                        <g id="Path_1398" class="cls-7" data-name="Path 1398">
                            <path d="M260.356 278.411l.104-.7c.076-.517.137-1.122.006-1.685-.107-.467-.363-.888-.65-1.073l-.459-.294.333-.432c2.007-2.599 7.258-3.24 10.08-3.585l.31-.038a12.103 12.103 0 0 1 1.487-.101c.964 0 1.757.152 2.425.465l.4.188-.137.42c-.253.777-.222 1.848.075 2.606l.248.63-.675.051a4.558 4.558 0 0 1-.343.013c-.324 0-.644-.031-.856-.054a14.44 14.44 0 0 0-1.57-.086c-3.165 0-6.293 1.02-8.809 2.874-.34.25-.765.564-1.274.664l-.695.137z" class="cls-10" transform="translate(-259.42 -271)"/>
                            <path d="M271.567 271.003c-.479 0-.96.04-1.425.097-2.555.316-8.1.9-10.056 3.433.385.247.725.76.868 1.38.141.612.093 1.244 0 1.87.396-.077.744-.332 1.075-.576 2.612-1.924 5.858-2.971 9.104-2.971.543 0 1.086.03 1.626.089.255.028.53.05.8.05.104 0 .206-.003.306-.01-.35-.89-.368-2.078-.085-2.944-.665-.312-1.434-.418-2.213-.418m0-1c1.039 0 1.901.168 2.637.512l.802.376-.275.84c-.218.666-.19 1.62.065 2.268l.496 1.26-1.351.103a5.06 5.06 0 0 1-.381.014c-.349 0-.686-.033-.91-.057a13.94 13.94 0 0 0-1.517-.083c-3.058 0-6.08.986-8.511 2.776-.38.28-.855.63-1.474.753l-1.39.274.207-1.402c.07-.47.126-1.017.014-1.499-.096-.418-.312-.686-.434-.764l-.917-.59.666-.863c2.135-2.764 7.521-3.422 10.415-3.775l.31-.038c.573-.07 1.08-.105 1.548-.105z" class="cls-11" transform="translate(-259.42 -271)"/>
                        </g>
                        <g id="Path_1399" class="cls-7" data-name="Path 1399">
                            <path d="M260.546 276.057l-.267-.528c-.132-.262-.301-.472-.463-.576l-.46-.294.334-.432c2.007-2.599 7.258-3.24 10.08-3.585l.31-.038a12.104 12.104 0 0 1 1.487-.101c.964 0 1.757.152 2.425.465l.401.188-.138.42c-.046.14-.083.312-.118.54l-.057.374-.377.046a63.988 63.988 0 0 0-10.066 2.046l-.075.022-.078-.002-.088-.001c-.905 0-1.403.375-2.092.894l-.282.211-.476.35z" class="cls-10" transform="translate(-259.42 -271)"/>
                            <path d="M271.567 271.003c-.479 0-.96.04-1.425.097-2.555.316-8.1.9-10.056 3.433.247.158.47.434.64.77.833-.612 1.46-1.202 2.67-1.202l.102.001a64.324 64.324 0 0 1 10.145-2.063c.033-.216.075-.427.137-.618-.665-.312-1.434-.418-2.213-.418m0-1v1-1c1.039 0 1.901.168 2.637.512l.802.376-.275.841a2.92 2.92 0 0 0-.1.459l-.114.75-.754.091a63.48 63.48 0 0 0-9.988 2.03l-.149.044-.155-.004-.075-.001c-.738 0-1.134.299-1.79.794l-.288.214-.952.7-.533-1.054c-.109-.215-.223-.34-.287-.38l-.918-.59.666-.864c2.135-2.764 7.521-3.422 10.415-3.775l.31-.038a12.6 12.6 0 0 1 1.548-.105z" class="cls-11" transform="translate(-259.42 -271)"/>
                        </g>
                    </g>
                    <g id="Path_1400" class="cls-6" data-name="Path 1400">
                        <path d="M258.214 220.842c-.813 0-1.48-.655-1.517-1.49a1.424 1.424 0 0 1 .409-1.052 1.546 1.546 0 0 1 1.108-.485c.812 0 1.479.655 1.516 1.491.017.384-.128.757-.409 1.051a1.546 1.546 0 0 1-1.107.485z" class="cls-10" transform="translate(-243.406 -195.492)"/>
                        <path d="M258.214 218.315c-.533 0-1.042.466-1.018 1.014.025.549.447 1.013 1.018 1.013.532 0 1.041-.466 1.017-1.013-.025-.55-.447-1.014-1.017-1.014m0-1c1.08 0 1.966.865 2.016 1.969a1.918 1.918 0 0 1-.547 1.419c-.389.406-.924.64-1.47.64-1.08 0-1.966-.865-2.016-1.97a1.92 1.92 0 0 1 .548-1.419c.388-.406.924-.639 1.469-.639z" class="cls-11" transform="translate(-243.406 -195.492)"/>
                    </g>
                    <g id="Path_1401" class="cls-6" data-name="Path 1401">
                        <path d="M299.386 220.842c-.813 0-1.479-.655-1.516-1.49a1.422 1.422 0 0 1 .408-1.052 1.546 1.546 0 0 1 1.108-.485c.813 0 1.48.655 1.517 1.491.017.384-.128.757-.41 1.051a1.546 1.546 0 0 1-1.107.485z" class="cls-10" transform="translate(-271.874 -195.492)"/>
                        <path d="M299.386 218.315c-.532 0-1.042.466-1.017 1.014.025.549.447 1.013 1.017 1.013.532 0 1.042-.466 1.017-1.013-.024-.55-.447-1.014-1.017-1.014m0-1c1.081 0 1.967.865 2.016 1.969a1.918 1.918 0 0 1-.547 1.419c-.388.406-.924.64-1.469.64-1.08 0-1.966-.865-2.016-1.97a1.918 1.918 0 0 1 .547-1.418c.389-.407.924-.64 1.47-.64z" class="cls-11" transform="translate(-271.874 -195.492)"/>
                    </g>
                    <g id="Group_2987" data-name="Group 2987" transform="translate(14.674 18.148)">
                        <g id="Path_1402" class="cls-6" data-name="Path 1402">
                            <path d="M268.282 224.498c-.709 0-1.45-.254-2.143-.734a5.434 5.434 0 0 1-1.518-1.607c-.238-.39-.444-.8-.644-1.196-.486-.964-.946-1.875-1.801-2.466a9.697 9.697 0 0 0-.74-.445c-.857-.483-1.828-1.03-1.873-2.078-.041-.982.867-1.726 1.786-1.952.3-.073.617-.11.968-.11.412 0 .827.052 1.209.113.996-1.865 1.332-4.049.898-5.908-.05-.211-.107-.427-.163-.635-.368-1.37-.784-2.925 1.086-4.207.57-.391 1.305-.607 2.069-.607 1.02 0 1.915.376 2.456 1.03.879 1.063.65 2.392.447 3.566-.032.182-.062.355-.088.527-.307 2.04.153 4.194 1.27 6.019.399-.363.985-.554 1.525-.554.348 0 .682.076.967.218.976.49 1.48 1.622 1.224 2.753-.219.968-.892 1.758-1.522 2.403l-.375.377c-.503.5-.978.974-1.305 1.516-.21.348-.375.74-.55 1.156-.423 1.01-.903 2.153-2.152 2.631-.328.126-.675.19-1.031.19z" class="cls-10" transform="translate(-260.062 -203.166)"/>
                            <path d="M268.282 223.998c.285 0 .57-.049.852-.156 1.5-.575 1.691-2.316 2.452-3.579.447-.74 1.129-1.347 1.75-1.984.623-.637 1.208-1.344 1.393-2.165.186-.82-.129-1.778-.96-2.195a1.662 1.662 0 0 0-.743-.165c-.703 0-1.417.383-1.5.99-1.51-2.066-2.155-4.601-1.79-7.03.19-1.258.602-2.67-.25-3.7-.47-.569-1.264-.848-2.07-.848-.638 0-1.285.175-1.786.519-1.832 1.256-1.09 2.728-.72 4.316.51 2.18.029 4.606-1.12 6.575-.484-.086-.982-.165-1.473-.165-.287 0-.57.027-.848.095-.752.185-1.435.765-1.406 1.445.044 1.035 1.465 1.489 2.397 2.133 1.34.926 1.786 2.495 2.588 3.813.657 1.08 1.932 2.101 3.234 2.101m0 1v-1 1c-1.74 0-3.307-1.297-4.088-2.582-.248-.407-.46-.825-.663-1.23-.477-.945-.889-1.76-1.64-2.28a9.362 9.362 0 0 0-.701-.42c-.874-.492-2.07-1.166-2.126-2.493-.053-1.25 1.05-2.183 2.166-2.458.34-.084.695-.124 1.087-.124.315 0 .628.027.926.066.817-1.688 1.077-3.606.694-5.248-.047-.204-.101-.405-.159-.62-.37-1.378-.876-3.266 1.286-4.749.653-.447 1.488-.694 2.352-.694 1.17 0 2.205.442 2.841 1.211 1.026 1.24.764 2.754.554 3.97-.03.18-.06.35-.085.516-.265 1.757.075 3.605.939 5.226a2.87 2.87 0 0 1 1.36-.335c.426 0 .838.094 1.192.271 1.182.593 1.794 1.954 1.488 3.31-.247 1.09-.974 1.947-1.653 2.642-.126.13-.255.258-.38.382-.48.479-.934.93-1.23 1.42-.19.317-.348.693-.515 1.092-.44 1.047-.987 2.35-2.435 2.904a3.367 3.367 0 0 1-1.21.223z" class="cls-11" transform="translate(-260.062 -203.166)"/>
                        </g>
                    </g>
                    <g id="Group_2988" data-name="Group 2988" transform="translate(9.087 17.473)">
                        <path id="Path_1404" d="M251.3 203.9c-.694.515-4.853-2.724-6.067-2.89-1.594-.218-3.441.735-3.26 2.537a.823.823 0 0 0 1.52.41c1-1.767 3.894.743 5 1.377 1.143.657 2.16 1.39 3.51 1.078a1.244 1.244 0 0 0 .885-.882l.076-.356c.175-.858-.81-1.91-1.664-1.274z" class="cls-8" data-name="Path 1404" transform="translate(-241.957 -200.979)"/>
                        <path id="Path_1405" d="M294.71 202.708a6.006 6.006 0 0 0-3.566.864c-.9.563-1.839 1.752-2.981 1.159-.869-.452-2.005.5-1.416 1.411a2.723 2.723 0 0 0 3.308.95c1.731-.587 2.65-2.031 4.655-1.937 1.582.074 1.573-2.363 0-2.447z" class="cls-8" data-name="Path 1405" transform="translate(-272.813 -202.167)"/>
                    </g>
                </g>
            </g>
            <g id="Path_1412" class="cls-5" data-name="Path 1412">
                <path d="M147.665 392.823l-.78-.383-.131-.064-.334-.164.06-.366c.03-.183.067-.36.103-.531l.01-.044.186-.904.655.65.17.169-.022.24c-.003.028-.007.133.022.53l.061.867z" class="cls-10" transform="translate(-130.71 -296.614)"/>
                <path d="M147.105 391.991c-.028-.396-.028-.542-.02-.616l-.003-.003c-.039.185-.077.367-.108.555l.13.064m1.121 1.663l-1.56-.765-.131-.064-.667-.327.12-.734c.032-.193.07-.375.106-.55l.01-.045.374-1.807 1.31 1.3.339.337-.046.468c0 .023-.001.124.022.453l.123 1.734z" class="cls-11" transform="translate(-130.71 -296.614)"/>
            </g>
            <g id="Group_2996" data-name="Group 2996" transform="translate(21.645 31.869)">
                <g id="Group_2992" data-name="Group 2992">
                    <g id="Path_1414" class="cls-6" data-name="Path 1414">
                        <path d="M179.398 260.937c-2.231 0-3.55-1.26-3.694-1.403l-.01-.011-.012-.012c-.174-.199-.487-.443-.82-.7-.587-.458-1.254-.977-1.721-1.643-2.62-3.735-6.33-10.057-8.27-21.783-1.94-11.71-.538-19.311.685-24.01.267-1.023.806-1.926 1.24-2.652.244-.41.456-.763.563-1.04l.005-.015.006-.014c.035-.075.87-1.857 2.92-2.09.088-.01.162-.024.22-.043l.045-.015.047-.006 2.958-.377.018-.002h.018l1.166-.065c.096-.01.193-.016.29-.016 1.626 0 3.09 1.44 3.407 3.35l1.419 8.571c.183 1.107-.055 2.197-.654 2.99-.473.627-1.14 1.018-1.88 1.103l-4.858.551c-.159 4.025-.08 7.786.747 12.777.716 4.329 1.653 7.426 2.833 10.663l5.2-.591c.1-.011.203-.017.305-.017 1.625 0 3.09 1.44 3.407 3.348l1.419 8.572c.183 1.108-.055 2.197-.654 2.99-.473.627-1.141 1.018-1.881 1.102l-4.237.482-.02.003h-.02a5.88 5.88 0 0 1-.187.003z" class="cls-10" transform="translate(-164.411 -205.54)"/>
                        <path d="M179.398 260.437c.056 0 .113 0 .17-.002l4.238-.483c1.452-.165 2.391-1.738 2.098-3.513l-1.42-8.572c-.277-1.674-1.55-2.93-2.913-2.93-.083 0-.166.004-.249.014l-5.59.635c-1.246-3.376-2.235-6.546-2.992-11.122-.87-5.248-.913-9.21-.736-13.307l5.283-.6c1.453-.166 2.391-1.739 2.098-3.514l-1.42-8.572c-.277-1.674-1.551-2.93-2.913-2.93-.083 0-.166.004-.249.013l-1.18.065-2.958.377c-.084.027-.187.05-.318.065-1.775.202-2.51 1.774-2.522 1.8-.328.853-1.389 2.119-1.785 3.64-1.272 4.886-2.567 12.379-.676 23.803 1.891 11.423 5.462 17.695 8.186 21.577.699.996 1.986 1.704 2.508 2.3.021.021 1.242 1.256 3.34 1.256m0 1c-2.433 0-3.89-1.391-4.048-1.55l-.022-.022-.022-.025c-.142-.162-.438-.392-.75-.635-.586-.456-1.314-1.022-1.825-1.75-2.648-3.775-6.396-10.161-8.354-21.988-1.954-11.804-.54-19.475.695-24.218.285-1.092.845-2.03 1.295-2.782.223-.374.434-.727.525-.965l.011-.028.012-.027c.04-.086.99-2.115 3.319-2.38a.647.647 0 0 0 .12-.022l.09-.03.095-.011 2.958-.377.035-.004.036-.002 1.154-.064c.11-.011.22-.017.33-.017 1.868 0 3.544 1.62 3.9 3.767l1.42 8.572c.205 1.242-.068 2.471-.749 3.373-.556.737-1.346 1.198-2.223 1.299l-4.43.502c-.135 3.836-.034 7.475.757 12.247.682 4.126 1.567 7.125 2.674 10.204l4.808-.547c.12-.013.241-.02.362-.02 1.867 0 3.544 1.619 3.9 3.766l1.42 8.573c.205 1.241-.068 2.47-.75 3.372-.556.737-1.345 1.198-2.223 1.297l-4.236.483-.041.005-.041.001a6.425 6.425 0 0 1-.202.003z" class="cls-11" transform="translate(-164.411 -205.54)"/>
                    </g>
                </g>
                <g id="Group_2993" data-name="Group 2993" transform="translate(0 1.648)">
                    <g id="Path_1415" class="cls-6" data-name="Path 1415">
                        <path d="M179.398 264.09c-2.23 0-3.55-1.26-3.694-1.403l-.01-.011-.012-.012c-.174-.199-.487-.443-.82-.7-.587-.458-1.254-.977-1.721-1.643-2.62-3.734-6.329-10.056-8.27-21.783-1.939-11.71-.538-19.311.685-24.01.267-1.023.806-1.926 1.24-2.652.244-.41.456-.763.563-1.041l.007-.018.008-.017c.03-.063.197-.4.525-.784l.846.506c-1.701 4.372-2.567 9.113-2.575 14.091-.006 4.509.689 9.256 2.066 14.11 1.238 4.36 3.02 8.797 5.298 13.185a81.846 81.846 0 0 0 7.099 11.304l.522.697-.866.1-.664.075-.02.002-.02.001a5.886 5.886 0 0 1-.187.003z" class="cls-10" transform="translate(-164.411 -210.341)"/>
                        <path d="M179.398 263.59c.056 0 .113 0 .17-.003l.664-.075c-10.085-13.476-19.202-34.543-11.953-53.171-.306.357-.448.662-.454.674-.328.852-1.389 2.118-1.785 3.639-1.272 4.886-2.567 12.379-.676 23.803 1.891 11.423 5.462 17.695 8.186 21.577.699.996 1.986 1.704 2.508 2.3.021.02 1.242 1.256 3.34 1.256m0 1c-2.433 0-3.89-1.391-4.048-1.55l-.022-.022-.022-.025c-.142-.162-.438-.392-.75-.635-.586-.456-1.314-1.022-1.825-1.75-2.648-3.774-6.396-10.16-8.354-21.988-1.954-11.804-.54-19.475.695-24.218.285-1.093.845-2.03 1.295-2.783.223-.373.434-.726.525-.964l.014-.035.016-.035c.049-.102.237-.473.597-.894l1.692 1.013c-1.679 4.313-2.533 8.993-2.54 13.91-.007 4.462.681 9.163 2.046 13.972 1.229 4.328 2.999 8.733 5.261 13.092a81.343 81.343 0 0 0 7.055 11.234l1.044 1.395-1.731.198-.664.076-.04.005h-.042a6.348 6.348 0 0 1-.202.004z" class="cls-11" transform="translate(-164.411 -210.341)"/>
                    </g>
                </g>
                <g id="Group_2994" data-name="Group 2994" transform="translate(5.892 1.139)">
                    <g id="Path_1416" class="cls-6" data-name="Path 1416">
                        <path d="M188.517 215.676c-.219-1.003-.674-2.452-1.6-3.661-1.092-1.426-2.574-2.149-4.402-2.149-.284 0-.58.018-.881.052l-.114-.993 4.834-.555c.064-.007.13-.01.194-.01 1.007 0 1.912.874 2.105 2.034l.846 5.093-.982.189z" class="cls-10" transform="translate(-181.577 -208.859)"/>
                        <path d="M186.548 208.86c-.045 0-.09.002-.137.007l-4.834.554c.326-.037.639-.055.938-.055 4.583 0 6.05 4.185 6.49 6.203l-.845-5.093c-.154-.92-.861-1.617-1.612-1.617m0-1c1.249 0 2.365 1.055 2.598 2.453l.846 5.093-1.963.378c-.208-.954-.639-2.328-1.509-3.464-1.007-1.314-2.317-1.953-4.005-1.953-.265 0-.542.017-.824.049l-.228-1.987 4.834-.554c.083-.01.168-.015.251-.015z" class="cls-11" transform="translate(-181.577 -208.859)"/>
                    </g>
                </g>
                <g id="Group_2995" data-name="Group 2995" transform="translate(12.245 40.744)">
                    <g id="Path_1417" class="cls-6" data-name="Path 1417">
                        <path d="M207.025 331.056c-.22-1.003-.675-2.453-1.601-3.661-1.092-1.426-2.574-2.149-4.402-2.149-.284 0-.58.018-.881.052l-.114-.993 4.835-.555c.064-.007.13-.01.194-.01 1.006 0 1.91.874 2.104 2.034l.847 5.093-.982.189z" class="cls-10" transform="translate(-200.084 -324.239)"/>
                        <path d="M205.056 324.24c-.046 0-.092.002-.137.007l-4.835.554c.326-.037.639-.055.938-.055 4.583 0 6.05 4.185 6.491 6.203l-.846-5.093c-.154-.92-.861-1.617-1.611-1.617m0-1c1.248 0 2.365 1.055 2.597 2.453l.847 5.093-1.964.378c-.208-.954-.639-2.329-1.509-3.464-1.007-1.314-2.317-1.953-4.005-1.953-.265 0-.542.016-.824.049l-.228-1.987 4.835-.555c.083-.009.167-.014.25-.014z" class="cls-11" transform="translate(-200.084 -324.239)"/>
                    </g>
                </g>
            </g>
            <g id="Group_2998" data-name="Group 2998" transform="translate(12.428 44.71)">
                <g id="Group_2997" data-name="Group 2997" transform="translate(0 11.609)">
                    <g id="Path_1418" class="cls-9" data-name="Path 1418">
                        <path d="M144.773 292.023l-.096-.012a4.002 4.002 0 0 1-2.295-1.093c-.4-.384-.725-.87-.968-1.444-.172-.41-.21-.827-.242-1.196-.013-.15-.026-.294-.046-.432-.415-.15-1.254-.486-1.973-1.189-1.005-.982-1.43-2.3-1.265-3.919.024-.545.176-.9.356-1.18-.468-.11-.943-.292-1.285-.588-1.205-1.041-1.812-2.658-1.545-4.12.077-.423.212-.8.473-1.295-.767-.283-1.33-.937-1.626-1.891a5.196 5.196 0 0 1-.141-2.363 4.94 4.94 0 0 1 3.932-3.901c2.257-.435 9.204-1.063 9.498-1.089l.036-.003.036.002c.113.006 2.775.174 3.513 2.33.382 1.114.435 2.077.156 2.86-.064.18-.139.332-.214.457.602.487 1.122 1.322 1.5 2.425.56 1.637.308 2.768-.09 3.427.452.276.789.688 1.165 1.521.513 1.138.409 2.38 0 3.16.79.808 1.05 1.847.75 3.034a5.268 5.268 0 0 1-.799 1.704l-.047.062-.063.045c-4.428 3.143-7.135 4.27-8.627 4.663l-.093.025z" class="cls-10" transform="translate(-134.544 -266.809)"/>
                        <path d="M144.739 291.515c1.658-.437 4.384-1.69 8.465-4.588 0 0 1.97-2.617-.208-4.356.463-.503.759-1.798.2-3.035-.484-1.071-.843-1.304-1.524-1.556.349-.222 1.168-1.286.432-3.436-.477-1.391-1.156-2.216-1.803-2.475l.054-.021s1.137-.823.307-3.247c-.637-1.86-3.067-1.992-3.067-1.992s-7.19.646-9.449 1.082c-2.258.434-3.309 2.266-3.534 3.5-.225 1.232.076 3.2 1.461 3.7.157.057.348.106.573.144-.45.746-.645 1.184-.74 1.705-.225 1.233.266 2.69 1.38 3.652.473.41 1.342.555 1.839.605-.337.514-.706.742-.738 1.578-.415 3.971 3.2 4.623 3.177 4.707.15.597.068 1.221.31 1.797.2.474.481.92.854 1.278.56.538 1.26.864 2.01.958m.069 1.016l-.192-.024a4.499 4.499 0 0 1-2.58-1.229 4.792 4.792 0 0 1-1.082-1.61c-.203-.482-.243-.94-.279-1.346l-.01-.117c-.488-.198-1.214-.558-1.86-1.19-.769-.751-1.636-2.108-1.415-4.313.016-.329.073-.603.153-.835a3.003 3.003 0 0 1-.91-.519c-1.337-1.155-2.008-2.955-1.71-4.588a4.42 4.42 0 0 1 .298-.975c-1.421-.873-1.895-2.914-1.592-4.574.327-1.79 1.792-3.814 4.329-4.302 2.281-.44 9.253-1.07 9.549-1.096l.071-.006.072.003c.127.007 3.113.197 3.96 2.667.542 1.585.385 2.674.086 3.37.545.559 1.01 1.366 1.355 2.373.515 1.505.393 2.648.066 3.433.36.316.672.764.991 1.471.529 1.171.477 2.391.133 3.276.727.893.956 2.019.646 3.246a5.716 5.716 0 0 1-.883 1.883l-.094.124-.126.09c-4.49 3.186-7.258 4.336-8.79 4.739l-.186.049z" class="cls-11" transform="translate(-134.544 -266.809)"/>
                    </g>
                    <g id="Path_1419" class="cls-6" data-name="Path 1419">
                        <path d="M147.11 291.86l-.096-.012c-.87-.109-1.808-.683-2.35-1.204a4.053 4.053 0 0 1-.915-1.364c-.163-.388-.198-.783-.229-1.131a7.334 7.334 0 0 0-.04-.385c-.397-.143-1.176-.46-1.844-1.114-.949-.928-1.35-2.173-1.195-3.7.022-.495.155-.824.315-1.084-.43-.106-.861-.276-1.176-.548-1.138-.983-1.71-2.51-1.459-3.892.072-.392.195-.741.431-1.192-.712-.275-1.233-.89-1.51-1.78a4.902 4.902 0 0 1-.134-2.231 4.663 4.663 0 0 1 3.712-3.683c2.117-.408 8.632-.996 8.909-1.021l.035-.003.036.002c.107.006 2.624.165 3.322 2.205.556 1.62.139 2.612-.281 3.145.558.5 1.073 1.343 1.424 2.367.532 1.555.28 2.713-.1 3.383.572.38.99.973 1.316 1.848.298.798.33 1.555.099 2.25-.088.263-.206.491-.33.687.146.075.299.194.433.4.99 1.534.379 3.002-.083 3.565l-.042.051-.055.04c-4.155 2.948-6.698 4.007-8.1 4.377l-.093.024z" class="cls-10" transform="translate(-136.475 -267.644)"/>
                        <path d="M147.076 291.352c1.555-.41 4.11-1.585 7.938-4.302 0 0 1.103-1.343.049-2.975-.233-.36-.513-.243-.833-.431.434-.472 1.172-1.423.583-3.003-.435-1.165-.985-1.622-1.624-1.859.328-.208 1.093-1.368.403-3.385-.447-1.303-1.145-2.22-1.751-2.462a.418.418 0 0 1-.005.002l.005-.002s1.387-.777.608-3.05c-.597-1.745-2.876-1.868-2.876-1.868s-6.742.606-8.859 1.014c-2.117.408-3.103 2.126-3.314 3.282-.211 1.155.071 3 1.37 3.469.148.053.326.1.537.135-.422.7-.604 1.11-.694 1.6-.21 1.155.25 2.52 1.294 3.423.445.384 1.26.52 1.724.567-.315.482-.661.697-.691 1.48-.39 3.724 3 4.335 2.978 4.413.14.56.064 1.146.292 1.685.187.445.45.863.8 1.199.526.504 1.362.98 2.066 1.068m4.765-18.417a.296.296 0 0 0 .005-.002l-.005.002m-4.697 19.433l-.192-.024c-1.052-.131-2.077-.804-2.635-1.34a4.55 4.55 0 0 1-1.028-1.53c-.195-.46-.233-.896-.267-1.281l-.007-.075c-2.98-1.252-3.217-3.76-3.073-5.204.014-.288.061-.532.127-.742a2.826 2.826 0 0 1-.816-.475c-1.27-1.097-1.906-2.809-1.624-4.36.058-.315.145-.598.263-.88-1.32-.847-1.76-2.763-1.476-4.324a5.167 5.167 0 0 1 4.109-4.084c2.142-.413 8.682-1.003 8.959-1.028l.072-.006.071.003c.121.007 2.962.187 3.768 2.543.517 1.51.247 2.553-.071 3.163a2.987 2.987 0 0 1-.043.08c.5.558.94 1.342 1.257 2.27.488 1.425.38 2.587.053 3.398.486.432.864 1.03 1.159 1.82.399 1.07.38 2.066-.057 2.975.073.075.143.163.21.265.743 1.15.68 2.212.497 2.9a3.479 3.479 0 0 1-.614 1.253l-.084.103-.11.078c-4.216 2.993-6.82 4.073-8.261 4.453l-.187.05z" class="cls-11" transform="translate(-136.475 -267.644)"/>
                    </g>
                    <g id="Path_1420" class="cls-9" data-name="Path 1420">
                        <path d="M154.725 286.246l-.311-.944c3.513-1.626 5.853-1.967 7.197-1.967.822 0 1.24.13 1.284.145l1.433.471-1.431.478c-1.029.343-7.88 1.757-8.172 1.817z" class="cls-10" transform="translate(-148.428 -278.581)"/>
                        <path d="M154.624 285.756s7.103-1.464 8.115-1.802c0 0-.363-.119-1.128-.119-1.23 0-3.503.309-6.987 1.921m-8.272 2.726l7.852-3.634c3.596-1.664 6.013-2.013 7.407-2.013.88 0 1.354.141 1.44.17l2.866.943-2.862.955c-1.038.346-7.496 1.681-8.23 1.832l-8.473 1.747z" class="cls-11" transform="translate(-148.428 -278.581)"/>
                    </g>
                    <g id="Path_1421" class="cls-9" data-name="Path 1421">
                        <path d="M155.08 306.063l-.317-.944c4.947-2.195 8.435-2.432 9.705-2.432.293 0 .452.013.469.015l.09.98c-1.027.281-9.583 2.295-9.946 2.38z" class="cls-10" transform="translate(-148.664 -291.961)"/>
                        <path d="M154.966 305.576s8.9-2.094 9.928-2.376c0 0-.146-.013-.426-.013-1.157 0-4.597.213-9.502 2.389m.229.973l-.635-1.887c5.034-2.234 8.606-2.475 9.908-2.475.307 0 .48.014.511.017l5.59.477-5.41 1.483c-1.035.284-9.6 2.3-9.964 2.385z" class="cls-11" transform="translate(-148.664 -291.961)"/>
                    </g>
                    <g id="Path_1422" class="cls-9" data-name="Path 1422">
                        <path d="M164.057 322.012l-.378-.925c5.592-2.657 8.205-2.79 8.313-2.795l.164.979c-1.001.3-8.029 2.716-8.1 2.74z" class="cls-10" transform="translate(-154.837 -302.751)"/>
                        <path d="M163.894 321.539s7.096-2.44 8.118-2.747c0 0-2.555.103-8.118 2.747m.325.945l-.754-1.848c5.682-2.701 8.395-2.839 8.507-2.843l7.917-.319-7.59 2.276c-.99.297-8.01 2.71-8.08 2.734z" class="cls-11" transform="translate(-154.837 -302.751)"/>
                    </g>
                </g>
                <g id="Path_1423" class="cls-6" data-name="Path 1423">
                    <path d="M136.9 243.011l.283-1.05c.007-.026.324-1.273.111-3.197-.197-1.783-.903-4.532-3.149-7.5l-.265-.352.314-.307c.08-.079 1.981-1.916 4.218-1.916 1.36 0 2.529.66 3.474 1.964 1.105 1.523 1.904 3.961 2.373 7.246l.538 3.222.11.655-.66-.075c-.005-.001-.603-.067-1.476-.067-1.367 0-3.325.157-4.889.907l-.982.47z" class="cls-10" transform="translate(-134.544 -229.189)"/>
                    <path d="M137.666 242.09c1.663-.797 3.724-.956 5.105-.956.916 0 1.533.07 1.533.07l-.54-3.228c-1.002-7.028-3.3-8.787-5.352-8.787-2.058 0-3.868 1.773-3.868 1.773 4.512 5.964 3.122 11.128 3.122 11.128m-1.557 1.855l.59-2.113c.016-.062.3-1.25.092-3.065-.285-2.485-1.31-4.908-3.044-7.202l-.531-.702.628-.616c.086-.084 2.13-2.058 4.568-2.058 1.051 0 2.578.376 3.88 2.17 1.152 1.59 1.98 4.1 2.46 7.463l.538 3.217.219 1.308-1.318-.15c-.005 0-.58-.063-1.42-.063-1.316 0-3.194.149-4.673.858l-1.99.953z" class="cls-11" transform="translate(-134.544 -229.189)"/>
                </g>
            </g>
            <g id="Path_1424" class="cls-7" data-name="Path 1424">
                <path d="M228.152 165.799c-.427 0-.542-.437-.58-.58-.478-1.83-2.719-4.392-2.741-4.418l-.125-.142v-2.47c-2.918-12.14-1.816-17.273-.376-19.442.536-.807 1.1-1.179 1.47-1.347.157-2.921.896-5.12 2.2-6.539 1.205-1.313 2.897-1.978 5.027-1.978 4.75 0 10.682 3.238 14.607 5.38l.795.433c2.585 1.4 6.454 2.44 11.19 3.005 3.596.428 6.44.433 6.468.433l.082.994c-.222.036-22.305 3.661-31.935 3.661-3.503 0-4.361-.474-4.718-.886-.174-.202-.286-.277-.34-.305-.099.126-.422.726-.426 3.203a39.22 39.22 0 0 0 .124 3.012l.003.034-.001.034-.319 6.437c.01.265.111 2.804.175 5.348.14 5.613-.004 5.763-.204 5.971a.518.518 0 0 1-.376.162z" class="cls-10" transform="translate(-183.532 -115.472)"/>
                <path d="M228.152 165.299c.349 0-.095-10.983-.095-10.983l.32-6.46s-.588-6.773.773-6.773c.202 0 .448.15.744.493.44.508 2.04.713 4.34.713 9.7 0 31.853-3.655 31.853-3.655s-11.44 0-17.896-3.498c-3.71-2.01-10.203-5.753-15.164-5.753-3.672 0-6.504 2.051-6.744 8.377 0 0-5.76.942-1.077 20.37v2.34s2.335 2.654 2.85 4.622c.038.141.07.207.096.207m0 1h-.001c-.303 0-.845-.125-1.062-.953-.372-1.422-2.027-3.525-2.634-4.215l-.249-.283V158.248c-1.318-5.497-1.93-10.062-1.822-13.573.085-2.716.599-4.803 1.53-6.205.48-.725.991-1.143 1.403-1.383.197-2.899.974-5.105 2.314-6.564 1.304-1.42 3.12-2.14 5.396-2.14 4.878 0 10.877 3.274 14.847 5.441l.794.433c2.53 1.37 6.337 2.39 11.01 2.947 3.567.425 6.381.43 6.41.43l.162 1.987c-.908.15-22.345 3.668-32.016 3.668-3.096 0-4.255-.361-4.828-.804-.084.455-.164 1.24-.155 2.557.01 1.42.12 2.715.122 2.728l.005.068-.003.068-.317 6.414c.014.364.111 2.846.174 5.333.04 1.58.057 2.853.053 3.787a26.195 26.195 0 0 1-.032 1.342c-.03.513-.073.899-.364 1.201-.192.2-.46.316-.737.316z" class="cls-11" transform="translate(-183.532 -115.472)"/>
            </g>
            <g id="Path_1425" class="cls-7" data-name="Path 1425">
                <path d="M316.623 180.247l-.999-.042c.001-.044.062-4.397-.291-9.01-.262-3.417-.954-9.344-2.65-10.652-.574-.443-1.205-1.031-.993-1.654.208-.61 1.012-.688 1.69-.688 1.644 0 4.225.56 4.334.583l.423.092-.03.432-1.484 20.94z" class="cls-10" transform="translate(-244.914 -135.743)"/>
                <path d="M313.38 158.701c-1.208 0-1.848.322-.39 1.446 3.4 2.624 3.134 20.065 3.134 20.065l1.484-20.94s-2.619-.57-4.229-.57m0-1c1.699 0 4.33.57 4.442.593l.845.185-.061.863-1.483 20.94-1.997-.086c0-.043.06-4.38-.291-8.97-.618-8.052-1.923-9.877-2.456-10.288-.415-.32-1.516-1.17-1.161-2.211.35-1.027 1.667-1.027 2.162-1.027z" class="cls-11" transform="translate(-244.914 -135.743)"/>
            </g>
        </g>
    </g>
</svg>
