<svg xmlns="http://www.w3.org/2000/svg" width="24" height="24" viewBox="0 0 24 24">
    <defs>
        <style>
            .cls-1{fill:none}.cls-2{clip-path:url(#clip-path)}.cls-3{fill:#999}.cls-4{clip-path:url(#clip-path-2)}
        </style>
        <clipPath id="clip-path">
            <path d="M0 0h24v24H0z" class="cls-1"/>
        </clipPath>
        <clipPath id="clip-path-2">
            <path id="Rectangle_937" d="M0 0h8.963v16.296H0z" class="cls-1" data-name="Rectangle 937"/>
        </clipPath>
    </defs>
    <g id="building_3" class="cls-2" data-name="building – 3">
        <path id="Rectangle_936" d="M0 0h24v24H0z" class="cls-1" data-name="Rectangle 936"/>
        <g id="Group_1976" data-name="Group 1976" transform="translate(2 3.82)">
            <path id="Path_685" d="M3.492-5.212v.582a.28.28 0 0 1-.086.2.28.28 0 0 1-.2.086h-.587a.28.28 0 0 1-.2-.086.28.28 0 0 1-.086-.2v-.582a.28.28 0 0 1 .086-.2.28.28 0 0 1 .2-.086H3.2a.28.28 0 0 1 .2.086.28.28 0 0 1 .092.2zm0-2.328v.582a.28.28 0 0 1-.086.2.28.28 0 0 1-.2.086h-.587a.28.28 0 0 1-.2-.086.28.28 0 0 1-.086-.2v-.582a.28.28 0 0 1 .086-.2.28.28 0 0 1 .2-.086H3.2a.28.28 0 0 1 .2.086.28.28 0 0 1 .092.2zm2.328 0v.582a.28.28 0 0 1-.086.2.28.28 0 0 1-.2.086h-.587a.28.28 0 0 1-.2-.086.28.28 0 0 1-.086-.2v-.582a.28.28 0 0 1 .086-.2.28.28 0 0 1 .2-.086h.582a.28.28 0 0 1 .2.086.28.28 0 0 1 .091.2zM3.492-9.868v.582a.28.28 0 0 1-.086.2.28.28 0 0 1-.2.086h-.587a.28.28 0 0 1-.2-.086.28.28 0 0 1-.086-.2v-.582a.28.28 0 0 1 .086-.2.28.28 0 0 1 .2-.086H3.2a.28.28 0 0 1 .2.086.28.28 0 0 1 .092.2zm6.984 4.656v.582a.28.28 0 0 1-.086.2.28.28 0 0 1-.2.086H9.6a.28.28 0 0 1-.2-.086.28.28 0 0 1-.086-.2v-.582a.28.28 0 0 1 .086-.2.28.28 0 0 1 .2-.088h.582a.28.28 0 0 1 .2.086.28.28 0 0 1 .094.202zM8.148-7.54v.582a.28.28 0 0 1-.086.2.28.28 0 0 1-.2.086h-.587a.28.28 0 0 1-.2-.086.28.28 0 0 1-.086-.2v-.582a.28.28 0 0 1 .086-.2.28.28 0 0 1 .2-.086h.582a.28.28 0 0 1 .2.086.28.28 0 0 1 .091.2zM5.82-9.868v.582a.28.28 0 0 1-.086.2.28.28 0 0 1-.2.086h-.587a.28.28 0 0 1-.2-.086.28.28 0 0 1-.086-.2v-.582a.28.28 0 0 1 .086-.2.28.28 0 0 1 .2-.086h.582a.28.28 0 0 1 .2.086.28.28 0 0 1 .091.2zM3.492-12.2v.582a.28.28 0 0 1-.086.2.28.28 0 0 1-.2.086h-.587a.28.28 0 0 1-.2-.086.28.28 0 0 1-.086-.2v-.582a.28.28 0 0 1 .086-.2.28.28 0 0 1 .2-.086H3.2a.28.28 0 0 1 .2.086.28.28 0 0 1 .092.2zm6.984 4.66v.582a.28.28 0 0 1-.086.2.28.28 0 0 1-.2.086H9.6a.28.28 0 0 1-.2-.086.28.28 0 0 1-.086-.2v-.582a.28.28 0 0 1 .086-.2.28.28 0 0 1 .2-.086h.582a.28.28 0 0 1 .2.086.28.28 0 0 1 .094.2zM8.148-9.868v.582a.28.28 0 0 1-.086.2.28.28 0 0 1-.2.086h-.587a.28.28 0 0 1-.2-.086.28.28 0 0 1-.086-.2v-.582a.28.28 0 0 1 .086-.2.28.28 0 0 1 .2-.086h.582a.28.28 0 0 1 .2.086.28.28 0 0 1 .091.2zM5.82-12.2v.582a.28.28 0 0 1-.086.2.28.28 0 0 1-.2.086h-.587a.28.28 0 0 1-.2-.086.28.28 0 0 1-.086-.2v-.582a.28.28 0 0 1 .086-.2.28.28 0 0 1 .2-.086h.582a.28.28 0 0 1 .2.086.28.28 0 0 1 .091.2zm-2.328-2.324v.582a.28.28 0 0 1-.086.2.28.28 0 0 1-.2.086h-.587a.28.28 0 0 1-.2-.086.28.28 0 0 1-.086-.2v-.582a.28.28 0 0 1 .086-.2.28.28 0 0 1 .2-.086H3.2a.28.28 0 0 1 .2.086.28.28 0 0 1 .092.2zm6.984 4.656v.582a.28.28 0 0 1-.086.2.28.28 0 0 1-.2.086H9.6a.28.28 0 0 1-.2-.086.28.28 0 0 1-.086-.2v-.582a.28.28 0 0 1 .086-.2.28.28 0 0 1 .2-.086h.582a.28.28 0 0 1 .2.086.28.28 0 0 1 .094.2zM8.148-12.2v.582a.28.28 0 0 1-.086.2.28.28 0 0 1-.2.086h-.587a.28.28 0 0 1-.2-.086.28.28 0 0 1-.086-.2v-.582a.28.28 0 0 1 .086-.2.28.28 0 0 1 .2-.086h.582a.28.28 0 0 1 .2.086.28.28 0 0 1 .091.2zM5.82-14.524v.582a.28.28 0 0 1-.086.2.28.28 0 0 1-.2.086h-.587a.28.28 0 0 1-.2-.086.28.28 0 0 1-.086-.2v-.582a.28.28 0 0 1 .086-.2.28.28 0 0 1 .2-.086h.582a.28.28 0 0 1 .2.086.28.28 0 0 1 .091.2zm4.656 2.324v.582a.28.28 0 0 1-.086.2.28.28 0 0 1-.2.086H9.6a.28.28 0 0 1-.2-.086.28.28 0 0 1-.086-.2v-.582a.28.28 0 0 1 .086-.2.28.28 0 0 1 .2-.086h.582a.28.28 0 0 1 .2.086.28.28 0 0 1 .094.2zm-2.328-2.324v.582a.28.28 0 0 1-.086.2.28.28 0 0 1-.2.086h-.587a.28.28 0 0 1-.2-.086.28.28 0 0 1-.086-.2v-.582a.28.28 0 0 1 .086-.2.28.28 0 0 1 .2-.086h.582a.28.28 0 0 1 .2.086.28.28 0 0 1 .091.2zm2.328 0v.582a.28.28 0 0 1-.086.2.28.28 0 0 1-.2.086H9.6a.28.28 0 0 1-.2-.086.28.28 0 0 1-.086-.2v-.582a.28.28 0 0 1 .086-.2.28.28 0 0 1 .2-.086h.582a.28.28 0 0 1 .2.086.28.28 0 0 1 .094.2zM8.148-2.011h3.492v-13.968H1.164v13.968h3.492v-2.037a.28.28 0 0 1 .086-.2.28.28 0 0 1 .2-.086h2.91a.28.28 0 0 1 .2.086.28.28 0 0 1 .086.2zm4.652-14.55v15.132a.559.559 0 0 1-.173.409.559.559 0 0 1-.409.173H.582a.559.559 0 0 1-.409-.173A.559.559 0 0 1 0-1.429v-15.132a.559.559 0 0 1 .173-.409.559.559 0 0 1 .409-.173h11.64a.559.559 0 0 1 .409.173.559.559 0 0 1 .169.409z" class="cls-3" data-name="Path 685" transform="translate(0 17.143)"/>
            <g id="Mask_Group_1" class="cls-4" data-name="Mask Group 1" transform="translate(13.037 1.746)">
                <path id="Path_686" d="M2.738-7.787v.456a.219.219 0 0 1-.068.16.219.219 0 0 1-.16.068h-.456a.219.219 0 0 1-.16-.068.219.219 0 0 1-.068-.16v-.456a.219.219 0 0 1 .068-.16.219.219 0 0 1 .16-.068h.456a.219.219 0 0 1 .16.068.219.219 0 0 1 .068.16zm0-1.826v.456A.219.219 0 0 1 2.671-9a.219.219 0 0 1-.16.068h-.457A.219.219 0 0 1 1.893-9a.219.219 0 0 1-.068-.16v-.456a.219.219 0 0 1 .068-.16.219.219 0 0 1 .16-.068h.457a.219.219 0 0 1 .16.068.219.219 0 0 1 .068.164zm1.826 0v.456A.219.219 0 0 1 4.5-9a.219.219 0 0 1-.16.068h-.461A.219.219 0 0 1 3.719-9a.219.219 0 0 1-.068-.16v-.456a.219.219 0 0 1 .068-.16.219.219 0 0 1 .16-.068h.456a.219.219 0 0 1 .16.068.219.219 0 0 1 .069.164zm-1.826-1.825v.456a.219.219 0 0 1-.068.16.219.219 0 0 1-.16.068h-.456a.219.219 0 0 1-.16-.068.219.219 0 0 1-.068-.16v-.456a.219.219 0 0 1 .068-.16.219.219 0 0 1 .16-.068h.456a.219.219 0 0 1 .16.068.219.219 0 0 1 .068.16zm5.477 3.651v.456a.219.219 0 0 1-.068.16.219.219 0 0 1-.16.068H7.53a.219.219 0 0 1-.16-.068.219.219 0 0 1-.07-.159v-.456a.219.219 0 0 1 .068-.16.219.219 0 0 1 .16-.068h.456a.219.219 0 0 1 .16.068.219.219 0 0 1 .071.159zM6.389-9.612v.456A.219.219 0 0 1 6.322-9a.219.219 0 0 1-.16.068H5.7A.219.219 0 0 1 5.544-9a.219.219 0 0 1-.068-.16v-.456a.219.219 0 0 1 .068-.16.219.219 0 0 1 .16-.068h.456a.219.219 0 0 1 .16.068.219.219 0 0 1 .069.164zm-1.825-1.826v.456a.219.219 0 0 1-.068.16.219.219 0 0 1-.16.068h-.457a.219.219 0 0 1-.16-.068.219.219 0 0 1-.068-.16v-.456a.219.219 0 0 1 .068-.16.219.219 0 0 1 .16-.068h.456a.219.219 0 0 1 .16.068.219.219 0 0 1 .069.16zm-1.826-1.826v.456a.219.219 0 0 1-.068.16.219.219 0 0 1-.16.068h-.456a.219.219 0 0 1-.16-.068.219.219 0 0 1-.068-.16v-.456a.219.219 0 0 1 .068-.16.219.219 0 0 1 .16-.068h.456a.219.219 0 0 1 .16.068.219.219 0 0 1 .068.16zm5.477 3.652v.456A.219.219 0 0 1 8.147-9a.219.219 0 0 1-.16.068H7.53A.219.219 0 0 1 7.37-9a.219.219 0 0 1-.068-.16v-.456a.219.219 0 0 1 .068-.16.219.219 0 0 1 .16-.068h.456a.219.219 0 0 1 .16.068.219.219 0 0 1 .069.164zm-1.826-1.826v.456a.219.219 0 0 1-.068.16.219.219 0 0 1-.16.068H5.7a.219.219 0 0 1-.16-.068.219.219 0 0 1-.068-.16v-.456a.219.219 0 0 1 .068-.16.219.219 0 0 1 .16-.068h.456a.219.219 0 0 1 .16.068.219.219 0 0 1 .073.16zm-1.825-1.826v.456a.219.219 0 0 1-.068.16.219.219 0 0 1-.16.068h-.457a.219.219 0 0 1-.16-.068.219.219 0 0 1-.068-.16v-.456a.219.219 0 0 1 .068-.16.219.219 0 0 1 .16-.068h.456a.219.219 0 0 1 .16.068.219.219 0 0 1 .069.16zm-1.826-1.825v.456a.219.219 0 0 1-.068.16.219.219 0 0 1-.16.068h-.456a.219.219 0 0 1-.16-.068.219.219 0 0 1-.068-.16v-.456a.219.219 0 0 1 .068-.16.219.219 0 0 1 .16-.068h.456a.219.219 0 0 1 .16.068.219.219 0 0 1 .068.16zm5.477 3.651v.456a.219.219 0 0 1-.068.16.219.219 0 0 1-.16.068H7.53a.219.219 0 0 1-.16-.068.219.219 0 0 1-.068-.16v-.456a.219.219 0 0 1 .068-.16.219.219 0 0 1 .16-.068h.456a.219.219 0 0 1 .16.068.219.219 0 0 1 .069.16zm-1.826-1.826v.456a.219.219 0 0 1-.068.16.219.219 0 0 1-.16.068H5.7a.219.219 0 0 1-.16-.068.219.219 0 0 1-.068-.16v-.456a.219.219 0 0 1 .068-.16.219.219 0 0 1 .16-.068h.456a.219.219 0 0 1 .16.068.219.219 0 0 1 .073.16zm-1.825-1.825v.456a.219.219 0 0 1-.068.16.219.219 0 0 1-.16.068h-.457a.219.219 0 0 1-.16-.068.219.219 0 0 1-.068-.16v-.456a.219.219 0 0 1 .068-.16.219.219 0 0 1 .16-.068h.456a.219.219 0 0 1 .16.068.219.219 0 0 1 .069.16zm3.651 1.826v.456a.219.219 0 0 1-.068.16.219.219 0 0 1-.16.068H7.53a.219.219 0 0 1-.16-.068.219.219 0 0 1-.068-.16v-.456a.219.219 0 0 1 .068-.16.219.219 0 0 1 .16-.068h.456a.219.219 0 0 1 .16.068.219.219 0 0 1 .069.159zm-1.826-1.826v.456a.219.219 0 0 1-.068.16.219.219 0 0 1-.16.068H5.7a.219.219 0 0 1-.16-.068.219.219 0 0 1-.068-.16v-.456a.219.219 0 0 1 .068-.16.219.219 0 0 1 .16-.068h.456a.219.219 0 0 1 .16.068.219.219 0 0 1 .073.16zm1.826 0v.456a.219.219 0 0 1-.068.16.219.219 0 0 1-.16.068H7.53a.219.219 0 0 1-.16-.068.219.219 0 0 1-.068-.16v-.456a.219.219 0 0 1 .068-.16.219.219 0 0 1 .16-.068h.456a.219.219 0 0 1 .16.068.219.219 0 0 1 .069.16zM6.389-5.277h2.739V-16.23H.913v10.953h2.738v-1.6a.219.219 0 0 1 .068-.16.219.219 0 0 1 .16-.068h2.282a.219.219 0 0 1 .16.068.219.219 0 0 1 .068.16zm3.651-11.41V-4.82a.439.439 0 0 1-.135.321.439.439 0 0 1-.321.135H.456A.439.439 0 0 1 .135-4.5.439.439 0 0 1 0-4.82v-11.866a.439.439 0 0 1 .135-.321.439.439 0 0 1 .321-.135h9.128a.439.439 0 0 1 .321.135.439.439 0 0 1 .136.321z" class="cls-3" data-name="Path 686" transform="translate(-3.259 18.914)"/>
            </g>
        </g>
    </g>
</svg>
