<svg xmlns="http://www.w3.org/2000/svg" width="23.906" height="23.906" viewBox="0 0 23.906 23.906">
    <defs>
        <style>
            .cls-1{fill:#57b280}
        </style>
    </defs>
    <path id="Path_3045" d="M1394.656 2907.047l.054-.05 2.855-2.486a1.955 1.955 0 0 1 1.528-.507 2.245 2.245 0 0 1 1.375.631 1.037 1.037 0 0 1 .081.091l2.8 3.54a2.013 2.013 0 0 1-.05 2.789 1.058 1.058 0 0 1-.163.134l-1.434.954c.114.5.862 1.94 3.48 4.558s4.061 3.368 4.558 3.482l.954-1.434a1.027 1.027 0 0 1 .133-.164 2.012 2.012 0 0 1 2.789-.05l3.54 2.8a1.113 1.113 0 0 1 .092.082 2.112 2.112 0 0 1 .123 2.9l-2.485 2.855a1.278 1.278 0 0 1-.05.054 2.8 2.8 0 0 1-2.034.668 12.159 12.159 0 0 1-4.016-.921 25.757 25.757 0 0 1-13.88-13.883c-.532-1.352-1.628-4.665-.25-6.043zm7.322 12.865c4.917 4.919 10.431 6.255 11.372 5.8l2.408-2.767v-.007l-3.466-2.746-.932 1.4a1.095 1.095 0 0 1-.059.08 1.774 1.774 0 0 1-1.309.647c-.515.028-2.081.11-6.307-4.117-1.045-1.045-4.225-4.226-4.116-6.306a1.778 1.778 0 0 1 .647-1.309.986.986 0 0 1 .08-.058l1.4-.933-2.745-3.465h-.009l-2.766 2.408c-.453.939.884 6.453 5.802 11.373z" class="cls-1" data-name="Path 3045" transform="translate(-1393.988 -2903.996)"/>
</svg>
