<svg xmlns="http://www.w3.org/2000/svg" width="24" height="24" viewBox="0 0 24 24">
    <defs>
        <style>
            .cls-1{fill:none}.cls-2{clip-path:url(#clip-path)}.cls-3{fill:#999}
        </style>
        <clipPath id="clip-path">
            <path d="M0 0h24v24H0z" class="cls-1"/>
        </clipPath>
    </defs>
    <g id="Component" class="cls-2">
        <path id="Rectangle_936" d="M0 0h24v24H0z" class="cls-1" data-name="Rectangle 936"/>
        <g id="Group_1978" data-name="Group 1978" transform="translate(3 1.563)">
            <path id="Path_650" d="M1394.442 2906.068l.036-.034 1.939-1.688a1.326 1.326 0 0 1 1.038-.344 1.525 1.525 0 0 1 .934.429.7.7 0 0 1 .055.062l1.9 2.4a1.367 1.367 0 0 1-.034 1.894.712.712 0 0 1-.11.091l-.974.648c.077.337.585 1.317 2.363 3.095s2.758 2.287 3.1 2.365l.648-.974a.7.7 0 0 1 .091-.111 1.366 1.366 0 0 1 1.894-.035l2.4 1.9a.725.725 0 0 1 .063.056 1.435 1.435 0 0 1 .084 1.971l-1.688 1.939-.034.037a1.9 1.9 0 0 1-1.381.454 8.252 8.252 0 0 1-2.728-.626 17.491 17.491 0 0 1-9.426-9.428c-.361-.915-1.106-3.169-.17-4.101zm4.972 8.737c3.34 3.34 7.084 4.248 7.723 3.94l1.635-1.879v-.005l-2.353-1.864-.633.952a.684.684 0 0 1-.04.054 1.2 1.2 0 0 1-.889.439c-.35.019-1.413.074-4.283-2.8-.71-.709-2.869-2.87-2.8-4.283a1.208 1.208 0 0 1 .44-.889.755.755 0 0 1 .054-.04l.952-.633-1.864-2.354h-.006l-1.878 1.635c-.305.641.602 4.386 3.942 7.722z" class="cls-3" data-name="Path 650" transform="translate(-1393.989 -2900.794)"/>
            <path id="Path_651" d="M4.914 2.535l.024 7.619a.744.744 0 0 1-.738.746.744.744 0 0 1-.743-.741l-.03-7.634L1.268 4.67A.744.744 0 0 1 .22 3.614L3.641.216a.744.744 0 0 1 1.048 0l3.422 3.4A.744.744 0 1 1 7.063 4.67z" class="cls-3" data-name="Path 651" transform="rotate(45 6.68 16.126)"/>
        </g>
    </g>
</svg>
