<svg xmlns="http://www.w3.org/2000/svg" id="Group_6668" width="24" height="24" data-name="Group 6668" viewBox="0 0 24 24">
    <defs>
        <style>
            .cls-1{fill:#fff}.cls-2{fill:none}
        </style>
    </defs>
    <path id="Path_115" d="M1394.491 2906.294l.04-.038 2.15-1.872a1.471 1.471 0 0 1 1.15-.381 1.691 1.691 0 0 1 1.035.475.81.81 0 0 1 .061.069l2.111 2.666a1.515 1.515 0 0 1-.038 2.1.8.8 0 0 1-.123.1l-1.079.719c.086.374.649 1.46 2.62 3.432s3.058 2.535 3.432 2.622l.718-1.08a.787.787 0 0 1 .1-.123 1.514 1.514 0 0 1 2.1-.038l2.665 2.111a.834.834 0 0 1 .069.062 1.59 1.59 0 0 1 .093 2.186l-1.871 2.15a.737.737 0 0 1-.038.041 2.111 2.111 0 0 1-1.531.5 9.155 9.155 0 0 1-3.024-.694 19.394 19.394 0 0 1-10.451-10.453c-.401-1.023-1.226-3.517-.189-4.554zm5.513 9.686c3.7 3.7 7.854 4.71 8.563 4.369l1.813-2.084v-.005l-2.61-2.068-.7 1.055a.928.928 0 0 1-.044.06 1.336 1.336 0 0 1-.985.487c-.388.021-1.567.083-4.749-3.1-.787-.787-3.181-3.182-3.1-4.748a1.337 1.337 0 0 1 .487-.986.513.513 0 0 1 .06-.044l1.055-.7-2.067-2.609h-.007l-2.082 1.813c-.344.704.662 4.856 4.362 8.56z" class="cls-1" data-name="Path 115" transform="translate(-1390.988 -2900.997)"/>
    <path id="Rectangle_936" d="M0 0h24v24H0z" class="cls-2" data-name="Rectangle 936"/>
</svg>
