<svg xmlns="http://www.w3.org/2000/svg" id="Group_6117" width="100" height="100" data-name="Group 6117" viewBox="0 0 24 24">
    <defs>
        <style>
            .cls-1{fill:none}.cls-2{fill:#fff}.cls-3,.cls-4{stroke:none}.cls-4{fill:#999}
        </style>
    </defs>
    <path id="Rectangle_910" d="M0 0h24v24H0z" class="cls-1" data-name="Rectangle 910"/>
    <g id="Path_3043" class="cls-2" data-name="Path 3043">
        <path d="M14.4 1.85H2.215c-.464 0-.849-.16-1.177-.488A1.59 1.59 0 0 1 .55.185V-7.57c0-.464.16-.85.488-1.178a1.59 1.59 0 0 1 1.177-.488H4.535l.134-.357.44-1.173c.07-.18.202-.336.404-.478.198-.14.388-.207.58-.207h4.43c.192 0 .381.068.58.207.2.142.333.298.403.478l.44 1.173.134.357H14.4c.464 0 .849.16 1.177.488.329.329.488.714.488 1.178V.185c0 .463-.16.849-.488 1.177a1.59 1.59 0 0 1-1.177.488zM8.308-8.12c-1.214 0-2.266.438-3.128 1.3-.862.862-1.3 1.914-1.3 3.128 0 1.212.436 2.266 1.294 3.13C6.042.3 7.094.735 8.308.735c1.213 0 2.265-.438 3.127-1.3.862-.862 1.3-1.914 1.3-3.127 0-1.214-.438-2.266-1.3-3.128-.862-.862-1.914-1.3-3.127-1.3zm0 6.37c-.54 0-.989-.187-1.373-.57a1.855 1.855 0 0 1-.57-1.372c0-.54.185-.987.566-1.368a1.862 1.862 0 0 1 1.377-.575c.54 0 .988.187 1.372.57.383.384.57.833.57 1.373s-.187.988-.57 1.372c-.384.383-.833.57-1.372.57z" class="cls-3" transform="translate(4.001 17)"/>
        <path d="M6.092-10.9c-.027 0-.11 0-.263.107a.558.558 0 0 0-.207.226l-.438 1.169-.268.713H2.215c-.319 0-.562.101-.788.327a1.04 1.04 0 0 0-.327.789V.185c0 .319.1.562.327.788.226.226.47.327.788.327H14.4c.32 0 .562-.1.788-.327a1.04 1.04 0 0 0 .327-.788V-7.57c0-.32-.1-.563-.327-.789a1.039 1.039 0 0 0-.788-.327h-2.701l-.268-.713-.438-1.17a.558.558 0 0 0-.207-.225c-.152-.107-.236-.107-.263-.107h-4.43M8.307 1.285c-1.363 0-2.547-.49-3.518-1.453l-.003-.003-.003-.003C3.82-1.146 3.33-2.33 3.33-3.692c0-1.365.491-2.548 1.46-3.517.969-.969 2.152-1.46 3.517-1.46 1.364 0 2.547.491 3.516 1.46.97.969 1.46 2.152 1.46 3.517 0 1.364-.49 2.547-1.46 3.516-.969.97-2.152 1.46-3.516 1.46m0-6.369c-.397 0-.702.128-.988.414a1.29 1.29 0 0 0-.405.979c0 .397.126.7.41.983.282.283.586.409.983.409s.7-.126.983-.41c.283-.282.409-.585.409-.982s-.126-.7-.41-.984a1.296 1.296 0 0 0-.982-.409M6.092-12h4.431c.306 0 .604.102.896.307.291.205.491.449.601.731l.441 1.177H14.4c.611 0 1.134.217 1.566.65.433.432.65.954.65 1.566V.185c0 .611-.217 1.133-.65 1.566A2.134 2.134 0 0 1 14.4 2.4H2.215A2.134 2.134 0 0 1 .65 1.75 2.134 2.134 0 0 1 0 .186V-7.57c0-.612.216-1.134.649-1.567a2.134 2.134 0 0 1 1.566-.649h1.939l.441-1.177c.11-.282.31-.526.602-.73.29-.206.59-.308.895-.308zM8.308.185c1.067 0 1.98-.38 2.739-1.138.758-.76 1.138-1.672 1.138-2.74 0-1.067-.38-1.98-1.138-2.738-.76-.759-1.672-1.138-2.74-1.138-1.067 0-1.98.38-2.738 1.138C4.81-5.673 4.43-4.76 4.43-3.692c0 1.067.378 1.981 1.133 2.743C6.326-.193 7.24.185 8.308.185zm0-6.37a2.4 2.4 0 0 1 1.76.732 2.4 2.4 0 0 1 .732 1.76 2.4 2.4 0 0 1-.731 1.762 2.4 2.4 0 0 1-1.761.73 2.4 2.4 0 0 1-1.761-.73 2.4 2.4 0 0 1-.732-1.761c0-.687.243-1.272.727-1.757a2.408 2.408 0 0 1 1.766-.736z" class="cls-4" transform="translate(4.001 17)"/>
    </g>
</svg>
