<svg xmlns="http://www.w3.org/2000/svg" id="Tag_-_Chat" width="40" height="40" data-name="Tag - Chat" viewBox="0 0 40 40">
    <defs>
        <style>
            .cls-1{fill:#8665eb}.cls-2{fill:#fff}
        </style>
    </defs>
    <circle id="Ellipse_71" cx="20" cy="20" r="20" class="cls-1" data-name="Ellipse 71"/>
    <path id="Path_2312" d="M20.615-.9a5.336 5.336 0 0 0 1.7-3.805c0-3.1-2.964-5.661-6.828-6.119-1.221-2.232-4.088-3.8-7.432-3.8-4.452 0-8.06 2.774-8.06 6.2a5.349 5.349 0 0 0 1.7 3.805A10.144 10.144 0 0 1 .244-2.492a.893.893 0 0 0-.17.969.893.893 0 0 0 .826.542 8.907 8.907 0 0 0 4.851-1.5 11.04 11.04 0 0 0 1.1.19c1.217 2.224 4.073 3.79 7.413 3.79a10.258 10.258 0 0 0 2.317-.263 8.928 8.928 0 0 0 4.851 1.5.9.9 0 0 0 .651-1.511A9.876 9.876 0 0 1 20.615-.9zM5.394-4.476l-.663.43a7.886 7.886 0 0 1-1.67.829c.1-.182.209-.376.31-.574L3.972-5l-.961-.949A3.553 3.553 0 0 1 1.86-8.425c0-2.352 2.84-4.34 6.2-4.34s6.2 1.988 6.2 4.34-2.84 4.34-6.2 4.34a8.445 8.445 0 0 1-1.9-.217zm13.915 2.251l-.957.946.6 1.205c.1.2.205.391.31.573a7.885 7.885 0 0 1-1.67-.829l-.662-.43-.771.178a8.445 8.445 0 0 1-1.9.217 7.21 7.21 0 0 1-5.087-1.926c3.925-.418 6.948-3 6.948-6.134 0-.132-.016-.26-.027-.387 2.5.562 4.367 2.2 4.367 4.107a3.553 3.553 0 0 1-1.151 2.48z" class="cls-2" data-name="Path 2312" transform="translate(7.93 25)"/>
</svg>
