<svg xmlns="http://www.w3.org/2000/svg" width="35.143" height="35.143" viewBox="0 0 35.143 35.143">
    <defs>
        <style>
            .cls-1{fill:#57b280}
        </style>
    </defs>
    <path id="Path_3062" d="M29.377-18.349a1.425 1.425 0 0 0-.412-1.052l-2.082-2.059a1.407 1.407 0 0 0-1.03-.435 1.407 1.407 0 0 0-1.03.435l-9.335 9.312-5.169-5.172a1.407 1.407 0 0 0-1.03-.435 1.407 1.407 0 0 0-1.03.435l-2.082 2.059a1.425 1.425 0 0 0-.412 1.052 1.4 1.4 0 0 0 .412 1.03L14.46-4.9a1.407 1.407 0 0 0 1.03.435 1.433 1.433 0 0 0 1.052-.435l12.423-12.42a1.4 1.4 0 0 0 .412-1.029zm3.409-5.1a17.128 17.128 0 0 1 2.357 8.809 17.189 17.189 0 0 1-2.357 8.82A17.492 17.492 0 0 1 26.391.572a17.189 17.189 0 0 1-8.82 2.357A17.189 17.189 0 0 1 8.751.572a17.492 17.492 0 0 1-6.394-6.395A17.189 17.189 0 0 1 0-14.643a17.189 17.189 0 0 1 2.357-8.82 17.492 17.492 0 0 1 6.395-6.395 17.189 17.189 0 0 1 8.82-2.357 17.189 17.189 0 0 1 8.82 2.357 17.466 17.466 0 0 1 6.394 6.407z" class="cls-1" data-name="Path 3062" transform="translate(0 32.214)"/>
</svg>
