<svg xmlns="http://www.w3.org/2000/svg" width="24" height="24" viewBox="0 0 24 24">
    <defs>
        <style>
            .cls-1,.cls-3{fill:#ed4d67}.cls-1{stroke:#707070}.cls-2{clip-path:url(#clip-path)}
        </style>
        <clipPath id="clip-path">
            <path id="Rectangle_1779" d="M0 0h24v24H0z" class="cls-1" data-name="Rectangle 1779" transform="translate(340 501)"/>
        </clipPath>
    </defs>
    <g id="Right_arrow_icon" class="cls-2" data-name="Right arrow icon" transform="translate(-340 -501)">
        <path id="Path_3209" d="M7.469 3.769L12.2-.96a.641.641 0 0 0 .2-.469.641.641 0 0 0-.2-.469L7.469-6.626A.641.641 0 0 0 7-6.824a.641.641 0 0 0-.469.2l-1.062 1.06a.641.641 0 0 0-.2.469.641.641 0 0 0 .2.469l3.2 3.2-3.2 3.2a.654.654 0 0 0 0 .937l1.062 1.058a.654.654 0 0 0 .937 0zm7.458-9.208A7.8 7.8 0 0 1 16-1.429a7.826 7.826 0 0 1-1.073 4.016A7.964 7.964 0 0 1 12.016 5.5 7.826 7.826 0 0 1 8 6.571 7.826 7.826 0 0 1 3.984 5.5a7.964 7.964 0 0 1-2.911-2.913A7.826 7.826 0 0 1 0-1.429a7.826 7.826 0 0 1 1.073-4.015 7.964 7.964 0 0 1 2.911-2.912A7.826 7.826 0 0 1 8-9.429a7.826 7.826 0 0 1 4.016 1.073 7.952 7.952 0 0 1 2.911 2.917z" class="cls-3" data-name="Path 3209" transform="translate(344 514.429)"/>
    </g>
</svg>
