<svg xmlns="http://www.w3.org/2000/svg" width="169.422" height="148.613" viewBox="0 0 169.422 148.613">
    <defs>
        <style>
            .cls-1,.cls-3,.cls-4{fill:none;stroke-miterlimit:10}.cls-1{stroke:#bf263f;stroke-width:1.426px;stroke-dasharray:2.341 4.681;opacity:.512}.cls-2{fill:#ed4d67;opacity:.1}.cls-3,.cls-4{stroke:#f7657d;stroke-width:1.17px}.cls-3{opacity:.18}.cls-4{opacity:.14}.cls-5{fill:#fff}.cls-6{fill:#bf2640;fill-rule:evenodd}.cls-7,.cls-8{stroke:none}.cls-8{fill:#fdedef}
        </style>
    </defs>
    <g id="_01" data-name="1" transform="translate(-281.667 -57.284)">
        <g id="Group_2358" data-name="Group 2358">
            <g id="Group_2354" data-name="Group 2354">
                <g id="Group_2352" data-name="Group 2352">
                    <path id="Path_826" d="M301.124 91.923c10.873 33.834 16.16 56.833 6.283 89.336-10.607 34.909 61.973 26.781 89.338 6.284 26.017-19.489 70.688-44.273-6.283-89.337-31.954-18.706-100.662-41.52-89.338-6.283z" class="cls-1" data-name="Path 826"/>
                    <path id="Path_777" d="M432.088 83.622c-15.262 34.576-23.41 58.314-16.578 93.791 7.339 38.1-68.522 21.435-95.187-3.286-25.353-23.5-69.842-54.685 16.577-93.79 35.871-16.237 111.076-32.724 95.188 3.285z" class="cls-2" data-name="Path 777"/>
                </g>
                <g id="Group_2356" data-name="Group 2356">
                    <circle id="Ellipse_80" cx="3.297" cy="3.297" r="3.297" class="cls-3" data-name="Ellipse 80" transform="translate(426.228 87.949)"/>
                    <path id="Path_823" d="M433.955 123.588l5.172-2.714.7-5.8 4.179 4.08 5.735-1.129-2.589 5.235 2.845 5.1-5.779-.845-3.973 4.283-.983-5.757z" class="cls-4" data-name="Path 823"/>
                    <path id="Path_828" d="M285.235 58.376l3.389 1.9 3.495-1.713-.762 3.812 2.708 2.788-3.859.454-1.817 3.437-1.623-3.531-3.83-.663 2.857-2.635z" class="cls-4" data-name="Path 828"/>
                    <circle id="Ellipse_81" cx="5.638" cy="5.638" r="5.638" class="cls-3" data-name="Ellipse 81" transform="translate(286.954 175.725)"/>
                </g>
            </g>
        </g>
        <g id="Group_6036" data-name="Group 6036" transform="translate(306.688 70.062)">
            <circle id="Ellipse_214" cx="35.384" cy="35.384" r="35.384" class="cls-5" data-name="Ellipse 214" transform="translate(26.313 28.789)"/>
            <g id="Path_2947" class="cls-6" data-name="Path 2947">
                <path d="M1117.51 1330.511a4.197 4.197 0 0 1-2.765-1.034 4.176 4.176 0 0 1-1.424-2.886 4.178 4.178 0 0 1 1.024-3.05l1.118-1.28a44.398 44.398 0 0 0 7.06 4.71l-1.842 2.107a4.208 4.208 0 0 1-3.172 1.433zm56.685-3.812a4.197 4.197 0 0 1-2.765-1.034l-2.107-1.842a44.433 44.433 0 0 0 6.365-5.612l1.28 1.119a4.212 4.212 0 0 1 .4 5.936 4.21 4.21 0 0 1-3.173 1.433zm-30.85-.447h-.003c-9.585 0-18.74-3.61-25.777-10.166a37.729 37.729 0 0 1-11.97-25.166 37.636 37.636 0 0 1 1.98-14.907 37.745 37.745 0 0 1 7.29-12.555 37.742 37.742 0 0 1 11.467-8.906 37.633 37.633 0 0 1 14.508-3.958 38.623 38.623 0 0 1 2.58-.087c9.585 0 18.74 3.61 25.777 10.165a37.73 37.73 0 0 1 11.97 25.167 37.635 37.635 0 0 1-1.98 14.907 37.747 37.747 0 0 1-7.29 12.556 37.745 37.745 0 0 1-11.467 8.905 37.632 37.632 0 0 1-14.508 3.958c-.857.058-1.724.087-2.577.087zm-15.315-7.798a34.011 34.011 0 0 0 7.35 2.707 34.064 34.064 0 0 0 8.454.946l.527-.007-.035-.526-.395-5.866 2.668-.18.394 5.867.035.526.524-.064a34.084 34.084 0 0 0 8.04-1.987 33.989 33.989 0 0 0 7.124-3.742l.031-.021.416-.279-.006-.009a34.31 34.31 0 0 0 5.732-5.136l.103-.115.002.002.112-.13.12-.134-.003-.002.1-.118a34.317 34.317 0 0 0 4.322-6.367l.01.004.22-.449.006-.013a33.998 33.998 0 0 0 2.762-7.57c.633-2.69.934-5.464.897-8.245l-.007-.527-.526.035-5.865.394-.18-2.668 5.866-.394.526-.036-.064-.524c-1-8.23-4.969-15.807-11.174-21.336l-.115-.103.002-.002-.117-.1-.147-.131-.003.002-.116-.1a34.094 34.094 0 0 0-10.188-6.038 33.86 33.86 0 0 0-12.453-2.179l-.528.008.036.526.394 5.864-2.668.18-.394-5.865-.036-.526-.523.064a34.08 34.08 0 0 0-8.04 1.987 34.002 34.002 0 0 0-7.122 3.742l-.033.022-.416.278.006.009a34.317 34.317 0 0 0-5.732 5.136l-.102.115-.003-.003-.144.168-.086.097.001.001-.1.118a34.324 34.324 0 0 0-4.322 6.368l-.01-.004-.22.45-.01.017a33.996 33.996 0 0 0-2.759 7.568 34.082 34.082 0 0 0-.896 8.242l.008.527.526-.035 5.865-.394.18 2.668-5.866.394-.526.036.063.523a34.083 34.083 0 0 0 1.995 8.057 33.996 33.996 0 0 0 3.756 7.136l.004.007a34.313 34.313 0 0 0 5.42 6.136l.115.103-.002.002.1.085.163.146.003-.003.117.1a34.32 34.32 0 0 0 6.368 4.323l-.004.01.449.22.024.012zm15.372-27.313a3.175 3.175 0 0 1-3.062-3.968l.104-.396-.367-.18-20.712-10.17.034-.068 20.66 10.144.408.2.238-.387a3.176 3.176 0 0 1 2.706-1.511c.686 0 1.34.217 1.89.63l.27.2.288-.173 19.477-11.736.048.072-18.608 13.83-.199.148-.003.247a3.153 3.153 0 0 1-.865 2.126 3.158 3.158 0 0 1-2.307.992zm-41.65-18.074a18.036 18.036 0 0 1-1.629-7.452 17.93 17.93 0 0 1 2.161-8.564l.126-.232-.12-.234a3.848 3.848 0 0 1 .532-4.303 3.866 3.866 0 0 1 4.193-1.102l.248.087.212-.156a17.796 17.796 0 0 1 5.061-2.58 17.98 17.98 0 0 1 5.524-.867c1.84 0 3.647.277 5.385.825a44.21 44.21 0 0 0-13.201 10.216 44.263 44.263 0 0 0-8.492 14.362zm80.936-5.445a44.244 44.244 0 0 0-4.192-6.582 44.525 44.525 0 0 0-13.433-11.64 44.21 44.21 0 0 0-7.118-3.213 18.02 18.02 0 0 1 7.586-1.676c2.978 0 5.93.747 8.534 2.161l.231.126.235-.12a3.863 3.863 0 0 1 4.302.532 3.847 3.847 0 0 1 1.103 4.191l-.087.249.155.212a17.936 17.936 0 0 1 3.286 8.18 18.042 18.042 0 0 1-.602 7.58z" class="cls-7" transform="translate(-1082.376 -1225.697)"/>
                <path d="M1165.53 1245.01c-2.13.001-4.242.392-6.22 1.143a44.728 44.728 0 0 1 13.384 8.012 44.773 44.773 0 0 1 9.833 12.101c.45-2.011.543-4.103.267-6.157a17.435 17.435 0 0 0-3.193-7.951l-.311-.425.174-.497a3.349 3.349 0 0 0-.96-3.65 3.363 3.363 0 0 0-3.746-.463l-.47.24-.462-.252a17.435 17.435 0 0 0-8.295-2.1m-47.471 3.153c-1.828 0-3.634.283-5.37.843a17.297 17.297 0 0 0-4.92 2.508l-.424.31-.497-.174a3.366 3.366 0 0 0-4.113 4.706l.239.47-.251.462a17.43 17.43 0 0 0-2.1 8.326 17.548 17.548 0 0 0 1.105 6.09 44.79 44.79 0 0 1 8.14-13.331 45.017 45.017 0 0 1 6.635-6.145 44.719 44.719 0 0 1 5.589-3.595 17.404 17.404 0 0 0-4.033-.47m25.357 1.843v1c-.842 0-1.697.03-2.543.086a37.135 37.135 0 0 0-14.317 3.905 37.245 37.245 0 0 0-11.315 8.788 37.249 37.249 0 0 0-9.148 27.1 37.232 37.232 0 0 0 11.812 24.835c6.945 6.469 15.978 10.031 25.436 10.031.844 0 1.701-.029 2.547-.086a37.246 37.246 0 0 0 25.63-12.694 37.246 37.246 0 0 0 7.195-12.39 37.14 37.14 0 0 0 1.954-14.71 37.23 37.23 0 0 0-11.812-24.833c-6.945-6.468-15.978-10.03-25.436-10.032l-.003-1m22.268 11.449l.01-.011.52.463.496.426-.009.01a34.58 34.58 0 0 1 11.085 21.422l.127 1.048-1.053.07-5.366.362.112 1.67 5.366-.36 1.053-.072.014 1.056a34.593 34.593 0 0 1-.91 8.365 34.5 34.5 0 0 1-2.801 7.679l-.005.01-.444.905-.025-.012a34.82 34.82 0 0 1-3.932 5.765l.011.01-.452.507-.437.51-.01-.01a34.818 34.818 0 0 1-5.196 4.674l.016.024-.83.555-.029.02a34.494 34.494 0 0 1-7.226 3.795 34.588 34.588 0 0 1-8.157 2.017l-1.048.127-.07-1.053-.36-5.367-1.671.112.36 5.367.072 1.053-1.056.014a34.572 34.572 0 0 1-8.578-.96 34.504 34.504 0 0 1-7.455-2.746l-.022-.01-.904-.444.012-.025a34.815 34.815 0 0 1-5.765-3.932l-.01.011-.539-.479-.478-.41.01-.01a34.817 34.817 0 0 1-5.245-5.998l-.007-.01a34.494 34.494 0 0 1-3.809-7.238 34.58 34.58 0 0 1-2.024-8.175l-.127-1.048 1.053-.07 5.366-.362-.112-1.67-5.366.36-1.053.072-.014-1.056c-.038-2.82.267-5.633.908-8.362a34.495 34.495 0 0 1 2.8-7.677l.007-.015.436-.89.024.012a34.832 34.832 0 0 1 3.94-5.78l-.01-.01.42-.47.469-.548.011.01a34.836 34.836 0 0 1 5.195-4.674l-.015-.022.828-.556.03-.02a34.488 34.488 0 0 1 7.226-3.795 34.585 34.585 0 0 1 8.157-2.017l1.048-.127.07 1.053.362 5.365 1.67-.112-.361-5.365-.07-1.053 1.054-.014a34.356 34.356 0 0 1 12.636 2.21 34.584 34.584 0 0 1 10.077 5.906m-8.163 17.562l-11.405 6.873-.577.347-.538-.403a2.637 2.637 0 0 0-1.775-.524 2.676 2.676 0 0 0-2.096 1.267l-.206.335-.101.387a2.674 2.674 0 0 0 2.762 3.335 2.68 2.68 0 0 0 2.488-2.62l.007-.493.396-.295 11.045-8.21m18.199 39.887a44.943 44.943 0 0 1-5.6 4.953l1.638 1.431c.672.588 1.537.911 2.436.911a3.71 3.71 0 0 0 2.796-1.262 3.711 3.711 0 0 0-.352-5.23l-.918-.803m-60.197 4.048l-.802.917a3.682 3.682 0 0 0-.902 2.688 3.68 3.68 0 0 0 1.254 2.543c.672.588 1.537.911 2.435.911 1.076 0 2.095-.46 2.796-1.262l1.43-1.638a44.921 44.921 0 0 1-6.211-4.159m50.007-78.941c3.011 0 6.032.734 8.772 2.222a4.373 4.373 0 0 1 4.859.6 4.366 4.366 0 0 1 1.246 4.734c3.687 5.04 4.528 11.6 2.37 17.35a43.88 43.88 0 0 0-26.127-22.635 18.457 18.457 0 0 1 8.88-2.271zm-47.471 3.153c2.261 0 4.528.414 6.677 1.25a43.871 43.871 0 0 0-22.9 25.945c-2.928-5.417-2.978-12.047.008-17.547a4.367 4.367 0 0 1 5.335-6.104 18.422 18.422 0 0 1 10.88-3.544zm25.36 2.843c20.016.002 36.882 15.531 38.246 35.798 1.42 21.144-14.566 39.438-35.71 40.86-.878.058-1.747.087-2.614.087-20.017 0-36.882-15.532-38.246-35.798-1.421-21.145 14.566-39.437 35.71-40.859.878-.059 1.748-.088 2.614-.088zm20.823 14.618l-.488-.428 1.54-1.761c-5.912-5.068-13.575-8.1-21.853-8.1l-.456.003.428 6.363-3.666.247-.428-6.363a33.428 33.428 0 0 0-14.942 5.647l-.035.023a33.78 33.78 0 0 0-6.046 5.34l1.76 1.54-.426.49-1.762-1.541a33.786 33.786 0 0 0-4.483 6.708l-.01.02a33.43 33.43 0 0 0-3.604 15.581l6.364-.428.247 3.666-6.364.428a33.43 33.43 0 0 0 5.667 14.973l.003.003a33.786 33.786 0 0 0 5.34 6.047l1.54-1.762.49.428-1.54 1.761a33.778 33.778 0 0 0 6.707 4.483l.026.013a33.43 33.43 0 0 0 15.575 3.601l-.428-6.364 3.666-.247.427 6.365a33.436 33.436 0 0 0 14.943-5.647l.034-.023a33.774 33.774 0 0 0 6.047-5.34l-1.761-1.54.427-.49 1.761 1.54a33.769 33.769 0 0 0 4.483-6.707l.008-.016a33.434 33.434 0 0 0 3.606-15.585l-6.363.428-.247-3.666 6.364-.428c-1.02-8.393-5.09-15.749-11.01-21.024l-1.541 1.762zm-14.649-9.717l.637.126-.453 2.3-.637-.125.453-2.3zm-16.747 1.126l.758 2.22-.615.21-.757-2.22.614-.21zm25.032 1.572l.708.348-1.7 3.461-.709-.347 1.701-3.462zm-32.88 2.21l2.147 3.204-.654.44-2.148-3.204.034-.023.62-.416zm46.124 9.094l.44.656-3.204 2.147-.439-.654 3.203-2.149zm-57.737 3.883l3.463 1.7-.348.707-3.462-1.7.337-.687.01-.02zm52.1.259l.579.863-18.991 14.115a3.667 3.667 0 0 1-7.328.19c-.027-.407.013-.8.11-1.174l-21.16-10.391.474-.966 21.11 10.365a3.663 3.663 0 0 1 3.13-1.75c.816 0 1.576.27 2.19.73l19.886-11.982zm9.649 3.748l.21.614-2.22.758-.21-.616 2.22-.756zm-64.668 4.348l2.301.453-.126.638-2.3-.454.125-.637zm63.703 12.559l2.302.454-.127.637-2.3-.453.125-.638zm-60.484 4.068l.211.614-2.22.758-.209-.615 2.218-.757zm56.626 2.971l3.462 1.7-.34.692-.008.016-3.462-1.701.348-.707zm-51.859 3.487l.44.654-3.204 2.15c0-.002-.002-.003-.003-.004l-.436-.652 3.203-2.148zm41.868 8.254l2.148 3.204a8.35 8.35 0 0 1-.034.023l-.621.416-2.148-3.204.655-.439zm-30.395 2.044l.708.347-1.7 3.463-.682-.335-.026-.013 1.7-3.462zm23.897 2.952l.756 2.219-.614.21-.757-2.22.615-.21zm21.828.032l1.646 1.438a4.721 4.721 0 0 1 .447 6.642 4.701 4.701 0 0 1-3.55 1.604c-1.1 0-2.204-.38-3.093-1.158l-2.583-2.257a43.848 43.848 0 0 0 7.133-6.269zm-38.617 1.097l.638.125-.453 2.3-.638-.124.453-2.301zm-21.627 2.954a43.82 43.82 0 0 0 7.908 5.258l-2.257 2.583a4.7 4.7 0 0 1-3.549 1.604c-1.1 0-2.205-.38-3.093-1.158a4.72 4.72 0 0 1-.447-6.642l1.438-1.645z" class="cls-8" transform="translate(-1082.376 -1225.697)"/>
            </g>
        </g>
    </g>
</svg>
