<svg xmlns="http://www.w3.org/2000/svg" width="17.143" height="17.143" viewBox="0 0 17.143 17.143">
    <defs>
        <style>
            .cls-1{fill:none}.cls-2{clip-path:url(#clip-path)}.cls-3{fill:#999}
        </style>
        <clipPath id="clip-path">
            <path d="M0 0h17.143v17.143H0z" class="cls-1"/>
        </clipPath>
    </defs>
    <g id="Component" class="cls-2">
        <path id="Path_2283" d="M12.824-4.621a.686.686 0 0 0-.212-.5l-2.02-2.02 2.02-2.02a.686.686 0 0 0 .212-.5.7.7 0 0 0-.212-.513l-1-1a.7.7 0 0 0-.513-.212.686.686 0 0 0-.5.212l-2.02 2.02-2.02-2.02a.686.686 0 0 0-.5-.212.7.7 0 0 0-.513.212l-1 1a.7.7 0 0 0-.212.513.686.686 0 0 0 .212.5l2.02 2.02-2.02 2.02a.686.686 0 0 0-.212.5.7.7 0 0 0 .212.513l1 1a.7.7 0 0 0 .513.212.686.686 0 0 0 .5-.212l2.02-2.02 2.02 2.02a.686.686 0 0 0 .5.212.7.7 0 0 0 .513-.212l1-1a.7.7 0 0 0 .212-.513zm3.17-6.819a8.355 8.355 0 0 1 1.15 4.3 8.385 8.385 0 0 1-1.15 4.3 8.533 8.533 0 0 1-3.12 3.119 8.385 8.385 0 0 1-4.3 1.15 8.385 8.385 0 0 1-4.3-1.15A8.533 8.533 0 0 1 1.15-2.84 8.385 8.385 0 0 1 0-7.143a8.385 8.385 0 0 1 1.15-4.3 8.533 8.533 0 0 1 3.119-3.119 8.385 8.385 0 0 1 4.3-1.15 8.385 8.385 0 0 1 4.3 1.15 8.52 8.52 0 0 1 3.124 3.122z" class="cls-3" data-name="Path 2283" transform="translate(0 15.714)"/>
    </g>
</svg>
