<svg xmlns="http://www.w3.org/2000/svg" width="118.893" height="119" viewBox="0 0 118.893 119">
    <defs>
        <style>
            .cls-1,.cls-12{fill:#ed4e67}.cls-1,.cls-11{opacity:.15}.cls-2,.cls-3,.cls-4,.cls-5,.cls-6,.cls-7,.cls-8{fill:none}.cls-2,.cls-3,.cls-4,.cls-5,.cls-7,.cls-8{stroke:#f7657d;stroke-miterlimit:10;isolation:isolate}.cls-2,.cls-3,.cls-4,.cls-8{stroke-width:1.085px}.cls-2,.cls-5,.cls-7{opacity:.429}.cls-3{opacity:.418}.cls-4{opacity:.369}.cls-5{stroke-width:.924px}.cls-6{stroke:#bf2640;stroke-linecap:round;stroke-width:.98px;stroke-dasharray:1.96 1.96}.cls-7{stroke-width:.643px}.cls-8{opacity:.25}.cls-9{fill:#fff}.cls-10{fill:#bf263f}.cls-13{fill:#f1647d;opacity:.2}
        </style>
    </defs>
    <g id="Group_8267" data-name="Group 8267" transform="translate(-351.884 -881.163)">
        <g id="Group_6942" data-name="Group 6942">
            <path id="Rectangle_1795" d="M424.253 901.794l27.908 29.282a19.813 19.813 0 0 1-.946 28.352l-29.8 27.423a20.671 20.671 0 0 1-28.855-.93l-27.908-29.282a19.813 19.813 0 0 1 .947-28.352l29.8-27.423a20.669 20.669 0 0 1 28.854.93z" class="cls-1" data-name="Rectangle 1795"/>
            <ellipse id="Ellipse_80" cx="2.108" cy="2.072" class="cls-2" data-name="Ellipse 80" rx="2.108" ry="2.072" transform="translate(449.797 991.839)"/>
            <path id="Path_823" d="M369.672 988.712l2.126 3.016 3.736-.006-2.265 2.919 1.164 3.491-3.525-1.211-3.016 2.166.086-3.668-3.028-2.149 3.579-1.054z" class="cls-3" data-name="Path 823"/>
            <path id="Path_828" d="M452.218 890.7l-.941 2.264 1.359 2.049-2.478-.182-1.56 1.9-.59-2.373-2.325-.874 2.117-1.284.123-2.44 1.895 1.58z" class="cls-4" data-name="Path 828"/>
            <ellipse id="Ellipse_81" cx="3.605" cy="3.543" class="cls-2" data-name="Ellipse 81" rx="3.605" ry="3.543" transform="translate(361.277 895.725)"/>
            <ellipse id="Ellipse_80-2" cx="2.108" cy="2.072" class="cls-2" data-name="Ellipse 80-2" rx="2.108" ry="2.072" transform="translate(352.427 905.087)"/>
            <ellipse id="Ellipse_81-2" cx="3.07" cy="3.016" class="cls-5" data-name="Ellipse 81" rx="3.07" ry="3.016" transform="translate(448.346 903.859)"/>
            <ellipse id="Ellipse_80-2-2" cx="2.108" cy="2.072" class="cls-2" data-name="Ellipse 80-2" rx="2.108" ry="2.072" transform="translate(460.271 910.087)"/>
            <path id="Path_5767" d="M453.653 946.526l-20.271 34.5a20.468 20.468 0 0 1-27.691 7.291L370.58 968.4a19.731 19.731 0 0 1-7.42-27.209l20.272-34.5a20.467 20.467 0 0 1 27.691-7.291l35.111 19.918a19.732 19.732 0 0 1 7.419 27.208z" class="cls-6" data-name="Path 5767"/>
            <ellipse id="Ellipse_80-2-3" cx="1.266" cy="1.21" class="cls-7" data-name="Ellipse 80" rx="1.266" ry="1.21" transform="translate(467.924 937.373)"/>
            <ellipse id="Ellipse_81-3" cx="3.605" cy="3.543" class="cls-8" data-name="Ellipse 81" rx="3.605" ry="3.543" transform="translate(447.899 981.192)"/>
            <ellipse id="Ellipse_80-3" cx="1.266" cy="1.21" class="cls-7" data-name="Ellipse 80" rx="1.266" ry="1.21" transform="translate(388.067 881.484)"/>
            <ellipse id="Ellipse_80-4" cx="1.266" cy="1.21" class="cls-7" data-name="Ellipse 80" rx="1.266" ry="1.21" transform="translate(429.867 896.767)"/>
            <ellipse id="Ellipse_80-5" cx="1.266" cy="1.21" class="cls-7" data-name="Ellipse 80" rx="1.266" ry="1.21" transform="translate(361.82 913.005)"/>
            <ellipse id="Ellipse_80-6" cx="1.266" cy="1.21" class="cls-7" data-name="Ellipse 80" rx="1.266" ry="1.21" transform="translate(365.709 977.003)"/>
        </g>
        <g id="Success">
            <g id="Group_8266" data-name="Group 8266">
                <g id="Group_8265" data-name="Group 8265">
                    <g id="Group_8255" data-name="Group 8255">
                        <path id="Path_5768" d="M445.934 900.753s.06 23.065-20.47 31a36.757 36.757 0 0 1-5.638 1.66l.6-5.343a20.028 20.028 0 0 0 8.66-2.74c5.073-2.918 10.792-8.945 12.424-21.384 0 0 .41-2.635-2.882-2.82l-7.381.079-.19-4.09 11.913-.127a3.96 3.96 0 0 1 2.964 3.765z" class="cls-9" data-name="Path 5768"/>
                        <path id="Path_5769" d="M419.827 934.109a.7.7 0 0 1-.7-.778l.6-5.342a.7.7 0 0 1 .68-.623 19.553 19.553 0 0 0 8.327-2.647c4.609-2.651 10.447-8.424 12.078-20.867a1.844 1.844 0 0 0-.358-1.3 2.506 2.506 0 0 0-1.868-.732l-7.334.08h-.008a.7.7 0 0 1-.7-.667l-.189-4.09a.7.7 0 0 1 .691-.733l11.913-.127a.661.661 0 0 1 .17.02 4.618 4.618 0 0 1 3.5 4.441v.007c0 .235-.18 23.638-20.919 31.65a37.629 37.629 0 0 1-5.742 1.692.723.723 0 0 1-.141.016zm1.23-5.385l-.425 3.786a35.548 35.548 0 0 0 4.579-1.414c19.8-7.651 20.022-30.011 20.024-30.338a3.227 3.227 0 0 0-2.356-3.073l-11.089.119.125 2.69 6.7-.072a3.835 3.835 0 0 1 2.933 1.26 3.261 3.261 0 0 1 .648 2.369c-1.7 12.993-7.883 19.073-12.767 21.882a21.472 21.472 0 0 1-8.372 2.791z" class="cls-10" data-name="Path 5769"/>
                    </g>
                    <g id="Group_8256" class="cls-11" data-name="Group 8256">
                        <path id="Path_5770" d="M420.426 928.066a20.028 20.028 0 0 0 8.66-2.74 36.931 36.931 0 0 1-3.622 6.423 36.757 36.757 0 0 1-5.638 1.66z" class="cls-9" data-name="Path 5770"/>
                        <path id="Path_5771" d="M419.827 934.109a.7.7 0 0 1-.7-.778l.6-5.342a.7.7 0 0 1 .68-.623 19.553 19.553 0 0 0 8.327-2.647.7.7 0 0 1 .988.893 37.7 37.7 0 0 1-3.692 6.544.7.7 0 0 1-.316.246 37.722 37.722 0 0 1-5.744 1.692.723.723 0 0 1-.143.015zm1.23-5.385l-.425 3.786a36.011 36.011 0 0 0 4.384-1.339 34.6 34.6 0 0 0 2.546-4.273 20.933 20.933 0 0 1-6.505 1.826z" class="cls-10" data-name="Path 5771"/>
                    </g>
                    <g id="Group_8257" class="cls-11" data-name="Group 8257">
                        <path id="Path_5772" d="M435.056 897.069a117.616 117.616 0 0 1-.3 4.1l-3.507.037-.19-4.09z" class="cls-9" data-name="Path 5772"/>
                        <path id="Path_5773" d="M431.247 901.9a.7.7 0 0 1-.7-.667l-.189-4.09a.7.7 0 0 1 .691-.733l4-.043a.666.666 0 0 1 .514.216.709.709 0 0 1 .193.523 113.849 113.849 0 0 1-.305 4.12.7.7 0 0 1-.69.636l-3.506.038zm.543-4.1l.125 2.69 2.2-.024c.083-.947.15-1.849.2-2.693z" class="cls-10" data-name="Path 5773"/>
                    </g>
                    <g id="Group_8258" data-name="Group 8258">
                        <path id="Path_5774" d="M403.528 933.583a35.773 35.773 0 0 1-7.117-2.1c-19.27-8.014-19.683-29.988-19.683-29.988a3.959 3.959 0 0 1 2.882-3.832l11.913-.128-.1 4.093-7.381.079c-3.287.255-2.82 2.881-2.82 2.881 1.722 11.267 6.708 17.171 11.455 20.262a20.477 20.477 0 0 0 10.14 3.406z" class="cls-9" data-name="Path 5774"/>
                        <path id="Path_5775" d="M403.528 934.283a.632.632 0 0 1-.13-.013 36.665 36.665 0 0 1-7.256-2.141c-19.468-8.1-20.11-30.4-20.113-30.623a4.621 4.621 0 0 1 3.4-4.522.684.684 0 0 1 .168-.022l11.914-.128a.768.768 0 0 1 .506.209.7.7 0 0 1 .2.509l-.1 4.093a.7.7 0 0 1-.691.682l-7.382.079a2.459 2.459 0 0 0-1.8.769 1.855 1.855 0 0 0-.334 1.3c1.413 9.24 5.163 15.9 11.147 19.791a19.874 19.874 0 0 0 9.76 3.293.7.7 0 0 1 .693.606l.714 5.328a.7.7 0 0 1-.695.794zm-23.813-35.922a3.224 3.224 0 0 0-2.288 3.125c.005.209.641 21.609 19.254 29.349a34.638 34.638 0 0 0 6.019 1.865l-.506-3.775a21.687 21.687 0 0 1-9.906-3.491c-6.333-4.123-10.292-11.1-11.766-20.742a3.254 3.254 0 0 1 .6-2.363 3.8 3.8 0 0 1 2.859-1.322l6.751-.074.068-2.692z" class="cls-10" data-name="Path 5775"/>
                    </g>
                    <g id="Group_8259" class="cls-11" data-name="Group 8259">
                        <path id="Path_5776" d="M391.523 897.534l-.1 4.093-4.533.049c-.168-1.476-.3-2.852-.39-4.088z" class="cls-9" data-name="Path 5776"/>
                        <path id="Path_5777" d="M386.887 902.376a.7.7 0 0 1-.7-.621 111.93 111.93 0 0 1-.393-4.113.7.7 0 0 1 .69-.754l5.027-.054a.768.768 0 0 1 .506.209.7.7 0 0 1 .2.509l-.1 4.093a.7.7 0 0 1-.691.682l-4.534.049zm.367-4.1c.071.844.157 1.743.259 2.689l3.224-.035.068-2.692z" class="cls-10" data-name="Path 5777"/>
                    </g>
                    <g id="Group_8260" class="cls-11" data-name="Group 8260">
                        <path id="Path_5778" d="M403.528 933.583a35.773 35.773 0 0 1-7.117-2.1 38.7 38.7 0 0 1-3.737-6.633 20.477 20.477 0 0 0 10.14 3.406z" class="cls-9" data-name="Path 5778"/>
                        <path id="Path_5779" d="M403.528 934.283a.639.639 0 0 1-.13-.013 36.665 36.665 0 0 1-7.256-2.141.706.706 0 0 1-.3-.24 39.417 39.417 0 0 1-3.807-6.754.7.7 0 0 1 1.023-.873 19.865 19.865 0 0 0 9.758 3.293.7.7 0 0 1 .693.606l.714 5.328a.7.7 0 0 1-.695.794zm-6.662-3.37a34.884 34.884 0 0 0 5.834 1.787l-.506-3.775a21.3 21.3 0 0 1-7.912-2.332 35.8 35.8 0 0 0 2.584 4.32z" class="cls-10" data-name="Path 5779"/>
                    </g>
                    <g id="Group_8261" data-name="Group 8261">
                        <path id="Path_5780" d="M415.681 938.9l-.729.636a4.86 4.86 0 0 1-3.306 1.2l-.746-.017a4.865 4.865 0 0 1-2.892-1.036l-.876-.687c-18.846-9.226-18.711-47.928-18.711-47.928-.027-2.521 2.924-3.211 2.924-3.211l39.024-.417s2.967.626 2.994 3.147c0-.006.963 38.684-17.682 48.313z" class="cls-9" data-name="Path 5780"/>
                        <path id="Path_5781" d="M411.758 941.431h-.128l-.747-.017a5.614 5.614 0 0 1-3.307-1.184l-.876-.688c-7.782-3.792-13.59-13.442-16.677-27.829a109.537 109.537 0 0 1-2.3-20.653c-.026-2.428 2.255-3.607 3.466-3.889l39.174-.436c1.369.272 3.675 1.4 3.7 3.84a109.593 109.593 0 0 1-1.861 20.688c-2.767 14.4-8.34 24.156-16.122 28.219l-.665.58a5.563 5.563 0 0 1-3.657 1.369zm18.467-53.313l-38.871.434c.055.005-2.254.582-2.234 2.5 0 .393.086 38.38 18.32 47.307l1 .766a4.189 4.189 0 0 0 2.476.886l.746.017a4.239 4.239 0 0 0 2.832-1.024l.726-.635a.693.693 0 0 1 .14-.095c18.04-9.315 17.311-47.295 17.3-47.677-.019-1.945-2.411-2.473-2.435-2.479z" class="cls-10" data-name="Path 5781"/>
                    </g>
                    <rect id="Rectangle_2112" width="49.377" height="8.989" class="cls-12" data-name="Rectangle 2112" rx="2.705" transform="translate(386.144 885.45)"/>
                    <g id="Group_8262" data-name="Group 8262">
                        <path id="Rectangle_2113" d="M0 0h37.68v20.048H0z" class="cls-9" data-name="Rectangle 2113" transform="rotate(-.613 89410.572 -36250.303)"/>
                        <path id="Path_5782" d="M393.161 975.246a.7.7 0 0 1-.7-.693l-.214-20.047a.7.7 0 0 1 .691-.708l37.678-.4a.687.687 0 0 1 .5.2.7.7 0 0 1 .21.493l.214 20.047a.7.7 0 0 1-.691.707l-37.678.4zm.494-20.055l.2 18.647 36.278-.389-.2-18.646z" class="cls-10" data-name="Path 5782"/>
                    </g>
                    <path id="Rectangle_2114" d="M0 0h42.754v3.221H0z" class="cls-12" data-name="Rectangle 2114" transform="rotate(-.613 91155.637 -36020.66)"/>
                    <path id="Rectangle_2115" d="M0 0h23.546v9.625H0z" class="cls-12" data-name="Rectangle 2115" transform="rotate(-.613 89983.53 -36912.088)"/>
                    <g id="Group_8263" data-name="Group 8263">
                        <path id="Rectangle_2116" d="M0 0h18.853v2.306H0z" class="cls-9" data-name="Rectangle 2116" transform="rotate(-.613 89190.286 -37128.04)"/>
                        <path id="Path_5783" d="M402.349 955.1a.7.7 0 0 1-.7-.693l-.024-2.306a.7.7 0 0 1 .691-.707l18.853-.2a.7.7 0 0 1 .707.693l.025 2.305a.7.7 0 0 1-.692.708l-18.852.2zm.683-2.313l.009.905 17.453-.186-.01-.906z" class="cls-10" data-name="Path 5783"/>
                    </g>
                    <g id="Group_8264" data-name="Group 8264">
                        <path id="Path_5784" d="M414.566 940.03l-2.943.03-2.938.033s.838 11.922-5.354 11.989l8.419-.09 8.432-.091c-6.192.067-5.616-11.871-5.616-11.871z" class="cls-9" data-name="Path 5784"/>
                        <path id="Path_5785" d="M403.33 952.782a.7.7 0 0 1-.008-1.4 3.275 3.275 0 0 0 2.492-1.114c2.65-2.873 2.178-10.053 2.173-10.125a.693.693 0 0 1 .183-.524.7.7 0 0 1 .507-.226l5.883-.062a1.021 1.021 0 0 1 .511.214.7.7 0 0 1 .195.519c0 .073-.315 7.268 2.4 10.078a3.366 3.366 0 0 0 2.513 1.06h.008a.7.7 0 0 1 .008 1.4l-16.852.18h-.008zm6.087-12c.053 2.036-.041 7.687-2.574 10.432-.04.044-.081.087-.122.129l10.056-.107-.127-.127c-2.591-2.691-2.809-8.338-2.8-10.374z" class="cls-10" data-name="Path 5785"/>
                    </g>
                    <path id="Path_5786" d="M414.566 940.03s-.576 11.938 5.616 11.871l-8.432.091-.127-11.932z" class="cls-13" data-name="Path 5786"/>
                    <path id="Path_5787" d="M423.943 894.262s7.284 31.736-10.912 45.864c0 0 16.737-7.813 18.8-31.9 0 0 .568-8.359-.857-13.891z" class="cls-13" data-name="Path 5787"/>
                </g>
            </g>
        </g>
    </g>
</svg>
