<svg xmlns="http://www.w3.org/2000/svg" width="169.422" height="148.613" viewBox="0 0 169.422 148.613">
    <defs>
        <style>
            .cls-1,.cls-3,.cls-4{fill:none;stroke-miterlimit:10}.cls-1,.cls-5,.cls-6{stroke:#bf263f}.cls-1{stroke-width:1.426px;stroke-dasharray:2.341 4.681;opacity:.512}.cls-2{fill:#ed4d67;opacity:.1}.cls-3,.cls-4{stroke:#f7657d;stroke-width:1.17px}.cls-3{opacity:.18}.cls-4{opacity:.14}.cls-5,.cls-6{fill:#fff;stroke-linecap:round;stroke-linejoin:round;stroke-width:1.205px}.cls-6{opacity:.15}
        </style>
    </defs>
    <g id="_01" data-name="1" transform="translate(-281.667 -55.092)">
        <g id="Group_2358" data-name="Group 2358" transform="translate(0 -2.192)">
            <g id="Group_2354" data-name="Group 2354">
                <g id="Group_2352" data-name="Group 2352">
                    <path id="Path_826" d="M301.124 91.923c10.873 33.834 16.16 56.833 6.283 89.336-10.607 34.909 61.973 26.781 89.338 6.284 26.017-19.489 70.688-44.273-6.283-89.337-31.954-18.706-100.662-41.52-89.338-6.283z" class="cls-1" data-name="Path 826"/>
                    <path id="Path_777" d="M432.088 83.622c-15.262 34.576-23.41 58.314-16.578 93.791 7.339 38.1-68.522 21.435-95.187-3.286-25.353-23.5-69.842-54.685 16.577-93.79 35.871-16.237 111.076-32.724 95.188 3.285z" class="cls-2" data-name="Path 777"/>
                </g>
                <g id="Group_2356" data-name="Group 2356">
                    <circle id="Ellipse_80" cx="3.297" cy="3.297" r="3.297" class="cls-3" data-name="Ellipse 80" transform="translate(426.228 87.949)"/>
                    <path id="Path_823" d="M433.955 123.588l5.172-2.714.7-5.8 4.179 4.08 5.735-1.129-2.589 5.235 2.845 5.1-5.779-.845-3.973 4.283-.983-5.757z" class="cls-4" data-name="Path 823"/>
                    <path id="Path_828" d="M285.235 58.376l3.389 1.9 3.495-1.713-.762 3.812 2.708 2.788-3.859.454-1.817 3.437-1.623-3.531-3.83-.663 2.857-2.635z" class="cls-4" data-name="Path 828"/>
                    <circle id="Ellipse_81" cx="5.638" cy="5.638" r="5.638" class="cls-3" data-name="Ellipse 81" transform="translate(286.954 175.725)"/>
                </g>
            </g>
        </g>
        <g id="_07" data-name="7" transform="translate(-1499.53 -8.602)">
            <path id="Rectangle_1119" d="M0 0h5.064v40.612H0z" class="cls-5" data-name="Rectangle 1119" transform="rotate(-.613 13131.736 -174132.901)"/>
            <path id="Path_2402" d="M1896 99.961s.051 19.842-17.609 26.664a31.651 31.651 0 0 1-4.85 1.428l.516-4.6a17.22 17.22 0 0 0 7.449-2.357c4.365-2.51 9.285-7.695 10.688-18.395 0 0 .353-2.267-2.479-2.427l-6.349.068-.164-3.518 10.248-.11a3.408 3.408 0 0 1 2.55 3.247z" class="cls-5" data-name="Path 2402"/>
            <path id="Path_2403" d="M1874.057 123.457a17.22 17.22 0 0 0 7.449-2.357 31.8 31.8 0 0 1-3.115 5.525 31.651 31.651 0 0 1-4.85 1.428z" class="cls-6" data-name="Path 2403"/>
            <path id="Path_2404" d="M1886.642 96.791a95.213 95.213 0 0 1-.26 3.523l-3.016.032-.164-3.518z" class="cls-6" data-name="Path 2404"/>
            <path id="Path_2405" d="M1859.52 128.2a30.871 30.871 0 0 1-6.122-1.807c-16.578-6.9-16.933-25.8-16.933-25.8a3.407 3.407 0 0 1 2.48-3.3l10.248-.11-.089 3.521-6.349.068c-2.828.22-2.426 2.479-2.426 2.479 1.481 9.691 5.77 14.771 9.854 17.43a17.609 17.609 0 0 0 8.723 2.929z" class="cls-5" data-name="Path 2405"/>
            <path id="Path_2406" d="M1849.193 97.192l-.089 3.521-3.9.042a96.371 96.371 0 0 1-.335-3.517z" class="cls-6" data-name="Path 2406"/>
            <path id="Path_2407" d="M1859.52 128.2a30.871 30.871 0 0 1-6.122-1.807 33.32 33.32 0 0 1-3.215-5.706 17.609 17.609 0 0 0 8.723 2.929z" class="cls-6" data-name="Path 2407"/>
            <path id="Path_2408" d="M1869.975 132.775l-.627.547a4.181 4.181 0 0 1-2.844 1.029l-.642-.014a4.189 4.189 0 0 1-2.488-.891l-.753-.592c-16.213-7.937-16.1-41.23-16.1-41.23-.023-2.168 2.516-2.762 2.516-2.762l33.57-.359s2.552.539 2.576 2.708c.003 0 .831 33.283-15.208 41.564z" class="cls-5" data-name="Path 2408"/>
            <path id="Path_2409" d="M1874.249 119.605c.072-2.037-.37-2.481-2.407-2.421 2.037-.06 2.511-.531 2.583-2.568-.072 2.037.369 2.481 2.406 2.421-2.037.063-2.51.531-2.582 2.568z" class="cls-5" data-name="Path 2409"/>
            <path id="Path_2410" d="M1871.786 120.177c.03-.84-.152-1.023-.992-1 .84-.025 1.035-.219 1.064-1.059-.029.84.153 1.023.993 1-.84.025-1.035.219-1.065 1.059z" class="cls-5" data-name="Path 2410"/>
            <rect id="Rectangle_1120" width="42.477" height="7.733" class="cls-5" data-name="Rectangle 1120" rx="2.327" transform="translate(1844.566 86.796)"/>
            <path id="Rectangle_1121" d="M0 0h32.414v17.246H0z" class="cls-5" data-name="Rectangle 1121" transform="rotate(-.613 16208.642 -172871.146)"/>
            <path id="Rectangle_1122" d="M0 0h36.779v2.771H0z" class="cls-5" data-name="Rectangle 1122" transform="rotate(-.613 17562.712 -172674.44)"/>
            <path id="Rectangle_1123" d="M0 0h20.256v8.28H0z" class="cls-5" data-name="Rectangle 1123" transform="rotate(-.613 16554.352 -173441.237)"/>
            <path id="Rectangle_1124" d="M0 0h16.218v1.984H0z" class="cls-5" data-name="Rectangle 1124" transform="rotate(-.613 16019.2 -173626.179)"/>
            <path id="Path_2411" d="M1863.957 151.124s.721 10.257-4.607 10.314l7.244-.078-.11-10.264z" class="cls-5" data-name="Path 2411"/>
            <path id="Path_2412" d="M1869.016 151.07s-.5 10.27 4.831 10.213l-7.253.077-.11-10.264z" class="cls-5" data-name="Path 2412"/>
            <ellipse id="Ellipse_200" cx="2.03" cy="9.004" class="cls-5" data-name="Ellipse 200" rx="2.03" ry="9.004" transform="rotate(-77.3 991.661 -1124.405)"/>
            <path id="Path_2413" d="M1876.81 87.9c.069.995.309 1.2 1.3 1.137-.995.067-1.2.3-1.134 1.3-.069-1-.309-1.2-1.3-1.138.995-.067 1.203-.306 1.134-1.299z" class="cls-5" data-name="Path 2413"/>
            <path id="Path_2414" d="M1858.828 94.377s-6.267 27.3 9.387 39.455c0 0-14.4-6.722-16.17-27.441 0 0-.489-7.191.737-11.95z" class="cls-5" data-name="Path 2414"/>
        </g>
    </g>
</svg>
