<svg xmlns="http://www.w3.org/2000/svg" width="105.92" height="25" viewBox="0 0 105.92 25">
    <defs>
        <style>
            .cls-1{fill:none}.cls-2{clip-path:url(#clip-path)}.cls-3{fill:#6297f6}.cls-4{fill:#fff;font-size:12px;font-family:Roboto-Bold,Roboto;font-weight:700}.cls-5,.cls-6{fill:#231f20;fill-rule:evenodd}.cls-6{fill:#6d6e70}
        </style>
        <clipPath id="clip-path">
            <path d="M0 0h105.92v25H0z" class="cls-1"/>
        </clipPath>
    </defs>
    <g id="Component_1" class="cls-2" data-name="Component 1">
        <rect id="Rectangle_828" width="105.92" height="25" class="cls-3" data-name="Rectangle 828" rx="12.5"/>
        <g id="Group_2055" data-name="Group 2055" transform="translate(39.563 3)">
            <text id="Confident" class="cls-4" transform="translate(26 13)">
                <tspan x="-26.341" y="0">Confident</tspan>
            </text>
        </g>
        <g id="Group_3464" data-name="Group 3464" transform="translate(6.795 6.188)">
            <path id="Path_579" d="M71.3 257.869c-3.572-.076-12.463-1.216-12.463-1.216-.185 4.281 8.271 10.269 12.121 3.952l.426-.7c.59 0 1.647-.058 2.285-.1l.486.8c3.85 6.317 12.306.329 12.121-3.952 0 0-8.892 1.14-12.463 1.216h-.257l-.934.015h-.132z" class="cls-5" data-name="Path 579" transform="translate(-58.832 -256.653)"/>
            <g id="Group_1546" data-name="Group 1546" transform="translate(6.553 9.652)">
                <path id="Path_580" d="M78.847 286.135c2.117 1.963 5.973 2.811 8.815 2.66-.774 1.647-8.395.487-8.815-2.66z" class="cls-5" data-name="Path 580" transform="translate(-78.847 -286.135)"/>
            </g>
            <path id="Path_581" d="M122.027 263.957c.057-.095 1.145-3.766 1.145-3.766l4.27-.6c-1.796 4.609-5.596 4.668-5.415 4.366z" class="cls-6" data-name="Path 581" transform="translate(-101.334 -258.626)"/>
            <g id="Group_1547" data-name="Group 1547" transform="translate(5.333 8.047)">
                <path id="Path_582" d="M78.243 281.547c-1.742-.44-2.542.561-3.122 1.83.327-1.786 1.536-2.656 3.122-1.83z" class="cls-5" data-name="Path 582" transform="translate(-75.121 -281.233)"/>
            </g>
        </g>
    </g>
</svg>
