<svg xmlns="http://www.w3.org/2000/svg" width="169.422" height="148.613" viewBox="0 0 169.422 148.613">
    <defs>
        <style>
            .cls-1,.cls-3,.cls-4{fill:none;stroke-miterlimit:10}.cls-1,.cls-5{stroke:#bf263f}.cls-1{stroke-width:1.426px;stroke-dasharray:2.341 4.681;opacity:.512}.cls-2{fill:#ed4d67;opacity:.1}.cls-3,.cls-4{stroke:#f7657d;stroke-width:1.17px}.cls-3{opacity:.18}.cls-4{opacity:.14}.cls-5{fill:#fff;stroke-linecap:round;stroke-linejoin:round;stroke-width:1.9px}
        </style>
    </defs>
    <g id="_02" data-name="2" transform="translate(-710.811 -57.284)">
        <g id="Group_2358" data-name="Group 2358">
            <g id="Group_2354" data-name="Group 2354">
                <g id="Group_2352" data-name="Group 2352">
                    <path id="Path_826" d="M730.267 91.923c10.873 33.834 16.16 56.833 6.283 89.336-10.608 34.909 61.972 26.781 89.338 6.284 26.017-19.489 70.688-44.273-6.283-89.337-31.954-18.706-100.662-41.52-89.338-6.283z" class="cls-1" data-name="Path 826"/>
                    <path id="Path_777" d="M861.23 83.622c-15.261 34.576-23.409 58.314-16.577 93.791 7.339 38.1-68.522 21.435-95.187-3.286-25.353-23.5-69.842-54.685 16.577-93.79 35.871-16.237 111.076-32.724 95.187 3.285z" class="cls-2" data-name="Path 777"/>
                </g>
                <g id="Group_2356" data-name="Group 2356">
                    <circle id="Ellipse_80" cx="3.297" cy="3.297" r="3.297" class="cls-3" data-name="Ellipse 80" transform="translate(855.371 87.949)"/>
                    <path id="Path_823" d="M863.1 123.588l5.172-2.714.7-5.8 4.18 4.08 5.735-1.129-2.587 5.235 2.845 5.1-5.779-.845-3.973 4.283-.983-5.757z" class="cls-4" data-name="Path 823"/>
                    <path id="Path_828" d="M714.378 58.376l3.389 1.9 3.495-1.713-.762 3.812 2.708 2.788-3.86.454-1.816 3.437-1.623-3.531-3.83-.663 2.857-2.635z" class="cls-4" data-name="Path 828"/>
                    <circle id="Ellipse_81" cx="5.638" cy="5.638" r="5.638" class="cls-3" data-name="Ellipse 81" transform="translate(716.097 175.725)"/>
                </g>
            </g>
        </g>
        <g id="Group_3577" data-name="Group 3577">
            <g id="Group_3557" data-name="Group 3557">
                <g id="Group_3554" data-name="Group 3554">
                    <g id="Group_3550" data-name="Group 3550">
                        <g id="Group_3547" data-name="Group 3547">
                            <path id="Path_2312" d="M825.643 130.175v6.025a2.793 2.793 0 0 1-2.789-2.8v-.423a2.85 2.85 0 0 1 .05-.567 2.811 2.811 0 0 1 .764-1.408 2.777 2.777 0 0 1 1.975-.827z" class="cls-5" data-name="Path 2312"/>
                        </g>
                        <g id="Group_3548" data-name="Group 3548">
                            <path id="Path_2313" d="M853.961 132.971v.423a2.791 2.791 0 0 1-2.8 2.8v-6.022a2.792 2.792 0 0 1 1.982.821 2.634 2.634 0 0 1 .353.435v.006a2.654 2.654 0 0 1 .392.922.133.133 0 0 1 .018.045 3.271 3.271 0 0 1 .055.57z" class="cls-5" data-name="Path 2313"/>
                        </g>
                        <g id="Group_3549" data-name="Group 3549">
                            <path id="Path_2314" d="M851.152 136.2v-3.579c-.082-2.821 0-7.971 0-9.4-4.057-1.805-7.6-7.668-7.6-7.668-3.029 3.711-6.033 7.257-11.871 10.091a5.374 5.374 0 0 1 1.824.461l-1.824-.461h-.007a40.4 40.4 0 0 1-6.033 2.329v9.252a11.994 11.994 0 0 0 10.073 11.833h5.376a1.418 1.418 0 0 0 .158-.031h.013a11.978 11.978 0 0 0 9.9-11.8V136.2zm-18.964-3.308a1.12 1.12 0 1 1 1.123-1.116 1.115 1.115 0 0 1-1.123 1.113zm14.08 0a1.12 1.12 0 0 1 0-2.24 1.12 1.12 0 1 1 0 2.24zm-1.47-6.784a4.335 4.335 0 0 1 3.988 0z" class="cls-5" data-name="Path 2314"/>
                            <path id="Path_2315" d="M853.894 132.41v-.051" class="cls-5" data-name="Path 2315"/>
                        </g>
                    </g>
                    <g id="Group_3553" data-name="Group 3553">
                        <g id="Group_3551" data-name="Group 3551">
                            <path id="Path_2316" d="M841.25 151.784h7.479c.473 0 .947.019 1.42.063.517.045 1.016.114 1.521.209v.006a14.235 14.235 0 0 1 1.559.379 15.731 15.731 0 0 1 8.4 6.053 15.6 15.6 0 0 1 2.878 9.068v4.828H812.63v-4.828a15.766 15.766 0 0 1 7.857-13.638 15.728 15.728 0 0 1 6.507-2.077c.183-.018.372-.031.555-.037.278-.019.568-.026.858-.026h12.843z" class="cls-5" data-name="Path 2316"/>
                        </g>
                        <g id="Group_3552" data-name="Group 3552">
                            <path id="Line_372" d="M.02.037L0 0" class="cls-5" data-name="Line 372" transform="translate(826.978 151.81)"/>
                            <path id="Line_373" d="M.018 0L0 .037" class="cls-5" data-name="Line 373" transform="translate(850.146 151.81)"/>
                        </g>
                    </g>
                </g>
                <path id="Path_2317" d="M841.263 149.027v7.61c-2.24.89-4.405.765-5.377 0v-7.579h5.206a1.418 1.418 0 0 0 .158-.031z" class="cls-5" data-name="Path 2317"/>
                <path id="Path_2318" d="M837.056 131.767v4.755a1.517 1.517 0 0 0 3.035 0v-4.755" class="cls-5" data-name="Path 2318"/>
                <g id="Group_3555" data-name="Group 3555">
                    <path id="Path_2319" d="M833.311 131.773a1.12 1.12 0 1 1-1.123-1.124 1.12 1.12 0 0 1 1.123 1.124z" class="cls-5" data-name="Path 2319"/>
                    <path id="Line_374" d="M0 0h4.691" class="cls-5" data-name="Line 374" transform="translate(829.165 130.646)"/>
                </g>
                <g id="Group_3556" data-name="Group 3556">
                    <path id="Path_2320" d="M847.391 131.773a1.12 1.12 0 1 1-1.123-1.124 1.121 1.121 0 0 1 1.123 1.124z" class="cls-5" data-name="Path 2320"/>
                    <path id="Line_375" d="M0 0h4.692" class="cls-5" data-name="Line 375" transform="translate(843.24 130.646)"/>
                </g>
                <path id="Path_2321" d="M848.786 126.105H844.8a4.335 4.335 0 0 1 3.986 0z" class="cls-5" data-name="Path 2321"/>
                <path id="Path_2322" d="M833.507 126.105l-1.824-.461a5.374 5.374 0 0 1 1.824.461z" class="cls-5" data-name="Path 2322"/>
                <path id="Path_2323" d="M841.193 142.52l-5.075.016-.921 1.239" class="cls-5" data-name="Path 2323"/>
                <path id="Path_2324" d="M826.293 115a6.668 6.668 0 0 1-2.486-2.121" class="cls-5" data-name="Path 2324"/>
                <path id="Path_2325" d="M859.382 119.4a10.4 10.4 0 0 1-4.058 0s-1.855 10.949-1.824 12.035a2.634 2.634 0 0 0-.353-.435 2.792 2.792 0 0 0-1.982-.821v6.021h-.013v-3.579c-.082-2.821 0-7.971 0-9.4-4.057-1.805-7.6-7.668-7.6-7.668-3.029 3.711-6.033 7.257-11.871 10.091h-.007a40.4 40.4 0 0 1-6.033 2.329v2.2a2.777 2.777 0 0 0-1.975.821s-.814-2.367-2.152-8.3c0 0-5.314-1.414-7.258-5.219 0 0 7.062-1.238 9.549-4.595-2.821-3.837-2.467-10.268-2.467-10.268a12.17 12.17 0 0 0 9.6 1.369 16.426 16.426 0 0 0 2.563-5.352s2.247 3.643 5.068 5.069c0 0 5.421-3.194 5.736-5.069 0 0 1.023 4.122 6.387 5.617s6.481 10.574 8.69 15.154z" class="cls-5" data-name="Path 2325"/>
                <path id="Path_2326" d="M830.944 103.984c-.94 1.44-1.779 2.506-1.779 2.614" class="cls-5" data-name="Path 2326"/>
            </g>
            <g id="Group_3562" data-name="Group 3562">
                <g id="Group_3561" data-name="Group 3561">
                    <g id="Group_3559" data-name="Group 3559">
                        <path id="Path_2327" d="M773.354 167.836v4.827h-7.491c-.139-4.871-3.9-13.322-4.6-20.169.278.063.549.139.821.221a15.8 15.8 0 0 1 11.271 15.121z" class="cls-5" data-name="Path 2327"/>
                        <path id="Path_2328" d="M733.588 152.487c-.884 6.432-3.982 15.3-4.431 20.176h-7.673v-4.827a15.789 15.789 0 0 1 11.271-15.121c.272-.082.545-.158.833-.228z" class="cls-5" data-name="Path 2328"/>
                        <path id="Path_2329" d="M765.863 172.663h-36.706c.449-4.877 3.547-13.744 4.431-20.176a15.42 15.42 0 0 1 1.073-.214 16.042 16.042 0 0 1 2.6-.215h.84a10.432 10.432 0 1 0 18.756 0h.719a15.517 15.517 0 0 1 3.225.335c.152.032.31.063.461.1.701 6.848 4.462 15.299 4.601 20.17z" class="cls-5" data-name="Path 2329"/>
                        <path id="Path_2330" d="M757.911 156.634a10.432 10.432 0 1 1-19.81-4.576h6.626v-2.726a11.41 11.41 0 0 0 1.925.158h1.54a11.308 11.308 0 0 0 1.912-.158v2.726h6.753a10.4 10.4 0 0 1 1.054 4.576z" class="cls-5" data-name="Path 2330"/>
                        <g id="Group_3558" data-name="Group 3558">
                            <path id="Line_376" d="M0 3.591V0" class="cls-5" data-name="Line 376" transform="translate(744.725 152.055)"/>
                            <path id="Line_377" d="M0 3.591V0" class="cls-5" data-name="Line 377" transform="translate(750.102 152.055)"/>
                        </g>
                    </g>
                    <g id="Group_3560" data-name="Group 3560">
                        <path id="Path_2331" d="M760.17 130.449v6.021h.013" class="cls-5" data-name="Path 2331"/>
                        <path id="Path_2332" d="M760.183 130.449v7.05a11.91 11.91 0 0 1-.492 3.4.451.451 0 0 1-.038.12 11.923 11.923 0 0 1-1.294 2.84h-.006c-.057.1-.127.2-.189.3a12.01 12.01 0 0 1-8.06 5.169 11.308 11.308 0 0 1-1.912.158h-1.54a11.41 11.41 0 0 1-1.925-.158 12 12 0 0 1-7.958-5.049 6.477 6.477 0 0 1-.3-.467 11.8 11.8 0 0 1-1.174-2.468 1.474 1.474 0 0 1-.05-.164 11.845 11.845 0 0 1-.581-3.685v-7.05a13.976 13.976 0 0 1 4.386-5.875h.007a21.858 21.858 0 0 1 3.363-2.323c6.393-3.616 8.665-4.544 8.975-6.3a11.743 11.743 0 0 0 4.828 6.746 10.022 10.022 0 0 1 2.2 2.057 8.192 8.192 0 0 1 1.76 5.699z" class="cls-5" data-name="Path 2332"/>
                    </g>
                    <path id="Path_2333" d="M734.661 130.449v6.021a2.8 2.8 0 0 1-2.8-2.8v-.423a2.79 2.79 0 0 1 .057-.568 2.81 2.81 0 0 1 2.739-2.228z" class="cls-5" data-name="Path 2333"/>
                    <path id="Path_2334" d="M762.966 133.245v.423a2.8 2.8 0 0 1-2.783 2.8v-6.021a2.811 2.811 0 0 1 1.767.638 2.606 2.606 0 0 1 .2.183 2.745 2.745 0 0 1 .763 1.413 2.774 2.774 0 0 1 .053.564z" class="cls-5" data-name="Path 2334"/>
                </g>
                <path id="Path_2335" d="M774.427 134.949s-1.648 10.672-16.068 8.911a11.923 11.923 0 0 0 1.294-2.84.451.451 0 0 0 .038-.12 11.91 11.91 0 0 0 .492-3.4v-1.03a2.8 2.8 0 0 0 2.783-2.8v-.423a2.774 2.774 0 0 0-.057-.562 2.745 2.745 0 0 0-.763-1.413 2.606 2.606 0 0 0-.2-.183 2.811 2.811 0 0 0-1.767-.638 8.192 8.192 0 0 0-1.761-5.693 10.022 10.022 0 0 0-2.2-2.057 11.743 11.743 0 0 1-4.828-6.746c-.31 1.754-2.582 2.682-8.975 6.3a21.858 21.858 0 0 0-3.363 2.323h-.007a13.976 13.976 0 0 0-4.386 5.875 2.789 2.789 0 0 0-2.8 2.8v.423a2.8 2.8 0 0 0 2.8 2.8v1.024a11.845 11.845 0 0 0 .581 3.685 1.474 1.474 0 0 0 .05.164 11.8 11.8 0 0 0 1.174 2.468c-15.342.77-16.264-8.671-16.264-8.671 6.053-1.686 8.015-8.5 8.1-12.149.05-2.215 0-7.617 0-7.617a15.775 15.775 0 0 1 15.783-15.78h6.671a15.775 15.775 0 0 1 15.778 15.778s-.064 5.4 0 7.617a13.1 13.1 0 0 0 7.895 11.954z" class="cls-5" data-name="Path 2335"/>
                <path id="Line_378" d="M.007 0H0" class="cls-5" data-name="Line 378" transform="translate(736.466 143.816)"/>
                <path id="Path_2336" d="M737.046 129.546c.681 2.353 5.018 3.1 6.566 0" class="cls-5" data-name="Path 2336"/>
                <path id="Path_2337" d="M750.889 129.546c.682 2.353 5.018 3.1 6.567 0" class="cls-5" data-name="Path 2337"/>
                <path id="Path_2338" d="M746.715 133.7v4.756a1.517 1.517 0 0 0 3.035 0v-1.619" class="cls-5" data-name="Path 2338"/>
                <path id="Path_2339" d="M744.065 144.06s4.127-1.826 7.841 0" class="cls-5" data-name="Path 2339"/>
                <path id="Path_2340" d="M746.715 111.424c0 5.48-15.045 10.295-14.3 16.123" class="cls-5" data-name="Path 2340"/>
                <path id="Path_2341" d="M731.864 122.3s.358-3.3 6.672-8.936c2.737-2.74 3.982-4.662 3.982-7.479" class="cls-5" data-name="Path 2341"/>
                <path id="Path_2342" d="M743.61 125.142a24.274 24.274 0 0 0-4.556-.568" class="cls-5" data-name="Path 2342"/>
                <path id="Path_2343" d="M751.524 125.142a17.69 17.69 0 0 1 6.9-.386" class="cls-5" data-name="Path 2343"/>
            </g>
            <g id="Group_3576" data-name="Group 3576">
                <g id="Group_3566" data-name="Group 3566">
                    <g id="Group_3563" data-name="Group 3563">
                        <path id="Path_2344" d="M778.979 127.172v7.1a3.3 3.3 0 0 1-3.3-3.307v-.5a3.3 3.3 0 0 1 3.3-3.3z" class="cls-5" data-name="Path 2344"/>
                    </g>
                    <g id="Group_3564" data-name="Group 3564">
                        <path id="Path_2345" d="M812.4 130.47v.5a3.3 3.3 0 0 1-3.3 3.307v-7.1a3.294 3.294 0 0 1 2.339.968 3.257 3.257 0 0 1 .879 1.608.151.151 0 0 1 .015.053 3.343 3.343 0 0 1 .067.664z" class="cls-5" data-name="Path 2345"/>
                    </g>
                    <g id="Group_3565" data-name="Group 3565">
                        <path id="Path_2346" d="M809.081 134.276v-4.222c-.1-3.329 0-9.406 0-11.089-3.7-8.914-7.433-12.638-7.433-12.638s-9.614 2.286-14.321 4.908c-4.5 2.278-7.462 4.409-8.043 7.73a13.917 13.917 0 0 0-.3 2.919v13.607a14.155 14.155 0 0 0 11.879 13.963h6.337a1.587 1.587 0 0 0 .194-.037 14.135 14.135 0 0 0 11.7-13.926v-1.215zm-22.051-7.208a1.322 1.322 0 1 1 1.325-1.319 1.317 1.317 0 0 1-1.325 1.319zm14.589 0a1.322 1.322 0 1 1 1.318-1.319 1.319 1.319 0 0 1-1.318 1.319z" class="cls-5" data-name="Path 2346"/>
                        <path id="Path_2347" d="M811.852 106.223a13.368 13.368 0 0 0-1.714-4.55c0-.008-.007-.015-.007-.023-6.576-10.3-8.884-12.5-8.884-12.5l-4.848 4.61a21.012 21.012 0 0 0-.656-4.61c-.6.983-9.078 7.752-9.078 7.752l-.618-3.038a14.913 14.913 0 0 1-4.9 4.707 9.132 9.132 0 0 0-5.4 9.42V129.8a3.31 3.31 0 0 1 3.232-2.629v-5.288a13.917 13.917 0 0 1 .3-2.919c.581-3.321 3.545-5.452 8.043-7.73 4.707-2.622 14.321-4.908 14.321-4.908s3.732 3.724 7.433 12.638c0 1.683-.1 7.76 0 11.089v-2.882h.014a3.294 3.294 0 0 1 2.339.968 3.257 3.257 0 0 1 .879 1.608c.035-1.153.475-18.624-.456-23.524zm-7.187-1.013a48.344 48.344 0 0 1 3.381 6.605z" class="cls-5" data-name="Path 2347"/>
                        <path id="Path_2348" d="M812.313 129.808v-.06" class="cls-5" data-name="Path 2348"/>
                    </g>
                </g>
                <g id="Group_3571" data-name="Group 3571">
                    <path id="Path_2349" d="M792.439 129.83v5.613a1.79 1.79 0 0 0 3.581 0v-5.613" class="cls-5" data-name="Path 2349"/>
                    <path id="Path_2350" d="M790.549 141.06s3.169 3.338 7.364 0" class="cls-5" data-name="Path 2350"/>
                    <g id="Group_3569" data-name="Group 3569">
                        <g id="Group_3567" data-name="Group 3567">
                            <path id="Path_2351" d="M788.355 125.749a1.322 1.322 0 1 1-1.325-1.325 1.323 1.323 0 0 1 1.325 1.325z" class="cls-5" data-name="Path 2351"/>
                            <path id="Path_2352" d="M783.477 125.756s2-2.643 6.738-.586" class="cls-5" data-name="Path 2352"/>
                        </g>
                        <g id="Group_3568" data-name="Group 3568">
                            <path id="Path_2353" d="M802.937 125.749a1.322 1.322 0 1 1-1.318-1.325 1.317 1.317 0 0 1 1.318 1.325z" class="cls-5" data-name="Path 2353"/>
                            <path id="Path_2354" d="M798.245 125.756s2-2.643 6.74-.586" class="cls-5" data-name="Path 2354"/>
                        </g>
                    </g>
                    <g id="Group_3570" data-name="Group 3570">
                        <path id="Line_379" d="M0 0l3.37 1.621" class="cls-5" data-name="Line 379" transform="translate(801.906 117.742)"/>
                        <path id="Path_2355" d="M783.184 120.566a23.862 23.862 0 0 1 3.349-2.014" class="cls-5" data-name="Path 2355"/>
                    </g>
                </g>
                <path id="Path_2356" d="M778.707 108.1s-.207-3.478 1.7-4.886a17.117 17.117 0 0 0 3.48-3.189" class="cls-5" data-name="Path 2356"/>
                <g id="Group_3575" data-name="Group 3575">
                    <g id="Group_3573" data-name="Group 3573">
                        <path id="Path_2357" d="M807.89 152.746l-10.873 24.24h-5.571l-10.873-24.24c.215-.022.432-.038.648-.045.334-.022.677-.029 1.019-.029h8.811v-3.218h6.149a1.587 1.587 0 0 0 .194-.037v3.255h8.817c.569 0 1.127.022 1.679.074z" class="cls-5" data-name="Path 2357"/>
                        <path id="Path_2358" d="M791.446 176.986h-4.737l-8.148-8.839 1.989-2.585-7.663-10.362a18.54 18.54 0 0 1 7.686-2.449z" class="cls-5" data-name="Path 2358"/>
                        <path id="Path_2359" d="M786.709 176.986h-23.087v-5.7a18.628 18.628 0 0 1 9.265-16.095l7.663 10.367-1.989 2.585z" class="cls-5" data-name="Path 2359"/>
                        <path id="Path_2360" d="M824.832 171.29v5.7h-23.176l8.088-8.839-2-2.585 7.745-10.41a18.634 18.634 0 0 1 9.339 16.138z" class="cls-5" data-name="Path 2360"/>
                        <path id="Path_2361" d="M807.748 165.562l2 2.585-8.088 8.839h-4.639l10.873-24.24a17.559 17.559 0 0 1 1.794.246V153a17.082 17.082 0 0 1 1.847.447 18.333 18.333 0 0 1 3.962 1.706z" class="cls-5" data-name="Path 2361"/>
                        <g id="Group_3572" data-name="Group 3572">
                            <path id="Line_380" d="M0 5.726V0" class="cls-5" data-name="Line 380" transform="translate(791.061 152.672)"/>
                            <path id="Line_381" d="M0 5.726V0" class="cls-5" data-name="Line 381" transform="translate(797.407 152.672)"/>
                        </g>
                    </g>
                    <g id="Group_3574" data-name="Group 3574">
                        <path id="Line_382" d="M.023.045L0 0" class="cls-5" data-name="Line 382" transform="translate(780.55 152.701)"/>
                        <path id="Line_383" d="M.022 0L0 .045" class="cls-5" data-name="Line 383" transform="translate(807.89 152.701)"/>
                    </g>
                </g>
            </g>
        </g>
    </g>
</svg>
