<svg xmlns="http://www.w3.org/2000/svg" width="110.984" height="97.261" viewBox="0 0 110.984 97.261">
    <defs>
        <style>
            .cls-1,.cls-3,.cls-4{fill:none}.cls-1,.cls-6,.cls-8{stroke:#bf263f}.cls-1,.cls-3,.cls-4,.cls-6,.cls-7,.cls-8{stroke-miterlimit:10}.cls-1{stroke-width:1.426px;stroke-dasharray:2.341 4.681;opacity:.512}.cls-2{fill:#ed4d67;opacity:.1}.cls-3,.cls-4{stroke:#f7657d;stroke-width:1.17px}.cls-3{opacity:.18}.cls-4{opacity:.14}.cls-5,.cls-7,.cls-8{fill:#bf263f}.cls-5{stroke:#707070;opacity:.39}.cls-5,.cls-6,.cls-7,.cls-8{stroke-width:.9px}.cls-6{fill:#fffdfd}.cls-7{stroke:#fffdfd;opacity:.37}
        </style>
    </defs>
    <g id="_01" data-name="1" transform="translate(-281.667 -57.284)">
        <g id="Group_2358" data-name="Group 2358" transform="translate(282.936 58.376)">
            <g id="Group_2354" data-name="Group 2354">
                <g id="Group_2352" data-name="Group 2352" transform="translate(2.042 2.414)">
                    <path id="Path_826" d="M300.688 85.475c7.07 22 10.507 36.953 4.085 58.087-6.9 22.7 40.3 17.413 58.088 4.086 16.916-12.672 45.962-28.787-4.085-58.088C338 77.4 293.325 62.564 300.688 85.475z" class="cls-1" data-name="Path 826" transform="translate(-290.904 -66.076)"/>
                    <path id="Path_777" d="M381.014 76.09c-9.923 22.482-15.221 37.916-10.779 60.984 4.772 24.774-44.553 13.937-61.891-2.137-16.485-15.279-45.412-35.557 10.778-60.983 23.324-10.554 72.223-21.278 61.892 2.136z" class="cls-2" data-name="Path 777" transform="translate(-286.076 -62.088)"/>
                </g>
                <g id="Group_2356" data-name="Group 2356">
                    <circle id="Ellipse_80" cx="2.144" cy="2.144" r="2.144" class="cls-3" data-name="Ellipse 80" transform="translate(93.169 19.228)"/>
                    <path id="Path_823" d="M433.955 120.61l3.363-1.765.457-3.771 2.717 2.653 3.729-.734-1.683 3.4 1.85 3.316-3.758-.549-2.583 2.785-.639-3.743z" class="cls-4" data-name="Path 823" transform="translate(-335.761 -78.209)"/>
                    <path id="Path_828" d="M284.431 58.376l2.2 1.237 2.272-1.114-.5 2.479 1.761 1.813-2.509.3-1.181 2.235-1.055-2.3-2.49-.431 1.858-1.713z" class="cls-4" data-name="Path 828" transform="translate(-282.936 -58.376)"/>
                    <circle id="Ellipse_81" cx="3.666" cy="3.666" r="3.666" class="cls-3" data-name="Ellipse 81" transform="translate(2.613 76.301)"/>
                </g>
            </g>
        </g>
        <g id="Group_5541" data-name="Group 5541" transform="translate(305.462 76.75)">
            <path id="Path_3024" d="M399.462 1373.368c0-.745-14.118-1.35-31.533-1.35s-31.533.6-31.533 1.35 14.118 1.349 31.533 1.349 31.533-.604 31.533-1.349z" class="cls-5" data-name="Path 3024" transform="translate(-336.396 -1308.564)"/>
            <path id="Path_3025" d="M395.836 1367.3h-18.219l2.372-6.654h13.475z" class="cls-6" data-name="Path 3025" transform="translate(-355.024 -1303.424)"/>
            <path id="Path_3026" d="M394.65 1360.644h-13.475l-.921 2.585h15.318z" class="cls-6" data-name="Path 3026" transform="translate(-356.215 -1303.424)"/>
            <path id="Rectangle_1275" d="M1.681 0h18.56a1.681 1.681 0 0 1 1.681 1.681H0A1.681 1.681 0 0 1 1.681 0z" class="cls-6" data-name="Rectangle 1275" transform="translate(20.742 63.103)"/>
            <g id="Group_5538" data-name="Group 5538" transform="translate(.938 13.871)">
                <path id="Path_3027" d="M399.387 1283.338a1.784 1.784 0 0 0-1.784-1.784h-57.711a1.784 1.784 0 0 0-1.783 1.784v37.048h61.278z" class="cls-6" data-name="Path 3027" transform="translate(-338.108 -1281.554)"/>
                <path id="Path_3028" d="M338.108 1352.4v3.623a1.783 1.783 0 0 0 1.783 1.783H397.6a1.784 1.784 0 0 0 1.784-1.783v-3.623z" class="cls-6" data-name="Path 3028" transform="translate(-338.108 -1313.57)"/>
            </g>
            <path id="Rectangle_1276" d="M0 0h55.572v33.345H0z" class="cls-6" data-name="Rectangle 1276" transform="translate(3.727 16.43)"/>
            <path id="Rectangle_1277" d="M0 0h54.093v32.457H0z" class="cls-6" data-name="Rectangle 1277" transform="translate(4.467 16.874)"/>
            <path id="Path_3029" d="M407.517 1283.338a1.784 1.784 0 0 0-1.784-1.784H356.1l51.417 36.455z" class="cls-7" data-name="Path 3029" transform="translate(-345.3 -1267.684)"/>
            <g id="Group_5540" data-name="Group 5540" transform="translate(10.278)">
                <path id="Rectangle_1278" d="M0 0h41.967v43.192H0z" class="cls-6" data-name="Rectangle 1278" transform="translate(0 6.581)"/>
                <path id="Rectangle_1279" d="M3.385 0h35.2a3.385 3.385 0 0 1 3.385 3.385v4.852H0V3.385A3.385 3.385 0 0 1 3.385 0z" class="cls-6" data-name="Rectangle 1279"/>
                <path id="Rectangle_1280" d="M0 0h21.176v3.45H0z" class="cls-6" data-name="Rectangle 1280" transform="translate(16.88 2.427)"/>
                <g id="Group_5539" data-name="Group 5539" transform="translate(3.139 11.116)">
                    <path id="Rectangle_1281" d="M0 0h35.569v3.998H0z" class="cls-6" data-name="Rectangle 1281"/>
                    <path id="Rectangle_1282" d="M0 0h35.569v3.998H0z" class="cls-6" data-name="Rectangle 1282" transform="translate(0 6.367)"/>
                    <path id="Rectangle_1283" d="M0 0h35.569v3.998H0z" class="cls-6" data-name="Rectangle 1283" transform="translate(0 11.878)"/>
                    <path id="Rectangle_1284" d="M0 0h35.569v3.998H0z" class="cls-6" data-name="Rectangle 1284" transform="translate(0 18.245)"/>
                    <path id="Rectangle_1286" d="M0 0h7.098v1.199H0z" class="cls-8" data-name="Rectangle 1286" transform="translate(27.543 33.976)"/>
                </g>
            </g>
            <circle id="Ellipse_204" cx=".853" cy=".853" r=".853" class="cls-6" data-name="Ellipse 204" transform="translate(31.021 54.621)"/>
        </g>
    </g>
</svg>
