<svg xmlns="http://www.w3.org/2000/svg" width="40" height="40" viewBox="0 0 40 40">
    <defs>
        <style>
            .cls-1{fill:none}.cls-2{clip-path:url(#clip-path)}.cls-3,.cls-6{fill:#f79c0d}.cls-4{fill:#fff}.cls-5,.cls-6{stroke:none}
        </style>
        <clipPath id="clip-path">
            <path d="M0 0h40v40H0z" class="cls-1"/>
        </clipPath>
    </defs>
    <g id="Component_1" class="cls-2" data-name="Component 1">
        <circle id="Ellipse_71" cx="20" cy="20" r="20" class="cls-3" data-name="Ellipse 71"/>
        <g id="Group_3421" data-name="Group 3421" transform="translate(-405 -410)">
            <g id="Path_2288" class="cls-4" data-name="Path 2288">
                <path d="M4.433 5.535c-.984 0-1.872-.242-2.639-.719-.77-.48-1.37-1.165-1.783-2.036C-.379 1.956-.586 1-.6-.063V-1.015c0-1.088.2-2.07.595-2.92.417-.897 1.03-1.601 1.821-2.094.785-.489 1.693-.737 2.701-.737 1.354 0 2.477.39 3.337 1.156.456.407.813.898 1.068 1.47v-2.488h4.526c1.39 0 2.504.339 3.314 1.007.421.347.742.766.96 1.252v-2.259h3.95l.244.648L23.87-.786l1.95-5.193.244-.649h3.944V5.397H26.273V2.525l-.855 2.23-.246.642H22.55l-.246-.642-.848-2.216v2.858H15.009l-.28-.538-1.731-3.324h-.335v3.862H8.921V2.94a4.247 4.247 0 0 1-1.084 1.452c-.873.76-2.018 1.144-3.404 1.144zM16.571.51l1.15 2.135V-.893c-.09.198-.2.385-.325.56-.229.32-.505.601-.825.842zM3.147-1.086v.884c0 .861.142 1.524.409 1.916.14.206.354.416.877.416.416 0 .727-.073.876-.207.072-.064.247-.281.329-.916L5.75.134H8.92v-1.45H5.738l-.102-.886c-.074-.649-.25-.878-.323-.947-.18-.17-.533-.205-.797-.205-.555 0-.786.213-.94.422-.273.371-.42 1.01-.429 1.846zm9.516-.777h.79c.331 0 .57-.064.71-.19.053-.046.163-.145.163-.47 0-.38-.114-.49-.151-.525-.111-.107-.353-.17-.682-.175h-.83v1.36z" class="cls-5" transform="translate(409.602 430.766)"/>
                <path d="M4.433 4.535c1.143 0 2.06-.3 2.748-.898.688-.6 1.083-1.434 1.184-2.503H6.63c-.092.716-.31 1.228-.654 1.535-.345.308-.859.461-1.543.461-.748 0-1.316-.284-1.704-.853-.388-.57-.582-1.396-.582-2.48v-.887c.01-1.07.217-1.881.624-2.434.406-.554.988-.83 1.745-.83.652 0 1.146.16 1.484.478.337.32.547.84.63 1.56h1.735c-.11-1.097-.503-1.946-1.177-2.548-.675-.601-1.566-.902-2.672-.902-.822 0-1.546.195-2.172.586-.627.39-1.108.945-1.443 1.666-.335.72-.503 1.554-.503 2.5v.936c.014.922.186 1.733.517 2.43.33.698.8 1.236 1.408 1.615.608.379 1.312.568 2.11.568m24.575-.138V-5.628h-2.252l-2.885 7.684-2.892-7.684h-2.258V4.397h1.735V1.092l-.172-4.413 2.954 7.718h1.246l2.96-7.725-.171 4.42v3.305h1.735m-11.527 0v-.09L15.23.129c.578-.243 1.03-.59 1.353-1.043.323-.452.485-1.013.485-1.683 0-.983-.314-1.733-.943-2.252-.629-.519-1.522-.778-2.678-.778H9.92V4.397h1.742V.535h1.942l2.01 3.862h1.866m-5.818-8.62h1.839c.606.009 1.061.16 1.366.454.306.294.458.71.458 1.246 0 .515-.165.92-.495 1.216-.331.296-.79.444-1.378.444h-1.79v-3.36M4.433 6.535c-1.174 0-2.24-.293-3.167-.87-.937-.583-1.663-1.41-2.159-2.456-.452-.955-.69-2.05-.708-3.257V-1.015c0-1.234.231-2.359.689-3.342.5-1.076 1.24-1.924 2.198-2.521.946-.589 2.033-.888 3.23-.888 1.317 0 2.458.319 3.405.948v-.81h5.526c1.282 0 2.38.258 3.274.769v-.769h5.643l.487 1.296 1.018 2.704 1.015-2.703.487-1.297h5.637V6.397H14.402l-.56-1.076-.179-.343v1.42H7.921V5.58c-.964.634-2.134.955-3.488.955zm-.065-5.407a2.009 2.009 0 0 0 .235-.004 2.33 2.33 0 0 0 .043-.245l.178-1.387-.181-1.58a2.383 2.383 0 0 0-.044-.264 1.729 1.729 0 0 0-.083-.002.654.654 0 0 0-.134.014c-.037.051-.226.353-.235 1.26v.878c0 .873.162 1.23.22 1.33z" class="cls-6" transform="translate(409.602 430.766)"/>
            </g>
        </g>
    </g>
</svg>
