<svg xmlns="http://www.w3.org/2000/svg" id="Tag_-_CRM" width="40" height="40" data-name="Tag - CRM" viewBox="0 0 40 40">
    <defs>
        <style>
            .cls-1,.cls-4{fill:none}.cls-2{fill:#f79c0d}.cls-3{clip-path:url(#clip-path)}.cls-4{stroke:#fff;stroke-linecap:round;stroke-miterlimit:10;stroke-width:1.5px}
        </style>
        <clipPath id="clip-path">
            <path d="M0 0h24.063v24H0z" class="cls-1"/>
        </clipPath>
    </defs>
    <circle id="Ellipse_71" cx="20" cy="20" r="20" class="cls-2" data-name="Ellipse 71"/>
    <g id="Users" class="cls-3" transform="translate(8 8)">
        <path id="Rectangle_936" d="M0 0h24v24H0z" class="cls-1" data-name="Rectangle 936" transform="translate(.063)"/>
        <g id="Group_1080" data-name="Group 1080" transform="translate(.764 .227)">
            <path id="Path_449" d="M1.986 21.3v-4.81a4.063 4.063 0 0 1 4.063-4.063h3.6a4.063 4.063 0 0 1 4.063 4.063v4.81" class="cls-4" data-name="Path 449" transform="translate(-2 -.522)"/>
            <circle id="Ellipse_48" cx="3.1" cy="3.1" r="3.1" class="cls-4" data-name="Ellipse 48" transform="translate(2.751 2.87)"/>
            <path id="Path_450" d="M15.623 12.432H18.6a3.359 3.359 0 0 1 3.36 3.358v3.971" class="cls-4" data-name="Path 450" transform="translate(-.206 -.523)"/>
            <circle id="Ellipse_49" cx="2.562" cy="2.562" r="2.562" class="cls-4" data-name="Ellipse 49" transform="translate(14.345 4.443)"/>
        </g>
    </g>
</svg>
