<svg xmlns="http://www.w3.org/2000/svg" width="169.422" height="148.613" viewBox="0 0 169.422 148.613">
    <defs>
        <style>
            .cls-1,.cls-3,.cls-4{fill:none;stroke-miterlimit:10}.cls-1{stroke:#bf263f;stroke-width:1.426px;stroke-dasharray:2.341 4.681;opacity:.512}.cls-2{fill:#ed4d67;opacity:.1}.cls-3,.cls-4{stroke:#f7657d;stroke-width:1.17px}.cls-3{opacity:.18}.cls-4{opacity:.14}.cls-5{fill:#bf263f}.cls-6{fill:#fff}
        </style>
    </defs>
    <g id="_01" data-name="1" transform="translate(-281.667 -57.284)">
        <g id="Group_2358" data-name="Group 2358">
            <g id="Group_2354" data-name="Group 2354">
                <g id="Group_2352" data-name="Group 2352">
                    <path id="Path_826" d="M301.124 91.923c10.873 33.834 16.16 56.833 6.283 89.336-10.607 34.909 61.973 26.781 89.338 6.284 26.017-19.489 70.688-44.273-6.283-89.337-31.954-18.706-100.662-41.52-89.338-6.283z" class="cls-1" data-name="Path 826"/>
                    <path id="Path_777" d="M432.088 83.622c-15.262 34.576-23.41 58.314-16.578 93.791 7.339 38.1-68.522 21.435-95.187-3.286-25.353-23.5-69.842-54.685 16.577-93.79 35.871-16.237 111.076-32.724 95.188 3.285z" class="cls-2" data-name="Path 777"/>
                </g>
                <g id="Group_2356" data-name="Group 2356">
                    <circle id="Ellipse_80" cx="3.297" cy="3.297" r="3.297" class="cls-3" data-name="Ellipse 80" transform="translate(426.228 87.949)"/>
                    <path id="Path_823" d="M433.955 123.588l5.172-2.714.7-5.8 4.179 4.08 5.735-1.129-2.589 5.235 2.845 5.1-5.779-.845-3.973 4.283-.983-5.757z" class="cls-4" data-name="Path 823"/>
                    <path id="Path_828" d="M285.235 58.376l3.389 1.9 3.495-1.713-.762 3.812 2.708 2.788-3.859.454-1.817 3.437-1.623-3.531-3.83-.663 2.857-2.635z" class="cls-4" data-name="Path 828"/>
                    <circle id="Ellipse_81" cx="5.638" cy="5.638" r="5.638" class="cls-3" data-name="Ellipse 81" transform="translate(286.954 175.725)"/>
                </g>
            </g>
        </g>
        <g id="Group_5469" data-name="Group 5469" transform="translate(315.936 88.376)">
            <g id="Group_5467" data-name="Group 5467" transform="translate(16.996)">
                <path id="Path_2658" d="M602.535 1287.3v-14.54c.227-.383.426-.787.687-1.144 1.141-1.557 2.5-2.752 4.608-2.617.2.013.4-.008.606-.009l24.143-.1c.133 0 .266-.016.493-.031-.251-.215-.421-.367-.6-.51a21.017 21.017 0 0 1-6.769-9.383 5.578 5.578 0 0 1 .462-5.41 5.515 5.515 0 0 1 6.2-2.18 19.63 19.63 0 0 1 5.995 3.009 21.644 21.644 0 0 1 5.928 6.739c.191.341.4.673.6 1.016.084-.063.112-.075.126-.1a2.385 2.385 0 0 0 .155-.259 20.7 20.7 0 0 1 4.326-5.739 18.983 18.983 0 0 1 8.1-4.7 5.485 5.485 0 0 1 6.134 2.357 5.75 5.75 0 0 1 .321 5.467 21.411 21.411 0 0 1-6.563 9.075c-.239.195-.474.395-.711.593l.036.088h.458c4.313 0 8.625-.014 12.937 0 3.995.017 7.989.07 11.983.107a4.774 4.774 0 0 1 2.314.621 5.12 5.12 0 0 1 2.706 3.562 8.662 8.662 0 0 1 .118 1.68q-.014 6.015-.057 12.028a.924.924 0 0 1-.056.379 6.332 6.332 0 0 1-3.083 3.311.634.634 0 0 0-.421.685q.018 7.7.005 15.4-.025 8.091-.1 16.182a7.853 7.853 0 0 1-.164 1.758 9.316 9.316 0 0 1-3.605 5.385 6.653 6.653 0 0 1-3.658 1.519c-1.541.078-3.081.206-4.622.212q-11.076.046-22.153.034-17.784-.01-35.567-.049a1.335 1.335 0 0 1-.51-.055 19.019 19.019 0 0 1-2.6-1.163c-2.68-1.649-4.414-3.932-4.5-7.215-.057-2.061-.139-4.122-.144-6.184q-.027-12.937-.008-25.875a.571.571 0 0 0-.377-.622 5.885 5.885 0 0 1-2.762-2.64c-.121-.231-.271-.456-.411-.682zm7.243 3.915v1.753q.014 14.754.014 29.507a4.847 4.847 0 0 0 .619 2.548 5.471 5.471 0 0 0 5.011 3.079c.519-.006 1.038.008 1.557.009l25.525.05h.474v-37.072c-11.056.064-22.084-.089-33.2.123zm37.077-.058v36.989c.1.006.169.014.239.014q14.149-.029 28.3-.061a.754.754 0 0 0 .34-.037 24 24 0 0 0 2.352-1.347 5.938 5.938 0 0 0 1.721-2.553 1.905 1.905 0 0 0 .188-.779q.014-15.858.008-31.717v-.509zm-3.875-15.778l-.128-.1a2.766 2.766 0 0 1-.274.387q-3.85 3.859-7.71 7.709a.789.789 0 0 1-.413.266 4.611 4.611 0 0 1-1.161-.047 1.693 1.693 0 0 1-.954-2.635c.364-.447.747-.88 1.151-1.291q3.208-3.277 6.43-6.539c.1-.1.2-.214.362-.389h-.5c-5.869 0-11.74-.015-17.61.005-4.874.017-9.748.071-14.623.117-.873.009-1.217.291-1.29 1.166-.1 1.19-.164 2.388-.163 3.583 0 2.667.041 5.335.086 8a1.526 1.526 0 0 0 1.563 1.7c1.352.083 2.708.129 4.062.131q15.381.026 30.763.027c.126 0 .253-.011.406-.018zm3.858 12.083h.43q15.34-.009 30.679-.023c1.426 0 2.854-.065 4.278-.145a1.464 1.464 0 0 0 1.391-1.448q.052-5.257.061-10.513a8.358 8.358 0 0 0-.18-1.629.959.959 0 0 0-1.033-.852c-.792-.027-1.586-.066-2.379-.068q-15.036-.031-30.072-.052c-.123 0-.245.016-.445.029.161.173.272.3.388.416 2.452 2.524 4.917 5.034 7.348 7.578a1.642 1.642 0 0 1-.336 2.66 1.918 1.918 0 0 1-2.168-.19l-7.649-7.649c-.084-.084-.178-.157-.313-.275zm-.038-18.662c.465-.061.825-.082 1.172-.157a16.791 16.791 0 0 0 11.833-9.044 9.973 9.973 0 0 0 .963-2.839 1.683 1.683 0 0 0-2.314-1.857c-6.554 2.341-10.331 7.02-11.654 13.897zm-17.814-12.267c.029.2.044.4.088.6a13.385 13.385 0 0 0 2.588 5.125 16.743 16.743 0 0 0 10.127 6.366c1.1.236 1.2.124.946-1.022a16.957 16.957 0 0 0-5.563-9.433 15.878 15.878 0 0 0-5.891-3.261 1.71 1.71 0 0 0-2.291 1.621z" class="cls-5" data-name="Path 2658" transform="translate(-602.535 -1251.115)"/>
                <path id="Path_2659" d="M610.86 1297.182c11.116-.216 22.144-.059 33.2-.126v37.072h-.474l-25.525-.049c-.52 0-1.039-.015-1.557-.009a5.471 5.471 0 0 1-5.011-3.079 4.846 4.846 0 0 1-.619-2.548q.021-14.752-.014-29.507v-1.754z" class="cls-6" data-name="Path 2659" transform="translate(-603.617 -1257.085)"/>
                <path id="Path_2660" d="M653.475 1297.134h33.145v.509q0 15.859-.008 31.717a1.9 1.9 0 0 1-.188.779 5.937 5.937 0 0 1-1.721 2.553 23.967 23.967 0 0 1-2.352 1.347.75.75 0 0 1-.34.037q-14.149.033-28.3.061c-.07 0-.139-.008-.238-.014z" class="cls-6" data-name="Path 2660" transform="translate(-609.155 -1257.095)"/>
                <path id="Path_2661" d="M643.512 1278.6v12.068c-.153.007-.28.018-.406.018q-15.382-.009-30.763-.027c-1.355 0-2.71-.048-4.062-.131a1.526 1.526 0 0 1-1.563-1.7 485.178 485.178 0 0 1-.086-8c0-1.195.063-2.393.163-3.583.073-.875.418-1.157 1.29-1.166 4.875-.046 9.749-.1 14.623-.117 5.87-.02 11.74-.005 17.61-.005h.5c-.163.175-.259.285-.362.389q-3.216 3.269-6.43 6.539c-.4.412-.787.845-1.151 1.291a1.693 1.693 0 0 0 .955 2.635 4.61 4.61 0 0 0 1.161.047.79.79 0 0 0 .413-.266q3.862-3.85 7.71-7.709a2.731 2.731 0 0 0 .274-.387z" class="cls-6" data-name="Path 2661" transform="translate(-603.067 -1254.343)"/>
                <path id="Path_2662" d="M653.455 1290.687v-12.162c.135.117.23.191.313.275q3.825 3.823 7.649 7.649a1.918 1.918 0 0 0 2.168.19 1.642 1.642 0 0 0 .336-2.66c-2.431-2.544-4.9-5.054-7.349-7.578-.115-.119-.227-.243-.388-.416.2-.013.322-.029.445-.029q15.036.023 30.072.052c.793 0 1.586.041 2.379.068a.959.959 0 0 1 1.033.852 8.359 8.359 0 0 1 .18 1.629q-.006 5.257-.061 10.513a1.464 1.464 0 0 1-1.391 1.448c-1.424.08-2.852.143-4.278.145q-15.34.026-30.678.024z" class="cls-6" data-name="Path 2662" transform="translate(-609.152 -1254.343)"/>
                <path id="Path_2663" d="M653.416 1269.345c1.32-6.873 5.1-11.552 11.653-13.9a1.683 1.683 0 0 1 2.314 1.857 9.967 9.967 0 0 1-.963 2.839 16.791 16.791 0 0 1-11.833 9.044c-.346.077-.706.099-1.171.16z" class="cls-6" data-name="Path 2663" transform="translate(-609.147 -1251.663)"/>
                <path id="Path_2664" d="M632.941 1257.082a1.71 1.71 0 0 1 2.3-1.628 15.878 15.878 0 0 1 5.891 3.261 16.957 16.957 0 0 1 5.563 9.433c.252 1.147.152 1.258-.946 1.022a16.744 16.744 0 0 1-10.127-6.366 13.385 13.385 0 0 1-2.588-5.125c-.05-.195-.064-.398-.093-.597z" class="cls-6" data-name="Path 2664" transform="translate(-606.486 -1251.667)"/>
            </g>
            <path id="Path_2665" d="M652.468 1292.92a4.2 4.2 0 0 0-2.219-2.923 3.92 3.92 0 0 0-1.9-.51c-3.277-.03-6.553-.073-9.831-.087-3.538-.016-7.075 0-10.613 0h-.376l-.03-.073c.195-.163.387-.326.584-.486a17.557 17.557 0 0 0 5.383-7.444 4.715 4.715 0 0 0-.263-4.484 4.5 4.5 0 0 0-5.032-1.934 15.57 15.57 0 0 0-6.645 3.86 16.978 16.978 0 0 0-3.548 4.708 2.267 2.267 0 0 1-.127.213.692.692 0 0 1-.1.08c-.167-.281-.338-.553-.494-.834a17.757 17.757 0 0 0-4.863-5.528 16.1 16.1 0 0 0-4.917-2.468 4.522 4.522 0 0 0-5.087 1.788 4.575 4.575 0 0 0-.379 4.438 17.234 17.234 0 0 0 5.553 7.7c.145.118.284.242.49.418-.186.012-.295.025-.4.025l-19.806.08c-.165 0-.331.017-.5.007-1.73-.111-2.843.869-3.78 2.146-.215.293-.378.625-.564.939v11.928c.115.188.237.372.344.566a4.826 4.826 0 0 0 2.266 2.166.469.469 0 0 1 .31.511q-.008 10.613.006 21.226c0 1.691.071 3.383.117 5.073a6.933 6.933 0 0 0 3.7 5.92 15.668 15.668 0 0 0 2.13.953 1.09 1.09 0 0 0 .419.045q14.589.022 29.178.039 9.086.006 18.173-.027c1.263-.005 2.528-.111 3.791-.174a5.454 5.454 0 0 0 3-1.246 7.632 7.632 0 0 0 2.957-4.417 6.435 6.435 0 0 0 .135-1.442q.052-6.637.08-13.274.02-6.319 0-12.636a.52.52 0 0 1 .345-.562 5.193 5.193 0 0 0 2.53-2.716.766.766 0 0 0 .046-.311q.028-4.933.046-9.867a7.066 7.066 0 0 0-.109-1.386z" class="cls-6" data-name="Path 2665" transform="translate(-583 -1254.192)"/>
            <g id="Group_5468" data-name="Group 5468" transform="translate(0 23.826)">
                <path id="Path_2666" d="M583 1306.832v-11.385c.178-.3.333-.617.539-.9a4.048 4.048 0 0 1 3.608-2.049c.158.01.317-.006.474-.006l18.905-.076c.1 0 .209-.012.386-.024-.2-.168-.329-.287-.467-.4a16.456 16.456 0 0 1-5.3-7.348 4.366 4.366 0 0 1 .362-4.236 4.319 4.319 0 0 1 4.856-1.707 15.366 15.366 0 0 1 4.694 2.356 16.966 16.966 0 0 1 4.642 5.277c.15.268.311.528.471.8.065-.05.088-.059.1-.077a1.917 1.917 0 0 0 .121-.2 16.219 16.219 0 0 1 3.387-4.495 14.873 14.873 0 0 1 6.343-3.684 4.3 4.3 0 0 1 4.8 1.846 4.5 4.5 0 0 1 .251 4.281 16.759 16.759 0 0 1-5.139 7.106c-.187.152-.371.309-.557.464l.03.07h.358c3.377 0 6.753-.011 10.131 0 3.128.014 6.256.055 9.383.083a3.74 3.74 0 0 1 1.811.487 4.01 4.01 0 0 1 2.12 2.789 6.7 6.7 0 0 1 .092 1.315q-.01 4.71-.044 9.419a.741.741 0 0 1-.044.3 4.958 4.958 0 0 1-2.415 2.593.5.5 0 0 0-.329.536q.013 6.032 0 12.062-.019 6.336-.077 12.672a6.1 6.1 0 0 1-.128 1.376 7.29 7.29 0 0 1-2.823 4.217 5.207 5.207 0 0 1-2.864 1.189c-1.206.061-2.413.161-3.618.166q-8.675.036-17.348.027-13.925-.009-27.851-.038a1.05 1.05 0 0 1-.4-.043 14.98 14.98 0 0 1-2.032-.911 6.617 6.617 0 0 1-3.528-5.65c-.044-1.614-.109-3.229-.112-4.843q-.021-10.131-.005-20.261a.447.447 0 0 0-.3-.487 4.6 4.6 0 0 1-2.163-2.067c-.093-.189-.21-.365-.32-.544zm5.672 3.066v1.373q.012 11.552.011 23.106a3.787 3.787 0 0 0 .485 1.995 4.283 4.283 0 0 0 3.924 2.411c.406 0 .813.006 1.219.007l19.988.038h.372V1309.8c-8.659.052-17.295-.072-25.999.1zm29.033-.046v28.964c.077.005.132.011.187.011l22.159-.048a.581.581 0 0 0 .266-.03 18.675 18.675 0 0 0 1.842-1.054 4.656 4.656 0 0 0 1.348-2 1.5 1.5 0 0 0 .147-.61q.012-12.418.006-24.836v-.4zm-3.034-12.356l-.1-.08a2.112 2.112 0 0 1-.215.3q-3.015 3.023-6.037 6.037a.614.614 0 0 1-.324.208 3.565 3.565 0 0 1-.909-.036 1.326 1.326 0 0 1-.747-2.063c.285-.35.586-.689.9-1.012q2.512-2.566 5.036-5.12c.08-.082.156-.168.284-.3h-.39c-4.6 0-9.193-.011-13.789 0-3.817.013-7.634.056-11.451.092-.684.006-.953.227-1.011.912a34.165 34.165 0 0 0-.128 2.806c0 2.089.033 4.178.068 6.267a1.2 1.2 0 0 0 1.224 1.329c1.059.064 2.12.1 3.181.1q12.044.019 24.09.021c.1 0 .2-.009.318-.015zm3.021 9.463h.337q12.012-.008 24.023-.019c1.117 0 2.235-.05 3.351-.113a1.148 1.148 0 0 0 1.089-1.135q.041-4.115.048-8.231a6.565 6.565 0 0 0-.142-1.276.75.75 0 0 0-.808-.666c-.621-.022-1.242-.052-1.863-.054q-11.774-.025-23.549-.04c-.1 0-.192.011-.348.022l.3.326c1.92 1.976 3.851 3.942 5.755 5.934a1.286 1.286 0 0 1-.263 2.083 1.5 1.5 0 0 1-1.7-.15l-5.989-5.989c-.066-.065-.14-.123-.245-.215zm-.027-14.613c.365-.048.645-.064.918-.123a13.15 13.15 0 0 0 9.266-7.082 7.855 7.855 0 0 0 .754-2.223 1.318 1.318 0 0 0-1.812-1.454c-5.133 1.836-8.091 5.499-9.126 10.882zm-13.949-9.606c.023.156.034.314.069.467a10.477 10.477 0 0 0 2.027 4.013 13.107 13.107 0 0 0 7.93 4.984c.86.185.939.1.74-.8a13.274 13.274 0 0 0-4.355-7.386 12.436 12.436 0 0 0-4.613-2.554 1.34 1.34 0 0 0-1.798 1.276z" class="cls-5" data-name="Path 2666" transform="translate(-583 -1278.499)"/>
                <path id="Path_2667" d="M589.519 1314.573c8.7-.17 17.34-.046 26-.1v29.027h-.372l-19.988-.038c-.406 0-.812-.011-1.219-.007a4.283 4.283 0 0 1-3.924-2.411 3.788 3.788 0 0 1-.485-2q.017-11.554-.011-23.106z" class="cls-6" data-name="Path 2667" transform="translate(-583.847 -1283.175)"/>
                <path id="Path_2668" d="M622.889 1314.535h25.955v.4q0 12.418-.006 24.836a1.5 1.5 0 0 1-.147.61 4.654 4.654 0 0 1-1.348 2 18.611 18.611 0 0 1-1.842 1.054.581.581 0 0 1-.266.03q-11.08.026-22.159.048c-.055 0-.11-.006-.187-.011z" class="cls-6" data-name="Path 2668" transform="translate(-588.184 -1283.182)"/>
                <path id="Path_2669" d="M615.088 1300.025v9.451c-.12.006-.219.015-.318.015q-12.045-.008-24.09-.021c-1.061 0-2.122-.038-3.181-.1a1.2 1.2 0 0 1-1.224-1.328 385.126 385.126 0 0 1-.068-6.267c0-.935.05-1.873.128-2.806.057-.685.327-.906 1.011-.912 3.817-.037 7.634-.079 11.451-.092 4.6-.015 9.193 0 13.789 0h.39c-.128.136-.2.223-.284.3q-2.519 2.559-5.036 5.12c-.316.323-.617.662-.9 1.012a1.326 1.326 0 0 0 .747 2.063 3.588 3.588 0 0 0 .909.036.617.617 0 0 0 .325-.208q3.023-3.015 6.037-6.037a2.106 2.106 0 0 0 .215-.3z" class="cls-6" data-name="Path 2669" transform="translate(-583.417 -1281.028)"/>
                <path id="Path_2670" d="M622.874 1309.487v-9.523c.105.092.179.15.245.215l5.989 5.989a1.5 1.5 0 0 0 1.7.15 1.286 1.286 0 0 0 .263-2.083c-1.9-1.991-3.834-3.958-5.754-5.934-.09-.094-.177-.19-.3-.326.156-.01.252-.022.348-.022l23.549.04c.621 0 1.242.032 1.863.054a.75.75 0 0 1 .808.666 6.573 6.573 0 0 1 .142 1.275q-.007 4.117-.048 8.232a1.148 1.148 0 0 1-1.089 1.134 61.376 61.376 0 0 1-3.351.113q-12.012.021-24.023.019z" class="cls-6" data-name="Path 2670" transform="translate(-588.182 -1281.027)"/>
                <path id="Path_2671" d="M622.843 1292.775c1.034-5.383 3.993-9.047 9.126-10.882a1.318 1.318 0 0 1 1.812 1.454 7.858 7.858 0 0 1-.754 2.223 13.149 13.149 0 0 1-9.266 7.082c-.272.058-.554.075-.918.123z" class="cls-6" data-name="Path 2671" transform="translate(-588.178 -1278.928)"/>
                <path id="Path_2672" d="M606.81 1283.172a1.34 1.34 0 0 1 1.8-1.276 12.436 12.436 0 0 1 4.613 2.554 13.274 13.274 0 0 1 4.355 7.387c.2.9.12.985-.74.8a13.109 13.109 0 0 1-7.93-4.984 10.476 10.476 0 0 1-2.027-4.013c-.037-.154-.048-.312-.071-.468z" class="cls-6" data-name="Path 2672" transform="translate(-586.094 -1278.932)"/>
            </g>
        </g>
    </g>
</svg>
