<svg xmlns="http://www.w3.org/2000/svg" width="40" height="40" viewBox="0 0 40 40">
    <defs>
        <style>
            .cls-1{fill:none}.cls-2{clip-path:url(#clip-path)}.cls-3{fill:#4fc6c2}.cls-4{fill:#fff}
        </style>
        <clipPath id="clip-path">
            <path d="M0 0h40v40H0z" class="cls-1"/>
        </clipPath>
    </defs>
    <g id="Component_1" class="cls-2" data-name="Component 1">
        <circle id="Ellipse_71" cx="20" cy="20" r="20" class="cls-3" data-name="Ellipse 71"/>
        <path id="Path_2287" d="M2299.061 1577h-17.24a.821.821 0 0 0-.821.821v10.479a.809.809 0 0 0 .821.807h9.646v3.489a.863.863 0 0 0 .583.771.949.949 0 0 0 .3.05.85.85 0 0 0 .637-.3l3.407-4.013h2.661a.809.809 0 0 0 .821-.807v-10.481a.821.821 0 0 0-.815-.816zm-.821 10.467h-2.221a.925.925 0 0 0-.671.3l-2.239 2.6v-2.067a.761.761 0 0 0-.731-.835h-9.736v-8.825h15.6zm-13.415-5.952a.821.821 0 0 1 .821-.821h5.943a.821.821 0 1 1 0 1.642h-5.943a.821.821 0 0 1-.821-.821zm9.01.628a.82.82 0 0 1 .581-1.4.817.817 0 0 1 .581.24.821.821 0 1 1-1.161 1.159z" class="cls-4" data-name="Path 2287" transform="translate(-2271 -1564)"/>
    </g>
</svg>
