<svg xmlns="http://www.w3.org/2000/svg" width="169.422" height="148.613" viewBox="0 0 169.422 148.613">
    <defs>
        <style>
            .cls-1,.cls-3,.cls-4{fill:none}.cls-1{stroke:#bf263f;stroke-width:1.426px;stroke-dasharray:2.341 4.681;opacity:.512}.cls-1,.cls-3,.cls-4,.cls-5{stroke-miterlimit:10}.cls-2{fill:#ed4d67;opacity:.1}.cls-3,.cls-4{stroke:#f7657d;stroke-width:1.17px}.cls-3{opacity:.18}.cls-4{opacity:.14}.cls-5{fill:#fff}.cls-6,.cls-7{stroke:none}.cls-7{fill:#bf2640}
        </style>
    </defs>
    <g id="_01" data-name="1" transform="translate(1.269 1.092)">
        <g id="Group_2358" data-name="Group 2358">
            <g id="Group_2354" data-name="Group 2354">
                <g id="Group_2352" data-name="Group 2352" transform="translate(3.14 3.712)">
                    <path id="Path_826" d="M301.124 91.923c10.873 33.834 16.16 56.833 6.283 89.336-10.607 34.909 61.973 26.781 89.338 6.284 26.017-19.489 70.688-44.273-6.283-89.337-31.954-18.706-100.662-41.52-89.338-6.283z" class="cls-1" data-name="Path 826" transform="translate(-286.076 -62.088)"/>
                    <path id="Path_777" d="M432.088 83.622c-15.262 34.576-23.41 58.314-16.578 93.791 7.339 38.1-68.522 21.435-95.187-3.286-25.353-23.5-69.842-54.685 16.577-93.79 35.871-16.237 111.076-32.724 95.188 3.285z" class="cls-2" data-name="Path 777" transform="translate(-286.076 -62.088)"/>
                </g>
                <g id="Group_2356" data-name="Group 2356">
                    <circle id="Ellipse_80" cx="3.297" cy="3.297" r="3.297" class="cls-3" data-name="Ellipse 80" transform="translate(143.292 29.573)"/>
                    <path id="Path_823" d="M433.955 123.588l5.172-2.714.7-5.8 4.179 4.08 5.735-1.129-2.589 5.235 2.845 5.1-5.779-.845-3.973 4.283-.983-5.757z" class="cls-4" data-name="Path 823" transform="translate(-282.936 -58.376)"/>
                    <path id="Path_828" d="M285.235 58.376l3.389 1.9 3.495-1.713-.762 3.812 2.708 2.788-3.859.454-1.817 3.437-1.623-3.531-3.83-.663 2.857-2.635z" class="cls-4" data-name="Path 828" transform="translate(-282.936 -58.376)"/>
                    <circle id="Ellipse_81" cx="5.638" cy="5.638" r="5.638" class="cls-3" data-name="Ellipse 81" transform="translate(4.018 117.349)"/>
                </g>
            </g>
        </g>
        <g id="Group_6046" data-name="Group 6046" transform="translate(35 29.808)">
            <g id="Group_3764" data-name="Group 3764" transform="translate(14.013 19.231)">
                <g id="Path_2667" class="cls-5" data-name="Path 2667">
                    <path d="M1424.63 620.857c-.005 0-.018 0-.045-.005a.19.19 0 0 1-.14-.223 33.665 33.665 0 0 1 22.958-25.377.192.192 0 0 1 .054-.008c.07 0 .154.04.182.13a.19.19 0 0 1-.125.239 33.285 33.285 0 0 0-22.701 25.093c-.02.1-.107.151-.183.151z" class="cls-6" transform="translate(-1423.491 -594.294)"/>
                    <path d="M1424.63 621.807a1.14 1.14 0 0 1-1.116-1.367 34.614 34.614 0 0 1 23.606-26.095 1.138 1.138 0 0 1 .678 2.174 32.336 32.336 0 0 0-22.055 24.378c-.109.539-.583.91-1.113.91z" class="cls-7" transform="translate(-1423.491 -594.294)"/>
                </g>
            </g>
            <g id="Group_3765" data-name="Group 3765" transform="translate(56.333 19.078)">
                <g id="Path_2668" class="cls-5" data-name="Path 2668">
                    <path d="M1497.916 620.935a.189.189 0 0 1-.183-.153c-2.442-12.13-11.34-21.843-23.22-25.348a.189.189 0 0 1 .104-.363c12.018 3.546 21.016 13.37 23.485 25.638.02.1-.045.2-.145.22l-.009.002-.008.002a.108.108 0 0 1-.024.002z" class="cls-6" transform="translate(-1473.429 -594.114)"/>
                    <path d="M1497.916 621.885a1.14 1.14 0 0 1-1.115-.915c-2.372-11.783-11.014-21.22-22.556-24.625a1.138 1.138 0 1 1 .645-2.184c12.353 3.644 21.605 13.746 24.143 26.36a1.138 1.138 0 0 1-1.117 1.364z" class="cls-7" transform="translate(-1473.429 -594.114)"/>
                </g>
            </g>
            <g id="Group_3766" data-name="Group 3766" transform="translate(34.609 82.422)">
                <g id="Path_2669" class="cls-5" data-name="Path 2669">
                    <path d="M1461.16 672.489c-4.242 0-8.379-.779-12.295-2.314a.19.19 0 0 1-.107-.245.188.188 0 0 1 .244-.106 33.213 33.213 0 0 0 12.165 2.277c4.036 0 7.964-.705 11.676-2.096a.193.193 0 0 1 .242.112c.022.06.01.11-.005.142a.185.185 0 0 1-.105.099 33.565 33.565 0 0 1-11.814 2.13z" class="cls-6" transform="translate(-1447.794 -668.861)"/>
                    <path d="M1461.16 673.439c-4.36 0-8.615-.8-12.642-2.38a1.139 1.139 0 0 1 .83-2.12 32.46 32.46 0 0 0 11.818 2.212c3.86 0 7.72-.678 11.344-2.036a1.143 1.143 0 0 1 1.464.667 1.138 1.138 0 0 1-.666 1.465 34.51 34.51 0 0 1-12.147 2.192z" class="cls-7" transform="translate(-1447.794 -668.861)"/>
                </g>
            </g>
            <g id="Group_3773" data-name="Group 3773" transform="translate(32.431)">
                <g id="Group_3768" data-name="Group 3768" transform="translate(0 19.169)">
                    <g id="Group_3767" data-name="Group 3767">
                        <g id="Path_2670" class="cls-5" data-name="Path 2670">
                            <path d="M1474.01 608.067H1447.076c.02-.798.08-2.396.273-3.663.152-1 .292-1.743.708-2.188.418-.448 1.203-.71 2.623-.873l.255-.03c1.41-.16 4.346-.496 5.56-1.189.655-.374 1.05-1.257 1.206-2.7.056-.52.07-1.01.069-1.36H1463.317c0 .35.012.84.068 1.36.157 1.443.551 2.326 1.207 2.7 1.216.694 4.152 1.029 5.563 1.19l.251.029c1.421.164 2.206.425 2.625.873.416.445.556 1.188.708 2.188.193 1.267.253 2.865.271 3.663z" class="cls-6" transform="translate(-1445.429 -594.426)"/>
                            <path d="M1473.495 607.567c-.03-.846-.097-2.077-.25-3.087-.16-1.054-.288-1.61-.58-1.922-.322-.345-1.058-.573-2.316-.719l-.25-.028c-2.311-.264-4.607-.598-5.755-1.252-.805-.46-1.281-1.468-1.456-3.082a12.411 12.411 0 0 1-.063-.913h-4.564c-.009.278-.028.59-.063.913-.175 1.614-.65 2.622-1.455 3.082-1.145.653-3.441.988-5.752 1.251l-.253.03c-1.258.145-1.994.373-2.316.717-.291.312-.419.869-.579 1.922-.153 1.01-.222 2.242-.252 3.088h25.904m1.023 1H1446.568s.011-2.426.286-4.238c.344-2.263.632-3.121 3.769-3.483 1.187-.138 4.422-.47 5.624-1.156 1.203-.687 1.011-4.126 1.011-4.126h6.571s-.194 3.439 1.01 4.126c1.205.687 4.437 1.018 5.625 1.156 3.137.362 3.425 1.22 3.77 3.483.275 1.812.284 4.238.284 4.238z" class="cls-7" transform="translate(-1445.429 -594.426)"/>
                        </g>
                        <g id="Path_2671" class="cls-5" data-name="Path 2671">
                            <path d="M1474.313 609h-27.95a.641.641 0 0 1-.639-.64v-.02c.006-.597.045-2.673.294-4.312.388-2.547.887-3.624 4.326-4.021l.248-.028c3.693-.422 4.686-.792 5.112-1.034l.046-.027.04-.035c.586-.524.675-2.577.626-3.489a.64.64 0 0 1 .637-.673h6.57a.64.64 0 0 1 .637.673c-.05.91.033 2.956.605 3.473l.04.037.048.026c.904.517 3.355.846 5.12 1.048h.008l.253.029c3.44.398 3.938 1.474 4.325 4.021.246 1.627.286 3.708.293 4.307v.025a.64.64 0 0 1-.639.64zm-16.595-13.003l-.02.48c-.044 1.07-.276 2.954-1.34 3.562-1.093.625-3.455.961-5.621 1.208l-.246.028c-2.71.313-2.889.826-3.21 2.947-.12.776-.204 1.78-.252 2.982l-.02.52h26.659l-.02-.52c-.048-1.204-.132-2.209-.251-2.984-.322-2.12-.501-2.632-3.212-2.945l-.248-.028c-2.166-.247-4.526-.584-5.618-1.208-1.065-.607-1.298-2.493-1.342-3.562l-.02-.48h-5.24z" class="cls-6" transform="translate(-1445.224 -594.221)"/>
                            <path d="M1474.313 608.5a.136.136 0 0 0 .098-.04.144.144 0 0 0 .041-.1v-.02c-.006-.59-.046-2.642-.288-4.237-.179-1.182-.387-2.018-.87-2.537-.509-.546-1.468-.883-3.015-1.062l-.255-.029h-.007c-2.915-.334-4.553-.676-5.313-1.11l-.094-.054-.08-.073c-.226-.204-.507-.587-.675-1.741a11.24 11.24 0 0 1-.094-2.13.134.134 0 0 0-.036-.101l-.002-.003-.002-.002a.136.136 0 0 0-.097-.04h-6.57a.138.138 0 0 0-.138.146c.006.124.151 3.046-.793 3.889l-.08.07-.092.053c-.748.425-2.382.763-5.298 1.096h-.005l-.247.028c-1.55.18-2.509.517-3.017 1.062-.483.52-.692 1.356-.871 2.538-.245 1.607-.283 3.654-.289 4.243v.015c0 .038.016.074.042.1.025.025.06.04.097.04h27.95m-17.075-13.004h6.2l.039.959c.067 1.62.474 2.797 1.09 3.15 1.15.656 4.038.986 5.426 1.144l.25.028c1.393.161 2.205.349 2.782.925.584.585.702 1.364.866 2.44.122.795.208 1.818.256 3.042l.041 1.04H1446.49l.04-1.04c.05-1.221.136-2.244.257-3.038.164-1.078.282-1.858.866-2.443.576-.577 1.388-.765 2.783-.926l.245-.028c1.39-.158 4.28-.487 5.43-1.145.615-.351 1.022-1.528 1.088-3.149l.04-.959m17.075 14.003h-27.95a1.138 1.138 0 0 1-1.139-1.142c.002-.103.015-2.531.3-4.405.41-2.693 1.012-4.01 4.763-4.443l.25-.028c.994-.114 4.016-.459 4.92-.972.307-.275.53-1.776.46-3.089a1.138 1.138 0 0 1 1.136-1.2h6.57a1.135 1.135 0 0 1 1.137 1.2c-.072 1.313.152 2.814.44 3.075.923.527 3.946.872 4.938.986l.252.028c3.751.434 4.355 1.75 4.763 4.443.284 1.874.297 4.302.3 4.405a1.137 1.137 0 0 1-1.139 1.142zm-16.115-13.003c-.056 1.363-.366 3.276-1.591 3.976-1.17.668-3.485 1.006-5.814 1.27l-.245.029c-2.433.281-2.478.58-2.773 2.525-.145.948-.213 2.093-.246 2.927h25.619c-.033-.834-.1-1.978-.246-2.929-.295-1.944-.34-2.242-2.774-2.523l-.248-.028c-2.325-.265-4.641-.603-5.809-1.27-1.228-.701-1.537-2.614-1.593-3.977h-4.28z" class="cls-7" transform="translate(-1445.224 -594.221)"/>
                        </g>
                    </g>
                </g>
                <g id="Group_3769" data-name="Group 3769" transform="translate(0 23.283)">
                    <g id="Path_2672" class="cls-5" data-name="Path 2672">
                        <path d="M1474.01 608.808H1447.076c.02-.798.08-2.396.273-3.663.152-1 .292-1.743.708-2.188.418-.448 1.203-.71 2.623-.873l.255-.03c1.358-.155 4.127-.47 5.416-1.112.543.197 2.426 1.392 3.975 2.465l.29.2.286-.204c1.489-1.068 3.303-2.258 3.837-2.46 1.294.641 4.06.957 5.416 1.112l.251.029c1.421.163 2.206.425 2.625.873.416.445.556 1.188.708 2.188.193 1.267.253 2.865.271 3.663z" class="cls-6" transform="translate(-1445.429 -599.281)"/>
                        <path d="M1456.356 601.49c-1.23.53-3.29.824-5.364 1.061l-.254.03c-1.258.144-1.994.373-2.316.717-.291.312-.419.868-.579 1.922-.153 1.01-.222 2.242-.252 3.088h25.904c-.03-.846-.097-2.077-.25-3.087-.16-1.054-.288-1.61-.58-1.923-.322-.344-1.058-.573-2.316-.718l-.251-.029c-2.068-.236-4.125-.528-5.359-1.057-.654.331-2.25 1.386-3.545 2.315l-.573.41-.58-.4c-1.353-.939-3.017-2.003-3.685-2.328m-.056-1.071c.593 0 4.311 2.576 4.311 2.576s3.593-2.576 4.176-2.576c.022 0 .04.003.053.011 1.204.686 4.436 1.018 5.624 1.156 3.137.362 3.425 1.22 3.77 3.483.275 1.812.284 4.238.284 4.238H1446.568s.011-2.426.286-4.238c.344-2.263.632-3.121 3.769-3.483 1.187-.138 4.422-.47 5.624-1.156a.107.107 0 0 1 .053-.011z" class="cls-7" transform="translate(-1445.429 -599.281)"/>
                    </g>
                    <g id="Path_2673" class="cls-5" data-name="Path 2673">
                        <path d="M1474.313 609.741h-27.95a.642.642 0 0 1-.639-.64v-.02c.006-.597.045-2.673.294-4.312.388-2.548.887-3.625 4.326-4.022l.248-.028c1.771-.202 4.225-.53 5.133-1.048a.855.855 0 0 1 .37-.095c.198 0 .723 0 4.019 2.24l.286.194.282-.199c3.181-2.235 3.703-2.235 3.9-2.235.115 0 .276.041.373.096.902.516 3.353.844 5.118 1.046l.008.001.253.028c3.44.398 3.938 1.475 4.325 4.022.246 1.627.286 3.708.293 4.307v.025a.64.64 0 0 1-.639.64zm-18.148-8.853l-.212.088c-1.217.507-3.32.796-5.216 1.012l-.246.028c-2.71.313-2.889.826-3.21 2.947-.12.776-.204 1.78-.252 2.982l-.02.52h26.659l-.02-.52c-.048-1.205-.132-2.209-.251-2.985-.322-2.119-.501-2.631-3.212-2.944l-.248-.028c-1.99-.228-3.997-.507-5.207-1.009l-.216-.09-.208.11c-.742.39-2.37 1.481-3.526 2.31a.633.633 0 0 1-.736.007c-1.251-.866-2.915-1.942-3.674-2.325l-.205-.103z" class="cls-6" transform="translate(-1445.224 -599.076)"/>
                        <path d="M1474.313 609.241a.136.136 0 0 0 .098-.04.144.144 0 0 0 .041-.1v-.02c-.006-.59-.046-2.642-.288-4.237-.179-1.182-.387-2.018-.87-2.537-.509-.546-1.468-.884-3.015-1.063l-.255-.028h-.008c-2.907-.334-4.545-.675-5.307-1.108a.416.416 0 0 0-.128-.032c-.131 0-.78.155-3.611 2.144l-.566.398-.571-.389c-2.86-1.943-3.567-2.153-3.738-2.153a.397.397 0 0 0-.122.03c-.762.434-2.403.777-5.32 1.11h-.005l-.247.028c-1.55.179-2.509.516-3.017 1.062-.483.519-.692 1.356-.871 2.538-.245 1.607-.283 3.653-.289 4.243v.015c0 .038.016.074.042.1.025.025.06.039.097.039h27.95m-18.128-8.903l.41.207c.78.393 2.468 1.484 3.733 2.36.03.02.06.025.08.025.02 0 .05-.005.08-.027 1.199-.86 2.815-1.942 3.586-2.347l.415-.218.433.18c1.156.479 3.212.76 5.07.973l.25.028c1.394.161 2.206.348 2.783.925.584.585.702 1.363.866 2.44.122.795.208 1.818.256 3.041l.041 1.04H1446.49l.04-1.04c.05-1.22.136-2.243.257-3.037.164-1.079.282-1.858.866-2.443.576-.578 1.388-.765 2.783-.926l.245-.028c1.862-.212 3.921-.494 5.08-.976l.425-.177m18.128 9.903h-27.95a1.138 1.138 0 0 1-1.139-1.142c.002-.103.015-2.532.3-4.405.41-2.694 1.012-4.01 4.763-4.443l.25-.028c.994-.114 4.016-.459 4.94-.986.172-.1.42-.161.618-.161.312 0 .877 0 4.3 2.326 3.31-2.326 3.876-2.326 4.186-2.326.198 0 .444.062.62.161.922.527 3.945.872 4.937.986l.252.028c3.751.433 4.355 1.75 4.763 4.443.284 1.873.297 4.302.3 4.405a1.137 1.137 0 0 1-1.139 1.142zm-18.168-8.803c-1.257.523-3.298.813-5.352 1.046l-.245.028c-2.433.282-2.478.58-2.773 2.526-.145.948-.213 2.093-.246 2.927h25.619c-.033-.834-.1-1.978-.246-2.929-.295-1.944-.34-2.242-2.774-2.524l-.248-.028c-2.047-.233-4.084-.522-5.341-1.043-.675.354-2.219 1.378-3.468 2.275a1.135 1.135 0 0 1-1.312.01c-1.31-.906-2.923-1.94-3.614-2.288z" class="cls-7" transform="translate(-1445.224 -599.076)"/>
                    </g>
                </g>
                <g id="Group_3770" data-name="Group 3770" transform="translate(14.862 23.961)">
                    <g id="Path_2674" class="cls-5" data-name="Path 2674">
                        <path d="M1476.686 608.93h-11.635l4.878-7.158c1.092.198 2.22.327 2.92.407l.233.027c1.42.164 2.205.425 2.624.873.416.445.556 1.188.709 2.188.192 1.267.252 2.865.27 3.663z" class="cls-6" transform="translate(-1462.967 -600.081)"/>
                        <path d="M1470.16 602.32l-4.163 6.11h10.174c-.03-.846-.097-2.077-.25-3.087-.161-1.054-.289-1.61-.58-1.923-.322-.344-1.058-.573-2.317-.718l-.232-.026c-.638-.073-1.63-.186-2.632-.356m-.46-1.1c1.298.255 2.731.407 3.44.489 3.137.362 3.424 1.22 3.769 3.483.275 1.812.285 4.238.285 4.238h-13.089l5.595-8.21z" class="cls-7" transform="translate(-1462.967 -600.081)"/>
                    </g>
                    <g id="Path_2675" class="cls-5" data-name="Path 2675">
                        <path d="M1476.989 609.863H1463.9a.639.639 0 0 1-.527-.998l5.594-8.21a.64.64 0 0 1 .65-.267c1.125.222 2.373.365 3.119.45l.03.004.244.027c3.439.398 3.938 1.475 4.324 4.022.247 1.627.287 3.708.294 4.307v.025a.64.64 0 0 1-.64.64zm-7.204-8.142l-.18.264-3.966 5.82-.532.782H1476.343l-.02-.52c-.048-1.205-.132-2.21-.25-2.985-.322-2.119-.501-2.631-3.212-2.944l-.239-.028a49.373 49.373 0 0 1-2.522-.337l-.315-.052z" class="cls-6" transform="translate(-1462.762 -599.876)"/>
                        <path d="M1476.989 609.363a.136.136 0 0 0 .097-.04.144.144 0 0 0 .042-.1v-.02c-.007-.59-.046-2.642-.288-4.237-.18-1.182-.387-2.018-.871-2.537-.508-.546-1.468-.884-3.015-1.063l-.245-.027-.03-.004c-.754-.086-2.014-.23-3.159-.457a.14.14 0 0 0-.14.057l-5.594 8.21a.14.14 0 0 0-.01.143.142.142 0 0 0 .124.075h13.089m-7.437-8.187l.63.104c1.003.166 2.01.278 2.499.333l.237.028c1.393.161 2.206.348 2.782.925.585.585.703 1.363.866 2.44.122.794.208 1.817.257 3.041l.041 1.04h-12.703l1.065-1.563 3.966-5.82.36-.528m7.437 9.187H1463.9a1.14 1.14 0 0 1-1.007-.606 1.141 1.141 0 0 1 .066-1.174l5.594-8.21a1.142 1.142 0 0 1 1.16-.476c1.12.221 2.364.363 3.11.448l.242.028c3.752.433 4.355 1.75 4.764 4.443.284 1.873.297 4.302.299 4.405a1.137 1.137 0 0 1-1.139 1.142zm-6.97-8.096l-3.966 5.82h9.77c-.032-.834-.1-1.978-.245-2.929-.295-1.944-.34-2.242-2.775-2.524l-.239-.028a49.378 49.378 0 0 1-2.545-.34z" class="cls-7" transform="translate(-1462.762 -599.876)"/>
                    </g>
                </g>
                <g id="Group_3771" data-name="Group 3771" transform="translate(0 23.961)">
                    <g id="Path_2676" class="cls-5" data-name="Path 2676">
                        <path d="M1458.712 608.93h-11.636c.02-.798.08-2.396.273-3.663.152-1 .292-1.743.708-2.188.418-.448 1.203-.71 2.623-.873l.23-.027c.7-.08 1.83-.208 2.925-.407l4.877 7.158z" class="cls-6" transform="translate(-1445.429 -600.081)"/>
                        <path d="M1457.766 608.43l-4.163-6.11c-1.005.17-1.998.283-2.637.356l-.228.026c-1.258.145-1.994.374-2.316.718-.291.312-.419.868-.579 1.922-.153 1.01-.222 2.242-.252 3.088h10.175m1.892 1h-13.09s.011-2.426.286-4.238c.344-2.263.632-3.121 3.769-3.483.71-.082 2.14-.234 3.44-.489l5.595 8.21z" class="cls-7" transform="translate(-1445.429 -600.081)"/>
                    </g>
                    <g id="Path_2677" class="cls-5" data-name="Path 2677">
                        <path d="M1459.453 609.863h-13.09a.642.642 0 0 1-.639-.64v-.02c.006-.597.045-2.673.294-4.312.388-2.548.887-3.625 4.326-4.022l.237-.027c.692-.078 1.98-.223 3.155-.454a.642.642 0 0 1 .651.267l5.593 8.21a.64.64 0 0 1-.527.998zm-5.885-8.142l-.315.052c-.985.163-1.95.272-2.526.337l-.237.028c-2.709.313-2.888.826-3.21 2.947-.118.776-.203 1.78-.25 2.982l-.021.52H1458.245l-.532-.782-3.966-5.82-.18-.264z" class="cls-6" transform="translate(-1445.224 -599.876)"/>
                        <path d="M1459.453 609.363a.138.138 0 0 0 .114-.217l-5.592-8.209a.14.14 0 0 0-.143-.059c-1.194.235-2.496.382-3.194.461l-.237.027c-1.55.179-2.509.517-3.017 1.062-.483.519-.692 1.356-.871 2.538-.245 1.607-.283 3.653-.289 4.243v.015a.138.138 0 0 0 .139.14l13.09-.001m-5.652-8.187l.36.528 3.965 5.82 1.065 1.563H1446.489l.04-1.04c.05-1.22.136-2.243.257-3.037.164-1.079.282-1.858.866-2.443.576-.578 1.388-.765 2.781-.926l.238-.027a50.156 50.156 0 0 0 2.5-.334l.63-.104m5.652 9.187h-13.09a1.138 1.138 0 0 1-1.139-1.142c.002-.103.015-2.532.3-4.405.41-2.694 1.012-4.01 4.763-4.443l.238-.028c.744-.083 1.99-.227 3.114-.448a1.139 1.139 0 0 1 1.161.476l5.593 8.21a1.14 1.14 0 0 1-.94 1.78zm-6.119-8.096c-.976.16-1.93.27-2.55.34l-.236.027c-2.433.282-2.478.58-2.773 2.526-.145.948-.213 2.093-.246 2.927h9.77l-3.965-5.82z" class="cls-7" transform="translate(-1445.224 -599.876)"/>
                    </g>
                </g>
                <g id="Group_3772" data-name="Group 3772" transform="translate(5.062)">
                    <g id="Path_2678" class="cls-5" data-name="Path 2678">
                        <path d="M1461.455 593.42c-3.781 0-5.894-3.337-6.818-5.326l-.115-.248-.271-.037c-.476-.064-.925-.51-1.118-1.11-.187-.584-.09-1.202.24-1.536l.19-.192-.055-.264a14.598 14.598 0 0 1-.339-2.977c0-4.569 3.717-8.286 8.286-8.286 4.568 0 8.285 3.717 8.285 8.286 0 .903-.12 1.928-.349 2.965l-.06.27.196.193c.338.334.437.954.249 1.542-.193.603-.664 1.06-1.145 1.11l-.28.028-.12.254c-.746 1.575-1.708 2.887-2.782 3.792-1.208 1.019-2.552 1.536-3.994 1.536z" class="cls-6" transform="translate(-1451.402 -571.806)"/>
                        <path d="M1461.455 592.92c3.425 0 5.432-3.159 6.324-5.042l.24-.508.56-.058c.239-.025.572-.302.72-.765.146-.454.048-.863-.124-1.034l-.39-.387.118-.538c.22-1.002.337-1.99.337-2.858 0-4.293-3.492-7.786-7.785-7.786s-7.786 3.493-7.786 7.786c0 .875.114 1.869.328 2.873l.112.528-.38.384c-.169.17-.264.58-.12 1.03.148.462.469.736.708.769l.543.073.23.497c.702 1.51 1.61 2.76 2.627 3.616 1.12.942 2.378 1.42 3.738 1.42m0 1c-3.416 0-5.844-2.54-7.271-5.615-.648-.088-1.267-.646-1.527-1.453-.252-.789-.088-1.587.362-2.04a14.997 14.997 0 0 1-.35-3.082 8.787 8.787 0 0 1 8.786-8.786 8.787 8.787 0 0 1 8.785 8.786c0 .954-.125 2.004-.36 3.073.457.453.627 1.253.372 2.05-.265.826-.908 1.385-1.57 1.453-1.455 3.075-3.897 5.614-7.227 5.614z" class="cls-7" transform="translate(-1451.402 -571.806)"/>
                    </g>
                    <g id="Path_2679" class="cls-5" data-name="Path 2679">
                        <path d="M1461.25 594.354c-1.554 0-2.998-.472-4.292-1.402-1.312-.945-2.435-2.333-3.337-4.127l-.084-.166-.172-.071c-.693-.287-1.262-.94-1.522-1.746-.247-.775-.176-1.618.19-2.254l.092-.16-.034-.18a15.034 15.034 0 0 1-.264-2.723c0-5.196 4.227-9.424 9.423-9.424 5.197 0 9.425 4.228 9.425 9.424 0 .848-.092 1.76-.273 2.71l-.035.184.094.162c.372.637.444 1.483.194 2.261-.264.828-.85 1.486-1.567 1.762l-.178.069-.088.17c-.906 1.763-2.036 3.14-3.357 4.095-1.3.94-2.719 1.416-4.215 1.416zm0-20.976c-4.492 0-8.146 3.655-8.146 8.147 0 .905.115 1.924.334 2.949a.637.637 0 0 1-.171.582c-.247.253-.404.78-.206 1.397.171.54.584.957 1.003 1.014.216.03.4.165.493.364.91 1.96 2.99 5.246 6.693 5.246 3.622 0 5.722-3.288 6.651-5.249.094-.2.29-.337.51-.36.353-.04.823-.374 1.029-1.015.173-.54.087-1.103-.214-1.402a.628.628 0 0 1-.174-.588c.226-1.025.345-2.04.345-2.938 0-4.492-3.654-8.147-8.147-8.147z" class="cls-6" transform="translate(-1451.197 -571.601)"/>
                        <path d="M1461.25 593.854c1.389 0 2.708-.445 3.922-1.321 1.257-.908 2.335-2.226 3.206-3.92l.174-.339.356-.136c.578-.223 1.052-.763 1.27-1.449.209-.645.153-1.34-.149-1.857l-.188-.323.07-.367c.175-.92.264-1.8.264-2.617 0-4.92-4.004-8.924-8.925-8.924-4.92 0-8.923 4.003-8.923 8.924 0 .83.086 1.715.256 2.632l.067.362-.184.319c-.297.516-.351 1.209-.147 1.85.215.669.678 1.206 1.238 1.438l.343.142.168.333c.865 1.72 1.936 3.048 3.182 3.945 1.207.868 2.553 1.308 4 1.308m0-20.976c4.768 0 8.647 3.88 8.647 8.647 0 .934-.123 1.986-.356 3.043v.003l-.001.003a.132.132 0 0 0 .039.123c.437.435.57 1.184.337 1.908-.239.744-.82 1.29-1.446 1.36h-.006a.137.137 0 0 0-.111.078c-.98 2.066-3.206 5.534-7.103 5.534-3.98 0-6.186-3.468-7.146-5.535a.141.141 0 0 0-.107-.08c-.613-.082-1.181-.628-1.412-1.356-.23-.716-.104-1.46.322-1.897l.002-.002.002-.002a.138.138 0 0 0 .038-.127 14.948 14.948 0 0 1-.345-3.053c0-4.768 3.879-8.647 8.646-8.647m0 21.976c-3.34 0-6.191-2.056-8.076-5.804-.821-.34-1.497-1.093-1.807-2.055-.295-.927-.199-1.907.232-2.656a15.501 15.501 0 0 1-.272-2.814c0-5.472 4.45-9.924 9.923-9.924 5.472 0 9.925 4.452 9.925 9.924 0 .883-.095 1.823-.282 2.804.437.75.538 1.733.237 2.667-.314.989-1.012 1.748-1.863 2.075-1.893 3.682-4.792 5.783-8.017 5.783zm0-20.976c-4.217 0-7.646 3.43-7.646 7.647 0 .867.11 1.85.323 2.844.08.376-.035.766-.305 1.039-.107.11-.228.45-.085.892.135.427.429.649.593.671.385.053.717.297.88.65.86 1.85 2.813 4.956 6.24 4.956 3.35 0 5.32-3.11 6.2-4.963.169-.358.514-.602.91-.644.167-.018.465-.237.604-.67.127-.396.049-.756-.09-.894a1.131 1.131 0 0 1-.31-1.054c.22-.99.333-1.967.333-2.827 0-4.217-3.43-7.647-7.647-7.647z" class="cls-7" transform="translate(-1451.197 -571.601)"/>
                    </g>
                </g>
            </g>
            <g id="Group_3783" data-name="Group 3783" transform="translate(31.901 39.079)">
                <g id="Group_3777" data-name="Group 3777" transform="translate(0 2.223)">
                    <g id="Group_3776" data-name="Group 3776">
                        <g id="Group_3775" data-name="Group 3775">
                            <g id="Group_3774" data-name="Group 3774">
                                <g id="Path_2680" class="cls-5" data-name="Path 2680">
                                    <path d="M1465.338 647.733c-.938 0-1.902-.191-2.866-.568-2.185-.857-6.61-5.129-8.13-6.702l-.017-.017-.016-.015c-1.596-1.5-5.929-5.867-6.812-8.04-.432-1.065-.634-2.127-.602-3.155a6.216 6.216 0 0 1 .956-3.139c.844-1.35 2.27-2.71 2.912-3.289l5.603 5.527c-.21.222-.585.61-1.23 1.25-1.094 1.085-1.797 1.122-1.881 1.123l-1.532-.325.473 1.542c.085.279.263.859 2.72 3.381a90.233 90.233 0 0 0 2.27 2.244 92.33 92.33 0 0 0 2.272 2.239c2.552 2.42 3.131 2.591 3.41 2.674l1.67.493-.458-1.548c.004-.141.08-.859 1.094-1.915a70.386 70.386 0 0 1 1.225-1.254l5.607 5.533c-.569.648-1.907 2.095-3.239 2.958a6.258 6.258 0 0 1-3.43 1.003z" class="cls-6" transform="translate(-1444.804 -620.541)"/>
                                    <path d="M1465.338 646.783a5.317 5.317 0 0 0 2.918-.853c.89-.579 1.796-1.452 2.433-2.123l-4.28-4.225c-.156.16-.338.348-.55.569-.628.655-.783 1.095-.82 1.242l.511 2.853-2.951-.872c-.545-.161-1.287-.518-3.795-2.896a92.08 92.08 0 0 1-2.286-2.251 91.766 91.766 0 0 1-2.283-2.258c-2.415-2.48-2.78-3.22-2.948-3.765l-.946-3.084 2.943.623c.153-.047.566-.22 1.182-.832.218-.216.403-.402.562-.562l-4.281-4.223c-.696.683-1.55 1.609-2.09 2.475-1.245 1.99-.839 4.053-.28 5.432.727 1.788 4.423 5.675 6.582 7.705l.034.032.031.033c2.058 2.13 5.995 5.772 7.794 6.477.853.334 1.701.503 2.52.503m0 1.9c-1.104 0-2.194-.235-3.212-.633-2.857-1.12-8.468-6.927-8.468-6.927s-5.886-5.531-7.041-8.374c-.906-2.235-1.028-4.827.428-7.155 1.201-1.922 3.438-3.804 3.438-3.804a.42.42 0 0 1 .598-.003l6.331 6.246a.422.422 0 0 1-.004.598c-.018.023-.047.035-.071.05 0 0-.258.314-1.533 1.579-1.27 1.26-2.202 1.398-2.55 1.398-.098 0-.15-.011-.15-.011.313 1.022 4.749 5.227 4.749 5.227s4.26 4.375 5.284 4.678c0 0-.197-1.103 1.352-2.717 1.243-1.296 1.508-1.529 1.55-1.565 0 0 .035-.045.056-.064a.425.425 0 0 1 .604-.007l6.326 6.244a.42.42 0 0 1 0 .599s-1.846 2.259-3.746 3.489a7.2 7.2 0 0 1-3.941 1.152z" class="cls-7" transform="translate(-1444.804 -620.541)"/>
                                </g>
                                <g id="Path_2681" class="cls-5" data-name="Path 2681">
                                    <path d="M1465.13 648.67c-1.077 0-2.18-.218-3.277-.648-2.297-.9-6.422-4.78-8.497-6.931l-.015-.016-.017-.016c-.606-.572-5.958-5.666-7.088-8.444-1.048-2.588-.89-5.19.446-7.323 1.08-1.73 2.937-3.38 3.31-3.702l.039-.02.111-.113a.613.613 0 0 1 .437-.169c.167 0 .324.06.43.164l6.338 6.251c.22.232.225.595.016.83a5.069 5.069 0 0 0-.02.017l-.022.02-.065.051-.053.06c-.15.168-.54.587-1.471 1.51-.471.467-.946.83-1.41 1.08l-1.054.567.79.898c.881 1.002 2.347 2.5 3.737 3.819 1.323 1.356 2.828 2.791 3.837 3.66l.915.787.55-1.073c.243-.473.597-.953 1.051-1.426.971-1.011 1.36-1.393 1.515-1.534l.048-.044.042-.05a.598.598 0 0 1 .014-.017.628.628 0 0 1 .427-.16c.168 0 .323.06.438.17l6.313 6.231.004.004.004.004a.61.61 0 0 1 .02.848l-.015.015-.014.017c-.194.234-1.951 2.322-3.777 3.503-.263.167-.495.3-.711.405l-.003.001-.003.002a7.38 7.38 0 0 1-3.32.772zm-11.526-7.864c.334.344 5.674 5.802 8.385 6.866 1.05.41 2.103.619 3.133.619a7.04 7.04 0 0 0 3.835-1.113l.007-.004.006-.004c1.318-.852 2.622-2.22 3.281-2.96l.602-.673-.643-.635-5.347-5.277-.673-.664-.667.67c-.308.31-.68.69-1.102 1.133-.825.858-1.147 1.568-1.265 2.05l-.094.17.057.33a.19.19 0 0 1-.243.216c-.176-.052-1.274-.526-5.331-4.695l-.013-.013-.014-.013c-4.257-4.038-4.745-5.131-4.8-5.31a.764.764 0 0 1-.04-.258.615.615 0 0 1 .042-.032l.152.059h.176c.25 0 1.161-.097 2.419-1.344.456-.454.831-.833 1.115-1.128l.652-.676-.669-.66-5.344-5.27-.642-.634-.666.609c-.727.664-2.071 1.98-2.913 3.326-1.627 2.603-1.123 5.234-.414 6.983 1.105 2.718 6.612 7.949 7.018 8.332z" class="cls-6" transform="translate(-1444.599 -620.338)"/>
                                    <path d="M1465.13 649.62c-1.197 0-2.415-.24-3.623-.713-3.003-1.176-8.281-6.583-8.835-7.157-.62-.584-6.1-5.789-7.316-8.777-1.166-2.88-.98-5.786.52-8.185 1.28-2.05 3.571-3.989 3.59-3.998a1.56 1.56 0 0 1 1.113-.452c.399 0 .798.145 1.095.436l6.35 6.261a1.57 1.57 0 0 1-.019 2.2h-.001c-.03.025-.06.053-.092.078-.17.19-.579.628-1.511 1.553-.595.589-1.145.981-1.63 1.242.887 1.009 2.354 2.502 3.691 3.77 1.271 1.304 2.784 2.751 3.79 3.617.252-.49.634-1.05 1.211-1.65.557-.58 1.254-1.299 1.56-1.578.024-.03.05-.057.065-.074a1.57 1.57 0 0 1 1.106-.444c.396 0 .795.144 1.1.437l6.319 6.237a1.56 1.56 0 0 1 .063 2.17c-.252.304-2.064 2.449-3.997 3.697a8.32 8.32 0 0 1-4.548 1.33zm-14.576-26.754c-.683.625-1.969 1.881-2.748 3.129-1.414 2.262-.966 4.578-.34 6.122.871 2.141 5.18 6.482 6.805 8.012 1.513 1.566 5.913 5.814 8.065 6.659.94.367 1.88.553 2.786.553a6.109 6.109 0 0 0 3.332-.969c1.232-.796 2.473-2.104 3.088-2.794l-5.346-5.277c-.222.223-.567.574-1.089 1.12-.997 1.037-1.042 1.715-1.052 1.732v-.002.003a1.14 1.14 0 0 1-1.445 1.288c-1.083-.319-3.74-2.882-5.746-4.944-2.122-2.013-4.722-4.637-5.054-5.72-.127-.416-.136-.902.182-1.199.225-.208.455-.33.712-.33.11 0 .223.022.344.069.027 0 .685-.012 1.75-1.068.53-.528.878-.882 1.1-1.113l-5.344-5.271z" class="cls-7" transform="translate(-1444.599 -620.338)"/>
                                </g>
                            </g>
                        </g>
                    </g>
                </g>
                <g id="Group_3782" data-name="Group 3782" transform="translate(15.294)">
                    <g id="Group_3778" data-name="Group 3778" transform="translate(0 8.215)">
                        <g id="Path_2682" class="cls-5" data-name="Path 2682">
                            <path d="M1469.053 634.004a.188.188 0 0 1-.178-.129 8.046 8.046 0 0 0-5.148-5.15.184.184 0 0 1-.11-.093.188.188 0 0 1 .17-.274c.02 0 .04.004.06.01a8.412 8.412 0 0 1 5.385 5.389.188.188 0 0 1-.18.247z" class="cls-6" transform="translate(-1462.646 -627.408)"/>
                            <path d="M1469.053 634.954c-.48 0-.927-.307-1.082-.787a7.092 7.092 0 0 0-4.538-4.539 1.136 1.136 0 0 1 .353-2.22c.117 0 .235.018.352.055a9.367 9.367 0 0 1 5.998 6 1.14 1.14 0 0 1-1.083 1.49z" class="cls-7" transform="translate(-1462.646 -627.408)"/>
                        </g>
                    </g>
                    <g id="Group_3779" data-name="Group 3779" transform="translate(1.364 4.121)">
                        <g id="Path_2683" class="cls-5" data-name="Path 2683">
                            <path d="M1473.393 631.901a.192.192 0 0 1-.18-.13 12.309 12.309 0 0 0-7.875-7.876.19.19 0 0 1-.122-.238.187.187 0 0 1 .24-.12 12.69 12.69 0 0 1 8.117 8.117.191.191 0 0 1-.119.239.216.216 0 0 1-.06.008z" class="cls-6" transform="translate(-1464.257 -622.578)"/>
                            <path d="M1473.393 632.851a1.14 1.14 0 0 1-1.083-.785 11.356 11.356 0 0 0-7.267-7.268 1.139 1.139 0 0 1 .704-2.165 13.645 13.645 0 0 1 8.73 8.728 1.142 1.142 0 0 1-.731 1.436 1.165 1.165 0 0 1-.353.054z" class="cls-7" transform="translate(-1464.257 -622.578)"/>
                        </g>
                    </g>
                    <g id="Group_3780" data-name="Group 3780" transform="translate(1.27 4.121)">
                        <g id="Path_2684" class="cls-5" data-name="Path 2684">
                            <path d="M1473.282 631.901a.189.189 0 0 1-.178-.127 12.321 12.321 0 0 0-7.878-7.88.19.19 0 0 1-.121-.238.19.19 0 0 1 .24-.119 12.692 12.692 0 0 1 8.116 8.117.192.192 0 0 1-.119.239.214.214 0 0 1-.06.008z" class="cls-6" transform="translate(-1464.145 -622.578)"/>
                            <path d="M1473.282 632.851c-.48 0-.927-.305-1.082-.785a11.366 11.366 0 0 0-7.269-7.268 1.14 1.14 0 0 1 .705-2.165 13.648 13.648 0 0 1 8.728 8.728 1.142 1.142 0 0 1-.73 1.436 1.164 1.164 0 0 1-.352.054z" class="cls-7" transform="translate(-1464.145 -622.578)"/>
                        </g>
                    </g>
                    <g id="Group_3781" data-name="Group 3781" transform="translate(2.042)">
                        <g id="Path_2685" class="cls-5" data-name="Path 2685">
                            <path d="M1477.713 630.562a.189.189 0 0 1-.18-.139c-1.52-5.607-5.777-9.864-11.387-11.388a.184.184 0 0 1-.114-.087.185.185 0 0 1-.019-.144.187.187 0 0 1 .228-.132c5.745 1.561 10.1 5.917 11.655 11.652a.189.189 0 0 1-.132.23l-.004.002h-.003a.16.16 0 0 1-.044.006z" class="cls-6" transform="translate(-1465.056 -617.715)"/>
                            <path d="M1477.713 631.512c-.502 0-.96-.334-1.098-.84-1.43-5.278-5.437-9.285-10.718-10.72a1.138 1.138 0 1 1 .596-2.196c6.07 1.65 10.676 6.255 12.32 12.32a1.139 1.139 0 0 1-1.1 1.436z" class="cls-7" transform="translate(-1465.056 -617.715)"/>
                        </g>
                    </g>
                </g>
            </g>
            <g id="Group_3790" data-name="Group 3790" transform="translate(0 50.008)">
                <g id="Group_3785" data-name="Group 3785" transform="translate(0 19.169)">
                    <g id="Group_3784" data-name="Group 3784">
                        <g id="Path_2686" class="cls-5" data-name="Path 2686">
                            <path d="M1435.741 667.078H1408.807c.02-.798.08-2.396.273-3.663.152-1 .292-1.743.708-2.188.418-.448 1.203-.71 2.623-.873l.252-.03c1.412-.16 4.348-.495 5.563-1.189.655-.374 1.05-1.257 1.206-2.7.056-.519.07-1.01.069-1.36H1425.048c0 .35.012.84.068 1.36.156 1.443.551 2.326 1.207 2.7 1.217.694 4.153 1.03 5.565 1.19l.25.029c1.42.164 2.205.425 2.623.873.416.445.557 1.188.71 2.188.192 1.269.252 2.865.27 3.663z" class="cls-6" transform="translate(-1407.16 -653.437)"/>
                            <path d="M1435.227 666.578c-.03-.845-.097-2.075-.251-3.087-.16-1.054-.289-1.61-.58-1.923-.322-.344-1.058-.572-2.316-.718l-.249-.028c-2.311-.264-4.608-.598-5.756-1.252-.805-.46-1.281-1.468-1.456-3.082a12.411 12.411 0 0 1-.063-.913h-4.564c-.01.278-.028.59-.063.913-.175 1.614-.65 2.622-1.455 3.082-1.146.654-3.443.988-5.754 1.252l-.251.028c-1.258.146-1.994.374-2.316.718-.291.312-.419.869-.579 1.922-.153 1.011-.222 2.242-.252 3.088h25.905m1.022 1H1408.3s.011-2.425.286-4.238c.344-2.263.632-3.121 3.769-3.483 1.187-.138 4.421-.47 5.624-1.156 1.203-.687 1.011-4.126 1.011-4.126h6.571s-.194 3.439 1.01 4.126c1.205.687 4.437 1.018 5.625 1.156 3.137.362 3.425 1.22 3.77 3.483.275 1.813.284 4.238.284 4.238z" class="cls-7" transform="translate(-1407.16 -653.437)"/>
                        </g>
                        <g id="Path_2687" class="cls-5" data-name="Path 2687">
                            <path d="M1436.044 668.011h-27.95a.639.639 0 0 1-.639-.64v-.026c.007-.599.047-2.68.294-4.306.388-2.547.887-3.624 4.326-4.021l.248-.028c3.693-.422 4.686-.792 5.112-1.034l.046-.026.04-.036c.587-.523.675-2.576.625-3.489a.64.64 0 0 1 .638-.673h6.57a.637.637 0 0 1 .638.674c-.05.909.032 2.956.604 3.472l.04.037.047.026c.905.518 3.357.846 5.123 1.048h.006l.253.029c3.44.397 3.939 1.474 4.325 4.02.235 1.55.283 3.516.293 4.288v.047a.64.64 0 0 1-.639.638zm-16.595-13.003l-.02.48c-.044 1.07-.276 2.954-1.34 3.562-1.093.625-3.455.961-5.621 1.208l-.246.028c-2.71.313-2.889.826-3.21 2.947-.12.78-.204 1.783-.252 2.982l-.02.52h26.659l-.02-.52c-.048-1.205-.133-2.21-.251-2.984-.322-2.12-.501-2.632-3.213-2.945l-.247-.028c-2.166-.247-4.527-.584-5.618-1.208-1.065-.608-1.298-2.493-1.342-3.562l-.02-.48h-5.24z" class="cls-6" transform="translate(-1406.955 -653.232)"/>
                            <path d="M1436.044 667.511a.135.135 0 0 0 .098-.04.143.143 0 0 0 .041-.097v-.041c-.01-.763-.058-2.7-.288-4.22-.179-1.18-.387-2.017-.87-2.536-.509-.546-1.468-.883-3.015-1.062l-.255-.029h-.006c-2.915-.334-4.554-.676-5.314-1.11l-.094-.054-.08-.072c-.226-.205-.507-.587-.675-1.742a11.241 11.241 0 0 1-.094-2.127.142.142 0 0 0-.039-.107.138.138 0 0 0-.098-.042h-6.57a.137.137 0 0 0-.1.043.14.14 0 0 0-.04.103c.007.124.155 3.047-.792 3.89l-.08.07-.091.053c-.748.424-2.382.762-5.303 1.096l-.247.027c-1.55.18-2.509.517-3.017 1.062-.483.52-.692 1.356-.871 2.539-.243 1.593-.282 3.645-.289 4.236v.02c0 .04.015.075.043.102.024.024.059.038.096.038h27.95m-17.075-13.003h6.2l.039.96c.067 1.62.474 2.796 1.09 3.148 1.15.657 4.038.987 5.426 1.145l.249.028c1.393.161 2.206.349 2.782.925.585.585.703 1.364.867 2.44.121.794.208 1.817.256 3.041l.041 1.04H1408.22l.04-1.04c.05-1.217.135-2.24.257-3.037.164-1.079.282-1.858.866-2.443.576-.577 1.388-.765 2.783-.926l.245-.028c1.389-.158 4.279-.487 5.43-1.145.615-.351 1.022-1.528 1.088-3.149l.04-.959m17.075 14.003h-27.95a1.135 1.135 0 0 1-1.139-1.142c.002-.103.014-2.531.3-4.405.41-2.693 1.012-4.01 4.763-4.443l.25-.028c.994-.114 4.016-.459 4.92-.972.307-.274.53-1.776.46-3.089a1.142 1.142 0 0 1 1.136-1.2h6.57a1.137 1.137 0 0 1 1.137 1.2c-.072 1.313.152 2.815.44 3.075.923.527 3.946.872 4.938.986l.252.028c3.751.434 4.355 1.75 4.763 4.443.284 1.874.297 4.302.3 4.405 0 .303-.12.593-.334.808a1.134 1.134 0 0 1-.806.334zm-16.115-13.003c-.056 1.363-.366 3.276-1.591 3.976-1.17.668-3.485 1.006-5.814 1.27l-.245.029c-2.433.281-2.478.58-2.773 2.525-.145.948-.213 2.093-.246 2.927h25.619c-.033-.834-.1-1.978-.246-2.929-.295-1.944-.34-2.242-2.775-2.523l-.247-.028c-2.325-.265-4.641-.603-5.809-1.27-1.228-.701-1.537-2.614-1.593-3.977h-4.28z" class="cls-7" transform="translate(-1406.955 -653.232)"/>
                        </g>
                    </g>
                </g>
                <g id="Group_3786" data-name="Group 3786" transform="translate(0 23.283)">
                    <g id="Path_2688" class="cls-5" data-name="Path 2688">
                        <path d="M1435.741 667.819H1408.807c.02-.798.08-2.396.273-3.663.152-1 .292-1.743.708-2.188.418-.448 1.203-.71 2.623-.873l.252-.03c1.358-.154 4.129-.47 5.419-1.112.543.197 2.426 1.392 3.975 2.465l.29.2.286-.204c1.489-1.068 3.303-2.258 3.837-2.46 1.294.642 4.061.957 5.418 1.112l.25.029c1.42.163 2.205.425 2.623.873.416.445.557 1.188.71 2.188.192 1.268.252 2.865.27 3.663z" class="cls-6" transform="translate(-1407.16 -658.292)"/>
                        <path d="M1418.086 660.502c-1.23.53-3.292.824-5.366 1.06l-.251.03c-1.258.144-1.994.373-2.316.717-.291.312-.419.868-.579 1.922-.153 1.01-.222 2.242-.252 3.088h25.905c-.03-.845-.097-2.075-.251-3.087-.16-1.054-.289-1.611-.58-1.923-.322-.344-1.058-.573-2.316-.718l-.249-.028c-2.069-.236-4.127-.529-5.36-1.058-.655.331-2.251 1.386-3.546 2.315l-.573.41-.58-.4c-1.353-.939-3.017-2.003-3.686-2.328m-.055-1.071c.593 0 4.31 2.576 4.31 2.576s3.594-2.576 4.177-2.576c.022 0 .04.004.053.011 1.204.686 4.436 1.018 5.624 1.156 3.137.362 3.425 1.22 3.77 3.483.275 1.813.284 4.238.284 4.238H1408.3s.011-2.425.286-4.238c.344-2.263.632-3.121 3.769-3.483 1.187-.138 4.421-.47 5.624-1.156a.107.107 0 0 1 .053-.011z" class="cls-7" transform="translate(-1407.16 -658.292)"/>
                    </g>
                    <g id="Path_2689" class="cls-5" data-name="Path 2689">
                        <path d="M1436.044 668.752h-27.95a.639.639 0 0 1-.639-.64v-.026c.007-.6.047-2.68.294-4.306.388-2.548.887-3.625 4.326-4.022l.248-.027c1.771-.203 4.225-.531 5.133-1.049a.851.851 0 0 1 .37-.095c.198 0 .722 0 4.019 2.24l.286.195.283-.199c3.18-2.236 3.701-2.236 3.897-2.236.117 0 .277.041.373.096.904.516 3.355.844 5.12 1.046l.008.001.253.029c3.44.397 3.939 1.474 4.325 4.02.235 1.55.283 3.515.293 4.288v.047a.64.64 0 0 1-.639.638zm-18.148-8.853l-.212.088c-1.222.508-3.322.797-5.216 1.012l-.246.028c-2.71.313-2.889.826-3.21 2.947-.12.78-.204 1.783-.252 2.982l-.02.52h26.659l-.02-.52c-.048-1.205-.133-2.21-.251-2.985-.322-2.119-.501-2.631-3.213-2.944l-.247-.028c-1.891-.216-3.989-.504-5.207-1.008l-.216-.09-.207.11c-.741.387-2.37 1.48-3.527 2.31a.634.634 0 0 1-.736.006c-1.25-.865-2.914-1.941-3.674-2.325l-.205-.103z" class="cls-6" transform="translate(-1406.955 -658.087)"/>
                        <path d="M1436.044 668.252a.135.135 0 0 0 .098-.04.143.143 0 0 0 .041-.098v-.04c-.01-.763-.058-2.7-.288-4.22-.179-1.18-.387-2.017-.87-2.536-.509-.546-1.468-.884-3.015-1.063l-.255-.028h-.008c-2.914-.334-4.552-.677-5.308-1.108a.405.405 0 0 0-.128-.032c-.13 0-.779.155-3.61 2.145l-.565.398-.572-.389c-2.86-1.944-3.567-2.154-3.738-2.154a.403.403 0 0 0-.12.028l-.003.002c-.761.434-2.402.777-5.319 1.11h-.005l-.247.028c-1.55.179-2.509.516-3.017 1.062-.483.52-.692 1.356-.871 2.538-.243 1.594-.282 3.645-.289 4.236v.021c0 .039.015.074.043.102.024.024.06.038.096.038h27.95m-18.128-8.903l.41.207c.78.393 2.469 1.485 3.733 2.36.03.02.06.024.08.024.02 0 .05-.004.08-.026 1.2-.861 2.818-1.944 3.587-2.347l.414-.217.432.18c1.161.48 3.216.76 5.072.972l.249.028c1.393.161 2.206.348 2.782.925.585.584.703 1.363.867 2.44.121.794.208 1.817.256 3.041l.041 1.04H1408.22l.04-1.04c.05-1.217.135-2.24.257-3.037.164-1.079.282-1.858.866-2.443.576-.578 1.388-.765 2.782-.926l.247-.028c1.859-.211 3.916-.492 5.08-.976l.424-.177m18.128 9.903h-27.95a1.135 1.135 0 0 1-1.139-1.142c.002-.103.014-2.532.3-4.405.41-2.693 1.012-4.01 4.763-4.443l.25-.028c.994-.114 4.016-.459 4.94-.986.171-.1.42-.161.618-.161.312 0 .876 0 4.3 2.327 3.31-2.327 3.876-2.327 4.185-2.327.199 0 .445.062.62.161.923.527 3.946.872 4.938.986l.252.028c3.751.433 4.355 1.75 4.763 4.443.284 1.873.297 4.302.3 4.405 0 .302-.12.593-.334.808a1.134 1.134 0 0 1-.806.334zm-18.168-8.803c-1.257.523-3.298.813-5.352 1.046l-.245.028c-2.433.282-2.478.58-2.773 2.526-.145.948-.213 2.093-.246 2.927h25.619c-.033-.834-.1-1.978-.246-2.929-.295-1.944-.34-2.242-2.775-2.524l-.247-.028c-2.047-.233-4.084-.522-5.341-1.042-.675.353-2.219 1.377-3.468 2.274a1.136 1.136 0 0 1-1.312.01c-1.31-.906-2.923-1.94-3.614-2.288z" class="cls-7" transform="translate(-1406.955 -658.087)"/>
                    </g>
                </g>
                <g id="Group_3787" data-name="Group 3787" transform="translate(14.862 23.961)">
                    <g id="Path_2690" class="cls-5" data-name="Path 2690">
                        <path d="M1438.417 667.941h-11.635l4.878-7.158c1.093.198 2.222.327 2.922.407l.231.027c1.42.163 2.205.425 2.624.873.416.445.556 1.188.709 2.188.192 1.269.252 2.865.27 3.663z" class="cls-6" transform="translate(-1424.697 -659.092)"/>
                        <path d="M1431.891 661.331l-4.163 6.11h10.174c-.03-.845-.097-2.075-.25-3.087-.161-1.054-.289-1.61-.58-1.923-.322-.344-1.058-.573-2.317-.718l-.23-.026c-.638-.073-1.63-.186-2.634-.356m-.46-1.1c1.298.255 2.731.407 3.44.489 3.137.362 3.424 1.22 3.769 3.483.275 1.813.285 4.238.285 4.238h-13.089l5.595-8.21z" class="cls-7" transform="translate(-1424.697 -659.092)"/>
                    </g>
                    <g id="Path_2691" class="cls-5" data-name="Path 2691">
                        <path d="M1438.72 668.874h-13.089a.638.638 0 0 1-.527-.999l5.594-8.21a.64.64 0 0 1 .65-.266c1.127.222 2.377.366 3.123.451l.026.003.243.027c3.44.398 3.94 1.475 4.325 4.022.235 1.55.283 3.515.293 4.287v.047a.64.64 0 0 1-.638.638zm-7.204-8.142l-.18.264-3.966 5.82-.532.782H1438.074l-.02-.52c-.048-1.205-.132-2.21-.25-2.985-.322-2.119-.502-2.631-3.213-2.944l-.237-.028a49.399 49.399 0 0 1-2.523-.337l-.315-.052z" class="cls-6" transform="translate(-1424.493 -658.887)"/>
                        <path d="M1438.72 668.374a.135.135 0 0 0 .097-.04.144.144 0 0 0 .042-.098v-.04c-.01-.763-.058-2.7-.288-4.22-.18-1.18-.387-2.017-.871-2.536-.508-.546-1.468-.884-3.015-1.063l-.245-.027-.026-.003c-.754-.087-2.016-.231-3.163-.458a.139.139 0 0 0-.14.058l-5.593 8.21a.14.14 0 0 0-.01.143.14.14 0 0 0 .123.074h13.089m-7.437-8.187l.63.104c1 .166 2.009.278 2.494.333h.005l.236.028c1.394.161 2.207.348 2.783.925.585.584.703 1.363.866 2.44.122.794.208 1.817.257 3.041l.041 1.04h-12.703l1.065-1.563 3.966-5.82.36-.528m7.437 9.187h-13.089a1.14 1.14 0 0 1-.94-1.78l5.593-8.21a1.142 1.142 0 0 1 1.16-.476c1.12.221 2.364.363 3.11.448l.242.028c3.752.433 4.355 1.75 4.764 4.443.284 1.873.296 4.302.299 4.405 0 .302-.119.593-.333.808a1.134 1.134 0 0 1-.806.334zm-6.97-8.096l-3.966 5.82h9.77c-.033-.834-.1-1.978-.245-2.929-.295-1.944-.34-2.242-2.776-2.524l-.238-.028a49.353 49.353 0 0 1-2.545-.34z" class="cls-7" transform="translate(-1424.493 -658.887)"/>
                    </g>
                </g>
                <g id="Group_3788" data-name="Group 3788" transform="translate(0 23.961)">
                    <g id="Path_2692" class="cls-5" data-name="Path 2692">
                        <path d="M1420.443 667.941h-11.636c.02-.798.08-2.396.273-3.663.152-1 .292-1.743.708-2.188.418-.448 1.203-.71 2.623-.873l.226-.026c.702-.08 1.832-.21 2.929-.408l4.877 7.158z" class="cls-6" transform="translate(-1407.16 -659.092)"/>
                        <path d="M1419.497 667.441l-4.163-6.11c-1.007.17-2 .284-2.64.356l-.225.026c-1.258.145-1.994.374-2.316.718-.291.312-.419.868-.579 1.922-.153 1.011-.222 2.242-.252 3.088h10.175m1.892 1h-13.09s.011-2.425.286-4.238c.344-2.263.632-3.121 3.769-3.483.71-.082 2.14-.234 3.44-.489l5.595 8.21z" class="cls-7" transform="translate(-1407.16 -659.092)"/>
                    </g>
                    <g id="Path_2693" class="cls-5" data-name="Path 2693">
                        <path d="M1421.184 668.874h-13.09a.639.639 0 0 1-.639-.64v-.026c.007-.6.047-2.68.294-4.306.388-2.548.887-3.625 4.326-4.022l.237-.027c.642-.072 1.978-.223 3.155-.454a.64.64 0 0 1 .651.267l5.593 8.21a.64.64 0 0 1-.527.998zm-5.885-8.142l-.315.052c-.986.163-1.95.272-2.526.337l-.237.028c-2.709.313-2.888.826-3.21 2.947-.119.78-.203 1.783-.25 2.982l-.021.52H1419.976l-.533-.782-3.965-5.82-.18-.264z" class="cls-6" transform="translate(-1406.955 -658.887)"/>
                        <path d="M1421.184 668.374c.05 0 .098-.028.12-.071a.141.141 0 0 0-.006-.146l-5.592-8.209a.14.14 0 0 0-.143-.059c-1.197.236-2.547.388-3.194.461l-.237.027c-1.55.179-2.509.516-3.017 1.062-.483.519-.692 1.356-.871 2.538-.243 1.594-.282 3.645-.289 4.236v.021c0 .039.015.074.043.102.024.024.06.038.096.038h13.09m-5.652-8.187l.36.528 3.965 5.82 1.065 1.563H1408.22l.04-1.04c.05-1.217.135-2.24.257-3.037.164-1.079.282-1.858.866-2.443.576-.578 1.388-.765 2.781-.926l.238-.027a50.21 50.21 0 0 0 2.5-.334l.63-.104m5.652 9.187h-13.09a1.135 1.135 0 0 1-1.139-1.142c.002-.103.014-2.532.3-4.405.41-2.693 1.012-4.01 4.763-4.443l.238-.028c.744-.083 1.99-.227 3.114-.448a1.138 1.138 0 0 1 1.161.476l5.593 8.21a1.138 1.138 0 1 1-.94 1.78zm-6.119-8.096c-.977.16-1.93.27-2.55.34l-.236.027c-2.433.282-2.478.58-2.773 2.526-.145.948-.213 2.093-.246 2.927h9.77l-3.965-5.82z" class="cls-7" transform="translate(-1406.955 -658.887)"/>
                    </g>
                </g>
                <g id="Group_3789" data-name="Group 3789" transform="translate(5.062)">
                    <g id="Path_2694" class="cls-5" data-name="Path 2694">
                        <path d="M1423.186 652.431c-3.781 0-5.894-3.337-6.817-5.326l-.116-.248-.271-.037c-.476-.064-.925-.51-1.118-1.11-.187-.584-.09-1.202.241-1.535l.19-.192-.056-.265a14.584 14.584 0 0 1-.339-2.977c0-4.568 3.717-8.285 8.286-8.285 4.569 0 8.285 3.717 8.285 8.285 0 .903-.12 1.929-.349 2.966l-.06.269.196.193c.338.334.437.954.25 1.542-.194.603-.665 1.06-1.147 1.11l-.28.03-.12.253c-.745 1.575-1.707 2.886-2.78 3.791-1.21 1.02-2.553 1.536-3.995 1.536z" class="cls-6" transform="translate(-1413.133 -630.817)"/>
                        <path d="M1423.186 651.931c3.425 0 5.432-3.158 6.324-5.04l.24-.508.56-.06c.244-.025.57-.296.72-.765.146-.453.048-.863-.124-1.034l-.39-.387.118-.538c.22-1.002.337-1.99.337-2.858 0-4.293-3.492-7.785-7.785-7.785s-7.786 3.492-7.786 7.785c0 .876.114 1.869.328 2.873l.112.529-.38.383c-.169.17-.264.58-.12 1.03.149.462.469.737.709.769l.542.073.231.497c.701 1.51 1.61 2.76 2.626 3.616 1.12.942 2.378 1.42 3.738 1.42m0 1c-3.416 0-5.844-2.54-7.271-5.615-.648-.087-1.267-.646-1.527-1.453-.252-.789-.087-1.587.362-2.04a14.982 14.982 0 0 1-.35-3.082 8.786 8.786 0 0 1 17.571 0c0 .955-.125 2.004-.36 3.073.457.454.627 1.254.372 2.05-.265.827-.908 1.385-1.57 1.454-1.455 3.074-3.897 5.613-7.227 5.613z" class="cls-7" transform="translate(-1413.133 -630.817)"/>
                    </g>
                    <g id="Path_2695" class="cls-5" data-name="Path 2695">
                        <path d="M1422.981 653.365c-1.554 0-2.998-.472-4.292-1.402-1.313-.945-2.436-2.333-3.337-4.127l-.084-.166-.172-.071c-.693-.287-1.262-.94-1.522-1.746-.247-.775-.176-1.618.19-2.254l.092-.16-.034-.18a15.035 15.035 0 0 1-.264-2.723c0-5.196 4.227-9.424 9.423-9.424 5.197 0 9.425 4.228 9.425 9.424 0 .843-.092 1.755-.273 2.71l-.035.184.094.162c.372.637.444 1.482.193 2.262-.262.827-.848 1.485-1.567 1.761l-.177.069-.088.17c-.906 1.763-2.036 3.14-3.357 4.095-1.3.94-2.719 1.416-4.215 1.416zm0-20.976c-4.492 0-8.147 3.655-8.147 8.147 0 .901.116 1.92.335 2.949a.635.635 0 0 1-.172.582c-.246.252-.403.78-.206 1.396.173.541.585.959 1.004 1.015.216.03.4.165.493.364.91 1.96 2.99 5.246 6.693 5.246 3.622 0 5.722-3.288 6.651-5.249a.632.632 0 0 1 .51-.36c.352-.038.822-.372 1.029-1.015.172-.538.087-1.1-.212-1.4a.631.631 0 0 1-.177-.59c.226-1.02.346-2.036.346-2.938 0-4.492-3.655-8.147-8.147-8.147z" class="cls-6" transform="translate(-1412.928 -630.612)"/>
                        <path d="M1422.981 652.865c1.389 0 2.708-.445 3.922-1.321 1.257-.908 2.335-2.226 3.206-3.92l.174-.338.356-.137c.578-.223 1.053-.763 1.27-1.448.208-.647.152-1.341-.149-1.858l-.188-.322.07-.367c.175-.925.264-1.806.264-2.618 0-4.92-4.004-8.924-8.925-8.924-4.92 0-8.923 4.003-8.923 8.924 0 .83.086 1.714.256 2.632l.067.362-.184.319c-.297.516-.351 1.208-.147 1.85.215.669.678 1.206 1.238 1.438l.343.142.168.333c.865 1.72 1.935 3.048 3.182 3.945 1.207.868 2.553 1.308 4 1.308m0-20.976c4.768 0 8.647 3.88 8.647 8.647 0 .938-.124 1.99-.358 3.047-.01.044.005.09.038.123l.002.002.002.002c.436.436.567 1.184.335 1.906-.24.746-.822 1.292-1.452 1.36a.136.136 0 0 0-.111.078c-.98 2.067-3.206 5.534-7.103 5.534-3.98 0-6.186-3.468-7.146-5.535a.141.141 0 0 0-.107-.08c-.612-.082-1.18-.628-1.414-1.358-.229-.716-.102-1.46.323-1.895l.003-.003.002-.002a.137.137 0 0 0 .038-.126 14.957 14.957 0 0 1-.346-3.053c0-4.768 3.88-8.647 8.647-8.647m0 21.976c-3.34 0-6.192-2.056-8.076-5.804-.821-.34-1.497-1.093-1.807-2.055-.295-.927-.199-1.907.233-2.656a15.501 15.501 0 0 1-.273-2.814c0-5.471 4.45-9.924 9.923-9.924 5.472 0 9.925 4.453 9.925 9.924 0 .883-.096 1.823-.282 2.804.438.75.537 1.733.237 2.667-.314.989-1.013 1.748-1.863 2.075-1.893 3.682-4.792 5.783-8.017 5.783zm0-20.976c-4.217 0-7.647 3.43-7.647 7.647 0 .867.112 1.85.324 2.844.08.376-.035.766-.305 1.039-.108.11-.228.45-.086.892.136.427.43.649.594.671.385.053.717.297.88.65.86 1.85 2.813 4.956 6.24 4.956 3.35 0 5.32-3.11 6.2-4.963.169-.358.513-.602.91-.644.166-.018.465-.237.604-.67.127-.396.048-.756-.09-.894a1.133 1.133 0 0 1-.31-1.054c.22-.99.333-1.967.333-2.827 0-4.217-3.43-7.647-7.647-7.647z" class="cls-7" transform="translate(-1412.928 -630.612)"/>
                    </g>
                </g>
            </g>
            <g id="Group_3797" data-name="Group 3797" transform="translate(66.104 49.935)">
                <g id="Group_3792" data-name="Group 3792" transform="translate(0 19.168)">
                    <g id="Group_3791" data-name="Group 3791">
                        <g id="Path_2696" class="cls-5" data-name="Path 2696">
                            <path d="M1513.746 666.99H1486.811c.02-.798.08-2.395.273-3.662.152-1 .292-1.744.708-2.189.419-.448 1.203-.71 2.623-.873l.253-.03c1.412-.16 4.348-.495 5.562-1.189.656-.373 1.05-1.257 1.207-2.7.056-.519.069-1.009.069-1.36H1503.053c0 .351.012.841.068 1.36.156 1.443.55 2.327 1.206 2.7 1.216.694 4.152 1.029 5.563 1.19l.251.029c1.421.164 2.206.425 2.625.873.416.446.556 1.188.708 2.19.194 1.267.254 2.863.272 3.661z" class="cls-6" transform="translate(-1485.165 -653.349)"/>
                            <path d="M1513.231 666.49c-.03-.845-.097-2.075-.251-3.086-.16-1.055-.288-1.612-.58-1.923-.322-.345-1.058-.573-2.316-.719l-.25-.028c-2.311-.264-4.607-.598-5.755-1.252-.805-.46-1.281-1.467-1.455-3.082a12.473 12.473 0 0 1-.063-.913h-4.564c-.01.278-.028.59-.063.914-.175 1.614-.651 2.622-1.456 3.08-1.145.655-3.442.989-5.753 1.253l-.252.028c-1.258.146-1.994.374-2.316.718-.29.312-.418.869-.579 1.923-.153 1.01-.222 2.24-.252 3.087h25.905m1.023 1h-27.951s.011-2.425.286-4.237c.345-2.264.632-3.122 3.769-3.484 1.187-.138 4.422-.47 5.624-1.156 1.204-.686 1.012-4.126 1.012-4.126h6.571s-.195 3.44 1.01 4.126c1.204.687 4.437 1.018 5.624 1.156 3.137.362 3.425 1.22 3.77 3.484.276 1.812.285 4.237.285 4.237z" class="cls-7" transform="translate(-1485.165 -653.349)"/>
                        </g>
                        <g id="Path_2697" class="cls-5" data-name="Path 2697">
                            <path d="M1514.05 667.923h-27.952a.633.633 0 0 1-.638-.642v-.006c.004-.422.034-2.614.294-4.323.388-2.548.887-3.625 4.325-4.022l.25-.028c3.692-.422 4.684-.792 5.11-1.033l.046-.027.04-.035c.587-.523.675-2.576.626-3.489a.642.642 0 0 1 .638-.674h6.57a.637.637 0 0 1 .638.675c-.05.908.03 2.954.604 3.472l.04.037.047.026c.905.517 3.357.845 5.122 1.047h.006l.252.03c3.44.397 3.94 1.474 4.327 4.021.234 1.545.282 3.51.293 4.284v.05a.641.641 0 0 1-.639.637zm-16.596-13.003l-.02.48c-.045 1.07-.278 2.956-1.34 3.562-1.094.625-3.456.961-5.622 1.208l-.246.028c-2.71.314-2.889.826-3.21 2.947-.12.782-.204 1.786-.25 2.983l-.02.52h26.657l-.02-.52c-.047-1.197-.131-2.201-.251-2.985-.321-2.12-.5-2.632-3.212-2.945l-.247-.028c-2.166-.247-4.527-.584-5.619-1.208-1.065-.607-1.297-2.493-1.341-3.562l-.02-.48h-5.239z" class="cls-6" transform="translate(-1484.96 -653.144)"/>
                            <path d="M1514.05 667.423a.136.136 0 0 0 .097-.04.143.143 0 0 0 .041-.097v-.044c-.01-.763-.058-2.7-.287-4.215-.18-1.182-.389-2.019-.872-2.537-.509-.546-1.468-.883-3.018-1.063l-.252-.029h-.005c-2.915-.334-4.554-.676-5.314-1.11l-.094-.053-.08-.073c-.227-.204-.508-.587-.675-1.742a11.188 11.188 0 0 1-.094-2.127.14.14 0 0 0-.138-.15l-6.57.001a.139.139 0 0 0-.138.147c.006.124.152 3.047-.794 3.89l-.08.07-.091.052c-.747.424-2.38.762-5.3 1.095l-.25.03c-1.55.178-2.508.515-3.016 1.06-.483.52-.692 1.357-.871 2.54-.256 1.675-.286 3.835-.289 4.25v.005a.137.137 0 0 0 .138.14h27.951m-17.075-13.003h6.199l.04.96c.066 1.62.473 2.797 1.09 3.148 1.149.657 4.038.987 5.426 1.145l.249.028c1.393.161 2.206.349 2.782.926.585.585.703 1.364.866 2.44.123.803.21 1.826.257 3.041l.04 1.04H1486.225l.04-1.04c.048-1.216.134-2.238.257-3.038.163-1.078.281-1.857.866-2.443.576-.577 1.388-.765 2.782-.926l.245-.028c1.39-.158 4.279-.487 5.432-1.145.613-.35 1.02-1.528 1.087-3.15l.04-.958m17.075 14.003h-27.95a1.137 1.137 0 0 1-1.139-1.142c0-.103.015-2.531.3-4.404.41-2.694 1.012-4.011 4.762-4.443l.25-.03c.994-.113 4.017-.458 4.92-.97.308-.275.53-1.777.46-3.09a1.142 1.142 0 0 1 1.137-1.2h6.57a1.139 1.139 0 0 1 1.137 1.2c-.073 1.313.151 2.815.44 3.076.922.526 3.945.871 4.937.985l.252.029c3.751.434 4.355 1.749 4.764 4.443.284 1.873.297 4.301.3 4.404a1.137 1.137 0 0 1-1.139 1.142zm-16.115-13.003c-.057 1.363-.367 3.276-1.591 3.976-1.17.668-3.485 1.005-5.814 1.27l-.246.029c-2.431.281-2.478.58-2.772 2.525-.146.948-.214 2.093-.246 2.927h25.618c-.032-.834-.1-1.977-.246-2.928-.294-1.944-.34-2.243-2.774-2.524l-.247-.028c-2.326-.266-4.642-.603-5.81-1.27-1.227-.7-1.537-2.614-1.593-3.977h-4.28z" class="cls-7" transform="translate(-1484.96 -653.144)"/>
                        </g>
                    </g>
                </g>
                <g id="Group_3793" data-name="Group 3793" transform="translate(0 23.283)">
                    <g id="Path_2698" class="cls-5" data-name="Path 2698">
                        <path d="M1513.746 667.731H1486.811c.02-.798.08-2.395.273-3.662.152-1 .292-1.744.708-2.19.419-.447 1.203-.709 2.623-.872l.253-.03c1.358-.154 4.129-.47 5.418-1.112.543.197 2.426 1.392 3.976 2.465l.29.2.286-.204c1.488-1.067 3.302-2.257 3.836-2.46 1.293.641 4.06.957 5.416 1.112l.251.029c1.421.163 2.206.425 2.625.873.416.445.556 1.188.708 2.19.193 1.266.254 2.863.272 3.661z" class="cls-6" transform="translate(-1485.165 -658.204)"/>
                        <path d="M1496.09 660.414c-1.229.53-3.291.824-5.365 1.06l-.252.03c-1.258.144-1.994.372-2.316.717-.29.312-.418.869-.579 1.923-.153 1.01-.222 2.24-.252 3.087h25.905c-.03-.846-.097-2.077-.251-3.087-.16-1.054-.288-1.61-.58-1.923-.322-.344-1.058-.573-2.316-.718l-.25-.029c-2.07-.236-4.127-.528-5.36-1.057-.654.332-2.25 1.387-3.545 2.315l-.572.41-.58-.4c-1.354-.939-3.018-2.002-3.687-2.328m-.055-1.071c.593 0 4.312 2.576 4.312 2.576s3.593-2.576 4.175-2.576c.022 0 .04.004.053.011 1.204.686 4.437 1.018 5.624 1.156 3.137.362 3.425 1.22 3.77 3.484.276 1.812.285 4.237.285 4.237h-27.951s.011-2.425.286-4.237c.345-2.264.632-3.122 3.769-3.484 1.187-.138 4.422-.47 5.624-1.156a.108.108 0 0 1 .053-.011z" class="cls-7" transform="translate(-1485.165 -658.204)"/>
                    </g>
                    <g id="Path_2699" class="cls-5" data-name="Path 2699">
                        <path d="M1514.05 668.664h-27.952a.633.633 0 0 1-.638-.642v-.007c.004-.422.034-2.613.294-4.322.388-2.548.887-3.626 4.325-4.022l.25-.029h.006c3.687-.422 4.691-.8 5.125-1.047a.85.85 0 0 1 .37-.096c.198 0 .723 0 4.02 2.24l.286.195.282-.199c3.181-2.236 3.702-2.236 3.898-2.236.116 0 .276.042.373.097.903.515 3.355.844 5.12 1.046h.007l.252.03c3.44.397 3.94 1.474 4.327 4.02.234 1.546.282 3.511.293 4.284v.05a.642.642 0 0 1-.639.638zm-18.15-8.853l-.212.088c-1.218.508-3.32.796-5.216 1.012l-.246.028c-2.71.313-2.889.826-3.21 2.947-.12.781-.204 1.785-.25 2.983l-.02.519h26.657l-.02-.52c-.047-1.196-.131-2.2-.251-2.984-.321-2.12-.5-2.632-3.212-2.945l-.247-.028c-1.892-.216-3.99-.504-5.208-1.008l-.216-.09-.207.11c-.742.389-2.371 1.48-3.527 2.31a.634.634 0 0 1-.737.006c-1.217-.842-2.918-1.943-3.673-2.325l-.205-.103z" class="cls-6" transform="translate(-1484.96 -657.999)"/>
                        <path d="M1514.05 668.164a.136.136 0 0 0 .097-.04.144.144 0 0 0 .041-.098v-.043c-.01-.763-.058-2.701-.287-4.215-.18-1.182-.389-2.019-.872-2.538-.509-.545-1.468-.883-3.018-1.062l-.252-.029h-.007c-2.914-.334-4.553-.676-5.309-1.108a.408.408 0 0 0-.127-.032c-.13 0-.779.155-3.61 2.145l-.565.398-.572-.389c-2.86-1.944-3.568-2.154-3.738-2.154a.406.406 0 0 0-.12.029l-.003.002c-.761.433-2.4.775-5.316 1.108l-.005.001-.25.029c-1.55.178-2.509.516-3.017 1.061-.483.52-.692 1.356-.871 2.54-.256 1.674-.286 3.834-.289 4.25v.005c0 .039.015.075.04.1.026.026.06.04.098.04h27.951m-18.129-8.903l.41.207c.784.396 2.471 1.487 3.732 2.36.03.02.061.025.081.025.02 0 .05-.004.08-.026 1.2-.86 2.816-1.943 3.586-2.347l.415-.218.432.18c1.16.48 3.216.76 5.073.972l.249.028c1.393.161 2.206.348 2.782.925.585.586.703 1.365.866 2.441.123.803.21 1.826.257 3.04l.04 1.04H1486.225l.04-1.039c.048-1.216.134-2.239.257-3.038.163-1.078.281-1.857.866-2.443.576-.577 1.388-.765 2.782-.926l.246-.028c1.86-.211 3.92-.493 5.08-.976l.424-.177m18.13 9.903h-27.952a1.137 1.137 0 0 1-1.138-1.142c0-.103.015-2.532.3-4.404.41-2.694 1.012-4.011 4.762-4.444l.25-.028c.994-.114 4.017-.459 4.941-.985.171-.1.42-.162.617-.162.312 0 .877 0 4.3 2.327 3.31-2.327 3.876-2.327 4.186-2.327.199 0 .445.063.62.162.922.526 3.945.871 4.937.985l.252.028c3.751.434 4.355 1.75 4.764 4.444.284 1.872.297 4.301.3 4.404a1.137 1.137 0 0 1-1.139 1.142zm-18.17-8.803c-1.256.524-3.298.813-5.351 1.046l-.246.028c-2.431.282-2.478.58-2.772 2.526-.146.948-.214 2.093-.246 2.927h25.618c-.032-.834-.1-1.977-.246-2.928-.294-1.944-.34-2.243-2.774-2.525l-.247-.028c-2.047-.233-4.085-.522-5.342-1.042-.674.353-2.218 1.377-3.468 2.275a1.136 1.136 0 0 1-1.312.01c-1.31-.906-2.922-1.94-3.614-2.29z" class="cls-7" transform="translate(-1484.96 -657.999)"/>
                    </g>
                </g>
                <g id="Group_3794" data-name="Group 3794" transform="translate(14.862 23.961)">
                    <g id="Path_2700" class="cls-5" data-name="Path 2700">
                        <path d="M1516.422 667.853h-11.635l4.877-7.158c1.086.198 2.21.326 2.908.406l.245.028c1.42.163 2.205.425 2.624.873.416.445.556 1.188.709 2.19.193 1.266.253 2.863.272 3.661z" class="cls-6" transform="translate(-1502.702 -659.004)"/>
                        <path d="M1509.895 661.243l-4.162 6.11h10.174c-.03-.846-.097-2.076-.252-3.087-.16-1.054-.288-1.61-.58-1.923-.321-.344-1.057-.573-2.316-.718l-.243-.028a48.929 48.929 0 0 1-2.62-.354m-.46-1.1c1.297.256 2.731.407 3.439.489 3.137.362 3.424 1.22 3.769 3.484.276 1.812.286 4.237.286 4.237h-13.089l5.594-8.21z" class="cls-7" transform="translate(-1502.702 -659.004)"/>
                    </g>
                    <g id="Path_2701" class="cls-5" data-name="Path 2701">
                        <path d="M1516.725 668.786h-13.089a.637.637 0 1 1-.528-.997l5.595-8.211a.64.64 0 0 1 .65-.267c1.121.222 2.368.366 3.113.451l.035.004.244.027c3.438.398 3.938 1.475 4.325 4.022.235 1.549.283 3.513.293 4.286v.047a.642.642 0 0 1-.638.638zm-7.205-8.142l-.18.264-3.965 5.82-.533.782H1516.078l-.02-.52c-.046-1.195-.13-2.199-.25-2.984-.322-2.12-.5-2.632-3.212-2.945l-.238-.028c-.492-.055-1.51-.17-2.523-.337l-.315-.052z" class="cls-6" transform="translate(-1502.497 -658.799)"/>
                        <path d="M1516.725 668.286a.136.136 0 0 0 .097-.04.143.143 0 0 0 .042-.098l-.001-.04c-.01-.763-.057-2.7-.287-4.218-.18-1.182-.388-2.019-.872-2.538-.508-.545-1.467-.883-3.015-1.062l-.245-.027-.035-.004c-.752-.087-2.012-.231-3.152-.457a.142.142 0 0 0-.141.058l-5.595 8.212a.14.14 0 0 0-.009.141.142.142 0 0 0 .124.073h13.089m-7.438-8.187l.63.104c.999.165 2.008.278 2.494.333h.005l.237.028c1.394.161 2.206.348 2.783.926.585.585.703 1.364.865 2.44.124.804.21 1.827.257 3.041l.04 1.039H1503.896l1.065-1.563 3.966-5.82.36-.528m7.438 9.187h-13.089c-.423 0-.81-.233-1.008-.605a1.14 1.14 0 0 1 .067-1.174l5.594-8.21a1.142 1.142 0 0 1 1.16-.477c1.12.222 2.364.364 3.109.45l.242.027c3.752.433 4.355 1.749 4.765 4.443.284 1.872.296 4.301.299 4.404a1.137 1.137 0 0 1-1.139 1.142zm-6.971-8.096l-3.966 5.82h9.77c-.032-.834-.1-1.977-.245-2.928-.294-1.944-.34-2.243-2.775-2.525l-.239-.028c-.62-.069-1.572-.178-2.545-.34z" class="cls-7" transform="translate(-1502.497 -658.799)"/>
                    </g>
                </g>
                <g id="Group_3795" data-name="Group 3795" transform="translate(0 23.96)">
                    <g id="Path_2702" class="cls-5" data-name="Path 2702">
                        <path d="M1498.447 667.853h-11.636c.02-.798.08-2.395.273-3.662.152-1 .292-1.744.708-2.189.419-.448 1.203-.71 2.623-.873l.238-.027c.699-.08 1.826-.208 2.918-.407l4.876 7.158z" class="cls-6" transform="translate(-1485.165 -659.004)"/>
                        <path d="M1497.501 667.353l-4.162-6.11c-1.002.17-1.992.283-2.63.355l-.236.027c-1.258.145-1.994.374-2.316.718-.29.312-.418.869-.579 1.923-.153 1.01-.222 2.24-.252 3.087h10.175m1.892 1h-13.09s.011-2.425.286-4.237c.345-2.264.632-3.122 3.769-3.484.71-.082 2.142-.233 3.442-.489l5.593 8.21z" class="cls-7" transform="translate(-1485.165 -659.004)"/>
                    </g>
                    <g id="Path_2703" class="cls-5" data-name="Path 2703">
                        <path d="M1499.188 668.786h-13.09a.633.633 0 0 1-.638-.642v-.007c.004-.422.034-2.613.294-4.322.388-2.548.887-3.626 4.325-4.022l.238-.027c.749-.085 2.003-.228 3.154-.455a.638.638 0 0 1 .651.267l5.594 8.21a.64.64 0 0 1-.528.998zm-5.884-8.142l-.315.052c-.959.158-1.895.266-2.515.337l-.012.001-.235.026c-2.71.314-2.89.827-3.21 2.948-.12.781-.205 1.785-.251 2.983l-.02.519h11.235l-.533-.782-3.965-5.82-.18-.264z" class="cls-6" transform="translate(-1484.96 -658.799)"/>
                        <path d="M1499.188 668.286a.138.138 0 0 0 .115-.216l-5.594-8.21a.142.142 0 0 0-.14-.059c-1.172.232-2.439.376-3.196.462l-.237.027c-1.55.179-2.508.516-3.016 1.061-.483.52-.692 1.356-.871 2.54-.256 1.674-.286 3.834-.289 4.25v.005c0 .039.015.075.04.1.026.026.06.04.098.04h13.09m-5.65-8.187l.358.528 3.966 5.82 1.064 1.563h-12.7l.04-1.039c.047-1.216.133-2.239.256-3.038.163-1.078.281-1.857.866-2.443.576-.577 1.388-.765 2.784-.926l.233-.026.012-.002c.615-.07 1.544-.177 2.49-.333l.63-.104m5.65 9.187h-13.089a1.137 1.137 0 0 1-1.138-1.142c0-.103.015-2.532.3-4.404.41-2.694 1.012-4.011 4.762-4.444l.238-.027c.745-.084 1.99-.227 3.114-.449a1.137 1.137 0 0 1 1.161.476l5.594 8.211c.237.349.262.8.066 1.174a1.14 1.14 0 0 1-1.007.605zm-6.117-8.096c-.977.16-1.931.27-2.55.341l-.237.026c-2.431.282-2.478.58-2.772 2.526-.146.948-.214 2.093-.246 2.927h9.77l-3.965-5.82z" class="cls-7" transform="translate(-1484.96 -658.799)"/>
                    </g>
                </g>
                <g id="Group_3796" data-name="Group 3796" transform="translate(5.061)">
                    <g id="Path_2704" class="cls-5" data-name="Path 2704">
                        <path d="M1501.19 652.344c-3.78 0-5.894-3.337-6.818-5.327l-.115-.248-.272-.037c-.475-.063-.924-.51-1.117-1.11-.186-.582-.09-1.2.241-1.536l.19-.192-.056-.264a14.582 14.582 0 0 1-.338-2.976c0-4.569 3.717-8.286 8.285-8.286 4.569 0 8.286 3.717 8.286 8.286 0 .899-.12 1.924-.35 2.965l-.058.269.195.193c.337.334.437.954.248 1.543-.196.612-.657 1.058-1.146 1.11l-.279.028-.12.254c-.746 1.575-1.707 2.886-2.781 3.791-1.21 1.02-2.553 1.537-3.995 1.537z" class="cls-6" transform="translate(-1491.137 -630.73)"/>
                        <path d="M1501.19 651.844c3.426 0 5.433-3.159 6.324-5.042l.24-.508.56-.058c.244-.026.57-.297.72-.765.146-.454.049-.864-.123-1.034l-.39-.388.117-.537c.221-1.006.338-1.995.338-2.858 0-4.293-3.493-7.786-7.786-7.786-4.293 0-7.785 3.493-7.785 7.786 0 .877.113 1.87.327 2.872l.112.527-.379.384c-.169.172-.265.583-.122 1.032.15.462.47.736.708.768l.544.072.23.498c.702 1.51 1.61 2.761 2.627 3.616 1.12.943 2.378 1.42 3.738 1.42m0 1c-3.416 0-5.844-2.54-7.271-5.615-.647-.087-1.267-.645-1.527-1.452-.252-.789-.087-1.587.362-2.041a14.978 14.978 0 0 1-.349-3.08 8.786 8.786 0 1 1 17.571 0c0 .953-.126 2.002-.36 3.071.457.454.626 1.254.371 2.05-.265.827-.907 1.385-1.57 1.454-1.454 3.074-3.897 5.614-7.227 5.614z" class="cls-7" transform="translate(-1491.137 -630.73)"/>
                    </g>
                    <g id="Path_2705" class="cls-5" data-name="Path 2705">
                        <path d="M1500.985 653.277c-1.554 0-2.997-.472-4.291-1.402-1.313-.944-2.436-2.333-3.337-4.127l-.084-.166-.172-.071c-.694-.287-1.263-.94-1.522-1.746-.248-.775-.177-1.617.19-2.253l.092-.16-.034-.181a15.005 15.005 0 0 1-.264-2.722c0-5.196 4.227-9.424 9.422-9.424 5.197 0 9.425 4.228 9.425 9.424a14.6 14.6 0 0 1-.273 2.71l-.035.184.094.162c.372.636.445 1.481.194 2.26-.263.829-.849 1.487-1.566 1.762l-.178.069-.088.17c-.907 1.763-2.036 3.141-3.357 4.095-1.301.94-2.72 1.416-4.216 1.416zm0-20.976c-4.492 0-8.146 3.655-8.146 8.148 0 .904.115 1.924.334 2.948a.633.633 0 0 1-.17.581c-.248.253-.406.782-.207 1.398.2.629.66.967 1.001 1.014a.645.645 0 0 1 .496.365c.91 1.959 2.989 5.246 6.692 5.246 3.62 0 5.721-3.288 6.652-5.248a.64.64 0 0 1 .51-.362c.351-.038.823-.372 1.028-1.016.173-.538.087-1.1-.213-1.4a.637.637 0 0 1-.175-.589c.226-1.024.346-2.039.346-2.937 0-4.493-3.655-8.148-8.148-8.148z" class="cls-6" transform="translate(-1490.932 -630.525)"/>
                        <path d="M1500.985 652.777c1.389 0 2.709-.444 3.923-1.321 1.257-.908 2.335-2.226 3.206-3.92l.174-.339.357-.137c.577-.22 1.05-.76 1.269-1.448.208-.646.152-1.34-.15-1.855l-.188-.323.07-.368c.175-.923.264-1.803.264-2.617 0-4.92-4.003-8.924-8.925-8.924-4.92 0-8.922 4.004-8.922 8.924 0 .83.086 1.715.256 2.63l.067.363-.184.32c-.297.515-.352 1.208-.147 1.85.215.668.677 1.205 1.237 1.437l.344.142.167.333c.865 1.721 1.936 3.048 3.183 3.945 1.207.868 2.552 1.308 4 1.308m0-20.976c4.767 0 8.647 3.88 8.647 8.648 0 .934-.124 1.986-.357 3.042v.003l-.001.003c-.01.043.005.09.04.124.436.434.568 1.183.337 1.905-.238.748-.822 1.295-1.453 1.362a.137.137 0 0 0-.11.079c-.981 2.067-3.209 5.534-7.104 5.534-3.981 0-6.186-3.468-7.146-5.536a.141.141 0 0 0-.11-.08c-.612-.084-1.179-.63-1.409-1.355-.23-.717-.104-1.462.322-1.898l.003-.003.003-.003a.135.135 0 0 0 .036-.125 14.946 14.946 0 0 1-.345-3.052c0-4.768 3.879-8.648 8.646-8.648m0 21.976c-3.339 0-6.191-2.055-8.075-5.804-.822-.34-1.497-1.092-1.807-2.055-.296-.927-.2-1.906.232-2.656a15.49 15.49 0 0 1-.272-2.813c0-5.472 4.45-9.924 9.922-9.924s9.925 4.452 9.925 9.924c0 .883-.095 1.823-.282 2.804.438.75.538 1.732.237 2.666-.314.99-1.012 1.749-1.862 2.075-1.893 3.683-4.793 5.783-8.018 5.783zm0-20.976c-4.217 0-7.646 3.43-7.646 7.648 0 .867.11 1.85.323 2.844.08.375-.034.766-.305 1.038-.107.11-.228.45-.085.892.135.427.429.65.594.672.384.052.717.297.88.65.86 1.85 2.812 4.956 6.24 4.956 3.35 0 5.32-3.11 6.2-4.963.168-.358.513-.603.908-.645.168-.018.467-.236.605-.67.127-.396.049-.755-.09-.893a1.133 1.133 0 0 1-.31-1.054c.22-.99.334-1.967.334-2.827 0-4.218-3.43-7.648-7.648-7.648z" class="cls-7" transform="translate(-1490.932 -630.525)"/>
                    </g>
                </g>
            </g>
        </g>
    </g>
</svg>
