<svg xmlns="http://www.w3.org/2000/svg" width="18" height="15.509" viewBox="0 0 18 15.509">
    <defs>
        <style>
            .cls-1{fill:#999}
        </style>
    </defs>
    <path id="Path_429" d="M15.178 17.17h-4.521a.908.908 0 0 1-.908-.907v-3.62H8.25v3.619a.908.908 0 0 1-.907.907H2.821a.908.908 0 0 1-.907-.907v-5.31H.871a.866.866 0 0 1-.811-.55.859.859 0 0 1 .215-.949l2.296-2.245V2.965a.909.909 0 0 1 .907-.907h2.87a.91.91 0 0 1 .908.892L8.381 1.9a.911.911 0 0 1 1.237 0l8.106 7.552a.866.866 0 0 1-.6 1.5h-1.038v5.31a.908.908 0 0 1-.908.908zm-4.067-1.361h3.613V10.5a.907.907 0 0 1 .9-.908h.246L9 3.186 5.9 6.079v-2.66H3.932V7.4a.912.912 0 0 1-.272.648L2.083 9.59h.287a.908.908 0 0 1 .905.908v5.31h3.614v-3.619a.909.909 0 0 1 .907-.908H10.2a.909.909 0 0 1 .908.908z" class="cls-1" data-name="Path 429" transform="translate(0 -1.66)"/>
</svg>
