<svg xmlns="http://www.w3.org/2000/svg" id="Group_6463" width="24" height="24" data-name="Group 6463" viewBox="0 0 24 24">
    <defs>
        <style>
            .cls-1{fill:none}.cls-2{fill:#999}
        </style>
    </defs>
    <path id="Rectangle_936" d="M0 0h24v24H0z" class="cls-1" data-name="Rectangle 936"/>
    <path id="Path_73" d="M2291.11 2019.231a2.89 2.89 0 0 1 .671 2.266 2.3 2.3 0 0 1-2.394 2.161.875.875 0 0 0-.09 0v.4a.664.664 0 1 1-1.327 0v-.535c0-.547.228-1.2 1.417-1.2a.978.978 0 0 0 1.065-.992 1.592 1.592 0 0 0-.341-1.227 1.945 1.945 0 0 0-1.521-.535c-1.5 0-1.545.971-1.545 1.081a.664.664 0 1 1-1.328 0 2.568 2.568 0 0 1 2.873-2.409 3.208 3.208 0 0 1 2.52.99zm-2.52 6.061a.831.831 0 1 0 .587.244.84.84 0 0 0-.587-.244zm7.677-2.658a7.634 7.634 0 1 1-7.634-7.634 7.642 7.642 0 0 1 7.634 7.634zm-1.327 0a6.306 6.306 0 1 0-6.306 6.306 6.314 6.314 0 0 0 6.306-6.306z" class="cls-2" data-name="Path 73" transform="translate(-2277 -2011)"/>
</svg>
