<svg xmlns="http://www.w3.org/2000/svg" width="169.422" height="148.613" viewBox="0 0 169.422 148.613">
    <defs>
        <style>
            .cls-1,.cls-3,.cls-4{fill:none;stroke-miterlimit:10}.cls-1,.cls-5,.cls-6{stroke:#bf263f}.cls-1{stroke-width:1.426px;stroke-dasharray:2.341 4.681;opacity:.512}.cls-2{fill:#ed4d67;opacity:.1}.cls-3,.cls-4{stroke:#f7657d;stroke-width:1.17px}.cls-3{opacity:.18}.cls-4{opacity:.14}.cls-5,.cls-6{fill:#fff;stroke-linecap:round;stroke-linejoin:round;stroke-width:1.667px}.cls-5{fill-rule:evenodd}
        </style>
    </defs>
    <g id="_02" data-name="2" transform="translate(-710.81 -57.284)">
        <g id="Group_2358" data-name="Group 2358">
            <g id="Group_2354" data-name="Group 2354">
                <g id="Group_2352" data-name="Group 2352">
                    <path id="Path_826" d="M730.267 91.923c10.873 33.834 16.16 56.833 6.283 89.336-10.608 34.909 61.972 26.781 89.338 6.284 26.017-19.489 70.688-44.273-6.283-89.337-31.954-18.706-100.662-41.52-89.338-6.283z" class="cls-1" data-name="Path 826"/>
                    <path id="Path_777" d="M861.23 83.622c-15.261 34.576-23.409 58.314-16.577 93.791 7.339 38.1-68.522 21.435-95.187-3.286-25.353-23.5-69.842-54.685 16.577-93.79 35.871-16.237 111.076-32.724 95.187 3.285z" class="cls-2" data-name="Path 777"/>
                </g>
                <g id="Group_2356" data-name="Group 2356">
                    <circle id="Ellipse_80" cx="3.297" cy="3.297" r="3.297" class="cls-3" data-name="Ellipse 80" transform="translate(855.371 87.949)"/>
                    <path id="Path_823" d="M863.1 123.588l5.172-2.714.7-5.8 4.18 4.08 5.735-1.129-2.587 5.235 2.845 5.1-5.779-.845-3.973 4.283-.983-5.757z" class="cls-4" data-name="Path 823"/>
                    <path id="Path_828" d="M714.378 58.376l3.389 1.9 3.495-1.713-.762 3.812 2.708 2.788-3.86.454-1.816 3.437-1.623-3.531-3.83-.663 2.857-2.635z" class="cls-4" data-name="Path 828"/>
                    <circle id="Ellipse_81" cx="5.638" cy="5.638" r="5.638" class="cls-3" data-name="Ellipse 81" transform="translate(716.097 175.725)"/>
                </g>
            </g>
        </g>
        <g id="Group_3704" data-name="Group 3704" transform="translate(679.456 -480.672)">
            <g id="Group_3702" data-name="Group 3702" transform="translate(96.376 568.856)">
                <path id="Path_2574" d="M129.949 631.989c1.436.122 1.38 1.245 2.207 2.514.381.585 1.639 1.391 2.308 2.128a24.767 24.767 0 0 1 3.436 4.758l-4.082 8.43 1.35 1.565a101.608 101.608 0 0 0 5.908-9.222 3.175 3.175 0 0 0-.017-2.87c-1.007-2.114-4.441-7.97-5.3-12.942z" class="cls-5" data-name="Path 2574" transform="translate(-107.467 -582.329)"/>
                <path id="Path_2575" d="M165.179 575.232l.708 3.391c1.236-.151 1.874.529 2.711.349 1.76-.379.76-2.779.705-3.918-.114-2.379-.152-4.324-1.032-5.693-.354-.549-.684-.59-.925-.408-.561.426-.475 1.518-.255 2.106-.423 3.092-.951 3.723-1.912 4.173z" class="cls-5" data-name="Path 2575" transform="translate(-115.723 -568.856)"/>
                <path id="Path_2576" d="M148.612 576.838l11.872-.486.555 4.111-11.205 1.409-5.937-.531c-1.697-2.29 1.17-4.004 4.715-4.503z" class="cls-5" data-name="Path 2576" transform="translate(-110.618 -570.613)"/>
                <path id="Path_2577" d="M159.7 606.622l-3.37.8c.185 1.231-.477 1.888-.274 2.72.427 1.75 2.8.683 3.936.6 2.375-.179 4.319-.27 5.663-1.188.539-.368.571-.7.382-.936-.441-.549-1.53-.433-2.112-.2-3.101-.337-3.746-.848-4.225-1.796z" class="cls-5" data-name="Path 2577" transform="translate(-113.576 -577.706)"/>
                <path id="Path_2578" d="M159.062 590.716l.812 11.855-4.094.668-1.717-11.162.367-5.949c2.661-1.716 4.035 1.058 4.632 4.588z" class="cls-5" data-name="Path 2578" transform="translate(-113.118 -572.781)"/>
                <path id="Path_2579" d="M140.738 579.141c1.207-1.547 1.974-1.248 2.746-.861 1.288.645 2.1 2.495 1.374 3.47l-5.725 12.408.4.185 9.077-10.052A1.824 1.824 0 0 1 151 584c.961.537 1.916 1.771 1.56 2.838l-7.748 12.226-5.239 6.8-9.647-4.271 2.328-8.733z" class="cls-5" data-name="Path 2579" transform="translate(-107.462 -570.992)"/>
                <path id="Path_2580" d="M128.461 631.249a9.128 9.128 0 0 0 1.634 1.336c2.457 1.23 4.068-3.723 3.723-4.174-3.156-4.134-6.243-5.653-9.937-8.974-2.833 3.153-6.566 1.848-2.823 4.955 1.506 1.541 1.4 2.426-.111 5.647 1.162 1 2.812.848 3.935 1.9 1.118-1.996 1.886-2.023 3.579-.69z" class="cls-5" data-name="Path 2580" transform="translate(-105.014 -580.709)"/>
                <path id="Path_2581" d="M127.717 622.859c-2.027-1.655-2.409-.251-4.166-1.83-2.832 3.153-6.258.629-2.516 3.736 1.506 1.541 1.4 2.426-.111 5.647a5.528 5.528 0 0 0 2.077.962l.541-1.609a31.745 31.745 0 0 1 2.246-3.416c.672-1.349 1.236-2.087 1.929-3.49z" class="cls-5" data-name="Path 2581" transform="translate(-104.992 -581.082)"/>
                <path id="Path_2582" d="M117.558 625.973c-.646-1.287-1.668-.819-3.155-1.116-.685-.137-1.9-1.006-2.832-1.354a19.049 19.049 0 0 0-5-1.29l-2.762 7.9-1.875-.41 1.718-9.382c.35-1.519.433-1.705 2.771-1.555s8.788 1.486 13.821.25z" class="cls-5" data-name="Path 2582" transform="translate(-100.901 -580.542)"/>
                <path id="Path_2583" d="M133.11 624.434c.016.111.977 2.524 1.123 3.255-.714.894-2 2.553-2.945 3.979a19.5 19.5 0 0 0-2.469-2.116c-1.34-1.04-1.032-2-2.152-2.8a2.858 2.858 0 0 0-1.387-.55l-1.253-4.062-3.664.167a2.841 2.841 0 0 0-.779-.884c-.595-.413-1.841-.266-2.858-.648-1.662-.623-2.4-1.279-3.395-1.652.232-1.386 1.008-3.211 1-4.187 4.845.89 5.649-.243 6.667-1.535l4.877-7.464 1.62-4.973 11.936 6.144-3.363 5.9-1.975 6.868a36.1 36.1 0 0 0-.983 4.558z" class="cls-5" data-name="Path 2583" transform="translate(-103.573 -576.379)"/>
                <g id="Group_3699" data-name="Group 3699" transform="translate(0 48.8)">
                    <path id="Path_2584" d="M100.756 634.946l-.128 2.227 1.711 2.039.984-2.079.523.294.4-1.512-.675-2.7-1.753-.627z" class="cls-5" data-name="Path 2584" transform="translate(-100.596 -632.592)"/>
                    <path id="Path_2585" d="M104.175 637.406c-.079.975-.367 1.564.41 2.028l.478-2.449-.1-.381z" class="cls-5" data-name="Path 2585" transform="translate(-101.399 -633.532)"/>
                    <path id="Path_2586" d="M100.876 637.622l-.281.6c0 .24-.054.387.076.524l1.282 1.425c.139.187.36.331.524.1a5.943 5.943 0 0 0 .394-1.385c-.071-.218-1.478-1.479-1.995-1.264z" class="cls-5" data-name="Path 2586" transform="translate(-100.586 -633.765)"/>
                </g>
                <path id="Path_2587" d="M128.534 632.7l1.492.261-.276-4.1-2.437-.267z" class="cls-5" data-name="Path 2587" transform="translate(-106.849 -582.856)"/>
                <path id="Path_2588" d="M122.287 628.11l-.7-1.345 3.421-1.092.984 2.245z" class="cls-5" data-name="Path 2588" transform="translate(-105.508 -582.171)"/>
                <g id="Group_3700" data-name="Group 3700" transform="translate(10.237 48.442)">
                    <path id="Path_2589" d="M122.835 632.639l-.032-.024a2.368 2.368 0 0 0-.888-.478 3.357 3.357 0 0 0-1.008.155 4.383 4.383 0 0 0-1.316.181 5.408 5.408 0 0 0-.938 1.009c-.142-.287-.845.2-1.045.38-.293.267-.9.648-1.225.96-.186.179-.276.361-.243.462.071.215.266.262.7.115-.165.266-.332.541-.537.815a8.561 8.561 0 0 0-.894 1.351 1.906 1.906 0 0 0-.152 1.311 3.206 3.206 0 0 0 .3.775v.008l.027.048c.009.016.011.018.015.028l.022.037.022.036a.384.384 0 0 0 .025.039.339.339 0 0 0 .021.035l.032.049.015.023c.015.024.033.047.049.07a4.506 4.506 0 0 0 1.652 1.4 3.669 3.669 0 0 0 2.04.4 1.9 1.9 0 0 0 1.174-.59 8.485 8.485 0 0 0 .961-1.3c.189-.288.392-.541.586-.788.013.446.124.611.348.6.106 0 .247-.151.351-.387.182-.413.331-1.113.481-1.481.1-.247.31-1.058.008-1.109a5.213 5.213 0 0 0 .612-1.2 4.445 4.445 0 0 0-.272-1.3 3.472 3.472 0 0 0-.193-1 2.234 2.234 0 0 0-.698-.63z" class="cls-5" data-name="Path 2589" transform="translate(-114.248 -632.124)"/>
                    <path id="Path_2590" d="M122.722 632.558a2.145 2.145 0 0 0-.807-.42 3.357 3.357 0 0 0-1.008.155 4.383 4.383 0 0 0-1.316.181 5.434 5.434 0 0 0-.938 1.009c-.142-.287-.845.2-1.045.38-.293.267-.9.648-1.225.96-.186.179-.276.361-.243.462.071.215.266.262.7.115-.165.266-.332.541-.537.815a8.561 8.561 0 0 0-.894 1.351 1.911 1.911 0 0 0-.152 1.311 3.206 3.206 0 0 0 .3.775v.008l.028.048.015.028.022.037.022.036a.384.384 0 0 0 .025.039.335.335 0 0 0 .021.036l.033.048.015.023c.015.024.033.047.049.07a4.486 4.486 0 0 0 1.584 1.369l5.314-8.81z" class="cls-5" data-name="Path 2590" transform="translate(-114.248 -632.124)"/>
                    <path id="Path_2591" d="M114.377 638.7a11.387 11.387 0 0 1 2.9-3.031 8.043 8.043 0 0 0-1.635 3.406c.225.816 2.719.614 4.207 2.083a4.7 4.7 0 0 0 2.253-1.635c-.878 2.108-1.654 4.521-3.46 4.017-2.177 1.6-5.949-2.197-4.265-4.84z" class="cls-5" data-name="Path 2591" transform="translate(-113.956 -632.954)"/>
                    <path id="Path_2592" d="M114.377 638.7a11.387 11.387 0 0 1 2.9-3.031 8.053 8.053 0 0 0-1.635 3.406c.156.568 1.41.643 2.66 1.13l-2.055 3.407c-1.662-.826-3.005-3.132-1.87-4.912z" class="cls-5" data-name="Path 2592" transform="translate(-113.956 -632.954)"/>
                </g>
                <g id="Group_3701" data-name="Group 3701" transform="translate(21.831 66.94)">
                    <path id="Path_2593" d="M134.223 659.864l-1.9 1.5-2.882-.248 1.234-2.173-.589-.282 1.1-1.3 2.814-1.077 1.652 1.168z" class="cls-5" data-name="Path 2593" transform="translate(-129.179 -656.284)"/>
                    <path id="Path_2594" d="M131.159 658.792c-.818.679-1.162 1.3-2.06.9l1.88-1.955.4-.152z" class="cls-5" data-name="Path 2594" transform="translate(-129.099 -656.589)"/>
                    <path id="Path_2595" d="M132.8 661.731l-.361.627c-.217.146-.309.29-.514.26l-2.067-.25c-.253-.008-.521-.114-.415-.406a6.453 6.453 0 0 1 .985-1.216c.243-.069 2.241.391 2.372.985z" class="cls-5" data-name="Path 2595" transform="translate(-129.174 -657.328)"/>
                </g>
            </g>
            <g id="Group_3703" data-name="Group 3703" transform="translate(82.621 574.142)">
                <path id="Path_2596" d="M101.574 588.312l2.031-2.175-1.855-1.737a1.488 1.488 0 0 0-2.1.073L89.635 595.2a1.485 1.485 0 0 0 .073 2.1l1.855 1.731 2.03-2.174-.767-.716 7.981-8.549z" class="cls-6" data-name="Path 2596" transform="translate(-84.171 -577.692)"/>
                <path id="Path_2597" d="M98.985 621.535a1.492 1.492 0 0 0-1.21.717 2.325 2.325 0 0 0-.331 1.612l6.588 42.656a1.711 1.711 0 0 0 1.563 1.592l26.621-.259a1.722 1.722 0 0 0 1.543-1.608l6.282-42.78a2.32 2.32 0 0 0-.345-1.612 1.476 1.476 0 0 0-1.221-.7zm11.351 43.681a1.645 1.645 0 0 1-1.795-1.613l-4.523-35.159a1.934 1.934 0 0 1 1.3-2.228 1.646 1.646 0 0 1 1.8 1.614l4.523 35.158a1.937 1.937 0 0 1-1.305 2.228zm8.671.139a1.778 1.778 0 0 1-1.58-1.93l-.225-35.6a1.605 1.605 0 1 1 3.138-.031l.225 35.6a1.8 1.8 0 0 1-1.558 1.961zm14.522-37.2l-4.078 35.245a1.66 1.66 0 0 1-1.776 1.648 1.918 1.918 0 0 1-1.33-2.2l4.079-35.243a1.661 1.661 0 0 1 1.777-1.648 1.919 1.919 0 0 1 1.328 2.2z" class="cls-6" data-name="Path 2597" transform="translate(-86.088 -586.398)"/>
                <path id="Path_2598" d="M86.083 612.986l31.737-33.993-3.462-3.233-2.944 3.153-1.821-1.7a.742.742 0 0 0-1.044.036l-6.494 6.956-2.031 2.175-7.981 8.549-2.03 2.174-6.054 6.485a.741.741 0 0 0 .041 1.043l1.821 1.7-3.2 3.422z" class="cls-6" data-name="Path 2598" transform="translate(-82.621 -575.76)"/>
                <path id="Path_2599" d="M124.813 626.111a1.822 1.822 0 0 0-1.556 2l.225 36.321a1.8 1.8 0 0 0 1.58 1.97 1.824 1.824 0 0 0 1.557-2l-.225-36.322a1.8 1.8 0 0 0-1.581-1.969z" class="cls-6" data-name="Path 2599" transform="translate(-92.144 -587.559)"/>
                <path id="Path_2600" d="M139.273 627.9l-4.079 36.234a1.975 1.975 0 0 0 1.33 2.263c.858.158 1.652-.6 1.776-1.694l4.079-36.233a1.977 1.977 0 0 0-1.328-2.264c-.86-.155-1.651.604-1.778 1.694z" class="cls-6" data-name="Path 2600" transform="translate(-94.937 -587.577)"/>
                <path id="Path_2601" d="M107.334 626.482a2.02 2.02 0 0 0-1.3 2.318l4.523 36.572c.135 1.1.939 1.854 1.795 1.678a2.023 2.023 0 0 0 1.3-2.318l-4.523-36.571c-.136-1.104-.939-1.855-1.795-1.679z" class="cls-6" data-name="Path 2601" transform="translate(-88.103 -587.64)"/>
            </g>
        </g>
    </g>
</svg>
