<svg xmlns="http://www.w3.org/2000/svg" width="24" height="24" viewBox="0 0 24 24">
    <defs>
        <style>
            .cls-1{fill:none}.cls-2{clip-path:url(#clip-path)}.cls-3{fill:#999}
        </style>
        <clipPath id="clip-path">
            <path d="M0 0h24v24H0z" class="cls-1"/>
        </clipPath>
    </defs>
    <g id="Component" class="cls-2">
        <path id="Path_128" d="M2078.477 3132h-17.723a1.756 1.756 0 0 0-1.754 1.754v10.227a1.855 1.855 0 0 0 1.754 1.865h5.861v.949l-1.758 1.4a1.049 1.049 0 0 0-.312 1.113.989.989 0 0 0 .88.69h8.316a1.006 1.006 0 0 0 .9-.693.989.989 0 0 0-.288-1.085l-1.735-1.43v-.946h5.862a1.854 1.854 0 0 0 1.754-1.865v-10.227a1.755 1.755 0 0 0-1.757-1.752zm-7.189 15.869l.558.516h-4.546l.6-.52a.959.959 0 0 0 .329-.685v-1.334H2071v1.334a.915.915 0 0 0 .288.689zm7.1-3.869h-17.539v-10.154h17.539z" class="cls-3" data-name="Path 128" transform="translate(-2058 -3129)"/>
        <path id="Rectangle_936" d="M0 0h24v24H0z" class="cls-1" data-name="Rectangle 936"/>
    </g>
</svg>
