<svg xmlns="http://www.w3.org/2000/svg" width="169.42" height="148.613" viewBox="0 0 169.42 148.613">
    <defs>
        <style>
            .cls-1,.cls-3,.cls-4{fill:none;stroke-miterlimit:10}.cls-1{stroke:#bf263f;stroke-width:1.426px;stroke-dasharray:2.341 4.681;opacity:.512}.cls-2{fill:#ed4d67;opacity:.1}.cls-3,.cls-4{stroke:#f7657d;stroke-width:1.17px}.cls-3{opacity:.18}.cls-4{opacity:.14}.cls-5{fill:#fff}.cls-6{fill:#bf2640}
        </style>
    </defs>
    <g id="_19" data-name="19" transform="translate(-711.668 -554.235)">
        <g id="Group_2358" data-name="Group 2358">
            <g id="Group_2354" data-name="Group 2354">
                <g id="Group_2352" data-name="Group 2352">
                    <path id="Path_826" d="M731.124 588.874c10.873 33.834 16.16 56.832 6.283 89.336-10.607 34.909 61.973 26.781 89.338 6.284 26.017-19.489 70.688-44.274-6.283-89.337-31.954-18.707-100.662-41.52-89.338-6.283z" class="cls-1" data-name="Path 826"/>
                    <path id="Path_777" d="M862.088 580.573c-15.262 34.576-23.41 58.314-16.578 93.791 7.339 38.1-68.522 21.435-95.187-3.286-25.353-23.5-69.842-54.685 16.577-93.79 35.871-16.234 111.076-32.724 95.188 3.285z" class="cls-2" data-name="Path 777"/>
                </g>
                <g id="Group_2356" data-name="Group 2356">
                    <circle id="Ellipse_80" cx="3.297" cy="3.297" r="3.297" class="cls-3" data-name="Ellipse 80" transform="translate(856.228 584.9)"/>
                    <path id="Path_823" d="M863.955 620.538l5.172-2.714.7-5.8 4.179 4.08 5.735-1.129-2.589 5.235 2.845 5.1-5.779-.845-3.973 4.283-.983-5.757z" class="cls-4" data-name="Path 823"/>
                    <path id="Path_828" d="M715.235 555.327l3.389 1.9 3.495-1.712-.762 3.812 2.708 2.788-3.859.453-1.817 3.438-1.623-3.531-3.83-.664 2.857-2.635z" class="cls-4" data-name="Path 828"/>
                    <circle id="Ellipse_81" cx="5.638" cy="5.638" r="5.638" class="cls-3" data-name="Ellipse 81" transform="translate(716.954 672.676)"/>
                </g>
            </g>
        </g>
        <g id="Group_3734" data-name="Group 3734">
            <g id="Group_3725" data-name="Group 3725">
                <g id="Group_3724" data-name="Group 3724">
                    <path id="Path_2615" d="M802.812 673.9h-41.189v-84.288h62.818v62.734z" class="cls-5" data-name="Path 2615"/>
                </g>
            </g>
            <g id="Group_3733" data-name="Group 3733">
                <g id="Group_3726" data-name="Group 3726">
                    <path id="Path_2616" d="M804.6 676.141h-41.326a1.353 1.353 0 0 1-1.354-1.356v-83.457a1.355 1.355 0 0 1 1.354-1.356h61.993a1.355 1.355 0 0 1 1.356 1.362l-.237 62.826a1.349 1.349 0 0 1-.392.949l-20.426 20.631a1.361 1.361 0 0 1-.968.401zm-39.971-2.712h39.407l19.639-19.829.232-60.914h-59.275z" class="cls-6" data-name="Path 2616"/>
                </g>
                <g id="Group_3727" data-name="Group 3727">
                    <path id="Path_2617" d="M804.6 676.141a1.356 1.356 0 0 1-1.357-1.356v-10.263c0-8.107 3.577-11.724 11.6-11.724h10.185a1.357 1.357 0 0 1 .965 2.311l-20.425 20.631a1.364 1.364 0 0 1-.968.401zm10.241-20.631c-6.478 0-8.885 2.443-8.885 9.012v6.968l15.821-15.98z" class="cls-6" data-name="Path 2617"/>
                </g>
                <g id="Group_3728" data-name="Group 3728">
                    <path id="Path_2618" d="M780.045 609.492H777.7v-2.1h2.342zm2.4 0v-11.856h4.028a4.753 4.753 0 0 1 4.947 4.946v1.967a4.828 4.828 0 0 1-1.4 3.562 4.92 4.92 0 0 1-3.552 1.381zm2.343-10.021v8.189h1.553a2.412 2.412 0 0 0 2-.88 3.321 3.321 0 0 0 .713-2.231v-1.967a3.451 3.451 0 0 0-.713-2.261 2.473 2.473 0 0 0-2-.85zm17.9 5.158a4.978 4.978 0 0 1-1.368 3.614 5.12 5.12 0 0 1-7.055 0 5.088 5.088 0 0 1-1.368-3.614V602.5a4.888 4.888 0 0 1 1.368-3.59 4.564 4.564 0 0 1 3.5-1.436 4.677 4.677 0 0 1 3.553 1.436 4.884 4.884 0 0 1 1.368 3.59zm-2.342-2.154a3.742 3.742 0 0 0-.685-2.289 2.461 2.461 0 0 0-3.762 0 3.842 3.842 0 0 0-.66 2.289v2.154a3.81 3.81 0 0 0 .685 2.311 2.207 2.207 0 0 0 1.869.88 2.235 2.235 0 0 0 1.868-.88 3.81 3.81 0 0 0 .685-2.311zm13.029 2.976l.028.053a3.862 3.862 0 0 1-1.158 3.031 4.621 4.621 0 0 1-3.292 1.117 4.5 4.5 0 0 1-3.448-1.381 4.895 4.895 0 0 1-1.316-3.537v-2.342a4.958 4.958 0 0 1 1.289-3.534 4.352 4.352 0 0 1 3.345-1.384 4.851 4.851 0 0 1 3.394 1.117 4.006 4.006 0 0 1 1.21 3.086l-.024.053h-2.292a2.651 2.651 0 0 0-.55-1.808 2.269 2.269 0 0 0-1.738-.61 1.93 1.93 0 0 0-1.66.85 3.7 3.7 0 0 0-.63 2.206v2.366a3.563 3.563 0 0 0 .658 2.233 2.121 2.121 0 0 0 1.762.853 2.084 2.084 0 0 0 1.633-.589 2.7 2.7 0 0 0 .525-1.78z" class="cls-6" data-name="Path 2618"/>
                </g>
                <g id="Group_3729" data-name="Group 3729">
                    <path id="Path_2619" d="M814.921 626.583h-41.328a1.357 1.357 0 0 1 0-2.713h41.328a1.357 1.357 0 1 1 0 2.713z" class="cls-6" data-name="Path 2619"/>
                </g>
                <g id="Group_3730" data-name="Group 3730">
                    <path id="Path_2620" d="M814.921 636.153h-41.328a1.357 1.357 0 0 1 0-2.713h41.328a1.357 1.357 0 1 1 0 2.713z" class="cls-6" data-name="Path 2620"/>
                </g>
                <g id="Group_3731" data-name="Group 3731">
                    <path id="Path_2621" d="M814.921 645.723h-41.328a1.355 1.355 0 0 1 0-2.71h41.328a1.355 1.355 0 1 1 0 2.71z" class="cls-6" data-name="Path 2621"/>
                </g>
                <g id="Group_3732" data-name="Group 3732">
                    <path id="Path_2622" d="M794.257 655.271h-20.664a1.356 1.356 0 0 1 0-2.712h20.664a1.356 1.356 0 1 1 0 2.712z" class="cls-6" data-name="Path 2622"/>
                </g>
            </g>
        </g>
    </g>
</svg>
