<svg xmlns="http://www.w3.org/2000/svg" width="24" height="24" viewBox="0 0 24 24">
    <defs>
        <style>
            .cls-1{fill:none}.cls-2{clip-path:url(#clip-path)}.cls-3{fill:#ed4d67}
        </style>
        <clipPath id="clip-path">
            <path d="M0 0h24v24H0z" class="cls-1"/>
        </clipPath>
    </defs>
    <g id="edit_1" class="cls-2" data-name="edit – 1">
        <path id="Rectangle_936" d="M0 0h24v24H0z" class="cls-1" data-name="Rectangle 936"/>
        <path id="Path_682" d="M11.172-2.429l1.459-1.459L10.719-5.8 9.26-4.341v.7h1.208v1.208zm5.528-8.643a.26.26 0 0 0 .013-.415.26.26 0 0 0-.415.013l-4.4 4.4a.26.26 0 0 0-.013.415.26.26 0 0 0 .415-.013zm1.019 7.058v2.39A3.49 3.49 0 0 1 16.651.937 3.49 3.49 0 0 1 14.091 2H3.623A3.49 3.49 0 0 1 1.063.937 3.49 3.49 0 0 1 0-1.623v-10.468a3.49 3.49 0 0 1 1.063-2.56 3.49 3.49 0 0 1 2.56-1.063h10.468a3.461 3.461 0 0 1 1.472.315.381.381 0 0 1 .226.289.392.392 0 0 1-.113.365l-.616.616a.368.368 0 0 1-.4.1 2.238 2.238 0 0 0-.566-.075H3.623a1.938 1.938 0 0 0-1.422.591 1.938 1.938 0 0 0-.591 1.422v10.468A1.938 1.938 0 0 0 2.2-.2a1.938 1.938 0 0 0 1.423.59h10.468a1.938 1.938 0 0 0 1.422-.59 1.938 1.938 0 0 0 .587-1.423v-1.586a.377.377 0 0 1 .113-.277l.805-.805a.378.378 0 0 1 .44-.088.365.365 0 0 1 .256.365zM16.506-13.3l3.624 3.625-8.455 8.454H8.052v-3.623zm5.586 1.661l-1.157 1.157-3.623-3.618 1.157-1.157a1.165 1.165 0 0 1 .856-.352 1.165 1.165 0 0 1 .856.352l1.912 1.912a1.165 1.165 0 0 1 .352.856 1.165 1.165 0 0 1-.352.851z" class="cls-3" data-name="Path 682" transform="translate(1 18.714)"/>
    </g>
</svg>
