<svg xmlns="http://www.w3.org/2000/svg" width="40" height="40" viewBox="0 0 40 40">
    <defs>
        <style>
            .cls-1,.cls-2{fill:none}.cls-1{stroke:#ccc}.cls-3{fill:#ddd}.cls-4{stroke:none}
        </style>
    </defs>
    <g id="Group_3366" data-name="Group 3366" transform="translate(-761 -249)">
        <g id="Ellipse_70" class="cls-1" data-name="Ellipse 70" transform="translate(761 249)">
            <circle cx="20" cy="20" r="20" class="cls-4"/>
            <circle cx="20" cy="20" r="19.5" class="cls-2"/>
        </g>
        <g id="Group_1979" data-name="Group 1979" transform="translate(326 -305)">
            <path id="Rectangle_936" d="M0 0h24v24H0z" class="cls-2" data-name="Rectangle 936" transform="translate(443 562)"/>
            <path id="Path_674" d="M2525 1590.936a1.043 1.043 0 0 0-.01-.107.387.387 0 0 0-.012-.082.926.926 0 0 0-.028-.09.835.835 0 0 0-.031-.089c-.011-.025-.026-.048-.039-.072a.858.858 0 0 0-.055-.092c0-.006-.006-.012-.011-.018l-.043-.047c-.014-.016-.044-.052-.069-.076s-.047-.04-.072-.059-.048-.037-.074-.054a.876.876 0 0 0-.083-.045.824.824 0 0 0-.174-.066c-.031-.008-.057-.016-.086-.021a.984.984 0 0 0-.106-.011c-.021 0-.04-.006-.061-.006h-20.087c-.021 0-.041 0-.062.006a1.03 1.03 0 0 0-.1.011c-.03.005-.058.014-.087.021s-.061.017-.091.028a.847.847 0 0 0-.083.039.878.878 0 0 0-.083.045c-.026.016-.05.035-.074.054s-.049.038-.072.059a.96.96 0 0 0-.069.076c-.014.016-.03.03-.043.047s-.007.012-.011.018a.962.962 0 0 0-.055.092c-.014.024-.029.047-.04.072s-.021.059-.031.089-.021.059-.028.09-.008.055-.011.082-.01.071-.011.107v11.021a.957.957 0 0 0 .957.957h20.087a.957.957 0 0 0 .957-.957v-11a.183.183 0 0 0-.009-.022zm-3.847.977l-7.151 5.31-7.151-5.31zm-16.24 9.087v-8.142l8.516 6.324a.955.955 0 0 0 1.14 0l8.517-6.324V1601z" class="cls-3" data-name="Path 674" transform="translate(-2059 -1022)"/>
        </g>
    </g>
</svg>
