<svg xmlns="http://www.w3.org/2000/svg" width="169.421" height="148.613" viewBox="0 0 169.421 148.613">
    <defs>
        <style>
            .cls-1,.cls-3,.cls-4{fill:none;stroke-miterlimit:10}.cls-1,.cls-5{stroke:#bf263f}.cls-1{stroke-width:1.426px;stroke-dasharray:2.341 4.681;opacity:.512}.cls-2{fill:#ed4d67;opacity:.1}.cls-3,.cls-4{stroke:#f7657d;stroke-width:1.17px}.cls-3{opacity:.18}.cls-4{opacity:.14}.cls-5{fill:#fff;stroke-linecap:round;stroke-linejoin:round;stroke-width:1.9px}
        </style>
    </defs>
    <g id="_03" data-name="3" transform="translate(-925.382 -57.284)">
        <g id="Group_2358" data-name="Group 2358">
            <g id="Group_2354" data-name="Group 2354">
                <g id="Group_2352" data-name="Group 2352">
                    <path id="Path_826" d="M944.839 91.923c10.872 33.834 16.159 56.833 6.283 89.336-10.608 34.909 61.972 26.781 89.337 6.284 26.018-19.489 70.688-44.273-6.283-89.337-31.953-18.706-100.662-41.52-89.337-6.283z" class="cls-1" data-name="Path 826"/>
                    <path id="Path_777" d="M1075.8 83.622c-15.262 34.576-23.409 58.314-16.577 93.791 7.339 38.1-68.523 21.435-95.187-3.286-25.354-23.5-69.843-54.685 16.576-93.79 35.873-16.237 111.079-32.724 95.188 3.285z" class="cls-2" data-name="Path 777"/>
                </g>
                <g id="Group_2356" data-name="Group 2356">
                    <circle id="Ellipse_80" cx="3.297" cy="3.297" r="3.297" class="cls-3" data-name="Ellipse 80" transform="translate(1069.942 87.949)"/>
                    <path id="Path_823" d="M1077.67 123.588l5.172-2.714.7-5.8 4.179 4.08 5.735-1.129-2.589 5.235 2.845 5.1-5.779-.845-3.972 4.283-.983-5.757z" class="cls-4" data-name="Path 823"/>
                    <path id="Path_828" d="M928.949 58.376l3.389 1.9 3.5-1.713-.762 3.812 2.707 2.788-3.859.454-1.824 3.44-1.624-3.531-3.829-.663 2.857-2.635z" class="cls-4" data-name="Path 828"/>
                    <circle id="Ellipse_81" cx="5.638" cy="5.638" r="5.638" class="cls-3" data-name="Ellipse 81" transform="translate(930.668 175.725)"/>
                </g>
            </g>
        </g>
        <g id="Group_6048" data-name="Group 6048" transform="translate(977.651 88.184)">
            <g id="Group_3561" data-name="Group 3561" transform="translate(1.527 19.471)">
                <g id="Group_3559" data-name="Group 3559" transform="translate(0 39.747)">
                    <path id="Path_2327" d="M775.661 170.763v5.748h-8.92c-.165-5.8-4.644-15.863-5.479-24.017.331.075.654.165.978.263a18.809 18.809 0 0 1 13.421 18.006z" class="cls-5" data-name="Path 2327" transform="translate(-713.896 -148.729)"/>
                    <path id="Path_2328" d="M735.9 152.487c-1.053 7.659-4.742 18.218-5.276 24.025h-9.137v-5.748a18.8 18.8 0 0 1 13.421-18.006c.321-.097.651-.188.992-.271z" class="cls-5" data-name="Path 2328" transform="translate(-721.484 -148.73)"/>
                    <path id="Path_2329" d="M772.865 176.594h-43.708c.535-5.807 4.224-16.366 5.276-24.025.42-.1.849-.187 1.278-.255a19.1 19.1 0 0 1 3.1-.256h1a12.422 12.422 0 1 0 22.334 0H763a18.477 18.477 0 0 1 3.84.4c.181.038.369.075.549.12.832 8.152 5.311 18.216 5.476 24.016z" class="cls-5" data-name="Path 2329" transform="translate(-720.02 -148.812)"/>
                    <path id="Path_2330" d="M761.891 158.027a12.423 12.423 0 1 1-23.589-5.449h7.89v-3.246a13.586 13.586 0 0 0 2.292.188h1.834a13.464 13.464 0 0 0 2.277-.188v3.246h8.041a12.382 12.382 0 0 1 1.255 5.449z" class="cls-5" data-name="Path 2330" transform="translate(-718.515 -149.332)"/>
                    <g id="Group_3558" data-name="Group 3558" transform="translate(27.675 3.243)">
                        <path id="Line_376" d="M0 4.276V0" class="cls-5" data-name="Line 376"/>
                        <path id="Line_377" d="M0 4.276V0" class="cls-5" data-name="Line 377" transform="translate(6.402)"/>
                    </g>
                </g>
                <g id="Group_3560" data-name="Group 3560" transform="translate(15.691)">
                    <path id="Path_2331" d="M760.17 130.449v7.17h.015" class="cls-5" data-name="Path 2331" transform="translate(-729.795 -113.188)"/>
                    <path id="Path_2332" d="M765.052 133.214v8.395a14.183 14.183 0 0 1-.586 4.05.538.538 0 0 1-.045.143 14.2 14.2 0 0 1-1.541 3.382h-.007c-.068.12-.151.241-.225.361a14.3 14.3 0 0 1-9.6 6.155 13.467 13.467 0 0 1-2.277.188h-1.831a13.588 13.588 0 0 1-2.292-.188 14.284 14.284 0 0 1-9.476-6.012 9.42 9.42 0 0 1-.361-.556 14.056 14.056 0 0 1-1.4-2.939 1.764 1.764 0 0 1-.06-.2 14.1 14.1 0 0 1-.692-4.388v-8.395s1.022-3.419 5.223-7h.008a26.023 26.023 0 0 1 4-2.766c7.613-4.306 10.318-5.411 10.687-7.5a13.984 13.984 0 0 0 5.749 8.033 11.932 11.932 0 0 1 2.622 2.449 9.754 9.754 0 0 1 2.104 6.788z" class="cls-5" data-name="Path 2332" transform="translate(-734.661 -115.953)"/>
                </g>
                <path id="Path_2333" d="M735.194 130.449v7.17a3.328 3.328 0 0 1-3.329-3.337v-.5a3.338 3.338 0 0 1 3.329-3.329z" class="cls-5" data-name="Path 2333" transform="translate(-719.504 -113.188)"/>
                <path id="Path_2334" d="M763.5 133.778v.5a3.329 3.329 0 0 1-3.314 3.337v-7.17a3.347 3.347 0 0 1 2.1.76 3.111 3.111 0 0 1 .233.218 3.268 3.268 0 0 1 .909 1.683 3.3 3.3 0 0 1 .072.672z" class="cls-5" data-name="Path 2334" transform="translate(-714.101 -113.188)"/>
            </g>
            <path id="Path_2335" d="M784.772 141.692s-1.963 12.708-19.134 10.608a14.2 14.2 0 0 0 1.541-3.382.538.538 0 0 0 .045-.143 14.183 14.183 0 0 0 .586-4.05V143.5a3.329 3.329 0 0 0 3.314-3.337v-.5a3.317 3.317 0 0 0-.977-2.352 3.081 3.081 0 0 0-.233-.218 3.347 3.347 0 0 0-2.1-.76 9.754 9.754 0 0 0-2.1-6.779 11.933 11.933 0 0 0-2.622-2.449 13.984 13.984 0 0 1-5.749-8.033c-.369 2.089-3.075 3.194-10.687 7.5a26.023 26.023 0 0 0-4 2.766h-.008c-4.2 3.577-5.223 7-5.223 7a3.321 3.321 0 0 0-3.329 3.329v.5a3.328 3.328 0 0 0 3.329 3.337v1.225a14.1 14.1 0 0 0 .692 4.388 1.764 1.764 0 0 0 .06.2 14.058 14.058 0 0 0 1.4 2.939c-18.269.917-19.367-10.325-19.367-10.325 7.208-2.008 9.544-10.116 9.65-14.467.059-2.638 0-9.07 0-9.07A18.785 18.785 0 0 1 748.639 99.6h7.944a18.785 18.785 0 0 1 18.788 18.788s-.076 6.433 0 9.07a15.6 15.6 0 0 0 9.401 14.234z" class="cls-5" data-name="Path 2335" transform="translate(-720.202 -99.601)"/>
            <path id="Line_378" d="M.008 0H0" class="cls-5" data-name="Line 378" transform="translate(19.366 52.65)"/>
            <path id="Path_2336" d="M737.046 131.991c.811-2.8 5.976-3.688 7.819 0" class="cls-5" data-name="Path 2336" transform="translate(-716.989 -93.888)"/>
            <path id="Path_2337" d="M750.889 131.991c.812-2.8 5.976-3.688 7.82 0" class="cls-5" data-name="Path 2337" transform="translate(-714.347 -93.888)"/>
            <path id="Path_2338" d="M746.715 133.7v5.663a1.807 1.807 0 0 0 3.614 0v-1.933" class="cls-5" data-name="Path 2338" transform="translate(-715.144 -93.097)"/>
            <path id="Path_2339" d="M744.065 143.248s4.914 2.174 9.337 0" class="cls-5" data-name="Path 2339" transform="translate(-715.65 -91.274)"/>
            <path id="Path_2340" d="M749.448 111.424c0 6.525-17.915 12.259-17.027 19.2" class="cls-5" data-name="Path 2340" transform="translate(-717.877 -97.346)"/>
            <path id="Path_2341" d="M731.864 125.435s.426-3.933 7.945-10.641c3.259-3.263 4.742-5.551 4.742-8.906" class="cls-5" data-name="Path 2341" transform="translate(-717.977 -98.402)"/>
            <path id="Path_2342" d="M744.479 125.25a28.907 28.907 0 0 0-5.425-.676" class="cls-5" data-name="Path 2342" transform="translate(-716.606 -94.837)"/>
            <path id="Path_2343" d="M751.524 125.251a21.065 21.065 0 0 1 8.214-.46" class="cls-5" data-name="Path 2343" transform="translate(-714.227 -94.837)"/>
        </g>
    </g>
</svg>
