<svg xmlns="http://www.w3.org/2000/svg" width="79.364" height="79.361" viewBox="0 0 79.364 79.361">
    <defs>
        <style>
            .cls-1,.cls-16,.cls-19{fill:none}.cls-2,.cls-3{fill:#26449c}.cls-2{opacity:.19}.cls-4{clip-path:url(#clip-path)}.cls-5{fill:#e5eaea}.cls-6{fill:#dda4a4}.cls-7{fill:#cc8383}.cls-8{fill:#eebcc5}.cls-9{fill:#fff}.cls-10{fill:#d98e9d;opacity:.4}.cls-11{fill:#3b96ea}.cls-12{fill:#bcbace;opacity:.5}.cls-13{fill:#62b9f9}.cls-14{fill:#524f63}.cls-15{fill:#625f77}.cls-16{stroke:#e2bc5d}.cls-16,.cls-19{stroke-miterlimit:10}.cls-17{fill:#6790ec}.cls-18{fill:#c5edc7}.cls-19{stroke:#fff}.cls-20{fill:#3a3a37}.cls-21{fill:#3a3a38}.cls-22{fill:#282828}
        </style>
        <clipPath id="clip-path">
            <rect id="Rectangle_976" width="76.965" height="79.357" class="cls-1" data-name="Rectangle 976" rx="12"/>
        </clipPath>
    </defs>
    <g id="Group_3614" data-name="Group 3614">
        <g id="Group_2851" data-name="Group 2851">
            <path id="Path_1018" d="M84.893 111.113c5.728 21.782-22.692-17-44.127-21.511-22.93-4.825-6.889-29.818 12.26-40.73s32.7-10.018 47.389 6.712C129.832 89.1 71.7 60.942 84.893 111.113z" class="cls-2" data-name="Path 1018" transform="translate(-29.473 -41.665)"/>
            <path id="Path_1019" d="M170.244 96.378c19.437 4.682-23.229 10.724-36.209 25.732-13.885 16.054-26.188-7.16-26.188-26.88s6.689-30.038 26.166-34.557c39.02-9.054-8.54 24.922 36.231 35.705z" class="cls-3" data-name="Path 1019" transform="translate(-96.944 -55.98)"/>
            <g id="Group_2850" data-name="Group 2850" transform="translate(1.33 .004)">
                <g id="Group_2849" class="cls-4" data-name="Group 2849">
                    <ellipse id="Ellipse_75" cx="35.883" cy="36.998" class="cls-3" data-name="Ellipse 75" rx="35.883" ry="36.998" transform="translate(99.993 2.882)"/>
                    <g id="Group_2839" data-name="Group 2839" transform="translate(-6.613 -7.723)">
                        <path id="Path_1021" d="M227.939 194.53l-.03-1.164a1.4 1.4 0 0 0-.181-.656l-.656-6.242 1.048-1.672c.5.4 1.1.866 1.1.866l.087-1.316a1.406 1.406 0 0 0-.354-1.032l-.954-1.061a1.915 1.915 0 0 0-.6-.451l-2.894-.545-1.422-3.18-7.023 1.928.937 2.947s.723 6.852 1.29 10.3l.011.445a1.007 1.007 0 1 0 2.012-.055v-.134l.017.662a1.139 1.139 0 1 0 2.276-.062l-.008-.311h.01l.022.867a1.332 1.332 0 0 0 2.663.026 1.332 1.332 0 0 0 2.658-.167z" class="cls-6" data-name="Path 1021" transform="translate(-177.229 -145.084)"/>
                        <path id="Path_1022" d="M257.95 212.711l-1.864-.942-2.435-.769s.611-1.1 1-1.164a20.314 20.314 0 0 1 2.226.087 10.224 10.224 0 0 1 1.159.9c.1.164.49.768.49.768z" class="cls-7" data-name="Path 1022" transform="translate(-208.072 -170.949)"/>
                        <g id="Group_2837" data-name="Group 2837" transform="translate(40.037 40.373)">
                            <path id="Path_1023" d="M226.76 244.243c.276-.452.5-1.064.19-1.489a1.392 1.392 0 0 0-.812-.429 1.785 1.785 0 0 0 1.108-1.467.406.406 0 0 0-.056-.3.4.4 0 0 0-.214-.114 2.735 2.735 0 0 0-1.344-.02c.168 1.308.343 2.577.506 3.568l.011.445a1.058 1.058 0 0 0 .118.459 3.808 3.808 0 0 0 .493-.653z" class="cls-7" data-name="Path 1023" transform="translate(-225.125 -236.193)"/>
                            <path id="Path_1024" d="M224.307 230.38a2.591 2.591 0 0 0 .691-.7 1.066 1.066 0 0 0 .041-1.123 1.349 1.349 0 0 0-1.012-.455c.088.742.182 1.516.28 2.278z" class="cls-7" data-name="Path 1024" transform="translate(-223.807 -226.216)"/>
                            <path id="Path_1025" d="M223.019 219.743a1.7 1.7 0 0 0 .335-.959.853.853 0 0 0-.444-.824l-.1-.056c.059.56.131 1.184.209 1.839z" class="cls-7" data-name="Path 1025" transform="translate(-222.805 -217.903)"/>
                        </g>
                        <path id="Path_1026" d="M222.356 248.911a.909.909 0 0 0 1.129.638l.374-.113a.946.946 0 0 0 .619-1.164.909.909 0 0 0-1.129-.638l-.374.113a.946.946 0 0 0-.619 1.164z" class="cls-8" data-name="Path 1026" transform="translate(-182.37 -201.723)"/>
                        <path id="Path_1027" d="M213.969 216.243a.9.9 0 0 0 1.111.628l.368-.111a.931.931 0 0 0 .609-1.145.9.9 0 0 0-1.111-.628l-.368.111a.931.931 0 0 0-.609 1.145z" class="cls-8" data-name="Path 1027" transform="translate(-175.491 -175.125)"/>
                        <path id="Path_1028" d="M215.707 227.155a.954.954 0 0 0 1.185.669l.977-.294a.993.993 0 0 0 .649-1.221.954.954 0 0 0-1.185-.669l-.977.294a.993.993 0 0 0-.649 1.221z" class="cls-8" data-name="Path 1028" transform="translate(-176.914 -183.801)"/>
                        <path id="Path_1029" d="M218.17 237.737a.914.914 0 0 0 1.135.641l1.5-.45a.951.951 0 0 0 .622-1.17.914.914 0 0 0-1.135-.641l-1.5.45a.951.951 0 0 0-.622 1.17z" class="cls-8" data-name="Path 1029" transform="translate(-178.936 -192.339)"/>
                        <path id="Path_1030" d="M213.083 164.145l-8.239 4.118-.973-3.516 8.6-3.77z" class="cls-9" data-name="Path 1030" transform="translate(-167.237 -131.151)"/>
                        <path id="Path_1031" d="M300.842 251.99l3.2-6.432-4.517 5.571z" class="cls-10" data-name="Path 1031" transform="translate(-245.703 -200.062)"/>
                        <path id="Path_1032" d="M176.259 28.943l4.5 23.758-9.9 4.752-5.609-25.394a1.385 1.385 0 0 1 .976-1.646l8.759-2.3a1.037 1.037 0 0 1 1.274.83z" class="cls-11" data-name="Path 1032" transform="translate(-135.528 -22.876)"/>
                        <path id="Path_1033" d="M212.469 160.976l-8.237 5.076-.361-1.306z" class="cls-12" data-name="Path 1033" transform="translate(-167.237 -131.151)"/>
                        <path id="Path_1034" d="M313.545 252.1l-5.875 8.3 1.331.824z" class="cls-12" data-name="Path 1034" transform="translate(-252.384 -205.391)"/>
                        <path id="Path_1035" d="M278.9 233.48l-1.329-8.081.824 7.873z" class="cls-10" data-name="Path 1035" transform="translate(-227.695 -183.638)"/>
                        <path id="Path_1036" d="M225.057 178.078c-.114.194-6.322 4.132-6.322 4.132l-.267-.839z" class="cls-7" data-name="Path 1036" transform="translate(-179.211 -145.084)"/>
                        <g id="Group_2838" data-name="Group 2838" transform="translate(41.177 49.073)">
                            <path id="Path_1037" d="M230.671 265.127a2.818 2.818 0 0 1-1.518-.266 1 1 0 0 0 .917.556.985.985 0 0 0 .621-.244.638.638 0 0 1-.02-.046z" class="cls-7" data-name="Path 1037" transform="translate(-229.153 -264.861)"/>
                            <path id="Path_1038" d="M269.208 268.556a1.354 1.354 0 0 0 1.3-1.35 1.76 1.76 0 0 0-.305.206 2.22 2.22 0 0 1-2.256.3 1.33 1.33 0 0 0 1.261.844z" class="cls-7" data-name="Path 1038" transform="translate(-260.973 -266.772)"/>
                            <path id="Path_1039" d="M254.24 270.632a1.316 1.316 0 0 0 1.039-.564l-.057.016a2.99 2.99 0 0 1-2.288-.412 1.337 1.337 0 0 0 1.306.96z" class="cls-7" data-name="Path 1039" transform="translate(-248.661 -268.781)"/>
                            <path id="Path_1040" d="M241.235 267.652a1.138 1.138 0 0 0 1.01-.7c-.145-.08-.388.084-.628.116a6.164 6.164 0 0 1-1.488-.208 1.141 1.141 0 0 0 1.106.792z" class="cls-7" data-name="Path 1040" transform="translate(-238.157 -266.49)"/>
                        </g>
                        <path id="Path_1041" d="M215.08 217.295l.275-.083a1.794 1.794 0 0 1-.606-1.742l-.171.052a.931.931 0 0 0-.609 1.145.9.9 0 0 0 1.111.628z" class="cls-10" data-name="Path 1041" transform="translate(-175.491 -175.548)"/>
                        <path id="Path_1042" d="M217.1 228.992a1.729 1.729 0 0 1-.609-1.767 1.093 1.093 0 0 1 .034-.106l-.173.052a.993.993 0 0 0-.649 1.221.954.954 0 0 0 1.185.669l.212-.061z" class="cls-10" data-name="Path 1042" transform="translate(-176.914 -185.039)"/>
                        <path id="Path_1043" d="M219.3 240.284l.152-.046a1.837 1.837 0 0 1-.592-.9 1.313 1.313 0 0 1 .108-.92l-.181.054a.951.951 0 0 0-.622 1.17.914.914 0 0 0 1.135.642z" class="cls-10" data-name="Path 1043" transform="translate(-178.936 -194.245)"/>
                        <path id="Path_1044" d="M222.74 249.376a.869.869 0 0 1 .219-.888l-.018-.015a.947.947 0 0 0-.585 1.152.918.918 0 0 0 .854.675 2.383 2.383 0 0 1-.47-.924z" class="cls-10" data-name="Path 1044" transform="translate(-182.371 -202.436)"/>
                        <path id="Path_1045" d="M219.5 31.835c.9 5.267 4.139 22.549 4.485 24.464l1.3-.626-4.381-23.126a.98.98 0 0 0-1.408-.713z" class="cls-13" data-name="Path 1045" transform="translate(-180.056 -25.848)"/>
                        <path id="Path_1046" d="M169.612 134.6l-16.352 4.77a.407.407 0 0 1-.5-.27L138.779 97a.423.423 0 0 1 .344-.557l21.227-2.347a.409.409 0 0 1 .43.28l13.926 40.873a.411.411 0 0 0 .387.283.421.421 0 0 0 .387-.56l-14.934-44.697a.409.409 0 0 1-.02-.089c-.032-.318-.447-2.466-5.848-1.82l-5.828.7-11.514 1.275-.043.007c-.3.069-3.5.938-1.852 6.036l15.133 47.262c0 .013.008.025.014.037.132.3 1.938 3.99 10.507-.015l.021-.009 13.958-5.465a1.623 1.623 0 0 0 .9-2.075l-1.068-2.893a.407.407 0 0 0-.511-.251z" class="cls-9" data-name="Path 1046" transform="translate(-110.718 -71.895)"/>
                        <path id="Path_1047" d="M264.2 210.96l-3.289-1.541-3.526-5.23a1.125 1.125 0 0 0-.653-.464l-2.181-.557a2.452 2.452 0 0 0-1.62.143l-1.438.65a.939.939 0 0 0-.477 1.186.9.9 0 0 0 .824.591l2.469.041 1.429 1.445.824 7.873 2.508 1.032 2 1.305z" class="cls-8" data-name="Path 1047" transform="translate(-205.857 -165.464)"/>
                        <path id="Path_1048" d="M304.874 245.558l-4.335 8.713 2.612 1.618 4.544-9.119z" class="cls-9" data-name="Path 1048" transform="translate(-246.534 -200.062)"/>
                        <path id="Path_1049" d="M342.533 261.619l-24.778-8.3a1.008 1.008 0 0 0-1.208.49l-4.591 8.525a1.065 1.065 0 0 0 .565 1.508l26.871 9.4a1.017 1.017 0 0 0 1.315-.725l2.5-9.621a1.059 1.059 0 0 0-.674-1.277z" class="cls-14" data-name="Path 1049" transform="translate(-255.795 -206.342)"/>
                        <path id="Path_1050" d="M339.048 253.963c4.5 1.432 20.3 6.885 25.5 8.554a.588.588 0 0 0 .745-.424v-.009a.612.612 0 0 0-.388-.736l-25.5-8.544a.583.583 0 0 0-.7.283.613.613 0 0 0 .343.876z" class="cls-15" data-name="Path 1050" transform="translate(-277.783 -205.94)"/>
                    </g>
                    <g id="Group_2845" data-name="Group 2845" transform="translate(64.898 35.141)">
                        <path id="Path_1051" d="M427.1 261.625s5.772 7.658 4.906 17.28" class="cls-16" data-name="Path 1051" transform="translate(-421.865 -256.016)"/>
                        <g id="Group_2840" data-name="Group 2840" transform="translate(5.489)">
                            <path id="Path_1052" d="M429.933 231.438a5.972 5.972 0 0 0-1.284 5.417z" class="cls-17" data-name="Path 1052" transform="translate(-428.508 -231.422)"/>
                            <path id="Path_1053" d="M430.216 231.35a6.391 6.391 0 0 1-1.284 5.417z" class="cls-17" data-name="Path 1053" transform="translate(-428.856 -231.35)"/>
                        </g>
                        <g id="Group_2841" data-name="Group 2841" transform="translate(7.352 2.266)">
                            <path id="Path_1054" d="M440.3 243.668a5.972 5.972 0 0 0-1.284 5.417z" class="cls-17" data-name="Path 1054" transform="translate(-438.876 -243.652)"/>
                            <path id="Path_1055" d="M440.585 243.58A6.392 6.392 0 0 1 439.3 249z" class="cls-17" data-name="Path 1055" transform="translate(-439.225 -243.58)"/>
                        </g>
                        <g id="Group_2842" data-name="Group 2842" transform="translate(1.315 8.497)">
                            <path id="Path_1056" d="M410.652 277.465a5.541 5.541 0 0 0-5.3 1.108z" class="cls-17" data-name="Path 1056" transform="translate(-405.339 -277.211)"/>
                            <path id="Path_1057" d="M410.578 278.22a5.921 5.921 0 0 1-5.3 1.108z" class="cls-17" data-name="Path 1057" transform="translate(-405.278 -278.033)"/>
                        </g>
                        <g id="Group_2843" data-name="Group 2843" transform="translate(0 6.101)">
                            <path id="Path_1058" d="M403.364 265.068a5.538 5.538 0 0 0-5.4-.219z" class="cls-17" data-name="Path 1058" transform="translate(-397.96 -264.281)"/>
                            <path id="Path_1059" d="M403.379 267.192a5.886 5.886 0 0 1-5.4-.219z" class="cls-17" data-name="Path 1059" transform="translate(-397.972 -266.474)"/>
                        </g>
                        <g id="Group_2844" data-name="Group 2844" transform="translate(1.107 2.708)">
                            <path id="Path_1060" d="M408.03 248.832a4.9 4.9 0 0 0-3.91-2.6z" class="cls-17" data-name="Path 1060" transform="translate(-404.12 -246.187)"/>
                            <path id="Path_1061" d="M408.2 248.563a5.165 5.165 0 0 1-3.91-2.6z" class="cls-17" data-name="Path 1061" transform="translate(-404.262 -245.968)"/>
                        </g>
                    </g>
                    <path id="Path_1062" d="M61.144 114.535c.058 2.226-.7 4.548-3.164.85s.5 2.128.3 4.866-1.717 3.21-2.44 3.491-3.288-.637-3.5-3.463c0 0-2.351 2.61-3.535-.654l-.736-3.729s-.633-2.348-1.118.592-6.436-.092-3.932-3.443 3.513-8.642 7.193-5.506c0 0 3.735-4.655 8.988 3.3s1.944 3.696 1.944 3.696z" class="cls-18" data-name="Path 1062" transform="translate(-41.396 -94.234)"/>
                    <path id="Path_1063" d="M394.755 320.564c-1.941.976-3.339 1.39-1.1-2.457s-1.671 1.351-4.172 2.3-3.544-.283-4.092-.845-.8-3.349 1.606-4.723c0 0-3.277-1.126-.886-3.589l2.988-2.235s1.811-1.566-.985-.8-2.583-6.079 1.412-5.116 10.523.966 9.278 5.719c0 0 .991-.3-.627 8.554-1.725 9.447-3.422 3.192-3.422 3.192z" class="cls-18" data-name="Path 1063" transform="translate(-322.454 -254.583)"/>
                    <g id="Group_2846" data-name="Group 2846" transform="translate(5.992 8.456)">
                        <path id="Path_1064" d="M83.044 93.418s-3.686 1.325-2.933-1.363c0 0 4.711-1.793.134-4.042s-9.365 1.7-9.618 2.281l-.253.585s-1.482 2.133 3.082 5.237a12.411 12.411 0 0 1 1.314 4.814c.2 2.839 3.236-1.46 4.216-.292s1.769 6.479 4.994 5.584 1.008-4.778.015-7.508c0 0-.169-.923 1.808-1.242s1.74-3.912-2.759-4.054zM77.1 99.184a.719.719 0 0 1-.891-.515.749.749 0 0 1 .5-.92.72.72 0 0 1 .891.516.747.747 0 0 1-.5.919zm.259-8.164a.72.72 0 0 1-.891-.515.748.748 0 0 1 .5-.92.721.721 0 0 1 .893.516.75.75 0 0 1-.504.919z" class="cls-17" data-name="Path 1064" transform="translate(-70.144 -87.327)"/>
                        <path id="Path_1065" d="M76.791 101.615s7.4 3.5 9.082 7.044 1.683 5.359 3.372 7.609" class="cls-19" data-name="Path 1065" transform="translate(-75.597 -98.968)"/>
                        <path id="Path_1066" d="M93.59 111.957s2.33 3.2 1.784 4.681" class="cls-19" data-name="Path 1066" transform="translate(-89.377 -107.394)"/>
                        <path id="Path_1067" d="M118.436 128.3s3.6 1.662 5.409.88" class="cls-19" data-name="Path 1067" transform="translate(-109.758 -120.709)"/>
                    </g>
                    <g id="Group_2847" data-name="Group 2847" transform="translate(116.864 50.737)">
                        <path id="Path_1068" d="M693.3 327.715s3.024-2.544 3.208.247c0 0-3.833 3.345 1.214 3.846s8.239-4.894 8.283-5.533l.044-.639s.686-2.528-4.632-3.836a12.106 12.106 0 0 1-2.831-4.061c-1.126-2.6-2.557 2.513-3.865 1.76s-3.81-5.465-6.544-3.488.636 4.845 2.474 7.061c0 0 .465.808-1.288 1.8s-.334 4.295 3.937 2.843zm3.676-7.514a.708.708 0 0 1 1.008.17.76.76 0 0 1-.164 1.04.709.709 0 0 1-1.009-.171.759.759 0 0 1 .17-1.04zm2.463 7.764a.709.709 0 0 1 1.008.17.76.76 0 0 1-.164 1.04.71.71 0 0 1-1.01-.17.761.761 0 0 1 .171-1.041z" class="cls-17" data-name="Path 1068" transform="translate(-687.152 -315.531)"/>
                        <path id="Path_1069" d="M713.365 335.238s-8.114-.684-10.87-3.42-3.358-4.443-5.69-5.962" class="cls-19" data-name="Path 1069" transform="translate(-695.07 -323.943)"/>
                        <path id="Path_1070" d="M754.905 355.936s-3.251-2.189-3.228-3.771" class="cls-19" data-name="Path 1070" transform="translate(-740.083 -345.378)"/>
                        <path id="Path_1071" d="M716.167 365.534s-3.933-.293-5.375 1.079" class="cls-19" data-name="Path 1071" transform="translate(-706.544 -356.248)"/>
                    </g>
                    <path id="Path_1072" d="M943.494 386.758c-1.941.976-3.339 1.39-1.1-2.457s-1.671 1.351-4.172 2.3-3.544-.283-4.092-.845-.8-3.349 1.606-4.723c0 0-3.277-1.126-.886-3.589l2.988-2.235s1.811-1.566-.985-.8-2.583-6.079 1.412-5.116 10.522.966 9.278 5.719c0 0 .991-.3-.627 8.554-1.724 9.447-3.422 3.192-3.422 3.192z" class="cls-18" data-name="Path 1072" transform="translate(-772.588 -308.513)"/>
                    <g id="Group_2848" data-name="Group 2848" transform="translate(150.134 59.892)">
                        <path id="Path_1073" d="M878.452 377.123s3.024-2.544 3.208.247c0 0-3.833 3.345 1.214 3.845s8.238-4.894 8.283-5.533l.044-.638s.686-2.528-4.633-3.836a12.106 12.106 0 0 1-2.831-4.061c-1.126-2.6-2.557 2.513-3.865 1.76s-3.81-5.465-6.544-3.488.636 4.845 2.474 7.061c0 0 .465.808-1.288 1.8s-.337 4.295 3.938 2.843zm3.676-7.514a.708.708 0 0 1 1.008.17.76.76 0 0 1-.164 1.04.709.709 0 0 1-1.008-.171.759.759 0 0 1 .165-1.039zm2.463 7.764a.708.708 0 0 1 1.008.17.76.76 0 0 1-.164 1.04.71.71 0 0 1-1.01-.17.761.761 0 0 1 .167-1.04z" class="cls-17" data-name="Path 1073" transform="translate(-872.3 -364.939)"/>
                        <path id="Path_1074" d="M898.513 384.647s-8.114-.684-10.87-3.42-3.358-4.443-5.691-5.963" class="cls-19" data-name="Path 1074" transform="translate(-880.218 -373.351)"/>
                        <path id="Path_1075" d="M940.053 405.344s-3.251-2.189-3.228-3.771" class="cls-19" data-name="Path 1075" transform="translate(-925.231 -394.786)"/>
                        <path id="Path_1076" d="M901.316 414.942s-3.933-.293-5.375 1.079" class="cls-19" data-name="Path 1076" transform="translate(-891.692 -405.657)"/>
                    </g>
                    <path id="Path_1081" d="M.265.02L6.03 0a.266.266 0 0 1 .263.271.271.271 0 0 1-.265.273L.263.564A.266.266 0 0 1 0 .293.271.271 0 0 1 .265.02z" class="cls-20" data-name="Path 1081" transform="rotate(-6.401 141.439 -245.988)"/>
                    <path id="Path_1082" d="M.265 0h.216a.266.266 0 0 1 .264.271.271.271 0 0 1-.265.273H.263A.266.266 0 0 1 0 .274.271.271 0 0 1 .265 0z" class="cls-21" data-name="Path 1082" transform="rotate(-6.401 142.174 -236.51)"/>
                </g>
            </g>
            <path id="Path_1077" d="M359.01 369.735s8.693 4.645 11.781 1.3" class="cls-16" data-name="Path 1077" transform="translate(-299.977 -308.91)"/>
            <path id="Path_1078" d="M95.808 181.36s1.243 4.9-.253 8.012" class="cls-16" data-name="Path 1078" transform="translate(-83.558 -155.418)"/>
            <path id="Path_1079" d="M138.314 188.46s.3 3.22 2.424 3.456" class="cls-16" data-name="Path 1079" transform="translate(-118.756 -161.237)"/>
            <path id="Path_1080" d="M296.854 353.443a1.786 1.786 0 0 0 3.429-.913c-.269-.734-.849-.994-1.855-.818a1.682 1.682 0 0 0-1.574 1.731z" class="cls-22" data-name="Path 1080" transform="translate(-248.801 -294.179)"/>
        </g>
    </g>
</svg>
