<svg xmlns="http://www.w3.org/2000/svg" width="24" height="24" viewBox="0 0 24 24">
    <defs>
        <style>
            .cls-1{fill:none}.cls-2{clip-path:url(#clip-path)}.cls-3{fill:#999}
        </style>
        <clipPath id="clip-path">
            <path d="M0 0h24v24H0z" class="cls-1"/>
        </clipPath>
    </defs>
    <g id="Component" class="cls-2">
        <path id="Rectangle_936" d="M0 0h24v24H0z" class="cls-1" data-name="Rectangle 936"/>
        <path id="Path_58" d="M749.122 1803.422a5.6 5.6 0 0 0-5.014-3.422 5.28 5.28 0 0 0-4.29 1.936 5.28 5.28 0 0 0-4.291-1.936 5.6 5.6 0 0 0-5.013 3.422 5.882 5.882 0 0 0 1.12 6.45c4 4.49 7.539 7.673 7.575 7.7a.913.913 0 0 0 1.22 0c.035-.032 3.572-3.215 7.575-7.7a5.883 5.883 0 0 0 1.118-6.45zm-2.483 5.234a112.344 112.344 0 0 1-6.821 7 110.904 110.904 0 0 1-6.821-7 4.051 4.051 0 0 1-.816-4.487 3.822 3.822 0 0 1 3.347-2.342 3.258 3.258 0 0 1 3.4 2.277.911.911 0 0 0 .879.692h.008a.923.923 0 0 0 .885-.69 3.257 3.257 0 0 1 3.4-2.276 3.821 3.821 0 0 1 3.347 2.341 4.049 4.049 0 0 1-.807 4.485zm-.223-2.645a.8.8 0 0 1-.745.85h-.053a.8.8 0 0 1-.8-.747c-.086-1.3-.932-1.508-1.1-1.537a.793.793 0 0 1-.677-.9.806.806 0 0 1 .907-.682 3.054 3.054 0 0 1 2.469 3.017zm-1.1 1.327a.912.912 0 1 1-.646-.267.918.918 0 0 1 .644.268z" class="cls-3" data-name="Path 58" transform="translate(-728 -1797)"/>
    </g>
</svg>
