<svg xmlns="http://www.w3.org/2000/svg" id="Group_6684" width="24" height="24" data-name="Group 6684" viewBox="0 0 24 24">
    <defs>
        <style>
            .cls-1{fill:#6297f6}.cls-2{fill:none}
        </style>
    </defs>
    <path id="Path_74" d="M2510.553 2027.873a.611.611 0 0 1-.6-.729l.859-4.362-.474.266a.61.61 0 1 1-.6-1.063l1.627-.917a.611.611 0 0 1 .9.65l-.891 4.519.73-.318a.61.61 0 1 1 .488 1.119l-1.8.783a.609.609 0 0 1-.239.052zm1.732-8.329a.869.869 0 1 0-.617.256.878.878 0 0 0 .617-.257zm6.76 3.479a8.022 8.022 0 1 0-8.022 8.022 8.032 8.032 0 0 0 8.022-8.023zm-1.4 0a6.627 6.627 0 1 1-6.627-6.627 6.635 6.635 0 0 1 6.632 6.626z" class="cls-1" data-name="Path 74" transform="translate(-2498.999 -2011)"/>
    <path id="Rectangle_936" d="M0 0h24v24H0z" class="cls-2" data-name="Rectangle 936"/>
</svg>
