<svg xmlns="http://www.w3.org/2000/svg" width="100" height="25" viewBox="0 0 100 25">
    <defs>
        <style>
            .cls-1{fill:#4954cb;stroke:#c89fff}.cls-2,.cls-6{fill:none}.cls-3{fill:#d8dcff;stroke:#9fa7ff}.cls-4{clip-path:url(#clip-path)}.cls-5{opacity:.2;clip-path:url(#clip-path-2)}.cls-6{stroke:#7e88f4}.cls-7{fill:#454d9f;font-size:12px;font-family:Roboto-Bold,Roboto;font-weight:700}.cls-8{stroke:none}
        </style>
        <clipPath id="clip-path">
            <rect id="Rectangle_1238" width="99" height="25" class="cls-1" data-name="Rectangle 1238" rx="4"/>
        </clipPath>
        <clipPath id="clip-path-2">
            <path d="M0 0h378.325v27.99H0z" class="cls-2"/>
        </clipPath>
    </defs>
    <g id="Group_5667" data-name="Group 5667" transform="translate(-68 -430)">
        <g id="Group_5655" data-name="Group 5655" transform="translate(-23 -26)">
            <g id="Group_5654" data-name="Group 5654">
                <g id="Rectangle_1218" class="cls-3" data-name="Rectangle 1218" transform="translate(91 456)">
                    <rect width="100" height="25" class="cls-8" rx="4"/>
                    <rect width="99" height="24" x=".5" y=".5" class="cls-2" rx="3.5"/>
                </g>
                <g id="Mask_Group_22" class="cls-4" data-name="Mask Group 22" transform="translate(91 456)">
                    <g id="Repeat_Grid_57" class="cls-5" data-name="Repeat Grid 57">
                        <g transform="translate(-128.077 -24.273)">
                            <path id="Line_1232" d="M0 0v94" class="cls-6" data-name="Line 1232" transform="rotate(45 9.282 101.845)"/>
                        </g>
                        <g transform="translate(-118.077 -24.273)">
                            <path id="Line_1233" d="M0 0v94" class="cls-6" data-name="Line 1233" transform="rotate(45 9.282 101.845)"/>
                        </g>
                        <g transform="translate(-108.077 -24.273)">
                            <path id="Line_1234" d="M0 0v94" class="cls-6" data-name="Line 1234" transform="rotate(45 9.282 101.845)"/>
                        </g>
                        <g transform="translate(-98.077 -24.273)">
                            <path id="Line_1235" d="M0 0v94" class="cls-6" data-name="Line 1235" transform="rotate(45 9.282 101.845)"/>
                        </g>
                        <g transform="translate(-88.077 -24.273)">
                            <path id="Line_1236" d="M0 0v94" class="cls-6" data-name="Line 1236" transform="rotate(45 9.282 101.845)"/>
                        </g>
                        <g transform="translate(-78.077 -24.273)">
                            <path id="Line_1237" d="M0 0v94" class="cls-6" data-name="Line 1237" transform="rotate(45 9.282 101.845)"/>
                        </g>
                        <g transform="translate(-68.077 -24.273)">
                            <path id="Line_1238" d="M0 0v94" class="cls-6" data-name="Line 1238" transform="rotate(45 9.282 101.845)"/>
                        </g>
                        <g transform="translate(-58.077 -24.273)">
                            <path id="Line_1239" d="M0 0v94" class="cls-6" data-name="Line 1239" transform="rotate(45 9.282 101.845)"/>
                        </g>
                        <g transform="translate(-48.077 -24.273)">
                            <path id="Line_1240" d="M0 0v94" class="cls-6" data-name="Line 1240" transform="rotate(45 9.282 101.845)"/>
                        </g>
                        <g transform="translate(-38.077 -24.273)">
                            <path id="Line_1241" d="M0 0v94" class="cls-6" data-name="Line 1241" transform="rotate(45 9.282 101.845)"/>
                        </g>
                        <g transform="translate(-28.077 -24.273)">
                            <path id="Line_1242" d="M0 0v94" class="cls-6" data-name="Line 1242" transform="rotate(45 9.282 101.845)"/>
                        </g>
                        <g transform="translate(-18.077 -24.273)">
                            <path id="Line_1243" d="M0 0v94" class="cls-6" data-name="Line 1243" transform="rotate(45 9.282 101.845)"/>
                        </g>
                        <g transform="translate(-8.077 -24.273)">
                            <path id="Line_1244" d="M0 0v94" class="cls-6" data-name="Line 1244" transform="rotate(45 9.282 101.845)"/>
                        </g>
                        <g transform="translate(1.923 -24.273)">
                            <path id="Line_1245" d="M0 0v94" class="cls-6" data-name="Line 1245" transform="rotate(45 9.282 101.845)"/>
                        </g>
                        <g transform="translate(11.923 -24.273)">
                            <path id="Line_1246" d="M0 0v94" class="cls-6" data-name="Line 1246" transform="rotate(45 9.282 101.845)"/>
                        </g>
                        <g transform="translate(21.923 -24.273)">
                            <path id="Line_1247" d="M0 0v94" class="cls-6" data-name="Line 1247" transform="rotate(45 9.282 101.845)"/>
                        </g>
                        <g transform="translate(31.923 -24.273)">
                            <path id="Line_1248" d="M0 0v94" class="cls-6" data-name="Line 1248" transform="rotate(45 9.282 101.845)"/>
                        </g>
                        <g transform="translate(41.923 -24.273)">
                            <path id="Line_1249" d="M0 0v94" class="cls-6" data-name="Line 1249" transform="rotate(45 9.282 101.845)"/>
                        </g>
                        <g transform="translate(51.923 -24.273)">
                            <path id="Line_1250" d="M0 0v94" class="cls-6" data-name="Line 1250" transform="rotate(45 9.282 101.845)"/>
                        </g>
                        <g transform="translate(61.923 -24.273)">
                            <path id="Line_1250-2" d="M0 0v94" class="cls-6" data-name="Line 1250" transform="rotate(45 9.282 101.845)"/>
                        </g>
                        <g transform="translate(71.923 -24.273)">
                            <path id="Line_1250-3" d="M0 0v94" class="cls-6" data-name="Line 1250" transform="rotate(45 9.282 101.845)"/>
                        </g>
                        <g transform="translate(81.923 -24.273)">
                            <path id="Line_1250-4" d="M0 0v94" class="cls-6" data-name="Line 1250" transform="rotate(45 9.282 101.845)"/>
                        </g>
                        <g transform="translate(91.923 -24.273)">
                            <path id="Line_1250-5" d="M0 0v94" class="cls-6" data-name="Line 1250" transform="rotate(45 9.282 101.845)"/>
                        </g>
                        <g transform="translate(101.923 -24.273)">
                            <path id="Line_1250-6" d="M0 0v94" class="cls-6" data-name="Line 1250" transform="rotate(45 9.282 101.845)"/>
                        </g>
                        <g transform="translate(111.923 -24.273)">
                            <path id="Line_1250-7" d="M0 0v94" class="cls-6" data-name="Line 1250" transform="rotate(45 9.282 101.845)"/>
                        </g>
                        <g transform="translate(121.923 -24.273)">
                            <path id="Line_1250-8" d="M0 0v94" class="cls-6" data-name="Line 1250" transform="rotate(45 9.282 101.845)"/>
                        </g>
                        <g transform="translate(131.923 -24.273)">
                            <path id="Line_1250-9" d="M0 0v94" class="cls-6" data-name="Line 1250" transform="rotate(45 9.282 101.845)"/>
                        </g>
                        <g transform="translate(141.923 -24.273)">
                            <path id="Line_1250-10" d="M0 0v94" class="cls-6" data-name="Line 1250" transform="rotate(45 9.282 101.845)"/>
                        </g>
                        <g transform="translate(151.923 -24.273)">
                            <path id="Line_1250-11" d="M0 0v94" class="cls-6" data-name="Line 1250" transform="rotate(45 9.282 101.845)"/>
                        </g>
                        <g transform="translate(161.923 -24.273)">
                            <path id="Line_1250-12" d="M0 0v94" class="cls-6" data-name="Line 1250" transform="rotate(45 9.282 101.845)"/>
                        </g>
                        <g transform="translate(171.923 -24.273)">
                            <path id="Line_1250-13" d="M0 0v94" class="cls-6" data-name="Line 1250" transform="rotate(45 9.282 101.845)"/>
                        </g>
                        <g transform="translate(181.923 -24.273)">
                            <path id="Line_1250-14" d="M0 0v94" class="cls-6" data-name="Line 1250" transform="rotate(45 9.282 101.845)"/>
                        </g>
                        <g transform="translate(191.923 -24.273)">
                            <path id="Line_1250-15" d="M0 0v94" class="cls-6" data-name="Line 1250" transform="rotate(45 9.282 101.845)"/>
                        </g>
                        <g transform="translate(201.923 -24.273)">
                            <path id="Line_1250-16" d="M0 0v94" class="cls-6" data-name="Line 1250" transform="rotate(45 9.282 101.845)"/>
                        </g>
                        <g transform="translate(211.923 -24.273)">
                            <path id="Line_1250-17" d="M0 0v94" class="cls-6" data-name="Line 1250" transform="rotate(45 9.282 101.845)"/>
                        </g>
                        <g transform="translate(221.923 -24.273)">
                            <path id="Line_1250-18" d="M0 0v94" class="cls-6" data-name="Line 1250" transform="rotate(45 9.282 101.845)"/>
                        </g>
                        <g transform="translate(231.923 -24.273)">
                            <path id="Line_1250-19" d="M0 0v94" class="cls-6" data-name="Line 1250" transform="rotate(45 9.282 101.845)"/>
                        </g>
                        <g transform="translate(241.923 -24.273)">
                            <path id="Line_1250-20" d="M0 0v94" class="cls-6" data-name="Line 1250" transform="rotate(45 9.282 101.845)"/>
                        </g>
                    </g>
                </g>
            </g>
        </g>
        <g id="Group_5666" data-name="Group 5666" transform="translate(85 434)">
            <text id="Introduction" class="cls-7" transform="translate(33 13)">
                <tspan x="-32.851" y="0">Introduction</tspan>
            </text>
        </g>
    </g>
</svg>
