<svg xmlns="http://www.w3.org/2000/svg" width="24" height="24" viewBox="0 0 24 24">
    <defs>
        <style>
            .cls-1{fill:none}.cls-2{clip-path:url(#clip-path)}.cls-3{fill:#444}
        </style>
        <clipPath id="clip-path">
            <path d="M0 0h24v24H0z" class="cls-1"/>
        </clipPath>
    </defs>
    <g id="Lead_1" class="cls-2" data-name="Lead – 1">
        <g id="Group_1078" data-name="Group 1078" transform="translate(3 3)">
            <path id="Path_439" d="M9.305 18.082h-.073a8.725 8.725 0 0 1-8.7-8.631V9.43C.516 9.42.516 9.4.516 9.367A8.745 8.745 0 0 1 9.137.652h.095a8.718 8.718 0 0 1 2.948.506.792.792 0 0 1 .475 1.014.8.8 0 0 1-1.014.476 7.107 7.107 0 0 0-2.4-.411h-.062A7.157 7.157 0 0 0 2.1 9.367v.063a7.156 7.156 0 0 0 7.132 7.07H9.3a7.149 7.149 0 0 0 7.067-7.131V9.3a7.227 7.227 0 0 0-.3-2.007.856.856 0 0 1-.042-.233.794.794 0 0 1 1.552-.222 8.3 8.3 0 0 1 .37 2.461v.064a8.743 8.743 0 0 1-8.642 8.719z" class="cls-3" data-name="Path 439" transform="translate(-.516 -.652)"/>
            <path id="Path_440" d="M10.5 15.357a4.727 4.727 0 0 1-4.7-4.395c-.011-.115-.011-.222-.011-.327a4.728 4.728 0 0 1 4.384-4.711 4.031 4.031 0 0 1 .613 0 .8.8 0 0 1 .549.264.755.755 0 0 1 .19.571.785.785 0 0 1-.835.74c-.127 0-.243 0-.4.01a3.13 3.13 0 0 0-2.916 3.127v.212a3.154 3.154 0 0 0 3.126 2.924c.074 0 .148-.01.222-.01a3.139 3.139 0 0 0 2.916-3.128v-.211a.792.792 0 0 1 .729-.845.806.806 0 0 1 .845.729 3.182 3.182 0 0 1 .011.328 4.745 4.745 0 0 1-4.394 4.712c-.129.01-.252.01-.329.01z" class="cls-3" data-name="Path 440" transform="translate(-1.788 -1.92)"/>
            <path id="Path_441" d="M11.755 10.272a.792.792 0 0 1-.555-1.36l7.755-7.57a.793.793 0 0 1 1.107 1.135l-7.756 7.57a.793.793 0 0 1-.551.225z" class="cls-3" data-name="Path 441" transform="translate(-3.034 -.765)"/>
        </g>
        <path id="Rectangle_936" d="M0 0h24v24H0z" class="cls-1" data-name="Rectangle 936"/>
    </g>
</svg>
