<svg xmlns="http://www.w3.org/2000/svg" width="14.57" height="14.57" viewBox="0 0 14.57 14.57">
    <defs>
        <style>
            .cls-1{fill:#999}
        </style>
    </defs>
    <g id="Group_1078" data-name="Group 1078" transform="translate(-.516 -.652)">
        <path id="Path_439" d="M7.863 15.222H7.8A7.293 7.293 0 0 1 .525 8.008v-.019c-.009-.008-.009-.025-.009-.053A7.31 7.31 0 0 1 7.722.652H7.8a7.287 7.287 0 0 1 2.464.423.662.662 0 0 1 .4.848.672.672 0 0 1-.848.4 5.94 5.94 0 0 0-2-.344h-.059a5.983 5.983 0 0 0-5.917 5.96v.053A5.982 5.982 0 0 0 7.8 13.9h.053a5.976 5.976 0 0 0 5.907-5.961v-.056a6.041 6.041 0 0 0-.247-1.677.716.716 0 0 1-.035-.195.663.663 0 0 1 1.3-.185 6.935 6.935 0 0 1 .31 2.057v.053a7.308 7.308 0 0 1-7.225 7.286z" class="cls-1" data-name="Path 439"/>
        <path id="Path_440" d="M9.73 13.806a3.951 3.951 0 0 1-3.93-3.673c-.009-.1-.009-.185-.009-.273a3.952 3.952 0 0 1 3.665-3.939 3.37 3.37 0 0 1 .513 0 .668.668 0 0 1 .459.221.631.631 0 0 1 .159.477.657.657 0 0 1-.7.619c-.106 0-.2 0-.336.008a2.616 2.616 0 0 0-2.434 2.613v.177a2.637 2.637 0 0 0 2.613 2.446c.062 0 .124-.008.185-.008a2.624 2.624 0 0 0 2.437-2.614v-.177a.662.662 0 0 1 .61-.707.674.674 0 0 1 .706.609 2.66 2.66 0 0 1 .009.274A3.966 3.966 0 0 1 10 13.8c-.1.006-.208.006-.27.006z" class="cls-1" data-name="Path 440" transform="translate(-1.929 -1.923)"/>
        <path id="Path_441" d="M11.625 8.77a.662.662 0 0 1-.462-1.136l6.482-6.327a.663.663 0 0 1 .926.948l-6.483 6.327a.662.662 0 0 1-.463.188z" class="cls-1" data-name="Path 441" transform="translate(-3.82 -.171)"/>
    </g>
</svg>
