<svg xmlns="http://www.w3.org/2000/svg" width="118.893" height="119" viewBox="0 0 118.893 119">
    <defs>
        <style>
            .cls-1,.cls-9{fill:#ed4e67}.cls-1{opacity:.15}.cls-2,.cls-3,.cls-4,.cls-6{fill:#f7657d;isolation:isolate}.cls-2{opacity:.429}.cls-3{opacity:.418}.cls-4{opacity:.369}.cls-5{fill:#bf2640}.cls-6{opacity:.25}.cls-7{fill:#fff}.cls-8{fill:#f1647d;opacity:.2}
        </style>
    </defs>
    <g id="Group_8056" data-name="Group 8056" transform="translate(-1084.039 -547.682)">
        <g id="Group_6942" data-name="Group 6942">
            <path id="Rectangle_1795" d="M1156.407 568.313l27.908 29.283a19.813 19.813 0 0 1-.946 28.352l-29.8 27.422a20.669 20.669 0 0 1-28.854-.929l-27.908-29.282a19.815 19.815 0 0 1 .946-28.353l29.8-27.422a20.669 20.669 0 0 1 28.854.929z" class="cls-1" data-name="Rectangle 1795"/>
            <path id="Path_5396" d="M1184.058 663.045a2.642 2.642 0 0 1-2.629-2.295 2.566 2.566 0 0 1 .53-1.914 2.662 2.662 0 0 1 4.731 1.275 2.568 2.568 0 0 1-.531 1.915 2.638 2.638 0 0 1-1.777 1 2.757 2.757 0 0 1-.324.019zm0-4.144a1.605 1.605 0 0 0-.194.012 1.561 1.561 0 0 0-1.052.591 1.489 1.489 0 0 0-.309 1.112 1.578 1.578 0 0 0 2.8.742 1.494 1.494 0 0 0 .309-1.112 1.557 1.557 0 0 0-1.552-1.346z" class="cls-2" data-name="Path 5396"/>
            <path id="Path_5397" d="M1099.479 666.682l.1-4.468-3.7-2.629 4.377-1.289 1.389-4.261 2.587 3.67 4.566-.008-2.769 3.568 1.42 4.256-4.3-1.476zm-1.149-6.688l2.351 1.67-.068 2.867 2.36-1.694 2.752.945-.909-2.724 1.763-2.272-2.909.005-1.664-2.362-.9 2.746z" class="cls-3" data-name="Path 5397"/>
            <path id="Path_5398" d="M1180.486 564.43l-.782-3.146-3.1-1.167 2.824-1.713.163-3.237 2.514 2.1 3.193-.856-1.253 3.014 1.81 2.731-3.3-.244zm-1.414-4.542l1.548.582.4 1.6 1.052-1.285 1.656.122-.908-1.369.63-1.512-1.609.431-1.275-1.065-.084 1.642z" class="cls-4" data-name="Path 5398"/>
            <path id="Path_5399" d="M1097.033 569.874a4.135 4.135 0 0 1-4.114-3.587 4.02 4.02 0 0 1 .829-2.99 4.167 4.167 0 0 1 7.4 1.992 4.015 4.015 0 0 1-.828 2.99 4.134 4.134 0 0 1-2.784 1.564 4.363 4.363 0 0 1-.503.031zm.005-7.086a3.21 3.21 0 0 0-.377.022 3.056 3.056 0 0 0-2.057 1.155 2.934 2.934 0 0 0-.609 2.187 3.084 3.084 0 0 0 5.474 1.459 2.94 2.94 0 0 0 .607-2.187 3.044 3.044 0 0 0-3.038-2.636z" class="cls-2" data-name="Path 5399"/>
            <path id="Path_5400" d="M1086.688 576.293a2.642 2.642 0 0 1-2.629-2.3 2.567 2.567 0 0 1 .53-1.914 2.661 2.661 0 0 1 4.731 1.275 2.566 2.566 0 0 1-.531 1.915 2.635 2.635 0 0 1-1.778 1 2.539 2.539 0 0 1-.323.024zm0-4.144a1.6 1.6 0 0 0-.193.012 1.56 1.56 0 0 0-1.054.59 1.5 1.5 0 0 0-.308 1.113 1.578 1.578 0 0 0 2.8.742 1.5 1.5 0 0 0 .309-1.113 1.557 1.557 0 0 0-1.552-1.344z" class="cls-2" data-name="Path 5400"/>
            <path id="Path_5401" d="M1183.571 576.874a3.711 3.711 0 0 1-.431-.026 3.517 3.517 0 0 1-2.369-1.332 3.419 3.419 0 0 1-.706-2.546 3.548 3.548 0 0 1 6.3-1.695 3.411 3.411 0 0 1 .7 2.545 3.518 3.518 0 0 1-3.494 3.054zm0-6.033a2.594 2.594 0 0 0-2.586 2.244 2.506 2.506 0 0 0 .518 1.863 2.624 2.624 0 0 0 4.659-1.242 2.505 2.505 0 0 0-.517-1.863 2.6 2.6 0 0 0-1.753-.983 2.681 2.681 0 0 0-.325-.019z" class="cls-2" data-name="Path 5401"/>
            <path id="Path_5402" d="M1194.535 581.293a2.552 2.552 0 0 1-.324-.02 2.638 2.638 0 0 1-1.777-1 2.571 2.571 0 0 1-.532-1.916 2.662 2.662 0 0 1 4.731-1.276 2.568 2.568 0 0 1 .531 1.915 2.641 2.641 0 0 1-2.629 2.297zm0-4.144a1.554 1.554 0 0 0-1.553 1.344 1.5 1.5 0 0 0 .309 1.114 1.579 1.579 0 0 0 2.8-.743 1.5 1.5 0 0 0-.31-1.113 1.555 1.555 0 0 0-1.053-.59 1.575 1.575 0 0 0-.196-.012z" class="cls-2" data-name="Path 5402"/>
            <path id="Path_5403" d="M1148.343 657.995a.491.491 0 0 1-.009-.981 20.118 20.118 0 0 0 1.909-.125.485.485 0 0 1 .543.431.49.49 0 0 1-.431.542c-.666.076-1.34.12-2 .133zm-1.957-.057h-.038a21.168 21.168 0 0 1-1.992-.25.49.49 0 0 1 .168-.966c.626.11 1.265.19 1.9.238a.49.49 0 0 1-.036.979zm5.846-.386a.49.49 0 0 1-.1-.969 20.413 20.413 0 0 0 1.85-.484.49.49 0 1 1 .293.936c-.632.2-1.286.368-1.94.507a.5.5 0 0 1-.103.01zm-9.7-.286a.529.529 0 0 1-.13-.017 21.443 21.443 0 0 1-1.907-.625.49.49 0 0 1 .35-.916 20.6 20.6 0 0 0 1.817.595.49.49 0 0 1-.13.963zm13.442-.882a.49.49 0 0 1-.19-.942 20.198 20.198 0 0 0 1.726-.824.49.49 0 1 1 .465.863c-.588.316-1.2.607-1.812.865a.484.484 0 0 1-.193.038zm-17.1-.513a.5.5 0 0 1-.218-.051q-.528-.262-1.049-.557l-.7-.394a.491.491 0 0 1 .485-.853l.694.394q.5.281 1 .532a.49.49 0 0 1-.218.929zm20.545-1.342a.49.49 0 0 1-.272-.9 19.734 19.734 0 0 0 1.535-1.14.49.49 0 0 1 .623.757c-.515.422-1.057.826-1.613 1.2a.49.49 0 0 1-.276.083zm-23.971-.564a.485.485 0 0 1-.242-.064l-1.7-.967a.49.49 0 1 1 .484-.852l1.706.967a.49.49 0 0 1-.243.916zm26.995-1.922a.491.491 0 0 1-.346-.837c.449-.448.881-.925 1.284-1.417a.49.49 0 1 1 .758.621 20.282 20.282 0 0 1-1.349 1.489.49.49 0 0 1-.35.144zm-30.4-.012a.5.5 0 0 1-.242-.064l-1.7-.967a.49.49 0 1 1 .484-.853l1.7.967a.49.49 0 0 1-.242.917zm-3.41-1.935a.484.484 0 0 1-.242-.064l-1.705-.967a.49.49 0 1 1 .484-.853l1.7.968a.49.49 0 0 1-.242.916zm36.3-1.083a.49.49 0 0 1-.407-.763c.208-.31.406-.627.6-.953l.409-.7a.491.491 0 0 1 .846.5l-.409.7q-.3.513-.629 1a.49.49 0 0 1-.42.216zm-39.708-.852a.485.485 0 0 1-.242-.064l-1.705-.967a.49.49 0 1 1 .484-.853l1.705.968a.49.49 0 0 1-.242.916zm-3.411-1.934a.5.5 0 0 1-.242-.064l-1.706-.968a.49.49 0 1 1 .485-.852l1.705.967a.491.491 0 0 1-.242.917zm45.135-.577a.491.491 0 0 1-.423-.739l.993-1.69a.491.491 0 0 1 .846.5l-.994 1.69a.49.49 0 0 1-.432.239zm-48.545-1.358a.5.5 0 0 1-.243-.064l-1.7-.967a.491.491 0 0 1 .485-.853l1.7.967a.491.491 0 0 1-.242.917zm-3.411-1.935a.485.485 0 0 1-.242-.064l-1.7-.967a.49.49 0 1 1 .485-.852l1.7.967a.49.49 0 0 1-.243.916zm53.942-.087a.491.491 0 0 1-.423-.739l.993-1.69a.491.491 0 0 1 .846.5l-.993 1.69a.492.492 0 0 1-.433.239zm-57.352-1.847a.5.5 0 0 1-.242-.064l-1.705-.967a.49.49 0 1 1 .484-.853l1.7.967a.49.49 0 0 1-.242.917zm59.337-1.534a.485.485 0 0 1-.248-.068.49.49 0 0 1-.175-.67l.993-1.691a.491.491 0 0 1 .846.5l-.993 1.69a.49.49 0 0 1-.433.239zm-62.747-.4a.5.5 0 0 1-.242-.064l-1.705-.967a.49.49 0 1 1 .484-.853l1.705.967a.49.49 0 0 1-.242.917zm-3.41-1.935a.485.485 0 0 1-.242-.064l-1.7-.967a.49.49 0 1 1 .484-.853l1.7.968a.49.49 0 0 1-.242.916zm68.144-1.044a.49.49 0 0 1-.423-.738l.993-1.691a.49.49 0 0 1 .846.5l-.994 1.691a.49.49 0 0 1-.429.237zm-71.522-.944a.485.485 0 0 1-.274-.084c-.556-.375-1.1-.779-1.608-1.2a.49.49 0 0 1 .625-.756c.487.4 1 .788 1.531 1.145a.49.49 0 0 1-.274.9zm73.508-2.437a.49.49 0 0 1-.423-.738l.993-1.69a.49.49 0 1 1 .846.5l-.993 1.69a.49.49 0 0 1-.433.237zm-76.527-.056a.489.489 0 0 1-.347-.145 20.609 20.609 0 0 1-1.344-1.492.49.49 0 1 1 .76-.62c.4.492.831.97 1.279 1.421a.49.49 0 0 1-.348.836zm-2.473-3.036a.486.486 0 0 1-.408-.22 20.214 20.214 0 0 1-1.026-1.727.49.49 0 0 1 .867-.457c.294.557.623 1.11.975 1.643a.491.491 0 0 1-.138.68.484.484 0 0 1-.28.08zm80.986-.288a.486.486 0 0 1-.248-.068.492.492 0 0 1-.175-.671l.993-1.69a.491.491 0 0 1 .846.5l-.993 1.69a.492.492 0 0 1-.433.238zm-82.815-3.174a.491.491 0 0 1-.454-.3 19.761 19.761 0 0 1-.664-1.9.49.49 0 1 1 .941-.275 18.791 18.791 0 0 0 .631 1.8.491.491 0 0 1-.27.639.48.48 0 0 1-.194.035zm84.8-.207a.491.491 0 0 1-.422-.739l.993-1.69a.491.491 0 0 1 .846.5l-.994 1.689a.488.488 0 0 1-.432.239zm1.987-3.38a.491.491 0 0 1-.423-.738l.993-1.691a.49.49 0 0 1 .846.5l-.993 1.691a.492.492 0 0 1-.432.237zm-87.9-.166a.49.49 0 0 1-.48-.4 19.972 19.972 0 0 1-.277-1.989.49.49 0 0 1 .445-.531.5.5 0 0 1 .531.445c.056.628.145 1.264.264 1.892a.49.49 0 0 1-.39.573.482.482 0 0 1-.101.009zm89.885-3.215a.49.49 0 0 1-.423-.738l.993-1.69a.49.49 0 0 1 .846.5l-.993 1.69a.489.489 0 0 1-.431.237zm-90.232-.683h-.005a.492.492 0 0 1-.486-.5 19.87 19.87 0 0 1 .124-2.005.49.49 0 0 1 .974.109 19.034 19.034 0 0 0-.117 1.907.49.49 0 0 1-.494.488zm92.218-2.7a.49.49 0 0 1-.422-.738l.993-1.691c.137-.232.267-.466.393-.7a.49.49 0 1 1 .864.463c-.132.246-.269.49-.412.734l-.993 1.691a.488.488 0 0 1-.431.243zm-91.782-1.193a.46.46 0 0 1-.1-.012.489.489 0 0 1-.376-.582 19.867 19.867 0 0 1 .522-1.94.49.49 0 1 1 .932.3 18.962 18.962 0 0 0-.495 1.844.492.492 0 0 1-.491.392zm94.015-2.987a.5.5 0 0 1-.188-.037.489.489 0 0 1-.265-.64 18.761 18.761 0 0 0 .64-1.8.491.491 0 0 1 .94.282c-.193.64-.419 1.276-.674 1.893a.491.491 0 0 1-.461.304zm-92.81-.737a.5.5 0 0 1-.2-.042.491.491 0 0 1-.252-.645c.269-.611.569-1.216.9-1.8a.49.49 0 1 1 .855.479c-.311.554-.6 1.13-.852 1.711a.493.493 0 0 1-.459.299zm93.937-3.012a.518.518 0 0 1-.095-.009.493.493 0 0 1-.388-.575 18.663 18.663 0 0 0 .269-1.89.507.507 0 0 1 .532-.445.492.492 0 0 1 .445.533 20.34 20.34 0 0 1-.283 1.989.491.491 0 0 1-.488.402zm-92.074-.434a.491.491 0 0 1-.423-.738l.993-1.691a.49.49 0 0 1 .846.5l-.994 1.691a.489.489 0 0 1-.43.24zm1.986-3.381a.49.49 0 0 1-.423-.738l.993-1.69a.49.49 0 1 1 .846.5l-.993 1.69a.49.49 0 0 1-.431.24zm90.44-.083a.49.49 0 0 1-.49-.485 19.537 19.537 0 0 0-.114-1.907.49.49 0 1 1 .975-.107c.072.662.113 1.336.12 2a.49.49 0 0 1-.486.495zm-88.454-3.3a.486.486 0 0 1-.248-.068.492.492 0 0 1-.175-.671l.994-1.69a.49.49 0 0 1 .845.5l-.993 1.69a.492.492 0 0 1-.431.242zm88.024-.592a.491.491 0 0 1-.479-.388c-.131-.618-.3-1.239-.489-1.848a.49.49 0 0 1 .934-.3c.2.64.377 1.293.514 1.94a.49.49 0 0 1-.378.582.509.509 0 0 1-.106.019zm-86.038-2.789a.491.491 0 0 1-.423-.738l.993-1.691a.491.491 0 0 1 .846.5l-.994 1.69a.487.487 0 0 1-.43.244zm84.85-.941a.491.491 0 0 1-.45-.3 18.757 18.757 0 0 0-.844-1.714.491.491 0 0 1 .858-.477 20.086 20.086 0 0 1 .886 1.8.489.489 0 0 1-.255.644.483.483 0 0 1-.203.052zm-82.864-2.439a.491.491 0 0 1-.423-.738l.993-1.691a.49.49 0 0 1 .846.5l-.993 1.691a.492.492 0 0 1-.431.243zm80.964-.984a.487.487 0 0 1-.4-.212 18.942 18.942 0 0 0-1.164-1.515.49.49 0 1 1 .747-.635c.434.51.845 1.047 1.223 1.593a.491.491 0 0 1-.125.682.484.484 0 0 1-.289.092zm-78.978-2.4a.49.49 0 0 1-.423-.738l.994-1.69a.49.49 0 1 1 .845.5l-.993 1.69a.49.49 0 0 1-.431.246zm76.442-.586a.491.491 0 0 1-.341-.138c-.455-.44-.94-.863-1.44-1.26a.49.49 0 0 1 .61-.768c.524.417 1.033.861 1.512 1.323a.49.49 0 0 1 .011.693.485.485 0 0 1-.36.158zm-3.07-2.433a.486.486 0 0 1-.265-.078q-.484-.312-.991-.6l-.673-.382a.49.49 0 0 1 .484-.853l.673.382q.531.3 1.038.629a.49.49 0 0 1-.266.9zm-71.385-.361a.491.491 0 0 1-.423-.739l.993-1.69a.491.491 0 0 1 .846.5l-.994 1.69a.489.489 0 0 1-.43.247zm67.993-1.6a.5.5 0 0 1-.242-.064l-1.7-.968a.49.49 0 1 1 .484-.852l1.7.967a.49.49 0 0 1-.242.917zM1110 583.2a.491.491 0 0 1-.423-.738l.993-1.69a.49.49 0 1 1 .846.5l-.993 1.69a.49.49 0 0 1-.423.238zm62.6-.156a.5.5 0 0 1-.243-.064l-1.705-.967a.491.491 0 0 1 .485-.853l1.705.967a.491.491 0 0 1-.242.917zm-3.411-1.935a.485.485 0 0 1-.242-.064l-1.705-.967a.49.49 0 1 1 .485-.852l1.7.967a.49.49 0 0 1-.243.916zm-57.2-1.289a.486.486 0 0 1-.248-.068.491.491 0 0 1-.175-.67l.994-1.691a.49.49 0 0 1 .845.5l-.993 1.691a.492.492 0 0 1-.423.237zm53.79-.645a.5.5 0 0 1-.242-.064l-1.7-.967a.49.49 0 1 1 .484-.853l1.706.967a.491.491 0 0 1-.243.917zm-3.41-1.935a.485.485 0 0 1-.242-.064l-1.7-.967a.49.49 0 0 1 .484-.853l1.7.968a.49.49 0 0 1-.242.916zm-48.393-.8a.491.491 0 0 1-.423-.739l.993-1.69a.491.491 0 0 1 .846.5l-.994 1.69a.487.487 0 0 1-.422.237zm44.983-1.134a.484.484 0 0 1-.242-.064l-1.705-.967a.49.49 0 1 1 .484-.853l1.705.968a.49.49 0 0 1-.242.916zm-3.411-1.934a.5.5 0 0 1-.242-.064l-1.705-.968a.49.49 0 1 1 .484-.852l1.705.967a.49.49 0 0 1-.242.917zm-39.574-.306a.482.482 0 0 1-.264-.077.488.488 0 0 1-.149-.676c.356-.56.747-1.11 1.161-1.638a.49.49 0 0 1 .771.605c-.394.5-.766 1.028-1.106 1.56a.491.491 0 0 1-.413.224zm36.164-1.629a.485.485 0 0 1-.242-.064l-1.706-.967a.491.491 0 0 1 .485-.853l1.7.968a.49.49 0 0 1-.242.916zm-33.745-1.449a.49.49 0 0 1-.354-.829 20.66 20.66 0 0 1 1.459-1.38.49.49 0 0 1 .639.744c-.484.414-.95.855-1.391 1.314a.484.484 0 0 1-.353.149zm30.335-.486a.5.5 0 0 1-.243-.063l-1.7-.968a.49.49 0 1 1 .485-.852l1.7.967a.49.49 0 0 1-.242.916zm-3.411-1.934a.493.493 0 0 1-.242-.064l-1.7-.968a.49.49 0 0 1 .485-.852l1.705.967a.491.491 0 0 1-.243.917zm-23.952-.128a.49.49 0 0 1-.281-.892 20.574 20.574 0 0 1 1.7-1.07.491.491 0 0 1 .483.854 19.3 19.3 0 0 0-1.618 1.019.49.49 0 0 1-.284.087zm20.514-1.754a.5.5 0 0 1-.209-.047 19.72 19.72 0 0 0-1.767-.731.49.49 0 0 1 .33-.923c.628.225 1.252.483 1.855.767a.491.491 0 0 1-.209.934zm-17.1-.171a.49.49 0 0 1-.2-.938 21.203 21.203 0 0 1 1.871-.727.49.49 0 0 1 .311.93c-.6.2-1.2.433-1.783.692a.489.489 0 0 1-.204.041zm13.42-1.151a.5.5 0 0 1-.12-.015 20.346 20.346 0 0 0-1.875-.38.49.49 0 0 1-.41-.559.5.5 0 0 1 .559-.41c.656.1 1.317.235 1.966.4a.49.49 0 0 1-.12.965zm-9.708-.091a.49.49 0 0 1-.11-.968c.649-.15 1.313-.272 1.973-.36a.49.49 0 0 1 .131.972c-.63.084-1.263.2-1.883.343a.472.472 0 0 1-.116.011zm5.84-.5h-.027q-.96-.056-1.913-.017a.468.468 0 0 1-.509-.471.489.489 0 0 1 .471-.508 20.99 20.99 0 0 1 2.006.018.49.49 0 0 1-.028.979z" class="cls-5" data-name="Path 5403"/>
            <path id="Path_5404" d="M1201.343 606.635a1.572 1.572 0 0 1-1.574-1.343 1.483 1.483 0 0 1 .307-1.11 1.605 1.605 0 0 1 2.843.733 1.487 1.487 0 0 1-.308 1.111 1.587 1.587 0 0 1-1.076.6 1.792 1.792 0 0 1-.192.009zm0-2.421a.982.982 0 0 0-.763.363.848.848 0 0 0-.177.632.932.932 0 0 0 1.056.776.947.947 0 0 0 .644-.355.846.846 0 0 0 .177-.633.927.927 0 0 0-.935-.783z" class="cls-2" data-name="Path 5404"/>
            <path id="Path_5405" d="M1183.656 655.341a4.135 4.135 0 0 1-4.115-3.587 4.018 4.018 0 0 1 .83-2.991 4.167 4.167 0 0 1 7.4 1.993 4.015 4.015 0 0 1-.828 2.99 4.2 4.2 0 0 1-3.29 1.6zm.005-7.087a3.213 3.213 0 0 0-.377.023 3.055 3.055 0 0 0-2.058 1.155 2.938 2.938 0 0 0-.609 2.187 3.083 3.083 0 0 0 5.474 1.459 2.941 2.941 0 0 0 .607-2.187 3.044 3.044 0 0 0-3.037-2.637z" class="cls-6" data-name="Path 5405"/>
            <path id="Path_5406" d="M1121.485 550.746a1.57 1.57 0 0 1-1.573-1.343 1.48 1.48 0 0 1 .307-1.11 1.6 1.6 0 0 1 2.843.732 1.488 1.488 0 0 1-.306 1.11 1.594 1.594 0 0 1-1.078.6 1.793 1.793 0 0 1-.193.011zm0-2.421a.956.956 0 0 0-.118.007.944.944 0 0 0-.643.356.842.842 0 0 0-.177.632.928.928 0 0 0 1.055.776.95.95 0 0 0 .645-.356.849.849 0 0 0 .176-.632.929.929 0 0 0-.936-.783z" class="cls-2" data-name="Path 5406"/>
            <path id="Path_5407" d="M1163.287 566.029a1.572 1.572 0 0 1-1.575-1.343 1.484 1.484 0 0 1 .308-1.111 1.606 1.606 0 0 1 2.842.733 1.485 1.485 0 0 1-.307 1.11 1.59 1.59 0 0 1-1.076.6 1.777 1.777 0 0 1-.192.011zm0-2.421a.943.943 0 0 0-.118.007.956.956 0 0 0-.645.356.849.849 0 0 0-.176.633.93.93 0 0 0 1.055.775.942.942 0 0 0 .644-.356.849.849 0 0 0 .178-.632.929.929 0 0 0-.937-.783z" class="cls-2" data-name="Path 5407"/>
            <path id="Path_5408" d="M1095.239 582.267a1.571 1.571 0 0 1-1.574-1.343 1.486 1.486 0 0 1 .308-1.111 1.605 1.605 0 0 1 2.842.734 1.48 1.48 0 0 1-.307 1.11 1.59 1.59 0 0 1-1.076.6 1.8 1.8 0 0 1-.193.01zm0-2.421a1 1 0 0 0-.761.362.846.846 0 0 0-.178.634.932.932 0 0 0 1.055.775.95.95 0 0 0 .645-.355.851.851 0 0 0 .177-.633.929.929 0 0 0-.936-.783z" class="cls-2" data-name="Path 5408"/>
            <path id="Path_5409" d="M1099.128 646.265a1.571 1.571 0 0 1-1.574-1.344 1.486 1.486 0 0 1 .307-1.11 1.606 1.606 0 0 1 2.843.733 1.484 1.484 0 0 1-.307 1.11 1.582 1.582 0 0 1-1.077.6 1.558 1.558 0 0 1-.192.011zm0-2.422a1 1 0 0 0-.763.363.856.856 0 0 0-.177.633.935.935 0 0 0 1.056.776.956.956 0 0 0 .645-.356.851.851 0 0 0 .176-.633.928.928 0 0 0-.935-.783z" class="cls-2" data-name="Path 5409"/>
        </g>
        <g id="Group_8055" data-name="Group 8055">
            <g id="Group_5993" data-name="Group 5993">
                <path id="Path_3016" d="M1123.315 594.495v.146c-7.517.023-14.7.04-22.183.064v-.21z" class="cls-7" data-name="Path 3016"/>
                <path id="Path_3017" d="M1158.3 594.495v.025c-7.4.018-14.6.04-22 .063v-.088z" class="cls-7" data-name="Path 3017"/>
                <g id="Group_5989" data-name="Group 5989">
                    <g id="Group_8050" data-name="Group 8050">
                        <path id="Path_3018-2" d="M1152.206 578.256l.1.676a2.055 2.055 0 0 1-1.7 2.353l-17.579 2.817a2.054 2.054 0 0 1-2.353-1.7l-.1-.676a5.477 5.477 0 0 1 4.537-6.276l2.328-.373a7.456 7.456 0 0 0 6.162-.987l2.327-.374a5.478 5.478 0 0 1 6.28 4.536zm-18.962-10.137a6.164 6.164 0 1 1 7.061 5.11 6.165 6.165 0 0 1-7.061-5.1z" class="cls-7" data-name="Path 3018-2"/>
                        <path id="Path_5410" d="M1132.7 584.656a2.586 2.586 0 0 1-2.547-2.173l-.107-.679a6.013 6.013 0 0 1 4.975-6.878l2.443-.391.112.031a6.92 6.92 0 0 0 5.725-.918l.21-.082 2.327-.374a6.012 6.012 0 0 1 6.874 4.914l.018.106.1.639a2.582 2.582 0 0 1-2.14 2.955l-17.58 2.817a2.58 2.58 0 0 1-.41.033zm4.7-9.042l-2.216.354a4.958 4.958 0 0 0-4.1 5.671l.107.679a1.517 1.517 0 0 0 1.748 1.263l17.579-2.817a1.525 1.525 0 0 0 1.265-1.749l-.109-.7a4.953 4.953 0 0 0-5.672-4.085l-2.216.356a7.993 7.993 0 0 1-6.379 1.028zm1.921-1.78a6.7 6.7 0 0 1-6.6-5.624l.521-.092-.521.084a6.69 6.69 0 1 1 7.665 5.548 6.721 6.721 0 0 1-1.058.084zm.005-12.327a5.683 5.683 0 0 0-.9.071 5.636 5.636 0 0 0-4.673 6.457l.007.091a5.64 5.64 0 1 0 5.561-6.619z" class="cls-5" data-name="Path 5410"/>
                    </g>
                </g>
                <g id="Group_5990" data-name="Group 5990">
                    <g id="Group_8051" data-name="Group 8051">
                        <path id="Path_3019-2" d="M1135.675 591.485l.195.655a2.056 2.056 0 0 1-1.378 2.558l-17.057 5.1a2.055 2.055 0 0 1-2.556-1.38l-.2-.655a5.478 5.478 0 0 1 3.677-6.818l2.259-.676a7.45 7.45 0 0 0 5.977-1.793l2.26-.676a5.477 5.477 0 0 1 6.817 3.678zm-20.129-7.557a6.162 6.162 0 1 1 7.67 4.137 6.161 6.161 0 0 1-7.67-4.137z" class="cls-7" data-name="Path 3019-2"/>
                        <path id="Path_5411" d="M1116.849 600.414a2.588 2.588 0 0 1-2.476-1.84l-.2-.656a6.013 6.013 0 0 1 4.031-7.475l2.372-.709.115.016a6.915 6.915 0 0 0 5.553-1.667l.2-.11 2.259-.675a6.01 6.01 0 0 1 7.475 4.032l.2.659a2.586 2.586 0 0 1-1.732 3.214l-17.058 5.1a2.58 2.58 0 0 1-.739.111zm1.589-8.939a4.958 4.958 0 0 0-3.25 6.14l.2.655a1.532 1.532 0 0 0 1.9 1.025l17.057-5.1a1.53 1.53 0 0 0 1.024-1.9l-.2-.655.506-.151-.507.148a4.952 4.952 0 0 0-6.16-3.324l-2.15.642a7.965 7.965 0 0 1-6.2 1.859l-1.774.531v.134zm3.016-2.623a6.709 6.709 0 0 1-6.415-4.773 6.69 6.69 0 1 1 6.415 4.773zm-5.4-5.076a5.634 5.634 0 1 0 .439-4.29 5.644 5.644 0 0 0-.439 4.29z" class="cls-5" data-name="Path 5411"/>
                    </g>
                </g>
                <g id="Group_5991" data-name="Group 5991">
                    <g id="Group_8052" data-name="Group 8052">
                        <path id="Path_3020-2" d="M1172.318 591.245l-.13.673a2.053 2.053 0 0 1-2.406 1.627l-17.48-3.376a2.053 2.053 0 0 1-1.627-2.406l.129-.673a5.478 5.478 0 0 1 6.417-4.339l2.315.449a7.448 7.448 0 0 0 6.126 1.183l2.314.448a5.477 5.477 0 0 1 4.342 6.414zm-14.339-16.023a6.163 6.163 0 1 1 4.882 7.221 6.165 6.165 0 0 1-4.883-7.221z" class="cls-7" data-name="Path 3020-2"/>
                        <path id="Path_5412" d="M1170.171 594.111a2.641 2.641 0 0 1-.489-.047l-17.48-3.377a2.585 2.585 0 0 1-2.045-3.024l.13-.673a6.014 6.014 0 0 1 7.034-4.757l2.523.538a6.914 6.914 0 0 0 5.694 1.1l.112-.027 2.428.469a6.01 6.01 0 0 1 4.757 7.032l-.128.672a2.589 2.589 0 0 1-2.536 2.094zm-13.99-10.933a4.96 4.96 0 0 0-4.859 4.012l-.13.673a1.53 1.53 0 0 0 1.21 1.788l17.479 3.377a1.533 1.533 0 0 0 1.79-1.21l.129-.672a4.956 4.956 0 0 0-3.923-5.8l-2.2-.426a7.968 7.968 0 0 1-6.35-1.227l-2.2-.427a4.948 4.948 0 0 0-.946-.088zm7.853-.095a6.694 6.694 0 0 1-6.574-7.961 6.691 6.691 0 1 1 6.572 7.961zm-.015-12.328a5.639 5.639 0 0 0-5.522 4.568 5.636 5.636 0 1 0 6.6-4.464 5.679 5.679 0 0 0-1.078-.104z" class="cls-5" data-name="Path 5412"/>
                    </g>
                </g>
                <g id="Group_5992" data-name="Group 5992">
                    <g id="Group_8053" data-name="Group 8053">
                        <path id="Path_3021-2" d="M1179.49 595.865h-71.819a5.269 5.269 0 0 0-5.315 4.55 5.928 5.928 0 0 0-.031.552 5.925 5.925 0 0 0 3.486 5.338 10.662 10.662 0 0 1 3.074 2.166q13.317 14.532 26.494 29.2a5.764 5.764 0 0 1 1.284 3.4c.164 4.149.071 8.31.1 12.463.021 2.5.81 3.017 3.18 2.105 2.858-1.1 5.682-2.28 8.555-3.332a2.613 2.613 0 0 0 1.991-2.881c-.1-2.857-.159-5.726 0-8.576a5.607 5.607 0 0 1 1.246-3.212q13.353-15.054 26.867-29.966a5.207 5.207 0 0 1 1.745-1.3c2.845-1.222 4.3-3.073 4.267-5.607q0-.264-.03-.523a5.053 5.053 0 0 0-5.094-4.377zm-2.172 7.515q-33.888.1-67.769.192a12.453 12.453 0 0 1-1.832-.061 2.347 2.347 0 0 1-2.187-2.5v-.007a2.378 2.378 0 0 1 2.252-2.464 10.707 10.707 0 0 1 1.631-.044q17.045-.055 34.085-.1l33.889-.1c2.787 0 4.079.817 4.059 2.571-.032 1.733-1.28 2.5-4.129 2.51z" class="cls-7" data-name="Path 3021-2"/>
                        <path id="Path_3021-2-2" d="M1178.165 605.355a6.917 6.917 0 0 0-1.043.972c-8.983 9.912-18.027 20-26.881 29.982l-.029.032-.028.034a7.573 7.573 0 0 0-1.69 4.362c-.165 2.955-.1 5.954 0 8.756v.1l.012.095a.609.609 0 0 1-.466.675l-.117.028-.112.041a206.535 206.535 0 0 0-5.268 2.039c-1.1.439-2.208.878-3.317 1.3a8.01 8.01 0 0 1-.448.159 7.52 7.52 0 0 1-.014-.413c-.01-1.351-.007-2.7 0-4.056.006-2.771.013-5.636-.1-8.471a7.814 7.814 0 0 0-1.73-4.581l-.031-.039-.034-.037a4043.983 4043.983 0 0 0-26.507-29.212l-.026-.028-.026-.027a12.6 12.6 0 0 0-1.773-1.492c.171.006.343.009.513.009s.361 0 .542-.01q32.748-.089 65.506-.185l2.228-.005c.293 0 .574-.01.841-.027m1.325-9.49h-71.819a5.269 5.269 0 0 0-5.315 4.55 5.928 5.928 0 0 0-.031.552 5.925 5.925 0 0 0 3.486 5.338 10.68 10.68 0 0 1 3.075 2.166q13.315 14.532 26.493 29.2a5.765 5.765 0 0 1 1.284 3.4c.164 4.148.071 8.309.1 12.462.015 1.746.4 2.525 1.445 2.525a5.128 5.128 0 0 0 1.735-.42c2.858-1.1 5.682-2.28 8.555-3.332a2.613 2.613 0 0 0 1.991-2.881c-.1-2.857-.159-5.726 0-8.576a5.607 5.607 0 0 1 1.246-3.212q13.351-15.054 26.867-29.966a5.207 5.207 0 0 1 1.745-1.3c2.845-1.222 4.3-3.073 4.267-5.607 0-.176-.012-.35-.03-.523a5.053 5.053 0 0 0-5.1-4.371zm-70.076 2.633q17.045-.055 34.085-.1l33.889-.1c2.787 0 4.079.817 4.059 2.571-.032 1.733-1.28 2.5-4.129 2.51q-33.89.1-67.77.192c-.167.007-.334.01-.5.01a12.327 12.327 0 0 1-1.331-.071 2.347 2.347 0 0 1-2.187-2.5v-.007a2.378 2.378 0 0 1 2.252-2.464 10.859 10.859 0 0 1 1.111-.057c.173 0 .347 0 .52.013z" class="cls-5" data-name="Path 3021-2"/>
                    </g>
                    <g id="Group_8054" data-name="Group 8054">
                        <path id="Path_3022-2" d="M1153.017 631.593c-3.4 4.151-7.027 6.265-12.282 5.251a5.224 5.224 0 0 1-2.756-1.215" class="cls-7" data-name="Path 3022-2"/>
                        <path id="Path_5413" d="M1143.224 637.594a13.554 13.554 0 0 1-2.584-.26 5.662 5.662 0 0 1-2.987-1.325l.651-.76a4.712 4.712 0 0 0 2.492 1.1c4.653.895 8.187-.62 11.834-5.072l.773.634c-3.165 3.863-6.382 5.683-10.179 5.683z" class="cls-5" data-name="Path 5413"/>
                    </g>
                    <path id="Path_3022-2-2" d="M1113.969 606.791a15.839 15.839 0 0 0 .984 1.372c.1.11.194.207.292.316l55.825-.158c-.656.8-1.057 1.312-1.494 1.8-6.912 7.7-14.078 15.183-20.637 23.187a17.767 17.767 0 0 1-4.057 3.778c4.142.134 7.215-1.931 10.13-5.49 6.559-7.993 13.725-15.487 20.637-23.176.437-.485.838-1.008 1.494-1.8z" class="cls-8" data-name="Path 3022-2"/>
                    <path id="Path_3024" d="M1147.249 640.151l-7.234.021.034 12c2.274-.894 4.453-1.715 6.591-2.632a1.429 1.429 0 0 0 .607-1.106c.041-2.697.009-5.398.002-8.283z" class="cls-7" data-name="Path 3024"/>
                    <rect id="Rectangle_2091" width="81.883" height="10" class="cls-9" data-name="Rectangle 2091" rx="4.966" transform="translate(1102.543 595.799)"/>
                </g>
            </g>
        </g>
    </g>
</svg>
