<svg xmlns="http://www.w3.org/2000/svg" width="120" height="25" viewBox="0 0 120 25">
    <defs>
        <style>
            .cls-1{fill:#4954cb;stroke:#c89fff}.cls-2,.cls-6{fill:none}.cls-3{fill:#fbe1d5;stroke:#feb89e}.cls-4{clip-path:url(#clip-path)}.cls-5{opacity:.1;clip-path:url(#clip-path-2)}.cls-6{stroke:#915439}.cls-7{fill:#915439;font-size:12px;font-family:Roboto-Bold,Roboto;font-weight:700}.cls-8{stroke:none}
        </style>
        <clipPath id="clip-path">
            <rect id="Rectangle_1239" width="120" height="24" class="cls-1" data-name="Rectangle 1239" rx="4"/>
        </clipPath>
        <clipPath id="clip-path-2">
            <path d="M0 0h455.533v26.874H0z" class="cls-2"/>
        </clipPath>
    </defs>
    <g id="Group_5656" data-name="Group 5656" transform="translate(60 -456)">
        <g id="Group_5668" data-name="Group 5668" transform="translate(-151)">
            <g id="Group_5643" data-name="Group 5643">
                <g id="Rectangle_1218" class="cls-3" data-name="Rectangle 1218" transform="translate(91 456)">
                    <rect width="120" height="25" class="cls-8" rx="4"/>
                    <rect width="119" height="24" x=".5" y=".5" class="cls-2" rx="3.5"/>
                </g>
                <g id="Mask_Group_23" class="cls-4" data-name="Mask Group 23" transform="translate(91 457)">
                    <g id="Repeat_Grid_58" class="cls-5" data-name="Repeat Grid 58">
                        <g transform="translate(-152.6 -24.219)">
                            <path id="Line_1251" d="M0 0v94" class="cls-6" data-name="Line 1251" transform="rotate(45 9.282 101.845)"/>
                        </g>
                        <g transform="translate(-142.6 -24.219)">
                            <path id="Line_1252" d="M0 0v94" class="cls-6" data-name="Line 1252" transform="rotate(45 9.282 101.845)"/>
                        </g>
                        <g transform="translate(-132.6 -24.219)">
                            <path id="Line_1253" d="M0 0v94" class="cls-6" data-name="Line 1253" transform="rotate(45 9.282 101.845)"/>
                        </g>
                        <g transform="translate(-122.6 -24.219)">
                            <path id="Line_1254" d="M0 0v94" class="cls-6" data-name="Line 1254" transform="rotate(45 9.282 101.845)"/>
                        </g>
                        <g transform="translate(-112.6 -24.219)">
                            <path id="Line_1255" d="M0 0v94" class="cls-6" data-name="Line 1255" transform="rotate(45 9.282 101.845)"/>
                        </g>
                        <g transform="translate(-102.6 -24.219)">
                            <path id="Line_1256" d="M0 0v94" class="cls-6" data-name="Line 1256" transform="rotate(45 9.282 101.845)"/>
                        </g>
                        <g transform="translate(-92.6 -24.219)">
                            <path id="Line_1257" d="M0 0v94" class="cls-6" data-name="Line 1257" transform="rotate(45 9.282 101.845)"/>
                        </g>
                        <g transform="translate(-82.6 -24.219)">
                            <path id="Line_1258" d="M0 0v94" class="cls-6" data-name="Line 1258" transform="rotate(45 9.282 101.845)"/>
                        </g>
                        <g transform="translate(-72.6 -24.219)">
                            <path id="Line_1259" d="M0 0v94" class="cls-6" data-name="Line 1259" transform="rotate(45 9.282 101.845)"/>
                        </g>
                        <g transform="translate(-62.6 -24.219)">
                            <path id="Line_1260" d="M0 0v94" class="cls-6" data-name="Line 1260" transform="rotate(45 9.282 101.845)"/>
                        </g>
                        <g transform="translate(-52.6 -24.219)">
                            <path id="Line_1261" d="M0 0v94" class="cls-6" data-name="Line 1261" transform="rotate(45 9.282 101.845)"/>
                        </g>
                        <g transform="translate(-42.6 -24.219)">
                            <path id="Line_1262" d="M0 0v94" class="cls-6" data-name="Line 1262" transform="rotate(45 9.282 101.845)"/>
                        </g>
                        <g transform="translate(-32.6 -24.219)">
                            <path id="Line_1263" d="M0 0v94" class="cls-6" data-name="Line 1263" transform="rotate(45 9.282 101.845)"/>
                        </g>
                        <g transform="translate(-22.6 -24.219)">
                            <path id="Line_1264" d="M0 0v94" class="cls-6" data-name="Line 1264" transform="rotate(45 9.282 101.845)"/>
                        </g>
                        <g transform="translate(-12.6 -24.219)">
                            <path id="Line_1265" d="M0 0v94" class="cls-6" data-name="Line 1265" transform="rotate(45 9.282 101.845)"/>
                        </g>
                        <g transform="translate(-2.6 -24.219)">
                            <path id="Line_1266" d="M0 0v94" class="cls-6" data-name="Line 1266" transform="rotate(45 9.282 101.845)"/>
                        </g>
                        <g transform="translate(7.4 -24.219)">
                            <path id="Line_1267" d="M0 0v94" class="cls-6" data-name="Line 1267" transform="rotate(45 9.282 101.845)"/>
                        </g>
                        <g transform="translate(17.4 -24.219)">
                            <path id="Line_1268" d="M0 0v94" class="cls-6" data-name="Line 1268" transform="rotate(45 9.282 101.845)"/>
                        </g>
                        <g transform="translate(27.4 -24.219)">
                            <path id="Line_1269" d="M0 0v94" class="cls-6" data-name="Line 1269" transform="rotate(45 9.282 101.845)"/>
                        </g>
                        <g transform="translate(37.4 -24.219)">
                            <path id="Line_1269-2" d="M0 0v94" class="cls-6" data-name="Line 1269" transform="rotate(45 9.282 101.845)"/>
                        </g>
                        <g transform="translate(47.4 -24.219)">
                            <path id="Line_1269-3" d="M0 0v94" class="cls-6" data-name="Line 1269" transform="rotate(45 9.282 101.845)"/>
                        </g>
                        <g transform="translate(57.4 -24.219)">
                            <path id="Line_1269-4" d="M0 0v94" class="cls-6" data-name="Line 1269" transform="rotate(45 9.282 101.845)"/>
                        </g>
                        <g transform="translate(67.4 -24.219)">
                            <path id="Line_1269-5" d="M0 0v94" class="cls-6" data-name="Line 1269" transform="rotate(45 9.282 101.845)"/>
                        </g>
                        <g transform="translate(77.4 -24.219)">
                            <path id="Line_1269-6" d="M0 0v94" class="cls-6" data-name="Line 1269" transform="rotate(45 9.282 101.845)"/>
                        </g>
                        <g transform="translate(87.4 -24.219)">
                            <path id="Line_1269-7" d="M0 0v94" class="cls-6" data-name="Line 1269" transform="rotate(45 9.282 101.845)"/>
                        </g>
                        <g transform="translate(97.4 -24.219)">
                            <path id="Line_1269-8" d="M0 0v94" class="cls-6" data-name="Line 1269" transform="rotate(45 9.282 101.845)"/>
                        </g>
                        <g transform="translate(107.4 -24.219)">
                            <path id="Line_1269-9" d="M0 0v94" class="cls-6" data-name="Line 1269" transform="rotate(45 9.282 101.845)"/>
                        </g>
                        <g transform="translate(117.4 -24.219)">
                            <path id="Line_1269-10" d="M0 0v94" class="cls-6" data-name="Line 1269" transform="rotate(45 9.282 101.845)"/>
                        </g>
                        <g transform="translate(127.4 -24.219)">
                            <path id="Line_1269-11" d="M0 0v94" class="cls-6" data-name="Line 1269" transform="rotate(45 9.282 101.845)"/>
                        </g>
                        <g transform="translate(137.4 -24.219)">
                            <path id="Line_1269-12" d="M0 0v94" class="cls-6" data-name="Line 1269" transform="rotate(45 9.282 101.845)"/>
                        </g>
                        <g transform="translate(147.4 -24.219)">
                            <path id="Line_1269-13" d="M0 0v94" class="cls-6" data-name="Line 1269" transform="rotate(45 9.282 101.845)"/>
                        </g>
                        <g transform="translate(157.4 -24.219)">
                            <path id="Line_1269-14" d="M0 0v94" class="cls-6" data-name="Line 1269" transform="rotate(45 9.282 101.845)"/>
                        </g>
                        <g transform="translate(167.4 -24.219)">
                            <path id="Line_1269-15" d="M0 0v94" class="cls-6" data-name="Line 1269" transform="rotate(45 9.282 101.845)"/>
                        </g>
                        <g transform="translate(177.4 -24.219)">
                            <path id="Line_1269-16" d="M0 0v94" class="cls-6" data-name="Line 1269" transform="rotate(45 9.282 101.845)"/>
                        </g>
                        <g transform="translate(187.4 -24.219)">
                            <path id="Line_1269-17" d="M0 0v94" class="cls-6" data-name="Line 1269" transform="rotate(45 9.282 101.845)"/>
                        </g>
                        <g transform="translate(197.4 -24.219)">
                            <path id="Line_1269-18" d="M0 0v94" class="cls-6" data-name="Line 1269" transform="rotate(45 9.282 101.845)"/>
                        </g>
                        <g transform="translate(207.4 -24.219)">
                            <path id="Line_1269-19" d="M0 0v94" class="cls-6" data-name="Line 1269" transform="rotate(45 9.282 101.845)"/>
                        </g>
                        <g transform="translate(217.4 -24.219)">
                            <path id="Line_1269-20" d="M0 0v94" class="cls-6" data-name="Line 1269" transform="rotate(45 9.282 101.845)"/>
                        </g>
                        <g transform="translate(227.4 -24.219)">
                            <path id="Line_1269-21" d="M0 0v94" class="cls-6" data-name="Line 1269" transform="rotate(45 9.282 101.845)"/>
                        </g>
                        <g transform="translate(237.4 -24.219)">
                            <path id="Line_1269-22" d="M0 0v94" class="cls-6" data-name="Line 1269" transform="rotate(45 9.282 101.845)"/>
                        </g>
                        <g transform="translate(247.4 -24.219)">
                            <path id="Line_1269-23" d="M0 0v94" class="cls-6" data-name="Line 1269" transform="rotate(45 9.282 101.845)"/>
                        </g>
                        <g transform="translate(257.4 -24.219)">
                            <path id="Line_1269-24" d="M0 0v94" class="cls-6" data-name="Line 1269" transform="rotate(45 9.282 101.845)"/>
                        </g>
                        <g transform="translate(267.4 -24.219)">
                            <path id="Line_1269-25" d="M0 0v94" class="cls-6" data-name="Line 1269" transform="rotate(45 9.282 101.845)"/>
                        </g>
                        <g transform="translate(277.4 -24.219)">
                            <path id="Line_1269-26" d="M0 0v94" class="cls-6" data-name="Line 1269" transform="rotate(45 9.282 101.845)"/>
                        </g>
                        <g transform="translate(287.4 -24.219)">
                            <path id="Line_1269-27" d="M0 0v94" class="cls-6" data-name="Line 1269" transform="rotate(45 9.282 101.845)"/>
                        </g>
                        <g transform="translate(297.4 -24.219)">
                            <path id="Line_1269-28" d="M0 0v94" class="cls-6" data-name="Line 1269" transform="rotate(45 9.282 101.845)"/>
                        </g>
                    </g>
                </g>
            </g>
            <text id="Lead_Qualification_" class="cls-7" data-name="Lead Qualification" transform="translate(101 473)">
                <tspan x="0" y="0">Lead Qualification</tspan>
            </text>
        </g>
    </g>
</svg>
