<svg xmlns="http://www.w3.org/2000/svg" width="169.422" height="148.613" viewBox="0 0 169.422 148.613">
    <defs>
        <style>
            .cls-1,.cls-3,.cls-4{fill:none;stroke-miterlimit:10}.cls-1,.cls-6{stroke:#bf263f}.cls-1{stroke-width:1.426px;stroke-dasharray:2.341 4.681;opacity:.512}.cls-2{fill:#ed4d67;opacity:.1}.cls-3,.cls-4{stroke:#f7657d;stroke-width:1.17px}.cls-3{opacity:.18}.cls-4{opacity:.14}.cls-5,.cls-6{fill:#fff}.cls-6{stroke-width:2.286px}.cls-7{fill:#bf263f}
        </style>
    </defs>
    <g id="_01" data-name="1" transform="translate(-281.667 -57.284)">
        <g id="Group_2358" data-name="Group 2358">
            <g id="Group_2354" data-name="Group 2354">
                <g id="Group_2352" data-name="Group 2352">
                    <path id="Path_826" d="M301.124 91.923c10.873 33.834 16.16 56.833 6.283 89.336-10.607 34.909 61.973 26.781 89.338 6.284 26.017-19.489 70.688-44.273-6.283-89.337-31.954-18.706-100.662-41.52-89.338-6.283z" class="cls-1" data-name="Path 826"/>
                    <path id="Path_777" d="M432.088 83.622c-15.262 34.576-23.41 58.314-16.578 93.791 7.339 38.1-68.522 21.435-95.187-3.286-25.353-23.5-69.842-54.685 16.577-93.79 35.871-16.237 111.076-32.724 95.188 3.285z" class="cls-2" data-name="Path 777"/>
                </g>
                <g id="Group_2356" data-name="Group 2356">
                    <circle id="Ellipse_80" cx="3.297" cy="3.297" r="3.297" class="cls-3" data-name="Ellipse 80" transform="translate(426.228 87.949)"/>
                    <path id="Path_823" d="M433.955 123.588l5.172-2.714.7-5.8 4.179 4.08 5.735-1.129-2.589 5.235 2.845 5.1-5.779-.845-3.973 4.283-.983-5.757z" class="cls-4" data-name="Path 823"/>
                    <path id="Path_828" d="M285.235 58.376l3.389 1.9 3.495-1.713-.762 3.812 2.708 2.788-3.859.454-1.817 3.437-1.623-3.531-3.83-.663 2.857-2.635z" class="cls-4" data-name="Path 828"/>
                    <circle id="Ellipse_81" cx="5.638" cy="5.638" r="5.638" class="cls-3" data-name="Ellipse 81" transform="translate(286.954 175.725)"/>
                </g>
            </g>
        </g>
        <g id="Group_5993" data-name="Group 5993" transform="translate(331.936 88.376)">
            <path id="Path_3016" d="M876.453 1292.716v.12c-6.189.019-12.107.033-18.263.053v-.173z" class="cls-5" data-name="Path 3016" transform="translate(-858.19 -1256.395)"/>
            <path id="Path_3017" d="M914.546 1292.716v.02c-6.089.015-12.021.033-18.115.052v-.072z" class="cls-5" data-name="Path 3017" transform="translate(-867.485 -1256.395)"/>
            <g id="Group_5989" data-name="Group 5989" transform="translate(24.165)">
                <path id="Path_3018" d="M910.685 1261.1l.1.641a1.947 1.947 0 0 1-1.614 2.23l-16.66 2.67a1.947 1.947 0 0 1-2.23-1.614l-.1-.641a5.192 5.192 0 0 1 4.3-5.948l2.206-.353a7.066 7.066 0 0 0 5.84-.936l2.206-.354a5.191 5.191 0 0 1 5.952 4.305zm-17.97-9.607a5.841 5.841 0 1 1 6.691 4.843 5.842 5.842 0 0 1-6.691-4.836z" class="cls-6" data-name="Path 3018" transform="translate(-890.115 -1244.732)"/>
            </g>
            <g id="Group_5990" data-name="Group 5990" transform="translate(9.092 19.925)">
                <path id="Path_3019" d="M890.316 1285.732l.185.621a1.948 1.948 0 0 1-1.306 2.424l-16.165 4.836a1.948 1.948 0 0 1-2.423-1.307l-.186-.621a5.191 5.191 0 0 1 3.486-6.462l2.141-.64a7.061 7.061 0 0 0 5.665-1.7l2.141-.64a5.191 5.191 0 0 1 6.462 3.489zm-19.077-7.162a5.84 5.84 0 1 1 7.269 3.921 5.841 5.841 0 0 1-7.269-3.921z" class="cls-6" data-name="Path 3019" transform="translate(-870.201 -1271.055)"/>
            </g>
            <g id="Group_5991" data-name="Group 5991" transform="translate(43.386 14.457)">
                <path id="Path_3020" d="M936.056 1283.749l-.123.638a1.947 1.947 0 0 1-2.281 1.542l-16.566-3.2a1.947 1.947 0 0 1-1.542-2.28l.123-.638a5.191 5.191 0 0 1 6.082-4.112l2.194.425a7.06 7.06 0 0 0 5.806 1.122l2.193.424a5.191 5.191 0 0 1 4.114 6.079zm-13.589-15.185a5.841 5.841 0 1 1 4.626 6.843 5.841 5.841 0 0 1-4.627-6.843z" class="cls-6" data-name="Path 3020" transform="translate(-915.508 -1263.831)"/>
            </g>
            <g id="Group_5992" data-name="Group 5992" transform="translate(.978 37.449)">
                <path id="Path_3021" d="M924.616 1294.207h-62.33a4.6 4.6 0 0 0-2.8 4.2 4.876 4.876 0 0 0 2.87 4.395 8.776 8.776 0 0 1 2.531 1.783q10.963 11.964 21.812 24.038a4.746 4.746 0 0 1 1.057 2.8c.135 3.415.058 6.841.084 10.26.017 2.059.667 2.484 2.618 1.733 2.353-.905 4.678-1.877 7.043-2.743a2.151 2.151 0 0 0 1.639-2.372c-.081-2.352-.131-4.714 0-7.06a4.619 4.619 0 0 1 1.026-2.645q10.993-12.393 22.119-24.67a4.283 4.283 0 0 1 1.437-1.074c2.342-1.006 3.54-2.53 3.513-4.616a4.471 4.471 0 0 0-2.619-4.029zm-28.149 43.282a1.185 1.185 0 0 1-.5.912c-1.76.754-3.554 1.43-5.425 2.167-.01-3.466-.02-6.629-.027-9.883 1.965-.007 3.839-.014 5.953-.017.008 2.373.032 4.596-.002 6.821zm21.735-32.952c-5.687 6.34-11.589 12.505-16.98 19.084-2.8 3.419-5.788 5.158-10.113 4.324a4.317 4.317 0 0 1-2.272-1q-10.357-11.257-20.6-22.617c-.269-.3-.475-.656-.811-1.125 17.371-.048 34.506-.1 52.008-.148-.543.654-.872 1.082-1.234 1.483zm3.025-4.143q-27.9.082-55.794.158a10.362 10.362 0 0 1-1.508-.05 1.933 1.933 0 0 1-1.8-2.063 1.957 1.957 0 0 1 1.854-2.028 8.881 8.881 0 0 1 1.343-.037q14.033-.045 28.062-.081l27.9-.081c2.295 0 3.358.673 3.342 2.117-.026 1.427-1.054 2.06-3.399 2.066z" class="cls-7" data-name="Path 3021" transform="translate(-859.482 -1294.207)"/>
                <path id="Path_3022" d="M920.752 1307.38c-5.687 6.339-11.588 12.5-16.981 19.084-2.8 3.418-5.785 5.158-10.112 4.323a4.3 4.3 0 0 1-2.269-1c-6.907-7.5-13.75-15.064-20.6-22.615a13.455 13.455 0 0 1-.81-1.124l52.008-.147c-.546.652-.876 1.079-1.236 1.479zm-34.519 10.864c-.1-.339-.468-.607-.736-.89-5.149-5.445-2.158-2.064-7.31-7.506a4.121 4.121 0 0 0-.837-.813c-.226-.129-.578-.039-.874-.046a2.376 2.376 0 0 0 .01.9 3.026 3.026 0 0 0 .658.748c5.19 5.484 2.237 2.144 7.431 7.624.337.356.713.675 1.34 1.264.166-.603.402-.988.318-1.281zm12.159 9.607c.335-.11.591-.488.857-.771q7.739-8.268 15.47-16.541c.191-.2.456-.383.547-.626a4.336 4.336 0 0 0 .131-1.026 3.217 3.217 0 0 0-1 .146 2.972 2.972 0 0 0-.709.7q-7.677 8.209-15.351 16.421c-.336.36-.637.752-1.184 1.4.571.156.959.39 1.239.297z" class="cls-5" data-name="Path 3022" transform="translate(-862.033 -1297.05)"/>
                <path id="Path_3023" d="M894.229 1296.937q-14.032.038-28.064.08a9.307 9.307 0 0 0-1.342.039 1.957 1.957 0 0 0-1.854 2.027 1.936 1.936 0 0 0 1.8 2.066 10.055 10.055 0 0 0 1.509.048q27.9-.076 55.792-.157c2.346-.007 3.375-.637 3.393-2.065.017-1.446-1.048-2.122-3.343-2.116q-13.944.041-27.891.078z" class="cls-5" data-name="Path 3023" transform="translate(-860.329 -1294.852)"/>
                <path id="Path_3024" d="M906.436 1342.375l-5.955.017.028 9.882c1.872-.736 3.666-1.412 5.426-2.167a1.18 1.18 0 0 0 .5-.91c.033-2.223.007-4.447.001-6.822z" class="cls-5" data-name="Path 3024" transform="translate(-869.447 -1305.915)"/>
                <path id="Path_3025" d="M887.317 1319.642c.082-.3.2-.494.159-.641-.049-.169-.234-.3-.368-.445q-3.863-4.085-7.727-8.166a2.066 2.066 0 0 0-.419-.406c-.113-.065-.289-.02-.437-.023a1.181 1.181 0 0 0 0 .45 1.513 1.513 0 0 0 .329.375q3.892 4.113 7.786 8.224c.175.178.36.338.677.632z" class="cls-7" data-name="Path 3025" transform="translate(-864.106 -1298.033)"/>
                <path id="Path_3026" d="M905.881 1328.518c.57.151.958.385 1.238.292.334-.111.591-.488.857-.771q7.739-8.268 15.469-16.541c.191-.2.456-.383.547-.626a4.34 4.34 0 0 0 .131-1.026 3.23 3.23 0 0 0-1 .146 2.979 2.979 0 0 0-.709.7q-7.677 8.209-15.351 16.421c-.334.363-.636.756-1.182 1.405z" class="cls-7" data-name="Path 3026" transform="translate(-870.76 -1298.008)"/>
            </g>
        </g>
    </g>
</svg>
