<svg xmlns="http://www.w3.org/2000/svg" width="169.421" height="148.613" viewBox="0 0 169.421 148.613">
    <defs>
        <style>
            .cls-1,.cls-3,.cls-4{fill:none}.cls-1,.cls-5{stroke:#bf263f}.cls-1,.cls-3,.cls-4,.cls-5{stroke-miterlimit:10}.cls-1{stroke-width:1.426px;stroke-dasharray:2.341 4.681;opacity:.512}.cls-2{fill:#ed4d67;opacity:.1}.cls-3,.cls-4{stroke:#f7657d;stroke-width:1.17px}.cls-3{opacity:.18}.cls-4{opacity:.14}.cls-5{fill:#fff;stroke-width:1.9px}
        </style>
    </defs>
    <g id="_04" data-name="4" transform="translate(-496.239 -57.284)">
        <g id="Group_2358" data-name="Group 2358">
            <g id="Group_2354" data-name="Group 2354">
                <g id="Group_2352" data-name="Group 2352">
                    <path id="Path_826" d="M515.7 91.923c10.873 33.834 16.159 56.833 6.283 89.336-10.608 34.909 61.972 26.781 89.337 6.284 26.018-19.489 70.688-44.273-6.283-89.337C573.08 79.5 504.371 56.686 515.7 91.923z" class="cls-1" data-name="Path 826"/>
                    <path id="Path_777" d="M646.659 83.622c-15.259 34.578-23.409 58.314-16.577 93.791 7.339 38.1-68.523 21.435-95.187-3.286-25.354-23.5-69.843-54.685 16.576-93.79 35.871-16.237 111.077-32.724 95.188 3.285z" class="cls-2" data-name="Path 777"/>
                </g>
                <g id="Group_2356" data-name="Group 2356">
                    <circle id="Ellipse_80" cx="3.297" cy="3.297" r="3.297" class="cls-3" data-name="Ellipse 80" transform="translate(640.799 87.949)"/>
                    <path id="Path_823" d="M648.527 123.588l5.172-2.714.7-5.8 4.179 4.08 5.735-1.129-2.589 5.235 2.845 5.1-5.779-.845-3.97 4.285-.983-5.757z" class="cls-4" data-name="Path 823"/>
                    <path id="Path_828" d="M499.807 58.376l3.388 1.9 3.5-1.713-.762 3.812 2.708 2.788-3.86.454-1.816 3.437-1.624-3.531-3.829-.663 2.857-2.635z" class="cls-4" data-name="Path 828"/>
                    <circle id="Ellipse_81" cx="5.638" cy="5.638" r="5.638" class="cls-3" data-name="Ellipse 81" transform="translate(501.526 175.725)"/>
                </g>
            </g>
        </g>
        <g id="Group_3912" data-name="Group 3912" transform="translate(-686.631 -930.764)">
            <g id="Group_3910" data-name="Group 3910">
                <path id="Path_2885" d="M1346.127 1052.175a2.148 2.148 0 0 0 .2-2.173.754.754 0 0 0-.6-.331 13.427 13.427 0 0 0-2.473-.882c-2.1-.73-4.181-1.518-6.278-2.259a50.075 50.075 0 0 0-12.49-3.042c-7.826-.648-15.488 1.425-23.088 2.962-1.876.4-3.851.593-5.727.889a32.33 32.33 0 0 0-6.024 1.778c-3.554 1.382-7.8.3-10.96 2.369l-.244.231a17.62 17.62 0 0 1-4.693 1.349c-1.383.3-3.95.4-2.864 2.37.843 1.588 2.734 1.928 4.732 1.812-1.114 2.939 4.71 2.282 6.031 1.915 1.812-.5 3.237-1.833 5.007-2.424a14.45 14.45 0 0 1 1.957-.38c.384.04.772.089 1.157.143l-.047.071a38.311 38.311 0 0 1-4.3 4.96c-.815.889-2.888 1.407-1.925 2.814a2.6 2.6 0 0 0 3.258.519c2.814-1.111 5.184-2.592 6.443-5.332l.078-.038a4.256 4.256 0 0 0 2.016-.33 15.312 15.312 0 0 0 1.052 1.143 11.554 11.554 0 0 1-4.035 3.52 25.874 25.874 0 0 0-5.377 2.923 15.192 15.192 0 0 1-3.5 2.009 5.156 5.156 0 0 0-3.173 2.874c-.875 2.537 1.683 3.976 3.851 3.846 5.924-.3 9.38-4.74 14.515-6.715 1.687-.625 3.255-.776 4.63-1.477a15.9 15.9 0 0 0 9.786-2.472c1.375-1.017 2.533-2.322 3.868-3.3 2.874.625 6.135-1.694 9.068-1.141a25.433 25.433 0 0 1 8.1 3.368 24.934 24.934 0 0 0 2.235 1.271 11.609 11.609 0 0 0 3.76 2.456c.857-1.064.8-3.012 1.63-4.33.629-1 1.74-1.637 2.323-2.666a6.059 6.059 0 0 0 .614-3.242 9.262 9.262 0 0 1-.1-2.784c.27-1.057 1.013-1.449 1.587-2.274z" class="cls-5" data-name="Path 2885"/>
                <path id="Path_2886" d="M1346.058 1049.593c-7.626-2.524-15.1-6.069-23.26-6.345a57.781 57.781 0 0 0-12.707 1.293c-2.116.4-4.225.852-6.333 1.3s-4.217.818-6.355 1.11a29.679 29.679 0 0 0-5.033 1.063 39.826 39.826 0 0 1-4.731 1.512c-3.007.558-6.341.105-9.006 1.878a.1.1 0 0 0-.044.1 17.064 17.064 0 0 1-4.419 1.379 13.022 13.022 0 0 0-2.858.664 1.34 1.34 0 0 0-.75.735 1.626 1.626 0 0 0 .241 1.276 3.458 3.458 0 0 0 2.177 1.617 7.526 7.526 0 0 0 2.475.226 1.389 1.389 0 0 0 .331 1.519 3.506 3.506 0 0 0 2.039.683 9.967 9.967 0 0 0 4.8-.667c.968-.418 1.85-1.012 2.776-1.512a6.351 6.351 0 0 1 3.206-.866.109.109 0 0 0 .1-.057c.292.031.584.067.876.106-.952 1.309-2.1 2.468-3.168 3.679a10.615 10.615 0 0 1-1.473 1.559c-.4.3-.845.546-1.23.871a1.306 1.306 0 0 0-.548 1.01 1.729 1.729 0 0 0 .849 1.264c1.071.713 2.391.188 3.445-.257a10.59 10.59 0 0 0 5.821-5.124 3.749 3.749 0 0 0 1.805-.285 6.858 6.858 0 0 0 1.11 1.043l-.062.075a13.711 13.711 0 0 1-3.129 2.881 18.554 18.554 0 0 1-2.037.987c-.74.341-1.475.692-2.185 1.09a14.844 14.844 0 0 0-2 1.352 13.2 13.2 0 0 1-2.2 1.392c-1.271.657-2.639 1.069-3.633 2.156a3.236 3.236 0 0 0-.786 3.281 3.468 3.468 0 0 0 2.36 1.857 7.694 7.694 0 0 0 3.758-.123 22.639 22.639 0 0 0 7.144-3.523c1.133-.734 2.272-1.462 3.469-2.09a18.569 18.569 0 0 1 3.831-1.44 12.456 12.456 0 0 0 2.578-.9 15.794 15.794 0 0 0 8.768-1.785 17.844 17.844 0 0 0 3.348-2.63 20.378 20.378 0 0 1 1.745-1.469c2.831.4 5.513-1.328 8.361-1.025a12.715 12.715 0 0 1 2.354.548 21.213 21.213 0 0 1 2.229.831 36.668 36.668 0 0 1 4.077 2.148c1.816 1.078 3.582 2.246 5.464 3.209a.108.108 0 0 0 .109-.187c-2.677-1.549-5.249-3.3-8.005-4.708a22.833 22.833 0 0 0-4.249-1.7 11.508 11.508 0 0 0-2.249-.441 8.468 8.468 0 0 0-2.142.162c-1.019.186-2.012.494-3.02.725a11.258 11.258 0 0 1-2.741.308 7.09 7.09 0 0 1 1.476-.8 9.76 9.76 0 0 1 3.3-.5.062.062 0 0 0 0-.123 8.423 8.423 0 0 0-4.325.9 16.766 16.766 0 0 0-3.186 2.5 21.256 21.256 0 0 1-1.639 1.388 11.045 11.045 0 0 1-2.041 1.145 15.763 15.763 0 0 1-4.631 1.242 21.3 21.3 0 0 1-2.789.14 6.113 6.113 0 0 0 1.977-1.89c.044-.067-.063-.129-.107-.063a5.789 5.789 0 0 1-2.216 1.947.051.051 0 0 0-.049.026 7.336 7.336 0 0 1-.949.386c-1.231.4-2.52.6-3.732 1.069a44.013 44.013 0 0 0-6.977 4.014 14.837 14.837 0 0 1-7.688 2.641 4.044 4.044 0 0 1-3.072-1.31 2.843 2.843 0 0 1 .32-3.571c.956-1.169 2.442-1.581 3.734-2.245 1.495-.768 2.756-1.885 4.232-2.684.717-.388 1.458-.73 2.2-1.068a17.8 17.8 0 0 0 2.014-.989 11.529 11.529 0 0 0 2.959-2.819c.912-1.18 1.737-2.423 2.592-3.645.022-.032-.03-.061-.052-.03-.429.6-.852 1.2-1.287 1.8a6.54 6.54 0 0 0-2.424-2.4.031.031 0 0 0-.031.053 5.582 5.582 0 0 1 2.293 2.442.1.1 0 0 0 .051.056c-.314.424-.636.842-.972 1.249-1.839-1.46-2.75-4.347-5.29-4.821a.062.062 0 0 0-.033.12 4.484 4.484 0 0 1 1.668.881 5.464 5.464 0 0 1 .611.615 38.376 38.376 0 0 0-6.281-.887 34.69 34.69 0 0 0-3.428.058c-.862.051-1.729.107-2.593.092a.081.081 0 0 0-.054-.009l-.039.007a12.124 12.124 0 0 1-1.025-.063c-.04 0-.05.065-.01.07.2.03.4.053.607.073a38.293 38.293 0 0 1-4.736.776c-.041-.052-.137-.069-.169 0v.007q-.4.021-.805.015a5.129 5.129 0 0 1-2.911-.783c-.642-.454-1.592-1.687-.806-2.391a2.991 2.991 0 0 1 1.368-.54c.512-.112 1.035-.2 1.552-.283a14.749 14.749 0 0 0 4.987-1.546.114.114 0 0 0 .039-.167c3.079-1.757 6.89-.958 10.191-2 .925-.291 1.825-.664 2.744-.975a26.964 26.964 0 0 1 2.7-.766c2.077-.467 4.216-.6 6.305-1.015 4.222-.835 8.4-1.876 12.657-2.535a43.779 43.779 0 0 1 12.938-.272c6.783.98 12.954 4.039 19.474 5.958.15.04.207-.186.065-.235zm-52.792 7.635a.123.123 0 0 0 .143-.092c.158.193.309.392.456.592.341.463.676.933 1.042 1.375a5.037 5.037 0 0 1-1.5.288 9.112 9.112 0 0 1-1.906-.188.036.036 0 0 0-.019.069 11.073 11.073 0 0 0 1.569.311c-1.245 2.538-3.625 4.045-6.176 5.084a4.215 4.215 0 0 1-1.836.4 1.907 1.907 0 0 1-1.65-1.1c-.212-.509.149-.922.524-1.222.405-.322.866-.566 1.273-.886a9.75 9.75 0 0 0 1.03-1.081c.425-.455.882-.877 1.305-1.333a25.547 25.547 0 0 0 2.3-2.812 78.11 78.11 0 0 1 3.445.595zm-17.587.154c.494-.036.985-.1 1.462-.169 1.3-.192 2.553-.543 3.835-.81a.072.072 0 0 0 .041-.024c1.931.127 3.875-.065 5.81-.013q.34.009.683.03c-2.168.44-3.868 2.187-6.047 2.689a11.846 11.846 0 0 1-2.125.255 8.049 8.049 0 0 1-2.524-.2 1.831 1.831 0 0 1-1.056-.647 1.294 1.294 0 0 1-.079-1.111zm8.336 12.409a.055.055 0 0 0-.052.031 2.963 2.963 0 0 0-2.6.86 2.052 2.052 0 0 0-.113 1.664 3.965 3.965 0 0 0 1.062 1.77 2.441 2.441 0 0 0 1.5.742 3.244 3.244 0 0 0 1.757-.454 1.715 1.715 0 0 0 .876-1.031 2.755 2.755 0 0 0-.219-1.668 2.591 2.591 0 0 0-2.211-1.914zm2.316 3.053c.077 1.335-1.592 1.941-2.7 1.772a2.751 2.751 0 0 1-1.6-1.092 3.177 3.177 0 0 1-.74-2.219c.106-1.232 1.708-1.384 2.673-1.421a.057.057 0 0 0 .05.03c1.386.042 2.246 1.706 2.317 2.93z" class="cls-5" data-name="Path 2886"/>
            </g>
            <g id="Group_3911" data-name="Group 3911">
                <path id="Path_2887" d="M1189.5 1050.495c-2.036 8.014 1.025 12.135 1.025 12.135 5.188 1.245 10.33 2.829 15.324 4.548 3.838 1.25 7.055 2.3 9.934 3.405 2.592.95 4.545 2.775 6.851 4.362a33.592 33.592 0 0 0 11.524 5.1l.213.095c1.219.589 2.243 1.7 3.5 2.214 1.187.474 2.568.087 3.8-.042a25.826 25.826 0 0 1 3.973-.431c.752.025 1.484-1.346 1.013-2.144l-.168-.087a9.7 9.7 0 0 0 2.834.085 27.541 27.541 0 0 0 4.68-.567l-.038-.017h.1c.3-.033.672 0 1-.064h.006a1.408 1.408 0 0 0 .172-.048l.037.021c.795-.812 1.424-2.446.094-3.1l-.028-.1a23.367 23.367 0 0 1 5.487 1.594c.362.131.852.552 1.252.487 1.909-.162 1.664-2.7.808-3.762-1.4-1.657-4.342-2.878-6.42-3.32l-1.085-.138-.307-.015c-.195-.11-.4-.213-.6-.311a23.75 23.75 0 0 0-3.513-1.251c-.789-.245-3.152-.591-3.565-1.53l-.117-.323c.61-.311 1.7.083 2.374.172 1.767.361 4.032 1.41 5.84 1.095.06-.01.12-.022.179-.036l.259-.072c1.9-.021 6.612 2.546 8 .645 2.554-3.507-7.911-6.485-9.93-6.384l-.11-.063a9.834 9.834 0 0 0-3.428-1.273 17.973 17.973 0 0 1-3.924-1.553 22.373 22.373 0 0 1-3.365-1.384c-.908-.583-1.236-1.421-1.995-2.139a4.562 4.562 0 0 0-.97-.744l.01-.135a9.473 9.473 0 0 1 3.134-1.436c1.882-.589 3.687.067 5.361-.571 2.467-.939 4.772-2.453 4.938-4.3.293-3.267-2.062-2.711-4.363-2.066-1.8.442-3.571.318-5.3.8a15.084 15.084 0 0 1-3.241.357l-.287.057c-1.046-.079-2.04-.638-3.061-.631a11.565 11.565 0 0 0-2.91.908l-.345.1a15.926 15.926 0 0 0-4.456 1.2c-1.874.617-4.931 1.66-6.367 3.179l-.259.072c-2.16.094-4.494-.928-6.464-1.818-4.919-2.112-9.568-3.927-14.6-5.96-2.42-1-4.887-2.167-7.669-3.3.001.011-2.802.47-4.837 8.484zm54.037 22.9l-.039-.01.033-.033zm7.856 2.046c4.834.618 2.337-.324 1.186-.508-2.4-.026-5.476-.887-7.811-1.3-.189-.009-.356-.055-.545-.064l-.1-.025c2.697-.359 4.851 1.225 7.27 1.895zm-12.885 1.311l.007-.089.071.036c.094 0 .168.046.262.05a27.4 27.4 0 0 1 6.3 2.354l-.148-.045-1.2-.593a4.638 4.638 0 0 0-2.639.212c-.752-.471-2.423-1.12-2.784-1.856.023-.134.073-.055.131-.071z" class="cls-5" data-name="Path 2887"/>
                <path id="Path_2888" d="M1251.577 1050.1a2.992 2.992 0 0 0 .714-.013c.166-.022.33-.059.494-.09h.012a2.18 2.18 0 0 0 .417-1.63 2.207 2.207 0 0 0-.825-1.424c-.047-.036-.139-.01-.2-.007l-.232.014c-.165.011-.33.024-.494.042a4.674 4.674 0 0 0-.919.172 1.405 1.405 0 0 0-.644.364.7.7 0 0 0-.154.274 1.268 1.268 0 0 0-.025.4 1.975 1.975 0 0 0 .6 1.383 2.184 2.184 0 0 0 1.256.515zm-1.749-1.449a2.339 2.339 0 0 1-.065-.456 1.125 1.125 0 0 1 .032-.421.906.906 0 0 1 .519-.495 3.371 3.371 0 0 1 .9-.232c.325-.045.654-.068.982-.087l.132-.007c.042 0 .064.024.1.049.054.046.107.094.157.144a2.19 2.19 0 0 1 .592 1.149 2.153 2.153 0 0 1-.4 1.67 5.841 5.841 0 0 1-.67.108 2.529 2.529 0 0 1-1.395-.265 1.781 1.781 0 0 1-.884-1.152zm-.218 12.453a13.152 13.152 0 0 1-2.195-.928 24.872 24.872 0 0 0-2.017-.843 8.261 8.261 0 0 1-2.3-1.116 9.873 9.873 0 0 1-1.325-1.482 5.318 5.318 0 0 0-1.8-1.4 14.027 14.027 0 0 0-2.014-.8c-.017-.005-.023.021-.006.027.416.153.8.355 1.206.535a5.673 5.673 0 0 1 2.7 2.2 4.545 4.545 0 0 0 1.364 1.314 10.717 10.717 0 0 0 2.042.8 16.972 16.972 0 0 1 2.326.917c.624.3 1.245.606 1.891.856a5.479 5.479 0 0 0 1.078.321 8.049 8.049 0 0 1 1.1.258 13.958 13.958 0 0 1 2.226.905.021.021 0 0 0 .021-.037 10.492 10.492 0 0 0-2.086-1.046c-.721-.236-1.477-.28-2.211-.476zm-15.1-12.536a10.607 10.607 0 0 0 1.46-.434 4.376 4.376 0 0 1 1.546-.371c1.009.021 1.952.438 2.957.508a.007.007 0 0 0 0-.013c-1.065-.12-2.081-.836-3.168-.752a8.172 8.172 0 0 0-2.817 1.01c-.032.02-.009.063.021.057zm-32.851-3.3c3.737 1.572 7.519 3.04 11.26 4.606 1.771.741 3.52 1.543 5.3 2.26a16.81 16.81 0 0 0 2.422.811 7.571 7.571 0 0 0 1.243.2 10.061 10.061 0 0 0 1.191-.027.025.025 0 0 0 0-.05 7.637 7.637 0 0 1-1.764-.247 15.588 15.588 0 0 1-1.6-.442c-1.114-.375-2.172-.872-3.251-1.333-3.7-1.583-7.449-3.053-11.191-4.537-1.861-.738-3.719-1.478-5.557-2.271-1.777-.768-3.553-1.552-5.365-2.236-.019-.007-.032.025-.013.033 2.442 1.071 4.866 2.204 7.324 3.239zm32.5 3.343a7.5 7.5 0 0 0-1.56.128 14.458 14.458 0 0 0-1.535.458c-.928.323-1.861.634-2.786.965a11.706 11.706 0 0 0-4.977 2.82.05.05 0 0 0 .07.07 9.056 9.056 0 0 1 2.38-1.513 26.563 26.563 0 0 1 2.7-1.113c.9-.319 1.8-.627 2.7-.947.5-.178 1.01-.35 1.525-.49a7.451 7.451 0 0 1 1.491-.327.026.026 0 0 0-.011-.045zm.005 31.418c-.4-.089-.8-.2-1.2-.313a32.363 32.363 0 0 1-5.17-1.96 35.193 35.193 0 0 1-4.688-2.628c-1.633-1.1-3.141-2.389-4.837-3.4a27.129 27.129 0 0 0-4.9-2.059c-1.724-.61-3.454-1.205-5.182-1.8-1.927-.669-3.844-1.366-5.778-2.011a108.475 108.475 0 0 0-11.862-3.312.079.079 0 0 0-.038.153c.476.129.948.271 1.425.4 3.967 1.057 7.889 2.263 11.8 3.5 1.914.608 3.835 1.191 5.748 1.8 1.679.536 3.375 1.061 5.017 1.706a23.253 23.253 0 0 1 2.578 1.093 21.047 21.047 0 0 1 2.48 1.614c1.531 1.135 3.035 2.306 4.669 3.291a31.159 31.159 0 0 0 9.93 3.946c.013.011.019-.011.005-.014z" class="cls-5" data-name="Path 2888"/>
            </g>
        </g>
    </g>
</svg>
