<svg xmlns="http://www.w3.org/2000/svg" id="Component" width="24" height="24" viewBox="0 0 24 24">
    <defs>
        <style>
            .cls-1{fill:#999}.cls-2{fill:none}
        </style>
    </defs>
    <path id="Path_767" d="M1854.772 3359.5l-3.828-3.828-.829-.829a.783.783 0 0 0-1.107 0l-1.53 1.53-1.848-1.849 1.53-1.53a.782.782 0 0 0 0-1.106l-4.656-4.657a.782.782 0 0 0-1.107 0l-4.167 4.167a.782.782 0 0 0 0 1.106l4.657 4.657a.783.783 0 0 0 1.107 0l1.53-1.53 1.848 1.848-1.53 1.53a.782.782 0 0 0 0 1.106l4.656 4.657a.783.783 0 0 0 1.107 0l4.167-4.167a.783.783 0 0 0 0-1.105zm-12.332-4l-3.55-3.55 3.06-3.06 3.55 3.55-.977.977-.595-.595a.783.783 0 0 0-1.107 1.107l.595.595zm7.612 7.612l-3.55-3.55.976-.976.6.595a.783.783 0 1 0 1.107-1.107l-.595-.595.977-.977 3.55 3.55z" class="cls-1" data-name="Path 767" transform="translate(-1834.001 -3344)"/>
    <path id="Rectangle_936" d="M0 0h24v24H0z" class="cls-2" data-name="Rectangle 936"/>
</svg>
