<svg xmlns="http://www.w3.org/2000/svg" id="Location_icon" width="24" height="24" data-name="Location icon" viewBox="0 0 24 24">
    <defs>
        <style>
            .cls-1{fill:#999}.cls-2{fill:none}
        </style>
    </defs>
    <path id="XMLID_1439_" d="M1576.644 667.381a6.21 6.21 0 0 0-7.809 0 6.074 6.074 0 0 0-1.835 4.7c0 4.372 5.032 9.494 5.245 9.711a.692.692 0 0 0 .494.205.7.7 0 0 0 .494-.205c.214-.216 5.245-5.339 5.245-9.711a6.074 6.074 0 0 0-1.834-4.7zm-3.9 12.9a27.239 27.239 0 0 1-1.953-2.44c-1.567-2.223-2.395-4.214-2.395-5.76 0-4.355 3.328-4.692 4.348-4.692 4.035 0 4.348 3.591 4.348 4.692-.005 3.065-3.12 6.832-4.353 8.204zm0-11.285a2.812 2.812 0 1 0 2.768 2.812 2.793 2.793 0 0 0-2.773-2.808zm0 4.409a1.6 1.6 0 1 1 1.551-1.595 1.575 1.575 0 0 1-1.556 1.599z" class="cls-1" transform="translate(-1561.001 -662)"/>
    <path id="Rectangle_1766" d="M0 0h24v24H0z" class="cls-2" data-name="Rectangle 1766"/>
</svg>
