<svg xmlns="http://www.w3.org/2000/svg" width="169.422" height="148.613" viewBox="0 0 169.422 148.613">
    <defs>
        <style>
            .cls-1,.cls-3,.cls-4{fill:none;stroke-miterlimit:10}.cls-1,.cls-5,.cls-7,.cls-8{stroke:#bf263f}.cls-1{stroke-width:1.426px;stroke-dasharray:2.341 4.681;opacity:.512}.cls-2{fill:#ed4d67;opacity:.1}.cls-3,.cls-4{stroke:#f7657d;stroke-width:1.17px}.cls-3{opacity:.18}.cls-4{opacity:.14}.cls-5,.cls-9{fill:#fff}.cls-10,.cls-11,.cls-5,.cls-7,.cls-8{stroke-linecap:round;stroke-linejoin:round}.cls-10,.cls-5,.cls-7,.cls-8{stroke-width:1.9px}.cls-6,.cls-7{fill:#bf263f}.cls-10,.cls-11,.cls-8{fill:#c6304d}.cls-10,.cls-11{stroke:#b3b3b3}.cls-11{stroke-width:1.676px}
        </style>
    </defs>
    <g id="Group_3807" data-name="Group 3807" transform="translate(-33.766 -795.22)">
        <g id="Group_3806" data-name="Group 3806">
            <g id="Group_3799" data-name="Group 3799">
                <g id="Group_2358" data-name="Group 2358">
                    <g id="Group_2354" data-name="Group 2354">
                        <g id="Group_2352" data-name="Group 2352">
                            <path id="Path_826" d="M53.223 829.858c10.877 33.835 16.159 56.833 6.282 89.342-10.607 34.909 61.973 26.78 89.338 6.284 26.017-19.49 70.688-44.274-6.283-89.337-31.953-18.712-100.66-41.525-89.337-6.289z" class="cls-1" data-name="Path 826"/>
                            <path id="Path_777" d="M184.186 821.558c-15.262 34.576-23.409 58.313-16.578 93.79 7.339 38.1-68.522 21.435-95.187-3.286C47.068 888.564 2.579 857.377 89 818.272c35.869-16.233 111.075-32.723 95.186 3.286z" class="cls-2" data-name="Path 777"/>
                        </g>
                        <g id="Group_2356" data-name="Group 2356">
                            <circle id="Ellipse_80" cx="3.297" cy="3.297" r="3.297" class="cls-3" data-name="Ellipse 80" transform="translate(178.326 825.884)"/>
                            <path id="Path_823" d="M186.053 861.523l5.172-2.714.7-5.8 4.179 4.08 5.735-1.13-2.589 5.235 2.845 5.1-5.779-.845-3.972 4.282-.984-5.757z" class="cls-4" data-name="Path 823"/>
                            <path id="Path_828" d="M37.333 796.312l3.389 1.9 3.5-1.712-.763 3.811 2.708 2.789-3.859.453-1.817 3.438-1.623-3.531-3.83-.664 2.857-2.635z" class="cls-4" data-name="Path 828"/>
                            <circle id="Ellipse_81" cx="5.638" cy="5.638" r="5.638" class="cls-3" data-name="Ellipse 81" transform="translate(39.052 913.661)"/>
                        </g>
                    </g>
                </g>
            </g>
            <g id="Group_3805" data-name="Group 3805">
                <path id="Path_2707" d="M40.006 880.235s2.035 14.857 28.335 23.368 28.493 11.337 45.162-2.8c0 0 23.688 10.87 64.923-7.554l-61.037-29.779s-40.337 30.067-77.383 16.765z" class="cls-5" data-name="Path 2707"/>
                <path id="Path_2708" d="M151.338 902.793s-51.438 22.263-93.225-4.287c0 0 40.584 22.785 54.621 2.949 0 0 15.355 4.519 38.604 1.338z" class="cls-6" data-name="Path 2708"/>
                <g id="Group_3804" data-name="Group 3804">
                    <g id="Group_3803" data-name="Group 3803">
                        <g id="Group_3800" data-name="Group 3800">
                            <path id="Rectangle_1193" d="M0 0h6.119v4.216H0z" class="cls-5" data-name="Rectangle 1193" transform="rotate(-62.239 753.834 289.352)"/>
                            <path id="Rectangle_1194" d="M0 0h6.119v6.168H0z" class="cls-5" data-name="Rectangle 1194" transform="rotate(-62.237 748.79 292.41)"/>
                            <path id="Rectangle_1195" d="M0 0h6.119v4.234H0z" class="cls-5" data-name="Rectangle 1195" transform="rotate(-62.23 745.378 294.345)"/>
                        </g>
                        <g id="Group_3801" data-name="Group 3801">
                            <path id="Path_2709" d="M105.46 881.682a1.79 1.79 0 0 0 .707.334 2.535 2.535 0 0 1-.707-.334z" class="cls-5" data-name="Path 2709"/>
                            <path id="Path_2710" d="M114.592 886.5l.027.02z" class="cls-5" data-name="Path 2710"/>
                            <path id="Path_2711" d="M114.825 886.645l-.1-.057c.035.019.067.04.1.057z" class="cls-5" data-name="Path 2711"/>
                            <path id="Path_2712" d="M116.656 887.133c-.97-.513-8.181-4.22-8.607-5.214a2.97 2.97 0 0 1-1.882.1 1.79 1.79 0 0 1-.707-.334 2.777 2.777 0 0 1-1.121-1.723l-.02-.017-.851 12.858 2.953 2.392z" class="cls-5" data-name="Path 2712"/>
                            <path id="Path_2713" d="M108.113 881.939l-.085-.045h-.016l.031.017.019.01z" class="cls-5" data-name="Path 2713"/>
                            <path id="Path_2714" d="M103.137 897.8l.018-.034-.017.013z" class="cls-5" data-name="Path 2714"/>
                            <path id="Path_2715" d="M103.468 892.8l-.329 4.959 2.116-4.019z" class="cls-5" data-name="Path 2715"/>
                            <path id="Path_2716" d="M105.46 881.682a2.535 2.535 0 0 0 .707.334 2.97 2.97 0 0 0 1.882-.1l-.006-.012-.031-.017h.016l31.092-59.066-3.708-1.952-31.093 59.066.02.017a2.777 2.777 0 0 0 1.121 1.73z" class="cls-5" data-name="Path 2716"/>
                            <path id="Path_2717" d="M108.113 881.939l-.051-.022-.019-.01.006.012a4.854 4.854 0 0 0 2.207 2.322l.01-.018v.021a4.849 4.849 0 0 0 3.174.51h.013l-.018-.009-.042-.025.079.041 31.093-59.067-2.712-1.428-.015-.008-2.713-1.427-31.092 59.066z" class="cls-5" data-name="Path 2717"/>
                            <path id="Path_2718" d="M113.43 884.742l.019.009.032.017-.013-.011-.079-.041z" class="cls-5" data-name="Path 2718"/>
                            <path id="Path_2719" d="M105.255 893.741l-2.116 4.019-.018.034.016-.013.017-.013 3.9-3.078-1.787-.94z" class="cls-5" data-name="Path 2719"/>
                            <path id="Path_2720" d="M144.56 825.691l-31.093 59.067.013.011-.032-.018h-.013a2.931 2.931 0 0 0 1.157 1.747l.027.02c.036.024.072.044.109.067s.064.039.1.057a2.482 2.482 0 0 0 2.326.058l.024.007 31.093-59.067z" class="cls-5" data-name="Path 2720"/>
                        </g>
                        <g id="Group_3802" data-name="Group 3802">
                            <path id="Rectangle_1196" d="M0 0h6.564v5.077H0z" class="cls-7" data-name="Rectangle 1196" transform="rotate(-62.23 756.404 293.302)"/>
                            <path id="Rectangle_1197" d="M0 0h6.564v6.168H0z" class="cls-7" data-name="Rectangle 1197" transform="rotate(-62.239 751.248 296.53)"/>
                            <path id="Rectangle_1198" d="M0 0h6.564v5.078H0z" class="cls-8" data-name="Rectangle 1198" transform="rotate(-62.238 747.092 299.044)"/>
                        </g>
                    </g>
                    <path id="Path_2721" d="M140.835 812.339l11.487 6.161-1.3 2.508-11.5-5.972z" class="cls-9" data-name="Path 2721"/>
                </g>
            </g>
        </g>
        <path id="Path_2722" d="M122.72 880.667c-1.576-.831 7.27 6.021 27.28 14.525" class="cls-10" data-name="Path 2722"/>
        <path id="Path_2723" d="M120.656 883.971c-.211-.2 15.925 9.748 20.6 10.781" class="cls-11" data-name="Path 2723"/>
    </g>
</svg>
