<svg xmlns="http://www.w3.org/2000/svg" width="169.421" height="148.613" viewBox="0 0 169.421 148.613">
    <defs>
        <style>
            .cls-1,.cls-11,.cls-2,.cls-4,.cls-5,.cls-9{fill:none}.cls-1{stroke:#707070}.cls-2,.cls-6{stroke:#bf263f}.cls-2,.cls-4,.cls-5,.cls-6{stroke-miterlimit:10}.cls-2{stroke-width:1.426px;stroke-dasharray:2.341 4.681;opacity:.512}.cls-3{fill:#ed4d67;opacity:.1}.cls-4,.cls-5{stroke:#f7657d;stroke-width:1.17px}.cls-4{opacity:.18}.cls-5{opacity:.14}.cls-6{fill:#bf2640;stroke-width:1.9px}.cls-7{fill:#fff}.cls-7,.cls-9{stroke:#bf2640;stroke-width:3px}.cls-8{clip-path:url(#clip-path)}.cls-10{stroke:none}
        </style>
        <clipPath id="clip-path">
            <path id="Rectangle_1289" d="M0 0h53v38H0z" class="cls-1" data-name="Rectangle 1289" transform="translate(-.468)"/>
        </clipPath>
    </defs>
    <g id="_03" data-name="3" transform="translate(1.269 1.092)">
        <g id="Group_2358" data-name="Group 2358">
            <g id="Group_2354" data-name="Group 2354">
                <g id="Group_2352" data-name="Group 2352" transform="translate(3.139 3.712)">
                    <path id="Path_826" d="M944.839 91.923c10.872 33.834 16.159 56.833 6.283 89.336-10.608 34.909 61.972 26.781 89.337 6.284 26.018-19.489 70.688-44.273-6.283-89.337-31.953-18.706-100.662-41.52-89.337-6.283z" class="cls-2" data-name="Path 826" transform="translate(-929.79 -62.088)"/>
                    <path id="Path_777" d="M1075.8 83.622c-15.262 34.576-23.409 58.314-16.577 93.791 7.339 38.1-68.523 21.435-95.187-3.286-25.354-23.5-69.843-54.685 16.576-93.79 35.873-16.237 111.079-32.724 95.188 3.285z" class="cls-3" data-name="Path 777" transform="translate(-929.79 -62.088)"/>
                </g>
                <g id="Group_2356" data-name="Group 2356">
                    <circle id="Ellipse_80" cx="3.297" cy="3.297" r="3.297" class="cls-4" data-name="Ellipse 80" transform="translate(143.291 29.573)"/>
                    <path id="Path_823" d="M1077.67 123.588l5.172-2.714.7-5.8 4.179 4.08 5.735-1.129-2.589 5.235 2.845 5.1-5.779-.845-3.972 4.283-.983-5.757z" class="cls-5" data-name="Path 823" transform="translate(-926.651 -58.376)"/>
                    <path id="Path_828" d="M928.949 58.376l3.389 1.9 3.5-1.713-.762 3.812 2.707 2.788-3.859.454-1.824 3.44-1.624-3.531-3.829-.663 2.857-2.635z" class="cls-5" data-name="Path 828" transform="translate(-926.651 -58.376)"/>
                    <circle id="Ellipse_81" cx="5.638" cy="5.638" r="5.638" class="cls-4" data-name="Ellipse 81" transform="translate(4.017 117.349)"/>
                </g>
            </g>
        </g>
        <g id="Group_6053" data-name="Group 6053" transform="translate(53.999 29.808)">
            <path id="Path_2706" d="M1666.009 666.435a1.771 1.771 0 1 1 0-3.539h14.851l.014-7.769a1.407 1.407 0 0 1 2.391-.923 1.274 1.274 0 0 1 .39.918l-.014 7.773h14.747a1.771 1.771 0 1 1 0 3.539z" class="cls-6" data-name="Path 2706" transform="translate(-1655.642 -579.435)"/>
            <g id="Rectangle_1287" class="cls-7" data-name="Rectangle 1287" transform="translate(11.532)">
                <rect width="27" height="58" class="cls-10" rx="13"/>
                <rect width="24" height="55" x="1.5" y="1.5" class="cls-11" rx="11.5"/>
            </g>
            <g id="Mask_Group_27" class="cls-8" data-name="Mask Group 27" transform="translate(0 41)">
                <g id="Rectangle_1288" class="cls-9" data-name="Rectangle 1288" transform="translate(4.532 -17)">
                    <rect width="42" height="47" class="cls-10" rx="15"/>
                    <rect width="39" height="44" x="1.5" y="1.5" class="cls-11" rx="13.5"/>
                </g>
            </g>
        </g>
    </g>
</svg>
