<svg xmlns="http://www.w3.org/2000/svg" id="Group_1721" width="24" height="24" data-name="Group 1721" viewBox="0 0 24 24">
    <defs>
        <style>
			 .cls-1{fill:none}.cls-2{clip-path:url(#clip-path)}.cls-3{fill:#ffffff}
        </style>
    </defs>
    <g id="Group_1724" data-name="Group 1724">
        <path id="Rectangle_910" d="M0 0h24v24H0z" class="cls-1" data-name="Rectangle 910"/>
        <path id="Path_648" d="M2068 2471.775a3.772 3.772 0 1 1 3.771-3.772 3.776 3.776 0 0 1-3.771 3.772zm0-6.159a2.387 2.387 0 1 0 2.387 2.388 2.39 2.39 0 0 0-2.387-2.389zm0 11.384h-.106a11.443 11.443 0 0 1-1.3-.079.692.692 0 0 1-.6-.592l-.193-1.4a7.158 7.158 0 0 1-1.242-.526l-1.106.832a.693.693 0 0 1-.84-.006 11.463 11.463 0 0 1-.976-.865l-.075-.075a11.451 11.451 0 0 1-.865-.976.693.693 0 0 1 0-.842l.855-1.128a7.182 7.182 0 0 1-.506-1.249l-1.372-.194a.693.693 0 0 1-.59-.6 11.455 11.455 0 0 1-.079-1.3v-.106a11.432 11.432 0 0 1 .079-1.3.692.692 0 0 1 .593-.6l1.4-.193a7.261 7.261 0 0 1 .525-1.239l-.834-1.11a.692.692 0 0 1 .006-.84 11.532 11.532 0 0 1 .865-.976l.075-.075a11.426 11.426 0 0 1 .976-.865.693.693 0 0 1 .842 0l1.131.858a7.191 7.191 0 0 1 1.245-.5l.2-1.376a.692.692 0 0 1 .6-.59 11.428 11.428 0 0 1 1.3-.079h.106a11.4 11.4 0 0 1 1.3.079.692.692 0 0 1 .6.593l.193 1.405a7.2 7.2 0 0 1 1.237.524l1.112-.835a.692.692 0 0 1 .84.006 11.509 11.509 0 0 1 .976.865l.075.075a11.449 11.449 0 0 1 .865.977.693.693 0 0 1 0 .842l-.857 1.129a7.228 7.228 0 0 1 .506 1.246l1.375.2a.692.692 0 0 1 .589.6 11.421 11.421 0 0 1 .079 1.3v.107a11.4 11.4 0 0 1-.079 1.3.692.692 0 0 1-.593.6l-1.4.192a7.16 7.16 0 0 1-.526 1.24l.833 1.11a.693.693 0 0 1-.006.839 11.4 11.4 0 0 1-.865.976l-.075.075a11.467 11.467 0 0 1-.977.865.692.692 0 0 1-.842 0l-1.132-.859a7.18 7.18 0 0 1-1.244.5l-.2 1.378a.692.692 0 0 1-.6.59 11.441 11.441 0 0 1-1.298.072zm-.71-1.405c.178.012.387.021.6.021h.11c.218 0 .428-.009.606-.021l.183-1.29a.692.692 0 0 1 .53-.578 5.86 5.86 0 0 0 1.72-.7.692.692 0 0 1 .8.06l1.029.781c.134-.118.288-.259.441-.412l.075-.075c.154-.154.3-.309.414-.443l-.78-1.039a.692.692 0 0 1-.033-.784 5.839 5.839 0 0 0 .714-1.662.69.69 0 0 1 .586-.568l1.309-.179c.012-.178.021-.387.021-.6V2468c0-.218-.009-.427-.021-.606l-1.286-.183a.692.692 0 0 1-.577-.53 5.833 5.833 0 0 0-.686-1.7.668.668 0 0 1-.073-.147.692.692 0 0 1 .1-.648l.8-1.052a9.086 9.086 0 0 0-.412-.441l-.075-.075a7.5 7.5 0 0 0-.443-.414l-1.042.783a.692.692 0 0 1-.824.006 5.838 5.838 0 0 0-1.667-.7.692.692 0 0 1-.521-.578l-.179-1.309a9.818 9.818 0 0 0-.6-.021H2068c-.218 0-.427.009-.606.021l-.183 1.29a.692.692 0 0 1-.58.587 5.834 5.834 0 0 0-1.671.685.693.693 0 0 1-.806-.064l-1.023-.776a9.613 9.613 0 0 0-.441.412l-.075.075c-.154.154-.3.309-.414.443l.783 1.042a.691.691 0 0 1 .039.773.673.673 0 0 1-.04.059 5.83 5.83 0 0 0-.694 1.658.691.691 0 0 1-.578.52l-1.307.18a9.818 9.818 0 0 0-.021.6v.11c0 .218.009.427.021.606l1.29.183a.692.692 0 0 1 .588.589v.026a5.832 5.832 0 0 0 .677 1.639.693.693 0 0 1-.065.807l-.772 1.02c.118.134.259.288.413.441l.075.075c.154.154.309.3.443.414l1.042-.783a.693.693 0 0 1 .861.023 5.831 5.831 0 0 0 1.629.675.693.693 0 0 1 .521.578z"  class="cls-3" data-name="Path 648" transform="translate(-2056 -2456)"/>
    </g>
</svg>
