<svg xmlns="http://www.w3.org/2000/svg" id="Bell_4" width="24" height="24" data-name="Bell – 4" viewBox="0 0 24 24">
    <defs>
        <style>
            .cls-1{fill:#222}.cls-2{fill:none}.cls-3{fill:#eb384f;stroke:#fff}.cls-4{stroke:none}
        </style>
    </defs>
    <path id="Path_125" d="M1412.681 3138.942c-1.317 0-1.826-.772-1.826-5.558 0-3.753-1.7-6.111-4.636-6.46v-1.2a.783.783 0 1 0-1.565 0v1.174c-3.131.254-4.944 2.636-4.944 6.483 0 4.786-.571 5.558-1.888 5.558a.752.752 0 0 0-.794.735.735.735 0 0 0 .773.735h5.089a3.194 3.194 0 0 0 .713 1.829 2.131 2.131 0 0 0 1.6.7 2.188 2.188 0 0 0 1.609-.706 3.25 3.25 0 0 0 .765-1.825h5.1a.736.736 0 1 0 0-1.47zm-7.005 2.231a.587.587 0 0 1-.47.2.547.547 0 0 1-.447-.2 1.228 1.228 0 0 1-.288-.76h.657a.783.783 0 0 1 .224 0h.638a1.237 1.237 0 0 1-.314.761zm-.323-2.327a.783.783 0 0 1-.224 0h-4.629c.731-1.37.731-3.5.731-5.494 0-3.186 1.383-4.876 3.894-4.876h.224c2.511 0 3.894 1.691 3.894 4.876 0 1.994 0 4.125.731 5.494zm2.793-6.943a.685.685 0 0 1-.643.725h-.041a.685.685 0 0 1-.683-.645 1.43 1.43 0 0 0-.82-1.23.69.69 0 0 1-.364-.9.682.682 0 0 1 .884-.374 2.826 2.826 0 0 1 1.667 2.421z" class="cls-1" data-name="Path 125" transform="translate(-1393.028 -3121.943)"/>
    <path id="Rectangle_936" d="M0 0h24v24H0z" class="cls-2" data-name="Rectangle 936"/>
    <g id="Ellipse_220" class="cls-3" data-name="Ellipse 220" transform="translate(13.25 5)">
        <circle cx="4" cy="4" r="4" class="cls-4"/>
        <circle cx="4" cy="4" r="3.5" class="cls-2"/>
    </g>
</svg>
