<svg xmlns="http://www.w3.org/2000/svg" width="80" height="25" viewBox="0 0 80 25">
    <defs>
        <style>
            .cls-1{fill:#4954cb;stroke:#c89fff}.cls-2,.cls-6{fill:none}.cls-3{fill:#ffe0e0;stroke:#ffc0d0}.cls-4{clip-path:url(#clip-path)}.cls-5{opacity:.1;clip-path:url(#clip-path-2)}.cls-6{stroke:#9a4454}.cls-7{fill:#9a4454;font-size:12px;font-family:Roboto-Bold,Roboto;font-weight:700}.cls-8{stroke:none}
        </style>
        <clipPath id="clip-path">
            <rect id="Rectangle_1240" width="80" height="25" class="cls-1" data-name="Rectangle 1240" rx="4"/>
        </clipPath>
        <clipPath id="clip-path-2">
            <path d="M0 0h303.689v27.99H0z" class="cls-2"/>
        </clipPath>
    </defs>
    <g id="Group_5669" data-name="Group 5669" transform="translate(-308 -430)">
        <g id="Group_5657" data-name="Group 5657" transform="translate(217 -26)">
            <g id="Group_5643" data-name="Group 5643" transform="translate(91 456)">
                <g id="Rectangle_1218" class="cls-3" data-name="Rectangle 1218">
                    <rect width="80" height="25" class="cls-8" rx="4"/>
                    <rect width="79" height="24" x=".5" y=".5" class="cls-2" rx="3.5"/>
                </g>
                <g id="Mask_Group_24" class="cls-4" data-name="Mask Group 24">
                    <g id="Repeat_Grid_59" class="cls-5" data-name="Repeat Grid 59">
                        <g transform="translate(-104.37 -24.273)">
                            <path id="Line_1270" d="M0 0v94" class="cls-6" data-name="Line 1270" transform="rotate(45 9.282 101.845)"/>
                        </g>
                        <g transform="translate(-94.37 -24.273)">
                            <path id="Line_1271" d="M0 0v94" class="cls-6" data-name="Line 1271" transform="rotate(45 9.282 101.845)"/>
                        </g>
                        <g transform="translate(-84.37 -24.273)">
                            <path id="Line_1272" d="M0 0v94" class="cls-6" data-name="Line 1272" transform="rotate(45 9.282 101.845)"/>
                        </g>
                        <g transform="translate(-74.37 -24.273)">
                            <path id="Line_1273" d="M0 0v94" class="cls-6" data-name="Line 1273" transform="rotate(45 9.282 101.845)"/>
                        </g>
                        <g transform="translate(-64.37 -24.273)">
                            <path id="Line_1274" d="M0 0v94" class="cls-6" data-name="Line 1274" transform="rotate(45 9.282 101.845)"/>
                        </g>
                        <g transform="translate(-54.37 -24.273)">
                            <path id="Line_1275" d="M0 0v94" class="cls-6" data-name="Line 1275" transform="rotate(45 9.282 101.845)"/>
                        </g>
                        <g transform="translate(-44.37 -24.273)">
                            <path id="Line_1276" d="M0 0v94" class="cls-6" data-name="Line 1276" transform="rotate(45 9.282 101.845)"/>
                        </g>
                        <g transform="translate(-34.37 -24.273)">
                            <path id="Line_1277" d="M0 0v94" class="cls-6" data-name="Line 1277" transform="rotate(45 9.282 101.845)"/>
                        </g>
                        <g transform="translate(-24.37 -24.273)">
                            <path id="Line_1278" d="M0 0v94" class="cls-6" data-name="Line 1278" transform="rotate(45 9.282 101.845)"/>
                        </g>
                        <g transform="translate(-14.37 -24.273)">
                            <path id="Line_1279" d="M0 0v94" class="cls-6" data-name="Line 1279" transform="rotate(45 9.282 101.845)"/>
                        </g>
                        <g transform="translate(-4.37 -24.273)">
                            <path id="Line_1280" d="M0 0v94" class="cls-6" data-name="Line 1280" transform="rotate(45 9.282 101.845)"/>
                        </g>
                        <g transform="translate(5.63 -24.273)">
                            <path id="Line_1281" d="M0 0v94" class="cls-6" data-name="Line 1281" transform="rotate(45 9.282 101.845)"/>
                        </g>
                        <g transform="translate(15.63 -24.273)">
                            <path id="Line_1282" d="M0 0v94" class="cls-6" data-name="Line 1282" transform="rotate(45 9.282 101.845)"/>
                        </g>
                        <g transform="translate(25.63 -24.273)">
                            <path id="Line_1283" d="M0 0v94" class="cls-6" data-name="Line 1283" transform="rotate(45 9.282 101.845)"/>
                        </g>
                        <g transform="translate(35.63 -24.273)">
                            <path id="Line_1284" d="M0 0v94" class="cls-6" data-name="Line 1284" transform="rotate(45 9.282 101.845)"/>
                        </g>
                        <g transform="translate(45.63 -24.273)">
                            <path id="Line_1285" d="M0 0v94" class="cls-6" data-name="Line 1285" transform="rotate(45 9.282 101.845)"/>
                        </g>
                        <g transform="translate(55.63 -24.273)">
                            <path id="Line_1286" d="M0 0v94" class="cls-6" data-name="Line 1286" transform="rotate(45 9.282 101.845)"/>
                        </g>
                        <g transform="translate(65.63 -24.273)">
                            <path id="Line_1287" d="M0 0v94" class="cls-6" data-name="Line 1287" transform="rotate(45 9.282 101.845)"/>
                        </g>
                        <g transform="translate(75.63 -24.273)">
                            <path id="Line_1288" d="M0 0v94" class="cls-6" data-name="Line 1288" transform="rotate(45 9.282 101.845)"/>
                        </g>
                        <g transform="translate(85.63 -24.273)">
                            <path id="Line_1288-2" d="M0 0v94" class="cls-6" data-name="Line 1288" transform="rotate(45 9.282 101.845)"/>
                        </g>
                        <g transform="translate(95.63 -24.273)">
                            <path id="Line_1288-3" d="M0 0v94" class="cls-6" data-name="Line 1288" transform="rotate(45 9.282 101.845)"/>
                        </g>
                        <g transform="translate(105.63 -24.273)">
                            <path id="Line_1288-4" d="M0 0v94" class="cls-6" data-name="Line 1288" transform="rotate(45 9.282 101.845)"/>
                        </g>
                        <g transform="translate(115.63 -24.273)">
                            <path id="Line_1288-5" d="M0 0v94" class="cls-6" data-name="Line 1288" transform="rotate(45 9.282 101.845)"/>
                        </g>
                        <g transform="translate(125.63 -24.273)">
                            <path id="Line_1288-6" d="M0 0v94" class="cls-6" data-name="Line 1288" transform="rotate(45 9.282 101.845)"/>
                        </g>
                        <g transform="translate(135.63 -24.273)">
                            <path id="Line_1288-7" d="M0 0v94" class="cls-6" data-name="Line 1288" transform="rotate(45 9.282 101.845)"/>
                        </g>
                        <g transform="translate(145.63 -24.273)">
                            <path id="Line_1288-8" d="M0 0v94" class="cls-6" data-name="Line 1288" transform="rotate(45 9.282 101.845)"/>
                        </g>
                        <g transform="translate(155.63 -24.273)">
                            <path id="Line_1288-9" d="M0 0v94" class="cls-6" data-name="Line 1288" transform="rotate(45 9.282 101.845)"/>
                        </g>
                        <g transform="translate(165.63 -24.273)">
                            <path id="Line_1288-10" d="M0 0v94" class="cls-6" data-name="Line 1288" transform="rotate(45 9.282 101.845)"/>
                        </g>
                        <g transform="translate(175.63 -24.273)">
                            <path id="Line_1288-11" d="M0 0v94" class="cls-6" data-name="Line 1288" transform="rotate(45 9.282 101.845)"/>
                        </g>
                        <g transform="translate(185.63 -24.273)">
                            <path id="Line_1288-12" d="M0 0v94" class="cls-6" data-name="Line 1288" transform="rotate(45 9.282 101.845)"/>
                        </g>
                        <g transform="translate(195.63 -24.273)">
                            <path id="Line_1288-13" d="M0 0v94" class="cls-6" data-name="Line 1288" transform="rotate(45 9.282 101.845)"/>
                        </g>
                    </g>
                </g>
            </g>
        </g>
        <text id="Objection" class="cls-7" transform="translate(322 447)">
            <tspan x="0" y="0">Objection</tspan>
        </text>
    </g>
</svg>
