<svg xmlns="http://www.w3.org/2000/svg" width="169.42" height="148.613" viewBox="0 0 169.42 148.613">
    <defs>
        <style>
            .cls-1,.cls-3,.cls-4{fill:none;stroke-miterlimit:10}.cls-1{stroke:#bf263f;stroke-width:1.426px;stroke-dasharray:2.341 4.681;opacity:.512}.cls-2{fill:#ed4d67;opacity:.1}.cls-3,.cls-4{stroke:#f7657d;stroke-width:1.17px}.cls-3{opacity:.18}.cls-4{opacity:.14}.cls-5{fill:#fff}.cls-6{fill:#bf2640}
        </style>
    </defs>
    <g id="_18" data-name="18" transform="translate(-488.668 -554.235)">
        <g id="Group_2358" data-name="Group 2358">
            <g id="Group_2354" data-name="Group 2354">
                <g id="Group_2352" data-name="Group 2352">
                    <path id="Path_826" d="M508.124 588.874c10.873 33.834 16.16 56.832 6.283 89.336-10.607 34.909 61.973 26.781 89.338 6.284 26.017-19.489 70.688-44.274-6.283-89.337-31.954-18.707-100.662-41.52-89.338-6.283z" class="cls-1" data-name="Path 826"/>
                    <path id="Path_777" d="M639.088 580.573c-15.262 34.576-23.41 58.314-16.578 93.791 7.339 38.1-68.522 21.435-95.187-3.286-25.353-23.5-69.842-54.685 16.577-93.79 35.871-16.234 111.076-32.724 95.188 3.285z" class="cls-2" data-name="Path 777"/>
                </g>
                <g id="Group_2356" data-name="Group 2356">
                    <circle id="Ellipse_80" cx="3.297" cy="3.297" r="3.297" class="cls-3" data-name="Ellipse 80" transform="translate(633.228 584.9)"/>
                    <path id="Path_823" d="M640.955 620.538l5.172-2.714.7-5.8 4.179 4.08 5.735-1.129-2.589 5.235 2.845 5.1-5.779-.845-3.973 4.283-.983-5.757z" class="cls-4" data-name="Path 823"/>
                    <path id="Path_828" d="M492.235 555.327l3.389 1.9 3.495-1.712-.762 3.812 2.708 2.788-3.859.453-1.817 3.438-1.623-3.531-3.83-.664 2.857-2.635z" class="cls-4" data-name="Path 828"/>
                    <circle id="Ellipse_81" cx="5.638" cy="5.638" r="5.638" class="cls-3" data-name="Ellipse 81" transform="translate(493.954 672.676)"/>
                </g>
            </g>
        </g>
        <g id="Group_3723" data-name="Group 3723">
            <g id="Group_3717" data-name="Group 3717">
                <g id="Group_3716" data-name="Group 3716">
                    <path id="Path_2610" d="M579.7 674.05h-41.41V589.3h63.16v63.075z" class="cls-5" data-name="Path 2610"/>
                </g>
            </g>
            <g id="Group_3722" data-name="Group 3722">
                <g id="Group_3718" data-name="Group 3718">
                    <path id="Path_2611" d="M579.728 675.346h-41.519a1.361 1.361 0 0 1-1.36-1.362v-83.867a1.361 1.361 0 0 1 1.36-1.363h62.278a1.364 1.364 0 0 1 1.362 1.368l-.24 63.114a1.353 1.353 0 0 1-.393.951L580.7 674.94a1.353 1.353 0 0 1-.972.406zm-40.157-2.725h39.588l19.729-19.952.231-61.193h-59.548z" class="cls-6" data-name="Path 2611"/>
                </g>
                <g id="Group_3719" data-name="Group 3719">
                    <path id="Path_2612" d="M579.726 675.346a1.349 1.349 0 0 1-.516-.1 1.365 1.365 0 0 1-.845-1.26v-10.337c0-8.147 3.593-11.781 11.648-11.781h10.235a1.361 1.361 0 0 1 .968 2.319L580.7 674.94a1.356 1.356 0 0 1-.974.406zm10.287-20.753c-6.505 0-8.923 2.454-8.923 9.056v7.019l15.894-16.075z" class="cls-6" data-name="Path 2612"/>
                </g>
                <g id="Group_3720" data-name="Group 3720">
                    <path id="Path_2613" d="M555.055 608.366H552.7v-2.081h2.353zm4.76-4.328v4.328h-2.352v-11.911h4.707a4.685 4.685 0 0 1 3.2 1.067 3.53 3.53 0 0 1 1.163 2.752 3.573 3.573 0 0 1-1.163 2.75 4.791 4.791 0 0 1-3.2 1.014zm0-1.843h2.355a1.882 1.882 0 0 0 1.481-.531 1.914 1.914 0 0 0 .5-1.39 2.013 2.013 0 0 0-.5-1.415 1.845 1.845 0 0 0-1.481-.561h-2.355zm8.437 6.171v-11.911h4.048a4.813 4.813 0 0 1 4.971 4.994v1.951a4.775 4.775 0 0 1-4.971 4.966zm2.379-10.068v8.227h1.562a2.467 2.467 0 0 0 1.982-.856 3.471 3.471 0 0 0 .715-2.269v-1.976a3.344 3.344 0 0 0-.715-2.244 2.4 2.4 0 0 0-1.982-.882zm15.788 5.127h-4.945v4.941h-2.353v-11.911h8.118v1.845h-5.765v3.283h4.945z" class="cls-6" data-name="Path 2613"/>
                </g>
                <g id="Group_3721" data-name="Group 3721">
                    <path id="Path_2614" d="M580.573 641.5a27.345 27.345 0 0 0-4.812.539 46.747 46.747 0 0 1-7.273-10.951c1.9-8.147.953-9.3.529-9.83-.449-.586-1.083-1.522-1.8-1.522a7.01 7.01 0 0 0-1.455.237 2.853 2.853 0 0 0-1.638 1.766c-1.006 2.4.4 6.461 1.8 9.614A96.017 96.017 0 0 1 560.5 646.9c-5.421 2.509-8.3 4.966-8.543 7.318a3.445 3.445 0 0 0 1.587 3.23 2.157 2.157 0 0 0 1.376.481c1.27 0 2.512-.962 3.992-3.045a41.629 41.629 0 0 0 3.412-6.143 68.459 68.459 0 0 1 12.639-4.085c2.248 2.189 4.285 3.311 6.032 3.311a3.761 3.761 0 0 0 3.172-1.736 2.94 2.94 0 0 0 .555-3.1c-.555-1.095-1.9-1.634-4.152-1.634zm-25.625 14c-.66-.536-.633-.882-.608-1.014.079-.8 1.324-2.219 4.39-3.955-2.327 4.328-3.569 4.889-3.782 4.969zm11.742-33.147c.079-.028 1.507 1.6.159 4.648a3.484 3.484 0 0 1-.159-4.648zm-2.936 23.157a102.426 102.426 0 0 0 3.809-10.924 50.566 50.566 0 0 0 5.473 8.012 74.476 74.476 0 0 0-9.282 2.912zm18.459-.669a2.163 2.163 0 0 1-1.745.617c-.766 0-1.032-.456-2.2-1.365a23.787 23.787 0 0 1 2.591-.133 3.018 3.018 0 0 1 1.666.268 2.218 2.218 0 0 1-.317.613z" class="cls-6" data-name="Path 2614"/>
                </g>
            </g>
        </g>
    </g>
</svg>
