<svg xmlns="http://www.w3.org/2000/svg" width="169.42" height="148.613" viewBox="0 0 169.42 148.613">
    <defs>
        <style>
            .cls-1,.cls-3,.cls-4,.cls-6,.cls-7{fill:none}.cls-1,.cls-10,.cls-5,.cls-6,.cls-8,.cls-9{stroke:#bf263f}.cls-1,.cls-3,.cls-4{stroke-miterlimit:10}.cls-1{stroke-width:1.426px;stroke-dasharray:2.341 4.681;opacity:.512}.cls-2{fill:#ed4d67;opacity:.1}.cls-3,.cls-4{stroke:#f7657d;stroke-width:1.17px}.cls-3{opacity:.18}.cls-4{opacity:.14}.cls-5,.cls-8{fill:#fff}.cls-10,.cls-5,.cls-6,.cls-7,.cls-8,.cls-9{stroke-linecap:round;stroke-linejoin:round}.cls-10,.cls-5,.cls-6,.cls-7,.cls-9{stroke-width:1.919px}.cls-7{stroke:#4783b2}.cls-8{stroke-width:1.977px}.cls-9{fill:#b2d7fe}.cls-10{fill:#666}
        </style>
    </defs>
    <g id="_01" data-name="1" transform="translate(-281.668 -57.284)">
        <g id="Group_2358" data-name="Group 2358">
            <g id="Group_2354" data-name="Group 2354">
                <g id="Group_2352" data-name="Group 2352">
                    <path id="Path_826" d="M301.124 91.923c10.873 33.834 16.16 56.833 6.283 89.336-10.607 34.909 61.973 26.781 89.338 6.284 26.017-19.489 70.688-44.273-6.283-89.337-31.954-18.706-100.662-41.52-89.338-6.283z" class="cls-1" data-name="Path 826"/>
                    <path id="Path_777" d="M432.088 83.622c-15.262 34.576-23.41 58.314-16.578 93.791 7.339 38.1-68.522 21.435-95.187-3.286-25.353-23.5-69.842-54.685 16.577-93.79 35.871-16.237 111.076-32.724 95.188 3.285z" class="cls-2" data-name="Path 777"/>
                </g>
                <g id="Group_2356" data-name="Group 2356">
                    <circle id="Ellipse_80" cx="3.297" cy="3.297" r="3.297" class="cls-3" data-name="Ellipse 80" transform="translate(426.228 87.949)"/>
                    <path id="Path_823" d="M433.955 123.588l5.172-2.714.7-5.8 4.179 4.08 5.735-1.129-2.589 5.235 2.845 5.1-5.779-.845-3.973 4.283-.983-5.757z" class="cls-4" data-name="Path 823"/>
                    <path id="Path_828" d="M285.235 58.376l3.389 1.9 3.495-1.713-.762 3.812 2.708 2.788-3.859.454-1.817 3.437-1.623-3.531-3.83-.663 2.857-2.635z" class="cls-4" data-name="Path 828"/>
                    <circle id="Ellipse_81" cx="5.638" cy="5.638" r="5.638" class="cls-3" data-name="Ellipse 81" transform="translate(286.954 175.725)"/>
                </g>
            </g>
        </g>
        <g id="Group_2368" data-name="Group 2368">
            <g id="Group_2374" data-name="Group 2374">
                <g id="Group_2373" data-name="Group 2373">
                    <g id="Group_2372" data-name="Group 2372">
                        <g id="Group_2370" data-name="Group 2370">
                            <path id="Path_843" d="M406.9 155.272l-9.98 25.856h-7.447l-9.913-25.838c.348-.024.713-.032 1.078-.032h9.373v-3.423h6.753v3.423h9.381c.255-.001.503.007.755.014z" class="cls-5" data-name="Path 843"/>
                            <path id="Path_844" d="M425.951 175.067v6.061h-29.023l9.98-25.856c.348.009.682.032 1.024.064a18.9 18.9 0 0 1 1.909.256v.008a19.041 19.041 0 0 1 1.971.477 19.942 19.942 0 0 1 2.26.823h.008a20.965 20.965 0 0 1 1.949.99 19.487 19.487 0 0 1 4.588 3.646 17.756 17.756 0 0 0 1.407 1.7l.008.007c.11.142.214.287.317.429a19.57 19.57 0 0 1 3.602 11.395z" class="cls-5" data-name="Path 844"/>
                            <path id="Path_845" d="M389.477 181.128h-28.65v-6.061a19.6 19.6 0 0 1 3.336-11 22.593 22.593 0 0 0 2.06-2.576 19.841 19.841 0 0 1 12.638-6.157h.009c.229-.024.459-.038.688-.047z" class="cls-5" data-name="Path 845"/>
                            <path id="Path_846" d="M366.223 161.495a22.671 22.671 0 0 1-2.06 2.575c.111-.167.221-.332.34-.492a19.714 19.714 0 0 1 1.72-2.083z" class="cls-5" data-name="Path 846"/>
                            <path id="Path_847" d="M396.761 151.8v.038h-.2a1.47 1.47 0 0 0 .2-.038z" class="cls-5" data-name="Path 847"/>
                            <path id="Path_848" d="M422.022 163.244a17.621 17.621 0 0 1-1.408-1.7 16.879 16.879 0 0 1 1.408 1.7z" class="cls-5" data-name="Path 848"/>
                            <g id="Group_2369" data-name="Group 2369">
                                <path id="Line_273" d="M0 6.093V0" class="cls-6" data-name="Line 273" transform="translate(390.023 155.258)"/>
                                <path id="Line_274" d="M0 6.093V0" class="cls-6" data-name="Line 274" transform="translate(396.774 155.258)"/>
                            </g>
                        </g>
                        <g id="Group_2371" data-name="Group 2371">
                            <path id="Line_275" d="M.023.046L0 0" class="cls-7" data-name="Line 275" transform="translate(378.84 155.29)"/>
                            <path id="Line_276" d="M.024 0L0 .046" class="cls-7" data-name="Line 276" transform="translate(407.928 155.29)"/>
                        </g>
                    </g>
                </g>
                <path id="Path_849" d="M420.612 161.541a19.544 19.544 0 0 0-4.589-3.646 20.831 20.831 0 0 0-1.948-.99h-.008a20.135 20.135 0 0 0-2.26-.823 19.137 19.137 0 0 0-1.976-.477v-.005a18.875 18.875 0 0 0-1.91-.256c-.34-.032-.674-.055-1.023-.064-.256-.007-.512-.015-.76-.015h-9.382v-3.423a1.253 1.253 0 0 0 .182-.038 15.04 15.04 0 0 0 12.449-14.818v-1.291h-.016l-.04-6.8c.9-7.488-5.118-9.652-6.181-13.5a60.768 60.768 0 0 1-2.15-9.568 25.188 25.188 0 0 0-.032-3.376 10.709 10.709 0 0 0 .032 3.376c-.512 8.422-5.434 12.718-12.709 13.947a10.888 10.888 0 0 0-5.8 3.058 21.843 21.843 0 0 0-5.15 9.085v5.071a15.067 15.067 0 0 0 12.646 14.856H390v3.423h-9.37c-.364 0-.729.008-1.077.032-.23.008-.459.023-.688.047a19.834 19.834 0 0 0-12.638 6.158c3.725-5.413 2.924-9.66 2.924-9.66v-39.6a19.81 19.81 0 0 1 19.809-19.812h8.86a19.806 19.806 0 0 1 19.808 19.8v39.6a13.574 13.574 0 0 0 2.984 9.709z" class="cls-8" data-name="Path 849"/>
                <path id="Path_850" d="M377.685 121.067a16.1 16.1 0 0 1 9.822-5.989c6.363-1.073 8.382-4.734 8.729-9.153" class="cls-6" data-name="Path 850"/>
                <path id="Path_851" d="M409.337 128.888c.9-7.487-5.119-9.651-6.182-13.5a60.768 60.768 0 0 1-2.147-9.564c-.512 8.422-5.434 12.716-12.709 13.947a10.882 10.882 0 0 0-5.8 3.058 21.834 21.834 0 0 0-5.151 9.085v5.071a15.067 15.067 0 0 0 12.646 14.856h6.569a1.473 1.473 0 0 0 .2-.038v.038a1.226 1.226 0 0 0 .182-.038 15.04 15.04 0 0 0 12.446-14.823v-1.291h-.015zm-23.359-.048a1.408 1.408 0 1 1-.016-2.815H386a1.408 1.408 0 0 1-.024 2.815zm14.714 0a1.408 1.408 0 0 1-.017-2.815h.04a1.408 1.408 0 1 1-.023 2.815z" class="cls-5" data-name="Path 851"/>
                <path id="Path_852" d="M386.959 110.032a5.03 5.03 0 0 0 5.222-4.107" class="cls-6" data-name="Path 852"/>
                <path id="Path_853" d="M394.535 135.273a1.663 1.663 0 1 1-2.773-.08" class="cls-6" data-name="Path 853"/>
                <path id="Path_854" d="M389.471 127a6.8 6.8 0 0 0-3.47-.966" class="cls-6" data-name="Path 854"/>
                <path id="Path_855" d="M382.482 127a6.289 6.289 0 0 1 3.479-.966" class="cls-6" data-name="Path 855"/>
                <path id="Path_856" d="M387.388 127.439a1.408 1.408 0 1 1-1.427-1.408H386a1.408 1.408 0 0 1 1.388 1.408z" class="cls-9" data-name="Path 856"/>
                <path id="Path_857" d="M404.193 127a6.822 6.822 0 0 0-3.479-.966" class="cls-6" data-name="Path 857"/>
                <path id="Path_858" d="M397.2 127a6.262 6.262 0 0 1 3.47-.966" class="cls-6" data-name="Path 858"/>
                <path id="Path_859" d="M402.11 127.439a1.407 1.407 0 1 1-1.435-1.408h.04a1.421 1.421 0 0 1 1.395 1.408z" class="cls-9" data-name="Path 859"/>
                <path id="Path_862" d="M382.484 122.835s2.908-1.679 7.539 0" class="cls-6" data-name="Path 862"/>
                <path id="Path_863" d="M396.241 122.836s3-2.906 7.957-.373" class="cls-6" data-name="Path 863"/>
            </g>
            <g id="Group_2361" data-name="Group 2361">
                <g id="Group_2359" data-name="Group 2359">
                    <path id="Path_829" d="M358.873 139.83a5.126 5.126 0 0 1 .812 2.779 5.2 5.2 0 0 1-.212 1.461 5.093 5.093 0 0 1 1.116 3.2 5.169 5.169 0 0 1-5.17 5.163 5.038 5.038 0 0 1-2.594-.71 5.157 5.157 0 0 1-8.972 3.3 2.686 2.686 0 0 1-.322-.384.153.153 0 0 1-.034-.042 4.124 4.124 0 0 1-.464.565 5.15 5.15 0 0 1-6.353.812 2.963 2.963 0 0 1-.347-.228 4.979 4.979 0 0 1-.743-.64 5.163 5.163 0 0 1-9.42-1.395 4.846 4.846 0 0 1-.169-1.279 4.975 4.975 0 0 1 .143-1.184 4.961 4.961 0 0 1-1.714.3 5.161 5.161 0 0 1-4.055-8.355 4.969 4.969 0 0 1-.4-1.968 5.133 5.133 0 0 1 1.394-3.532 3.732 3.732 0 0 1-2.484-3.53v-.567a3.735 3.735 0 0 1 3.727-3.742h.007v-3.989c3.2 1.193 8.837 2.6 14.109.512v2.779a2.607 2.607 0 0 0 5.213 0v-2.946c5.407 2.146 11.457.684 14.776-.482 0 1.512.009 2.915.009 4.107h.043a5.222 5.222 0 0 1 2.1 10z" class="cls-5" data-name="Path 829"/>
                </g>
                <g id="Group_2360" data-name="Group 2360">
                    <path id="Path_830" d="M356.77 107.666c0 .44 0 1.841-.018 3.776" class="cls-7" data-name="Path 830"/>
                    <path id="Path_831" d="M356.752 111.443c-.008 3.76-.033 9.548-.033 14.279-3.32 1.165-9.37 2.628-14.776.482v2.943a2.606 2.606 0 0 1-5.213 0v-2.779c-5.272 2.085-10.907.675-14.11-.512v-16.972s1.682-3.237 7.452-3.625 4.257 4.4 11.871 1.816a12.732 12.732 0 0 1 12.259 1.69 11.382 11.382 0 0 1 2.55 2.678z" class="cls-5" data-name="Path 831"/>
                </g>
            </g>
            <g id="Group_2364" data-name="Group 2364">
                <g id="Group_2362" data-name="Group 2362">
                    <path id="Path_832" d="M374.649 174.823v6.465H305.2v-6.465a21.2 21.2 0 0 1 13.129-19.548 23.734 23.734 0 0 0 44.067.4 16.319 16.319 0 0 1 1.656.845 21.127 21.127 0 0 1 6.741 6.167 20.889 20.889 0 0 1 3.856 12.136z" class="cls-5" data-name="Path 832"/>
                </g>
                <g id="Group_2363" data-name="Group 2363">
                    <path id="Line_265" d="M.024.05L0 0" class="cls-7" data-name="Line 265" transform="translate(324.407 153.733)"/>
                    <path id="Line_266" d="M.024 0L0 .05" class="cls-7" data-name="Line 266" transform="translate(355.421 153.733)"/>
                </g>
            </g>
            <path id="Path_833" d="M362.392 155.67a23.734 23.734 0 0 1-44.067-.4c.64-.263 1.292-.491 1.968-.694a20.821 20.821 0 0 1 4.132-.795c.244-.024.5-.042.743-.051.321-.025.659-.033 1-.033a5.163 5.163 0 0 0 9.42 1.395 4.973 4.973 0 0 0 .743.639 2.961 2.961 0 0 0 .347.228 5.2 5.2 0 0 0 6.353-.811 4.2 4.2 0 0 0 .464-.566.175.175 0 0 0 .033.043 2.751 2.751 0 0 0 .323.383 5.158 5.158 0 0 0 8.506-1.317h1.166c.64 0 1.259.025 1.892.084h.009c.692.059 1.36.154 2.036.279v.009a18.736 18.736 0 0 1 2.087.512 19.625 19.625 0 0 1 2.845 1.095z" class="cls-5" data-name="Path 833"/>
            <path id="Line_267" d="M0 0v7.3" class="cls-6" data-name="Line 267" transform="translate(343.531 154.59)"/>
            <path id="Line_268" d="M0 6.147V0" class="cls-6" data-name="Line 268" transform="translate(336.333 155.742)"/>
            <path id="Path_834" d="M336.331 135.048s3.013 2.64 5.609 0" class="cls-6" data-name="Path 834"/>
            <path id="Line_269" d="M0 2.647V0" class="cls-6" data-name="Line 269" transform="translate(336.73 123.724)"/>
            <path id="Line_270" d="M0 2.476V0" class="cls-6" data-name="Line 270" transform="translate(341.943 123.727)"/>
            <g id="Group_2365" data-name="Group 2365">
                <path id="Path_835" d="M326.865 120.35c0-2.142 5.246-4 6.413 0" class="cls-6" data-name="Path 835"/>
                <path id="Path_836" d="M345.175 120.35c0-2.142 5.238-4 6.414 0" class="cls-6" data-name="Path 836"/>
                <path id="Line_271" d="M0 0h6.413" class="cls-6" data-name="Line 271" transform="translate(326.865 114.629)"/>
                <path id="Line_272" d="M0 0h6.414" class="cls-6" data-name="Line 272" transform="translate(345.176 114.629)"/>
            </g>
            <path id="Path_837" d="M356.77 111.469c-.009-.009-.009-.017-.018-.026a11.382 11.382 0 0 0-2.55-2.678 12.732 12.732 0 0 0-12.259-1.69c-7.614 2.585-6.1-2.2-11.871-1.816s-7.452 3.625-7.452 3.625v-.084l.009-9.26a10.445 10.445 0 0 0-3.751-7.891c7.241-5.947 14.4.033 14.4.033 1.066-5.044-.667-6.208-.667-6.208C341.275 82.887 346.32 90 346.32 90c1.554-.777 6.525-2.974 6.525-2.974 4.828 3.557 3.925 24.443 3.925 24.443z" class="cls-5" data-name="Path 837"/>
            <path id="Path_838" d="M336.73 87.858a9.678 9.678 0 0 1 6.683 4.573" class="cls-10" data-name="Path 838"/>
            <path id="Path_839" d="M351.589 90.688a52.852 52.852 0 0 1 2.617 18.089" class="cls-10" data-name="Path 839"/>
            <g id="Group_2366" data-name="Group 2366">
                <path id="Path_840" d="M360.58 125.434V126a3.736 3.736 0 0 1-3.721 3.752h-.021v-8.062a3.736 3.736 0 0 1 2.653 1.1 3.432 3.432 0 0 1 .472.583v.009a3.545 3.545 0 0 1 .524 1.233.162.162 0 0 1 .025.059 4.42 4.42 0 0 1 .068.76z" class="cls-5" data-name="Path 840"/>
            </g>
            <g id="Group_2367" data-name="Group 2367">
                <path id="Path_841" d="M322.62 121.692v8.061a3.735 3.735 0 0 1-3.742-3.729v-.588a4.4 4.4 0 0 1 .068-.76.162.162 0 0 1 .025-.059 3.545 3.545 0 0 1 .524-1.233v-.009a3.394 3.394 0 0 1 .473-.582 3.735 3.735 0 0 1 2.652-1.101z" class="cls-5" data-name="Path 841"/>
            </g>
            <path id="Path_842" d="M318.329 155.275c.64-.262 1.292-.49 1.968-.694a20.9 20.9 0 0 1 4.131-.794c.245-.025.5-.042.744-.051.321-.026.659-.034 1-.034a5.162 5.162 0 0 0 9.419 1.4 5.1 5.1 0 0 0 .744.64 2.956 2.956 0 0 0 .347.227 5.2 5.2 0 0 0 6.352-.811 4.119 4.119 0 0 0 .465-.565.15.15 0 0 0 .033.042 2.822 2.822 0 0 0 .323.384 5.16 5.16 0 0 0 8.506-1.318h1.166c.639 0 1.259.025 1.892.084h.009c.692.059 1.36.154 2.036.279v.009a18.962 18.962 0 0 1 2.087.512 19.65 19.65 0 0 1 2.847 1.09" class="cls-6" data-name="Path 842"/>
        </g>
    </g>
</svg>
