<svg xmlns="http://www.w3.org/2000/svg" width="15.714" height="15.714" viewBox="0 0 15.714 15.714">
    <defs>
        <style>
            .cls-1{fill:none}.cls-2{clip-path:url(#clip-path)}.cls-3{fill:#ed4d67}
        </style>
        <clipPath id="clip-path">
            <path d="M0 0h15.714v15.714H0z" class="cls-1"/>
        </clipPath>
    </defs>
    <g id="plus_2" class="cls-2" data-name="plus – 2">
        <path id="Path_2289" d="M15.714-8.929v2.143a1.033 1.033 0 0 1-.312.759 1.033 1.033 0 0 1-.759.313H10v4.643a1.033 1.033 0 0 1-.312.759A1.033 1.033 0 0 1 8.929 0H6.786a1.033 1.033 0 0 1-.759-.312 1.033 1.033 0 0 1-.312-.759v-4.643H1.071a1.033 1.033 0 0 1-.759-.312A1.033 1.033 0 0 1 0-6.786v-2.143a1.033 1.033 0 0 1 .313-.759A1.033 1.033 0 0 1 1.071-10h4.643v-4.643a1.033 1.033 0 0 1 .313-.759 1.033 1.033 0 0 1 .759-.312h2.143a1.033 1.033 0 0 1 .759.313 1.033 1.033 0 0 1 .313.759V-10h4.643a1.033 1.033 0 0 1 .759.313 1.033 1.033 0 0 1 .311.758z" class="cls-3" data-name="Path 2289" transform="translate(0 15.714)"/>
    </g>
</svg>
