<svg xmlns="http://www.w3.org/2000/svg" width="178.797" height="136.345" viewBox="0 0 178.797 136.345">
    <defs>
        <style>
            .cls-1,.cls-3,.cls-4{fill:none;stroke-miterlimit:10}.cls-1,.cls-5,.cls-6,.cls-7,.cls-8{stroke:#bf263f}.cls-1{stroke-width:1.426px;stroke-dasharray:2.341 4.681;opacity:.512}.cls-2{fill:#ed4d67;opacity:.1}.cls-3,.cls-4{stroke:#f7657d;stroke-width:1.17px}.cls-3{opacity:.18}.cls-4{opacity:.14}.cls-5,.cls-6,.cls-7,.cls-8,.cls-9{fill:#fff}.cls-6{opacity:.4}.cls-7{opacity:.5}.cls-8{stroke-width:2px}.cls-10,.cls-11{stroke:none}.cls-11{fill:#bf263f}
        </style>
    </defs>
    <g id="_09" data-name="9" transform="translate(-938.423 -776.316)">
        <g id="Group_2358" data-name="Group 2358" transform="translate(971.67 785.002)">
            <g id="Group_2354" data-name="Group 2354">
                <g id="Group_2352" data-name="Group 2352" transform="translate(2.715 3.209)">
                    <path id="Path_826" d="M989.689 816.054c9.4 29.258 13.973 49.144 5.433 77.251-9.173 30.186 53.588 23.157 77.251 5.434 22.5-16.853 61.125-38.284-5.433-77.251-27.63-16.176-87.04-35.903-77.251-5.434z" class="cls-1" data-name="Path 826" transform="translate(-976.677 -790.256)"/>
                    <path id="Path_777" d="M1101.067 807.335c-13.2 29.9-20.242 50.424-14.334 81.1 6.346 32.946-59.253 18.535-82.309-2.842-21.924-20.319-60.394-47.287 14.334-81.1 31.017-14.037 96.049-28.293 82.309 2.842z" class="cls-2" data-name="Path 777" transform="translate(-974.809 -788.714)"/>
                </g>
                <g id="Group_2356" data-name="Group 2356">
                    <circle id="Ellipse_80" cx="2.851" cy="2.851" r="2.851" class="cls-3" data-name="Ellipse 80" transform="translate(123.905 25.571)"/>
                    <path id="Path_823" d="M1122.689 849.061l4.473-2.347.607-5.014 3.614 3.528 4.959-.977-2.239 4.527 2.46 4.411-5-.731-3.435 3.7-.85-4.978z" class="cls-4" data-name="Path 823" transform="translate(-992.101 -792.673)"/>
                    <path id="Path_828" d="M973.657 785l2.93 1.645 3.023-1.48-.659 3.3 2.341 2.412-3.337.392-1.57 2.973-1.4-3.053-3.311-.574 2.471-2.278z" class="cls-4" data-name="Path 828" transform="translate(-971.67 -785.002)"/>
                    <circle id="Ellipse_81" cx="4.875" cy="4.875" r="4.875" class="cls-3" data-name="Ellipse 81" transform="translate(3.474 101.472)"/>
                </g>
            </g>
        </g>
        <g id="Group_2839" data-name="Group 2839" transform="rotate(-5.13 9412.226 -10366.174)">
            <path id="Path_1021" d="M240.461 211.863l-.062-2.39a2.872 2.872 0 0 0-.372-1.346l-1.347-12.817 2.152-3.433c1.031.828 2.249 1.778 2.249 1.778l.179-2.7a2.888 2.888 0 0 0-.726-2.119l-1.958-2.179a3.933 3.933 0 0 0-1.239-.926l-5.942-1.119-2.921-6.531-14.422 3.959 1.925 6.053s1.484 14.07 2.649 21.16l.023.915a2.068 2.068 0 1 0 4.132-.113l-.007-.276.035 1.359a2.339 2.339 0 1 0 4.673-.128l-.017-.639h.021l.046 1.781a2.734 2.734 0 0 0 5.469.053 2.735 2.735 0 0 0 5.459-.342z" class="cls-5" data-name="Path 1021" transform="translate(-136.327 -110.324)"/>
            <path id="Path_1022" d="M262.478 215.751l-3.828-1.935-5-1.568s1.254-2.256 2.058-2.389a41.708 41.708 0 0 1 4.572.179 20.99 20.99 0 0 1 2.38 1.85c.2.337 1.006 1.576 1.006 1.576z" class="cls-5" data-name="Path 1022" transform="translate(-160.052 -129.992)"/>
            <path id="Path_1030" d="M222.787 167.483l-16.919 8.456-2-7.221 17.656-7.742z" class="cls-5" data-name="Path 1030" transform="translate(-128.641 -99.729)"/>
            <path id="Path_1031" d="M302.23 258.767l6.572-13.209L299.525 257z" class="cls-6" data-name="Path 1031" transform="translate(-188.999 -152.13)"/>
            <path id="Path_1032" d="M187.893 29.854l9.243 48.788L176.8 88.4l-11.514-52.149a2.844 2.844 0 0 1 2.005-3.381l17.987-4.723a2.13 2.13 0 0 1 2.615 1.707z" class="cls-5" data-name="Path 1032" transform="translate(-104.25 -17.396)"/>
            <path id="Path_1033" d="M221.527 160.976L204.613 171.4l-.742-2.682z" class="cls-7" data-name="Path 1033" transform="translate(-128.641 -99.729)"/>
            <path id="Path_1034" d="M319.734 252.1l-12.064 17.033 2.732 1.692z" class="cls-7" data-name="Path 1034" transform="translate(-194.138 -156.182)"/>
            <path id="Path_1035" d="M280.3 241.994l-2.727-16.594 1.692 16.168z" class="cls-6" data-name="Path 1035" transform="translate(-175.147 -139.641)"/>
            <path id="Path_1036" d="M229.459 178.078c-.19.324-10.546 6.9-10.546 6.9l-.445-1.4z" class="cls-8" data-name="Path 1036" transform="translate(-137.852 -108.744)"/>
            <g id="Group_2838" data-name="Group 2838" transform="translate(84.559 100.772)">
                <path id="Path_1037" d="M232.27 265.406a5.787 5.787 0 0 1-3.117-.545 2.056 2.056 0 0 0 1.884 1.139 2.022 2.022 0 0 0 1.275-.5c-.012-.03-.03-.061-.042-.094z" class="cls-5" data-name="Path 1037" transform="translate(-229.153 -264.861)"/>
                <path id="Path_1038" d="M270.54 269.977a2.78 2.78 0 0 0 2.661-2.771 3.616 3.616 0 0 0-.627.423 4.56 4.56 0 0 1-4.632.609 2.732 2.732 0 0 0 2.598 1.739z" class="cls-5" data-name="Path 1038" transform="translate(-253.629 -266.314)"/>
                <path id="Path_1039" d="M255.616 271.644a2.7 2.7 0 0 0 2.134-1.158 1.883 1.883 0 0 1-.117.033 6.14 6.14 0 0 1-4.7-.847 2.745 2.745 0 0 0 2.683 1.972z" class="cls-5" data-name="Path 1039" transform="translate(-244.159 -267.842)"/>
                <path id="Path_1040" d="M242.4 268.485a2.337 2.337 0 0 0 2.073-1.434c-.3-.165-.8.172-1.289.238a12.657 12.657 0 0 1-3.056-.427 2.343 2.343 0 0 0 2.272 1.623z" class="cls-5" data-name="Path 1040" transform="translate(-236.079 -266.1)"/>
            </g>
            <path id="Path_1041" d="M216.288 219.217l.565-.17a3.684 3.684 0 0 1-1.245-3.576l-.351.106a1.911 1.911 0 0 0-1.25 2.352 1.837 1.837 0 0 0 2.281 1.288z" class="cls-6" data-name="Path 1041" transform="translate(-134.991 -133.489)"/>
            <path id="Path_1042" d="M218.618 230.965a3.551 3.551 0 0 1-1.251-3.629 2.236 2.236 0 0 1 .069-.217l-.355.107a2.039 2.039 0 0 0-1.333 2.508 1.959 1.959 0 0 0 2.432 1.375l.426-.128z" class="cls-6" data-name="Path 1042" transform="translate(-136.086 -140.706)"/>
            <path id="Path_1043" d="M220.539 242.25l.313-.094a3.773 3.773 0 0 1-1.216-1.848 2.7 2.7 0 0 1 .221-1.889l-.371.112a1.953 1.953 0 0 0-1.277 2.4 1.876 1.876 0 0 0 2.33 1.319z" class="cls-6" data-name="Path 1043" transform="translate(-137.641 -147.707)"/>
            <path id="Path_1044" d="M223.183 250.328a1.784 1.784 0 0 1 .45-1.824l-.037-.032a1.945 1.945 0 0 0-1.2 2.366 1.886 1.886 0 0 0 1.754 1.386 4.892 4.892 0 0 1-.967-1.896z" class="cls-6" data-name="Path 1044" transform="translate(-140.283 -153.935)"/>
            <g id="Path_1045" class="cls-9" data-name="Path 1045">
                <path d="M229.084 81.454c-.26-1.42-.787-4.251-1.474-7.946-2.3-12.385-6.127-32.977-7.55-41.24.113-.028.228-.041.345-.041.725 0 1.354.538 1.495 1.28l8.926 47.11-1.742.837z" class="cls-10" transform="translate(-138.502 -19.655)"/>
                <path d="M220.654 32.76c1.493 8.607 5.199 28.552 7.448 40.657.595 3.2 1.07 5.754 1.355 7.303l.806-.387-8.854-46.733a1.055 1.055 0 0 0-.755-.84m-.25-1.033c.928 0 1.794.665 1.987 1.686l8.997 47.49-2.679 1.285c-.71-3.933-7.361-39.422-9.21-50.238.294-.153.603-.223.906-.223z" class="cls-11" transform="translate(-138.502 -19.655)"/>
            </g>
            <path id="Path_1046" d="M191.852 160.981L165 168.466a.675.675 0 0 1-.82-.423l-22.959-66.064a.664.664 0 0 1 .565-.874l34.855-3.683a.673.673 0 0 1 .707.44L200.217 162a.672.672 0 0 0 .635.443.665.665 0 0 0 .636-.879L176.965 91.43a.618.618 0 0 1-.032-.14c-.052-.5-.735-3.869-9.6-2.855l-9.569 1.094-18.905 2a.641.641 0 0 0-.071.011c-.489.108-5.752 1.472-3.042 9.471l24.849 74.16a.614.614 0 0 0 .023.059c.217.478 3.182 6.261 17.252-.023l.035-.015 22.92-8.576a2.512 2.512 0 0 0 1.484-3.255l-1.753-4.539a.676.676 0 0 0-.84-.394z" class="cls-8" data-name="Path 1046" transform="translate(-77.542 -45.219)"/>
            <path id="Path_1047" d="M278.152 219.249l-6.754-3.165-7.242-10.74a2.309 2.309 0 0 0-1.341-.952l-4.479-1.144a5.035 5.035 0 0 0-3.327.293l-2.954 1.336a1.927 1.927 0 0 0-.98 2.435 1.851 1.851 0 0 0 1.693 1.215l5.071.084 2.934 2.967 1.692 16.168 5.149 2.119 4.1 2.68z" class="cls-5" data-name="Path 1047" transform="translate(-158.349 -125.821)"/>
            <path id="Path_1048" d="M309.441 245.558l-8.9 17.893 5.364 3.322 9.332-18.726z" class="cls-5" data-name="Path 1048" transform="translate(-189.638 -152.13)"/>
            <path id="Path_1049" d="M350.292 271.935l-31.038-18.553c-.582-.348-1.217.111-1.514 1.1l-5.75 19.054c-.387 1.284-.048 2.9.708 3.371l33.66 21c.7.437 1.456-.306 1.647-1.62l3.128-21.5a3.015 3.015 0 0 0-.841-2.852z" class="cls-5" data-name="Path 1049" transform="translate(-196.761 -160.543)"/>
            <g id="Path_1050" class="cls-9" data-name="Path 1050">
                <path d="M366.617 271.507c-3.01-1.853-8.347-5.274-13.522-8.591-5.613-3.599-10.918-7-13.4-8.5a1.065 1.065 0 0 1-.058-.294l26.917 17.049c.025.063.056.182.063.336z" class="cls-10" transform="translate(-213.501 -158.593)"/>
                <path d="M339.275 252.774c.066 0 .133.02.198.061l27.702 17.546c.324.205.51.87.421 1.512l-.002.018c-.077.56-.337.927-.62.927a.365.365 0 0 1-.19-.057c-5.647-3.425-22.816-14.624-27.7-17.565-.389-.234-.567-1.105-.37-1.8.116-.405.333-.642.561-.642z" class="cls-11" transform="translate(-213.501 -158.593)"/>
            </g>
            <path id="Path_1026" d="M222.409 250.869a2.223 2.223 0 0 0 2.766 1.588l.918-.281a2.363 2.363 0 0 0 1.516-2.9 2.224 2.224 0 0 0-2.766-1.588l-.918.281a2.362 2.362 0 0 0-1.516 2.9z" class="cls-5" data-name="Path 1026" transform="translate(-140.746 -154.32)"/>
            <path id="Path_1027" d="M214.021 218.17a2.188 2.188 0 0 0 2.722 1.563l.9-.276a2.324 2.324 0 0 0 1.492-2.852 2.188 2.188 0 0 0-2.722-1.563l-.9.276a2.324 2.324 0 0 0-1.492 2.852z" class="cls-5" data-name="Path 1027" transform="translate(-135.795 -135.453)"/>
            <path id="Path_1028" d="M215.761 229.524a2.3 2.3 0 0 0 2.874 1.69l2.371-.743a2.525 2.525 0 0 0 1.575-3.083 2.3 2.3 0 0 0-2.874-1.69l-2.371.742a2.525 2.525 0 0 0-1.575 3.084z" class="cls-5" data-name="Path 1028" transform="translate(-136.807 -141.75)"/>
            <path id="Path_1029" d="M218.222 240.312a2.189 2.189 0 0 0 2.734 1.637l3.605-1.15a2.457 2.457 0 0 0 1.5-2.987 2.19 2.19 0 0 0-2.734-1.637l-3.606 1.15a2.456 2.456 0 0 0-1.499 2.987z" class="cls-5" data-name="Path 1029" transform="translate(-138.254 -147.89)"/>
        </g>
    </g>
</svg>
