<svg xmlns="http://www.w3.org/2000/svg" width="40" height="40" viewBox="0 0 40 40">
    <defs>
        <style>
            .cls-1{fill:none}.cls-2{clip-path:url(#clip-path)}.cls-3{fill:#8665eb}.cls-4{clip-path:url(#clip-path-2)}.cls-5{fill:#fff}
        </style>
        <clipPath id="clip-path">
            <path d="M0 0h40v40H0z" class="cls-1"/>
        </clipPath>
        <clipPath id="clip-path-2">
            <path d="M0 0h24v24H0z" class="cls-1"/>
        </clipPath>
    </defs>
    <g id="Component_1" class="cls-2" data-name="Component 1">
        <path id="Path_2285" d="M20 0A20 20 0 1 1 0 20 20 20 0 0 1 20 0z" class="cls-3" data-name="Path 2285"/>
        <g id="analysing" class="cls-4" transform="translate(8 8)">
            <path id="Rectangle_936" d="M0 0h24v24H0z" class="cls-1" data-name="Rectangle 936"/>
            <path id="Path_64" d="M2295.444 1811.358c.8 0 1.444-.48 1.444-1.071v-13.215c0-.592-.646-1.072-1.444-1.072s-1.444.479-1.444 1.072v13.215c0 .591.647 1.071 1.444 1.071zm5.055-1.071v-8.854c0-.592.647-1.072 1.445-1.072s1.444.48 1.444 1.072v8.854c0 .592-.647 1.071-1.444 1.071s-1.444-.48-1.444-1.072zm6.5 0v-4.493c0-.592.647-1.071 1.445-1.071s1.444.48 1.444 1.071v4.493c0 .592-.647 1.071-1.444 1.071s-1.444-.48-1.444-1.072z" class="cls-5" data-name="Path 64" transform="translate(-2290 -1792)"/>
        </g>
    </g>
</svg>
