<svg xmlns="http://www.w3.org/2000/svg" width="169.422" height="148.613" viewBox="0 0 169.422 148.613">
    <defs>
        <style>
            .cls-1,.cls-3,.cls-4{fill:none;stroke-miterlimit:10}.cls-1,.cls-5{stroke:#bf263f}.cls-1{stroke-width:1.426px;stroke-dasharray:2.341 4.681;opacity:.512}.cls-2{fill:#ed4d67;opacity:.1}.cls-3,.cls-4{stroke:#f7657d;stroke-width:1.17px}.cls-3{opacity:.18}.cls-4{opacity:.14}.cls-5{fill:#fff;stroke-linecap:round;stroke-linejoin:round;stroke-width:1.537px}
        </style>
    </defs>
    <g id="_05" data-name="5" transform="translate(-1139.953 -57.284)">
        <g id="Group_2358" data-name="Group 2358">
            <g id="Group_2354" data-name="Group 2354">
                <g id="Group_2352" data-name="Group 2352">
                    <path id="Path_826" d="M1159.41 91.923c10.873 33.834 16.159 56.833 6.283 89.336-10.608 34.909 61.972 26.781 89.338 6.284 26.017-19.489 70.688-44.273-6.283-89.337-31.954-18.706-100.662-41.52-89.338-6.283z" class="cls-1" data-name="Path 826"/>
                    <path id="Path_777" d="M1290.373 83.622c-15.261 34.576-23.409 58.314-16.577 93.791 7.339 38.1-68.522 21.435-95.187-3.286-25.353-23.5-69.842-54.685 16.576-93.79 35.872-16.237 111.077-32.724 95.188 3.285z" class="cls-2" data-name="Path 777"/>
                </g>
                <g id="Group_2356" data-name="Group 2356">
                    <circle id="Ellipse_80" cx="3.297" cy="3.297" r="3.297" class="cls-3" data-name="Ellipse 80" transform="translate(1284.514 87.949)"/>
                    <path id="Path_823" d="M1292.241 123.588l5.172-2.714.7-5.8 4.18 4.08 5.734-1.129-2.588 5.235 2.845 5.1-5.78-.845-3.972 4.283-.983-5.757z" class="cls-4" data-name="Path 823"/>
                    <path id="Path_828" d="M1143.521 58.376l3.389 1.9 3.495-1.713-.762 3.812 2.708 2.788-3.86.454-1.816 3.437-1.623-3.531-3.83-.663 2.857-2.635z" class="cls-4" data-name="Path 828"/>
                    <circle id="Ellipse_81" cx="5.638" cy="5.638" r="5.638" class="cls-3" data-name="Ellipse 81" transform="translate(1145.24 175.725)"/>
                </g>
            </g>
        </g>
        <g id="Group_3597" data-name="Group 3597">
            <path id="Path_2384" d="M1213.252 85.86l-2.887 5.624a12.454 12.454 0 0 0-1.338 4.3c-.342 3.056.711 4.882 4.188 6.776l6.842-9.578z" class="cls-5" data-name="Path 2384"/>
            <path id="Path_2385" d="M1213.252 85.86c-.593 1.058-2.934 5.341-3.421 6.452a12.783 12.783 0 0 0-.764 2.333c-.794 3.854.344 6.011 4.148 7.911-2.229-1.347-4.087-2.827-4.108-5.473-.107-3.403 1.322-5.191 4.145-11.223z" class="cls-5" data-name="Path 2385"/>
            <path id="Path_2386" d="M1262.6 162l-47.462 18.787L1163.9 160.5l47.1-7.163z" class="cls-5" data-name="Path 2386"/>
            <path id="Path_2387" d="M1211 153.341v-12.457l51.6 8.571V162z" class="cls-5" data-name="Path 2387"/>
            <path id="Path_2388" d="M1163.9 148.47l47.1-7.587v12.458l-47.1 7.163z" class="cls-5" data-name="Path 2388"/>
            <path id="Path_2389" d="M1211.153 140.081l8.337-44.1.568-3.007 52.894 8.45-10.352 48.031-25.546-4.242-26.054-4.331z" class="cls-5" data-name="Path 2389"/>
            <path id="Path_2390" d="M1220.057 92.978l-6.805-7.118 49.35 5.911 10.35 9.658z" class="cls-5" data-name="Path 2390"/>
            <path id="Path_2391" d="M1213.252 85.86c15.933 2.218 32.137 4 43.171 5.265l6.179.646-6.157-.833c-9.392-1.174-22.058-2.8-30.838-3.746-4.116-.462-8.233-.918-12.355-1.332z" class="cls-5" data-name="Path 2391"/>
            <path id="Path_2392" d="M1220.057 92.978l-8.728 46.178a8.533 8.533 0 0 1-4.01-8.973l6.954-35.511a3.394 3.394 0 0 1 5.784-1.694z" class="cls-5" data-name="Path 2392"/>
            <path id="Path_2393" d="M1211.329 139.156a8.563 8.563 0 0 1-4.042-7.261c-.02-1.461-.157.691 5.957-31.482l1.029-5.741-1.213 5.705-1.173 5.713-2.285 11.439c-2.62 13.546-2.589 13.321-2.557 14.368a8.484 8.484 0 0 0 4.284 7.259z" class="cls-5" data-name="Path 2393"/>
            <path id="Path_2394" d="M1262.6 162v-12.545l-47.462 13.783v17.548z" class="cls-5" data-name="Path 2394"/>
            <path id="Path_2395" d="M1215.14 163.238v17.548L1163.9 160.5v-12.03z" class="cls-5" data-name="Path 2395"/>
            <path id="Path_2396" d="M1272.952 101.429l-7.428-6.931-8.892 39.185a13.494 13.494 0 0 0 6.23 14.566z" class="cls-5" data-name="Path 2396"/>
            <path id="Path_2397" d="M1265.524 94.5c-3.432 14.038-6.457 27.738-9.209 40.011-.063.295-.067.6-.1.9a13.465 13.465 0 0 0 6.651 12.844 13.621 13.621 0 0 1-5.866-15.431c3.18-13.857 2.2-9.591 2.4-10.437 1.408-6.38 3.924-17.387 6.124-27.887z" class="cls-5" data-name="Path 2397"/>
            <path id="Path_2398" d="M1262.6 91.771l-1.81 6.75a10.906 10.906 0 0 0 5.318 12.4l6.842-9.5z" class="cls-5" data-name="Path 2398"/>
            <path id="Path_2399" d="M1262.6 91.771c-.44 1.395-1.938 6.343-2.206 7.786a10.667 10.667 0 0 0 5.714 11.369 12.714 12.714 0 0 1-2.118-1.636 11.088 11.088 0 0 1-3.341-7.039c-.213-2.918.373-3.351 1.951-10.48z" class="cls-5" data-name="Path 2399"/>
            <path id="Path_2400" d="M1262.6 162l-47.462 18.787v-17.549a11.673 11.673 0 0 0 15.639 10.316z" class="cls-5" data-name="Path 2400"/>
            <path id="Path_2401" d="M1163.9 148.47l51.238 14.768 47.462-13.783-51.6-8.573zm51.238 14.369l-49.485-14.263 45.347-7.305 49.876 8.286z" class="cls-5" data-name="Path 2401"/>
        </g>
    </g>
</svg>
