<svg xmlns="http://www.w3.org/2000/svg" width="151.829" height="152.48" viewBox="0 0 151.829 152.48">
    <defs>
        <style>
            .cls-1,.cls-10{fill:#ed4e67}.cls-1{opacity:.15}.cls-2,.cls-3,.cls-4,.cls-6{fill:#f7657d}.cls-2{opacity:.429}.cls-11,.cls-12,.cls-2,.cls-3,.cls-4,.cls-6{isolation:isolate}.cls-3{opacity:.418}.cls-4{opacity:.369}.cls-5{fill:#bf2640}.cls-6{opacity:.25}.cls-7{fill:#fff}.cls-8{fill:#bf263f}.cls-11,.cls-13,.cls-9{fill:#f1647d}.cls-11,.cls-9{opacity:.2}.cls-12{opacity:.45}
        </style>
    </defs>
    <g id="Group_9499" data-name="Group 9499" transform="translate(-1000.492 -253)">
        <g id="Group_6942" data-name="Group 6942">
            <path id="Rectangle_1795" d="M1092.909 279.862l35.639 37.393a25.3 25.3 0 0 1-1.208 36.206l-38.056 35.019a26.4 26.4 0 0 1-36.847-1.187L1016.8 349.9a25.3 25.3 0 0 1 1.208-36.206l38.056-35.019a26.4 26.4 0 0 1 36.845 1.187z" class="cls-1" data-name="Rectangle 1795"/>
            <path id="Path_7799" d="M1128.218 400.836a3.376 3.376 0 0 1-3.357-2.93 3.286 3.286 0 0 1 .678-2.447 3.4 3.4 0 0 1 6.041 1.629 3.276 3.276 0 0 1-.677 2.445 3.366 3.366 0 0 1-2.271 1.278 3.417 3.417 0 0 1-.414.025zm0-5.292a2.048 2.048 0 0 0-.246.015 1.988 1.988 0 0 0-1.343.753 1.913 1.913 0 0 0-.4 1.422 2.016 2.016 0 0 0 3.577.946 1.9 1.9 0 0 0 .394-1.42 1.987 1.987 0 0 0-1.979-1.716z" class="cls-2" data-name="Path 7799"/>
            <path id="Path_7800" d="M1020.208 405.48l.136-5.706-4.73-3.359 5.59-1.644 1.773-5.443 3.3 4.687 5.827-.009-3.533 4.556 1.819 5.438-5.49-1.886zm-1.464-8.541l3 2.131-.086 3.662 3.013-2.164 3.514 1.207-1.159-3.478 2.251-2.9-3.716.007-2.125-3.016-1.144 3.507z" class="cls-3" data-name="Path 7800"/>
            <path id="Path_7801" d="M1123.659 274.9l-1-4.016-3.961-1.492 3.6-2.186.209-4.134 3.209 2.676 4.08-1.094-1.6 3.85 2.311 3.486-4.214-.31zm-1.806-5.8l1.975.743.509 2.044 1.345-1.641 2.113.155-1.158-1.747.8-1.932-2.054.55-1.631-1.359-.106 2.1z" class="cls-4" data-name="Path 7801"/>
            <path id="Path_7802" d="M1017.087 281.854a5.279 5.279 0 0 1-5.253-4.58 5.131 5.131 0 0 1 1.06-3.819 5.321 5.321 0 0 1 9.454 2.545 5.12 5.12 0 0 1-1.057 3.817 5.278 5.278 0 0 1-3.555 2 5.46 5.46 0 0 1-.649.037zm.008-9.049a3.938 3.938 0 0 0-.482.03 3.894 3.894 0 0 0-2.627 1.473 3.752 3.752 0 0 0-.777 2.794 3.938 3.938 0 0 0 6.99 1.862 3.757 3.757 0 0 0 .775-2.792 3.889 3.889 0 0 0-3.879-3.372z" class="cls-2" data-name="Path 7802"/>
            <path id="Path_7803" d="M1003.877 290.052a3.377 3.377 0 0 1-3.359-2.931 3.282 3.282 0 0 1 .679-2.445 3.4 3.4 0 0 1 6.041 1.628 3.291 3.291 0 0 1-.678 2.447 3.371 3.371 0 0 1-2.271 1.276 3.588 3.588 0 0 1-.412.025zm0-5.291a1.694 1.694 0 0 0-.246.015 1.988 1.988 0 0 0-1.346.753 1.907 1.907 0 0 0-.4 1.42 2.016 2.016 0 0 0 3.575.949 1.906 1.906 0 0 0 .395-1.421 1.983 1.983 0 0 0-1.975-1.716z" class="cls-2" data-name="Path 7803"/>
            <path id="Path_7804" d="M1127.6 290.793a4.913 4.913 0 0 1-.553-.033 4.489 4.489 0 0 1-3.025-1.7 4.364 4.364 0 0 1-.9-3.25 4.531 4.531 0 0 1 8.05-2.165 4.364 4.364 0 0 1 .9 3.25 4.494 4.494 0 0 1-4.472 3.898zm-3.31-4.838a3.2 3.2 0 0 0 .662 2.378 3.352 3.352 0 0 0 5.95-1.586 3.2 3.2 0 0 0-.662-2.378 3.352 3.352 0 0 0-5.95 1.586z" class="cls-2" data-name="Path 7804"/>
            <path id="Path_7805" d="M1141.6 296.437a3.627 3.627 0 0 1-.414-.025 3.371 3.371 0 0 1-2.268-1.274 3.283 3.283 0 0 1-.68-2.449 3.4 3.4 0 0 1 6.041-1.628 3.277 3.277 0 0 1 .678 2.445 3.376 3.376 0 0 1-3.357 2.931zm-.005-5.291a1.985 1.985 0 0 0-1.983 1.716 1.912 1.912 0 0 0 .4 1.421 2.015 2.015 0 0 0 3.574-.949 1.907 1.907 0 0 0-.4-1.42 1.989 1.989 0 0 0-1.346-.753 1.71 1.71 0 0 0-.246-.015z" class="cls-2" data-name="Path 7805"/>
            <path id="Path_7806" d="M1082.61 394.385a.626.626 0 0 1-.011-1.252 25.09 25.09 0 0 0 2.438-.161.627.627 0 0 1 .142 1.245c-.844.1-1.7.153-2.558.168zm-2.5-.072h-.049c-.846-.064-1.7-.17-2.542-.318a.625.625 0 1 1 .214-1.232c.8.139 1.618.241 2.423.3a.626.626 0 0 1-.046 1.25zm7.465-.494a.626.626 0 0 1-.127-1.238 25.811 25.811 0 0 0 2.364-.616.625.625 0 1 1 .372 1.194 26.86 26.86 0 0 1-2.479.646.639.639 0 0 1-.128.014zm-12.391-.364a.639.639 0 0 1-.166-.023c-.82-.225-1.64-.493-2.435-.8a.626.626 0 1 1 .446-1.169c.758.29 1.539.546 2.321.76a.626.626 0 0 1-.166 1.23zm17.162-1.125a.626.626 0 0 1-.242-1.2 24.593 24.593 0 0 0 2.2-1.053.626.626 0 0 1 .594 1.1c-.756.407-1.534.78-2.314 1.105a.63.63 0 0 1-.236.048zm-21.834-.656a.633.633 0 0 1-.278-.065c-.45-.223-.9-.461-1.34-.713l-.887-.5a.625.625 0 1 1 .619-1.087l.886.5c.423.24.848.466 1.279.679a.626.626 0 0 1-.279 1.187zm26.238-1.716a.626.626 0 0 1-.348-1.146c.673-.45 1.333-.94 1.962-1.455a.625.625 0 0 1 .793.967 26.1 26.1 0 0 1-2.059 1.528.631.631 0 0 1-.346.106zm-30.611-.718a.629.629 0 0 1-.309-.081l-2.179-1.236a.627.627 0 1 1 .619-1.09l2.178 1.236a.626.626 0 0 1-.309 1.171zm34.473-2.456a.626.626 0 0 1-.443-1.069 24.82 24.82 0 0 0 1.64-1.809.626.626 0 0 1 .968.793c-.539.659-1.119 1.3-1.722 1.9a.625.625 0 0 1-.441.185zm-38.829-.015a.617.617 0 0 1-.309-.082l-2.178-1.236a.625.625 0 1 1 .619-1.087l2.177 1.236a.625.625 0 0 1-.309 1.169zm-4.355-2.47a.608.608 0 0 1-.309-.083l-2.178-1.235a.626.626 0 0 1 .619-1.088l2.177 1.236a.626.626 0 0 1-.309 1.17zm46.354-1.383a.626.626 0 0 1-.52-.975q.4-.594.765-1.216l.521-.888a.627.627 0 0 1 1.08.636l-.523.888c-.258.435-.525.863-.8 1.278a.625.625 0 0 1-.521.277zm-50.709-1.088a.619.619 0 0 1-.309-.082l-2.177-1.236a.625.625 0 1 1 .618-1.087l2.178 1.236a.625.625 0 0 1-.31 1.169zm-4.355-2.47a.619.619 0 0 1-.309-.082l-2.177-1.236a.626.626 0 0 1 .618-1.088l2.178 1.236a.626.626 0 0 1-.31 1.17zm57.638-.736a.62.62 0 0 1-.317-.086.626.626 0 0 1-.223-.857l1.267-2.158a.626.626 0 1 1 1.08.633l-1.267 2.159a.626.626 0 0 1-.538.309zm-61.992-1.735a.623.623 0 0 1-.31-.082l-2.177-1.236a.625.625 0 1 1 .619-1.087l2.177 1.236a.625.625 0 0 1-.309 1.169zm-4.355-2.47a.617.617 0 0 1-.309-.082l-2.178-1.236a.626.626 0 0 1 .619-1.088l2.177 1.236a.626.626 0 0 1-.309 1.17zm68.882-.112a.627.627 0 0 1-.54-.943l1.269-2.159a.626.626 0 0 1 1.08.634l-1.269 2.158a.625.625 0 0 1-.538.305zm-73.237-2.359a.628.628 0 0 1-.309-.081l-2.179-1.235a.627.627 0 1 1 .619-1.09l2.178 1.235a.626.626 0 0 1-.309 1.171zm75.774-1.959a.617.617 0 0 1-.317-.086.625.625 0 0 1-.223-.856l1.268-2.158a.626.626 0 0 1 1.08.634l-1.268 2.157a.627.627 0 0 1-.538.309zm-80.13-.511a.617.617 0 0 1-.309-.082l-2.178-1.236a.626.626 0 0 1 .619-1.088l2.177 1.236a.626.626 0 0 1-.309 1.17zm-4.355-2.47a.621.621 0 0 1-.309-.083l-2.177-1.236a.625.625 0 1 1 .618-1.087l2.177 1.236a.626.626 0 0 1-.309 1.17zm87.022-1.335a.617.617 0 0 1-.317-.086.627.627 0 0 1-.223-.857l1.268-2.158a.626.626 0 1 1 1.08.633l-1.269 2.159a.626.626 0 0 1-.537.309zm-91.335-1.2a.621.621 0 0 1-.351-.107c-.711-.48-1.4-1-2.053-1.535a.626.626 0 1 1 .8-.965 24.8 24.8 0 0 0 1.955 1.463.626.626 0 0 1-.35 1.144zm93.871-3.112a.626.626 0 0 1-.54-.943l1.268-2.159a.626.626 0 0 1 1.08.634l-1.268 2.158a.625.625 0 0 1-.541.305zm-97.725-.073a.627.627 0 0 1-.444-.184 27.112 27.112 0 0 1-1.717-1.909.626.626 0 0 1 .973-.789 24.435 24.435 0 0 0 1.632 1.815.626.626 0 0 1-.444 1.067zm-3.16-3.877a.622.622 0 0 1-.521-.28 25.651 25.651 0 0 1-1.31-2.206.626.626 0 0 1 1.108-.584c.375.712.794 1.418 1.244 2.1a.625.625 0 0 1-.176.867.614.614 0 0 1-.343.094zm103.422-.368a.617.617 0 0 1-.317-.086.626.626 0 0 1-.223-.856l1.268-2.158a.626.626 0 0 1 1.08.634l-1.268 2.157a.629.629 0 0 1-.538.304zm-105.757-4.053a.626.626 0 0 1-.579-.39 25.022 25.022 0 0 1-.848-2.421.625.625 0 0 1 1.2-.354c.228.772.5 1.547.808 2.3a.625.625 0 0 1-.58.861zm108.293-.263a.62.62 0 0 1-.317-.086.627.627 0 0 1-.223-.857l1.267-2.158a.626.626 0 0 1 1.08.633l-1.267 2.159a.626.626 0 0 1-.538.304zm2.536-4.317a.626.626 0 0 1-.54-.943l1.268-2.159a.626.626 0 0 1 1.08.634l-1.269 2.159a.626.626 0 0 1-.537.301zm-112.25-.212a.627.627 0 0 1-.614-.509c-.161-.843-.279-1.7-.354-2.539a.626.626 0 0 1 1.247-.11c.071.8.185 1.613.337 2.415a.627.627 0 0 1-.5.732.671.671 0 0 1-.114.006zm114.786-4.106a.626.626 0 0 1-.54-.942l1.268-2.158a.626.626 0 0 1 1.08.634l-1.268 2.157a.626.626 0 0 1-.538.304zm-115.228-.871h-.006a.628.628 0 0 1-.62-.633 25.9 25.9 0 0 1 .157-2.561.626.626 0 1 1 1.245.14 24.244 24.244 0 0 0-.15 2.434.626.626 0 0 1-.624.615zm117.765-3.445a.617.617 0 0 1-.317-.086.626.626 0 0 1-.223-.857l1.268-2.158q.263-.445.5-.894a.625.625 0 1 1 1.1.591q-.252.471-.525.938l-1.268 2.157a.629.629 0 0 1-.533.304zm-117.207-1.522a.658.658 0 0 1-.132-.014.629.629 0 0 1-.481-.745 25.388 25.388 0 0 1 .668-2.478.616.616 0 0 1 .788-.4.623.623 0 0 1 .4.788 24 24 0 0 0-.632 2.356.628.628 0 0 1-.609.488zm120.057-3.814a.635.635 0 0 1-.239-.047.627.627 0 0 1-.339-.818 24.32 24.32 0 0 0 .818-2.3.626.626 0 0 1 1.2.36 25.4 25.4 0 0 1-.861 2.416.627.627 0 0 1-.577.384zm-118.52-.943a.625.625 0 0 1-.573-.876c.341-.779.726-1.551 1.143-2.3a.627.627 0 1 1 1.093.613c-.4.71-.765 1.444-1.089 2.184a.625.625 0 0 1-.572.374zm119.96-3.845a.61.61 0 0 1-.12-.011.625.625 0 0 1-.5-.733 24.278 24.278 0 0 0 .342-2.416.652.652 0 0 1 .68-.567.627.627 0 0 1 .568.68c-.078.845-.2 1.7-.361 2.54a.626.626 0 0 1-.607.502zm-117.58-.556a.617.617 0 0 1-.317-.086.627.627 0 0 1-.223-.857l1.268-2.157a.626.626 0 1 1 1.08.634l-1.268 2.157a.627.627 0 0 1-.533.304zm2.536-4.316a.614.614 0 0 1-.316-.086.628.628 0 0 1-.224-.857l1.269-2.158a.626.626 0 1 1 1.08.633l-1.269 2.159a.626.626 0 0 1-.538.304zm115.494-.1a.626.626 0 0 1-.626-.62 25.018 25.018 0 0 0-.146-2.436.627.627 0 0 1 .554-.691.636.636 0 0 1 .69.554c.093.844.145 1.706.154 2.56a.627.627 0 0 1-.62.633zm-112.957-4.214a.626.626 0 0 1-.54-.943l1.267-2.159a.626.626 0 0 1 1.08.634l-1.267 2.158a.626.626 0 0 1-.538.302zm112.408-.756a.626.626 0 0 1-.611-.5 25.104 25.104 0 0 0-.625-2.359.625.625 0 0 1 1.192-.379c.261.817.482 1.651.658 2.478a.626.626 0 0 1-.483.742.647.647 0 0 1-.129.01zM1023.5 316.14a.627.627 0 0 1-.54-.943l1.269-2.159a.626.626 0 0 1 1.08.634l-1.269 2.158a.625.625 0 0 1-.54.31zm108.357-1.2a.628.628 0 0 1-.575-.377 24.009 24.009 0 0 0-1.078-2.19.626.626 0 1 1 1.095-.609c.417.751.8 1.525 1.133 2.3a.626.626 0 0 1-.575.874zm-105.82-3.115a.617.617 0 0 1-.317-.086.627.627 0 0 1-.223-.857l1.268-2.158a.626.626 0 1 1 1.08.633l-1.268 2.159a.627.627 0 0 1-.537.306zm103.392-1.256a.621.621 0 0 1-.515-.27 24.828 24.828 0 0 0-1.486-1.936.625.625 0 0 1 .953-.81 25.2 25.2 0 0 1 1.563 2.035.626.626 0 0 1-.515.981zm-100.856-3.061a.627.627 0 0 1-.54-.943l1.269-2.157a.626.626 0 1 1 1.08.633l-1.269 2.158a.626.626 0 0 1-.537.306zm97.617-.748a.626.626 0 0 1-.435-.176c-.579-.56-1.2-1.1-1.839-1.609a.626.626 0 1 1 .779-.98c.672.532 1.322 1.1 1.93 1.688a.627.627 0 0 1-.435 1.077zm-3.918-3.107a.617.617 0 0 1-.341-.1q-.617-.4-1.264-.766l-.858-.486a.626.626 0 1 1 .616-1.09l.858.486q.681.386 1.329.806a.626.626 0 0 1-.34 1.151zm-91.162-.461a.626.626 0 0 1-.54-.943l1.268-2.159a.626.626 0 0 1 1.08.634l-1.268 2.158a.626.626 0 0 1-.537.307zm86.829-2.047a.629.629 0 0 1-.309-.081l-2.177-1.234a.626.626 0 1 1 .618-1.09l2.177 1.234a.626.626 0 0 1-.309 1.171zm-84.292-2.271a.617.617 0 0 1-.317-.086.627.627 0 0 1-.223-.857l1.268-2.158a.626.626 0 0 1 1.08.633l-1.268 2.159a.629.629 0 0 1-.537.306zm79.937-.2a.635.635 0 0 1-.309-.081l-2.177-1.235a.627.627 0 0 1 .618-1.09l2.178 1.235a.626.626 0 0 1-.31 1.171zm-4.354-2.471a.626.626 0 0 1-.31-.082l-2.177-1.236a.625.625 0 1 1 .618-1.087l2.178 1.236a.625.625 0 0 1-.309 1.169zm-73.047-1.646a.62.62 0 0 1-.317-.086.628.628 0 0 1-.223-.857l1.268-2.158a.626.626 0 1 1 1.08.633l-1.268 2.159a.626.626 0 0 1-.537.307zm68.692-.824a.617.617 0 0 1-.309-.082l-2.178-1.236a.626.626 0 0 1 .619-1.088l2.177 1.236a.626.626 0 0 1-.309 1.17zm-4.355-2.471a.619.619 0 0 1-.309-.082l-2.178-1.236a.625.625 0 1 1 .619-1.087l2.177 1.236a.625.625 0 0 1-.309 1.169zm-61.8-1.022a.626.626 0 0 1-.54-.943l1.268-2.159a.626.626 0 0 1 1.08.634l-1.268 2.158a.627.627 0 0 1-.537.308zm57.445-1.448a.617.617 0 0 1-.309-.082l-2.178-1.236a.626.626 0 0 1 .619-1.088l2.177 1.236a.626.626 0 0 1-.309 1.17zm-4.355-2.472a.634.634 0 0 1-.309-.081l-2.174-1.239a.626.626 0 1 1 .618-1.089l2.178 1.234a.626.626 0 0 1-.31 1.171zm-50.538-.388a.625.625 0 0 1-.527-.962 25.98 25.98 0 0 1 1.481-2.091.627.627 0 1 1 .986.774c-.5.638-.977 1.308-1.412 1.99a.626.626 0 0 1-.525.287zm46.184-2.082a.635.635 0 0 1-.31-.081l-2.177-1.235a.626.626 0 1 1 .618-1.09l2.178 1.235a.626.626 0 0 1-.309 1.171zm-43.1-1.848a.626.626 0 0 1-.452-1.059 25.813 25.813 0 0 1 1.865-1.762.625.625 0 1 1 .813.95 25.072 25.072 0 0 0-1.775 1.677.618.618 0 0 1-.445.192zm38.742-.623a.622.622 0 0 1-.308-.081l-2.179-1.234a.626.626 0 0 1 .616-1.09l2.179 1.234a.626.626 0 0 1-.308 1.171zm-4.356-2.47a.614.614 0 0 1-.31-.083l-2.177-1.235a.626.626 0 0 1 .619-1.088l2.177 1.236a.626.626 0 0 1-.309 1.17zm-30.587-.162a.626.626 0 0 1-.36-1.139c.7-.49 1.431-.95 2.17-1.366a.626.626 0 0 1 .614 1.09c-.7.4-1.4.835-2.065 1.3a.631.631 0 0 1-.353.113zm26.2-2.24a.619.619 0 0 1-.267-.06 25.628 25.628 0 0 0-2.256-.934.625.625 0 0 1 .421-1.177c.809.289 1.6.618 2.369.979a.626.626 0 0 1-.267 1.192zm-21.844-.22a.626.626 0 0 1-.255-1.2 27.327 27.327 0 0 1 2.39-.927.626.626 0 0 1 .4 1.188c-.77.256-1.537.555-2.277.884a.632.632 0 0 1-.256.053zm17.138-1.467a.681.681 0 0 1-.153-.019c-.791-.2-1.6-.364-2.394-.486a.627.627 0 0 1-.524-.714.634.634 0 0 1 .713-.524c.838.129 1.683.3 2.512.509a.627.627 0 0 1-.154 1.234zm-12.4-.118a.626.626 0 0 1-.141-1.236c.826-.19 1.673-.345 2.519-.458a.625.625 0 1 1 .168 1.239c-.809.109-1.617.256-2.405.439a.621.621 0 0 1-.136.014zm7.457-.641h-.037q-1.224-.069-2.443-.022h-.023a.626.626 0 0 1-.024-1.252 27.4 27.4 0 0 1 2.563.025.626.626 0 0 1-.036 1.25z" class="cls-5" data-name="Path 7806"/>
            <path id="Path_7807" d="M1150.291 328.8a2.005 2.005 0 0 1-2.009-1.716 1.9 1.9 0 0 1 .392-1.417 2.051 2.051 0 0 1 3.632.935 1.907 1.907 0 0 1-.393 1.42 2.086 2.086 0 0 1-1.622.778zm0-3.092a1.283 1.283 0 0 0-.151.009 1.217 1.217 0 0 0-.823.455 1.08 1.08 0 0 0-.225.807 1.231 1.231 0 0 0 2.169.537 1.077 1.077 0 0 0 .227-.809 1.185 1.185 0 0 0-1.188-1z" class="cls-2" data-name="Path 7807"/>
            <path id="Path_7808" d="M1127.706 391a5.279 5.279 0 0 1-5.254-4.581 5.126 5.126 0 0 1 1.06-3.819 5.321 5.321 0 0 1 9.454 2.545 5.124 5.124 0 0 1-1.058 3.816 5.28 5.28 0 0 1-3.555 2 5.452 5.452 0 0 1-.647.039zm.006-9.05a3.984 3.984 0 0 0-3.109 1.5 3.752 3.752 0 0 0-.777 2.794 3.937 3.937 0 0 0 6.99 1.861 3.749 3.749 0 0 0 .776-2.791 3.89 3.89 0 0 0-3.88-3.367z" class="cls-6" data-name="Path 7808"/>
            <path id="Path_7809" d="M1048.313 257.428a2.008 2.008 0 0 1-2.009-1.716 1.9 1.9 0 0 1 .392-1.418 2.031 2.031 0 0 1 1.375-.764 2.008 2.008 0 0 1 2.256 1.7 1.9 1.9 0 0 1-.393 1.419 2.031 2.031 0 0 1-1.374.763 2.07 2.07 0 0 1-.247.016zm.005-3.091a1.1 1.1 0 0 0-.151.009 1.2 1.2 0 0 0-.823.453 1.084 1.084 0 0 0-.227.809 1.231 1.231 0 0 0 2.17.536 1.083 1.083 0 0 0 .227-.808 1.185 1.185 0 0 0-1.196-.999z" class="cls-2" data-name="Path 7809"/>
            <path id="Path_7810" d="M1101.694 276.944a2.006 2.006 0 0 1-2.01-1.715 1.9 1.9 0 0 1 .391-1.418 2.051 2.051 0 0 1 3.631.937 1.888 1.888 0 0 1-.392 1.416 2.027 2.027 0 0 1-1.376.766 2.006 2.006 0 0 1-.244.014zm0-3.09a1.253 1.253 0 0 0-.15.008 1.209 1.209 0 0 0-.823.454 1.074 1.074 0 0 0-.226.808 1.187 1.187 0 0 0 1.347.991 1.21 1.21 0 0 0 .823-.456 1.075 1.075 0 0 0 .225-.807 1.182 1.182 0 0 0-1.19-.998z" class="cls-2" data-name="Path 7810"/>
            <path id="Path_7811" d="M1014.8 297.68a2.007 2.007 0 0 1-2.012-1.714 1.9 1.9 0 0 1 .393-1.42 2.051 2.051 0 0 1 3.63.938 1.894 1.894 0 0 1-.391 1.417 2.037 2.037 0 0 1-1.375.766 2.564 2.564 0 0 1-.245.013zm0-3.09a1.271 1.271 0 0 0-.151.009 1.207 1.207 0 0 0-.823.452 1.09 1.09 0 0 0-.227.81 1.19 1.19 0 0 0 1.348.99 1.212 1.212 0 0 0 .823-.455 1.085 1.085 0 0 0 .226-.807 1.185 1.185 0 0 0-1.196-.999z" class="cls-2" data-name="Path 7811"/>
            <path id="Path_7812" d="M1019.761 379.407a2.005 2.005 0 0 1-2.008-1.716 1.893 1.893 0 0 1 .392-1.418 2.029 2.029 0 0 1 1.374-.765 2.007 2.007 0 0 1 2.256 1.7 1.892 1.892 0 0 1-.392 1.417 2.027 2.027 0 0 1-1.375.766 2.07 2.07 0 0 1-.247.016zm.005-3.092a1.09 1.09 0 0 0-.151.009 1.2 1.2 0 0 0-.823.454 1.083 1.083 0 0 0-.226.808 1.2 1.2 0 0 0 1.346.99 1.209 1.209 0 0 0 .824-.455 1.08 1.08 0 0 0 .226-.807 1.185 1.185 0 0 0-1.196-.999z" class="cls-2" data-name="Path 7812"/>
        </g>
        <g id="Group_3340" data-name="Group 3340">
            <g id="Group_9487" data-name="Group 9487">
                <path id="Path_7813" d="M1103.45 339.1a6.779 6.779 0 0 0-3.888-1.22c-.055 0-.146 0-.2.008l-1.662.112-22.723-4.421s-27.538-6.152-18.636 35.056c0 0-13.413-.624-12.171 6.551h20.759s-12.712-30.409 22.611-28.55l8.388 36.206v4.337s-11.86-.62-9.587 4.957l19.153 1.549v-54.22z" class="cls-7" data-name="Path 7813"/>
                <path id="Path_7814" d="M1106.687 394.335l-20.166-1.63-.139-.341a3.225 3.225 0 0 1 .207-3.252c1.761-2.477 7.362-2.588 9.336-2.55v-3.648l-8.566-36c-10.445-.485-17.595 1.871-21.214 6.98-5.688 8.032-.717 20.343-.667 20.467l.341.826h-22.155l-.087-.5a4.613 4.613 0 0 1 1.077-4.072c2.576-2.854 8.748-2.959 10.948-2.911-3.086-14.827-1.784-25.163 3.876-30.727 6.212-6.1 15.267-4.072 15.651-3.983l22.643 4.4 1.623-.111c.067-.006.272-.011.408-.011a8 8 0 0 1 4.18 1.25l2.7.428zm-19.319-2.762l18.123 1.466v-53.061l-1.98-.313-.118-.088a6.617 6.617 0 0 0-3.666-1.1l-.242.006-1.788.121-.077-.014-22.742-4.421c-.108-.026-8.833-1.974-14.57 3.674-5.437 5.353-6.573 15.572-3.377 30.37l.168.777-.793-.054c-.08 0-8.059-.511-10.765 2.486a3.3 3.3 0 0 0-.846 2.571h19.367c-1.065-3-4.142-13.375 1.108-20.789 3.92-5.536 11.555-8.055 22.7-7.461l.446.024 8.806 37.078v4.967l-.629-.033c-2.005-.1-7.527.057-8.928 2.027a1.925 1.925 0 0 0-.197 1.767z" class="cls-8" data-name="Path 7814"/>
            </g>
            <path id="Path_7815" d="M1056.067 368.634c.156.945.359 1.926.574 2.942 0 0-8.837.024-10.918 3.612h-1.555c-1.136-6.554 9.974-6.601 11.899-6.554z" class="cls-9" data-name="Path 7815"/>
            <path id="Path_7816" d="M1105.491 339.468v54.219l-3.587-.287v-48.826l-1.722-.335a5.954 5.954 0 0 0-3.516-1.136.573.573 0 0 0-.143.012l-1.519.108-21.071-4.1s-21.167-4.8-18.739 23.187c-4.843-34.225 19.779-28.724 19.779-28.724l22.721 4.414 1.663-.108a1.216 1.216 0 0 1 .2-.012 6.7 6.7 0 0 1 3.887 1.22z" class="cls-9" data-name="Path 7816"/>
            <path id="Path_7817" d="M1056.067 369.208c-.418-2.391-.7-4.376-.873-6.326.287 1.974.658 3.935 1.148 6.326z" class="cls-9" data-name="Path 7817"/>
            <path id="Path_7818" d="M1063.816 375.188a22.831 22.831 0 0 0 .8 2.391h-19.265a3.3 3.3 0 0 1 .371-2.391z" class="cls-9" data-name="Path 7818"/>
            <g id="Group_9488" data-name="Group 9488">
                <path id="Path_1254" d="M1080.4 289.477s-21.156-3.773-13.327-14.869l-8.895-1.26s-6.522 16.6 19.612 24.681 2.61-8.552 2.61-8.552z" class="cls-7" data-name="Path 1254"/>
                <path id="Path_7819" d="M1087.978 300.835c-1.843 0-4.974-.566-10.368-2.235-9.824-3.039-16.263-7.614-19.14-13.6a15.741 15.741 0 0 1-.852-11.871l.173-.441 10.331 1.465-.564.8c-1.595 2.262-2.018 4.349-1.255 6.2 2.279 5.547 14.079 7.711 14.2 7.732l.241.1c2.634 1.863 11.131 8.151 9.822 10.807-.266.553-.872 1.043-2.588 1.043zm-29.39-26.825a15.012 15.012 0 0 0 .971 10.5c2.734 5.66 8.925 10.018 18.4 12.951 10.253 3.171 11.4 2.064 11.53 1.81.569-1.156-4.348-5.685-9.334-9.227-1.424-.27-12.546-2.554-14.961-8.431-.833-2.025-.543-4.221.857-6.542z" class="cls-8" data-name="Path 7819"/>
            </g>
            <g id="Group_9489" data-name="Group 9489">
                <path id="Path_1255" d="M1100.868 281.024v9.18s17.486-.565 14.073 18.707l-9.74-.736v31.3s-22 0-32.842-5.268v-30.06s-3.186-15.365 13.94-14.563l-.365-3.28z" class="cls-7" data-name="Path 1255"/>
                <path id="Path_7820" d="M1105.8 340.068h-.6c-.9 0-22.261-.061-33.1-5.328l-.337-.164V304.2c-.14-.731-1.18-6.883 2.5-11.2 2.391-2.8 6.2-4.171 11.366-4.046l-.342-3.064 16.179-5.72v9.432c1.885.061 7.6.609 11.3 4.885 2.937 3.39 3.866 8.275 2.76 14.52l-.1.533-9.634-.73zm-32.843-6.243c9.7 4.518 28.1 4.992 31.647 5.041V307.53l9.838.744c.9-5.615.031-9.985-2.577-12.994-4.022-4.645-10.916-4.479-10.977-4.478l-.618.02v-8.952l-13.689 4.839.39 3.506-.7-.034c-5.133-.245-8.848.972-11.094 3.6-3.457 4.043-2.244 10.186-2.233 10.248l.013.12z" class="cls-8" data-name="Path 7820"/>
            </g>
            <g id="Group_9490" data-name="Group 9490">
                <path id="Path_1256" d="M1084.448 260.169s-9.629 43.7 21.935 19.691l.333-13.409z" class="cls-7" data-name="Path 1256"/>
                <path id="Path_7821" d="M1091.18 287.653a7.291 7.291 0 0 1-4.014-1.1c-7.924-5.065-3.494-25.64-3.3-26.513l.136-.619 23.324 6.579-.353 14.161-.229.174c-6.403 4.871-11.614 7.318-15.564 7.318zm-6.274-26.733c-.677 3.477-3.6 20.467 2.905 24.626 3.614 2.312 9.661.292 17.981-5.989l.315-12.656z" class="cls-8" data-name="Path 7821"/>
            </g>
            <path id="Path_7822" d="M1106.71 266.446l-.332 13.409a59.8 59.8 0 0 1-5.722 3.9l.173-7.063a5.772 5.772 0 0 0-4.2-5.7l-13.262-3.744a70.772 70.772 0 0 1 1.075-7.089z" class="cls-9" data-name="Path 7822"/>
            <g id="Group_9491" data-name="Group 9491">
                <path id="Path_1258" d="M1092.332 257.531s20.288.368 17.24 15.267l-1.316 9.515s-6.425 3.158-3.158-13.276l-20.995-4.224s-8.069-4.9-7.2-11.034a128.681 128.681 0 0 0 15.429 3.752z" class="cls-10" data-name="Path 1258"/>
                <path id="Path_7823" d="M1107.109 283.155a2.781 2.781 0 0 1-1.733-.582c-2.007-1.541-2.335-5.935-.979-13.066l-20.6-4.183c-.343-.209-8.394-5.177-7.481-11.629l.1-.7.671.208a128.416 128.416 0 0 0 15.311 3.726c.9.023 11.135.409 15.821 6.259 2.08 2.6 2.734 5.868 1.946 9.725l-1.354 9.792-.284.141a3.508 3.508 0 0 1-1.418.309zm-22.781-18.907l21.473 4.321-.117.585c-1.819 9.149-.523 11.736.411 12.463a1.807 1.807 0 0 0 1.618.26l1.267-9.161c.72-3.53.147-6.471-1.7-8.776-4.453-5.558-14.854-5.809-14.958-5.811l-.1-.009a129.9 129.9 0 0 1-14.788-3.552c-.109 5.032 6.09 9.165 6.894 9.68z" class="cls-10" data-name="Path 7823"/>
            </g>
            <g id="Group_9492" data-name="Group 9492">
                <path id="Path_1259" d="M1051.656 258.46l21.975 8.5s2 8.707-1.5 10.57l-22.581.859s6.184-18.277 2.106-19.929z" class="cls-7" data-name="Path 1259"/>
                <path id="Path_7824" d="M1048.71 279.017l.278-.822c2.491-7.367 4.9-18.187 2.443-19.18l.44-1.112 22.271 8.61.072.309c.086.374 2.061 9.178-1.8 11.232l-.259.07zm4.607-19.273c1.293 4.305-1.729 14.351-2.923 18.011l21.572-.821c2.3-1.409 1.664-7.071 1.15-9.536z" class="cls-8" data-name="Path 7824"/>
            </g>
            <path id="Path_1260" d="M1055.464 260.229l12.509 2.962a1.13 1.13 0 0 1 .9.675l.012.042c.545 2.036-1.709 3.958-5.036 4.292-.249.025-.5.04-.754.046l-10.12.236c-.788.019-1.453-.357-1.484-.84a.568.568 0 0 1 .059-.285c.786-1.606 2.054-4.5 1.973-6.3-.017-.481.607-.88 1.394-.891a2.24 2.24 0 0 1 .547.063z" class="cls-11" data-name="Path 1260"/>
            <g id="Group_9493" data-name="Group 9493">
                <ellipse id="Ellipse_86" cx="12.957" cy="7.98" class="cls-7" data-name="Ellipse 86" rx="12.957" ry="7.98" transform="rotate(-81.942 678.268 -456.172)"/>
                <path id="Path_7825" d="M1043.473 281.109a5.594 5.594 0 0 1-.8-.056c-2.324-.329-4.284-2.069-5.519-4.9a18.283 18.283 0 0 1-1.075-9.722c1.048-7.4 5.711-12.876 10.394-12.219 2.324.329 4.284 2.069 5.519 4.9a19.708 19.708 0 0 1-2.657 18.765c-1.743 2.107-3.799 3.232-5.862 3.232zm2.21-25.758c-3.816 0-7.508 4.85-8.414 11.247a17.087 17.087 0 0 0 .985 9.075c1.064 2.437 2.694 3.928 4.592 4.2s3.876-.709 5.574-2.756a18.537 18.537 0 0 0 2.482-17.522c-1.064-2.437-2.694-3.927-4.592-4.2a4.559 4.559 0 0 0-.627-.044z" class="cls-8" data-name="Path 7825"/>
            </g>
            <g id="Group_9494" data-name="Group 9494">
                <ellipse id="Ellipse_87" cx="11.662" cy="7.182" class="cls-7" data-name="Ellipse 87" rx="11.662" ry="7.182" transform="rotate(-81.942 678.08 -457.318)"/>
                <path id="Path_7826" d="M1043.561 279.82a5.033 5.033 0 0 1-.7-.049c-2.113-.3-3.892-1.878-5.013-4.447a16.529 16.529 0 0 1-.971-8.782c.947-6.693 5.17-11.64 9.422-11.048 2.113.3 3.894 1.878 5.013 4.446a16.537 16.537 0 0 1 .971 8.784c-.898 6.323-4.72 11.096-8.722 11.096zm2.011-23.181c-3.4 0-6.7 4.343-7.513 10.071a15.337 15.337 0 0 0 .883 8.136c.948 2.174 2.4 3.5 4.085 3.741 3.6.52 7.215-3.991 8.07-10.032a15.338 15.338 0 0 0-.882-8.136c-.948-2.173-2.4-3.5-4.086-3.74a3.879 3.879 0 0 0-.557-.04z" class="cls-8" data-name="Path 7826"/>
            </g>
            <g id="Group_9495" data-name="Group 9495">
                <path id="Path_1261" d="M1074.992 267.281l12.757 4.934s1.163 5.056-.868 6.135l-12.155-.35s2.633-9.758.266-10.719z" class="cls-7" data-name="Path 1261"/>
                <path id="Path_7827" d="M1087.022 278.952l-13.07-.378.2-.731c1.2-4.466 1.739-9.553.617-10.008l.442-1.112 13.052 5.049.071.309c.13.563 1.2 5.539-1.17 6.8zm-11.527-1.529l11.225.324c1.086-.787.774-3.731.51-5.091l-10.823-4.186c.558 2.46-.354 6.736-.912 8.953z" class="cls-8" data-name="Path 7827"/>
            </g>
            <g id="Group_9496" data-name="Group 9496">
                <path id="Path_1262" d="M1114.946 305.574l-21.109-24.874s2.2-7.317-3.414-9.676l-7.268-1.024s4.261 4.592 1.7 9.426l17.362 29.879s12.122 11.61 12.729-3.731z" class="cls-7" data-name="Path 1262"/>
                <path id="Path_7828" d="M1110.254 314.11c-3.835 0-8.24-4.172-8.453-4.375l-.1-.132-17.529-30.166.157-.293c2.336-4.407-1.568-8.7-1.607-8.739l-1.146-1.234 9.082 1.305c5.331 2.241 4.194 8.571 3.839 10.075l21.059 24.814-.008.232c-.181 4.547-1.4 7.307-3.617 8.2a4.453 4.453 0 0 1-1.677.313zm-7.567-5.183c.6.555 5.607 5.048 8.793 3.764 1.71-.692 2.672-3.016 2.859-6.909l-21.168-24.939.092-.312c.083-.276 1.955-6.771-3-8.923l-5.746-.813c1.139 1.717 2.723 5.05 1.017 8.609z" class="cls-8" data-name="Path 7828"/>
            </g>
            <path id="Path_7829" d="M1112.936 312.394a17.37 17.37 0 0 0 .558-4.009l-21.109-24.866s2.191-7.315-3.425-9.678l-3.824-.544a10.869 10.869 0 0 0-1.978-3.293l7.262 1.023c5.616 2.363 3.412 9.678 3.412 9.678l21.109 24.865c-.141 3.585-.903 5.696-2.005 6.824z" class="cls-9" data-name="Path 7829"/>
            <path id="Path_1263" d="M1086.808 291.318s-15.44-9.293-12.22 40.352c0 0 6.021 5.939 28.656 5.939 0 0-47.747-6.652-16.638-38.482 0 0 5.934-5.164.202-7.809z" class="cls-11" data-name="Path 1263"/>
            <g id="Group_9497" class="cls-12" data-name="Group 9497">
                <ellipse id="Ellipse_89" cx="1.787" cy=".713" class="cls-7" data-name="Ellipse 89" rx="1.787" ry=".713" transform="translate(1097.593 261.045)"/>
                <path id="Path_7830" d="M1099.38 263.069c-1.186 0-2.384-.4-2.384-1.312 0-1.81 4.769-1.81 4.769 0 0 .907-1.198 1.312-2.385 1.312zm-.892-1.312a4.323 4.323 0 0 0 1.784 0 4.429 4.429 0 0 0-1.784 0z" class="cls-8" data-name="Path 7830"/>
            </g>
            <path id="Rectangle_1199" d="M0 0h61.993v19.309H0z" class="cls-13" data-name="Rectangle 1199" transform="translate(1013.602 376.47)"/>
            <g id="Group_9498" data-name="Group 9498">
                <path id="Rectangle_1199-2" d="M0 0h61.993v19.309H0z" class="cls-7" data-name="Rectangle 1199" transform="translate(1011.891 374.626)"/>
                <path id="Path_7831" d="M1074.482 394.533h-63.188v-20.5h63.188zm-61.992-1.2h60.8v-18.109h-60.8z" class="cls-8" data-name="Path 7831"/>
            </g>
            <path id="Path_7832" d="M1075.595 375.188v14.074c0-5.337-6.722-8.1-12.9-8.1h-49.479c-.452 0-1.006-1.53-1.006-1.477v-4.5z" class="cls-9" data-name="Path 7832"/>
            <path id="Path_7833" d="M1050.884 268.292a14.8 14.8 0 0 1-4.327 8.988 17.134 17.134 0 0 0 2.11-6.267c.9-6.385-1.553-12-5.483-12.559a5.563 5.563 0 0 0-4.42 1.554c1.725-2.908 4.181-4.621 6.638-4.275 3.929.557 6.385 6.173 5.482 12.559z" class="cls-9" data-name="Path 7833"/>
        </g>
    </g>
</svg>
