<svg xmlns="http://www.w3.org/2000/svg" width="83.357" height="72.984" viewBox="0 0 83.357 72.984">
    <defs>
        <style>
            .cls-1,.cls-3,.cls-4{fill:none}.cls-1,.cls-10,.cls-5,.cls-6,.cls-7,.cls-8,.cls-9{stroke:#bf263f}.cls-1,.cls-3,.cls-4,.cls-5,.cls-7{stroke-miterlimit:10}.cls-1{stroke-width:1.426px;stroke-dasharray:2.341 4.681;opacity:.512}.cls-2{fill:#ed4d67;opacity:.1}.cls-3,.cls-4{stroke:#f7657d;stroke-width:1.17px}.cls-3{opacity:.18}.cls-4{opacity:.14}.cls-10,.cls-5,.cls-6,.cls-8{fill:#fff}.cls-7,.cls-9{fill:#bf263f}.cls-8{opacity:.61}.cls-9{opacity:.23}.cls-10{opacity:.45}
        </style>
    </defs>
    <g id="_09" data-name="9" transform="translate(-970.401 -783.91)">
        <g id="Group_2358" data-name="Group 2358" transform="translate(971.67 785.002)">
            <g id="Group_2354" data-name="Group 2354">
                <g id="Group_2352" data-name="Group 2352" transform="translate(1.522 1.8)">
                    <path id="Path_826" d="M989.216 809.052c5.271 16.4 7.835 27.555 3.046 43.315-5.143 16.925 30.047 12.984 43.315 3.047 12.615-9.45 34.273-21.466-3.046-43.315-15.493-9.07-48.806-20.131-43.315-3.047z" class="cls-1" data-name="Path 826" transform="translate(-981.919 -794.587)"/>
                    <path id="Path_777" d="M1045.6 799.154c-7.4 16.764-11.35 28.273-8.037 45.474 3.558 18.473-33.223 10.393-46.151-1.593-12.293-11.393-33.863-26.514 8.037-45.474 17.394-7.87 53.857-15.861 46.151 1.593z" class="cls-2" data-name="Path 777" transform="translate(-974.809 -788.714)"/>
                </g>
                <g id="Group_2356" data-name="Group 2356">
                    <circle id="Ellipse_80" cx="1.598" cy="1.598" r="1.598" class="cls-3" data-name="Ellipse 80" transform="translate(69.474 14.338)"/>
                    <path id="Path_823" d="M1122.689 845.828l2.508-1.316.34-2.812 2.026 1.978 2.781-.548-1.255 2.538 1.379 2.473-2.8-.41-1.926 2.076-.477-2.791z" class="cls-4" data-name="Path 823" transform="translate(-1049.468 -814.21)"/>
                    <path id="Path_828" d="M972.784 785l1.643.922 1.7-.83-.37 1.848 1.313 1.352-1.871.22-.88 1.667-.787-1.712-1.857-.322 1.385-1.277z" class="cls-4" data-name="Path 828" transform="translate(-971.67 -785.002)"/>
                    <circle id="Ellipse_81" cx="2.733" cy="2.733" r="2.733" class="cls-3" data-name="Ellipse 81" transform="translate(1.948 56.896)"/>
                </g>
            </g>
        </g>
        <g id="Group_3340" data-name="Group 3340" transform="translate(987.99 785.189)">
            <path id="Path_1251" d="M107.479 301.391s11.629-3.01 7.869 14.395c0 0 5.662-.262 5.139 2.355h-8.768s5.235-12.432-9.684-11.647l-3.677 15.7v1.832s5.2-.262 4.244 2.094l-7.895.654v-22.9z" class="cls-5" data-name="Path 1251" transform="translate(-90.408 -267.647)"/>
            <path id="Path_1253" d="M165.979 310.332l-3.879 16.736a1.592 1.592 0 0 0-.036.481l.168 2.176a1.588 1.588 0 0 1-1.583 1.71 1.587 1.587 0 0 1-1.587-1.629l.531-20.1a1.588 1.588 0 0 1 1.7-1.542l3.256.23a1.587 1.587 0 0 1 1.43 1.938z" class="cls-6" data-name="Path 1253" transform="translate(-154.505 -272.599)"/>
            <path id="Path_1254" d="M118.343 220.671s8.935-1.593 5.628-6.28l3.757-.532s2.755 7.011-8.283 10.424-1.102-3.612-1.102-3.612z" class="cls-5" data-name="Path 1254" transform="translate(-103.565 -205.554)"/>
            <path id="Path_1255" d="M141.818 225.076v3.877s-7.385-.239-5.946 7.9l4.114-.311v13.218s9.291 0 13.871-2.225v-12.693s1.348-6.489-5.889-6.15l.154-1.385z" class="cls-5" data-name="Path 1255" transform="translate(-135.686 -213.53)"/>
            <path id="Path_1256" d="M161.074 194.6s4.067 18.456-9.264 8.316l-.141-5.663z" class="cls-5" data-name="Path 1256" transform="translate(-148.007 -191.862)"/>
            <path id="Path_1257" d="M161.658 194.245s5.567 16.072-7.411 8.4l-.718-5.048z" class="cls-6" data-name="Path 1257" transform="translate(-149.732 -191.609)"/>
            <path id="Path_1258" d="M149.981 186.85s-8.569.155-7.281 6.449l.555 4.018s2.714 1.334 1.334-5.607l8.867-1.784s3.408-2.068 3.041-4.66a54.363 54.363 0 0 1-6.516 1.584z" class="cls-7" data-name="Path 1258" transform="translate(-140.245 -185.225)"/>
            <path id="Path_1259" d="M112.22 192.1l-9.281 3.591s-.846 3.677.632 4.464l9.537.363s-2.608-7.718-.888-8.418z" class="cls-5" data-name="Path 1259" transform="translate(-85.304 -190.082)"/>
            <path id="Path_1260" d="M115.528 197.5l-5.728 2.216a.656.656 0 0 0-.41.5l-.005.032a2.8 2.8 0 0 0 2.651 3.245l4.633.176a.654.654 0 0 0 .653-.841 18.454 18.454 0 0 1-.9-4.711.653.653 0 0 0-.894-.617z" class="cls-8" data-name="Path 1260" transform="translate(-91.467 -193.888)"/>
            <ellipse id="Ellipse_86" cx="5.472" cy="3.371" class="cls-5" data-name="Ellipse 86" rx="5.472" ry="3.371" transform="rotate(-98.058 18.783 -5.978)"/>
            <ellipse id="Ellipse_87" cx="4.925" cy="3.034" class="cls-6" data-name="Ellipse 87" rx="4.925" ry="3.034" transform="rotate(-98.058 18.656 -6.384)"/>
            <path id="Path_1261" d="M145.011 204.992l-5.388 2.084s-.491 2.135.367 2.591l5.133-.149s-1.112-4.118-.112-4.526z" class="cls-5" data-name="Path 1261" transform="translate(-127.951 -199.25)"/>
            <path id="Path_1262" d="M151.8 223.992l8.916-10.5s-.928-3.09 1.442-4.086l3.069-.434s-1.8 1.939-.717 3.983l-7.333 12.619s-5.123 4.897-5.377-1.582z" class="cls-5" data-name="Path 1262" transform="translate(-151.612 -202.076)"/>
            <path id="Path_1263" d="M144.937 239.4s6.638-3.926 5.254 17.043c0 0-2.589 2.508-12.32 2.508 0 0 20.528-2.809 7.154-16.253 0 .002-2.552-2.178-.088-3.298z" class="cls-9" data-name="Path 1263" transform="translate(-132.743 -223.509)"/>
            <ellipse id="Ellipse_89" cx=".755" cy=".301" class="cls-10" data-name="Ellipse 89" rx=".755" ry=".301" transform="translate(6.006 3.108)"/>
            <path id="Rectangle_1199" d="M0 0h26.183v8.155H0z" class="cls-5" data-name="Rectangle 1199" transform="translate(17.528 51.079)"/>
        </g>
    </g>
</svg>
