<svg xmlns="http://www.w3.org/2000/svg" width="24" height="24" viewBox="0 0 24 24">
    <defs>
        <style>
            .cls-1{fill:none}.cls-2{clip-path:url(#clip-path)}.cls-3{fill:#999}
        </style>
        <clipPath id="clip-path">
            <path d="M0 0h24v24H0z" class="cls-1"/>
        </clipPath>
    </defs>
    <g id="Component" class="cls-2">
        <path id="Path_501" d="M1407.8 1148.088v1.023a.741.741 0 0 1-.835.7h-13.233a.658.658 0 0 1-.736-.7v-10.025a.78.78 0 0 1 .736-.851h2.376a.812.812 0 1 1 0 1.625h-1.489v8.328h11.559v-.1a.811.811 0 1 1 1.622 0zm3.612-7.566l-5.039 5.126a.826.826 0 0 1-1.412-.576v-2.216c-1.622-.046-5.521.117-6.926 2.618a.813.813 0 0 1-.71.418.8.8 0 0 1-.2-.026.819.819 0 0 1-.612-.791 8.535 8.535 0 0 1 2.344-5.6 8.872 8.872 0 0 1 6.109-2.46v-2.191a.824.824 0 0 1 1.409-.576l5.041 5.126a.821.821 0 0 1 0 1.148zm-1.757-.576l-3.072-3.125v.988a.809.809 0 0 1-.806.82 7.805 7.805 0 0 0-5.765 2 6.217 6.217 0 0 0-1.284 1.917 11.778 11.778 0 0 1 5.8-1.34 12.816 12.816 0 0 1 1.345.062.809.809 0 0 1 .716.815v.988z" class="cls-3" data-name="Path 501" transform="translate(-1390 -1130)"/>
        <path id="Rectangle_936" d="M0 0h24v24H0z" class="cls-1" data-name="Rectangle 936"/>
    </g>
</svg>
