<svg xmlns="http://www.w3.org/2000/svg" xmlns:xlink="http://www.w3.org/1999/xlink" width="147.26" height="128.751" viewBox="0 0 147.26 128.751">
    <defs>
        <style>
            .cls-1,.cls-11,.cls-12,.cls-13,.cls-14,.cls-15,.cls-16,.cls-17,.cls-18,.cls-19,.cls-21,.cls-22,.cls-23,.cls-3,.cls-4,.cls-5{fill:none}.cls-1,.cls-5,.cls-6,.cls-8{stroke:#bf263f}.cls-1,.cls-3,.cls-4{stroke-miterlimit:10}.cls-1{stroke-width:1.426px;stroke-dasharray:2.341 4.681;opacity:.512}.cls-2{fill:#ed4d67;opacity:.1}.cls-3,.cls-4{stroke:#f7657d;stroke-width:1.17px}.cls-3{opacity:.18}.cls-4{opacity:.14}.cls-5,.cls-6{stroke-width:2px}.cls-20,.cls-6,.cls-7,.cls-8{fill:#bf263f}.cls-9{fill:#fff}.cls-10,.cls-20{stroke:none}.cls-12{clip-path:url(#clip)}.cls-13{clip-path:url(#clip-2)}.cls-14{clip-path:url(#clip-3)}.cls-15{clip-path:url(#clip-4)}.cls-16{clip-path:url(#clip-5)}.cls-17{clip-path:url(#clip-6)}.cls-18{clip-path:url(#clip-7)}.cls-19{clip-path:url(#clip-8)}.cls-21{clip-path:url(#clip-9)}.cls-22{clip-path:url(#clip-10)}.cls-23{clip-path:url(#clip-11)}
        </style>
        <clipPath id="clip">
            <use xlink:href="#fill"/>
        </clipPath>
        <clipPath id="clip-2">
            <use xlink:href="#fill-2"/>
        </clipPath>
        <clipPath id="clip-3">
            <use xlink:href="#fill-3"/>
        </clipPath>
        <clipPath id="clip-4">
            <use xlink:href="#fill-4"/>
        </clipPath>
        <clipPath id="clip-5">
            <use xlink:href="#fill-5"/>
        </clipPath>
        <clipPath id="clip-6">
            <use xlink:href="#fill-6"/>
        </clipPath>
        <clipPath id="clip-7">
            <use xlink:href="#fill-7"/>
        </clipPath>
        <clipPath id="clip-8">
            <use xlink:href="#fill-8"/>
        </clipPath>
        <clipPath id="clip-9">
            <use xlink:href="#fill-9"/>
        </clipPath>
        <clipPath id="clip-10">
            <use xlink:href="#fill-10"/>
        </clipPath>
        <clipPath id="clip-11">
            <use xlink:href="#fill-11"/>
        </clipPath>
    </defs>
    <g id="_09" data-name="9" transform="translate(-969.959 -783.91)">
        <g id="Group_2358" data-name="Group 2358" transform="translate(971.67 785.002)">
            <g id="Group_2354" data-name="Group 2354">
                <g id="Group_2352" data-name="Group 2352" transform="translate(2.715 3.209)">
                    <path id="Path_826" d="M989.689 816.054c9.4 29.258 13.973 49.144 5.433 77.251-9.173 30.186 53.588 23.157 77.251 5.434 22.5-16.853 61.125-38.284-5.433-77.251-27.63-16.176-87.04-35.903-77.251-5.434z" class="cls-1" data-name="Path 826" transform="translate(-976.677 -790.256)"/>
                    <path id="Path_777" d="M1101.067 807.335c-13.2 29.9-20.242 50.424-14.334 81.1 6.346 32.946-59.253 18.535-82.309-2.842-21.924-20.319-60.394-47.287 14.334-81.1 31.017-14.037 96.049-28.293 82.309 2.842z" class="cls-2" data-name="Path 777" transform="translate(-974.809 -788.714)"/>
                </g>
                <g id="Group_2356" data-name="Group 2356">
                    <circle id="Ellipse_80" cx="2.851" cy="2.851" r="2.851" class="cls-3" data-name="Ellipse 80" transform="translate(123.905 25.571)"/>
                    <path id="Path_823" d="M1122.689 849.061l4.473-2.347.607-5.014 3.614 3.528 4.959-.977-2.239 4.527 2.46 4.411-5-.731-3.435 3.7-.85-4.978z" class="cls-4" data-name="Path 823" transform="translate(-992.101 -792.673)"/>
                    <path id="Path_828" d="M973.657 785l2.93 1.645 3.023-1.48-.659 3.3 2.341 2.412-3.337.392-1.57 2.973-1.4-3.053-3.311-.574 2.471-2.278z" class="cls-4" data-name="Path 828" transform="translate(-971.67 -785.002)"/>
                    <circle id="Ellipse_81" cx="4.875" cy="4.875" r="4.875" class="cls-3" data-name="Ellipse 81" transform="translate(3.474 101.472)"/>
                </g>
            </g>
        </g>
        <g id="Group_3224" data-name="Group 3224" transform="translate(983.285 800.826)">
            <g id="Group_3223" data-name="Group 3223" transform="translate(0 9.67)">
                <g id="Group_3222" data-name="Group 3222">
                    <g id="Rectangle_1036" class="cls-5" data-name="Rectangle 1036">
                        <path d="M0 0h103.862v4.03H0z" class="cls-10" transform="translate(1.661 80.373)"/>
                        <path d="M1 1h101.862v2.03H1z" class="cls-11" transform="translate(1.661 80.373)"/>
                    </g>
                    <g id="Rectangle_1037" class="cls-5" data-name="Rectangle 1037">
                        <path d="M0 0h103.862v1.877H0z" class="cls-10" transform="translate(1.661 78.496)"/>
                        <path d="M-1-1h105.862v3.877H-1z" class="cls-11" transform="translate(1.661 78.496)"/>
                    </g>
                    <g id="Rectangle_1038" class="cls-5" data-name="Rectangle 1038" transform="translate(1.661 76.619)">
                        <path id="fill" d="M0 0h14.837v1.877H0z" class="cls-10"/>
                        <path d="M0 .877h14.837m-1-.877v1.877m1-.877H0m1 .877V0" class="cls-12"/>
                    </g>
                    <g id="Rectangle_1039" class="cls-5" data-name="Rectangle 1039" transform="translate(16.499 76.619)">
                        <path id="fill-2" d="M0 0h14.837v1.877H0z" class="cls-10"/>
                        <path d="M0 .877h14.837m-1-.877v1.877m1-.877H0m1 .877V0" class="cls-13"/>
                    </g>
                    <g id="Rectangle_1040" class="cls-5" data-name="Rectangle 1040" transform="translate(31.336 76.619)">
                        <path id="fill-3" d="M0 0h14.837v1.877H0z" class="cls-10"/>
                        <path d="M0 .877h14.837m-1-.877v1.877m1-.877H0m1 .877V0" class="cls-14"/>
                    </g>
                    <g id="Rectangle_1041" class="cls-5" data-name="Rectangle 1041" transform="translate(46.174 76.619)">
                        <path id="fill-4" d="M0 0h14.837v1.877H0z" class="cls-10"/>
                        <path d="M0 .877h14.837m-1-.877v1.877m1-.877H0m1 .877V0" class="cls-15"/>
                    </g>
                    <g id="Rectangle_1042" class="cls-5" data-name="Rectangle 1042" transform="translate(61.011 76.619)">
                        <path id="fill-5" d="M0 0h14.838v1.877H0z" class="cls-10"/>
                        <path d="M0 .877h14.838m-1-.877v1.877m1-.877H0m1 .877V0" class="cls-16"/>
                    </g>
                    <g id="Rectangle_1043" class="cls-5" data-name="Rectangle 1043">
                        <path d="M0 0h17.232v2.18H0z" class="cls-10" transform="translate(75.849 76.315)"/>
                        <path d="M1 1h15.232v.18H1z" class="cls-11" transform="translate(75.849 76.315)"/>
                    </g>
                    <g id="Rectangle_1044" class="cls-5" data-name="Rectangle 1044" transform="translate(90.686 76.619)">
                        <path id="fill-6" d="M0 0h14.838v1.877H0z" class="cls-10"/>
                        <path d="M0 .877h14.838m-1-.877v1.877m1-.877H0m1 .877V0" class="cls-17"/>
                    </g>
                    <g id="Group_3218" data-name="Group 3218" transform="translate(27.963 48.018)">
                        <g id="Rectangle_1045" class="cls-6" data-name="Rectangle 1045" transform="translate(.775 26.383)">
                            <path id="fill-7" d="M0 0h13.547v1.631H0z" class="cls-10"/>
                            <path d="M0 .63h13.547m-1-.63v1.63m1-.63H0m1 .63V0" class="cls-18"/>
                        </g>
                        <g id="Rectangle_1046" class="cls-6" data-name="Rectangle 1046" transform="translate(1.425 18.681)">
                            <path id="fill-8" d="M0 0h12.248v1.631H0z" class="cls-10"/>
                            <path d="M0 .631h12.248m-1-.631v1.631m1-.631H0m1 .631V0" class="cls-19"/>
                        </g>
                        <g id="Path_1873" class="cls-7" data-name="Path 1873">
                            <path d="M148.501 358.71h-9.726l.188-.119c.614-.386 1.378-.866 1.378-2.113 0-.212-.013-.413-.036-.6h6.666a5.05 5.05 0 0 0-.036.6c0 1.247.765 1.728 1.379 2.114l.187.119z" class="cls-10" transform="translate(-136.09 -333.946)"/>
                            <path d="M146.16 357.71a3.122 3.122 0 0 1-.204-.832h-4.635a3.12 3.12 0 0 1-.203.833h5.041m3.83 2h-12.701s-.363-.876.513-1.54c.876-.666 1.54-.756 1.54-1.693 0-.936-.332-1.6-.332-1.6h9.258s-.332.664-.332 1.6c0 .937.664 1.027 1.54 1.693.877.664.514 1.54.514 1.54z" class="cls-20" transform="translate(-136.09 -333.946)"/>
                        </g>
                        <g id="Path_1874" class="cls-7" data-name="Path 1874">
                            <path d="M146.416 321.376h-8.964c-.153-.928-.474-2.352-1.089-3.33-.087-.18-.517-1.118-.735-2.445-.316-1.926-.061-3.734.758-5.373.69-1.382 1.686-2.372 2.957-2.944a6.1 6.1 0 0 1 2.449-.533c.14 0 .228.006.244.008l.397.045.309-.245.133-.102-.019.257.317.323c.013.013 1.344 1.379 2.25 2.68.481.693 1.027 1.283 1.465 1.757.177.192.4.434.542.606-.096.151-.243.328-.368.433a2.287 2.287 0 0 1-.128-.192c-.176-.286-.504-.82-1.239-.906a1.867 1.867 0 0 0-.216-.012c-.24 0-.487.042-.727.082-.214.035-.434.072-.605.072a.735.735 0 0 1-.095-.005c-.264-.282-.619-.957-.784-1.347l-.829-1.95-.979 1.88c-.04.077-.982 1.935.12 4.063.48.928 1.434 1.69 2.356 2.428.929.743 1.981 1.585 2.145 2.35.2.934.292 1.785.335 2.4z" class="cls-10" transform="translate(-134.499 -304.314)"/>
                            <path d="M145.309 320.376c-.05-.37-.117-.772-.206-1.192-.005-.02-.051-.201-.415-.584-.362-.38-.855-.775-1.377-1.193-1.003-.803-2.041-1.633-2.62-2.75-1.315-2.54-.244-4.742-.118-4.985l.998-1.916c-1.021.049-3.067.471-4.29 2.919-.714 1.428-.941 3.01-.676 4.7a8.685 8.685 0 0 0 .638 2.194c.513.838.837 1.903 1.036 2.807h7.03m-.77-9.87l.048-.008.146-.024a11.108 11.108 0 0 1-.132-.185 14.517 14.517 0 0 0-.495-.667l.082.192c.086.203.222.471.35.692m2.913 11.87h-10.873s-.24-2.537-1.086-3.836c0 0-2.234-4.289 0-8.76 1.857-3.716 5.22-4.03 6.3-4.03.219 0 .344.014.344.014l1.903-1.45-.152 2.023s1.39 1.42 2.356 2.81c.967 1.389 2.266 2.386 2.266 2.87 0 .428-.808 1.569-1.496 1.569a.565.565 0 0 1-.256-.06c-.725-.362-.665-1.057-1.178-1.117a.862.862 0 0 0-.1-.006c-.34 0-.863.154-1.332.154-.284 0-.55-.057-.742-.239-.544-.513-1.058-1.722-1.058-1.722s-.755 1.45.12 3.142c.877 1.691 4.17 3.05 4.592 5.029.423 1.978.392 3.61.392 3.61z" class="cls-20" transform="translate(-134.499 -304.314)"/>
                        </g>
                    </g>
                    <g id="Group_3219" data-name="Group 3219" transform="translate(76.718 24.57)">
                        <g id="Path_1875" class="cls-7" data-name="Path 1875">
                            <path d="M323.124 329.374H312.279c.421-1.003 1.181-2.839 1.534-3.857.449-1.293.401-7.028.373-8.888h7.03c-.028 1.86-.075 7.595.373 8.888.353 1.018 1.113 2.854 1.535 3.857z" class="cls-10" transform="translate(-308.261 -292.278)"/>
                            <path d="M322.373 328.874c-.424-1.022-.97-2.37-1.257-3.193-.154-.447-.365-1.499-.407-5.461-.013-1.18-.006-2.314.002-3.091h-6.02c.009.777.015 1.911.003 3.091-.043 3.962-.254 5.014-.408 5.46-.286.825-.832 2.172-1.256 3.194h9.343m1.505 1h-12.353s1.324-3.102 1.816-4.52c.492-1.419.336-9.225.336-9.225h8.048s-.155 7.806.336 9.224c.492 1.419 1.817 4.521 1.817 4.521z" class="cls-20" transform="translate(-308.261 -292.278)"/>
                        </g>
                        <g id="Rectangle_1047" class="cls-8" data-name="Rectangle 1047">
                            <path d="M0 0h18.879v2.273H0z" class="cls-10" transform="translate(0 48.791)"/>
                            <path d="M.5.5h17.879v1.273H.5z" class="cls-11" transform="translate(0 48.791)"/>
                        </g>
                        <g id="Rectangle_1048" class="cls-8" data-name="Rectangle 1048">
                            <path d="M0 0h17.07v2.273H0z" class="cls-10" transform="translate(.905 38.325)"/>
                            <path d="M.5.5h16.07v1.273H.5z" class="cls-11" transform="translate(.905 38.325)"/>
                        </g>
                        <g id="Rectangle_1049" class="cls-8" data-name="Rectangle 1049">
                            <path d="M0 0h12.541v1.67H0z" class="cls-10" transform="translate(3.169 21.452)"/>
                            <path d="M.5.5h11.541v.67H.5z" class="cls-11" transform="translate(3.169 21.452)"/>
                        </g>
                        <g id="Rectangle_1050" class="cls-8" data-name="Rectangle 1050">
                            <path d="M0 0h10.646v1.67H0z" class="cls-10" transform="translate(4.117 19.054)"/>
                            <path d="M.5.5h9.646v.67H.5z" class="cls-11" transform="translate(4.117 19.054)"/>
                        </g>
                        <g id="Rectangle_1051" class="cls-8" data-name="Rectangle 1051">
                            <path d="M0 0h8.229v1.67H0z" class="cls-10" transform="translate(5.325 16.655)"/>
                            <path d="M.5.5h7.229v.67H.5z" class="cls-11" transform="translate(5.325 16.655)"/>
                        </g>
                        <g id="Path_1876" class="cls-7" data-name="Path 1876">
                            <path d="M323.23 358.236h-16.906c-.026-.317.05-.815.62-1.248.299-.227.587-.408.842-.568.773-.486 1.503-.945 1.503-2.188 0-.7-.122-1.3-.248-1.731h11.472a6.245 6.245 0 0 0-.248 1.73c0 1.244.73 1.703 1.503 2.189.255.16.544.341.842.568.571.433.646.93.62 1.248z" class="cls-10" transform="translate(-305.338 -310.673)"/>
                            <path d="M322.629 357.736a1.19 1.19 0 0 0-.321-.35c-.28-.213-.548-.38-.806-.543-.814-.512-1.737-1.092-1.737-2.611 0-.455.047-.87.114-1.231h-10.204c.067.36.114.776.114 1.23 0 1.52-.923 2.1-1.737 2.612-.258.162-.524.33-.805.543a1.19 1.19 0 0 0-.322.35h15.704m.999 1h-17.701s-.506-1.22.715-2.147c1.22-.926 2.147-1.053 2.147-2.357 0-1.305-.463-2.231-.463-2.231h12.902s-.463.926-.463 2.23c0 1.305.927 1.432 2.147 2.358 1.22.926.716 2.147.716 2.147z" class="cls-20" transform="translate(-305.338 -310.673)"/>
                        </g>
                        <g id="Path_1877" class="cls-7" data-name="Path 1877">
                            <path d="M320.94 282.597h-6.121c.039-.848.014-2.483-.61-3.677-.202-.386-.495-.806-.805-1.25-.315-.45-.64-.916-.842-1.315-.247-.488-.18-.629-.179-.63.022-.042.215-.162.796-.162h3.446v-1.138h.938v-3.56h-2.56v-.634h2.56v-2.56h.635v2.56h2.56v.634h-2.56v3.56h.938v1.138h3.445c.58 0 .774.12.796.162 0 .001.068.142-.179.63-.201.398-.526.864-.84 1.315-.311.444-.604.864-.806 1.25-.625 1.194-.65 2.829-.611 3.677z" class="cls-10" transform="translate(-308.44 -267.171)"/>
                            <path d="M317.125 274.925v1.138h-3.946c-.078 0-.146.003-.203.007.189.385.594.964.838 1.314.32.457.621.89.838 1.304.568 1.086.683 2.457.681 3.409h5.094c-.002-.952.114-2.324.682-3.41.216-.413.518-.846.838-1.304.244-.349.649-.928.837-1.313a3.065 3.065 0 0 0-.203-.007h-3.945v-1.138h-1.511m-.062-7.754h1.635v2.56h2.56v1.634h-2.56v2.56h.938v1.138h2.945c2.88 0 .214 2.56-.586 4.088-.8 1.529-.516 3.946-.516 3.946h-7.198s.284-2.417-.515-3.946c-.8-1.529-3.466-4.088-.587-4.088h2.946v-1.138h.938v-2.56h-2.56v-1.634h2.56v-2.56z" class="cls-20" transform="translate(-308.44 -267.171)"/>
                        </g>
                    </g>
                    <g id="Group_3221" data-name="Group 3221">
                        <g id="Group_3220" data-name="Group 3220" transform="translate(54.299 27.266)">
                            <g id="Rectangle_1052" class="cls-6" data-name="Rectangle 1052" transform="rotate(-14.66 112.303 1.733)">
                                <path id="fill-9" d="M0 0h14.395v1.733H0z" class="cls-10"/>
                                <path d="M0 .733h14.395m-1-.733v1.733m1-.733H0m1 .733V0" class="cls-21"/>
                            </g>
                            <g id="Rectangle_1053" class="cls-6" data-name="Rectangle 1053" transform="rotate(-14.67 79.301 3.247)">
                                <path id="fill-10" d="M0 0h13.014v1.734H0z" class="cls-10"/>
                                <path d="M0 .734h13.014m-1-.734v1.734m1-.734H0m1 .734V0" class="cls-22"/>
                            </g>
                            <g id="Rectangle_1054" class="cls-6" data-name="Rectangle 1054" transform="rotate(-14.67 37.05 -1.19)">
                                <path id="fill-11" d="M0 0h8.012v1.375H0z" class="cls-10"/>
                                <path d="M0 .375h8.012m-1-.375v1.375m1-.375H0m1 .375V0" class="cls-23"/>
                            </g>
                            <g id="Path_1878" class="cls-7" data-name="Path 1878">
                                <path d="M254.136 266.174c.123-.897.262-1.993.315-2.676.071-.906-.212-2.234-.45-3.15l2.314-.606 2.314-.606c.241.915.645 2.213 1.151 2.968.381.569 1.04 1.455 1.586 2.177l-3.615.947-3.615.946z" class="cls-10" transform="translate(-250.138 -248.384)"/>
                                <path d="M255.318 264.83l2.18-.57 2.18-.57a32.448 32.448 0 0 1-.729-1.03c-.411-.614-.753-1.495-1.01-2.31l-1.371.36-1.37.358c.174.836.308 1.77.25 2.508a32.11 32.11 0 0 1-.13 1.255m-2.383 2.691s.42-2.83.52-4.1c.099-1.27-.695-3.783-.695-3.783l3.301-.865 3.302-.864s.54 2.58 1.248 3.638c.71 1.058 2.462 3.32 2.462 3.32l-5.069 1.327-5.069 1.327z" class="cls-20" transform="translate(-250.138 -248.384)"/>
                            </g>
                            <g id="Path_1879" class="cls-7" data-name="Path 1879">
                                <path d="M255.26 284.674c.1-.115.202-.223.3-.328.517-.55 1.161-1.236.835-2.484a5.311 5.311 0 0 0-.223-.667l3.494-.915 3.494-.915c.027.217.07.449.132.69.327 1.249 1.224 1.53 1.945 1.757.137.044.278.088.423.14l-5.2 1.361-5.2 1.361z" class="cls-10" transform="translate(-250.725 -258.364)"/>
                                <path d="M262.412 280.595l-2.493.653-2.486.65c.065.308.11.7.006 1.172l2.768-.724 2.777-.728a3.169 3.169 0 0 1-.572-1.023m1.76-2.528s-.164.772.088 1.735c.252.963.96.877 2.04 1.324 1.079.448.94 1.445.94 1.445l-6.527 1.71-6.527 1.708s-.609-.802.112-1.721c.723-.919 1.381-1.19 1.13-2.153-.253-.963-.773-1.556-.773-1.556l4.758-1.246 4.759-1.246z" class="cls-20" transform="translate(-250.725 -258.364)"/>
                            </g>
                            <g id="Path_1880" class="cls-7" data-name="Path 1880">
                                <path d="M250.235 246.268a3.323 3.323 0 0 1-1.558-2.042 3.316 3.316 0 0 1 .348-2.531 3.352 3.352 0 0 1 2.885-1.653 3.338 3.338 0 0 1 2.867 5.037l-4.542 1.189z" class="cls-10" transform="translate(-247.567 -239.042)"/>
                                <path d="M250.422 245.185l3.662-.958a2.337 2.337 0 1 0-3.662.959m-.302 2.146a4.337 4.337 0 0 1 1.789-8.29 4.34 4.34 0 0 1 4.194 3.24 4.333 4.333 0 0 1-.705 3.668l-5.278 1.382z" class="cls-20" transform="translate(-247.567 -239.042)"/>
                            </g>
                        </g>
                        <g id="Path_1881" class="cls-9" data-name="Path 1881">
                            <path d="M138.86 188.47c-.735 0-1.442-.414-1.909-.725-.457-.305-1.097-.911-1.907-1.678-1.056-1-2.37-2.244-3.302-2.798-1.566-.93-3.471-3.22-4.862-4.892-.272-.328-.53-.638-.748-.893-1.39-1.62-3.716-3.947-4.367-4.367-.341-.22-1.102-.52-1.838-.808-.824-.324-1.676-.66-2.358-1.03-1.327-.718-4.656-2.848-5.569-3.493-.419-.296-1.529-.66-2.438-.902-1.44 1.712-6.489 7.729-10.681 12.936-.53.658-1.1 1.355-1.697 2.073-1.635 1.97-3.928 3.055-6.456 3.055h-.001a8.607 8.607 0 0 1-5.168-1.729c-1.587-1.202-2.66-2.89-3.102-4.879l-.942-4.236a7.88 7.88 0 0 1 .001-3.483 9.74 9.74 0 0 1 3.956-5.806c5.68-3.923 15.643-10.761 18.554-12.484 2.2-1.303 4.537-1.936 7.145-1.936.748 0 1.391.05 1.908.09.259.021.482.038.66.045l.137.002c.452 0 1.054-.068 1.75-.147 1.036-.117 2.325-.263 3.808-.263.667 0 1.33.03 1.973.09 1.797.166 3.913.633 6.152 1.128 2.185.483 4.445.983 6.465 1.206 3 .33 4.429.889 5.087 1.275.78-.077 2.67-.236 4.775-.236 1.714 0 3.821.383 5.514.69.98.179 1.907.347 2.335.356.145.004.328.007.538.01 3.14.06 5.225.134 5.917.318.001 0 .042.01.149.01.294 0 .737-.075 1.166-.148.55-.093 1.119-.19 1.647-.19.192 0 .365.013.528.039.79.124 1.323.788 1.325 1.652.003 1.326-1.192 2.891-3.197 3.217-.364.06-.714.107-1.046.146a9.668 9.668 0 0 1 1.655 1.788c.713.479 2.774 1.906 3.472 2.873.353.489 1.233 1.138 2.01 1.71.513.378.998.736 1.382 1.077.696.619.948 1.495.656 2.287-.188.513-.896 1.712-3.389 1.766h-.115c-2.254 0-3.56-1.418-4.34-2.266-.147-.16-.348-.378-.425-.431-.627-.434-1.808-1.432-2.172-1.74l-.026-.013.188.209c1.493 1.664 2.785 3.928 3.556 5.281.232.407.433.758.56.955.136.21.561.637.936 1.014.48.481 1.023 1.027 1.41 1.542.671.894.8 1.666.38 2.295-.537.806-1.816 1.348-3.183 1.348a4.742 4.742 0 0 1-2.789-.877c-1.77-1.271-3.035-3.312-3.643-4.292a56.963 56.963 0 0 0-.106-.171c-.246-.394-.792-.834-1.424-1.343-.438-.354-.935-.755-1.461-1.239l-.193-.178c-1.158-1.067-3.869-3.567-5.288-3.868a5.158 5.158 0 0 1-.023-.005c.461.508.718.885.814 1.21.135.46.227 1.015.333 1.659.128.775.274 1.654.53 2.596.49 1.798.714 4.962.22 6.938-.137.552-.239 1.307-.337 2.038-.265 1.967-.456 3.388-1.519 3.715a1.49 1.49 0 0 1-.438.066c-1.584 0-2.832-2.374-3.32-3.776-.573-1.647-.408-3.552-.306-4.321-.288-.582-.938-1.913-1.28-2.723-.292-.696-.716-1.68-.95-2.222-.55-.234-1.477-.744-2.534-1.801-1.523-1.524-4.486-3.46-5.465-3.574a9.07 9.07 0 0 0-.582-.053l-.06.2c-.168.57-.465 1.01-.704 1.363-.07.104-.161.238-.21.326.133.553.432 1.243.62 1.41.247.22.707.79 1.864 2.242.913 1.147 2.293 2.88 2.682 3.217.914.792 1.737 1.69 2.447 2.668 1.263 1.741 2.066 3.604 2.388 5.536.316 1.895.195 3.05-.393 3.743a1.713 1.713 0 0 1-1.33.606z" class="cls-10" transform="rotate(-22 -298.412 325.49)"/>
                            <path d="M138.86 187.47c.666 0 1.155-.675.737-3.184-.697-4.182-3.7-6.916-4.503-7.613-.805-.697-4.075-5.04-4.557-5.468-.483-.43-.858-1.555-.965-2.091-.107-.536.697-1.126.965-2.037.203-.692.283-.92.918-.92.202 0 .46.023.797.062 1.394.16 4.61 2.412 6.058 3.86 1.448 1.447 2.574 1.715 2.574 1.715s.697 1.609 1.126 2.628c.428 1.018 1.393 2.948 1.393 2.948s-.429 2.305.215 4.155c.6 1.727 1.669 3.104 2.375 3.104.05 0 .098-.007.144-.022.698-.214.751-3.323 1.18-5.039.429-1.715.268-4.664-.214-6.433-.483-1.77-.59-3.324-.858-4.236-.268-.911-4.933-4.717-4.986-5.2-.004-.038.014-.055.052-.055.45 0 3.678 2.443 5.31 2.79 1.768.375 4.61 3.055 5.95 4.288 1.34 1.233 2.52 1.93 3.056 2.788.536.858 1.769 2.949 3.485 4.181.69.497 1.477.69 2.205.69 1.08 0 2.031-.424 2.352-.904.536-.804-2.145-2.841-2.734-3.753-.59-.911-2.145-4.02-4.022-6.111-1.876-2.091-3.967-4.236-3.699-4.45a.132.132 0 0 1 .086-.03c.317 0 1.003.898 2.22 1.531 1.34.697 2.52 1.233 2.52 1.233s1.5 1.287 2.197 1.77c.689.476 1.795 2.52 4.196 2.52l.093-.001c2.467-.053 3.056-1.448 2.091-2.305-.965-.858-2.841-1.984-3.538-2.949-.697-.965-3.378-2.734-3.378-2.734s-.857-1.34-2.198-2.198c-1.34-.858-1.876-1.18-1.876-1.18s.227.014.627.014c.699 0 1.927-.043 3.394-.282 2.305-.375 2.895-2.734 1.876-2.895a2.406 2.406 0 0 0-.372-.026c-.865 0-2.036.339-2.813.339-.153 0-.29-.013-.407-.044-.804-.215-4.932-.267-6.219-.295-1.287-.027-5.147-1.046-7.827-1.046-2.68 0-5.04.268-5.04.268s-.804-.858-4.932-1.313c-4.128-.456-9.114-2.01-12.598-2.332a20.426 20.426 0 0 0-1.882-.086c-2.438 0-4.332.41-5.558.41-.06 0-.117 0-.173-.003-.571-.02-1.445-.134-2.532-.134-1.772 0-4.11.301-6.636 1.796-2.897 1.716-12.935 8.607-18.495 12.447a8.757 8.757 0 0 0-3.55 5.21 6.835 6.835 0 0 0 .001 3.039l.942 4.236c.822 3.697 4.027 5.825 7.294 5.825 2.067 0 4.158-.85 5.688-2.694.573-.69 1.139-1.381 1.687-2.061 4.986-6.193 11.097-13.43 11.097-13.43s2.467.563 3.378 1.206c.911.644 4.181 2.735 5.468 3.431 1.287.697 3.43 1.34 4.262 1.877.831.536 3.297 3.056 4.584 4.557 1.287 1.5 3.646 4.557 5.361 5.575 1.716 1.02 4.29 3.86 5.254 4.504.386.257.91.557 1.354.557m0 2c-1.007 0-1.888-.51-2.463-.893-.503-.335-1.103-.896-2.04-1.784-.967-.915-2.29-2.167-3.126-2.664-1.585-.94-3.256-2.872-5.12-5.113-.27-.325-.525-.631-.739-.88-1.38-1.61-3.616-3.83-4.149-4.179-.257-.166-1.07-.485-1.662-.718-.852-.335-1.733-.681-2.469-1.08-1.402-.76-4.746-2.905-5.669-3.556-.204-.142-.812-.37-1.51-.582-1.83 2.178-6.404 7.645-10.254 12.426-.532.662-1.106 1.363-1.705 2.085a9.4 9.4 0 0 1-3.352 2.58 9.276 9.276 0 0 1-3.874.836 9.614 9.614 0 0 1-5.773-1.932c-1.779-1.347-2.98-3.235-3.474-5.459l-.942-4.236a8.886 8.886 0 0 1 .003-3.928 10.738 10.738 0 0 1 4.361-6.4c5.691-3.93 15.677-10.784 18.613-12.523 2.358-1.396 4.862-2.075 7.655-2.075.787 0 1.452.052 1.986.094.247.02.46.036.617.041.033.002.067.002.102.002.396 0 .971-.065 1.637-.14 1.061-.12 2.382-.27 3.92-.27.698 0 1.393.032 2.066.094 1.86.172 4.005.646 6.276 1.148 2.16.477 4.392.97 6.359 1.188 2.673.295 4.256.77 5.192 1.244a52.78 52.78 0 0 1 4.56-.211c1.804 0 3.96.392 5.693.707.857.156 1.828.332 2.177.34l.535.01c3.73.07 5.313.155 6.062.328.214-.003.623-.073.985-.134.563-.096 1.201-.205 1.814-.205.245 0 .469.017.684.05 1.274.202 2.165 1.287 2.169 2.639.002.92-.402 1.89-1.108 2.662a4.882 4.882 0 0 1-2.1 1.343c.13.157.239.299.327.419.926.628 2.833 1.988 3.576 3.017.261.362 1.183 1.04 1.793 1.49.532.392 1.034.763 1.453 1.135 1.01.897 1.366 2.192.93 3.379-.204.556-.676 1.33-1.764 1.866-.705.347-1.56.533-2.542.554a5.83 5.83 0 0 1-2.505-.487l.018.033c.222.39.415.727.527.902.11.154.53.576.808.856.503.505 1.073 1.077 1.501 1.648.316.42.533.81.664 1.192.275.801.186 1.603-.25 2.257-.727 1.09-2.303 1.794-4.016 1.794a5.736 5.736 0 0 1-3.373-1.065c-1.931-1.387-3.267-3.542-3.909-4.577l-.104-.168c-.157-.251-.689-.68-1.203-1.095-.45-.363-.962-.775-1.511-1.281l-.194-.179c-.678-.625-1.598-1.474-2.553-2.226l.054.324c.124.751.265 1.603.508 2.495.535 1.963.766 5.283.225 7.445-.124.497-.222 1.225-.316 1.928-.098.731-.2 1.487-.348 2.114-.117.493-.471 1.994-1.867 2.424-.237.073-.483.11-.733.11-1.007 0-1.953-.568-2.813-1.686-.578-.752-1.093-1.733-1.451-2.761-.578-1.66-.498-3.49-.391-4.477-.328-.668-.867-1.784-1.172-2.508-.236-.561-.56-1.313-.797-1.865-.644-.324-1.518-.884-2.473-1.839-.611-.611-1.655-1.438-2.66-2.106-1.02-.68-1.687-.996-2.018-1.12-.177.38-.382.695-.545.938.081.23.178.45.251.559.307.29.756.846 1.924 2.313.767.963 2.194 2.755 2.558 3.087 1.617 1.402 4.432 4.406 5.164 8.793.368 2.211.178 3.615-.617 4.553-.524.62-1.268.96-2.093.96z" class="cls-20" transform="rotate(-22 -298.412 325.49)"/>
                        </g>
                    </g>
                </g>
            </g>
        </g>
    </g>
</svg>
