<svg xmlns="http://www.w3.org/2000/svg" width="24.029" height="24" viewBox="0 0 24.029 24">
    <defs>
        <style>
            .cls-1{fill:none}.cls-2{clip-path:url(#clip-path)}.cls-3{fill:#999}
        </style>
        <clipPath id="clip-path">
            <path d="M0 0h24.03v24H0z" class="cls-1"/>
        </clipPath>
    </defs>
    <g id="Component" class="cls-2">
        <g id="Group_1079" data-name="Group 1079" transform="translate(0 6)">
            <path id="Path_442" d="M2.172 17.633a2.187 2.187 0 1 1 2.187-2.187 2.189 2.189 0 0 1-2.187 2.187zm0-3.181a.994.994 0 1 0 .994.994 1 1 0 0 0-.994-.994z" class="cls-3" data-name="Path 442" transform="translate(.015 -6.367)"/>
            <path id="Path_443" d="M9.576 10.741a2.187 2.187 0 1 1 2.188-2.187 2.189 2.189 0 0 1-2.188 2.187zm0-3.181a.994.994 0 1 0 .995.994 1 1 0 0 0-.995-.994z" class="cls-3" data-name="Path 443" transform="translate(.015 -6.367)"/>
            <path id="Path_444" d="M14.789 17.633a2.187 2.187 0 1 1 2.188-2.187 2.189 2.189 0 0 1-2.188 2.187zm0-3.181a.994.994 0 1 0 1 .994 1 1 0 0 0-1-.994z" class="cls-3" data-name="Path 444" transform="translate(.015 -6.367)"/>
            <path id="Path_445" d="M21.828 11.486A2.187 2.187 0 1 1 24.015 9.3a2.189 2.189 0 0 1-2.187 2.186zm0-3.181a.994.994 0 1 0 .994.994.994.994 0 0 0-.994-.994z" class="cls-3" data-name="Path 445" transform="translate(.015 -6.367)"/>
            <path id="Path_446" d="M3.874 14.57a.6.6 0 0 1-.417-1.022L7.8 9.3a.6.6 0 0 1 .834.853L4.291 14.4a.591.591 0 0 1-.417.17z" class="cls-3" data-name="Path 446" transform="translate(.015 -6.367)"/>
            <path id="Path_447" d="M14.125 14.452a.591.591 0 0 1-.464-.223l-3.188-3.959a.6.6 0 1 1 .929-.748l3.188 3.96a.6.6 0 0 1-.465.97z" class="cls-3" data-name="Path 447" transform="translate(.015 -6.367)"/>
            <path id="Path_448" d="M16.29 15.065a.6.6 0 0 1-.4-1.035l4.31-3.977a.6.6 0 1 1 .808.878l-4.315 3.976a.592.592 0 0 1-.403.158z" class="cls-3" data-name="Path 448" transform="translate(.015 -6.367)"/>
        </g>
        <path id="Rectangle_936" d="M0 0h24v24H0z" class="cls-1" data-name="Rectangle 936"/>
    </g>
</svg>
