<svg xmlns="http://www.w3.org/2000/svg" width="169.421" height="148.613" viewBox="0 0 169.421 148.613">
    <defs>
        <style>
            .cls-1,.cls-3,.cls-4{fill:none}.cls-1,.cls-5{stroke:#bf263f}.cls-1,.cls-3,.cls-4,.cls-5{stroke-miterlimit:10}.cls-1{stroke-width:1.426px;stroke-dasharray:2.341 4.681;opacity:.512}.cls-2{fill:#ed4d67;opacity:.1}.cls-3,.cls-4{stroke:#f7657d;stroke-width:1.17px}.cls-3{opacity:.18}.cls-4{opacity:.14}.cls-5{fill:#fcfcfc}
        </style>
    </defs>
    <g id="_03" data-name="3" transform="translate(1.269 1.092)">
        <g id="Group_2358" data-name="Group 2358">
            <g id="Group_2354" data-name="Group 2354">
                <g id="Group_2352" data-name="Group 2352" transform="translate(3.139 3.712)">
                    <path id="Path_826" d="M944.839 91.923c10.872 33.834 16.159 56.833 6.283 89.336-10.608 34.909 61.972 26.781 89.337 6.284 26.018-19.489 70.688-44.273-6.283-89.337-31.953-18.706-100.662-41.52-89.337-6.283z" class="cls-1" data-name="Path 826" transform="translate(-929.79 -62.088)"/>
                    <path id="Path_777" d="M1075.8 83.622c-15.262 34.576-23.409 58.314-16.577 93.791 7.339 38.1-68.523 21.435-95.187-3.286-25.354-23.5-69.843-54.685 16.576-93.79 35.873-16.237 111.079-32.724 95.188 3.285z" class="cls-2" data-name="Path 777" transform="translate(-929.79 -62.088)"/>
                </g>
                <g id="Group_2356" data-name="Group 2356">
                    <circle id="Ellipse_80" cx="3.297" cy="3.297" r="3.297" class="cls-3" data-name="Ellipse 80" transform="translate(143.291 29.573)"/>
                    <path id="Path_823" d="M1077.67 123.588l5.172-2.714.7-5.8 4.179 4.08 5.735-1.129-2.589 5.235 2.845 5.1-5.779-.845-3.972 4.283-.983-5.757z" class="cls-4" data-name="Path 823" transform="translate(-926.651 -58.376)"/>
                    <path id="Path_828" d="M928.949 58.376l3.389 1.9 3.5-1.713-.762 3.812 2.707 2.788-3.859.454-1.824 3.44-1.624-3.531-3.829-.663 2.857-2.635z" class="cls-4" data-name="Path 828" transform="translate(-926.651 -58.376)"/>
                    <circle id="Ellipse_81" cx="5.638" cy="5.638" r="5.638" class="cls-3" data-name="Ellipse 81" transform="translate(4.017 117.349)"/>
                </g>
            </g>
        </g>
        <g id="Group_3686" data-name="Group 3686" transform="translate(30.001 29.808)">
            <g id="Group_3670" data-name="Group 3670" transform="translate(8.432 1.574)">
                <path id="Path_2534" d="M1261.25 357.485l-30.662-18.756-.058-.034-2.712-1.66.584-.953 4.492-7.344.583-.954 2.769 1.7 30.661 18.756a5.275 5.275 0 0 1 1.748 7.253l-.153.25a5.273 5.273 0 0 1-7.252 1.742z" class="cls-5" data-name="Path 2534" transform="translate(-1192.919 -327.496)"/>
                <path id="Path_2535" d="M1204.165 366.989a7.112 7.112 0 0 1 1.533-9.941 7.114 7.114 0 0 1 9.941 1.533l20.9 22.662a9.247 9.247 0 0 1-1.991 12.925 9.248 9.248 0 0 1-12.924-1.993z" class="cls-5" data-name="Path 2535" transform="translate(-1192.919 -327.496)"/>
                <path id="Path_2536" d="M1202.466 366.989a7.112 7.112 0 0 1 1.532-9.941 7.112 7.112 0 0 1 9.94 1.533l20.907 22.662a9.248 9.248 0 0 1-1.992 12.925 9.248 9.248 0 0 1-12.924-1.993z" class="cls-5" data-name="Path 2536" transform="translate(-1192.919 -327.496)"/>
                <path id="Path_2537" d="M1235.814 337.868l-28.614 28.618-.055.053-2.531 2.532-.889-.89-6.855-6.855-.89-.889 2.586-2.583 28.618-28.619a5.94 5.94 0 0 1 8.4 0l.234.234a5.936 5.936 0 0 1-.004 8.399z" class="cls-5" data-name="Path 2537" transform="translate(-1192.919 -327.496)"/>
                <path id="Path_2538" d="M1232.754 337.868l-28.616 28.618-.055.053-2.53 2.532-.89-.89-6.855-6.855-.889-.889 2.586-2.583 28.618-28.619a5.938 5.938 0 0 1 8.4 0l.234.234a5.937 5.937 0 0 1-.003 8.399z" class="cls-5" data-name="Path 2538" transform="translate(-1192.919 -327.496)"/>
                <path id="Path_2539" d="M1214.088 348.861a2.236 2.236 0 0 1-3.162-.015 2.238 2.238 0 0 1 .017-3.163l7.292-7.212a2.234 2.234 0 0 1 3.161.017 2.234 2.234 0 0 1-.015 3.161z" class="cls-5" data-name="Path 2539" transform="translate(-1192.919 -327.496)"/>
                <path id="Path_2540" d="M1258.189 357.485l-30.662-18.756-.057-.034-2.712-1.66.583-.953 4.492-7.344.583-.954 2.77 1.7 30.661 18.756a5.275 5.275 0 0 1 1.747 7.253l-.152.25a5.275 5.275 0 0 1-7.253 1.742z" class="cls-5" data-name="Path 2540" transform="translate(-1192.919 -327.496)"/>
            </g>
            <g id="Group_3678" data-name="Group 3678" transform="translate(73.714 21.991)">
                <g id="Group_3675" data-name="Group 3675" transform="translate(9.779 7.931)">
                    <g id="Group_3671" data-name="Group 3671">
                        <path id="Rectangle_1173" d="M0 0h4.702v4.182H0z" class="cls-5" data-name="Rectangle 1173" transform="rotate(-49.001 3.894 1.774)"/>
                        <path id="Rectangle_1174" d="M0 0h4.487v4.182H0z" class="cls-5" data-name="Rectangle 1174" transform="rotate(-48.999 4.107 1.347)"/>
                        <path id="Rectangle_1175" d="M0 0h3.777v4.182H0z" class="cls-5" data-name="Rectangle 1175" transform="rotate(-49 3.817 1.736)"/>
                        <path id="Path_2541" d="M1278.231 358.343c-4.662-2.927-7.14.935-7.14.935s-.245 3.6 1.533 5.173z" class="cls-5" data-name="Path 2541" transform="translate(-1267.98 -355.843)"/>
                        <path id="Path_2542" d="M1276.72 359.132a4 4 0 1 0-5.09 6.158z" class="cls-5" data-name="Path 2542" transform="translate(-1267.98 -355.843)"/>
                        <path id="Path_2543" d="M1281.74 359.6l-5.74 6.946-2.994.543 3.857-8.5 2.993-.544z" class="cls-5" data-name="Path 2543" transform="translate(-1267.98 -355.843)"/>
                        <path id="Rectangle_1176" d="M0 0h9.008v2.441H0z" class="cls-5" data-name="Rectangle 1176" transform="rotate(-50.428 11.865 1.505)"/>
                    </g>
                    <g id="Group_3674" data-name="Group 3674" transform="translate(6.22 4.318)">
                        <g id="Group_3672" data-name="Group 3672" transform="translate(.305)">
                            <path id="Path_2544" d="M1279.766 370.975l-.3.371a5.022 5.022 0 0 1-2.619-.835 5.079 5.079 0 0 1-2.338-3.952l1.407-1.695.411.255a4.423 4.423 0 0 0 2.171 5.274 5.127 5.127 0 0 0 1.268.582z" class="cls-5" data-name="Path 2544" transform="translate(-1274.505 -360.161)"/>
                            <path id="Path_2545" d="M1285.364 364.2l-.305.371a5.181 5.181 0 0 0-.783-1.178 5.094 5.094 0 0 0-6.1-.992l-.123-.13 1.72-2.075a5.085 5.085 0 0 1 5.589 4z" class="cls-5" data-name="Path 2545" transform="translate(-1274.505 -360.161)"/>
                        </g>
                        <g id="Group_3673" data-name="Group 3673" transform="translate(0 .372)">
                            <path id="Path_2546" d="M1279.462 371.346l-.276.334a5.087 5.087 0 0 1-4.986-4.749l1.712-2.067.155.1a5.092 5.092 0 0 0 2.122 5.8 5.039 5.039 0 0 0 1.273.582z" class="cls-5" data-name="Path 2546" transform="translate(-1274.2 -360.533)"/>
                            <path id="Path_2547" d="M1285.059 364.573l-.276.333a5.082 5.082 0 0 0-6.908-2.129l-.124-.132 1.72-2.075a5.085 5.085 0 0 1 5.588 4z" class="cls-5" data-name="Path 2547" transform="translate(-1274.2 -360.533)"/>
                        </g>
                    </g>
                </g>
                <g id="Group_3677" data-name="Group 3677">
                    <path id="Path_2548" d="M1258.7 354.491a6.579 6.579 0 1 1 6.579 6.58 6.58 6.58 0 0 1-6.579-6.58z" class="cls-5" data-name="Path 2548" transform="translate(-1258.201 -347.912)"/>
                    <circle id="Ellipse_209" cx="6.579" cy="6.579" r="6.579" class="cls-5" data-name="Ellipse 209" transform="translate(.964)"/>
                    <path id="Path_2549" d="M1258.2 354.491a6.58 6.58 0 1 1 6.58 6.58 6.58 6.58 0 0 1-6.58-6.58z" class="cls-5" data-name="Path 2549" transform="translate(-1258.201 -347.912)"/>
                    <g id="Group_3676" data-name="Group 3676" transform="translate(2.478 2.477)">
                        <path id="Path_2550" d="M1268.848 353.963a4.1 4.1 0 1 1-4.6-3.539 4.1 4.1 0 0 1 4.6 3.539z" class="cls-5" data-name="Path 2550" transform="translate(-1260.679 -350.389)"/>
                        <path id="Path_2551" d="M1264.376 351.381a3.136 3.136 0 1 0 3.515 2.706 3.141 3.141 0 0 0-3.515-2.706z" class="cls-5" data-name="Path 2551" transform="translate(-1260.679 -350.389)"/>
                    </g>
                </g>
            </g>
            <path id="Rectangle_1177" d="M0 0h89.077v9.302H0z" class="cls-5" data-name="Rectangle 1177" transform="translate(18.388 76.661)"/>
            <path id="Rectangle_1178" d="M0 0h28.806v3.533H0z" class="cls-5" data-name="Rectangle 1178" transform="translate(21.398 73.128)"/>
            <path id="Rectangle_1179" d="M0 0h89.076v9.302H0z" class="cls-5" data-name="Rectangle 1179" transform="translate(0 76.661)"/>
            <path id="Rectangle_1180" d="M0 0h80.811v3.942H0z" class="cls-5" data-name="Rectangle 1180" transform="translate(4.132 80.839)"/>
            <path id="Rectangle_1181" d="M0 0h30.356v3.533H0z" class="cls-5" data-name="Rectangle 1181" transform="translate(8.236 73.128)"/>
            <g id="Group_3679" data-name="Group 3679" transform="translate(70.852 65.696)">
                <path id="Rectangle_1182" d="M0 0h19.694v6.567H0z" class="cls-5" data-name="Rectangle 1182" transform="translate(11.193 2.201)"/>
                <path id="Rectangle_1183" d="M0 0h19.694v6.567H0z" class="cls-5" data-name="Rectangle 1183" transform="translate(12.527 2.201)"/>
                <path id="Rectangle_1184" d="M0 0h26.871v2.196H0z" class="cls-5" data-name="Rectangle 1184" transform="translate(7.609 8.768)"/>
                <path id="Rectangle_1185" d="M0 0h26.871v2.196H0z" class="cls-5" data-name="Rectangle 1185" transform="translate(0 8.768)"/>
                <path id="Rectangle_1186" d="M0 0h26.871v2.197H0z" class="cls-5" data-name="Rectangle 1186" transform="translate(7.609)"/>
                <path id="Rectangle_1187" d="M0 0h26.871v2.197H0z" class="cls-5" data-name="Rectangle 1187"/>
                <path id="Rectangle_1188" d="M0 0h19.694v6.567H0z" class="cls-5" data-name="Rectangle 1188" transform="translate(2.681 2.201)"/>
            </g>
            <g id="Group_3680" data-name="Group 3680" transform="translate(9.249 49.893)">
                <path id="Path_2552" d="M1228.05 377.3a13.785 13.785 0 0 0-6-1.48h-8.269v2.58a13.757 13.757 0 0 0-4.293 5.016l-7.879 15.631h30.959l1.607-3.186a13.824 13.824 0 0 0-6.125-18.561z" class="cls-5" data-name="Path 2552" transform="translate(-1193.736 -375.814)"/>
                <path id="Path_2553" d="M1224.7 399.049l1.6-3.186a13.823 13.823 0 1 0-24.686-12.445l-7.879 15.631z" class="cls-5" data-name="Path 2553" transform="translate(-1193.736 -375.814)"/>
            </g>
            <g id="Group_3681" data-name="Group 3681" transform="translate(4.481 29.751)">
                <path id="Path_2554" d="M1192.044 366.989a7.114 7.114 0 0 1 1.533-9.941 7.115 7.115 0 0 1 9.942 1.533l20.9 22.662a9.246 9.246 0 0 1-1.992 12.925 9.248 9.248 0 0 1-12.924-1.993z" class="cls-5" data-name="Path 2554" transform="translate(-1188.968 -355.673)"/>
                <path id="Path_2555" d="M1190.345 366.989a7.111 7.111 0 0 1 1.533-9.941 7.114 7.114 0 0 1 9.941 1.533l20.906 22.662a9.248 9.248 0 0 1-1.993 12.925 9.247 9.247 0 0 1-12.923-1.993z" class="cls-5" data-name="Path 2555" transform="translate(-1188.968 -355.673)"/>
            </g>
            <g id="Group_3683" data-name="Group 3683" transform="translate(37.593)">
                <path id="Path_2556" d="M1224.4 337.495a6.694 6.694 0 1 1 9.467 0 6.693 6.693 0 0 1-9.467 0z" class="cls-5" data-name="Path 2556" transform="translate(-1222.08 -325.921)"/>
                <path id="Path_2557" d="M1224.543 337.349a6.694 6.694 0 1 1 9.466 0 6.694 6.694 0 0 1-9.466 0z" class="cls-5" data-name="Path 2557" transform="translate(-1222.08 -325.921)"/>
                <path id="Path_2558" d="M1224.04 337.851a6.694 6.694 0 1 1 9.467 0 6.693 6.693 0 0 1-9.467 0z" class="cls-5" data-name="Path 2558" transform="translate(-1222.08 -325.921)"/>
                <g id="Group_3682" data-name="Group 3682" transform="translate(2.347 2.85)">
                    <path id="Path_2559" d="M1233.083 332.558a4.346 4.346 0 1 1-4.87-3.75 4.344 4.344 0 0 1 4.87 3.75z" class="cls-5" data-name="Path 2559" transform="translate(-1224.426 -328.771)"/>
                    <path id="Path_2560" d="M1228.345 329.822a3.323 3.323 0 1 0 3.724 2.868 3.326 3.326 0 0 0-3.724-2.868z" class="cls-5" data-name="Path 2560" transform="translate(-1224.426 -328.771)"/>
                </g>
            </g>
            <g id="Group_3684" data-name="Group 3684" transform="translate(23.954 54.01)">
                <path id="Path_2561" d="M1222.266 385.978a6.941 6.941 0 1 1-7.778-5.988 6.941 6.941 0 0 1 7.778 5.988z" class="cls-5" data-name="Path 2561" transform="translate(-1208.441 -379.931)"/>
                <path id="Path_2562" d="M1214.7 381.61a5.307 5.307 0 1 0 5.948 4.579 5.315 5.315 0 0 0-5.948-4.579z" class="cls-5" data-name="Path 2562" transform="translate(-1208.441 -379.931)"/>
            </g>
            <g id="Group_3685" data-name="Group 3685" transform="translate(6.331 31.721)">
                <path id="Path_2563" d="M1201.754 362.425a5.491 5.491 0 1 1-6.152-4.736 5.49 5.49 0 0 1 6.152 4.736z" class="cls-5" data-name="Path 2563" transform="translate(-1190.818 -357.642)"/>
                <path id="Path_2564" d="M1195.768 358.969a4.2 4.2 0 1 0 4.705 3.623 4.2 4.2 0 0 0-4.705-3.623z" class="cls-5" data-name="Path 2564" transform="translate(-1190.818 -357.642)"/>
            </g>
        </g>
    </g>
</svg>
