<svg xmlns="http://www.w3.org/2000/svg" width="24" height="24" viewBox="0 0 24 24">
    <defs>
        <style>
            .cls-1{fill:none}.cls-2{clip-path:url(#clip-path)}.cls-3{fill:#999}
        </style>
        <clipPath id="clip-path">
            <path d="M0 0h24v24H0z" class="cls-1"/>
        </clipPath>
    </defs>
    <g id="Component" class="cls-2">
        <path id="Rectangle_936" d="M0 0h24v24H0z" class="cls-1" data-name="Rectangle 936"/>
        <path id="Path_683" d="M10.859-4.845a4.6 4.6 0 0 0 1.405-3.375 4.593 4.593 0 0 0-1.4-3.369 4.593 4.593 0 0 0-3.369-1.4 4.593 4.593 0 0 0-3.369 1.4 4.593 4.593 0 0 0-1.4 3.369 4.593 4.593 0 0 0 1.4 3.369 4.593 4.593 0 0 0 3.369 1.4 4.584 4.584 0 0 0 3.364-1.394zM17.714.637a1.31 1.31 0 0 1-.4.958 1.31 1.31 0 0 1-.958.4 1.265 1.265 0 0 1-.958-.4l-3.656-3.64a7.29 7.29 0 0 1-4.247 1.32 7.364 7.364 0 0 1-2.912-.591 7.493 7.493 0 0 1-2.4-1.6 7.493 7.493 0 0 1-1.6-2.4A7.364 7.364 0 0 1 0-8.22a7.364 7.364 0 0 1 .591-2.912 7.493 7.493 0 0 1 1.6-2.4 7.493 7.493 0 0 1 2.4-1.6 7.364 7.364 0 0 1 2.912-.591 7.364 7.364 0 0 1 2.912.591 7.493 7.493 0 0 1 2.4 1.6 7.493 7.493 0 0 1 1.6 2.4 7.364 7.364 0 0 1 .591 2.912 7.29 7.29 0 0 1-1.32 4.248L17.32-.321a1.3 1.3 0 0 1 .394.958z" class="cls-3" data-name="Path 683" transform="translate(3 18.714)"/>
    </g>
</svg>
