<svg xmlns="http://www.w3.org/2000/svg" width="352.99" height="309.924" viewBox="0 0 352.99 309.924">
    <defs>
        <style>
            .cls-1,.cls-3,.cls-4{fill:none;stroke-miterlimit:10}.cls-1,.cls-5{stroke:#bf263f}.cls-1{stroke-width:1.426px;stroke-dasharray:2.341 4.681;opacity:.512}.cls-2{fill:#ed4d67;opacity:.1}.cls-3,.cls-4{stroke:#f7657d;stroke-width:1.17px}.cls-3{opacity:.18}.cls-4{opacity:.14}.cls-5,.cls-6{fill:#fff;stroke-linecap:round;stroke-linejoin:round}.cls-5{stroke-width:.522px}.cls-7,.cls-8{stroke:none}.cls-8{fill:#bf263f}
        </style>
    </defs>
    <g id="_06" data-name="6" transform="translate(-53.834 -296.91)">
        <g id="Group_2358" data-name="Group 2358" transform="translate(55.103 298.002)">
            <g id="Group_2354" data-name="Group 2354">
                <g id="Group_2352" data-name="Group 2352" transform="translate(6.59 7.79)">
                    <path id="Path_826" d="M74.661 351.8c22.82 71.013 33.914 119.28 13.187 187.5-22.264 73.267 130.066 56.206 187.5 13.189 54.6-40.905 148.359-92.922-13.187-187.5-67.061-39.26-211.267-87.14-187.5-13.189z" class="cls-1" data-name="Path 826" transform="translate(-43.078 -289.186)"/>
                    <path id="Path_777" d="M364.689 346.91c-32.029 72.568-49.13 122.39-34.789 196.845 15.4 79.966-143.813 44.987-199.777-6.9C76.91 487.541-16.463 422.086 164.91 340.013c75.29-34.07 233.127-68.678 199.779 6.897z" class="cls-2" data-name="Path 777" transform="translate(-58.243 -301.714)"/>
                </g>
                <g id="Group_2356" data-name="Group 2356">
                    <circle id="Ellipse_80" cx="6.92" cy="6.92" r="6.92" class="cls-3" data-name="Ellipse 80" transform="translate(300.739 62.066)"/>
                    <path id="Path_823" d="M206.122 372.567l10.855-5.7 1.473-12.167 8.773 8.563 12.034-2.372-5.432 10.987 5.971 10.706-12.131-1.773-8.335 8.989-2.063-12.083z" class="cls-4" data-name="Path 823" transform="translate(110.835 -235.703)"/>
                    <path id="Path_828" d="M59.928 298l7.113 3.992 7.335-3.593-1.6 8 5.684 5.854-8.1.951-3.811 7.216-3.406-7.411-8.043-1.394 6-5.53z" class="cls-4" data-name="Path 828" transform="translate(-55.103 -298.002)"/>
                    <circle id="Ellipse_81" cx="11.832" cy="11.832" r="11.832" class="cls-3" data-name="Ellipse 81" transform="translate(8.433 246.29)"/>
                </g>
            </g>
        </g>
        <g id="Group_3607" data-name="Group 3607" transform="translate(113.829 348.004)">
            <path id="Path_2416" d="M277.121 425.9a5.883 5.883 0 0 0-1.454-3.291 29.611 29.611 0 0 1-.136-3.476 7.233 7.233 0 0 0-3.912-6.855c-.036-.625-.036-1.238-.1-1.872a6.112 6.112 0 0 0-4.038-5.551q-.771-1.8-1.669-3.57a7.239 7.239 0 0 0-3.4-3.394c-.019-.029-.036-.061-.057-.09a11.755 11.755 0 0 1-.2-.386 5.737 5.737 0 0 0 1.74-4.2 114.8 114.8 0 0 0-2.124-18.551 6.96 6.96 0 0 0-4.065-5.182 9.253 9.253 0 0 0-1.566-2.384 5.145 5.145 0 0 0-.2-.535 7.261 7.261 0 0 0-4.145-3.82c-.544-.141-1.119-.262-1.687-.392a7.226 7.226 0 0 0-4.592-2.2c-1.841-.082-4.137.3-5.461 1.711a8.989 8.989 0 0 0-2.363 3.278 8.731 8.731 0 0 0-.407 4.183 8.17 8.17 0 0 0 3.306 5.3 10.882 10.882 0 0 0 3.711 1.564q.815 3.123 1.366 6.292a13.593 13.593 0 0 0-13.355 9.533 13.32 13.32 0 0 0-3.66-.848 13.685 13.685 0 0 0-2.151-.011 9.053 9.053 0 0 0-1.778-1.673 8.4 8.4 0 0 0-5.669-2.93l-4.189-.376a8.182 8.182 0 0 0-2 .1 29.877 29.877 0 0 0-10.836 1.589 6.754 6.754 0 0 0-1.994 1.091 13.411 13.411 0 0 0-6.468-8.007c.2-.3.426-.567.6-.877.216-.374.416-.756.619-1.133l.607-1.144c.006 0 .046-.073.16-.279.235-.376.485-.735.728-1.1a11.845 11.845 0 0 0 6.322-2.588 11.013 11.013 0 0 0 3.356-4.934 10.718 10.718 0 0 0 .514-2.938l-.094-2.172a18.722 18.722 0 0 0-.2-2.506 11.934 11.934 0 0 0-.844-3.148 12.07 12.07 0 0 0-2.084-3.476 19.818 19.818 0 0 0-7-4.827c-3.7-1.713-8.628.329-10.624 3.809a7.17 7.17 0 0 0-3.121 1.719c-6.523 6.223-14.549 12.555-18.387 20.885a163.452 163.452 0 0 0-43.613 31.364 17.94 17.94 0 0 0-5.071 9.785 79.224 79.224 0 0 0-10.662 12.083 6.772 6.772 0 0 0-2.479 2.632c-3.022 5.471-6.156 10.872-9.34 16.245a6.425 6.425 0 0 0-2.607 2.577l-5.547 9.72a7.575 7.575 0 0 0-.85 5.583 16.666 16.666 0 0 0-.739 3.417c-2.227 20.195 25.11 36.29 41.558 23.865 14.7-11.107 22.81-32.363 30.281-48.551a15.674 15.674 0 0 0 .938-2.712 10.676 10.676 0 0 0 2.964-1.219c1.295-.8 2.569-1.618 3.843-2.439a17.531 17.531 0 0 0 1.91-.583 34.671 34.671 0 0 0 13.917-10.391 67.436 67.436 0 0 0 14.843-13.481 7.888 7.888 0 0 0 3.765-1.213l1.3-.057a8.728 8.728 0 0 0 4.034-1.891c.5-.321 1-.64 1.494-.961a7.241 7.241 0 0 0 2.481-3.438c.279-.006.55.027.833 0a8.955 8.955 0 0 0 8.15.718 12.333 12.333 0 0 0 2.355 4.487 10.09 10.09 0 0 0 1.442 1.734 21.419 21.419 0 0 0 3.862 3.27 17.55 17.55 0 0 0 3.992 1.782 13.688 13.688 0 0 0 5.747 1.763 13.486 13.486 0 0 0 6.861-1.064 179.064 179.064 0 0 1 2.8 5.908 13.547 13.547 0 0 0 3.014 4.235 8.339 8.339 0 0 0-.955 1.121 49.233 49.233 0 0 0-8.779 25.043c-.034.082-.082.145-.113.231-3.482 9.241-1.616 19.552 8.093 23.748 4.126 1.782 9.342 2.523 13.617.978a11.43 11.43 0 0 0 7.17-7.144 14.369 14.369 0 0 0 2.271-4.183c2.642-7.52 4.057-15.749 6.047-23.471a7.9 7.9 0 0 0 .113-3.513 23.9 23.9 0 0 0 4.061-16.316zm-148.779 22.027c-2.019 4.116-5.627 7.4-7.148 11.715a4.645 4.645 0 0 1-1.461 2.113 4.515 4.515 0 0 1-.806 3.7c-.667.816-1.385 1.6-2.027 2.43a7.575 7.575 0 0 0-.751 1.068c-.08.285-.216.741-.243.848-.716 2.632-3.958 3.61-6.28 2.858-2.663-.865-3.522-3.826-2.856-6.28.711-2.613 2.548-4.544 4.21-6.578a5.829 5.829 0 0 1 .907-.875 4.771 4.771 0 0 1 .172-2.707c1.587-4.5 5.1-7.549 7.151-11.718 1.163-2.372 3.6-3.855 6.277-2.856 2.293.861 4.013 3.919 2.855 6.282zm33.589-32.567a4.474 4.474 0 0 1-3.589 1.152c-.078-.006-.141-.029-.214-.04s-.164.006-.252 0a4.5 4.5 0 0 1-3.331-1.773c-5.5-1.18-4.481-10.1 1.513-9.587a4.973 4.973 0 0 1 1.755-.157 4.575 4.575 0 0 1 2.571 1.028c.052 0 .1-.008.151 0 5.395.481 5.472 7.732 1.396 9.378zm99.363 30.909a53.86 53.86 0 0 1-1.853 7.7 2.471 2.471 0 0 1-1.337 1.5 2.507 2.507 0 0 1-.636 2.651 6.217 6.217 0 0 0-1.31 2.135 2.351 2.351 0 0 1-.453.747 2.125 2.125 0 0 1-2.334 1.66 2.2 2.2 0 0 1-2.013-2.613 2.451 2.451 0 0 1 1.068-2.684 2 2 0 0 1 .078-1.5 28.2 28.2 0 0 1 1.423-2.724 3.451 3.451 0 0 1 .12-1.192 39.834 39.834 0 0 0 1.6-6.754 2.62 2.62 0 0 1 1.765-2.283 2.67 2.67 0 0 1 1.515-.313 2.756 2.756 0 0 1 2.367 3.67z" class="cls-5" data-name="Path 2416" transform="translate(-83.084 -291.736)"/>
            <g id="Group_3606" data-name="Group 3606" transform="translate(.011)">
                <g id="Group_3605" data-name="Group 3605">
                    <g id="Group_3604" data-name="Group 3604" transform="translate(0 54.433)">
                        <g id="Path_2417" class="cls-6" data-name="Path 2417">
                            <path d="M158.964 355.928a7.618 7.618 0 0 1 4.4-.651.671.671 0 0 0-.5-.972 5.814 5.814 0 0 0-4.712 2.107 7.318 7.318 0 0 1 .812-.484z" class="cls-7" transform="translate(.618 -341.804)"/>
                            <path d="M158.154 356.413a5.816 5.816 0 0 1 4.712-2.107c.49.02.682.619.5.971a8.387 8.387 0 0 0-1.145-.079c-1.135 0-2.261.235-3.257.73-.29.145-.554.313-.81.485z" class="cls-8" transform="translate(.618 -341.804)"/>
                        </g>
                        <g id="Group_3603" data-name="Group 3603" transform="translate(.661 .306)">
                            <g id="Path_2418" class="cls-6" data-name="Path 2418">
                                <path d="M141.75 394.814c-1.033-2.49.067-5.74 3.284-9.683 1.898-2.327 4.25-4.539 6.435-6.386-1.861 1.756-3.995 3.873-5.748 6.115-1.263 1.617-2.196 3.138-2.773 4.523-.661 1.588-.883 3.06-.66 4.38-.163.353-.341.702-.538 1.051zm12.412-17.874l-.24-.181c.183-.143.363-.282.539-.416l.24.26.497-.286c.447-.26.922-.51 1.382-.753.72-.38 1.465-.772 2.17-1.232-1.62 1.326-3.154 2.199-4.588 2.608zm-31.036-3.543c-.054-.058-.1-.143-.097-.191l.002-.001c.642-.705 1.27-1.389 1.887-2.052a88.148 88.148 0 0 0-1.792 2.244zm39.833-3.611l-.033-.027c-.077-.061-.144-.163-.118-.211.917-1.704 1.386-3.396 1.405-5.06.055 1.672-.338 3.39-1.177 5.137l-.077.16z" class="cls-7" transform="translate(-39.423 -348.492)"/>
                                <path d="M148.385 348.492c.158 0 .297.109.388.25 8.328 3.353 20.043 10.502 14.908 21.193.065.149.067.327-.049.466-2.331 2.779-5.738 6.252-9.348 7.247a.54.54 0 0 1-.491-.09c-4.143 3.838-11.908 10.89-10.76 16.293a15.87 15.87 0 0 1-1.31 2.373c-4.814-6.737 7.986-17.176 12.536-20.626a.366.366 0 0 1 .225-.08c.13 0 .255.072.355.18 1.206-.7 2.505-1.28 3.666-2.063 1.44-.972 2.747-2.097 3.973-3.318-.319-.256-.52-.699-.3-1.108 5.28-9.812-6.494-16.318-13.606-19.687-.03-.015-.053-.038-.076-.057-.762.387-1.175 1.163-1.106 2.02.027.348-.21.51-.468.51a.656.656 0 0 1-.302-.074c-8.482 6.454-16.484 13.537-23.005 22.014a.546.546 0 0 1-.44.235c-.57 0-1.177-.896-.673-1.448 7.277-7.99 14.868-15.466 23.776-21.628a2.564 2.564 0 0 1 2.033-2.594.353.353 0 0 1 .074-.008z" class="cls-8" transform="translate(-39.423 -348.492)"/>
                            </g>
                            <g id="Path_2419" class="cls-6" data-name="Path 2419">
                                <path d="M127.476 397.248a24.26 24.26 0 0 1-5.548-7.037 25.433 25.433 0 0 1-2.757-8.987 25.605 25.605 0 0 1 1.288-11.47 27.524 27.524 0 0 0-.868 11.715c.889 6.184 3.872 11.603 8.436 15.365-.182.135-.366.273-.551.414z" class="cls-7" transform="translate(-43.846 -333.274)"/>
                                <path d="M127.453 398.168c-10.337-8.592-12.352-24.476-3.875-35.694a.302.302 0 0 1 .247-.132c.297 0 .621.432.435.728-7.127 11.336-5.085 26.195 4.95 33.786-.592.424-1.178.863-1.757 1.312z" class="cls-8" transform="translate(-43.846 -333.274)"/>
                            </g>
                            <g id="Path_2420" class="cls-6" data-name="Path 2420">
                                <path d="M137.222 388.08a11.39 11.39 0 0 0 1.404-2.124c3.997-2.097 7.83-4.883 11.539-7.58 1.693-1.23 3.443-2.502 5.17-3.68a.136.136 0 0 1 .039-.02c.036.006.177.11.25.316.039.112.052.253-.007.314-3.013 3.146-6.314 5.918-9.813 8.24-2.844 1.887-5.72 3.405-8.582 4.534z" class="cls-7" transform="translate(-26.037 -320.507)"/>
                                <path d="M151.356 378.396l-.77.56c-3.61 2.623-7.338 5.333-11.24 7.427a47.662 47.662 0 0 0 6.063-3.433 56.116 56.116 0 0 0 5.947-4.554m4.015-4.435c.753 0 1.354 1.224.762 1.84-5.8 6.057-13.476 11.523-21.636 13.985 1.547-1.304 2.831-2.75 3.589-4.355 5.853-3.031 11.285-7.535 16.847-11.326a.768.768 0 0 1 .438-.144z" class="cls-8" transform="translate(-26.037 -320.507)"/>
                            </g>
                            <g id="Path_2421" class="cls-6" data-name="Path 2421">
                                <path d="M132.585 370.711a2.24 2.24 0 0 1 .06-1.502c.058.278.127.55.209.821a100 100 0 0 0-.269.681z" class="cls-7" transform="translate(-29.038 -327.32)"/>
                                <path d="M132.728 372.34c-1.11-1.208-1.415-2.963-.078-4.45a.344.344 0 0 1 .256-.13c.305 0 .572.484.35.79a8.48 8.48 0 0 0 .357 1.507c-.304.758-.598 1.52-.885 2.284z" class="cls-8" transform="translate(-29.038 -327.32)"/>
                            </g>
                            <g id="Path_2422" class="cls-6" data-name="Path 2422">
                                <path d="M163.694 373.305c-1.98-1.896-4.138-3.4-6.43-4.48a21.012 21.012 0 0 0-2.75-1.07c1.197.298 2.356.707 3.451 1.22 2.253 1.059 4.175 2.512 5.729 4.33z" class="cls-7" transform="translate(-17.175 -328.753)"/>
                                <path d="M164.65 374.985c-.18 0-.375-.077-.55-.26-4.267-4.48-9.62-7.145-15.47-7.145-1.798 0-3.644.252-5.52.781a.367.367 0 0 1-.1.014c-.375 0-.659-.579-.242-.728a20.781 20.781 0 0 1 6.95-1.19c5.914 0 11.765 2.503 15.37 7.462.394.541.031 1.066-.438 1.066z" class="cls-8" transform="translate(-17.175 -328.753)"/>
                            </g>
                            <g id="Path_2423" class="cls-6" data-name="Path 2423">
                                <path d="M176.888 390.818a8.72 8.72 0 0 0-.302-.24c1.853-6.802 1.616-14.347-.665-20.78 1.026 2.713 1.698 5.621 2 8.667.337 3.406.178 6.883-.462 10.057-.145.72-.33 1.468-.571 2.296z" class="cls-7" transform="translate(3.061 -341.777)"/>
                                <path d="M177.21 392.21c-.513-.64-.655-.762-1.245-1.205-.06-.05-.128-.104-.197-.159 3.811-13.233-.374-30.464-14.49-35.41-.434-.154-.378-.832.05-.832.04 0 .083.006.13.019 14.033 3.927 19.33 20.998 16.702 34.04a33.008 33.008 0 0 1-.95 3.547z" class="cls-8" transform="translate(3.061 -341.777)"/>
                            </g>
                            <g id="Path_2424" class="cls-6" data-name="Path 2424">
                                <path d="M155.898 388.374c-.102 0-.178-.09-.206-.129a.346.346 0 0 1-.074-.215.266.266 0 0 1 .06-.022c6.609-1.735 12.21-4.386 16.662-7.886.159.235.325.47.5.709-2.347 2.057-4.895 3.735-7.583 4.995-3.02 1.414-6.162 2.271-9.34 2.547h-.02z" class="cls-7" transform="translate(-3.616 -314.898)"/>
                                <path d="M172.51 379.066a20.7 20.7 0 0 0 1.298 1.86c-4.945 4.497-11.107 7.576-17.83 8.16a.925.925 0 0 1-.08.003c-.955 0-1.468-1.493-.402-1.773 6.34-1.664 12.244-4.317 17.015-8.25z" class="cls-8" transform="translate(-3.616 -314.898)"/>
                            </g>
                            <g id="Path_2425" class="cls-6" data-name="Path 2425">
                                <path d="M158.744 374.136c-1.878-.802-3.819-2.066-5.648-3.707-.019-.017-.06-.054-.044-.156a.343.343 0 0 1 .102-.194l.022.017.583.479c1.405 1.157 2.858 2.354 4.504 3.227l.48.334z" class="cls-7" transform="translate(-6.438 -325.57)"/>
                                <path d="M162.577 375.829c-3.524-.195-7.174-2.37-9.959-4.867-.618-.557-.132-1.608.532-1.608.154 0 .318.057.48.189 1.532 1.25 3.18 2.686 5.007 3.648 1.293.913 2.634 1.748 3.94 2.638z" class="cls-8" transform="translate(-6.438 -325.57)"/>
                            </g>
                            <g id="Path_2426" class="cls-6" data-name="Path 2426">
                                <path d="M163.502 369.706a14.254 14.254 0 0 0-.036-.008c-.049-.156-.099-.31-.151-.466.065.16.127.317.187.474z" class="cls-7" transform="translate(.278 -334.366)"/>
                                <path d="M158.446 361.349c.5.371 1.068.663 1.681.9 1.822 2.567 3.572 5.474 4.477 8.469a1.11 1.11 0 0 0-.63-.186c-.048 0-.095.002-.143.008a5.244 5.244 0 0 0-.925-.217c-.913-3.194-2.737-6.23-4.46-8.974z" class="cls-8" transform="translate(.278 -334.366)"/>
                            </g>
                            <g id="Path_2427" class="cls-6" data-name="Path 2427">
                                <path d="M165.39 365.753c-2.81-.319-4.993-1.383-6.17-3.646a11.249 11.249 0 0 1-2.349-3.131.376.376 0 0 0-.705.258 10.086 10.086 0 0 0 13.046 6.941.774.774 0 0 0 .521-.661 11.108 11.108 0 0 1-4.343.239z" class="cls-7" transform="translate(-2.248 -337.219)"/>
                                <path d="M165.881 366.766c-4.43 0-8.447-3.075-9.715-7.531-.084-.293.13-.483.353-.483a.39.39 0 0 1 .352.224 11.249 11.249 0 0 0 2.348 3.132c1.178 2.262 3.36 3.326 6.17 3.645.551.063 1.136.104 1.727.104.89 0 1.796-.093 2.616-.343a.774.774 0 0 1-.52.661 9.765 9.765 0 0 1-3.33.59z" class="cls-8" transform="translate(-2.248 -337.219)"/>
                            </g>
                            <g id="Path_2428" class="cls-6" data-name="Path 2428">
                                <path d="M164.577 362.777c-.648-.029-1.3-.071-1.952-.048s-1.257.187-1.9.241c-.455.04-.275.787.122.81.678.038 1.335.187 2.017.178.623-.008 1.247-.063 1.87-.109.604-.049.374-1.049-.157-1.072z" class="cls-7" transform="translate(2.492 -332.857)"/>
                                <path d="M163.02 362.722c.519 0 1.04.031 1.557.055.53.023.761 1.026.161 1.072-.623.046-1.246.101-1.87.11h-.056c-.662 0-1.301-.142-1.96-.179-.397-.023-.578-.77-.122-.81.638-.055 1.253-.219 1.895-.242.131-.004.263-.006.394-.006z" class="cls-8" transform="translate(2.492 -332.857)"/>
                            </g>
                            <g id="Path_2429" class="cls-6" data-name="Path 2429">
                                <path d="M166.355 360.1a9.653 9.653 0 0 0-1.694-3.1c-.046-.057-.063-.109-.053-.165a.204.204 0 0 1 .016-.05 9.89 9.89 0 0 1 1.731 3.315z" class="cls-7" transform="translate(6.26 -340.222)"/>
                                <path d="M164.62 356.019c.187 0 .384.091.558.313 3.088 3.916 3.035 9.193-.188 13.008-.075.089-.158.126-.24.126-.288 0-.554-.463-.338-.755 2.433-3.304 2.296-8.09-.304-11.258-.506-.617-.044-1.434.512-1.434z" class="cls-8" transform="translate(6.26 -340.222)"/>
                            </g>
                            <g id="Path_2430" class="cls-6" data-name="Path 2430">
                                <path d="M166.632 379.876c-6.034-1.3-10.483-6.687-14.765-11.17-.166-.174-.342.059-.22.229 3.753 5.184 8.974 10.45 15.363 11.464-.135-.17-.255-.347-.378-.523z" class="cls-7" transform="translate(-7.238 -326.349)"/>
                                <path d="M167.01 380.399c-6.39-1.014-11.611-6.28-15.364-11.464-.091-.127-.015-.29.099-.29.038 0 .08.018.122.061 4.281 4.483 8.73 9.869 14.765 11.17.123.176.243.353.377.523z" class="cls-8" transform="translate(-7.238 -326.349)"/>
                            </g>
                            <g id="Path_2431" class="cls-6" data-name="Path 2431">
                                <path d="M167.147 376.695c.172.162.344.323.516.487a14.2 14.2 0 0 0-2.531-14.041c-.126-.149-.283.048-.18.189a14.425 14.425 0 0 1 2.195 13.365z" class="cls-7" transform="translate(7.39 -332.455)"/>
                                <path d="M167.663 377.182c-.172-.164-.344-.326-.516-.487 1.486-4.3.85-9.23-2.196-13.365-.077-.106-.008-.242.084-.242.031 0 .065.015.097.053 3.478 4.113 4.17 9.446 2.531 14.04z" class="cls-8" transform="translate(7.39 -332.455)"/>
                            </g>
                            <g id="Path_2432" class="cls-6" data-name="Path 2432">
                                <path d="M167.29 371.012c-3.963-4.37-10.32-3.82-15.311-1.742a87.521 87.521 0 0 0-9.13 4.949c-1.1.619-2.439 1.4-3.864 2.059a.8.8 0 0 1 .1.374 1.215 1.215 0 0 1 .025.25 58.421 58.421 0 0 0 5.669-3.1c6.725-3.9 15.078-8.4 21.993-2.252a.375.375 0 1 0 .518-.538z" class="cls-7" transform="translate(-21.104 -327.385)"/>
                                <path d="M159.247 367.702c2.987 0 5.874.918 8.043 3.31.267.296.062.662-.23.662a.433.433 0 0 1-.286-.12c-2.458-2.186-5.096-3.025-7.78-3.025-4.866 0-9.879 2.764-14.213 5.276-1.499.87-3.526 2.145-5.67 3.096-.005-.084-.001-.172-.024-.25a.8.8 0 0 0-.101-.373c1.425-.661 2.764-1.44 3.864-2.06 3.018-1.701 5.923-3.611 9.13-4.948 2.259-.94 4.797-1.568 7.267-1.568z" class="cls-8" transform="translate(-21.104 -327.385)"/>
                            </g>
                            <g id="Path_2433" class="cls-6" data-name="Path 2433">
                                <path d="M141.581 352.134a8.17 8.17 0 0 0-8.888-1.364c-.143.059-.013.285.128.233a8.722 8.722 0 0 1 8.431 1.6c.281.224.576-.244.329-.469z" class="cls-7" transform="translate(-28.088 -346.791)"/>
                                <path d="M141.408 352.66a.247.247 0 0 1-.157-.062c-1.606-1.306-3.646-2.079-5.703-2.079-.918 0-1.84.154-2.728.484a.121.121 0 0 1-.042.008c-.122 0-.214-.188-.086-.241 1.166-.482 2.356-.73 3.523-.73 1.925 0 3.786.676 5.366 2.094.2.183.044.525-.173.525z" class="cls-8" transform="translate(-28.088 -346.791)"/>
                            </g>
                            <g id="Path_2434" class="cls-6" data-name="Path 2434">
                                <path d="M144.816 364.565c.4-4.42-1.939-8.443-4.5-11.846-.115-.155-.317.023-.233.178 1.679 3.106 3.633 6.359 3.692 10 .063 3.925-2.03 7.5-6.124 8.087-.632.09-.294 1.043.275 1.005 3.954-.272 6.548-3.634 6.89-7.424z" class="cls-7" transform="translate(-22.941 -343.913)"/>
                                <path d="M137.897 371.99c-.548 0-.861-.918-.242-1.007 4.095-.59 6.188-4.162 6.125-8.087-.06-3.639-2.013-6.892-3.692-9.998-.061-.113.029-.239.127-.239.037 0 .074.018.106.06 2.556 3.402 4.896 7.426 4.495 11.846-.342 3.79-2.936 7.152-6.886 7.423a.496.496 0 0 1-.033.001z" class="cls-8" transform="translate(-22.941 -343.913)"/>
                            </g>
                            <g id="Path_2435" class="cls-6" data-name="Path 2435">
                                <path d="M174.238 359.155c-4.6-4.38-12.15-8.351-16.958-1.96-3.694 4.9-.949 11.445 4.426 13.569.191.076.218-.214.063-.29-5.192-2.523-7.3-9.482-2.693-13.64 4.938-4.46 10.477-.115 14.595 3.113.493.385.978-.4.567-.792z" class="cls-7" transform="translate(-2.864 -342.604)"/>
                                <path d="M163.572 353.851c3.783 0 7.798 2.572 10.666 5.304.333.318.077.895-.295.895a.44.44 0 0 1-.272-.104c-2.858-2.24-6.4-5.018-9.95-5.018-1.566 0-3.134.54-4.645 1.905-4.607 4.158-2.5 11.118 2.693 13.64.137.067.132.302-.005.302a.16.16 0 0 1-.058-.012c-5.375-2.124-8.12-8.664-4.427-13.569 1.81-2.406 4.01-3.343 6.293-3.343z" class="cls-8" transform="translate(-2.864 -342.604)"/>
                            </g>
                            <g id="Path_2436" class="cls-6" data-name="Path 2436">
                                <path d="M146.818 385.393c1.108-.278 2.168-.81 3.127-1.442l.493.985a16.364 16.364 0 0 0 1.702-.666l.25.985h-.097c-.299 0-.6-.017-.892-.05l-.88-.103-.072-.07-.168-.048a3.227 3.227 0 0 0-.166-.042 1.49 1.49 0 0 1-.111-.029l-.209-.07-.21.06-.233.063-.611-.071.225.167c-.713.166-1.432.278-2.148.331z" class="cls-7" transform="translate(-17.664 -324.939)"/>
                                <path d="M168.539 398.617c-2.93 0-5.874-.787-8.425-2.204-4.605-2.559-6.378-7.266-10.032-10.742-.101-.03-.204-.046-.305-.08a14.736 14.736 0 0 1-3.519.548.414.414 0 0 1-.191-.05c-.297.046-.593.07-.889.07a4.647 4.647 0 0 1-2.793-.901c-.467-.34-.274-1.029.197-1.029.09 0 .19.025.297.082.753.402 1.53.577 2.312.577 3.14 0 6.337-2.82 8.209-5.003 2.388-2.781 3.93-6.208 4.332-9.854.007-.073.057-.103.112-.103.085 0 .184.069.177.166-.354 4.626-2.046 8.932-5.431 12.198a19.684 19.684 0 0 1-2.376 1.965c4.806-1.583 8.429-5.323 9.658-10.662.02-.085.073-.12.132-.12.102 0 .22.108.198.237-.823 4.83-3.734 8.803-7.82 10.876 3.876-.115 7.04-1.7 9.125-5.61.036-.066.084-.093.133-.093.122 0 .249.168.195.311-1.408 3.832-5.431 6.775-9.542 6.775-.324 0-.65-.018-.975-.056 2.972 2.203 4.569 5.958 7.614 8.177 2.983 2.17 6.35 3.116 9.848 3.116 1.277 0 2.573-.126 3.872-.365a.575.575 0 0 1 .106-.01c.588 0 .843.955.205 1.148a15.366 15.366 0 0 1-4.424.636z" class="cls-8" transform="translate(-17.664 -324.939)"/>
                            </g>
                            <g id="Path_2437" class="cls-6" data-name="Path 2437">
                                <path d="M150.634 367.626c-.034-.269-.449-.353-.432-.036.447 8.607-9.149 14.238-14.918 19.141-6.28 5.337-12.637 10.595-18.824 16.037-.411.363.21 1.079.653.711 7.2-5.982 14.234-12.183 21.326-18.293 5.215-4.495 13.154-9.651 12.195-17.56z" class="cls-7" transform="translate(-46.004 -327.731)"/>
                                <path d="M150.367 367.387c.115 0 .249.092.267.24.96 7.908-6.98 13.064-12.196 17.56-7.092 6.11-14.123 12.312-21.326 18.293a.417.417 0 0 1-.27.102c-.375 0-.714-.521-.382-.813 6.187-5.443 12.544-10.7 18.824-16.037 5.77-4.903 15.365-10.534 14.918-19.141-.008-.143.072-.204.165-.204z" class="cls-8" transform="translate(-46.004 -327.731)"/>
                            </g>
                            <g id="Path_2438" class="cls-6" data-name="Path 2438">
                                <path d="M125.058 374.467c-3.992 2.735-7.776 5.725-11.558 8.731.122.046.246.082.367.13a1.04 1.04 0 0 1 .164.092c3.944-2.523 7.87-5.058 11.632-7.856.566-.421-.005-1.509-.605-1.097z" class="cls-7" transform="translate(-49.108 -320.052)"/>
                                <path d="M125.33 374.375c.478 0 .812.833.332 1.19-3.76 2.797-7.687 5.332-11.631 7.855-.055-.031-.1-.069-.164-.092-.121-.048-.245-.084-.367-.13 3.782-3.006 7.566-5.996 11.558-8.731a.478.478 0 0 1 .272-.092z" class="cls-8" transform="translate(-49.108 -320.052)"/>
                            </g>
                            <g id="Path_2439" class="cls-6" data-name="Path 2439">
                                <path d="M121.56 369.203c2.987-1.946 6.064-3.845 9.272-5.103-1.964 1.24-4.075 2.348-6.122 3.422-1.04.545-2.1 1.103-3.15 1.68z" class="cls-7" transform="translate(-54.331 -332.329)"/>
                                <path d="M131.297 363.202c.58 0 .982.813.405 1.19-3.675 2.394-7.789 4.212-11.577 6.45-3.795 2.24-7.392 4.79-11.162 7.07a.117.117 0 0 1-.06.018c-.116 0-.213-.178-.118-.266 3.13-2.892 6.714-5.339 10.267-7.673 3.757-2.466 7.787-5.182 12.018-6.747a.656.656 0 0 1 .227-.042z" class="cls-8" transform="translate(-54.331 -332.329)"/>
                            </g>
                            <g id="Path_2440" class="cls-6" data-name="Path 2440">
                                <path d="M122.568 420.463a.291.291 0 0 1-.042-.103c4.692-2.77 10.158-6.12 15.169-9.965 5.365-4.118 9.612-8.333 12.984-12.886.18-.245.36-.49.534-.734-2.81 4.018-6.365 7.814-10.76 11.496-5.738 4.81-12.256 8.861-17.885 12.192z" class="cls-7" transform="translate(-39.977 -330.888)"/>
                                <path d="M149.45 364.514c5.05 0 8.602 5.664 9.36 10.175.999 5.967-1.15 12.186-3.915 17.428-6.951 13.19-19.657 21.683-32.03 29.001a.617.617 0 0 1-.315.092c-.627 0-1.074-1.06-.415-1.45 10.333-6.1 20.675-12.827 27.969-22.677 3.72-5.024 6.86-10.998 7.61-17.281.382-3.205.048-6.504-1.51-9.34-1.605-2.93-3.936-4.294-6.83-5.637-.141-.063-.16-.309.029-.31l.047-.001z" class="cls-8" transform="translate(-39.977 -330.888)"/>
                            </g>
                            <g id="Path_2441" class="cls-6" data-name="Path 2441">
                                <path d="M120.77 387.803c1.46-.49 2.876-1.265 4.215-2.312a11.228 11.228 0 0 1-4.214 2.312zm-9.825-.435c-.54-.42-.965-.94-1.253-1.537.375.304.77.585 1.182.84l.07.697z" class="cls-7" transform="translate(-55.012 -309.916)"/>
                                <path d="M126.25 383.6c.46 0 .854.672.495 1.104-2.345 2.832-5.847 4.304-9.383 4.304-1.942 0-3.894-.444-5.67-1.351.034.33-.159.66-.47.66a.615.615 0 0 1-.333-.113c-1.039-.671-1.736-1.605-2.086-2.667a9.63 9.63 0 0 1-.676-.791c.485-.139.974-.269 1.46-.405.02.182.047.363.1.543a10.805 10.805 0 0 0 3.954 2.284 11.13 11.13 0 0 0 3.393.539c3.306 0 6.35-1.534 8.847-3.944a.529.529 0 0 1 .37-.163z" class="cls-8" transform="translate(-55.012 -309.916)"/>
                            </g>
                            <g id="Path_2442" class="cls-6" data-name="Path 2442">
                                <path d="M99.593 387.325a21.6 21.6 0 0 1 6.643-10.58c.113-.1-.052-.342-.178-.246a21.083 21.083 0 0 0-7.852 12.494 48.23 48.23 0 0 1 1.387-1.668z" class="cls-7" transform="translate(-65.913 -317.743)"/>
                                <path d="M98.206 388.994c.997-4.76 3.604-9.24 7.852-12.494a.101.101 0 0 1 .062-.023c.11 0 .211.185.116.268-3.377 2.964-5.572 6.666-6.643 10.58a47.08 47.08 0 0 0-1.387 1.669z" class="cls-8" transform="translate(-65.913 -317.743)"/>
                            </g>
                            <g id="Path_2443" class="cls-6" data-name="Path 2443">
                                <path d="M131.441 397.889c.705-.22 1.422-.458 2.15-.714 3.55-1.248 7.012-2.782 10.387-4.354-3.508 1.732-6.745 3.112-9.81 4.183-.92.322-1.83.617-2.727.885z" class="cls-7" transform="translate(-62.709 -302.742)"/>
                                <path d="M148.13 390.13c.543 0 .933.855.37 1.157-8.62 4.647-19.185 9.3-29.355 9.3-5.273 0-10.44-1.25-15.175-4.402a21.52 21.52 0 0 1-2.848-2.275c.248-.34.495-.682.75-1.02a20.893 20.893 0 0 0 6.262 4.14c3.663 1.574 7.342 2.226 11.003 2.226 9.963 0 19.79-4.834 28.754-9.071a.552.552 0 0 1 .238-.055z" class="cls-8" transform="translate(-62.709 -302.742)"/>
                            </g>
                            <g id="Path_2444" class="cls-6" data-name="Path 2444">
                                <path d="M167.56 365a11.065 11.065 0 0 0-13.187 11.686c.021.229.336.285.357.029.548-6.932 5.952-11.47 12.866-10.525.764.11.613-1.057-.036-1.19z" class="cls-7" transform="translate(-4.242 -330.588)"/>
                                <path d="M165.395 364.787c.712 0 1.437.07 2.165.216.621.125.786 1.196.128 1.196a.692.692 0 0 1-.092-.006 13.25 13.25 0 0 0-1.794-.124c-6.036 0-10.572 4.33-11.072 10.65-.01.116-.08.168-.156.168a.21.21 0 0 1-.2-.198c-.567-6.537 4.777-11.902 11.02-11.902z" class="cls-8" transform="translate(-4.242 -330.588)"/>
                            </g>
                            <g id="Path_2445" class="cls-6" data-name="Path 2445">
                                <path d="M191.165 408.052l-.226-.87c-.565-2.18-1.145-4.414-1.878-6.624.95 2.584 1.654 5.09 2.104 7.494z" class="cls-7" transform="translate(4.484 -328.911)"/>
                                <path d="M191.847 411.409c-.266 0-.563-.168-.647-.466-1.194-4.265-2.07-8.51-3.72-12.643a68.883 68.883 0 0 0-6.2-11.921c-5.126-7.883-11.766-13.739-18.917-19.701-.153-.128-.097-.364.066-.364.032 0 .068.009.108.03 7.988 4.223 14.583 11.665 19.515 19.107 4.869 7.348 9.323 16.556 10.25 25.427.039.366-.192.53-.455.53z" class="cls-8" transform="translate(4.484 -328.911)"/>
                            </g>
                            <g id="Path_2446" class="cls-6" data-name="Path 2446">
                                <path d="M175.328 392.774c-5.016-7.621-11.361-15.743-19.1-21.124-.174-.122-.3.109-.178.239 5.5 5.839 11.174 11.212 15.833 17.714a99.457 99.457 0 0 1 6.015 9.472c1.1 1.973 6.941 11.18 2.674 11.627-.737.078-.309 1.133.348 1.112 7.221-.23-4.068-16.727-5.592-19.04z" class="cls-7" transform="translate(-2.412 -323.085)"/>
                                <path d="M180.898 411.815c-.646 0-1.059-1.036-.33-1.113 4.267-.447-1.574-9.654-2.673-11.627a99.457 99.457 0 0 0-6.015-9.472c-4.66-6.502-10.337-11.875-15.834-17.714-.097-.104-.036-.273.083-.273.029 0 .061.01.096.034 7.742 5.381 14.087 13.504 19.103 21.124 1.524 2.313 12.813 18.81 5.589 19.04a.58.58 0 0 1-.02 0z" class="cls-8" transform="translate(-2.412 -323.085)"/>
                            </g>
                            <g id="Path_2447" class="cls-6" data-name="Path 2447">
                                <path d="M162.959 391.681a.914.914 0 0 1 .39-.369c-1.6-2.659-3.085-5.406-4.672-7.994-.126-.2-.483-.12-.386.141a58.435 58.435 0 0 0 4.221 9.008c.153-.261.307-.521.447-.786z" class="cls-7" transform="translate(.09 -310.352)"/>
                                <path d="M162.512 392.466c-1.72-2.953-3.123-6.053-4.22-9.008-.06-.16.053-.254.178-.254.078 0 .16.036.208.114 1.586 2.587 3.072 5.335 4.672 7.994a.914.914 0 0 0-.39.37c-.141.264-.295.524-.448.784z" class="cls-8" transform="translate(.09 -310.352)"/>
                            </g>
                            <g id="Path_2448" class="cls-6" data-name="Path 2448">
                                <path d="M174.609 402.149c-.356 0-.711-.013-1.063-.039a17.033 17.033 0 0 0 6.298-.876 15.61 15.61 0 0 1-5.235.915z" class="cls-7" transform="translate(8.329 -306.141)"/>
                                <path d="M187.85 387.036c.268 0 .545.164.64.52 2.39 8.974-5.742 15.308-13.881 15.308-.91 0-1.82-.08-2.714-.242-2.204-.403-4.237-1.18-6.122-2.227.122-.428.202-.871.254-1.327.965.55 1.983 1.041 3.085 1.442 1.674.61 3.473.905 5.269.905 7.433 0 14.802-5.048 12.907-13.613-.11-.491.218-.766.563-.766z" class="cls-8" transform="translate(8.329 -306.141)"/>
                            </g>
                            <g id="Path_2449" class="cls-6" data-name="Path 2449">
                                <path d="M168.291 368.2c-2.439-2.785-6.4-3.509-9.917-3.062-.214.027-.141.4.059.39 3.662-.151 6.429 1.391 9.35 3.383.478.329.837-.332.508-.711z" class="cls-7" transform="translate(.056 -330.333)"/>
                                <path d="M168.036 369.002a.451.451 0 0 1-.253-.087c-2.79-1.902-5.437-3.394-8.858-3.394a11.93 11.93 0 0 0-.499.01c-.194 0-.264-.363-.052-.39.628-.08 1.27-.122 1.915-.122 2.967 0 5.999.897 8.002 3.184.267.305.08.799-.255.799z" class="cls-8" transform="translate(.056 -330.333)"/>
                            </g>
                            <g id="Path_2450" class="cls-6" data-name="Path 2450">
                                <path d="M95.926 424.895c1.526-3.846 3.957-8.637 7.11-13.998a205.89 205.89 0 0 1 5.013-8.07c-3.72 6.081-8.883 15.348-12.123 22.068z" class="cls-7" transform="translate(-69.941 -309.796)"/>
                                <path d="M125.39 383.71c1.274 0 2.564.444 3.84 1.494.21.173.133.514-.089.514a.306.306 0 0 1-.154-.048c-1.123-.658-2.192-.94-3.21-.94-3.607 0-6.545 3.547-8.772 6.408a128.56 128.56 0 0 0-7.251 10.298c-4.217 6.679-10.771 18.472-14.058 25.623-.095.206-.257.29-.43.29-.394 0-.846-.436-.697-.863 3.228-9.306 11.852-22.928 17.559-30.911 2.582-3.614 7.775-11.865 13.263-11.865z" class="cls-8" transform="translate(-69.941 -309.796)"/>
                            </g>
                            <g id="Path_2451" class="cls-6" data-name="Path 2451">
                                <path d="M107.48 435.208l.324-1.095.226-.046c-.187.384-.37.764-.55 1.14zm3.39-6.841c2.246-4.461 4.706-9.2 7.083-13.707a2449.6 2449.6 0 0 1-2.511 4.845c-1.59 3.061-3.132 6.032-4.571 8.862z" class="cls-7" transform="translate(-56.541 -298.233)"/>
                                <path d="M128.23 394.233c.145 0 .297.192.225.361-5.2 12.333-14.683 29.083-20.444 41.162-.11.23-.289.324-.478.324-.43 0-.913-.484-.773-.96l.376-1.268c.077-.262.24-.382.426-.42 5.59-11.488 14.37-27.895 20.513-39.094.04-.075.097-.105.155-.105z" class="cls-8" transform="translate(-56.541 -298.233)"/>
                            </g>
                            <g id="Path_2452" class="cls-6" data-name="Path 2452">
                                <path d="M95.04 410.27c1.643-2.77 3.36-5.465 5.11-8.01 3.195-4.646 6.47-8.767 9.731-12.246 3.605-3.845 7.185-6.893 10.64-9.06a25.013 25.013 0 0 1 13.297-3.84c3.966 0 7.966.955 11.567 2.761a26.85 26.85 0 0 1 9.406 7.887.7.7 0 0 1 .074.753c-.089.177-.217.257-.279.257-.045 0-.136-.052-.242-.196-2.58-3.49-5.688-6.17-9.239-7.962-3.353-1.693-7.001-2.551-10.843-2.551-3.642 0-7.301.769-10.876 2.286-3.576 1.518-6.896 3.711-9.866 6.519-5.048 4.772-10.558 11.518-15.934 19.507a173.698 173.698 0 0 0-2.547 3.896z" class="cls-7" transform="translate(-80.218 -317.828)"/>
                                <path d="M133.818 376.4c8.222 0 16.297 3.918 21.546 10.933.7.936.025 2.154-.778 2.154-.274 0-.563-.142-.817-.485-5.198-7.034-12.263-10.224-19.507-10.224-7.112 0-14.396 3.076-20.25 8.61-10.663 10.08-22.158 27.893-28.202 41.172-.055.12-.14.17-.23.17-.223 0-.476-.305-.366-.571 6.462-15.657 20.152-38.549 34.928-47.81a25.628 25.628 0 0 1 13.676-3.95z" class="cls-8" transform="translate(-80.218 -317.828)"/>
                            </g>
                            <g id="Path_2453" class="cls-6" data-name="Path 2453">
                                <path d="M105.315 408.913a494.937 494.937 0 0 1 4.425-8.141c-1.3 2.554-2.86 5.354-4.425 8.141z" class="cls-7" transform="translate(-65.192 -296.988)"/>
                                <path d="M112.213 395.366c.299 0 .599.396.46.747-2.61 6.668-9.668 17.756-12.722 24.237-.096.202-.246.285-.405.285-.399 0-.85-.517-.622-.973 3.214-6.389 9.315-17.932 12.96-24.08.091-.153.21-.216.33-.216z" class="cls-8" transform="translate(-65.192 -296.988)"/>
                            </g>
                            <g id="Path_2454" class="cls-6" data-name="Path 2454">
                                <path d="M101.28 417.345h-.001c-2.037 0-3.819-.638-5.296-1.894a6.752 6.752 0 0 1-2.116-3.212c.91 2.107 3.037 3.734 5.575 4.258a9.978 9.978 0 0 0 2.011.205c1.41 0 3.7-.243 7.297-2.347a.186.186 0 0 1 .02-.01c.041.024.122.123.139.253.013.105-.024.13-.045.145-2.442 1.678-5.136 2.602-7.584 2.602z" class="cls-7" transform="translate(-71.76 -285.336)"/>
                                <path d="M101.279 418.06c-2.04 0-4.04-.602-5.76-2.064-2.974-2.53-3.553-6.84-1.104-9.896a.32.32 0 0 1 .256-.13c.315 0 .655.443.456.743-2.66 4.013.18 8.2 4.46 9.084.633.13 1.255.19 1.866.19 2.465 0 4.76-.977 6.936-2.25a.757.757 0 0 1 .385-.11c.731 0 1.222 1.206.494 1.706-2.323 1.596-5.193 2.727-7.99 2.727z" class="cls-8" transform="translate(-71.76 -285.336)"/>
                            </g>
                            <g id="Path_2455" class="cls-6" data-name="Path 2455">
                                <path d="M110.649 434.133h-.003a25.73 25.73 0 0 1-5.151-.515c-6.256-1.281-11.622-4.463-15.518-9.2a27.767 27.767 0 0 1-4.533-7.888c.27.543.559 1.078.865 1.605a29.096 29.096 0 0 0 6.75 7.905 30.145 30.145 0 0 0 8.776 5.011c3.182 1.164 6.44 1.754 9.687 1.754h.002c4.872 0 9.46-1.366 13.268-3.949a23.14 23.14 0 0 0 5.402-5.14c1.629-2.135 2.973-4.622 3.994-7.392a.411.411 0 0 1 .014-.033c.082.02.233.098.358.255.092.115.14.239.121.316a20.09 20.09 0 0 1-3.29 7.258c-1.496 2.078-3.389 3.905-5.625 5.429-4.34 2.956-9.71 4.584-15.117 4.584z" class="cls-7" transform="translate(-82.819 -283.906)"/>
                                <path d="M98.003 430.147a27.302 27.302 0 0 0 9.312 3.053 29.677 29.677 0 0 1-5.726-1.478 30.932 30.932 0 0 1-3.586-1.575m-14.955-22.875a.4.4 0 0 1 .381.336c2.115 15.034 15.411 24.482 28.095 24.482 9.098 0 17.882-4.864 21.993-16.014.132-.36.378-.506.65-.506.62 0 1.372.757 1.211 1.453-2.583 11.21-13.733 17.825-24.732 17.825-1.78 0-3.56-.173-5.295-.53-13.292-2.721-21.67-13.549-22.53-26.76-.014-.2.097-.286.227-.286z" class="cls-8" transform="translate(-82.819 -283.906)"/>
                            </g>
                            <g id="Path_2456" class="cls-6" data-name="Path 2456">
                                <path d="M98.364 413.281c3.771-.428 6.993-3.048 8.22-6.792a.143.143 0 0 1 .022.025c.015.02.017.035.01.062-.475 2.025-1.55 3.732-3.106 4.938a8.547 8.547 0 0 1-5.146 1.767z" class="cls-7" transform="translate(-71.387 -285.586)"/>
                                <path d="M106.525 405.743c.444 0 .92.438.788.997-1.073 4.563-4.894 7.257-9.019 7.257-1.622 0-3.291-.417-4.858-1.3-.353-.2-.234-.82.131-.82.047 0 .098.01.152.033a9.254 9.254 0 0 0 3.553.717c3.845 0 7.37-2.468 8.641-6.39.113-.35.357-.494.612-.494z" class="cls-8" transform="translate(-71.387 -285.586)"/>
                            </g>
                            <g id="Path_2457" class="cls-6" data-name="Path 2457">
                                <path d="M177.083 382.6c-7.43 1.538-11.212 9.4-14.133 15.655a97.565 97.565 0 0 0-8.322 29.305c-.107.86 1.255 1.457 1.364.491a96.06 96.06 0 0 1 6.655-26.26c3.119-7.459 6.767-15.374 14.706-18.524.356-.144.07-.74-.27-.667z" class="cls-7" transform="translate(-3.924 -311.026)"/>
                                <path d="M177.138 382.59c.314 0 .551.54.216.673-7.94 3.15-11.588 11.065-14.706 18.524-3.52 8.425-5.617 17.206-6.656 26.26-.04.352-.245.496-.486.496-.42 0-.946-.44-.878-.987 1.257-10.141 3.996-20.037 8.322-29.305 2.921-6.259 6.703-14.117 14.133-15.655a.274.274 0 0 1 .055-.006z" class="cls-8" transform="translate(-3.924 -311.026)"/>
                            </g>
                            <g id="Path_2458" class="cls-6" data-name="Path 2458">
                                <path d="M162.547 419.65a7.22 7.22 0 0 0 .6 2.216l.04.067q.51-1.656 1.005-3.316c5.251 6.227 11.388-15.558 11.772-18.152.113-.768-1.058-1.335-1.24-.445a64.242 64.242 0 0 1-2.59 9.959c-.586 1.547-4.091 11.042-7.734 7.927 1.2-4.08 2.34-8.181 3.532-12.265 1.551-5.314 2.25-13.264 7.707-16.033.321-.164.076-.724-.26-.642-4.17 1.014-5.337 5.1-6.464 8.825-2.194 7.255-4.355 14.546-6.368 21.859z" class="cls-7" transform="translate(4.784 -304.03)"/>
                                <path d="M163.187 421.933c-.012-.023-.031-.052-.04-.067-.32-.674-.501-1.427-.6-2.216 2.013-7.313 4.174-14.604 6.368-21.86 1.127-3.723 2.294-7.811 6.464-8.825a.28.28 0 0 1 .067-.008c.3 0 .493.498.193.65-5.457 2.769-6.155 10.719-7.707 16.033-1.192 4.084-2.331 8.185-3.532 12.265.508.434 1.013.624 1.508.624 3.056 0 5.722-7.22 6.226-8.55 1.23-3.256 1.893-6.568 2.59-9.96.066-.322.262-.453.479-.453.383 0 .834.408.762.899-.337 2.272-5.086 19.266-9.789 19.266-.666 0-1.332-.341-1.984-1.114-.33 1.108-.665 2.212-1.005 3.316z" class="cls-8" transform="translate(4.784 -304.03)"/>
                            </g>
                            <g id="Path_2459" class="cls-6" data-name="Path 2459">
                                <path d="M172.82 433.38h-.002a19.489 19.489 0 0 1-10.39-2.987 18.694 18.694 0 0 1-3.13-2.466c.971.815 1.992 1.534 3.061 2.152 3.002 1.736 6.258 2.616 9.679 2.616 3.258 0 6.532-.803 9.728-2.386l.215-.106.108-.215a.079.079 0 0 1 .017-.026c2.285-1.538 4.053-3.778 5.406-6.848 1.17-2.655 1.882-5.557 2.572-8.363.257-1.049.5-2.039.765-3.01.255-.935.512-1.889.76-2.81.776-2.873 1.566-5.8 2.426-8.708-1.22 5.397-2.675 10.774-4.097 16.027l-.527 1.949c-.927 3.442-1.932 6.745-4.015 9.331l-.316.391.066.108-.011.013c-.867.932-1.685 1.813-2.62 2.592l-.003.002-.002.002c-.053.045-.119.092-.189.142a6.24 6.24 0 0 0-.177.131c-2.799 1.615-6.022 2.469-9.325 2.469z" class="cls-7" transform="translate(-4.029 -299.855)"/>
                                <path d="M172.818 434.095c-7.577 0-15.06-4.29-18.261-11.905-.093-.22.043-.391.204-.391.082 0 .17.044.239.148 4.376 6.656 10.524 10.033 17.038 10.033 3.104 0 6.292-.767 9.41-2.312a.76.76 0 0 1 .259-.3c5.755-3.872 6.754-11.583 8.452-17.814 1.695-6.223 3.301-12.522 5.471-18.596.05-.142.15-.201.251-.201.176 0 .36.177.32.407-1.509 8.481-3.855 16.908-6.099 25.221-.949 3.52-1.994 6.918-4.15 9.594.03.048.049.103.072.157-.982 1.052-1.943 2.124-3.052 3.048-.136.115-.287.21-.426.32-3.02 1.756-6.383 2.591-9.728 2.591z" class="cls-8" transform="translate(-4.029 -299.855)"/>
                            </g>
                        </g>
                        <g id="Path_2460" class="cls-6" data-name="Path 2460">
                            <path d="M187.542 450.803h-.002c-4.676 0-9.092-1.268-12.434-3.57-1.793-1.233-3.26-2.746-4.36-4.494-1.184-1.88-1.941-4.03-2.252-6.395-.886-6.744 1.757-13.945 4.088-20.299l.31-.843c2.128-5.811 4.492-10.927 7.227-15.64l.335-.577-.553-.374a.294.294 0 0 1-.116-.128c-.314-.65-.653-1.317-.982-1.962-.891-1.75-1.81-3.555-2.406-5.376 1.078 1.58 1.946 3.395 2.79 5.156.231.485.472.987.71 1.472l.574 1.162.57-.93c-4.437 9.422-8.851 19.158-10.99 29.457-1.305 6.278-.25 11.74 3.05 15.797 1.7 2.09 3.921 3.716 6.602 4.833 2.625 1.094 5.563 1.65 8.733 1.649 2.181 0 4.43-.268 6.685-.797a.285.285 0 0 1 .064-.009c.131 0 .24.179.267.344.04.261-.103.308-.158.326-2.433.784-5.114 1.198-7.752 1.198zm-.895-59.745a13.792 13.792 0 0 1 4.255-2.16c.015.006.09.07.135.202.043.128.026.221.014.244a.16.16 0 0 1-.04.014c-1.566.37-3.032.944-4.364 1.7zm-16.56-.212c-3.593 0-7.196-1.268-10.71-3.767-2.055-1.463-4.02-3.314-5.803-5.456 4.608 4.59 9.812 8.924 16.147 8.924h.002c2.014 0 4.065-.453 6.096-1.345a.143.143 0 0 1 .057-.014c.045 0 .122.04.193.132.076.098.102.2.102.247l-.195.126-.002-.007-.723.256c-1.693.6-3.43.904-5.164.904zm-23.79-12.138c-.647 0-1.441-.068-2.226-.305.624.107 1.267.207 1.938.214l.115.001c1.605 0 3.143-.33 4.842-1.039a.236.236 0 0 1 .08.08 1.224 1.224 0 0 0-.018.007l-.321.152-.461.168c-1.277.465-2.68.722-3.949.722z" class="cls-7" transform="translate(-17.469 -317.015)"/>
                            <path d="M177.49 447.817c-1.94-1.075-3.597-2.451-4.944-4.107-1.475-1.812-2.528-3.908-3.137-6.24.37 1.784 1.02 3.424 1.942 4.887 1.049 1.667 2.449 3.109 4.16 4.288.623.428 1.285.82 1.98 1.172m10.049 3.701c-9.247 0-18.407-4.826-19.755-15.08-.949-7.223 2-14.829 4.435-21.482 2.002-5.467 4.378-10.752 7.28-15.753a1.006 1.006 0 0 1-.36-.412c-1.256-2.602-2.865-5.343-3.65-8.174a16.09 16.09 0 0 1-5.403.944c-8.01 0-15.122-6.097-19.596-12.903-1.268.462-2.749.765-4.194.765-1.676 0-3.305-.407-4.5-1.445-.212-.186-.076-.554.196-.554h.004c1.352.02 2.655.463 4.02.478h.107c1.612 0 3.09-.366 4.575-.986a.69.69 0 0 1 .267-.055c.687 0 1.195 1.065.478 1.404-.036.017-.076.032-.111.049 5.172 5.335 11.063 11.518 18.39 11.518 1.841 0 3.774-.391 5.809-1.285a.849.849 0 0 1 .344-.075c.812 0 1.398 1.235.697 1.687 1.63 2.191 2.766 4.863 3.966 7.298a75.602 75.602 0 0 1 3.065-4.624c.047-.067.103-.09.16-.09.014 0 .029.001.043.004 1.81-2.097 4.114-3.68 6.867-4.53a.771.771 0 0 1 .228-.035c.878 0 1.309 1.628.274 1.872-2.972.703-5.642 2.179-7.669 4.403-5.03 10.675-10.343 21.532-12.756 33.15-2.819 13.564 6.034 21.42 17.685 21.419 2.1 0 4.292-.256 6.522-.779a.994.994 0 0 1 .227-.027c1.022 0 1.44 1.707.33 2.065a26.137 26.137 0 0 1-7.975 1.233z" class="cls-8" transform="translate(-17.469 -317.015)"/>
                        </g>
                        <g id="Path_2461" class="cls-6" data-name="Path 2461">
                            <path d="M163.534 414.017a.196.196 0 0 1-.097-.065c-.018-.023-.025-.041-.014-.083 1.656-6.148 3.228-11.229 4.863-15.7-1.061 4.3-2.44 8.96-4.184 14.147v-.002l-.136.407-.326.965h.006a17.963 17.963 0 0 1-.112.331zm2.94-.064c-.354 0-.719-.137-1.09-.408 2.489-.48 4.566-2.841 6.182-7.032 1.517-3.934 2.17-8.273 2.381-9.955l.08-.64-.628-.146c-.7-.162-1.282-.311-1.83-.47l-.168-.047c-.434-.123-.847-.24-1.222-.4.287.006.585.038.898.072l.181.02c1.128.118 2.056.252 2.924.423.159.031.251.186.292.276.09.197.072.375.049.421l-.257.308.135.383a.38.38 0 0 1 .03.172c-.147 1.129-1.119 5.475-2.665 9.584-1.779 4.728-3.708 7.439-5.292 7.439z" class="cls-7" transform="translate(5.616 -299.214)"/>
                            <path d="M169.666 393.062c.216 0 .466.267.417.508-.038.19-.088.38-.128.571a4.38 4.38 0 0 1 .141-.002c.41 0 .83.053 1.238.097 1.005.105 1.996.237 2.986.432.854.168 1.171 1.356.756 1.853.054.156.086.32.065.496-.318 2.46-4.008 17.651-8.668 17.651-.67 0-1.36-.313-2.061-1.023-.063.19-.124.384-.19.573-.125.366-.39.518-.665.518-.479 0-.984-.46-.824-1.053 1.7-6.313 3.662-12.838 6.099-18.95-.034-.153.002-.327.147-.395l.012-.004c.147-.365.29-.734.441-1.095.053-.127.14-.177.234-.177zm-5.01 19.853c5.767-.309 8.02-11.967 8.581-16.446a36.3 36.3 0 0 1-1.866-.479c-.58-.166-1.17-.32-1.704-.583-1.301 5.88-3.085 11.808-5.012 17.508z" class="cls-8" transform="translate(5.616 -299.214)"/>
                        </g>
                        <g id="Path_2462" class="cls-6" data-name="Path 2462">
                            <path d="M167.333 431.96c-.135 0-.257-.197-.286-.382-.035-.215.03-.35.19-.403 3.06-1.009 5.375-3.259 7.079-6.878 1.443-3.065 2.25-6.702 2.963-9.91.306-1.378.595-2.68.914-3.864 1.06-3.924 2.272-8.316 3.698-12.714-1.591 7.98-3.706 15.834-5.617 22.735-1.154 4.162-2.202 6.017-2.986 7.167-1.481 2.173-3.404 3.56-5.879 4.238a.292.292 0 0 1-.076.012z" class="cls-7" transform="translate(9.595 -299.423)"/>
                            <path d="M167.333 432.676c-1.045 0-1.477-1.8-.32-2.18 7.795-2.571 8.645-13.323 10.49-20.159 1.574-5.826 3.198-11.604 5.26-17.28.047-.133.134-.186.229-.186.22 0 .486.285.444.53-1.574 9.21-3.98 18.33-6.473 27.333-1.492 5.384-3.61 10.326-9.365 11.905a1 1 0 0 1-.265.037z" class="cls-8" transform="translate(9.595 -299.423)"/>
                        </g>
                        <g id="Path_2463" class="cls-6" data-name="Path 2463">
                            <path d="M172.924 377.8a.512.512 0 0 1-.368-.154.456.456 0 0 1 .469-.472c.157 0 .284.068.368.154a.456.456 0 0 1-.469.472z" class="cls-7" transform="translate(16.578 -316.769)"/>
                            <path d="M173.025 377.89c-.078 0-.156-.045-.203-.152l-.117-.27c-.09-.209.065-.383.22-.383.077 0 .155.044.202.151l.117.271c.09.208-.065.382-.22.382z" class="cls-8" transform="translate(16.578 -316.769)"/>
                        </g>
                        <g id="Path_2464" class="cls-6" data-name="Path 2464">
                            <path d="M174.5 382.526a11.257 11.257 0 0 1-7.946.854c-.208-.053-.248.241-.067.308a9.423 9.423 0 0 0 8.259-.714c.254-.148.015-.58-.246-.448z" class="cls-7" transform="translate(9.646 -310.817)"/>
                            <path d="M174.598 382.501c.216 0 .367.344.146.474-1.52.89-3.186 1.35-4.87 1.35a9.414 9.414 0 0 1-3.389-.636c-.166-.062-.146-.315.02-.315.015 0 .03.002.047.006.957.241 1.923.363 2.881.363 1.743 0 3.462-.402 5.065-1.217a.22.22 0 0 1 .1-.025z" class="cls-8" transform="translate(9.646 -310.817)"/>
                        </g>
                        <g id="Path_2465" class="cls-6" data-name="Path 2465">
                            <path d="M173.747 377.2c-.428-.474-.911.16-.586.611a6.046 6.046 0 0 1-1.757 9.1c-.153.094-.013.34.149.271a6.331 6.331 0 0 0 2.194-9.982z" class="cls-7" transform="translate(15.106 -316.833)"/>
                            <path d="M173.428 377.027c.1 0 .211.05.319.168 2.858 3.18 1.7 8.282-2.193 9.98a.144.144 0 0 1-.058.012c-.134 0-.226-.2-.092-.283 3.359-2.103 4.057-5.895 1.757-9.098-.244-.338-.034-.78.267-.78z" class="cls-8" transform="translate(15.106 -316.833)"/>
                        </g>
                        <g id="Path_2466" class="cls-6" data-name="Path 2466">
                            <path d="M170.045 383.1a7.94 7.94 0 0 1-4.5-1.341c-.145-.1-.281.111-.16.222a6.153 6.153 0 0 0 4.745 1.671c.303-.024.196-.561-.085-.552z" class="cls-7" transform="translate(8.511 -311.666)"/>
                            <path d="M169.667 383.662c-1.626 0-3.06-.553-4.283-1.686-.1-.09-.026-.247.083-.247.024 0 .05.008.076.025a7.94 7.94 0 0 0 4.502 1.341h.003c.28 0 .384.533.081.552a7.44 7.44 0 0 1-.462.015z" class="cls-8" transform="translate(8.511 -311.666)"/>
                        </g>
                        <g id="Path_2467" class="cls-6" data-name="Path 2467">
                            <path d="M177.2 377.092a.337.337 0 1 0-.659.134c1.047 5.715-2.248 10.954-8.292 11.373-.183.013-.09.3.08.294 5.999-.344 10.629-5.767 8.871-11.801z" class="cls-7" transform="translate(11.597 -317.076)"/>
                            <path d="M176.846 376.806c.144 0 .294.09.35.286 1.762 6.034-2.868 11.457-8.871 11.801h-.009c-.164 0-.25-.281-.07-.293 6.044-.42 9.339-5.659 8.292-11.374-.05-.27.124-.42.308-.42z" class="cls-8" transform="translate(11.597 -317.076)"/>
                        </g>
                        <g id="Path_2468" class="cls-6" data-name="Path 2468">
                            <path d="M175.183 386.849c-.12-.134-.273.048-.168.174 3.461 4.179 2.508 9.678-1.438 13.119-.248.216.109.745.386.541 4.664-3.428 4.946-9.618 1.22-13.834z" class="cls-7" transform="translate(17.474 -306.092)"/>
                            <path d="M175.092 386.802c.03 0 .062.013.091.047 3.726 4.216 3.444 10.406-1.22 13.835a.222.222 0 0 1-.132.046c-.241 0-.462-.405-.253-.588 3.945-3.442 4.898-8.94 1.437-13.12-.079-.094-.012-.22.077-.22z" class="cls-8" transform="translate(17.474 -306.092)"/>
                        </g>
                        <g id="Path_2469" class="cls-6" data-name="Path 2469">
                            <path d="M144.866 367.28a8.212 8.212 0 0 0-3.064.428 5.733 5.733 0 0 0-2.619 1.53c-.342.447.132 1.4.726 1.012.791-.516 1.381-1.24 2.237-1.7a8.313 8.313 0 0 1 2.777-.9c.207-.028.127-.362-.057-.37z" class="cls-7" transform="translate(-20.354 -327.551)"/>
                            <path d="M144.478 367.272c.129 0 .258.003.388.008.184.008.264.342.056.372a8.313 8.313 0 0 0-2.776.902c-.857.456-1.446 1.18-2.238 1.696a.507.507 0 0 1-.277.09c-.45 0-.735-.727-.449-1.102.582-.764 1.738-1.221 2.62-1.53a8.054 8.054 0 0 1 2.676-.436z" class="cls-8" transform="translate(-20.354 -327.551)"/>
                        </g>
                        <g id="Path_2470" class="cls-6" data-name="Path 2470">
                            <path d="M127.609 377.945c-.821-.2-1.643-.384-2.466-.571-.256-.057-.315.327-.084.38.837.193 1.675.388 2.516.569.214.046.225-.332.034-.378z" class="cls-7" transform="translate(-35.905 -316.457)"/>
                            <path d="M127.61 378.326a.165.165 0 0 1-.035-.003c-.842-.18-1.679-.376-2.516-.57-.215-.048-.18-.385.034-.385a.23.23 0 0 1 .05.006c.822.187 1.645.371 2.466.57.18.044.18.383.001.382z" class="cls-8" transform="translate(-35.905 -316.457)"/>
                        </g>
                        <g id="Path_2471" class="cls-6" data-name="Path 2471">
                            <path d="M130.556 380.331c-.854-.625-1.736-1.209-2.609-1.8-.155-.105-.254.134-.122.233.852.63 1.7 1.274 2.571 1.874.204.137.336-.18.16-.307z" class="cls-7" transform="translate(-32.774 -315.212)"/>
                            <path d="M130.496 380.67a.176.176 0 0 1-.1-.035c-.875-.6-1.719-1.245-2.57-1.874-.11-.082-.062-.26.046-.26.023 0 .048.008.075.027.873.594 1.755 1.177 2.609 1.803.145.105.08.34-.06.34z" class="cls-8" transform="translate(-32.774 -315.212)"/>
                        </g>
                        <g id="Path_2472" class="cls-6" data-name="Path 2472">
                            <path d="M129.812 380.038c-.111-.141-.262.044-.168.174a10.748 10.748 0 0 1 .974 10.635c-.172.409.428.9.655.441a10.483 10.483 0 0 0-1.461-11.25z" class="cls-7" transform="translate(-30.74 -313.579)"/>
                            <path d="M129.725 379.988c.028 0 .06.015.087.05 2.557 3.197 3.317 7.508 1.461 11.25-.065.13-.16.183-.259.183-.248 0-.518-.332-.396-.624 1.484-3.509 1.312-7.49-.973-10.634-.07-.098-.005-.225.08-.225z" class="cls-8" transform="translate(-30.74 -313.579)"/>
                        </g>
                        <g id="Path_2473" class="cls-6" data-name="Path 2473">
                            <path d="M128.312 379.22a4.392 4.392 0 0 0-4.162-1.06c-.208.055-.1.369.092.342a4.928 4.928 0 0 1 3.811 1.077c.219.181.447-.184.259-.359z" class="cls-7" transform="translate(-36.871 -315.75)"/>
                            <path d="M128.176 379.628a.192.192 0 0 1-.122-.049 4.937 4.937 0 0 0-3.836-1.075c-.181 0-.267-.291-.068-.343.39-.1.775-.149 1.153-.149 1.105 0 2.139.418 3.009 1.208.156.142.033.408-.136.408z" class="cls-8" transform="translate(-36.871 -315.75)"/>
                        </g>
                        <g id="Path_2474" class="cls-6" data-name="Path 2474">
                            <path d="M127.5 379.038c-.157-.124-.319.13-.183.254a14.767 14.767 0 0 1 4.6 14.522c-.13.539.73.915.863.311a15.039 15.039 0 0 0-5.28-15.087z" class="cls-7" transform="translate(-33.316 -314.659)"/>
                            <path d="M127.417 379.005a.14.14 0 0 1 .087.033c4.546 3.59 6.51 9.455 5.277 15.086-.048.22-.192.31-.35.31-.277 0-.596-.277-.513-.62 1.304-5.371-.516-10.836-4.596-14.522-.111-.1-.025-.287.095-.287z" class="cls-8" transform="translate(-33.316 -314.659)"/>
                        </g>
                        <g id="Path_2475" class="cls-6" data-name="Path 2475">
                            <path d="M109.622 391.761a6.457 6.457 0 0 1-4.372-4.865c-.031-.155-.3-.16-.273.017a6.35 6.35 0 0 0 4.546 5.291c.296.086.361-.359.099-.443z" class="cls-7" transform="translate(-57.814 -306.116)"/>
                            <path d="M109.595 392.215a.26.26 0 0 1-.072-.011c-2.47-.72-4.185-2.756-4.546-5.291-.013-.09.05-.133.119-.133.066 0 .138.04.154.116a6.457 6.457 0 0 0 4.372 4.865c.239.076.206.454-.027.454z" class="cls-8" transform="translate(-57.814 -306.116)"/>
                        </g>
                        <g id="Path_2476" class="cls-6" data-name="Path 2476">
                            <path d="M141.572 377.055c1.339-4.225 1.818-10.4-3.438-12.047-.4-.126-.47.46-.132.6 6.506 2.68 3.448 11.205 1.324 15.863a39.948 39.948 0 0 1-8.242 11.7c-.122.122.073.353.206.225a38.709 38.709 0 0 0 10.282-16.341z" class="cls-7" transform="translate(-29.168 -330.058)"/>
                            <path d="M138.028 364.99c.032 0 .067.006.106.018 5.255 1.646 4.777 7.822 3.438 12.047-1.986 6.267-5.537 11.812-10.282 16.341a.123.123 0 0 1-.087.038c-.112 0-.216-.165-.119-.262 3.413-3.398 6.24-7.314 8.242-11.703 2.124-4.657 5.182-13.182-1.324-15.863-.306-.125-.279-.615.026-.615z" class="cls-8" transform="translate(-29.168 -330.058)"/>
                        </g>
                        <g id="Path_2477" class="cls-6" data-name="Path 2477">
                            <path d="M133.536 390.97c.47-.197.939-.41 1.404-.641.666-.33 1.363-.715 2.13-1.176l.713-.428-.014-.016.156-.1a40.233 40.233 0 0 0 3.48-2.529c-2.405 1.975-4.98 3.71-7.869 4.89zm12.43-8.996c.897-.88 1.75-1.756 2.564-2.6a.307.307 0 0 1 .052.079c-.383.367-.765.737-1.147 1.107-.488.47-.976.943-1.469 1.414z" class="cls-7" transform="translate(-64.253 -315.085)"/>
                            <path d="M148.505 378.617c.562 0 1.101.844.605 1.32-4.671 4.487-9.316 9.295-15.445 11.753-2.38.956-5.292 1.679-8.122 1.679-2.44 0-4.819-.538-6.741-1.927-.15-.108-.174-.473.054-.473.015 0 .031.002.049.005 2.291.447 4.393 1.004 6.69 1.004.34 0 .683-.012 1.031-.038 2.785-.212 5.497-1.014 7.996-2.252.712-.353 1.402-.741 2.08-1.148-4.217-5.115-10.787-8.249-17.42-8.249-1.083 0-2.17.084-3.246.257-7.13 1.141-13.443 5.943-16.688 12.343-.021.043-.054.06-.088.06-.085 0-.18-.112-.132-.21 4.2-8.517 12.331-12.9 20.596-12.9 6.462 0 13.008 2.683 17.814 8.166 3.92-2.523 7.327-5.858 10.54-9.195a.583.583 0 0 1 .427-.195z" class="cls-8" transform="translate(-64.253 -315.085)"/>
                        </g>
                        <g id="Path_2478" class="cls-6" data-name="Path 2478">
                            <path d="M115.272 381.852a.333.333 0 0 1-.007-.011l.877-.686c1.947-1.526 4.073-3.192 6.253-4.5-1.948 1.7-4.237 3.247-6.333 4.662l-.79.535z" class="cls-7" transform="translate(-47.328 -319.633)"/>
                            <path d="M125.154 374.478c.133 0 .229.167.132.283-2.523 3.014-6.502 5.568-9.738 7.768a.493.493 0 0 1-.281.09c-.536 0-1.035-.882-.555-1.255 3.113-2.42 6.708-5.4 10.379-6.873a.168.168 0 0 1 .063-.013z" class="cls-8" transform="translate(-47.328 -319.633)"/>
                        </g>
                        <g id="Path_2479" class="cls-6" data-name="Path 2479">
                            <path d="M86.57 483.746c-.3-.455-.58-.926-.841-1.411-1.256-2.34-2.05-5.023-2.36-7.975-.559-5.304.463-11.337 2.875-16.987 3.072-7.188 7.757-13.814 12.288-20.222.544-.769 1.106-1.564 1.654-2.344 4.934-7.024 10.215-14.118 16.144-21.686.128-.164.22-.164.25-.164l.032.002.496.061.228-.444c3.893-7.594 9.988-14.711 17.625-20.582 7.341-5.643 15.704-9.858 24.183-12.188l.039-.011.037-.015a102.65 102.65 0 0 1 3.324-1.267.278.278 0 0 1 .093-.018c.022 0 .043.003.066.01l.558.187.29-.512c5.78-10.205 15.262-19.977 26.015-26.809a.33.33 0 0 1 .157-.058.15.15 0 0 1 .034.003l.25.057.103.405c.032.126.08.438-.151.615-6.948 5.34-12.597 10.064-17.588 15.764-3.392 3.872-6.375 8.108-9.26 12.205-.723 1.027-1.46 2.076-2.208 3.122.313-.712.657-1.45 1.036-2.224l.779-1.592-1.666.606a85.2 85.2 0 0 0-12.714 5.853 91.128 91.128 0 0 0-11.423 7.66c-6.834 5.36-13.357 12.005-19.389 19.75l-.157.202.007.257a.658.658 0 0 1-.14.448c-14.437 18.058-21.29 28.473-25.649 35.529-1.995 3.232-3.635 6.446-4.874 9.553-1.427 3.578-2.327 7.033-2.674 10.268-.56 5.215.29 9.884 2.53 13.952zm187.827-39.123c-.132 0-.35-.166-.45-.405-.111-.262 0-.377.037-.415a15.012 15.012 0 0 0 3.906-7.205c.543-2.381.587-5.083.132-8.031-.799-5.162-2.99-10.417-5.238-15.327-2.076-4.532-4.75-8.673-7.337-12.678-1.132-1.753-2.292-3.548-3.403-5.379l.124.125.825.832.363-1.114c1.861-5.7 1.987-11.22.375-16.402-1.262-4.06-3.532-7.158-5.75-9.984l-.4-.51-.546.348a.321.321 0 0 1-.173.055c-.118 0-.26-.082-.401-.23-2.665-2.813-6.691-7.061-11.07-7.061-1.71 0-3.33.65-4.815 1.934-1.589 1.374-2.53 3.058-2.72 4.87-.168 1.612.249 3.277 1.206 4.822.45 1.27 1.158 2.306 2.12 3.107a6.98 6.98 0 0 1-1.446-.987c-.917-.807-1.659-1.875-2.146-3.088-1.121-2.792-.778-5.928.895-8.185 1.732-2.336 3.873-3.52 6.362-3.52 4.351 0 9.03 3.584 11.957 6.94l.054.06.066.049c2.097 1.514 3.859 3.483 5.237 5.851 1.29 2.215 2.224 4.739 2.778 7.5 1.043 5.2.641 11.012-1.103 15.946l-.138.39.27.315c4.335 5.037 8.139 11.929 11.63 21.068 1.467 3.84 3.177 8.87 3.38 13.728.214 5.106-1.237 9.194-4.435 12.497-.08.084-.128.084-.146.084zm-40.41-49.878c-.144 0-.291-.101-.413-.284l-.57-.858-.161.221-.209-2.11c-.217-2.202.743-4.55 2.507-6.13 2.07-1.855 4.842-2.756 8.472-2.756.386 0 .785.01 1.193.031-1.562.312-3.329.725-5.01 1.324-3.044 1.084-4.964 2.475-5.872 4.253-.841 1.65-.75 3.565.271 5.693.096.2.11.372.038.485a.29.29 0 0 1-.246.13zm-1.855-.164c-.154 0-.266-.142-.333-.262-2.858-5.085-7.674-7.557-14.726-7.557-4.4 0-9.003.942-13.065 1.772l-.792.162a36.776 36.776 0 0 1 6.514-2.08c2.447-.54 4.85-.814 7.142-.814 3.078 0 5.84.494 8.21 1.468 2.62 1.076 4.725 2.732 6.254 4.924l1.32 1.89-.257.353a.345.345 0 0 1-.267.144zm-29.824-4.759a.781.781 0 0 1-.714-.509c-1.337-3.295-3.764-5.66-7.419-7.232l-.239-.102 1.283.273c1.487.317 2.93 1.068 4.174 2.171a10.805 10.805 0 0 1 2.798 3.924l.278.67.06-.026.063.505c.008.068.014.19-.038.248-.042.048-.137.078-.246.078zm-9.04-7.544c-.025-.01-.115-.105-.146-.268l-.023-.122.071-.141a.965.965 0 0 0 .013-.028c.522-.672 1.326-1.247 2.103-1.803.266-.19.54-.386.797-.582.427-.327.858-.636 1.299-.949l.251-.179c-.46.49-.945.996-1.45 1.494-.215.214-.432.438-.642.655-.22.228-.448.465-.675.688l-.943.93-.084-.036-.315.188c-.058.035-.106.07-.145.098-.013.01-.031.023-.04.028l-.002.002a.18.18 0 0 1-.068.025zm52.139-1.363a19.91 19.91 0 0 1-.71-1.263c-.086-.17-.176-.337-.263-.499-.332-.617-.647-1.202-.705-1.794.215.072.437.138.665.198.23.423.38.998.514 1.513.06.232.116.45.18.66.12.393.225.793.319 1.185zm-47.484-3.019l-.379-.517c-.159-.217-.195-.535-.128-.696.02-.05.04-.08.133-.094 3.432-.537 6.29-2.288 8.052-4.93 1.834-2.754 2.36-6.25 1.48-9.843-.815-3.33-3.046-6.518-6.283-8.978a22.646 22.646 0 0 0-2.694-1.755c-1.16-.645-2.803-1.045-4.287-1.045-1.287 0-2.4.292-3.237.847l.017-.055c.362-1.173 1.328-1.768 2.87-1.768 1.002 0 2.176.26 3.307.73 4.528 1.888 8.363 5.453 10.257 9.537a14.475 14.475 0 0 1 1.315 6.532c-.072 2.214-.648 4.343-1.665 6.156-1.736 3.094-4.61 5.017-8.093 5.417l-.263.03-.18.194-.222.238z" class="cls-7" transform="translate(-82.504 -348.346)"/>
                            <path d="M184.503 355.769c-4.31 3.276-8.318 7-11.836 10.98 3.764-4.155 7.877-7.775 11.836-10.98m-21.845 23.463c-.31.113-.624.228-.94.347a1.429 1.429 0 0 1 .717.501l.092-.13.49-.695a1.429 1.429 0 0 1-.359-.023m-6.604 2.262a68.588 68.588 0 0 0-9.084 3.797 72.658 72.658 0 0 0-11.573 7.27c-6.367 4.895-11.649 10.662-15.454 16.844a122.334 122.334 0 0 1 6.225-6.9 105.21 105.21 0 0 1 10.306-9.281 91.849 91.849 0 0 1 11.513-7.72 86.277 86.277 0 0 1 8.067-4.01m76.87 11.312a1.427 1.427 0 0 1-.952.408c.088.14.174.28.259.423a1.43 1.43 0 0 1 .896-.203 9.213 9.213 0 0 1-.202-.628m-116.26 21.047a583.578 583.578 0 0 0-5.45 7.072 623.358 623.358 0 0 1 5.446-6.905v-.005c-.002-.054 0-.108.004-.162m76.801-65.507c1.188 0 2.478.326 3.583.787 4.477 1.865 8.578 5.469 10.63 9.895 3.619 7.806.017 18.081-9.01 19.116a65.684 65.684 0 0 1-1.983 2.065c-.432.429-.867.899-1.318 1.344 3.337.711 6.168 3.343 7.484 6.52 4.106-1.766 9.15-2.986 14.02-2.986 5.954 0 11.648 1.823 15.05 6.697-.243-2.466.815-5.008 2.742-6.733 2.49-2.231 5.714-2.939 8.95-2.939.58 0 1.161.023 1.739.064a25.562 25.562 0 0 1-1.293-2.2c-.44-.864-.995-1.698-1.052-2.655-6.111-1.043-8.794-9.047-5.098-14.032 2.03-2.736 4.446-3.81 6.937-3.81 4.557 0 9.363 3.594 12.496 7.185 9.063 6.546 10.675 20.192 7.167 30.115 5.254 6.106 9.002 14.07 11.756 21.28 3.381 8.85 6.16 19.365-1.21 26.978-.204.212-.433.301-.659.301-.854 0-1.659-1.278-.927-2.033 7.96-8.217 2.737-20.872-1.337-29.767-3.324-7.26-8.112-13.365-12.028-20.236-.13-.226.041-.553.268-.553a.29.29 0 0 1 .19.078c.73.622 1.429 1.287 2.113 1.977 1.7-5.207 2.025-10.653.372-15.967-1.182-3.801-3.291-6.775-5.63-9.755a1.034 1.034 0 0 1-.556.166c-.296 0-.617-.133-.92-.454-2.713-2.863-6.532-6.837-10.55-6.837-1.438 0-2.901.509-4.348 1.76-3.102 2.682-3.056 6.114-1.333 8.84.854 2.491 2.693 3.814 5.161 4.38.004.021.019.04.019.06.476.71.649 1.758.882 2.524.276.909.474 1.826.654 2.756.122.012.246.019.37.033.42.05.634.785.13.878-5.054.919-15.817 2.858-12.087 10.632.445.927-.154 1.64-.853 1.64-.35 0-.727-.18-1.009-.603-.197.272-.515.44-.846.44-.347 0-.708-.185-.957-.627-3.136-5.582-8.416-7.192-14.102-7.192-4.635 0-9.54 1.07-13.772 1.93.093.748-.413 1.13-.993 1.13a1.5 1.5 0 0 1-1.376-.955c-1.366-3.367-3.866-5.48-7.04-6.845-.073.044-.138.103-.214.143a.856.856 0 0 1-.41.113c-.437 0-.764-.402-.849-.852-.252-.163-.336-.659.038-.709.025-.004.048-.004.073-.006.015-.03.023-.061.042-.086.775-1.033 2.05-1.793 3.077-2.576a44.8 44.8 0 0 1 1.318-.963c-.472-.644-.434-1.78.472-1.92 6.901-1.08 10.612-7.098 8.948-13.896-.844-3.447-3.233-6.458-6.022-8.578a21.979 21.979 0 0 0-2.609-1.7c-.99-.55-2.49-.955-3.94-.955-1.122 0-2.214.243-3.013.85.122.48.03 1.022-.41 1.358-6.277 4.825-12.25 9.69-17.484 15.667-4.775 5.45-8.65 11.51-12.918 17.34-.072.1-.153.14-.234.14-.263 0-.518-.433-.417-.7a52.78 52.78 0 0 1 1.956-4.462c-17.705 6.435-31.731 18.297-43.205 33.03.008.32-.074.639-.296.916-9.076 11.35-17.956 23.08-25.6 35.457-7.295 11.814-12.29 27.427-.807 38.45.214.206.056.557-.185.557a.298.298 0 0 1-.17-.058c-10.538-7.316-9.982-21.584-5.446-32.206 3.477-8.137 8.951-15.489 14.013-22.696 5.188-7.386 10.601-14.612 16.167-21.716.242-.308.527-.438.813-.438.04 0 .08.003.12.007 8.216-16.026 25.233-28.455 42.254-33.133 1.11-.445 2.225-.871 3.348-1.276a.918.918 0 0 1 .628-.012c6.184-10.923 16.078-20.596 26.253-27.06.187-.12.369-.17.54-.17.065 0 .129.007.19.02.518-1.672 1.941-2.272 3.553-2.272z" class="cls-8" transform="translate(-82.504 -348.346)"/>
                        </g>
                        <g id="Path_2480" class="cls-6" data-name="Path 2480">
                            <path d="M123.898 389.375l-.139-.184a1.018 1.018 0 0 0-.096-.11c-1.868-2.928-4.213-4.585-6.695-6.338l-.786-.557.469.107c1.384.318 2.831 1.106 4.183 2.277a15.835 15.835 0 0 1 3.145 3.77l.462.777-.036.02-.094.125c-.05.068-.14.106-.245.106h-.153l-.015.007zm.59-.284l.611-.61c.6-.6 1.253-1.18 1.884-1.74l.233-.207a35.2 35.2 0 0 0 .787-.728c.552-.521 1.124-1.06 1.717-1.477l.735-.517-.138-.123.487.097c.1.02.196.116.245.244a.399.399 0 0 1-.047.39c-.614.809-1.603 1.453-2.56 2.076a35.293 35.293 0 0 0-1.338.906c-.827.58-1.683 1.18-2.561 1.66l-.054.029zm5.674-5.542l-.374-.337a1.102 1.102 0 0 0-.11-.087c-1.822-1.988-3.668-4.133-4.862-6.358l-.172-.322c2.036 1.555 3.877 3.924 5.466 6.063a.636.636 0 0 1 .125.484l-.073.557zm-14.483-2.265c.474-.75 1.405-1.386 2.24-1.957.288-.197.56-.384.819-.575.285-.212.568-.43.867-.66 1.214-.932 2.469-1.897 3.748-2.384a.323.323 0 0 1 .116-.021c.123 0 .265.068.38.183l.052.051.06.04c.08.052.159.105.238.16l-.498.458c-.993.915-2.3 1.638-3.565 2.337-.27.15-.548.303-.815.455-.278.158-.556.329-.85.51-.63.388-1.28.79-1.93 1.052l-.862.35z" class="cls-7" transform="translate(-47.075 -319.091)"/>
                            <path d="M123.581 390.268c-.31 0-.511-.353-.394-.648-.032-.042-.071-.065-.1-.113-2.177-3.434-4.99-5.02-8.152-7.34a.45.45 0 0 1-.133-.577.423.423 0 0 1 .023-.206c.563-1.406 2.296-2.323 3.486-3.207 1.463-1.087 3.084-2.489 4.788-3.137a1.04 1.04 0 0 1 .37-.069c.333 0 .65.159.885.392 2.447 1.603 4.636 4.439 6.33 6.718.241.323.302.68.26 1.003.716.143 1.133 1.104.628 1.77-.899 1.181-2.41 1.985-3.62 2.829-.996.692-1.997 1.423-3.067 2.006a1.007 1.007 0 0 1-.819.395c-.102.046-.201.105-.308.147a.463.463 0 0 1-.177.037zm.605-13.163c-1.282 1.181-3.014 2.038-4.512 2.888-.871.495-1.85 1.192-2.863 1.603 3.245.745 6.139 3.619 7.782 6.379.689-.689 1.427-1.335 2.147-1.975.815-.722 1.644-1.606 2.57-2.257-.043-.037-.083-.052-.125-.096-1.714-1.87-3.72-4.16-4.999-6.542z" class="cls-8" transform="translate(-47.075 -319.091)"/>
                        </g>
                        <g id="Path_2481" class="cls-6" data-name="Path 2481">
                            <path d="M104.04 460.275c11.829-15.334 22.972-30.772 30.594-49.313l.555-1.35-1.407.389c-1.411.39-2.807.718-4.173.983l1.903-.826c6.822-2.956 13.876-6.012 20.33-10.258 8.482-5.58 14.953-12.415 21.805-19.65.085-.09.154-.102.21-.102.216 0 .502.21.637.468.093.175.1.323.02.438-4.112 5.956-9.757 11.706-16.325 16.63-6.66 4.992-13.98 8.91-21.169 11.33l-.52.175.035.547a.68.68 0 0 1-.044.299c-4.103 10.413-8.856 19.89-14.126 28.165-5.56 8.729-11.715 16.142-18.325 22.075z" class="cls-7" transform="translate(-61.332 -314.189)"/>
                            <path d="M172.921 382.056c-6.43 6.778-12.652 13.155-20.686 18.442-3.882 2.553-7.97 4.676-12.09 6.603 6.02-2.404 12.05-5.818 17.615-9.99 5.987-4.488 11.198-9.666 15.161-15.055m-36.912 26.92c-.407.18-.815.36-1.222.538a1.429 1.429 0 0 1 .606 1.348 195.52 195.52 0 0 0 .428-1.081 1.428 1.428 0 0 1 .188-.804m-2.436 6.267c-6.003 13.388-13.801 25.193-22.266 36.626 3.673-4.198 7.168-8.894 10.454-14.054 4.308-6.765 8.27-14.336 11.812-22.572m40.285-35.811c.9 0 1.827 1.184 1.244 2.028-8.399 12.166-22.942 23.21-37.853 28.23.012.202-.013.406-.093.607-7.53 19.112-18.746 38.893-34.676 52.279a.41.41 0 0 1-.267.106c-.328 0-.588-.455-.344-.772 12.63-16.29 24.243-32.1 32.103-51.22a52.765 52.765 0 0 1-7.133 1.467c-.304 0-.558-.496-.223-.643 8.502-3.769 17.017-7.07 24.833-12.213 8.37-5.507 14.857-12.34 21.678-19.543a.985.985 0 0 1 .73-.326z" class="cls-8" transform="translate(-61.332 -314.189)"/>
                        </g>
                    </g>
                    <g id="Path_2482" class="cls-6" data-name="Path 2482">
                        <path d="M146.62 354.174c-.07 0-.14-.045-.2-.132-1.557-2.239-3.233-4.514-4.855-6.715-3.76-5.102-7.648-10.379-10.567-15.87-.318-.6-.356-1.133-.11-1.542.227-.378.683-.613 1.189-.613.342 0 .995.113 1.524.868 3.55 5.076 6.465 10.905 9.285 16.542 1.213 2.424 2.467 4.93 3.743 7.318.037.07.046.113.048.132a.126.126 0 0 1-.057.012z" class="cls-7" transform="translate(-30.302 -315.625)"/>
                        <path d="M142.268 347.076l-.022-.044c-2.808-5.614-5.712-11.419-9.231-16.452-.343-.49-.735-.562-.938-.562-.25 0-.48.107-.576.266-.151.251.04.669.129.836 2.894 5.446 6.766 10.701 10.511 15.783l.127.173m4.352 7.814c-.277 0-.574-.133-.787-.44-5.132-7.379-11.248-14.72-15.466-22.658-.987-1.857.261-3.205 1.71-3.205.741 0 1.536.354 2.11 1.173 5.125 7.33 8.854 16.043 13.073 23.933.37.692-.098 1.197-.64 1.197z" class="cls-8" transform="translate(-30.302 -315.625)"/>
                    </g>
                    <g id="Path_2483" class="cls-6" data-name="Path 2483">
                        <path d="M149.146 359.207a.56.56 0 0 1-.374-.157c-.063-.066-.061-.11-.06-.127.115-3.281.146-6.699.177-10.004.074-8.176.152-16.63 1.477-24.494.18-1.073.958-1.299 1.578-1.299.729 0 1.522.336 2.023.856.258.268.562.716.539 1.321-.3 8.012-1.922 16.322-3.49 24.36-.61 3.121-1.24 6.349-1.773 9.474a.208.208 0 0 1-.017.058.212.212 0 0 1-.08.012z" class="cls-7" transform="translate(-10.543 -322.411)"/>
                        <path d="M151.944 322.411v1.43c-.663 0-.811.338-.873.703-1.315 7.808-1.393 16.234-1.467 24.382-.014 1.49-.028 3.003-.05 4.516.252-1.314.507-2.624.76-3.917 1.563-8.01 3.18-16.292 3.477-24.25.01-.283-.104-.552-.34-.797a2.221 2.221 0 0 0-1.507-.636v-1.43m0 0c1.57 0 3.342 1.19 3.276 2.918-.42 11.225-3.38 22.848-5.272 33.927-.08.468-.424.665-.802.665-.55 0-1.17-.418-1.15-1.024.4-11.3-.214-23.443 1.665-34.592.224-1.334 1.206-1.895 2.283-1.895z" class="cls-8" transform="translate(-10.543 -322.411)"/>
                    </g>
                    <g id="Path_2484" class="cls-6" data-name="Path 2484">
                        <path d="M159.352 358c-.114-.005-.272-.148-.297-.229a143.45 143.45 0 0 0 13.315-26.201c.248-.642.708-.968 1.368-.968.965 0 2.108.693 2.658 1.611.282.471.527 1.202.093 2.013a111.157 111.157 0 0 1-7.777 12.465c-2.84 3.94-5.99 7.745-9.36 11.309z" class="cls-7" transform="translate(.819 -314.197)"/>
                        <path d="M173.738 329.887v1.43c-.367 0-.557.139-.7.51a144.825 144.825 0 0 1-10.28 21.302 109.398 109.398 0 0 0 5.374-6.857 110.438 110.438 0 0 0 7.727-12.384c.082-.154.333-.623-.077-1.307-.417-.697-1.334-1.263-2.044-1.264v-1.43m0 0c2.069 0 4.61 2.382 3.382 4.676a110.752 110.752 0 0 1-17.252 23.933.682.682 0 0 1-.51.219c-.618 0-1.291-.733-.911-1.321a142.098 142.098 0 0 0 13.256-26.082c.39-1.01 1.171-1.425 2.035-1.425z" class="cls-8" transform="translate(.819 -314.197)"/>
                    </g>
                    <g id="Path_2485" class="cls-6" data-name="Path 2485">
                        <path d="M122.075 351.812c-.533 0-1.116-.221-1.6-.607-.453-.361-.778-.835-.87-1.268-.04-.197-.167-.798.8-1.223 5.535-2.438 11.756-3.674 18.49-3.674 2.737 0 5.55.21 8.364.622a.446.446 0 0 1 .309.184.3.3 0 0 1 .056.139.485.485 0 0 1-.17.033c-4.123.229-8.248.856-12.61 1.919-3.625.882-7.48 2.079-12.132 3.765-.202.073-.416.11-.637.11z" class="cls-7" transform="translate(-42.552 -298.333)"/>
                        <path d="M138.893 345.755c-6.632 0-12.756 1.216-18.2 3.613-.299.132-.373.248-.385.27-.02.037-.012.104-.002.152.12.576.978 1.307 1.768 1.307.14 0 .27-.022.395-.068 4.677-1.695 8.555-2.898 12.205-3.787a73.94 73.94 0 0 1 7.257-1.401 54.83 54.83 0 0 0-3.037-.086h-.001m.001-1.43c2.838 0 5.676.22 8.469.63 1.106.161 1.433 1.706.13 1.777-8.672.481-16.43 2.704-24.537 5.642-.29.105-.587.153-.882.153-2.429 0-4.7-3.26-1.958-4.468 5.917-2.605 12.348-3.734 18.778-3.734z" class="cls-8" transform="translate(-42.552 -298.333)"/>
                    </g>
                    <g id="Path_2486" class="cls-6" data-name="Path 2486">
                        <path d="M178.807 362.748c-.328 0-.662-.197-.965-.57-4.356-5.343-8.908-9.299-15.221-13.226-.026-.017-.066-.092-.074-.21a.514.514 0 0 1 .07-.312l.014.003c6.476 1.711 12.972 6.335 16.952 12.066.514.74.28 1.373.155 1.61-.203.388-.568.639-.93.639z" class="cls-7" transform="translate(4.658 -294.611)"/>
                        <path d="M178.807 363.463v-1.43c.08 0 .211-.09.298-.256.08-.151.17-.467-.11-.87-3.113-4.484-7.801-8.273-12.791-10.461 4.789 3.318 8.557 6.821 12.192 11.28.184.226.337.307.411.307v1.43m0 0c-.501 0-1.04-.244-1.52-.833-4.49-5.507-9.023-9.325-15.044-13.071-.69-.429-.477-1.847.356-1.847.067 0 .14.01.215.03 6.766 1.788 13.367 6.604 17.357 12.349 1.09 1.572 0 3.372-1.364 3.372z" class="cls-8" transform="translate(4.658 -294.611)"/>
                    </g>
                </g>
                <g id="Path_2487" class="cls-6" data-name="Path 2487">
                    <path d="M165.616 354.816a26.931 26.931 0 0 0-9.01 6.124c-.145.145.1.392.252.25a28.035 28.035 0 0 1 9.115-5.8c.371-.15-.004-.717-.357-.574z" class="cls-7" transform="translate(-1.131 -286.83)"/>
                    <path d="M165.732 354.793c.31 0 .571.464.24.598-3.39 1.373-6.478 3.247-9.114 5.799a.143.143 0 0 1-.102.043c-.133 0-.264-.178-.15-.293 2.598-2.619 5.58-4.735 9.01-6.124a.308.308 0 0 1 .116-.023z" class="cls-8" transform="translate(-1.131 -286.83)"/>
                </g>
                <g id="Path_2488" class="cls-6" data-name="Path 2488">
                    <path d="M167.486 355.237a32.389 32.389 0 0 0-10.786 6.882c-.176.172.113.443.3.3a43.176 43.176 0 0 1 10.9-6.515c.424-.178-.009-.826-.414-.667z" class="cls-7" transform="translate(-1.039 -286.37)"/>
                    <path d="M167.617 355.212c.358 0 .66.533.279.688-3.963 1.604-7.569 3.833-10.897 6.515a.189.189 0 0 1-.12.042c-.162 0-.32-.2-.178-.338 3.106-3.03 6.75-5.276 10.785-6.882a.356.356 0 0 1 .131-.025z" class="cls-8" transform="translate(-1.039 -286.37)"/>
                </g>
                <g id="Path_2489" class="cls-6" data-name="Path 2489">
                    <path d="M168.859 355.761c-4.368 1.467-8.446 4.376-11.953 7.31-.187.157.111.439.3.3 3.763-2.884 7.8-4.758 11.99-6.882.389-.199.047-.858-.337-.728z" class="cls-7" transform="translate(-.818 -285.785)"/>
                    <path d="M168.96 355.744c.338 0 .59.563.237.74-4.19 2.125-8.228 4-11.99 6.883a.19.19 0 0 1-.118.039c-.168 0-.334-.208-.183-.335 3.507-2.934 7.585-5.843 11.953-7.31a.312.312 0 0 1 .1-.017z" class="cls-8" transform="translate(-.818 -285.785)"/>
                </g>
                <g id="Path_2490" class="cls-6" data-name="Path 2490">
                    <path d="M163.967 354.588a17.184 17.184 0 0 0-7 4.584c-.149.149.1.393.26.256a33.04 33.04 0 0 1 7-4.288c.296-.152.036-.64-.26-.552z" class="cls-7" transform="translate(-.735 -287.068)"/>
                    <path d="M164.039 354.577c.263 0 .46.424.186.563-2.489 1.274-4.865 2.432-6.997 4.287a.157.157 0 0 1-.105.04c-.14 0-.273-.177-.155-.296 1.952-1.962 4.313-3.788 7-4.583a.248.248 0 0 1 .07-.011z" class="cls-8" transform="translate(-.735 -287.068)"/>
                </g>
                <g id="Path_2491" class="cls-6" data-name="Path 2491">
                    <path d="M170.276 356.115a71.989 71.989 0 0 0-12.878 7.463c-.183.124.017.428.2.315a143.994 143.994 0 0 1 13.132-7.052c.459-.235-.017-.907-.454-.726z" class="cls-7" transform="translate(-.292 -285.411)"/>
                    <path d="M170.428 356.085c.383 0 .707.548.297.756-4.43 2.244-8.949 4.357-13.132 7.052a.15.15 0 0 1-.081.025c-.15 0-.269-.235-.114-.34 4.111-2.816 8.254-5.539 12.878-7.463a.396.396 0 0 1 .152-.03z" class="cls-8" transform="translate(-.292 -285.411)"/>
                </g>
                <g id="Path_2492" class="cls-6" data-name="Path 2492">
                    <path d="M171.94 356.744a60.849 60.849 0 0 0-14.337 7.965c-.2.155.094.47.294.369 4.846-2.481 9.589-5.2 14.438-7.7.409-.208-.013-.79-.395-.634z" class="cls-7" transform="translate(-.059 -284.716)"/>
                    <path d="M172.073 356.718c.335 0 .624.476.262.664-4.848 2.493-9.592 5.215-14.438 7.696a.183.183 0 0 1-.083.02c-.185 0-.382-.255-.21-.39 4.195-3.272 9.412-5.981 14.336-7.964a.35.35 0 0 1 .133-.026z" class="cls-8" transform="translate(-.059 -284.716)"/>
                </g>
                <g id="Path_2493" class="cls-6" data-name="Path 2493">
                    <path d="M172.5 357.578c-4.949 1.736-10.376 4.338-14.356 7.805-.174.151.084.437.271.34 2.4-1.259 4.6-2.852 7.033-4.059s4.924-2.252 7.411-3.318c.424-.182.041-.908-.359-.768z" class="cls-7" transform="translate(.546 -283.789)"/>
                    <path d="M172.606 357.56c.357 0 .64.62.255.787-2.487 1.066-4.985 2.113-7.411 3.318-2.432 1.207-4.634 2.8-7.033 4.059a.175.175 0 0 1-.081.02c-.17 0-.34-.23-.19-.36 3.98-3.467 9.407-6.07 14.356-7.806a.313.313 0 0 1 .104-.018z" class="cls-8" transform="translate(.546 -283.789)"/>
                </g>
                <g id="Path_2494" class="cls-6" data-name="Path 2494">
                    <path d="M171.509 358.621a44.822 44.822 0 0 0-11.587 5.954c-.212.145.013.5.231.371 3.769-2.151 7.736-3.843 11.634-5.732.32-.156.035-.691-.278-.593z" class="cls-7" transform="translate(2.467 -282.637)"/>
                    <path d="M171.586 358.61c.28 0 .494.461.2.605-3.897 1.89-7.864 3.58-11.634 5.732a.19.19 0 0 1-.094.026c-.18 0-.318-.274-.136-.397 3.584-2.429 7.427-4.658 11.587-5.955a.256.256 0 0 1 .077-.012z" class="cls-8" transform="translate(2.467 -282.637)"/>
                </g>
                <g id="Path_2495" class="cls-6" data-name="Path 2495">
                    <path d="M170.3 359.593a36.042 36.042 0 0 0-9.711 4.645c-.237.162.006.533.252.409 3.215-1.622 6.443-3.024 9.793-4.338.404-.158.043-.83-.334-.716z" class="cls-7" transform="translate(3.186 -281.57)"/>
                    <path d="M170.386 359.58c.342 0 .62.583.246.728-3.35 1.314-6.577 2.716-9.793 4.339a.222.222 0 0 1-.1.024c-.203 0-.356-.294-.151-.434 2.946-1.996 6.298-3.62 9.71-4.644a.3.3 0 0 1 .088-.013z" class="cls-8" transform="translate(3.186 -281.57)"/>
                </g>
                <g id="Path_2496" class="cls-6" data-name="Path 2496">
                    <path d="M168.521 360.313a69.185 69.185 0 0 0-6.884 3.673c-.222.122.006.451.218.355a69.926 69.926 0 0 0 7.065-3.381c.398-.246-.009-.807-.399-.647z" class="cls-7" transform="translate(4.345 -280.796)"/>
                    <path d="M168.662 360.285c.336 0 .608.458.258.674-2.2 1.346-4.727 2.294-7.065 3.381a.19.19 0 0 1-.08.018c-.182 0-.333-.266-.138-.372 2.252-1.237 4.504-2.702 6.884-3.673a.372.372 0 0 1 .141-.028z" class="cls-8" transform="translate(4.345 -280.796)"/>
                </g>
                <g id="Path_2497" class="cls-6" data-name="Path 2497">
                    <path d="M167.761 360.911a36.592 36.592 0 0 0-5.432 2.672c-.413.214.013.831.405.653a35.85 35.85 0 0 0 5.381-2.565c.36-.244.074-.897-.354-.76z" class="cls-7" transform="translate(5.021 -280.129)"/>
                    <path d="M167.877 360.892c.36 0 .564.558.239.779-1.595 1.082-3.625 1.77-5.381 2.564a.35.35 0 0 1-.146.032c-.34 0-.622-.497-.26-.685 1.75-.91 3.552-2.069 5.432-2.671a.379.379 0 0 1 .116-.019z" class="cls-8" transform="translate(5.021 -280.129)"/>
                </g>
            </g>
        </g>
    </g>
</svg>
