<svg xmlns="http://www.w3.org/2000/svg" width="24" height="24" viewBox="0 0 24 24">
    <defs>
        <style>
            .cls-1{fill:none}.cls-2{clip-path:url(#clip-path)}.cls-3{fill:#999}
        </style>
        <clipPath id="clip-path">
            <path d="M0 0h24v24H0z" class="cls-1"/>
        </clipPath>
    </defs>
    <g id="Component" class="cls-2">
        <path id="Rectangle_936" d="M0 0h24v24H0z" class="cls-1" data-name="Rectangle 936"/>
        <path id="Path_93" d="M2068 2471.775a3.772 3.772 0 1 1 3.772-3.772 3.776 3.776 0 0 1-3.772 3.772zm0-6.159a2.387 2.387 0 1 0 2.387 2.387 2.39 2.39 0 0 0-2.387-2.387zm0 11.384h-.106a11.348 11.348 0 0 1-1.3-.079.692.692 0 0 1-.6-.592l-.193-1.4a7.2 7.2 0 0 1-1.242-.526l-1.107.832a.693.693 0 0 1-.84-.006 11.467 11.467 0 0 1-.976-.865l-.075-.075a11.579 11.579 0 0 1-.865-.976.692.692 0 0 1 0-.842l.855-1.128a7.2 7.2 0 0 1-.506-1.249l-1.372-.195a.693.693 0 0 1-.59-.6 11.443 11.443 0 0 1-.079-1.3v-.106a11.443 11.443 0 0 1 .079-1.3.692.692 0 0 1 .593-.6l1.4-.193a7.239 7.239 0 0 1 .525-1.239l-.834-1.11a.693.693 0 0 1 .006-.84 11.471 11.471 0 0 1 .865-.976l.075-.075a11.44 11.44 0 0 1 .977-.865.692.692 0 0 1 .842 0l1.13.857a7.213 7.213 0 0 1 1.245-.5l.2-1.376a.693.693 0 0 1 .6-.59 11.454 11.454 0 0 1 1.3-.079h.107a11.447 11.447 0 0 1 1.3.079.693.693 0 0 1 .6.593l.193 1.406a7.2 7.2 0 0 1 1.238.524l1.111-.835a.692.692 0 0 1 .84.006 11.421 11.421 0 0 1 .976.865l.075.075a11.4 11.4 0 0 1 .865.976.693.693 0 0 1 0 .842l-.857 1.129a7.2 7.2 0 0 1 .506 1.246l1.374.2a.693.693 0 0 1 .589.6 11.455 11.455 0 0 1 .079 1.3v.106a11.443 11.443 0 0 1-.079 1.3.693.693 0 0 1-.593.6l-1.4.192a7.192 7.192 0 0 1-.526 1.24l.833 1.11a.693.693 0 0 1-.006.839 11.439 11.439 0 0 1-.865.976l-.075.075a11.369 11.369 0 0 1-.976.865.693.693 0 0 1-.842 0l-1.131-.859a7.194 7.194 0 0 1-1.244.5l-.2 1.379a.692.692 0 0 1-.6.589 11.346 11.346 0 0 1-1.299.075zm-.71-1.405c.178.012.387.021.6.021h.11c.218 0 .428-.009.606-.021l.183-1.29a.692.692 0 0 1 .531-.578 5.856 5.856 0 0 0 1.72-.7.693.693 0 0 1 .8.06l1.029.781c.134-.117.288-.259.441-.412l.075-.075c.154-.154.3-.309.414-.443l-.78-1.039a.692.692 0 0 1-.032-.784 5.833 5.833 0 0 0 .713-1.662.691.691 0 0 1 .587-.568l1.309-.179c.011-.178.021-.387.021-.6V2468c0-.218-.009-.428-.021-.606l-1.286-.183a.693.693 0 0 1-.577-.53 5.828 5.828 0 0 0-.687-1.7.695.695 0 0 1 .029-.8l.8-1.052a9.086 9.086 0 0 0-.412-.441l-.075-.075a7.853 7.853 0 0 0-.443-.414l-1.042.783a.692.692 0 0 1-.825.006 5.841 5.841 0 0 0-1.666-.7.691.691 0 0 1-.521-.578l-.179-1.309a9.818 9.818 0 0 0-.6-.021H2068c-.217 0-.427.009-.606.021l-.183 1.29a.693.693 0 0 1-.58.587 5.825 5.825 0 0 0-1.671.685.694.694 0 0 1-.806-.064l-1.023-.776a9.613 9.613 0 0 0-.441.412l-.075.075a7.5 7.5 0 0 0-.414.443l.783 1.042a.694.694 0 0 1 0 .833 5.837 5.837 0 0 0-.694 1.658.693.693 0 0 1-.578.52l-1.307.179a9.076 9.076 0 0 0-.021.6v.115c0 .217.009.427.021.606l1.29.183a.692.692 0 0 1 .588.589v.026a5.84 5.84 0 0 0 .677 1.639.693.693 0 0 1-.064.807l-.772 1.02c.118.134.259.288.412.441l.075.075c.154.155.309.3.443.414l1.042-.783a.692.692 0 0 1 .861.023 5.829 5.829 0 0 0 1.628.675.693.693 0 0 1 .521.578z" class="cls-3" data-name="Path 93" transform="translate(-2056 -2456)"/>
    </g>
</svg>
