<svg xmlns="http://www.w3.org/2000/svg" width="24" height="24" viewBox="0 0 24 24">
    <defs>
        <style>
            .cls-1{fill:none}.cls-2{clip-path:url(#clip-path)}.cls-3{fill:#999}
        </style>
        <clipPath id="clip-path">
            <path d="M0 0h24v24H0z" class="cls-1"/>
        </clipPath>
    </defs>
    <g id="Component" class="cls-2">
        <path id="Path_85" d="M2519.352 2251.321a.878.878 0 0 1-.878-.878v-7.565a.878.878 0 1 1 1.756 0v7.565a.878.878 0 0 1-.878.878zm8.331.3a8.342 8.342 0 0 0-4.641-7.514.878.878 0 0 0-.783 1.572 6.585 6.585 0 1 1-5.837 0 .878.878 0 0 0-.783-1.572 8.372 8.372 0 1 0 12.044 7.513z" class="cls-3" data-name="Path 85" transform="translate(-2507 -2239)"/>
        <path id="Rectangle_936" d="M0 0h24v24H0z" class="cls-1" data-name="Rectangle 936"/>
    </g>
</svg>
