<svg xmlns="http://www.w3.org/2000/svg" width="85.283" height="25.121" viewBox="0 0 85.283 25.121">
    <defs>
        <style>
            .cls-1{fill:#d7c2f0;stroke:#c89fff}.cls-2,.cls-6{fill:none}.cls-3{fill:#d5f7d6}.cls-4{clip-path:url(#clip-path)}.cls-5{opacity:.2;clip-path:url(#clip-path-2)}.cls-6{stroke:#83ba86}.cls-7{fill:#4d7b62;font-size:12px;font-family:Roboto-Bold,Roboto;font-weight:700}.cls-8,.cls-9{stroke:none}.cls-9{fill:#afdeb1}
        </style>
        <clipPath id="clip-path">
            <rect id="Rectangle_1237" width="85" height="25" class="cls-1" data-name="Rectangle 1237" rx="4"/>
        </clipPath>
        <clipPath id="clip-path-2">
            <path d="M0 0h129.334v27.571H0z" class="cls-2"/>
        </clipPath>
    </defs>
    <g id="Group_5675" data-name="Group 5675" transform="translate(-588 -520)">
        <g id="Group_5662" data-name="Group 5662" transform="translate(497 64)">
            <g id="Path_2944" class="cls-3" data-name="Path 2944">
                <path d="M81.739 24.62H3.544c-.78 0-1.525-.445-2.098-1.255C.836 22.503.5 21.348.5 20.113V5.008c0-1.235.336-2.39.946-3.252C2.02.946 2.764.5 3.544.5H81.74c.78 0 1.525.446 2.098 1.256.61.862.946 2.017.946 3.252v15.105c0 1.235-.336 2.39-.946 3.252-.573.81-1.318 1.256-2.098 1.256z" class="cls-8" transform="translate(91 456)"/>
                <path d="M3.544 1C2.165 1 1 2.835 1 5.008v15.105c0 2.172 1.165 4.008 2.544 4.008H81.74c1.38 0 2.544-1.836 2.544-4.008V5.008C84.283 2.835 83.118 1 81.74 1H3.544m0-1H81.74c1.957 0 3.544 2.242 3.544 5.008v15.105c0 2.765-1.587 5.008-3.544 5.008H3.544C1.587 25.12 0 22.878 0 20.113V5.008C0 2.242 1.587 0 3.544 0z" class="cls-9" transform="translate(91 456)"/>
            </g>
            <g id="Mask_Group_21" class="cls-4" data-name="Mask Group 21" transform="translate(91 456)">
                <g id="Repeat_Grid_56" class="cls-5" data-name="Repeat Grid 56">
                    <g transform="translate(-51.052 -24.253)">
                        <path id="Line_1205" d="M0 0v94" class="cls-6" data-name="Line 1205" transform="rotate(45 9.282 101.845)"/>
                    </g>
                    <g transform="translate(-41.052 -24.253)">
                        <path id="Line_1206" d="M0 0v94" class="cls-6" data-name="Line 1206" transform="rotate(45 9.282 101.845)"/>
                    </g>
                    <g transform="translate(-31.052 -24.253)">
                        <path id="Line_1207" d="M0 0v94" class="cls-6" data-name="Line 1207" transform="rotate(45 9.282 101.845)"/>
                    </g>
                    <g transform="translate(-21.052 -24.253)">
                        <path id="Line_1208" d="M0 0v94" class="cls-6" data-name="Line 1208" transform="rotate(45 9.282 101.845)"/>
                    </g>
                    <g transform="translate(-11.052 -24.253)">
                        <path id="Line_1209" d="M0 0v94" class="cls-6" data-name="Line 1209" transform="rotate(45 9.282 101.845)"/>
                    </g>
                    <g transform="translate(-1.052 -24.253)">
                        <path id="Line_1210" d="M0 0v94" class="cls-6" data-name="Line 1210" transform="rotate(45 9.282 101.845)"/>
                    </g>
                    <g transform="translate(8.948 -24.253)">
                        <path id="Line_1211" d="M0 0v94" class="cls-6" data-name="Line 1211" transform="rotate(45 9.282 101.845)"/>
                    </g>
                    <g transform="translate(18.948 -24.253)">
                        <path id="Line_1212" d="M0 0v94" class="cls-6" data-name="Line 1212" transform="rotate(45 9.282 101.845)"/>
                    </g>
                    <g transform="translate(28.948 -24.253)">
                        <path id="Line_1213" d="M0 0v94" class="cls-6" data-name="Line 1213" transform="rotate(45 9.282 101.845)"/>
                    </g>
                    <g transform="translate(38.948 -24.253)">
                        <path id="Line_1214" d="M0 0v94" class="cls-6" data-name="Line 1214" transform="rotate(45 9.282 101.845)"/>
                    </g>
                    <g transform="translate(48.948 -24.253)">
                        <path id="Line_1215" d="M0 0v94" class="cls-6" data-name="Line 1215" transform="rotate(45 9.282 101.845)"/>
                    </g>
                    <g transform="translate(58.948 -24.253)">
                        <path id="Line_1216" d="M0 0v94" class="cls-6" data-name="Line 1216" transform="rotate(45 9.282 101.845)"/>
                    </g>
                    <g transform="translate(68.948 -24.253)">
                        <path id="Line_1217" d="M0 0v94" class="cls-6" data-name="Line 1217" transform="rotate(45 9.282 101.845)"/>
                    </g>
                </g>
            </g>
        </g>
        <g id="Group_5674" data-name="Group 5674" transform="translate(603.001 524)">
            <text id="Soft_Skills" class="cls-7" data-name="Soft Skills" transform="translate(0 13)">
                <tspan x="0" y="0">Soft Skills</tspan>
            </text>
        </g>
    </g>
</svg>
