<svg xmlns="http://www.w3.org/2000/svg" width="93" height="25" viewBox="0 0 93 25">
    <defs>
        <style>
            .cls-1{fill:#dff6f8;stroke:#a6e3e9}.cls-2,.cls-7{fill:none}.cls-3{fill:#c4f1f5}.cls-4{fill:#328189;font-size:12px;font-family:Roboto-Bold,Roboto;font-weight:700}.cls-5{clip-path:url(#clip-path)}.cls-6{opacity:.1;clip-path:url(#clip-path-2)}.cls-7{stroke:#328189}.cls-8,.cls-9{stroke:none}.cls-9{fill:#a6e3e9}
        </style>
        <clipPath id="clip-path">
            <rect id="Rectangle_1237" width="93" height="24" class="cls-1" data-name="Rectangle 1237" rx="4" transform="translate(91 570)"/>
        </clipPath>
        <clipPath id="clip-path-2">
            <path d="M0 0h140.862v26.87H0z" class="cls-2"/>
        </clipPath>
    </defs>
    <g id="Group_5664" data-name="Group 5664" transform="translate(-91 -456)">
        <g id="Path_2944" class="cls-3" data-name="Path 2944">
            <path d="M89.405 24.5H3.54C1.864 24.5.5 22.93.5 21V4C.5 2.07 1.864.5 3.54.5h85.865c1.676 0 3.04 1.57 3.04 3.5v17c0 1.93-1.364 3.5-3.04 3.5z" class="cls-8" transform="translate(91 456)"/>
            <path d="M3.54 1C2.14 1 1 2.346 1 4v17c0 1.654 1.14 3 2.54 3h85.865c1.4 0 2.54-1.346 2.54-3V4c0-1.654-1.14-3-2.54-3H3.54m0-1h85.864c1.955 0 3.54 1.79 3.54 4v17c0 2.21-1.585 4-3.54 4H3.54C1.585 25 0 23.21 0 21V4c0-2.21 1.585-4 3.54-4z" class="cls-9" transform="translate(91 456)"/>
        </g>
        <g id="Group_5369" data-name="Group 5369" transform="translate(102 460)">
            <text id="Solutioning_" class="cls-4" data-name="Solutioning" transform="translate(4 13)">
                <tspan x="0" y="0">Solutioning</tspan>
            </text>
        </g>
        <g id="Mask_Group_21" class="cls-5" data-name="Mask Group 21" transform="translate(0 -114)">
            <g id="Repeat_Grid_56" class="cls-6" data-name="Repeat Grid 56">
                <g transform="translate(37.646 545.781)">
                    <path id="Line_1205" d="M0 0v94" class="cls-7" data-name="Line 1205" transform="rotate(45 9.282 101.845)"/>
                </g>
                <g transform="translate(47.646 545.781)">
                    <path id="Line_1206" d="M0 0v94" class="cls-7" data-name="Line 1206" transform="rotate(45 9.282 101.845)"/>
                </g>
                <g transform="translate(57.646 545.781)">
                    <path id="Line_1207" d="M0 0v94" class="cls-7" data-name="Line 1207" transform="rotate(45 9.282 101.845)"/>
                </g>
                <g transform="translate(67.646 545.781)">
                    <path id="Line_1208" d="M0 0v94" class="cls-7" data-name="Line 1208" transform="rotate(45 9.282 101.845)"/>
                </g>
                <g transform="translate(77.646 545.781)">
                    <path id="Line_1209" d="M0 0v94" class="cls-7" data-name="Line 1209" transform="rotate(45 9.282 101.845)"/>
                </g>
                <g transform="translate(87.646 545.781)">
                    <path id="Line_1210" d="M0 0v94" class="cls-7" data-name="Line 1210" transform="rotate(45 9.282 101.845)"/>
                </g>
                <g transform="translate(97.646 545.781)">
                    <path id="Line_1211" d="M0 0v94" class="cls-7" data-name="Line 1211" transform="rotate(45 9.282 101.845)"/>
                </g>
                <g transform="translate(107.646 545.781)">
                    <path id="Line_1212" d="M0 0v94" class="cls-7" data-name="Line 1212" transform="rotate(45 9.282 101.845)"/>
                </g>
                <g transform="translate(117.646 545.781)">
                    <path id="Line_1213" d="M0 0v94" class="cls-7" data-name="Line 1213" transform="rotate(45 9.282 101.845)"/>
                </g>
                <g transform="translate(127.646 545.781)">
                    <path id="Line_1214" d="M0 0v94" class="cls-7" data-name="Line 1214" transform="rotate(45 9.282 101.845)"/>
                </g>
                <g transform="translate(137.646 545.781)">
                    <path id="Line_1215" d="M0 0v94" class="cls-7" data-name="Line 1215" transform="rotate(45 9.282 101.845)"/>
                </g>
                <g transform="translate(147.646 545.781)">
                    <path id="Line_1216" d="M0 0v94" class="cls-7" data-name="Line 1216" transform="rotate(45 9.282 101.845)"/>
                </g>
                <g transform="translate(157.646 545.781)">
                    <path id="Line_1217" d="M0 0v94" class="cls-7" data-name="Line 1217" transform="rotate(45 9.282 101.845)"/>
                </g>
                <g transform="translate(167.646 545.781)">
                    <path id="Line_1218" d="M0 0v94" class="cls-7" data-name="Line 1218" transform="rotate(45 9.282 101.845)"/>
                </g>
                <g transform="translate(177.646 545.781)">
                    <path id="Line_1219" d="M0 0v94" class="cls-7" data-name="Line 1219" transform="rotate(45 9.282 101.845)"/>
                </g>
            </g>
        </g>
    </g>
</svg>
