<svg xmlns="http://www.w3.org/2000/svg" width="30.825" height="84" viewBox="0 0 30.825 84">
    <defs>
        <style>
            .cls-1{fill:none;stroke:#ccc;stroke-dasharray:3}.cls-2{fill:#ddd}.cls-3,.cls-4{stroke:none}.cls-4{fill:#fff}
        </style>
    </defs>
    <g id="Group_2652" data-name="Group 2652" transform="translate(-200 -315)">
        <path id="Line_244" d="M0 0v84" class="cls-1" data-name="Line 244" transform="translate(215.5 315)"/>
        <g id="Path_479" class="cls-2" data-name="Path 479">
            <path d="M10.412 13.896c-2.328 0-4.51-.584-6.486-1.737A12.884 12.884 0 0 1-.763 7.471C-1.916 5.495-2.5 3.313-2.5.984c0-2.329.584-4.511 1.737-6.487a12.884 12.884 0 0 1 4.689-4.688c1.975-1.153 4.158-1.738 6.486-1.738 2.33 0 4.512.585 6.487 1.738a12.867 12.867 0 0 1 4.687 4.693c1.154 1.971 1.739 4.152 1.739 6.482 0 2.329-.584 4.511-1.737 6.487a12.884 12.884 0 0 1-4.689 4.688c-1.975 1.153-4.158 1.737-6.487 1.737z" class="cls-3" transform="translate(205 355.928)"/>
            <path d="M10.412 11.396c1.89 0 3.632-.465 5.227-1.396a10.366 10.366 0 0 0 3.79-3.79c.93-1.595 1.396-3.337 1.396-5.226 0-1.89-.465-3.63-1.396-5.22a10.35 10.35 0 0 0-3.79-3.796c-1.595-.931-3.337-1.397-5.227-1.397-1.889 0-3.63.466-5.226 1.397a10.366 10.366 0 0 0-3.79 3.79C.466-2.648 0-.906 0 .983 0 2.873.465 4.615 1.396 6.21A10.366 10.366 0 0 0 5.186 10c1.595.93 3.337 1.396 5.226 1.396M9.111-6.039c.235 0 .438.086.61.258L15.876.374a.834.834 0 0 1 .258.61.834.834 0 0 1-.258.61L9.721 7.749a.834.834 0 0 1-.61.258.834.834 0 0 1-.61-.258L7.118 6.366a.834.834 0 0 1-.258-.61c0-.235.086-.438.258-.61L11.28.984 7.118-3.178a.834.834 0 0 1-.258-.61c0-.235.086-.439.258-.61L8.5-5.782a.834.834 0 0 1 .61-.258m1.301 22.435c-2.777 0-5.383-.699-7.746-2.078a15.354 15.354 0 0 1-5.588-5.587C-4.301 6.368-5 3.76-5 .984c0-2.778.7-5.384 2.078-7.747a15.354 15.354 0 0 1 5.588-5.588c2.363-1.378 4.969-2.078 7.746-2.078 2.778 0 5.384.7 7.747 2.078a15.338 15.338 0 0 1 5.588 5.595c1.379 2.358 2.078 4.962 2.078 7.74 0 2.777-.7 5.384-2.078 7.747a15.354 15.354 0 0 1-5.588 5.587c-2.363 1.38-4.969 2.078-7.747 2.078z" class="cls-4" transform="translate(205 355.928)"/>
        </g>
    </g>
</svg>
