<svg xmlns="http://www.w3.org/2000/svg" width="24" height="24" viewBox="0 0 24 24">
    <defs>
        <style>
            .cls-1{fill:none}.cls-2{clip-path:url(#clip-path)}.cls-3{fill:#999}
        </style>
        <clipPath id="clip-path">
            <path d="M0 0h24v24H0z" class="cls-1"/>
        </clipPath>
    </defs>
    <g id="Component" class="cls-2">
        <path id="Path_145" d="M1631.436 3578.557v7.66a.783.783 0 1 1-1.565 0v-7.66a.783.783 0 1 1 1.565 0zm-.782-7.322a.782.782 0 0 0 .782-.782v-.67a.783.783 0 1 0-1.565 0v.67a.783.783 0 0 0 .782.782zm-10.983 6.765a2.335 2.335 0 1 1-2.335-2.355 2.348 2.348 0 0 1 2.335 2.355zm-1.565 0a.77.77 0 1 0-.77.79.78.78 0 0 0 .77-.79zm8.23 3.849a2.335 2.335 0 1 1-2.335-2.354 2.348 2.348 0 0 1 2.335 2.354zm-1.565 0a.77.77 0 1 0-.77.79.781.781 0 0 0 .77-.79zm8.23-7.247a2.335 2.335 0 1 1-2.335-2.355 2.347 2.347 0 0 1 2.334 2.353zm-1.565 0a.77.77 0 1 0-.77.789.781.781 0 0 0 .77-.791zm-7.436 10.383a.782.782 0 0 0-.782.782v.45a.783.783 0 1 0 1.565 0v-.45a.783.783 0 0 0-.783-.782zm0-6.455a.783.783 0 0 0 .783-.782v-7.964a.783.783 0 1 0-1.565 0v7.964a.782.782 0 0 0 .782.782zm-6.652 2.851a.783.783 0 0 0-.783.782v4.054a.783.783 0 1 0 1.565 0v-4.054a.783.783 0 0 0-.781-.783zm0-6.721a.783.783 0 0 0 .783-.783v-4.094a.783.783 0 1 0-1.565 0v4.094a.783.783 0 0 0 .783.782z" class="cls-3" data-name="Path 145" transform="translate(-1612.001 -3566)"/>
        <g id="Group_1974" data-name="Group 1974" transform="translate(-568 -190)">
            <path id="Rectangle_936" d="M0 0h24v24H0z" class="cls-1" data-name="Rectangle 936" transform="translate(568 190)"/>
        </g>
    </g>
</svg>
