<svg xmlns="http://www.w3.org/2000/svg" id="Group_1720" width="24" height="24" data-name="Group 1720" viewBox="0 0 24 24">
    <defs>
        <style>
            .cls-1{fill:none}
        </style>
    </defs>
    <g id="Group_1725" data-name="Group 1725">
        <path id="Rectangle_910" d="M0 0h24v24H0z" class="cls-1" data-name="Rectangle 910"/>
        <path id="Path_647" d="M736 2916.583a5.292 5.292 0 1 0-5.268-5.292 5.286 5.286 0 0 0 5.268 5.292zm0-9.018a3.727 3.727 0 1 1-3.7 3.726 3.719 3.719 0 0 1 3.7-3.726zm2.439 9.536a.781.781 0 0 0-.745.149l-1.694 1.44-1.694-1.44a.781.781 0 0 0-.745-.149c-1.1.35-6.561 2.231-6.561 4.942a.783.783 0 0 0 .783.782h16.435a.783.783 0 0 0 .783-.782c-.001-2.711-5.466-4.592-6.561-4.943zm-9.463 4.159a13.656 13.656 0 0 1 4.652-2.532l1.865 1.586a.783.783 0 0 0 1.014 0l1.865-1.586a13.655 13.655 0 0 1 4.652 2.532z" data-name="Path 647" transform="translate(-724.001 -2902)"/>
    </g>
</svg>
