<svg xmlns="http://www.w3.org/2000/svg" width="24" height="24" viewBox="0 0 24 24">
    <defs>
        <style>
            .cls-1{fill:none}.cls-2{clip-path:url(#clip-path)}.cls-3{fill:#ed4d67;stroke:rgba(0,0,0,0)}
        </style>
        <clipPath id="clip-path">
            <path d="M0 0h24v24H0z" class="cls-1"/>
        </clipPath>
    </defs>
    <g id="task_1" class="cls-2" data-name="task – 1">
        <path id="Union_17" d="M-2195.262 1386.958a.738.738 0 0 1-.738-.737v-13.791a.767.767 0 0 1 .738-.771h2.914l.29-.779a1.354 1.354 0 0 1 1.282-.88h2.624a1.352 1.352 0 0 1 1.281.88l.291.779h2.748a.766.766 0 0 1 .737.771v13.792a.737.737 0 0 1-.737.737zm.737-1.474h9.954v-12.351h-.285l-.888 1.752c-.006.012-.012.028-.019.039a1.973 1.973 0 0 1-1.722.974h-4a1.966 1.966 0 0 1-1.676-.906c-.006-.011-.013-.006-.019-.017l-1.041-1.841h-.308zm2.619-11.281a.507.507 0 0 0 .425.221h4a.512.512 0 0 0 .437-.24l.537-1.05h-.587a.723.723 0 0 1-.693-.468l-.441-1.191h-2.468l-.441 1.191a.722.722 0 0 1-.692.468h-.687zm.384 9.182a.48.48 0 0 1-.483-.476.48.48 0 0 1 .483-.477h2.628a.48.48 0 0 1 .482.477.479.479 0 0 1-.482.476zm0-2.085a.48.48 0 0 1-.483-.476.48.48 0 0 1 .483-.477h4.287a.481.481 0 0 1 .484.477.48.48 0 0 1-.484.476zm0-2.144a.481.481 0 0 1-.483-.477.481.481 0 0 1 .483-.477h4.287a.481.481 0 0 1 .484.477.481.481 0 0 1-.484.477z" class="cls-3" data-name="Union 17" transform="translate(2201 -1366.466)"/>
        <path id="Rectangle_936" d="M0 0h24v24H0z" class="cls-1" data-name="Rectangle 936"/>
    </g>
</svg>
