<svg xmlns="http://www.w3.org/2000/svg" width="17.143" height="17.143" viewBox="0 0 17.143 17.143">
    <defs>
        <style>
            .cls-1{fill:none}.cls-2{clip-path:url(#clip-path)}.cls-3{fill:#ed4d67}
        </style>
        <clipPath id="clip-path">
            <path d="M0 0h17.143v17.143H0z" class="cls-1"/>
        </clipPath>
    </defs>
    <g id="Component_1" class="cls-2" data-name="Component 1">
        <path id="Path_2282" d="M14.33-8.951a.7.7 0 0 0-.2-.513l-1.016-1a.686.686 0 0 0-.5-.212.686.686 0 0 0-.5.212L7.556-5.926 5.033-8.449a.686.686 0 0 0-.5-.212.686.686 0 0 0-.5.212l-1.016 1a.7.7 0 0 0-.2.513.681.681 0 0 0 .2.5l4.04 4.04a.686.686 0 0 0 .5.212.7.7 0 0 0 .513-.212l6.06-6.06a.681.681 0 0 0 .2-.495zm1.663-2.489a8.355 8.355 0 0 1 1.15 4.3 8.385 8.385 0 0 1-1.15 4.3A8.533 8.533 0 0 1 12.874.279a8.385 8.385 0 0 1-4.3 1.15 8.385 8.385 0 0 1-4.3-1.15A8.533 8.533 0 0 1 1.15-2.84 8.385 8.385 0 0 1 0-7.143a8.385 8.385 0 0 1 1.15-4.3 8.533 8.533 0 0 1 3.119-3.119 8.385 8.385 0 0 1 4.3-1.15 8.385 8.385 0 0 1 4.3 1.15 8.52 8.52 0 0 1 3.124 3.122z" class="cls-3" data-name="Path 2282" transform="translate(0 15.714)"/>
    </g>
</svg>
