<svg xmlns="http://www.w3.org/2000/svg" width="169.422" height="148.613" viewBox="0 0 169.422 148.613">
    <defs>
        <style>
            .cls-1,.cls-3,.cls-4,.cls-6{fill:none}.cls-1,.cls-10,.cls-11,.cls-12,.cls-13,.cls-14,.cls-23,.cls-5,.cls-6,.cls-7,.cls-8,.cls-9{stroke:#bf263f}.cls-1,.cls-3,.cls-4{stroke-miterlimit:10}.cls-1{stroke-width:1.426px;stroke-dasharray:2.341 4.681;opacity:.512}.cls-2{fill:#ed4d67;opacity:.1}.cls-3,.cls-4{stroke:#f7657d;stroke-width:1.17px}.cls-3{opacity:.18}.cls-4{opacity:.14}.cls-10,.cls-11,.cls-12,.cls-13,.cls-14,.cls-23,.cls-5,.cls-7,.cls-8,.cls-9{fill:#fff}.cls-10,.cls-11,.cls-12,.cls-13,.cls-14,.cls-15,.cls-16,.cls-17,.cls-18,.cls-19,.cls-20,.cls-21,.cls-22,.cls-23,.cls-5,.cls-6,.cls-7,.cls-8,.cls-9{stroke-linecap:round;stroke-linejoin:round;stroke-width:1.9px}.cls-15,.cls-7{opacity:0}.cls-16,.cls-8{opacity:.125}.cls-17,.cls-9{opacity:.25}.cls-10,.cls-18{opacity:.375}.cls-11,.cls-19{opacity:.5}.cls-12,.cls-20{opacity:.625}.cls-13,.cls-21{opacity:.75}.cls-14,.cls-22{opacity:.875}.cls-15{fill:#bf263f;stroke:#fff}.cls-16{fill:#c74157;stroke:#f7e4e7}.cls-17{fill:#cf5c6f;stroke:#efc9cf}.cls-18{fill:#d77787;stroke:#e7aeb7}.cls-19{fill:#df939f;stroke:#df939f}.cls-20{fill:#e7aeb7;stroke:#d77787}.cls-21{fill:#efc9cf;stroke:#cf5c6f}.cls-22{fill:#f7e4e7;stroke:#c74157}.cls-23{opacity:.46}.cls-24{opacity:.13}
        </style>
    </defs>
    <g id="Group_3849" data-name="Group 3849" transform="translate(-269.967 -795.22)">
        <g id="Group_3808" data-name="Group 3808">
            <g id="Group_2358" data-name="Group 2358">
                <g id="Group_2354" data-name="Group 2354">
                    <g id="Group_2352" data-name="Group 2352">
                        <path id="Path_826" d="M289.424 829.858c10.873 33.835 16.159 56.833 6.283 89.337-10.608 34.909 61.972 26.78 89.338 6.284 26.017-19.49 70.688-44.274-6.283-89.337-31.954-18.707-100.662-41.52-89.338-6.284z" class="cls-1" data-name="Path 826"/>
                        <path id="Path_777" d="M420.387 821.558c-15.261 34.576-23.409 58.313-16.577 93.79 7.339 38.1-68.522 21.435-95.187-3.286-25.353-23.5-69.842-54.685 16.576-93.79 35.872-16.233 111.077-32.723 95.188 3.286z" class="cls-2" data-name="Path 777"/>
                    </g>
                    <g id="Group_2356" data-name="Group 2356">
                        <circle id="Ellipse_80" cx="3.297" cy="3.297" r="3.297" class="cls-3" data-name="Ellipse 80" transform="translate(414.528 825.884)"/>
                        <path id="Path_823" d="M422.255 861.523l5.172-2.714.7-5.8 4.18 4.08 5.734-1.13-2.588 5.235 2.845 5.1-5.78-.845-3.972 4.282-.983-5.757z" class="cls-4" data-name="Path 823"/>
                        <path id="Path_828" d="M273.535 796.312l3.389 1.9 3.495-1.712-.762 3.811 2.708 2.789-3.86.453-1.816 3.438-1.623-3.531-3.83-.664 2.857-2.635z" class="cls-4" data-name="Path 828"/>
                        <circle id="Ellipse_81" cx="5.638" cy="5.638" r="5.638" class="cls-3" data-name="Ellipse 81" transform="translate(275.254 913.661)"/>
                    </g>
                </g>
            </g>
        </g>
        <g id="Group_3848" data-name="Group 3848">
            <g id="Group_3827" data-name="Group 3827">
                <g id="Group_3826" data-name="Group 3826">
                    <path id="Path_2724" d="M366.391 848.653c.628-4.358-4.155-3.976-5.513-4.325-2.85-.733-7.393-4.537-7.808-5.737" class="cls-5" data-name="Path 2724"/>
                    <path id="Path_2725" d="M359.392 846.969c0-2.509-5.249-2.443-6.091-7.732" class="cls-5" data-name="Path 2725"/>
                    <path id="Line_389" d="M.33 9.631L0 0" class="cls-5" data-name="Line 389" transform="translate(353.086 839.22)"/>
                    <path id="Path_2726" d="M346.384 846.837c-.066-1.321 1.882-1.288 4.259-2.773s2.1-5.011 2.1-5.011" class="cls-5" data-name="Path 2726"/>
                    <path id="Path_2727" d="M337.965 848.389c-.184-2.123 1.123-2.873 4.689-3.566 2.762-.537 8.877-2.028 10.109-6.059" class="cls-5" data-name="Path 2727"/>
                    <path id="Path_2728" d="M353.116 834.808a10.747 10.747 0 0 0-1.661-6.6c-1.961-3.178-2.884-4.794-3.076-6.963-.319-3.585 2.62-6.771 5.937-7.371" class="cls-6" data-name="Path 2728"/>
                    <path id="Path_2729" d="M353.48 833.816a.478.478 0 0 0-.946.085c-.067.658.515 4.383-.634 6.342a2.7 2.7 0 0 0 2.536-.282c-.845-.844-.922-3.122-.956-6.145z" class="cls-5" data-name="Path 2729"/>
                    <g id="Group_3812" data-name="Group 3812">
                        <g id="Group_3811" data-name="Group 3811">
                            <path id="Path_2730" d="M361.455 917.816v-67.908c0-.921 2.49-1.752 4.98-1.791s4.98.716 4.98 1.791v67.908c0 1.042-2.429 1.736-4.888 1.744-2.52.007-5.072-.697-5.072-1.744z" class="cls-5" data-name="Path 2730"/>
                            <g id="Group_3809" data-name="Group 3809">
                                <path id="Path_2731" d="M371.415 917.278v-.849a14.6 14.6 0 0 1-9.96.02v.848a15.2 15.2 0 0 0 9.96-.019z" class="cls-5" data-name="Path 2731"/>
                                <path id="Path_2732" d="M371.415 916.43v-.348a14.591 14.591 0 0 1-9.96.02v.347a15.193 15.193 0 0 0 9.96-.019z" class="cls-5" data-name="Path 2732"/>
                                <path id="Path_2733" d="M371.415 914.807v-.348a14.59 14.59 0 0 1-9.96.021v.346a15.193 15.193 0 0 0 9.96-.019z" class="cls-5" data-name="Path 2733"/>
                                <path id="Path_2734" d="M371.415 915.643v-.85a14.59 14.59 0 0 1-9.96.021v.848a15.207 15.207 0 0 0 9.96-.019z" class="cls-5" data-name="Path 2734"/>
                            </g>
                            <g id="Group_3810" data-name="Group 3810">
                                <path id="Path_2735" d="M371.415 850.342v.85a14.59 14.59 0 0 0-9.96-.021v-.848a15.207 15.207 0 0 1 9.96.019z" class="cls-5" data-name="Path 2735"/>
                                <path id="Path_2736" d="M371.415 851.19v.349a14.59 14.59 0 0 0-9.96-.021v-.347a15.207 15.207 0 0 1 9.96.019z" class="cls-5" data-name="Path 2736"/>
                                <path id="Path_2737" d="M371.415 852.813v.348a14.6 14.6 0 0 0-9.96-.02v-.347a15.207 15.207 0 0 1 9.96.019z" class="cls-5" data-name="Path 2737"/>
                                <path id="Path_2738" d="M371.415 851.978v.849a14.6 14.6 0 0 0-9.96-.02v-.848a15.193 15.193 0 0 1 9.96.019z" class="cls-5" data-name="Path 2738"/>
                            </g>
                        </g>
                        <path id="Path_2739" d="M371.415 850.342v-.434c0-1.076-2.49-1.829-4.98-1.791s-4.98.87-4.98 1.791V917.816c0 1.047 2.552 1.751 5.072 1.744 2.459-.008 4.888-.7 4.888-1.744v-67.479z" class="cls-5" data-name="Path 2739"/>
                    </g>
                    <g id="Group_3816" data-name="Group 3816">
                        <g id="Group_3815" data-name="Group 3815">
                            <path id="Path_2740" d="M343.871 917.816v-67.908c0-.921-2.49-1.752-4.98-1.791s-4.98.716-4.98 1.791v67.908c0 1.042 2.429 1.736 4.888 1.744 2.52.007 5.072-.697 5.072-1.744z" class="cls-5" data-name="Path 2740"/>
                            <g id="Group_3813" data-name="Group 3813">
                                <path id="Path_2741" d="M333.911 917.278v-.849a14.6 14.6 0 0 0 9.959.02v.848a15.2 15.2 0 0 1-9.959-.019z" class="cls-5" data-name="Path 2741"/>
                                <path id="Path_2742" d="M333.911 916.43v-.348a14.589 14.589 0 0 0 9.959.02v.347a15.19 15.19 0 0 1-9.959-.019z" class="cls-5" data-name="Path 2742"/>
                                <path id="Path_2743" d="M333.911 914.807v-.348a14.587 14.587 0 0 0 9.959.021v.346a15.191 15.191 0 0 1-9.959-.019z" class="cls-5" data-name="Path 2743"/>
                                <path id="Path_2744" d="M333.911 915.643v-.85a14.588 14.588 0 0 0 9.959.021v.848a15.2 15.2 0 0 1-9.959-.019z" class="cls-5" data-name="Path 2744"/>
                            </g>
                            <g id="Group_3814" data-name="Group 3814">
                                <path id="Path_2745" d="M333.911 850.342v.85a14.587 14.587 0 0 1 9.959-.021v-.848a15.2 15.2 0 0 0-9.959.019z" class="cls-5" data-name="Path 2745"/>
                                <path id="Path_2746" d="M333.911 851.19v.349a14.587 14.587 0 0 1 9.959-.021v-.347a15.2 15.2 0 0 0-9.959.019z" class="cls-5" data-name="Path 2746"/>
                                <path id="Path_2747" d="M333.911 852.813v.348a14.6 14.6 0 0 1 9.959-.02v-.347a15.2 15.2 0 0 0-9.959.019z" class="cls-5" data-name="Path 2747"/>
                                <path id="Path_2748" d="M333.911 851.978v.849a14.6 14.6 0 0 1 9.959-.02v-.848a15.19 15.19 0 0 0-9.959.019z" class="cls-5" data-name="Path 2748"/>
                            </g>
                        </g>
                        <path id="Path_2749" d="M333.911 849.908c0-1.076 2.49-1.829 4.98-1.791s4.98.87 4.98 1.791V917.816c0 1.047-2.552 1.751-5.072 1.744-2.459-.008-4.888-.7-4.888-1.744v-67.479z" class="cls-5" data-name="Path 2749"/>
                    </g>
                    <g id="Group_3817" data-name="Group 3817">
                        <path id="Path_2750" d="M342.828 919.827V847.9c0-.976 2.637-1.856 5.274-1.9s5.275.758 5.275 1.9v71.927c0 1.1-2.573 1.839-5.178 1.847-2.669.008-5.371-.738-5.371-1.847z" class="cls-5" data-name="Path 2750"/>
                    </g>
                    <g id="Group_3818" data-name="Group 3818">
                        <path id="Path_2751" d="M346.545 813.871l6.718-.916-1.363-11.875 3.1 11.308 5.573-3.078-4.5 4.56 4.5 4.56-5.573-3.078-3.1 5.9 1.358-6.464z" class="cls-7" data-name="Path 2751"/>
                        <path id="Path_2752" d="M355.951 813.871l4.13 4.189-5.119-2.827-2.849 5.417 1.248-5.937-6.171-.841 6.171-.841-1.248-10.672 2.849 10.152 5.119-2.827z" class="cls-8" data-name="Path 2752"/>
                        <path id="Path_2753" d="M355.82 813.871l3.764 3.818-4.666-2.577-2.6 4.937 1.137-5.411-5.624-.767 5.624-.767-1.137-9.47 2.6 9 4.666-2.577z" class="cls-9" data-name="Path 2753"/>
                        <path id="Path_2754" d="M355.689 813.871l3.4 3.447-4.212-2.326-2.344 4.457 1.027-4.885-5.078-.692 5.078-.692-1.027-8.267 2.344 7.839 4.212-2.326z" class="cls-10" data-name="Path 2754"/>
                        <path id="Path_2755" d="M355.558 813.871l3.033 3.076-3.759-2.076-2.092 3.977.916-4.359-4.531-.618 4.531-.618-.916-7.065 2.092 6.683 3.759-2.076z" class="cls-11" data-name="Path 2755"/>
                        <path id="Path_2756" d="M355.427 813.871l2.667 2.7-3.306-1.826-1.839 3.5.806-3.833-3.985-.543 3.985-.543-.806-5.863 1.839 5.527 3.306-1.826z" class="cls-12" data-name="Path 2756"/>
                        <path id="Path_2757" d="M355.3 813.871l2.3 2.334-2.852-1.575-1.587 3.018.7-3.307-3.438-.469 3.438-.469-.7-4.66 1.587 4.37 2.852-1.575z" class="cls-13" data-name="Path 2757"/>
                        <path id="Path_2758" d="M355.165 813.871l1.935 1.962-2.4-1.325-1.335 2.538.585-2.781-2.891-.394 2.891-.394-.585-3.458 1.335 3.214 2.4-1.325z" class="cls-14" data-name="Path 2758"/>
                        <path id="Path_2759" d="M355.034 813.871l1.569 1.591-1.945-1.074-1.082 2.058.474-2.255-2.345-.32 2.345-.32-.474-2.255 1.082 2.058 1.945-1.074z" class="cls-5" data-name="Path 2759"/>
                        <path id="Path_2760" d="M354.984 813.871l1.449 1.47-1.8-.992-1 1.9.438-2.083-2.166-.3 2.166-.3-.438-2.083 1 1.9 1.8-.992z" class="cls-5" data-name="Path 2760"/>
                        <path id="Path_2761" d="M354.934 813.871l1.33 1.349-1.648-.91-.917 1.744.4-1.911-1.987-.271 1.987-.271-.4-1.911.917 1.744 1.648-.91z" class="cls-5" data-name="Path 2761"/>
                        <path id="Path_2762" d="M354.884 813.871l1.21 1.227-1.5-.828-.834 1.587.366-1.739-1.808-.247 1.808-.247-.366-1.739.834 1.587 1.5-.828z" class="cls-5" data-name="Path 2762"/>
                        <path id="Path_2763" d="M354.834 813.871l1.09 1.106-1.351-.746-.752 1.43.329-1.567-1.629-.222 1.629-.222-.329-1.567.752 1.43 1.351-.746z" class="cls-5" data-name="Path 2763"/>
                        <path id="Path_2764" d="M354.784 813.871l.971.984-1.2-.664-.669 1.273.293-1.395-1.45-.2 1.45-.2-.293-1.395.669 1.273 1.2-.664z" class="cls-5" data-name="Path 2764"/>
                        <path id="Path_2765" d="M354.734 813.871l.851.863-1.055-.582-.587 1.116.257-1.223-1.271-.173 1.271-.173-.257-1.223.587 1.116 1.055-.582z" class="cls-5" data-name="Path 2765"/>
                        <path id="Path_2766" d="M354.683 813.871l.731.741-.906-.5-.5.959.221-1.051-1.092-.149 1.092-.149-.229-1.051.5.959.906-.5z" class="cls-5" data-name="Path 2766"/>
                        <path id="Path_2767" d="M354.633 813.871l.611.62-.758-.418-.422.8.185-.879-.913-.125.913-.125-.185-.879.422.8.758-.418z" class="cls-5" data-name="Path 2767"/>
                    </g>
                    <g id="Group_3819" data-name="Group 3819">
                        <path id="Path_2768" d="M347.689 809.724l6.124 2.909 2.4-11.565-.631 12.044 6.349.473-6.258 1.357 1.268 6.277-2.981-5.625-5.822 3.239 4.674-4.667z" class="cls-15" data-name="Path 2768"/>
                        <path id="Path_2769" d="M355.562 814.871l1.165 5.766-2.738-5.168-5.349 2.976 4.293-4.287-4.705-4.081 5.626 2.672 2.2-10.387-.58 10.828 5.832.435z" class="cls-16" data-name="Path 2769"/>
                        <path id="Path_2770" d="M355.452 814.8l1.062 5.255-2.5-4.71-4.875 2.712 3.913-3.907-4.288-3.719 5.127 2.436 2.009-9.21-.528 9.612 5.315.4z" class="cls-17" data-name="Path 2770"/>
                        <path id="Path_2771" d="M355.342 814.728l.959 4.745-2.253-4.252-4.4 2.448 3.533-3.527-3.872-3.358 4.629 2.2 1.814-8.033-.477 8.4 4.8.358z" class="cls-18" data-name="Path 2771"/>
                        <path id="Path_2772" d="M355.233 814.656l.856 4.234-2.011-3.794-3.927 2.185 3.152-3.148-3.455-3 4.131 1.962 1.618-6.856-.426 7.179 4.282.319z" class="cls-19" data-name="Path 2772"/>
                        <path id="Path_2773" d="M355.123 814.584l.752 3.723-1.768-3.337-3.453 1.921 2.772-2.768-3.038-2.635 3.633 1.726 1.423-5.679-.374 5.963 3.766.281z" class="cls-20" data-name="Path 2773"/>
                        <path id="Path_2774" d="M355.014 814.513l.649 3.212-1.525-2.879-2.979 1.658 2.392-2.388-2.621-2.273 3.134 1.489 1.228-4.5-.323 4.747 3.249.242z" class="cls-21" data-name="Path 2774"/>
                        <path id="Path_2775" d="M354.9 814.441l.546 2.7-1.283-2.421-2.506 1.394 2.011-2.008-2.2-1.912 2.636 1.252 1.033-3.324-.272 3.531 2.732.2z" class="cls-22" data-name="Path 2775"/>
                        <path id="Path_2776" d="M354.794 814.369l.443 2.191-1.037-1.96-2.032 1.13 1.632-1.63-1.788-1.551 2.138 1.015.837-2.147-.22 2.315 2.216.165z" class="cls-5" data-name="Path 2776"/>
                        <path id="Path_2777" d="M354.752 814.342l.409 2.024-.961-1.814-1.877 1.044 1.506-1.5-1.651-1.432 1.975.938.773-1.983-.2 2.138 2.047.153z" class="cls-5" data-name="Path 2777"/>
                        <path id="Path_2778" d="M354.71 814.315l.375 1.856-.882-1.664-1.722.958 1.382-1.38-1.515-1.314 1.811.86.71-1.819-.187 1.961 1.878.14z" class="cls-5" data-name="Path 2778"/>
                        <path id="Path_2779" d="M354.668 814.287l.341 1.689-.8-1.514-1.567.872 1.258-1.256-1.379-1.2 1.648.783.646-1.656-.17 1.785 1.709.127z" class="cls-5" data-name="Path 2779"/>
                        <path id="Path_2780" d="M354.626 814.26l.308 1.522-.723-1.364-1.412.785 1.133-1.131-1.242-1.077 1.485.706.582-1.492-.153 1.608 1.539.115z" class="cls-5" data-name="Path 2780"/>
                        <path id="Path_2781" d="M354.585 814.232l.274 1.355-.643-1.214-1.257.7 1.009-1.007-1.106-.959 1.322.628.518-1.328-.136 1.431 1.37.1z" class="cls-5" data-name="Path 2781"/>
                        <path id="Path_2782" d="M354.543 814.2l.24 1.188-.564-1.064-1.1.613.884-.883-.969-.841 1.159.551.454-1.164-.119 1.255 1.2.09z" class="cls-5" data-name="Path 2782"/>
                        <path id="Path_2783" d="M354.5 814.177l.206 1.021-.485-.915-.946.527.76-.759-.833-.722 1 .473.39-1-.1 1.078 1.032.077z" class="cls-5" data-name="Path 2783"/>
                        <path id="Path_2784" d="M354.459 814.15l.172.853-.405-.765-.791.44.635-.634-.7-.6.833.4.326-.836-.086.9.863.064z" class="cls-5" data-name="Path 2784"/>
                    </g>
                    <g id="Group_3820" data-name="Group 3820">
                        <path id="Path_2785" d="M353.513 919.827V847.9c0-.976 2.637-1.856 5.274-1.9s5.275.758 5.275 1.9v71.927c0 1.1-2.573 1.839-5.178 1.847-2.669.008-5.371-.738-5.371-1.847z" class="cls-5" data-name="Path 2785"/>
                    </g>
                    <g id="Group_3821" data-name="Group 3821">
                        <path id="Path_2786" d="M371.418 870.428s-9.641.644-18.563.644-18.948-.644-18.948-.644v-7.706s7.329-.644 18.948-.644 18.563.644 18.563.644z" class="cls-5" data-name="Path 2786"/>
                        <path id="Path_2787" d="M371.418 867.166s-9.641-.644-18.563-.644-18.948.644-18.948.644v7.706s7.329.644 18.948.644 18.563-.644 18.563-.644z" class="cls-5" data-name="Path 2787"/>
                        <path id="Path_2788" d="M371.414 872.81s-9.77.644-18.561.644-18.942-.644-18.942-.644l-.371-7.706.371-.344s7.493-.644 18.942-.644 18.561.644 18.561.644l.371.344z" class="cls-5" data-name="Path 2788"/>
                        <path id="Path_2789" d="M371.414 865.093s-9.77-.643-18.561-.643-18.942.643-18.942.643l-.371 7.707.371.344s7.493.644 18.942.644 18.561-.644 18.561-.644l.371-.344z" class="cls-5" data-name="Path 2789"/>
                        <path id="Path_2790" d="M371.785 872.81s-9.829.644-18.926.644-19.319-.644-19.319-.644v-7.71s7.472-.644 19.319-.644 18.926.644 18.926.644z" class="cls-5" data-name="Path 2790"/>
                    </g>
                    <g id="Group_3822" data-name="Group 3822">
                        <path id="Path_2791" d="M363.585 876.256c10.736-7.088 12.625.51 7.836.51" class="cls-5" data-name="Path 2791"/>
                        <path id="Path_2792" d="M363.43 876.022l.309.469a26.045 26.045 0 0 1 2.91-1.682 2.993 2.993 0 0 0-.31-.477 27.052 27.052 0 0 0-2.909 1.69z" class="cls-5" data-name="Path 2792"/>
                        <path id="Path_2793" d="M372.924 876.118a2.818 2.818 0 0 1-1.5.367v.562a3.348 3.348 0 0 0 1.831-.471.879.879 0 0 1-.331-.458z" class="cls-23" data-name="Path 2793"/>
                    </g>
                    <g id="Group_3823" data-name="Group 3823">
                        <path id="Path_2794" d="M371.418 901.616s-9.327 1.014-18.249 1.014-19.262-1.014-19.262-1.014v7.706a73.266 73.266 0 0 0 19.262 2.3c11.62 0 18.249-2.3 18.249-2.3z" class="cls-5" data-name="Path 2794"/>
                        <path id="Path_2795" d="M371.418 904.878a88.112 88.112 0 0 1-18.249 2.3 104.835 104.835 0 0 1-19.262-2.3v-7.706a98.105 98.105 0 0 0 19.262 1.693c11.62 0 18.249-1.693 18.249-1.693z" class="cls-5" data-name="Path 2795"/>
                        <path id="Path_2796" d="M371.414 899.234a120.337 120.337 0 0 1-18.247 1.693 143.277 143.277 0 0 1-19.256-1.693l-.371 7.706.371.344a74.792 74.792 0 0 0 19.256 2.3c11.448 0 18.247-2.3 18.247-2.3l.371-.344z" class="cls-5" data-name="Path 2796"/>
                        <path id="Path_2797" d="M371.414 906.951a89.773 89.773 0 0 1-18.247 2.3 106.692 106.692 0 0 1-19.256-2.3l-.371-7.707.371-.344a100.17 100.17 0 0 0 19.256 1.693c11.448 0 18.247-1.693 18.247-1.693l.371.344z" class="cls-5" data-name="Path 2797"/>
                        <path id="Path_2798" d="M371.785 899.234a122.8 122.8 0 0 1-18.612 1.693 146.119 146.119 0 0 1-19.633-1.693v7.706a75.981 75.981 0 0 0 19.633 2.3c11.847 0 18.612-2.3 18.612-2.3z" class="cls-5" data-name="Path 2798"/>
                    </g>
                    <g id="Group_3824" data-name="Group 3824">
                        <path id="Path_2799" d="M363.585 895.772c10.736 7.088 12.625-.509 7.836-.509" class="cls-5" data-name="Path 2799"/>
                        <path id="Path_2800" d="M363.43 896.006l.309-.469a26.229 26.229 0 0 0 2.91 1.683 2.993 2.993 0 0 1-.31.477 27.076 27.076 0 0 1-2.909-1.691z" class="cls-5" data-name="Path 2800"/>
                        <path id="Path_2801" d="M372.924 895.91a2.828 2.828 0 0 0-1.5-.367v-.561a3.34 3.34 0 0 1 1.831.471.877.877 0 0 0-.331.457z" class="cls-23" data-name="Path 2801"/>
                    </g>
                    <g id="Group_3825" data-name="Group 3825">
                        <path id="Path_2802" d="M341.738 895.772c-10.737 7.088-12.626-.509-7.837-.509" class="cls-5" data-name="Path 2802"/>
                        <path id="Path_2803" d="M341.892 896.006l-.309-.469a26.232 26.232 0 0 1-2.91 1.683 2.993 2.993 0 0 0 .31.477 27.076 27.076 0 0 0 2.909-1.691z" class="cls-5" data-name="Path 2803"/>
                        <path id="Path_2804" d="M332.4 895.91a2.824 2.824 0 0 1 1.5-.367v-.561a3.342 3.342 0 0 0-1.831.471.884.884 0 0 1 .331.457z" class="cls-23" data-name="Path 2804"/>
                    </g>
                </g>
            </g>
            <g id="Group_3847" data-name="Group 3847">
                <g id="Group_3844" data-name="Group 3844">
                    <g id="Group_3840" data-name="Group 3840">
                        <circle id="Ellipse_212" cx="18.435" cy="18.435" r="18.435" class="cls-5" data-name="Ellipse 212" transform="translate(333.982 866.685)"/>
                        <g id="Group_3830" data-name="Group 3830">
                            <g id="Group_3828" data-name="Group 3828">
                                <rect id="Rectangle_1199" width=".419" height="1.457" class="cls-5" data-name="Rectangle 1199" rx=".207" transform="translate(352.094 901.946)"/>
                            </g>
                            <g id="Group_3829" data-name="Group 3829">
                                <rect id="Rectangle_1200" width=".419" height="1.457" class="cls-5" data-name="Rectangle 1200" rx=".207" transform="translate(352.094 866.533)"/>
                            </g>
                        </g>
                        <g id="Group_3833" data-name="Group 3833">
                            <g id="Group_3831" data-name="Group 3831">
                                <path id="Rectangle_1201" d="M.207 0h1.042a.208.208 0 0 1 .208.208.208.208 0 0 1-.208.208H.207A.207.207 0 0 1 0 .212.207.207 0 0 1 .207 0z" class="cls-5" data-name="Rectangle 1201" transform="translate(369.394 884.882)"/>
                            </g>
                            <g id="Group_3832" data-name="Group 3832">
                                <path id="Rectangle_1202" d="M.208 0h1.041a.207.207 0 0 1 .207.207.208.208 0 0 1-.208.208H.207A.207.207 0 0 1 0 .212.208.208 0 0 1 .208 0z" class="cls-5" data-name="Rectangle 1202" transform="translate(333.982 884.939)"/>
                            </g>
                        </g>
                        <g id="Group_3836" data-name="Group 3836">
                            <g id="Group_3834" data-name="Group 3834">
                                <path id="Path_2805" d="M365.952 897.777a.208.208 0 0 1-.294 0l-.735-.738a.207.207 0 0 1 0-.293.208.208 0 0 1 .294 0l.735.739a.207.207 0 0 1 0 .292z" class="cls-5" data-name="Path 2805"/>
                            </g>
                            <g id="Group_3835" data-name="Group 3835">
                                <path id="Path_2806" d="M340.957 872.691a.207.207 0 0 1-.293 0l-.735-.738a.207.207 0 0 1 0-.293.207.207 0 0 1 .293 0l.736.738a.208.208 0 0 1-.001.293z" class="cls-5" data-name="Path 2806"/>
                            </g>
                        </g>
                        <g id="Group_3839" data-name="Group 3839">
                            <g id="Group_3837" data-name="Group 3837">
                                <path id="Rectangle_1203" d="M.208 0H1.25a.207.207 0 0 1 .207.207.207.207 0 0 1-.207.207H.207A.207.207 0 0 1 0 .212.208.208 0 0 1 .208 0z" class="cls-5" data-name="Rectangle 1203" transform="rotate(-45.742 1216.788 4.703)"/>
                            </g>
                            <g id="Group_3838" data-name="Group 3838">
                                <rect id="Rectangle_1204" width="1.457" height=".419" class="cls-5" data-name="Rectangle 1204" rx=".207" transform="rotate(-45.659 1236.588 45.89)"/>
                            </g>
                        </g>
                    </g>
                    <g id="Group_3841" data-name="Group 3841">
                        <path id="Path_2807" d="M352.416 903.9a18.86 18.86 0 1 1 13.337-5.524 18.738 18.738 0 0 1-13.337 5.524zm0-36.869a18.009 18.009 0 1 0 18.009 18.009 18.029 18.029 0 0 0-18.009-18.005z" class="cls-5" data-name="Path 2807"/>
                    </g>
                    <g id="Group_3843" class="cls-24" data-name="Group 3843">
                        <g id="Group_3842" data-name="Group 3842">
                            <path id="Path_2808" d="M352.416 903.437a18.4 18.4 0 1 1 13.006-5.388 18.271 18.271 0 0 1-13.006 5.388zm0-35.956a17.563 17.563 0 1 0 17.563 17.563 17.583 17.583 0 0 0-17.563-17.563z" class="cls-5" data-name="Path 2808"/>
                            <path id="Path_2809" d="M352.416 903.479a18.433 18.433 0 1 1 13.037-5.4 18.313 18.313 0 0 1-13.037 5.4zm0-36.786a18.351 18.351 0 1 0 12.976 5.375 18.23 18.23 0 0 0-12.976-5.375zm0 35.956a17.6 17.6 0 1 1 17.605-17.6 17.625 17.625 0 0 1-17.605 17.6zm0-35.125a17.52 17.52 0 1 0 17.52 17.52 17.539 17.539 0 0 0-17.52-17.52z" class="cls-5" data-name="Path 2809"/>
                        </g>
                    </g>
                </g>
                <g id="Group_3846" data-name="Group 3846">
                    <path id="Rectangle_1205" d="M.317 0h.006A.317.317 0 0 1 .64.317V7.5a.313.313 0 0 1-.313.313H.313A.313.313 0 0 1 0 7.5V.317A.317.317 0 0 1 .317 0z" class="cls-5" data-name="Rectangle 1205" transform="translate(351.976 877.372)"/>
                    <path id="Path_2810" d="M352.3 885.5c-.047 0-.084-.14-.084-.313v-7.184c0-.173.037-.313.084-.313.047 0 .084.14.084.313v7.184c-.004.176-.041.313-.084.313z" class="cls-5" data-name="Path 2810"/>
                    <path id="Path_2811" d="M352.227 885.376v-.005c.116-.14.378-.115.585.057l8.6 7.142c.207.172.28.425.163.565v.005c-.116.141-.378.115-.585-.056l-8.6-7.143c-.207-.171-.28-.424-.163-.565z" class="cls-5" data-name="Path 2811"/>
                    <path id="Path_2812" d="M352.687 885.721l.086-.012c.029-.036-.073-.091.115.065l8.088 6.754c.188.156.317.311.287.346-.029.035-.2-.063-.393-.219l-8.086-6.649c-.184-.153-.126-.25-.097-.285z" class="cls-5" data-name="Path 2812"/>
                    <g id="Group_3845" data-name="Group 3845">
                        <circle id="Ellipse_213" cx=".918" cy=".918" r=".918" class="cls-5" data-name="Ellipse 213" transform="translate(351.377 884.263)"/>
                        <circle id="Ellipse_214" cx=".592" cy=".592" r=".592" class="cls-5" data-name="Ellipse 214" transform="translate(351.704 884.59)"/>
                    </g>
                </g>
            </g>
        </g>
    </g>
</svg>
