<svg xmlns="http://www.w3.org/2000/svg" width="146.818" height="134.234" viewBox="0 0 146.818 134.234">
    <defs>
        <style>
            .cls-1,.cls-10,.cls-9{fill:#fff}.cls-1,.cls-10,.cls-2,.cls-8{stroke:#bf263f}.cls-2,.cls-4,.cls-5{fill:none}.cls-10,.cls-2,.cls-4,.cls-5{stroke-miterlimit:10}.cls-2{stroke-width:1.426px;stroke-dasharray:2.341 4.681;opacity:.512}.cls-3{fill:#ed4d67;opacity:.1}.cls-4,.cls-5{stroke:#f7657d;stroke-width:1.17px}.cls-4{opacity:.18}.cls-5{opacity:.14}.cls-6,.cls-8{fill:#bf263f}.cls-7{clip-path:url(#clip-path)}.cls-10{stroke-linecap:round;stroke-width:1.413px}.cls-11{opacity:.584}
        </style>
        <clipPath id="clip-path">
            <ellipse id="Ellipse_197" cx="61.103" cy="57.434" class="cls-1" data-name="Ellipse 197" rx="61.103" ry="57.434"/>
        </clipPath>
    </defs>
    <g id="_09" data-name="9" transform="translate(-970.401 -778.427)">
        <g id="Group_2358" data-name="Group 2358" transform="translate(971.67 785.002)">
            <g id="Group_2354" data-name="Group 2354">
                <g id="Group_2352" data-name="Group 2352" transform="translate(2.715 3.209)">
                    <path id="Path_826" d="M989.689 816.054c9.4 29.258 13.973 49.144 5.433 77.251-9.173 30.186 53.588 23.157 77.251 5.434 22.5-16.853 61.125-38.284-5.433-77.251-27.63-16.176-87.04-35.903-77.251-5.434z" class="cls-2" data-name="Path 826" transform="translate(-976.677 -790.256)"/>
                    <path id="Path_777" d="M1101.067 807.335c-13.2 29.9-20.242 50.424-14.334 81.1 6.346 32.946-59.253 18.535-82.309-2.842-21.924-20.319-60.394-47.287 14.334-81.1 31.017-14.037 96.049-28.293 82.309 2.842z" class="cls-3" data-name="Path 777" transform="translate(-974.809 -788.714)"/>
                </g>
                <g id="Group_2356" data-name="Group 2356">
                    <circle id="Ellipse_80" cx="2.851" cy="2.851" r="2.851" class="cls-4" data-name="Ellipse 80" transform="translate(123.905 25.571)"/>
                    <path id="Path_823" d="M1122.689 849.061l4.473-2.347.607-5.014 3.614 3.528 4.959-.977-2.239 4.527 2.46 4.411-5-.731-3.435 3.7-.85-4.978z" class="cls-5" data-name="Path 823" transform="translate(-992.101 -792.673)"/>
                    <path id="Path_828" d="M973.657 785l2.93 1.645 3.023-1.48-.659 3.3 2.341 2.412-3.337.392-1.57 2.973-1.4-3.053-3.311-.574 2.471-2.278z" class="cls-5" data-name="Path 828" transform="translate(-971.67 -785.002)"/>
                    <circle id="Ellipse_81" cx="4.875" cy="4.875" r="4.875" class="cls-4" data-name="Ellipse 81" transform="translate(3.474 101.472)"/>
                </g>
            </g>
        </g>
        <g id="Group_3253" data-name="Group 3253" transform="translate(976.533 782.364)">
            <g id="Group_3226" data-name="Group 3226" transform="translate(85.021 10.249)">
                <path id="Path_1883" d="M296.245 132.22a16.09 16.09 0 0 1 3.112-4.842 8.917 8.917 0 0 1 3.911-2.193 17.548 17.548 0 0 0 3.7-1.395 4.577 4.577 0 0 0 2.032-2.155q1.552-3.393-1.37-4.73a2.979 2.979 0 0 0-2.632-.008 4.626 4.626 0 0 0-2.1 2.274l-7.6-3.475a9.965 9.965 0 0 1 6.035-5.706q3.933-1.231 8.969 1.071 5.012 2.293 6.707 5.867a8.936 8.936 0 0 1-.259 7.845 8.435 8.435 0 0 1-2.294 3.055 12.607 12.607 0 0 1-3.812 2.035l-3.685 1.223a6.684 6.684 0 0 0-2.521 1.47 9.447 9.447 0 0 0-1.763 2.605zm-4.047 6.412a3.836 3.836 0 0 1 2.452-2.181 5.224 5.224 0 0 1 6 2.745 4.071 4.071 0 0 1-2.5 5.462 5.223 5.223 0 0 1-6-2.745 3.834 3.834 0 0 1 .05-3.281z" class="cls-1" data-name="Path 1883" transform="translate(-291.805 -109.56)"/>
            </g>
            <g id="Group_3227" data-name="Group 3227" transform="translate(13.965 25.1)">
                <path id="Path_1884" d="M110.481 168.568a11.7 11.7 0 0 1-2.27-3.516 6.483 6.483 0 0 1-.276-3.249 12.785 12.785 0 0 0 .188-2.866 3.329 3.329 0 0 0-.816-1.994q-1.78-2.048-3.544-.516a2.169 2.169 0 0 0-.8 1.741 3.363 3.363 0 0 0 .874 2.074l-4.585 3.986a7.248 7.248 0 0 1-1.964-5.711 9.028 9.028 0 0 1 3.412-5.617 9.384 9.384 0 0 1 5.9-2.677 6.5 6.5 0 0 1 5.117 2.53 6.136 6.136 0 0 1 1.333 2.437 9.173 9.173 0 0 1 .2 3.136l-.3 2.808a4.866 4.866 0 0 0 .215 2.111 6.87 6.87 0 0 0 1.195 1.95zm3.029 4.607a2.79 2.79 0 0 1-.707-2.279 3.8 3.8 0 0 1 3.622-3.148 2.961 2.961 0 0 1 2.866 3.3 3.8 3.8 0 0 1-3.622 3.148 2.79 2.79 0 0 1-2.159-1.02z" class="cls-1" data-name="Path 1884" transform="translate(-97.24 -150.223)"/>
            </g>
            <g id="Group_3228" data-name="Group 3228" transform="translate(22.427 2.998)">
                <path id="Path_1885" d="M127.556 101.54a7.344 7.344 0 0 1-.985-2.437 4.071 4.071 0 0 1 .213-2.037 8.025 8.025 0 0 0 .455-1.746 2.093 2.093 0 0 0-.268-1.326q-.856-1.474-2.125-.737a1.361 1.361 0 0 0-.7.979 2.113 2.113 0 0 0 .294 1.383l-3.3 1.917a4.55 4.55 0 0 1-.536-3.755 5.671 5.671 0 0 1 2.764-3.062 5.892 5.892 0 0 1 3.956-.954 4.081 4.081 0 0 1 2.857 2.165 3.851 3.851 0 0 1 .534 1.661 5.765 5.765 0 0 1-.246 1.958l-.516 1.7a3.05 3.05 0 0 0-.116 1.328 4.32 4.32 0 0 0 .507 1.344zm1.324 3.2a1.75 1.75 0 0 1-.167-1.489 2.385 2.385 0 0 1 2.606-1.514 1.859 1.859 0 0 1 1.378 2.372 2.386 2.386 0 0 1-2.606 1.514 1.75 1.75 0 0 1-1.212-.883z" class="cls-6" data-name="Path 1885" transform="translate(-120.409 -89.705)"/>
            </g>
            <g id="Group_3244" data-name="Group 3244" transform="translate(0 8.493)">
                <g id="Group_3243" class="cls-7" data-name="Group 3243">
                    <g id="Group_3236" data-name="Group 3236" transform="translate(41.329 11.536)">
                        <path id="Path_1971" d="M220.313 299.811a29.785 29.785 0 0 0-4.719-1.539l.17-.637-4.522-.518.025-.03-1.26-1.762-.441-6.095-6.209-.366-.582 6.481-.386-.212-1.4 1.853.106.109-5.012 2.237.214.833c-.833.359-1.686.748-2.508 1.153a26.378 26.378 0 0 0 11.545 2.851c7.026.286 13.022-1.569 14.979-4.358z" class="cls-1" data-name="Path 1971" transform="translate(-185.895 -233.161)"/>
                        <path id="Path_1972" d="M257.915 238.973c.684 2.484-1.176 6.972-3.348 5.532s-1.344-5.97-1.344-5.97c2.084-.922 4.009-2.046 4.692.438z" class="cls-1" data-name="Path 1972" transform="translate(-223.522 -200.532)"/>
                        <path id="Path_1973" d="M258.879 242.607c.414 1.506-.712 4.228-2.028 3.354s-.815-3.618-.815-3.618c1.264-.561 2.43-1.243 2.843.264z" class="cls-1" data-name="Path 1973" transform="translate(-225.346 -203.216)"/>
                        <path id="Path_1974" d="M256.952 246.185c.269.979-.463 2.75-1.32 2.182s-.529-2.354-.529-2.354c.822-.365 1.58-.813 1.849.172z" class="cls-1" data-name="Path 1974" transform="translate(-224.775 -205.69)"/>
                        <path id="Path_1975" d="M183.907 243.655c-.448 2.462 1.417 6.93 3.214 5.514s.821-5.918.821-5.918c-1.859-.93-3.587-2.057-4.035.404z" class="cls-1" data-name="Path 1975" transform="translate(-179.577 -203.518)"/>
                        <path id="Path_1976" d="M187.095 246.36c-.314 1.708.969 4.805 2.216 3.823s.582-4.1.582-4.1c-1.286-.648-2.482-1.43-2.798.277z" class="cls-1" data-name="Path 1976" transform="translate(-181.613 -205.524)"/>
                        <path id="Path_1977" d="M190.491 248.781c-.249.975.525 2.7 1.37 2.113s.479-2.338.479-2.338c-.834-.334-1.602-.748-1.849.225z" class="cls-1" data-name="Path 1977" transform="translate(-183.769 -207.332)"/>
                        <path id="Path_1978" d="M180.537 182.091c-1.034-5.229-2.065-16.24-3.464-16.4s-7-.82-3.5-10.494c0 0-7.7-9.017 12.949-11.806 0 0-.348-7.052 11.026-7.052s6.821 5.9 6.821 5.9 4.726-7.706 9.625-2.787.69 14.97-5.424 21.971c-4.726 5.412-5.249 19.02-5.249 19.02z" class="cls-8" data-name="Path 1978" transform="translate(-172.167 -136.337)"/>
                        <path id="Path_1979" d="M190.7 186.353a39.736 39.736 0 0 1-17.179-3.666c-2.31 8.108 2.713 8.7 4.03 8.854 1.4.163 2.429 11.173 3.464 16.4L203.8 206.3s.524-13.608 5.249-19.02a35.181 35.181 0 0 0 6.311-10.215c-4.527 5.505-13.86 9.288-24.66 9.288z" class="cls-8" data-name="Path 1979" transform="translate(-172.648 -162.19)"/>
                        <path id="Path_1980" d="M194.462 218.685s8.906 4.238 12.774 3.758c3.629-.449 9.837-3.758 9.837-3.758s3.637-21.33-7.565-39.7c0 0-12.248 2.788-14 6.4s-1.046 33.3-1.046 33.3z" class="cls-1" data-name="Path 1980" transform="translate(-186.232 -163.413)"/>
                        <path id="Path_1981" d="M200.656 227.624c-.532.317 0 3.885.887 4.185s5.223-1.3 8.377-2.989c.657-.352-.08-2.251-1.526-2.789-1.96-.731-5.187.069-7.738 1.593z" class="cls-9" data-name="Path 1981" transform="translate(-190.117 -193.101)"/>
                        <path id="Path_1982" d="M233.919 220.059c.572.3 1.288 6.475.345 6.775s-7.844-.6-8.526-2.242-.986-9.414 8.181-4.533z" class="cls-9" data-name="Path 1982" transform="translate(-205.983 -188.475)"/>
                        <path id="Path_1983" d="M227.818 178.042c-.538 1.384-1.725 3.038-6.7 2.953-3.1-.053-3.034 2.109-3.227 2.77 0 0-2-2.527 1.4-4.171a3.4 3.4 0 0 0 2.2-2.992z" class="cls-8" data-name="Path 1983" transform="translate(-200.819 -161.898)"/>
                        <path id="Path_1984" d="M208.583 179.8c-1.16.916-7.251 5.6-10.126 4.42s-3.674.258-4.174.728c0 0-.455-3.2 3.3-2.875a3.345 3.345 0 0 0 3.4-1.444z" class="cls-8" data-name="Path 1984" transform="translate(-186.196 -163.928)"/>
                        <path id="Path_1985" d="M219.58 245.105s1.012 1.753 2.439 1.793a2.96 2.96 0 0 0 2.44-1.718l-1.483-9.812-1.72.068z" class="cls-1" data-name="Path 1985" transform="translate(-202.265 -199.202)"/>
                        <path id="Path_1986" d="M218.625 233.967a2.415 2.415 0 0 0 1.553.807 2.892 2.892 0 0 0 1.552-.773l-.433-9.188 1.2-7.72-5.815.5 2.565 6.872z" class="cls-1" data-name="Path 1986" transform="translate(-200.424 -187.601)"/>
                        <path id="Path_1988" d="M227.907 216.876c1.342-.95 6.314.027 7.453 1.365l-.11-2.671a8.321 8.321 0 0 0-7.886.139z" class="cls-6" data-name="Path 1988" transform="translate(-207.206 -186.057)"/>
                        <path id="Path_1989" d="M212.125 236.852c0-1.2-.551-2.167-1.233-2.167s-1.23.97-1.23 2.167.552 2.167 1.23 2.167 1.233-.971 1.233-2.167z" class="cls-1" data-name="Path 1989" transform="translate(-195.969 -198.768)"/>
                        <path id="Path_1990" d="M240.057 236.852c0-1.2-.551-2.167-1.233-2.167s-1.232.97-1.232 2.167.553 2.167 1.232 2.167 1.233-.971 1.233-2.167z" class="cls-1" data-name="Path 1990" transform="translate(-213.699 -198.768)"/>
                        <path id="Path_1991" d="M261.791 154.371c-1.109-2.914-1.258-10.236 2.808-13.448 0 0-4.508.128-5.691 5.976-.667 3.287 2.883 7.472 2.883 7.472z" class="cls-1" data-name="Path 1991" transform="translate(-227.177 -139.248)"/>
                        <path id="Path_1992" d="M212.137 149.087c-.324-2.877 2.491-10.331 6.883-12.257 0 0-5.248.3-7.748 4.869-1.488 2.725.865 7.388.865 7.388z" class="cls-1" data-name="Path 1992" transform="translate(-196.678 -136.65)"/>
                        <path id="Path_1993" d="M176.2 190.367c-.763-2.007-.854-7.475 1.947-9.688 0 0-3.474 1.345-3.933 4.541-.332 2.286 1.986 5.147 1.986 5.147z" class="cls-1" data-name="Path 1993" transform="translate(-173.444 -164.485)"/>
                        <path id="Path_1994" d="M196.032 194.646c.1-1.743-.05-4.06 1.133-5.853 1.183 1.2 4.583 1.2 4.583 1.2z" class="cls-8" data-name="Path 1994" transform="translate(-187.317 -169.636)"/>
                        <path id="Path_1995" d="M235.189 190.554c-.094-1.744.046-4.06-1.074-5.853-1.122 1.2-4.346 1.57-4.346 1.57z" class="cls-8" data-name="Path 1995" transform="translate(-208.732 -167.038)"/>
                        <path id="Path_1987" d="M198.817 223.293c1.482.717 6.222-1.09 7.127-2.61l.331 2.669a8.293 8.293 0 0 1-7.8 1.191z" class="cls-6" data-name="Path 1987" transform="translate(-188.868 -189.88)"/>
                        <path id="Path_2689" d="M218.625 233.967a2.415 2.415 0 0 0 1.553.807 2.892 2.892 0 0 0 1.552-.773l-.433-9.188 2.2-8.127-6.82.906 2.565 6.872z" class="cls-9" data-name="Path 2689" transform="translate(-201.425 -188.601)"/>
                    </g>
                    <path id="Path_1996" d="M220.943 279.5a6.109 6.109 0 0 1 3.921-1.286" class="cls-10" data-name="Path 1996" transform="translate(-161.801 -214.858)"/>
                    <g id="Group_3242" data-name="Group 3242" transform="translate(4.529 70.211)">
                        <g id="Group_3238" data-name="Group 3238" transform="translate(0 4.117)">
                            <g id="Group_3237" data-name="Group 3237" transform="translate(0 73.75)">
                                <path id="Path_1997" d="M87.9 510.982c-1.073 1.8.007 6.912-2.042 6.63-1.831-.254-4.52-3.051.379-7.394z" class="cls-1" data-name="Path 1997" transform="translate(-79.051 -510.218)"/>
                                <path id="Path_1998" d="M83.336 517.493c3.254.267 3.114 3.773 2.785 4.852-.369 1.187-2.862 1.583-3.77.951s-.261-5.906.985-5.803z" class="cls-1" data-name="Path 1998" transform="translate(-78.081 -514.836)"/>
                                <path id="Path_1999" d="M75.491 521.726c-1.469 1.02-3.745 1.52-4.05.915-.351-.684 1.719-.786 2.766-2 1.142-1.31 1.938-2.075 2.559-1.683s.201 1.754-1.275 2.768z" class="cls-1" data-name="Path 1999" transform="translate(-71.402 -515.703)"/>
                                <path id="Path_2000" d="M80.564 529.114c-.434 1.384-1.028 2-1.434 1.832s-.106-.938.328-2.322.59-3.254 1-3.086.542 2.195.106 3.576z" class="cls-1" data-name="Path 2000" transform="translate(-76.185 -519.936)"/>
                                <path id="Path_2001" d="M85.963 531.8c-.111 1.477-.95 2.671-1.372 2.579s.043-1.4.15-2.883.271-2.426.7-2.332.631 1.157.522 2.636z" class="cls-1" data-name="Path 2001" transform="translate(-79.662 -522.241)"/>
                                <path id="Path_2002" d="M91.1 529.031c-.176 1.469-.652 2.233-1.074 2.129s-.1-1.035.082-2.5.326-2.49.75-2.388.423 1.291.242 2.759z" class="cls-1" data-name="Path 2002" transform="translate(-83.095 -520.402)"/>
                            </g>
                            <path id="Path_2003" d="M152.132 329.715c-3.139 4.025-5.581 11.4-15.871 18.917-4.289 3.132-6.1-.865-5.441-4.875s17.155-34.657 20.351-35.457 2.774 19.092.961 21.415z" class="cls-1" data-name="Path 2003" transform="translate(-109.036 -308.275)"/>
                            <path id="Path_2004" d="M136.845 348.3c10.908-8.5 12.3-21 15.564-25.473 1.323-1.81 3.057-8.054 1.673-14.511 2.987.192 3.163 21.185 1.394 23.453-3.139 4.025-6.234 9.377-16.525 16.891-1.762 1.287-3.1 1.359-4.026.731a6.728 6.728 0 0 0 1.92-1.091z" class="cls-1" data-name="Path 2004" transform="translate(-111.726 -308.298)"/>
                            <path id="Path_2005" d="M107.813 404.432c-3.515-1.624-13.994 4.492-19.449 37.783l2.307.564s24-35.179 17.142-38.347z" class="cls-1" data-name="Path 2005" transform="translate(-82.169 -369.165)"/>
                            <path id="Path_2006" d="M110.692 407.225c3.968 6.391-18.1 37.476-18.1 37.476l-1.2-.294c1.871-2.858 17.108-26.327 19.3-37.182z" class="cls-1" data-name="Path 2006" transform="translate(-84.09 -371.088)"/>
                            <path id="Path_2007" d="M82.014 502.386l2.368-6.381s7.115 1.074 5.595 5.336c-1.377 3.859-7.963 1.045-7.963 1.045z" class="cls-1" data-name="Path 2007" transform="translate(-78.138 -427.445)"/>
                            <path id="Path_2008" d="M146.118 405.919c.35-1.825-.137-4.787-.642-4.792s.435 4.255-1.115 6.836z" class="cls-1" data-name="Path 2008" transform="translate(-117.716 -367.217)"/>
                            <path id="Path_2009" d="M140.9 414.057c.35-1.824-1.129-3.48-1.477-3.113-.775.82-.13 4.169-1.68 6.75z" class="cls-1" data-name="Path 2009" transform="translate(-113.516 -373.416)"/>
                            <path id="Path_2010" d="M110.685 394.773c5.74-4.808 7.229-6.843 9.09-7.041 0 0 1.03-6.922 3.051-11.333 0 0-4.885 7.731-4.7 10.6-.003.001-6.076 5.767-7.441 7.774z" class="cls-1" data-name="Path 2010" transform="translate(-96.339 -351.52)"/>
                        </g>
                        <g id="Group_3239" data-name="Group 3239" transform="translate(102.246 83.926)">
                            <path id="Path_2011" d="M351.372 527.634c1.141 1.761.255 6.907 2.292 6.548 1.821-.323 4.4-3.22-.659-7.374z" class="cls-1" data-name="Path 2011" transform="translate(-351.372 -526.808)"/>
                            <path id="Path_2012" d="M356.506 533.875c-3.241.39-2.969 3.888-2.6 4.954.414 1.172 2.921 1.473 3.8.807s.042-5.912-1.2-5.761z" class="cls-1" data-name="Path 2012" transform="translate(-352.845 -531.292)"/>
                            <path id="Path_2013" d="M362.1 538.047c1.507.963 3.8 1.377 4.082.76.325-.7-1.748-.72-2.839-1.89-1.191-1.265-2.016-2-2.621-1.584s-.139 1.756 1.378 2.714z" class="cls-1" data-name="Path 2013" transform="translate(-357.143 -532.145)"/>
                            <path id="Path_2014" d="M363.867 545.388c.487 1.366 1.1 1.958 1.5 1.776s.07-.941-.415-2.308-.713-3.229-1.116-3.046-.453 2.215.031 3.578z" class="cls-1" data-name="Path 2014" transform="translate(-359.084 -536.323)"/>
                            <path id="Path_2015" d="M359.144 548.243c.167 1.472 1.051 2.633 1.469 2.526s-.1-1.4-.26-2.875-.362-2.414-.783-2.3-.591 1.175-.426 2.649z" class="cls-1" data-name="Path 2015" transform="translate(-356.266 -538.725)"/>
                            <path id="Path_2016" d="M354.179 545.673c.232 1.461.736 2.207 1.154 2.086s.057-1.037-.177-2.5-.42-2.475-.84-2.357-.372 1.311-.137 2.771z" class="cls-1" data-name="Path 2016" transform="translate(-353.042 -537.019)"/>
                        </g>
                        <path id="Path_2017" d="M263.674 340.359c2.5 4.451 3.8 12.113 12.84 21.093 3.768 3.742 6.164.065 6.113-4s-11.737-36.845-14.775-38.12-5.62 18.457-4.178 21.027z" class="cls-1" data-name="Path 2017" transform="translate(-193.195 -311.139)"/>
                        <path id="Path_2018" d="M277.133 361.436c-9.5-10.052-8.991-22.613-11.547-27.528-1.035-1.988-1.808-8.423.533-14.6-2.982-.26-6.32 20.466-4.912 22.976 2.5 4.451 4.75 10.209 13.79 19.188 1.548 1.538 2.859 1.81 3.87 1.329a6.738 6.738 0 0 1-1.734-1.365z" class="cls-1" data-name="Path 2018" transform="translate(-191.679 -311.162)"/>
                        <path id="Path_2019" d="M299.357 422.933c3.451-1.756 14.154 3.958 20.867 37.018l-2.284.651s-25.317-34.246-18.583-37.669z" class="cls-1" data-name="Path 2019" transform="translate(-215.384 -376.762)"/>
                        <path id="Path_2020" d="M298.1 425.9c-3.723 6.537 19.509 36.763 19.509 36.763l1.191-.339c-1.98-2.78-18.095-25.655-20.7-36.424z" class="cls-1" data-name="Path 2020" transform="translate(-215.053 -378.829)"/>
                        <path id="Path_2021" d="M334.1 828.721c-1.287.143-2.071-1.642-1.429-2.856s-2-12.067-2-12.067l5.5 14z" class="cls-1" data-name="Path 2021" transform="translate(-235.985 -625.062)"/>
                        <path id="Path_2022" d="M170.44 610.023l3.389 1.144s7.016-36 4.243-59.526c-1.844-15.62 4.838-49.08 8.182-48.8 5.2.437 23.658 42.2 25.535 51.569 4.521 22.622 10.422 29.577 19.163 54.851l3.427 1.715s-8.736-40.647-15.52-57.22c-4.368-10.676-9.3-48.952-14.293-77.49 0 0-30.382-11.329-34.544-2.178-5.443 11.964-2.1 61.169-.7 74.939 2.088 20.473 3.478 40.083 1.118 60.996z" class="cls-1" data-name="Path 2022" transform="translate(-132.101 -407.149)"/>
                        <path id="Path_2023" d="M168.586 492.248s4.713 4.427 10.425 5.569l2.57-7.711 1.143 7.711s14.281 1.143 24.421-3.57l-3.572-15.566-33.13 1.285z" class="cls-1" data-name="Path 2023" transform="translate(-133.094 -412.331)"/>
                        <g id="Group_3240" data-name="Group 3240" transform="translate(39.92 63.386)">
                            <path id="Path_2024" d="M221.583 485.1c4.994 28.537 12.768 56.015 17.137 66.691 6.046 14.766 12.776 50.43 14.358 57.639l3.16 1.58s-8.736-40.647-15.52-57.22c-4.368-10.676-9.3-48.952-14.293-77.49 0 0-14.623-5.449-24.971-5.731 9.983 1.017 20.129 14.531 20.129 14.531z" class="cls-1" data-name="Path 2024" transform="translate(-193.879 -470.565)"/>
                            <path id="Path_2025" d="M192.421 552.716c-3.343-.281-10.36 35.292-8.515 50.912 2.543 21.591-2.239 54.008-3.194 59.144l1.808.573s7.016-36 4.243-59.526c-1.844-15.62 4.838-49.08 8.182-48.8a1.63 1.63 0 0 1 .217.065c-1.1-1.442-2.04-2.309-2.741-2.368z" class="cls-1" data-name="Path 2025" transform="translate(-180.711 -522.713)"/>
                        </g>
                        <path id="Path_2026" d="M198.7 547.76c2.713.857 9.853 1.714 15.424-1.428 0 0-3.521 4.562-7.759 4.637s-7.665-3.209-7.665-3.209z" class="cls-1" data-name="Path 2026" transform="translate(-152.208 -455.276)"/>
                        <path id="Path_2027" d="M165.545 379.635c1.662 2.666 10.3 5.828 10.3 5.828l4.047-11.17 1.766 11.242s17.436.223 26.195-5.652c0 0-4.44-39.18-1.575-51.68s1.4-18.329-2.341-19.813-27.974-6.495-30.232-1.241-2.652 29.655-2.548 38.009c.07 5.642-3.419 24.031-5.612 34.477z" class="cls-1" data-name="Path 2027" transform="translate(-131.164 -301.956)"/>
                        <path id="Path_2028" d="M176.132 350.768c.349-2.264.066-1.97-.456-.093a222.25 222.25 0 0 0-.515 22.644c.047 3.871-1.579 13.731-3.311 22.913 2.236-10.833 6.448-15.261 6.448-15.261-.098-.471-3.308-22.777-2.166-30.203z" class="cls-1" data-name="Path 2028" transform="translate(-135.165 -330.116)"/>
                        <path id="Path_2029" d="M258.139 409.422c.391 15.6 1.308 25.928 1.308 25.928a28.807 28.807 0 0 1-8.729 3.613 32.337 32.337 0 0 0 11.2-4.185s-2.733-27.419-2-43.494c-1.208 3.571-1.959 10.969-1.779 18.138z" class="cls-1" data-name="Path 2029" transform="translate(-185.231 -356.852)"/>
                        <path id="Path_2030" d="M217.613 318.06c-1.731 5.327-5.377 35.585.261 55.156l4.3 3.29.8-5.3s-6.884-15.666-4.548-53.166z" class="cls-1" data-name="Path 2030" transform="translate(-162.461 -310.357)"/>
                        <path id="Path_2031" d="M223.723 308.941l2.855 5.284 7.07-5.712-1.428-.714z" class="cls-8" data-name="Path 2031" transform="translate(-168.095 -303.855)"/>
                        <path id="Path_2032" d="M215.7 303.68l-5.069 4.927-1.572-5.284 4.213-1z" class="cls-1" data-name="Path 2032" transform="translate(-158.785 -300.38)"/>
                        <path id="Path_2033" d="M216.149 306.906l1.937 3.733 3.987-3.4-3.3-3.549z" class="cls-1" data-name="Path 2033" transform="translate(-163.287 -301.249)"/>
                        <path id="Path_2034" d="M209.32 298.947l1.837-1.947 3.731 2.433-3.784 4.271z" class="cls-1" data-name="Path 2034" transform="translate(-158.952 -297.001)"/>
                        <path id="Path_2035" d="M232.975 303.56l-1.386-2.93-9.2 1.073 3.041 6.022z" class="cls-1" data-name="Path 2035" transform="translate(-167.249 -299.305)"/>
                        <path id="Path_2036" d="M213.092 319.594c-2.028 5.134-7.359 34.3-2.821 53.149l4.108 3.166 1.1-5.109s-6-15.089-1.569-51.227z" class="cls-1" data-name="Path 2036" transform="translate(-158.425 -311.33)"/>
                        <path id="Path_2037" d="M350.669 518.794l-2.608-6.287s-7.069 1.344-5.389 5.545c1.528 3.808 7.997.742 7.997.742z" class="cls-1" data-name="Path 2037" transform="translate(-243.44 -433.804)"/>
                        <path id="Path_2038" d="M338.425 851.28h7.427s-3.055-2.941-4-2.941c-1.434 0-3.427 2.941-3.427 2.941z" class="cls-1" data-name="Path 2038" transform="translate(-240.907 -646.989)"/>
                        <path id="Path_2039" d="M157.1 850.4h10.62s-1.7-3.45-2.842-3.45c-1.73-.004-7.778 3.45-7.778 3.45z" class="cls-1" data-name="Path 2039" transform="translate(-125.801 -646.104)"/>
                        <path id="Path_2040" d="M297.035 421.732c-.071-1.856.856-4.712 1.356-4.64s-1.071 4.141.072 6.926z" class="cls-1" data-name="Path 2040" transform="translate(-214.631 -373.233)"/>
                        <path id="Path_2041" d="M298.991 430.38c-.071-1.855 1.641-3.27 1.929-2.855.643.928-.5 4.141.643 6.926z" class="cls-1" data-name="Path 2041" transform="translate(-215.873 -379.811)"/>
                        <path id="Path_2042" d="M275.97 360.19c-.286-3.427-.383-8.664.095-8.474s1.333 13.233 1.333 13.233z" class="cls-1" data-name="Path 2042" transform="translate(-201.109 -331.731)"/>
                        <path id="Path_2043" d="M272.921 370.473c-.5-2.68-1.573-6.872-1.143-6.76s2.477 7.712 2.477 7.712z" class="cls-1" data-name="Path 2043" transform="translate(-198.537 -339.348)"/>
                        <path id="Path_2044" d="M249.543 378.384s-.571-4.76.571-4.76.667 4.665.667 4.665z" class="cls-1" data-name="Path 2044" transform="translate(-184.394 -345.641)"/>
                        <path id="Path_2045" d="M239.365 386.4h7.426a8.432 8.432 0 0 1-7.426 0z" class="cls-1" data-name="Path 2045" transform="translate(-178.024 -353.749)"/>
                        <path id="Path_2046" d="M250.968 382.973c0 1.189 0 2.808.285 2.808s.1-2.9.1-2.9z" class="cls-1" data-name="Path 2046" transform="translate(-185.39 -351.515)"/>
                        <path id="Path_2047" d="M181.941 356.346c.714-1.761 2.19-3.809 2.427-3.713s-2.618 5.569-2.618 6.616z" class="cls-1" data-name="Path 2047" transform="translate(-141.45 -332.314)"/>
                        <g id="Group_3241" data-name="Group 3241" transform="translate(50.67 8.656)">
                            <path id="Path_2048" d="M216.09 445.543l-3.934 2.383c.185 1.423.406 2.811.672 4.144l4.125-2.5c-.206-.77-.524-2.094-.863-4.027z" class="cls-8" data-name="Path 2048" transform="translate(-211.422 -399.951)"/>
                            <path id="Path_2049" d="M213.744 420.539l-3.528 2.136c.044 1.489.112 2.969.214 4.421l3.731-2.259q-.228-1.942-.417-4.298z" class="cls-8" data-name="Path 2049" transform="translate(-210.19 -384.079)"/>
                            <path id="Path_2050" d="M213.262 391.219l-2.965 1.793a168.63 168.63 0 0 0-.152 4.645l3.21-1.944q-.074-2.128-.093-4.494z" class="cls-8" data-name="Path 2050" transform="translate(-210.145 -365.467)"/>
                            <path id="Path_2051" d="M214.274 364.628l-2.374 1.437c-.159 1.552-.3 3.164-.43 4.812l2.662-1.612a215.1 215.1 0 0 1 .142-4.637z" class="cls-8" data-name="Path 2051" transform="translate(-210.986 -348.587)"/>
                            <path id="Path_2052" d="M216.531 339.223l-1.673 1.012c-.241 1.513-.483 3.19-.712 4.983l2.055-1.246c.092-1.535.199-3.113.33-4.749z" class="cls-8" data-name="Path 2052" transform="translate(-212.685 -332.46)"/>
                            <path id="Path_2053" d="M219.449 320.7l-.674.02a38 38 0 0 0-1 4.255l1.34-.812c.101-1.129.214-2.281.334-3.463z" class="cls-8" data-name="Path 2053" transform="translate(-214.988 -320.704)"/>
                        </g>
                        <path id="Path_2054" d="M317.161 413.167c-4.95-5.618-6.115-7.854-7.925-8.33 0 0 .025-7-1.308-11.664 0 0 3.664 8.379 3.052 11.191 0 0 5.134 6.613 6.181 8.803z" class="cls-1" data-name="Path 2054" transform="translate(-221.548 -358.051)"/>
                        <path id="Path_2055" d="M272.676 653.259c3.146 7.473 5.563 14.071 6.182 17.156a132.012 132.012 0 0 0 6.076 21.518c-1.455-8.384-4.091-23.063-5-24.885a142.859 142.859 0 0 0-7.258-13.789z" class="cls-1" data-name="Path 2055" transform="translate(-199.17 -523.153)"/>
                        <path id="Path_2056" d="M241.321 404.846s2.855 1.928 3.713 1.928 3.284-2 3.284-2-1.786 2.571-3.284 2.571-3.713-2.499-3.713-2.499z" class="cls-1" data-name="Path 2056" transform="translate(-179.266 -365.416)"/>
                    </g>
                </g>
            </g>
            <g id="Group_5510" class="cls-11" data-name="Group 5510" transform="rotate(36 33.768 83.339)">
                <path id="Path_1885-2" d="M125.242 97.709a4.967 4.967 0 0 1-.666-1.648 2.753 2.753 0 0 1 .144-1.377 5.427 5.427 0 0 0 .307-1.181 1.415 1.415 0 0 0-.181-.9q-.579-1-1.437-.5a.921.921 0 0 0-.472.662 1.429 1.429 0 0 0 .2.935l-2.231 1.3a3.078 3.078 0 0 1-.363-2.539 3.835 3.835 0 0 1 1.869-2.071 3.985 3.985 0 0 1 2.676-.645 2.76 2.76 0 0 1 1.932 1.464 2.6 2.6 0 0 1 .361 1.123 3.9 3.9 0 0 1-.166 1.324l-.349 1.148a2.063 2.063 0 0 0-.079.9 2.921 2.921 0 0 0 .343.909zm.9 2.164a1.184 1.184 0 0 1-.113-1.007 1.613 1.613 0 0 1 1.762-1.024 1.257 1.257 0 0 1 .932 1.6 1.613 1.613 0 0 1-1.763 1.024 1.184 1.184 0 0 1-.822-.593z" class="cls-6" data-name="Path 1885" transform="translate(-120.409 -89.705)"/>
            </g>
        </g>
    </g>
</svg>
