<svg xmlns="http://www.w3.org/2000/svg" width="170.043" height="148.613" viewBox="0 0 170.043 148.613">
    <defs>
        <style>
            .cls-1,.cls-3,.cls-4{fill:none;stroke-miterlimit:10}.cls-1,.cls-5{stroke:#bf263f}.cls-1{stroke-width:1.426px;stroke-dasharray:2.341 4.681;opacity:.512}.cls-2{fill:#ed4d67;opacity:.1}.cls-3,.cls-4{stroke:#f7657d;stroke-width:1.17px}.cls-3{opacity:.18}.cls-4{opacity:.14}.cls-5{fill:#fff;stroke-linecap:round;stroke-linejoin:round;stroke-width:1.5px}
        </style>
    </defs>
    <g id="_11" data-name="11" transform="translate(-715.176 -296.91)">
        <g id="Group_2358" data-name="Group 2358">
            <g id="Group_2354" data-name="Group 2354">
                <g id="Group_2352" data-name="Group 2352">
                    <path id="Path_826" d="M735.253 331.548c10.873 33.835 16.159 56.833 6.283 89.337-10.608 34.909 61.972 26.78 89.338 6.284 26.017-19.49 70.688-44.274-6.283-89.337-31.954-18.707-100.662-41.52-89.338-6.284z" class="cls-1" data-name="Path 826"/>
                    <path id="Path_777" d="M866.216 323.248c-15.261 34.576-23.409 58.313-16.577 93.79 7.339 38.1-68.522 21.435-95.187-3.286-25.353-23.5-69.842-54.685 16.576-93.79 35.872-16.233 111.072-32.723 95.188 3.286z" class="cls-2" data-name="Path 777"/>
                </g>
                <g id="Group_2356" data-name="Group 2356">
                    <circle id="Ellipse_80" cx="3.297" cy="3.297" r="3.297" class="cls-3" data-name="Ellipse 80" transform="translate(860.357 327.574)"/>
                    <path id="Path_823" d="M868.084 363.213l5.172-2.714.7-5.8 4.18 4.08 5.734-1.13-2.589 5.235 2.846 5.1-5.78-.845-3.972 4.282-.983-5.757z" class="cls-4" data-name="Path 823"/>
                    <path id="Path_828" d="M719.364 298l3.389 1.9 3.495-1.712-.762 3.812 2.708 2.789-3.86.453-1.816 3.438-1.623-3.531-3.83-.664 2.857-2.635z" class="cls-4" data-name="Path 828"/>
                    <circle id="Ellipse_81" cx="5.638" cy="5.638" r="5.638" class="cls-3" data-name="Ellipse 81" transform="translate(721.083 415.351)"/>
                </g>
            </g>
        </g>
        <g id="Group_3661" data-name="Group 3661">
            <g id="Group_3640" data-name="Group 3640">
                <path id="Rectangle_1160" d="M0 0h33.586v.598H0z" class="cls-5" data-name="Rectangle 1160" transform="rotate(-50.033 801.805 -621.571)"/>
            </g>
            <g id="Group_3641" data-name="Group 3641">
                <path id="Rectangle_1161" d="M0 0h.598v41.573H0z" class="cls-5" data-name="Rectangle 1161" transform="rotate(-72.492 621.84 -302.831)"/>
            </g>
            <g id="Group_3642" data-name="Group 3642">
                <circle id="Ellipse_202" cx="7.122" cy="7.122" r="7.122" class="cls-5" data-name="Ellipse 202" transform="rotate(-4.679 4941.665 -8575.305)"/>
            </g>
            <g id="Group_3643" data-name="Group 3643">
                <path id="Rectangle_1162" d="M0 0h.598v43.081H0z" class="cls-5" data-name="Rectangle 1162" transform="rotate(-20.77 1331.683 -1862.78)"/>
            </g>
            <g id="Group_3644" data-name="Group 3644">
                <path id="Rectangle_1163" d="M0 0h.598v39.123H0z" class="cls-5" data-name="Rectangle 1163" transform="rotate(-67.36 638.34 -385.861)"/>
            </g>
            <g id="Group_3645" data-name="Group 3645">
                <path id="Rectangle_1164" d="M0 0h40.497v.598H0z" class="cls-5" data-name="Rectangle 1164" transform="rotate(-26.23 1178.225 -1499.337)"/>
            </g>
            <g id="Group_3646" data-name="Group 3646">
                <path id="Rectangle_1165" d="M0 0h.598v44.835H0z" class="cls-5" data-name="Rectangle 1165" transform="rotate(-58.42 720.523 -518.37)"/>
            </g>
            <g id="Group_3647" data-name="Group 3647">
                <path id="Rectangle_1166" d="M0 0h44.715v.598H0z" class="cls-5" data-name="Rectangle 1166" transform="rotate(-38.74 965.607 -975.287)"/>
            </g>
            <g id="Group_3648" data-name="Group 3648">
                <circle id="Ellipse_203" cx="12.614" cy="12.614" r="12.614" class="cls-5" data-name="Ellipse 203" transform="rotate(-14.07 1819.012 -2936.7)"/>
            </g>
            <g id="Group_3649" data-name="Group 3649">
                <circle id="Ellipse_204" cx="8.854" cy="8.854" r="8.854" class="cls-5" data-name="Ellipse 204" transform="rotate(-3.62 5654.67 -12496.458)"/>
            </g>
            <g id="Group_3650" data-name="Group 3650">
                <circle id="Ellipse_205" cx="9.546" cy="9.546" r="9.546" class="cls-5" data-name="Ellipse 205" transform="rotate(-84.188 568.733 -228.65)"/>
            </g>
            <g id="Group_3651" data-name="Group 3651">
                <circle id="Ellipse_206" cx="6.997" cy="6.997" r="6.997" class="cls-5" data-name="Ellipse 206" transform="rotate(-57.823 723.135 -558.644)"/>
            </g>
            <g id="Group_3652" data-name="Group 3652">
                <circle id="Ellipse_207" cx="18.773" cy="18.773" r="18.773" class="cls-5" data-name="Ellipse 207" transform="rotate(-41.325 907.329 -863.394)"/>
            </g>
            <g id="Group_3653" data-name="Group 3653">
                <circle id="Ellipse_208" cx="10.606" cy="10.606" r="10.606" class="cls-5" data-name="Ellipse 208" transform="rotate(-7.341 3334.536 -5658.981)"/>
            </g>
            <g id="Group_3654" data-name="Group 3654">
                <path id="Path_2517" d="M723.294 387.339a6.308 6.308 0 0 0 4.582-1.56 14.584 14.584 0 0 0-.578-1.747 4.078 4.078 0 0 0-1.947-2.11l.022-.031a3.647 3.647 0 0 0 .481-1.98 3.161 3.161 0 0 0-.517-1.861 2.017 2.017 0 0 0-3.566.437 4.435 4.435 0 0 0-.191 2.066 3.51 3.51 0 0 0 .412 1.424 5.377 5.377 0 0 0-1.43 1.352 3.772 3.772 0 0 0-.72 1.3c-.14.339-.279.69-.4 1.075a6.3 6.3 0 0 0 3.852 1.635z" class="cls-5" data-name="Path 2517"/>
            </g>
            <g id="Group_3655" data-name="Group 3655">
                <path id="Path_2518" d="M748.716 359.995a8.341 8.341 0 0 0 6.057-2.062 19.209 19.209 0 0 0-.764-2.309 5.39 5.39 0 0 0-2.574-2.79c.009-.014.02-.026.029-.041a4.82 4.82 0 0 0 .637-2.617 4.184 4.184 0 0 0-.684-2.46 2.665 2.665 0 0 0-4.713.577 5.865 5.865 0 0 0-.253 2.731 4.631 4.631 0 0 0 .545 1.883 7.131 7.131 0 0 0-1.891 1.787 4.981 4.981 0 0 0-.951 1.72c-.185.448-.369.912-.529 1.421a8.335 8.335 0 0 0 5.091 2.16z" class="cls-5" data-name="Path 2518"/>
            </g>
            <g id="Group_3656" data-name="Group 3656">
                <path id="Path_2519" d="M761.74 398.28a8.978 8.978 0 0 0 6.515-2.217 20.826 20.826 0 0 0-.822-2.484 5.8 5.8 0 0 0-2.769-3c.01-.015.022-.029.031-.044a5.175 5.175 0 0 0 .685-2.815 4.493 4.493 0 0 0-.735-2.646 2.866 2.866 0 0 0-5.069.622 6.311 6.311 0 0 0-.272 2.937 4.983 4.983 0 0 0 .586 2.025 7.626 7.626 0 0 0-2.033 1.921 5.351 5.351 0 0 0-1.024 1.85c-.2.482-.4.98-.568 1.528a8.959 8.959 0 0 0 5.475 2.323z" class="cls-5" data-name="Path 2519"/>
            </g>
            <g id="Group_3657" data-name="Group 3657">
                <path id="Path_2520" d="M857.558 369.359a7.744 7.744 0 0 0 5.622-1.914 17.813 17.813 0 0 0-.709-2.143 5 5 0 0 0-2.389-2.589c.008-.013.019-.025.027-.038a4.48 4.48 0 0 0 .591-2.43 3.882 3.882 0 0 0-.635-2.283 2.474 2.474 0 0 0-4.375.536 5.443 5.443 0 0 0-.234 2.535 4.284 4.284 0 0 0 .505 1.747 6.621 6.621 0 0 0-1.755 1.659 4.615 4.615 0 0 0-.883 1.6c-.172.416-.342.846-.49 1.319a7.724 7.724 0 0 0 4.725 2.001z" class="cls-5" data-name="Path 2520"/>
            </g>
            <g id="Group_3658" data-name="Group 3658">
                <path id="Path_2521" d="M785.809 375.778a10.829 10.829 0 0 0 7.862-2.677 25.021 25.021 0 0 0-.992-3 6.992 6.992 0 0 0-3.341-3.62c.012-.019.026-.035.037-.053a6.249 6.249 0 0 0 .827-3.4 5.427 5.427 0 0 0-.887-3.194 3.46 3.46 0 0 0-6.119.75 7.616 7.616 0 0 0-.328 3.545 6 6 0 0 0 .707 2.444 9.227 9.227 0 0 0-2.454 2.319 6.457 6.457 0 0 0-1.235 2.233 21.742 21.742 0 0 0-.686 1.845 10.817 10.817 0 0 0 6.609 2.808z" class="cls-5" data-name="Path 2521"/>
            </g>
            <g id="Group_3659" data-name="Group 3659">
                <path id="Path_2522" d="M820.17 354.545a6.2 6.2 0 0 0 4.5-1.532 14.352 14.352 0 0 0-.568-1.715 4.005 4.005 0 0 0-1.912-2.072l.021-.03a3.574 3.574 0 0 0 .473-1.944 3.107 3.107 0 0 0-.507-1.828 1.98 1.98 0 0 0-3.5.43 4.341 4.341 0 0 0-.188 2.028 3.435 3.435 0 0 0 .405 1.4 5.291 5.291 0 0 0-1.4 1.327 3.7 3.7 0 0 0-.707 1.278c-.138.333-.274.677-.393 1.055a6.19 6.19 0 0 0 3.776 1.603z" class="cls-5" data-name="Path 2522"/>
            </g>
            <g id="Group_3660" data-name="Group 3660">
                <path id="Path_2523" d="M821.551 402.754a17.507 17.507 0 0 0 12.711-4.328 40.508 40.508 0 0 0-1.6-4.845 11.3 11.3 0 0 0-5.4-5.854c.019-.029.042-.056.06-.086a10.107 10.107 0 0 0 1.336-5.493 8.773 8.773 0 0 0-1.434-5.163 5.595 5.595 0 0 0-9.892 1.213 12.308 12.308 0 0 0-.53 5.731 9.723 9.723 0 0 0 1.144 3.951 14.94 14.94 0 0 0-3.968 3.749 10.469 10.469 0 0 0-2 3.61c-.389.94-.774 1.913-1.109 2.982a17.486 17.486 0 0 0 10.682 4.533z" class="cls-5" data-name="Path 2523"/>
            </g>
        </g>
    </g>
</svg>
