<svg xmlns="http://www.w3.org/2000/svg" width="24" height="24" viewBox="0 0 24 24">
    <defs>
        <style>
            .cls-1{fill:none}.cls-2{clip-path:url(#clip-path)}.cls-3{fill:#999}
        </style>
        <clipPath id="clip-path">
            <path d="M0 0h24v24H0z" class="cls-1"/>
        </clipPath>
    </defs>
    <g id="Component" class="cls-2">
        <path id="Rectangle_936" d="M0 0h24v24H0z" class="cls-1" data-name="Rectangle 936"/>
        <path id="Path_692" d="M3-6.964v1.5a.723.723 0 0 1-.219.531.723.723 0 0 1-.531.219H.75a.723.723 0 0 1-.531-.219A.723.723 0 0 1 0-5.464v-1.5A.723.723 0 0 1 .219-7.5a.723.723 0 0 1 .531-.214h1.5a.723.723 0 0 1 .531.219.723.723 0 0 1 .219.531zm0-4v1.5a.723.723 0 0 1-.219.531.723.723 0 0 1-.531.219H.75a.723.723 0 0 1-.531-.219A.723.723 0 0 1 0-9.464v-1.5a.723.723 0 0 1 .219-.536.723.723 0 0 1 .531-.219h1.5a.723.723 0 0 1 .531.219.723.723 0 0 1 .219.536zm0-4v1.5a.723.723 0 0 1-.219.531.723.723 0 0 1-.531.219H.75a.723.723 0 0 1-.531-.219.723.723 0 0 1-.219-.531v-1.5a.723.723 0 0 1 .219-.536.723.723 0 0 1 .531-.219h1.5a.723.723 0 0 1 .531.219.723.723 0 0 1 .219.536z" class="cls-3" data-name="Path 692" transform="translate(11 22.714)"/>
    </g>
</svg>
