<svg xmlns="http://www.w3.org/2000/svg" width="40" height="40" viewBox="0 0 40 40">
    <defs>
        <style>
            .cls-1,.cls-3{fill:none}.cls-1{stroke:#ccc}.cls-2{fill:#ddd}.cls-4{stroke:none}
        </style>
    </defs>
    <g id="Group_3367" data-name="Group 3367" transform="translate(-832 -249)">
        <g id="Ellipse_71" class="cls-1" data-name="Ellipse 71" transform="translate(832 249)">
            <circle cx="20" cy="20" r="20" class="cls-4"/>
            <circle cx="20" cy="20" r="19.5" class="cls-3"/>
        </g>
        <g id="Group_1981" data-name="Group 1981" transform="translate(116 -217)">
            <path id="Path_128" d="M2078.477 3132h-17.723a1.756 1.756 0 0 0-1.754 1.754v10.227a1.855 1.855 0 0 0 1.754 1.865h5.861v.949l-1.758 1.4a1.049 1.049 0 0 0-.312 1.113.989.989 0 0 0 .88.69h8.316a1.006 1.006 0 0 0 .9-.693.989.989 0 0 0-.288-1.085l-1.735-1.43v-.946h5.862a1.854 1.854 0 0 0 1.754-1.865v-10.227a1.755 1.755 0 0 0-1.757-1.752zm-7.189 15.869l.558.516h-4.546l.6-.52a.959.959 0 0 0 .329-.685v-1.334H2071v1.334a.915.915 0 0 0 .288.689zm7.1-3.869h-17.539v-10.154h17.539z" class="cls-2" data-name="Path 128" transform="translate(-1334 -2655)"/>
            <path id="Rectangle_936" d="M0 0h24v24H0z" class="cls-3" data-name="Rectangle 936" transform="translate(724 474)"/>
        </g>
    </g>
</svg>
