<svg xmlns="http://www.w3.org/2000/svg" id="Group_6670" width="24" height="24" data-name="Group 6670" viewBox="0 0 24 24">
    <defs>
        <style>
            .cls-1{fill:#999}.cls-2{fill:none}
        </style>
    </defs>
    <path id="Path_128" d="M2075.837 3132h-15.321a1.518 1.518 0 0 0-1.516 1.516v8.841a1.6 1.6 0 0 0 1.516 1.613h5.067v.821l-1.52 1.212a.906.906 0 0 0-.27.962.855.855 0 0 0 .761.6h7.189a.871.871 0 0 0 .775-.6.855.855 0 0 0-.249-.938l-1.5-1.236v-.818h5.067a1.6 1.6 0 0 0 1.516-1.613v-8.841a1.518 1.518 0 0 0-1.515-1.519zm-6.215 13.718l.482.446h-3.928l.518-.449a.828.828 0 0 0 .285-.592v-1.153h2.394v1.153a.791.791 0 0 0 .25.595zm6.135-3.344H2060.6v-8.774h15.162z" class="cls-1" data-name="Path 128" transform="translate(-2056.001 -3128)"/>
    <path id="Rectangle_936" d="M0 0h24v24H0z" class="cls-2" data-name="Rectangle 936"/>
</svg>
