<svg xmlns="http://www.w3.org/2000/svg" width="24.043" height="20.384" viewBox="0 0 24.043 20.384">
    <defs>
        <style>
            .cls-1{fill:#6297f6}
        </style>
    </defs>
    <path id="Path_3044" d="M2081.057 3132h-20.071a1.988 1.988 0 0 0-1.986 1.986v11.581a2.1 2.1 0 0 0 1.986 2.113h6.638v1.075l-1.991 1.587a1.188 1.188 0 0 0-.353 1.26 1.12 1.12 0 0 0 1 .781h9.418a1.14 1.14 0 0 0 1.015-.785 1.119 1.119 0 0 0-.326-1.229l-1.965-1.619v-1.072h6.639a2.1 2.1 0 0 0 1.986-2.113v-11.581a1.988 1.988 0 0 0-1.99-1.984zm-8.142 17.97l.631.584h-5.146l.679-.588a1.085 1.085 0 0 0 .373-.776v-1.511h3.136v1.511a1.036 1.036 0 0 0 .328.78zm8.037-4.381h-19.862v-11.5h19.862z" class="cls-1" data-name="Path 3044" transform="translate(-2059 -3132)"/>
</svg>
