<svg xmlns="http://www.w3.org/2000/svg" width="109.998" height="96.394" viewBox="0 0 109.998 96.394">
    <defs>
        <style>
            .cls-1,.cls-2,.cls-4,.cls-5{fill:none}.cls-15,.cls-2,.cls-7,.cls-8{stroke:#bf263f}.cls-2,.cls-4,.cls-5,.cls-7,.cls-8{stroke-miterlimit:10}.cls-2{stroke-width:1.426px;stroke-dasharray:2.341 4.681;opacity:.512}.cls-2,.cls-3,.cls-4,.cls-5{isolation:isolate}.cls-3{fill:#ed4d67;opacity:.1}.cls-4,.cls-5{stroke:#f7657d;stroke-width:1.17px}.cls-4{opacity:.18}.cls-5{opacity:.14}.cls-14,.cls-15,.cls-6,.cls-8{fill:#fff}.cls-7{fill:#fffdfd}.cls-15,.cls-7,.cls-8{stroke-width:1.9px}.cls-9{clip-path:url(#clip-path)}.cls-10{opacity:.7}.cls-11,.cls-12,.cls-13{fill:#bf263f}.cls-11{opacity:.27}.cls-13,.cls-14{stroke:rgba(0,0,0,0)}.cls-15{stroke-linecap:round;stroke-linejoin:round}
        </style>
        <clipPath id="clip-path">
            <path id="Rectangle_1297" d="M0 0h67.008v11.077H0z" class="cls-1" data-name="Rectangle 1297"/>
        </clipPath>
    </defs>
    <g id="Group_6137" data-name="Group 6137" transform="translate(-55.759 -1246.167)">
        <g id="Group_2358" data-name="Group 2358" transform="translate(57.028 1247.259)">
            <g id="Group_2354" data-name="Group 2354">
                <g id="Group_2352" data-name="Group 2352" transform="translate(2.023 2.391)">
                    <path id="Path_826" d="M74.773 1274.249c7.006 21.8 10.412 36.618 4.048 57.56-6.835 22.492 39.929 17.254 57.561 4.049 16.763-12.557 45.545-28.526-4.048-57.56-20.589-12.054-64.858-26.752-57.561-4.049z" class="cls-2" data-name="Path 826" transform="translate(-65.077 -1255.026)"/>
                    <path id="Path_777" d="M154.244 1264.845c-9.833 22.278-15.083 37.572-10.681 60.43 4.729 24.549-44.149 13.811-61.33-2.117-16.335-15.14-45-35.234 10.681-60.429 23.112-10.46 71.567-21.084 61.33 2.116z" class="cls-3" data-name="Path 777" transform="translate(-60.168 -1250.971)"/>
                </g>
                <g id="Group_2356" data-name="Group 2356">
                    <circle id="Ellipse_80" cx="2.124" cy="2.124" r="2.124" class="cls-4" data-name="Ellipse 80" transform="translate(92.324 19.054)"/>
                    <path id="Path_823" d="M208.047 1309.442l3.332-1.749.452-3.736 2.693 2.629 3.7-.728-1.668 3.374 1.833 3.286-3.723-.545-2.56 2.759-.633-3.709z" class="cls-5" data-name="Path 823" transform="translate(-110.745 -1267.426)"/>
                    <path id="Path_828" d="M58.509 1247.259l2.184 1.225 2.252-1.1-.491 2.455 1.745 1.8-2.487.292-1.17 2.215-1.046-2.275-2.468-.428 1.841-1.7z" class="cls-5" data-name="Path 828" transform="translate(-57.028 -1247.259)"/>
                    <circle id="Ellipse_81" cx="3.632" cy="3.632" r="3.632" class="cls-4" data-name="Ellipse 81" transform="translate(2.589 75.608)"/>
                </g>
            </g>
        </g>
        <g id="Group_6119" data-name="Group 6119" transform="translate(65.335 1269.352)">
            <path id="Rectangle_1290" d="M0 0h63.816v38.338H0z" class="cls-6" data-name="Rectangle 1290" transform="translate(10.169 2.866)"/>
            <path id="Path_3044" d="M84.227 1281.549a1.917 1.917 0 0 0-1.916 1.918v39.674a1.915 1.915 0 0 0 1.916 1.916h64.481a1.917 1.917 0 0 0 1.918-1.916v-39.674a1.919 1.919 0 0 0-1.918-1.918zm64.086 40.518H84.5v-37.652h63.817z" class="cls-7" data-name="Path 3044" transform="translate(-74.328 -1281.549)"/>
            <path id="Path_3045" d="M145.534 1352.361H78.588a1.769 1.769 0 0 0-1.215.5l-6.744 6.342c-1.4 1.31-.59 3.909 1.213 3.909h80.44c1.8 0 2.608-2.6 1.213-3.909l-6.747-6.342a1.758 1.758 0 0 0-1.214-.5z" class="cls-8" data-name="Path 3045" transform="translate(-69.921 -1306.736)"/>
        </g>
        <g id="Group_6135" data-name="Group 6135" transform="translate(73.681 1314.135)">
            <g id="Group_6134" class="cls-9" data-name="Group 6134">
                <g id="Group_6133" data-name="Group 6133" transform="translate(.695 1.89)">
                    <g id="Group_6132" data-name="Group 6132" transform="translate(0 .906)">
                        <g id="Group_6131" class="cls-10" data-name="Group 6131">
                            <path id="Path_3056" d="M148.552 1362.1a13.455 13.455 0 0 1 1.066 1.37 578.235 578.235 0 0 1-65.665 0 13.465 13.465 0 0 1 1.066-1.37q31.781.86 63.533 0z" class="cls-11" data-name="Path 3056" transform="translate(-83.953 -1357.779)"/>
                            <path id="Path_3057" d="M147.76 1358.866c.4.55.638.823 1.107 1.369q-31.16.511-62.311 0c.469-.546.709-.819 1.107-1.369q30.049.141 60.097 0z" class="cls-11" data-name="Path 3057" transform="translate(-84.879 -1356.629)"/>
                            <path id="Path_3058" d="M147.607 1355.394a3.256 3.256 0 0 0 .562 1.554q-29.6.054-59.2 0a3.256 3.256 0 0 0 .562-1.554z" class="cls-11" data-name="Path 3058" transform="translate(-85.739 -1355.394)"/>
                        </g>
                    </g>
                    <path id="Path_3059" d="M93.622 1361.794l.919.049.479-7.6-.919-.049z" class="cls-6" data-name="Path 3059" transform="translate(-87.392 -1354.06)"/>
                    <path id="Path_3060" d="M99.026 1361.864l.919.049.479-7.6-.919-.049z" class="cls-6" data-name="Path 3060" transform="translate(-89.314 -1354.085)"/>
                    <path id="Path_3061" d="M104.595 1361.936l.919.049.479-7.6-.919-.049z" class="cls-6" data-name="Path 3061" transform="translate(-91.295 -1354.11)"/>
                    <path id="Path_3062" d="M110 1362.006l.919.049.479-7.6-.919-.049z" class="cls-6" data-name="Path 3062" transform="translate(-93.217 -1354.135)"/>
                    <path id="Path_3063" d="M114.788 1364.038l.919.049.634-10.05-.919-.049z" class="cls-6" data-name="Path 3063" transform="translate(-94.921 -1353.987)"/>
                    <path id="Path_3064" d="M120.361 1362.357l.919.049.528-8.37-.919-.049z" class="cls-6" data-name="Path 3064" transform="translate(-96.903 -1353.987)"/>
                    <path id="Path_3065" d="M178.1 1361.771l-.919.049-.457-7.244.919-.049z" class="cls-6" data-name="Path 3065" transform="translate(-116.951 -1354.179)"/>
                    <path id="Path_3066" d="M172.7 1361.851l-.919.049-.457-7.244.919-.049z" class="cls-6" data-name="Path 3066" transform="translate(-115.029 -1354.208)"/>
                    <path id="Path_3067" d="M167.129 1361.934l-.919.049-.457-7.244.919-.049z" class="cls-6" data-name="Path 3067" transform="translate(-113.049 -1354.237)"/>
                    <path id="Path_3068" d="M161.726 1362.014l-.919.049-.457-7.244.919-.049z" class="cls-6" data-name="Path 3068" transform="translate(-111.127 -1354.266)"/>
                    <path id="Path_3069" d="M156.709 1361.788l-.919.049-.457-7.244.919-.049z" class="cls-6" data-name="Path 3069" transform="translate(-109.342 -1354.185)"/>
                    <path id="Path_3070" d="M151.305 1361.868l-.919.049-.457-7.244.919-.049z" class="cls-6" data-name="Path 3070" transform="translate(-107.42 -1354.213)"/>
                    <path id="Path_3071" d="M141.02 1359.3l-.919.049-.3-4.819.919-.049z" class="cls-6" data-name="Path 3071" transform="translate(-103.816 -1354.162)"/>
                    <path id="Path_3072" d="M135.621 1359.446l-.919.049-.3-4.819.919-.049z" class="cls-6" data-name="Path 3072" transform="translate(-101.896 -1354.215)"/>
                    <path id="Path_3073" d="M130.615 1359.384l-.919.049-.3-4.819.919-.049z" class="cls-6" data-name="Path 3073" transform="translate(-100.115 -1354.193)"/>
                </g>
            </g>
        </g>
        <g id="Group_6040" data-name="Group 6040" transform="translate(93.754 1274.319)">
            <g id="Group_5462" data-name="Group 5462" transform="translate(3.601 1.345)">
                <path id="Path_2962" d="M1232.47 596.547h-.135c.057-.465.116-.924.172-1.357.293-2.248.953-8.815-6.888-8.815s-7.182 6.567-6.889 8.815l.172 1.357h-.135c-1.194-.883-1.293 1.423-.8 2.211a4.805 4.805 0 0 1 .669 1.441c.183.53.488.6.743.542.032.314.06.587.079.805.11 1.212 3.023 3.639 3.682 4.4.619.712 1.65.435 1.98.42l.494-.024.493.024c.33.015 1.362.292 1.98-.42.66-.759 3.573-3.186 3.682-4.4.02-.218.048-.492.079-.806.255.058.56-.012.743-.542a4.8 4.8 0 0 1 .67-1.441c.502-.787.402-3.093-.791-2.21z" class="cls-6" data-name="Path 2962" transform="translate(-1217.245 -585.931)"/>
                <path id="Path_2963" d="M1226 606a4.734 4.734 0 0 1-.616-.048c-.067-.008-.123-.016-.166-.018l-.474-.023-.473.023c-.043 0-.1.01-.167.018a4.762 4.762 0 0 1-.616.048 1.955 1.955 0 0 1-1.554-.638c-.152-.176-.461-.472-.818-.815-1.573-1.511-2.882-2.843-2.972-3.835-.01-.123-.024-.264-.04-.419a1.154 1.154 0 0 1-.759-.823l-.052-.152a4.045 4.045 0 0 0-.573-1.2 3.033 3.033 0 0 1-.115-2.576.906.906 0 0 1 .9-.51c-.029-.225-.057-.446-.086-.661-.155-1.186-.625-4.794 1.443-7.149 1.263-1.439 3.244-2.168 5.886-2.168s4.623.73 5.887 2.169c2.067 2.356 1.6 5.963 1.442 7.148l-.085.662a.9.9 0 0 1 .9.51 3.033 3.033 0 0 1-.116 2.576 4.013 4.013 0 0 0-.572 1.194l-.054.155a1.151 1.151 0 0 1-.759.823l-.041.42c-.089.991-1.4 2.323-2.971 3.834-.356.343-.664.639-.817.815a1.956 1.956 0 0 1-1.562.64zm-1.255-.978h.024l.489.024c.06 0 .141.012.238.024a3.95 3.95 0 0 0 .5.041 1.085 1.085 0 0 0 .883-.333c.179-.206.485-.5.873-.872.921-.885 2.635-2.533 2.7-3.275l.081-.811a.444.444 0 0 1 .54-.388.23.23 0 0 0 .046.006c.084 0 .163-.216.178-.259l.053-.154a4.845 4.845 0 0 1 .662-1.38 2.076 2.076 0 0 0 .046-1.732.876.876 0 0 0-.2.115.443.443 0 0 1-.264.087h-.135a.444.444 0 0 1-.44-.5c.057-.466.115-.925.172-1.36.142-1.088.574-4.394-1.229-6.448-1.087-1.239-2.843-1.867-5.219-1.867s-4.131.628-5.219 1.866c-1.8 2.052-1.372 5.361-1.229 6.448.056.434.114.893.172 1.36a.443.443 0 0 1-.441.5h-.135a.446.446 0 0 1-.265-.087.459.459 0 0 0-.218-.111 2.134 2.134 0 0 0 .061 1.728 4.839 4.839 0 0 1 .662 1.382l.052.15c.016.044.095.261.181.261a.2.2 0 0 0 .045-.006.44.44 0 0 1 .356.073.446.446 0 0 1 .183.315c.032.316.06.591.079.81.068.741 1.782 2.389 2.7 3.274.387.372.693.666.873.873a1.086 1.086 0 0 0 .883.333 3.944 3.944 0 0 0 .5-.041c.1-.012.177-.022.239-.024l.488-.024z" class="cls-12" data-name="Path 2963" transform="translate(-1216.372 -585.056)"/>
            </g>
            <g id="Group_5463" data-name="Group 5463" transform="translate(3.927)">
                <path id="Path_2964" d="M1231.553 583.729a3.1 3.1 0 0 0-2.464-.325c-.446-.477-1.593-1.282-4.116-.938-3.5.478-3.848 1.261-5.148.955a8.641 8.641 0 0 0-.835 2.268 14.527 14.527 0 0 0 .484 7.912 21.105 21.105 0 0 0 .606 2.077s-.331-4.3.329-6 2.98-2.069 3.753-1.326a3.677 3.677 0 0 0 4.193 0c.652-.627 2.4-.459 3.328.629l.306.448a2.586 2.586 0 0 1 .118.249c.661 1.7.33 6 .33 6a21.506 21.506 0 0 0 .988-4.143c.919-5.415-.365-7.142-1.872-7.806z" class="cls-6" data-name="Path 2964" transform="translate(-1218.212 -581.94)"/>
                <path id="Path_2965" d="M1219.209 595.249a.444.444 0 0 1-.417-.292 21.369 21.369 0 0 1-.619-2.125 14.961 14.961 0 0 1-.488-8.106 9.057 9.057 0 0 1 .885-2.4.443.443 0 0 1 .488-.212 2.636 2.636 0 0 0 1.578-.2 18.215 18.215 0 0 1 3.408-.767 9.072 9.072 0 0 1 1.218-.088 4.527 4.527 0 0 1 3.075.964 2.6 2.6 0 0 1 .558-.056 4.963 4.963 0 0 1 1.968.474c2.246.99 2.924 3.623 2.133 8.289a21.752 21.752 0 0 1-1.009 4.221.444.444 0 0 1-.86-.186c0-.042.315-4.217-.3-5.8a1.862 1.862 0 0 0-.086-.181l-.277-.406a2.555 2.555 0 0 0-1.854-.82 1.223 1.223 0 0 0-.815.24 3.4 3.4 0 0 1-2.276.783h-.257a3.4 3.4 0 0 1-2.275-.783 1.23 1.23 0 0 0-.82-.24 2.389 2.389 0 0 0-2.212 1.408c-.567 1.459-.348 5.11-.306 5.715a.443.443 0 0 1-.427.563.02.02 0 0 1-.013.005zm-.01-12.207a8.365 8.365 0 0 0-.645 1.865 14.02 14.02 0 0 0 .145 6.584 9.674 9.674 0 0 1 .426-2.843 3.3 3.3 0 0 1 3.039-1.974 2.05 2.05 0 0 1 1.436.489 2.577 2.577 0 0 0 1.659.535h.256a2.576 2.576 0 0 0 1.66-.535 2.045 2.045 0 0 1 1.431-.488 3.421 3.421 0 0 1 2.543 1.148.371.371 0 0 1 .029.037l.307.448c.009.015.019.03.027.046a2.882 2.882 0 0 1 .137.291 8.551 8.551 0 0 1 .406 2.391c.022-.142.042-.285.059-.429.938-5.538-.47-6.844-1.611-7.347a4.066 4.066 0 0 0-1.61-.4 1.409 1.409 0 0 0-.478.067.451.451 0 0 1-.133.042.442.442 0 0 1-.389-.136 3.436 3.436 0 0 0-2.633-.88 8.179 8.179 0 0 0-1.1.08 17.466 17.466 0 0 0-3.26.734 3.861 3.861 0 0 1-1.7.275z" class="cls-12" data-name="Path 2965" transform="translate(-1217.341 -581.065)"/>
            </g>
            <path id="Path_2966" d="M1244.773 628.219a.444.444 0 1 1 0-.888c2.3 0 3.971-.561 4.955-1.666a4.02 4.02 0 0 0 .954-2.874.444.444 0 0 1 .881-.108 4.852 4.852 0 0 1-1.162 3.56c-1.157 1.312-3.051 1.976-5.628 1.976z" class="cls-13" data-name="Path 2966" transform="translate(-1231.309 -608.404)"/>
            <g id="Group_5464" data-name="Group 5464" transform="translate(17.533 9.535)">
                <path id="Path_2967" d="M1262.207 613.655c0-1.635-.676-2.961-1.513-2.969h-.545v.183a4.06 4.06 0 0 0 0 5.574v.183h.545c.837-.011 1.513-1.337 1.513-2.971z" class="cls-14" data-name="Path 2967" transform="translate(-1258.598 -610.241)"/>
                <path id="Path_2968" d="M1259.821 616.195h-.545a.444.444 0 0 1-.442-.41 4.621 4.621 0 0 1 0-6.008.444.444 0 0 1 .442-.41H1259.869c1.091.048 1.909 1.5 1.909 3.412s-.818 3.364-1.909 3.412zm-.185-.888h.18c.448 0 1.073-.967 1.073-2.525s-.625-2.52-1.073-2.525h-.18a.457.457 0 0 1-.111.107 3.663 3.663 0 0 0 0 4.839.452.452 0 0 1 .111.104z" class="cls-13" data-name="Path 2968" transform="translate(-1257.724 -609.366)"/>
            </g>
            <g id="Group_5465" data-name="Group 5465" transform="translate(17.533 9.459)">
                <path id="Path_2969" d="M1260.734 615.849a.644.644 0 0 1-.564.7h-.564a.644.644 0 0 1-.564-.7v-4.688a.645.645 0 0 1 .564-.7h.564a.644.644 0 0 1 .564.7z" class="cls-14" data-name="Path 2969" transform="translate(-1258.598 -610.015)"/>
                <path id="Path_2970" d="M1259.3 616.122h-.564a1.085 1.085 0 0 1-1.008-1.146v-4.688a1.085 1.085 0 0 1 1.008-1.146h.564a1.085 1.085 0 0 1 1.008 1.146v4.688a1.085 1.085 0 0 1-1.008 1.146zm-.564-6.092c-.03 0-.12.091-.12.258v4.688c0 .167.09.258.12.258h.564c.03 0 .12-.091.12-.258v-4.688c0-.167-.09-.258-.12-.258z" class="cls-13" data-name="Path 2970" transform="translate(-1257.724 -609.141)"/>
            </g>
            <g id="Group_5466" data-name="Group 5466" transform="translate(2.36 9.535)">
                <path id="Path_2971" d="M1214.008 613.655c0-1.635.677-2.961 1.513-2.969h.545v.183a4.06 4.06 0 0 1 0 5.574v.183h-.545c-.836-.011-1.513-1.337-1.513-2.971z" class="cls-14" data-name="Path 2971" transform="translate(-1213.564 -610.241)"/>
                <path id="Path_2972" d="M1215.192 616.195H1214.599c-1.091-.048-1.909-1.5-1.909-3.412s.818-3.364 1.91-3.412H1215.192a.445.445 0 0 1 .443.41 4.624 4.624 0 0 1 0 6.008.445.445 0 0 1-.443.406zm-.511-.888h.152a.456.456 0 0 1 .11-.107 3.663 3.663 0 0 0 0-4.839.461.461 0 0 1-.11-.107h-.181c-.448 0-1.073.968-1.073 2.525s.625 2.52 1.073 2.525z" class="cls-13" data-name="Path 2972" transform="translate(-1212.69 -609.366)"/>
            </g>
            <g id="Group_5467" data-name="Group 5467" transform="translate(3.834 9.459)">
                <path id="Path_2973" d="M1218.383 615.849a.644.644 0 0 0 .564.7h.563a.644.644 0 0 0 .564-.7v-4.688a.645.645 0 0 0-.564-.7h-.563a.645.645 0 0 0-.564.7z" class="cls-14" data-name="Path 2973" transform="translate(-1217.939 -610.015)"/>
                <path id="Path_2974" d="M1218.637 616.122h-.564a1.085 1.085 0 0 1-1.008-1.146v-4.688a1.085 1.085 0 0 1 1.008-1.146h.564a1.085 1.085 0 0 1 1.008 1.146v4.688a1.085 1.085 0 0 1-1.008 1.146zm-.564-6.092c-.03 0-.12.091-.12.258v4.688c0 .167.09.258.12.258h.564c.03 0 .12-.091.12-.258v-4.688c0-.167-.09-.258-.12-.258z" class="cls-13" data-name="Path 2974" transform="translate(-1217.065 -609.141)"/>
            </g>
            <g id="Group_5468" data-name="Group 5468" transform="translate(3.867 1.772)">
                <path id="Path_2975" d="M1232.932 595.212a.444.444 0 0 1-.444-.444 7.226 7.226 0 1 0-14.437 0 .444.444 0 0 1-.888 0 8.114 8.114 0 1 1 16.214 0 .444.444 0 0 1-.445.444z" class="cls-12" data-name="Path 2975" transform="translate(-1217.162 -586.324)"/>
            </g>
            <rect id="Rectangle_1237" width="3.302" height="1.239" class="cls-14" data-name="Rectangle 1237" rx=".619" transform="translate(11.476 18.752)"/>
            <path id="Path_2976" d="M1241.565 637.531h-2.083a1.064 1.064 0 0 1 0-2.127h2.083a1.064 1.064 0 0 1 0 2.127zm-2.083-1.239a.166.166 0 0 0-.166.166.171.171 0 0 0 .166.185h2.083a.165.165 0 0 0 .165-.166.17.17 0 0 0-.165-.185z" class="cls-13" data-name="Path 2976" transform="translate(-1227.397 -617.096)"/>
            <g id="Group_5531" data-name="Group 5531" transform="translate(0 22.1)">
                <path id="Path_3018" d="M1233.289 651.975l-4.3 9.576h-2.2l-4.3-9.576c.085-.009.171-.015.256-.018.132-.009.268-.012.4-.012h3.481v-1.271h2.43a.578.578 0 0 0 .077-.015v1.286h3.483c.234.001.455.009.673.03z" class="cls-15" data-name="Path 3018" transform="translate(-1215.801 -650.66)"/>
                <path id="Path_3019" d="M1220.817 664.14h-1.871l-3.219-3.492.785-1.021-3.027-4.1a7.31 7.31 0 0 1 3.036-.968z" class="cls-15" data-name="Path 3019" transform="translate(-1209.826 -653.249)"/>
                <path id="Path_3020" d="M1211.742 666.044h-9.12v-2.25a7.358 7.358 0 0 1 3.66-6.358l3.027 4.1-.785 1.021z" class="cls-15" data-name="Path 3020" transform="translate(-1202.622 -655.153)"/>
                <path id="Path_3021" d="M1256.373 663.76v2.25h-9.155l3.2-3.492-.789-1.021 3.06-4.112a7.36 7.36 0 0 1 3.689 6.375z" class="cls-15" data-name="Path 3021" transform="translate(-1232.193 -655.119)"/>
                <path id="Path_3022" d="M1246.017 659.627l.789 1.021-3.2 3.492h-1.833l4.3-9.576a6.959 6.959 0 0 1 .709.1 6.717 6.717 0 0 1 .729.176 7.272 7.272 0 0 1 1.565.674z" class="cls-15" data-name="Path 3022" transform="translate(-1228.586 -653.249)"/>
            </g>
        </g>
    </g>
</svg>
