<svg xmlns="http://www.w3.org/2000/svg" width="40" height="40" viewBox="0 0 40 40">
    <defs>
        <style>
            .cls-1{fill:none}.cls-2{clip-path:url(#clip-path)}.cls-3{fill:#6297f6}.cls-4{fill:#fff}
        </style>
        <clipPath id="clip-path">
            <path d="M0 0h40v40H0z" class="cls-1"/>
        </clipPath>
    </defs>
    <g id="Component_1" class="cls-2" data-name="Component 1">
        <path id="Path_2285" d="M20 0A20 20 0 1 1 0 20 20 20 0 0 1 20 0z" class="cls-3" data-name="Path 2285"/>
        <g id="Group_1981" data-name="Group 1981" transform="translate(-716 -466)">
            <path id="Path_128" d="M2078.477 3132h-17.723a1.756 1.756 0 0 0-1.754 1.754v10.227a1.855 1.855 0 0 0 1.754 1.865h5.861v.949l-1.758 1.4a1.049 1.049 0 0 0-.312 1.113.989.989 0 0 0 .88.69h8.316a1.006 1.006 0 0 0 .9-.693.989.989 0 0 0-.288-1.085l-1.735-1.43v-.946h5.862a1.854 1.854 0 0 0 1.754-1.865v-10.227a1.755 1.755 0 0 0-1.757-1.752zm-7.189 15.869l.558.516h-4.546l.6-.52a.959.959 0 0 0 .329-.685v-1.334H2071v1.334a.915.915 0 0 0 .288.689zm7.1-3.869h-17.539v-10.154h17.539z" class="cls-4" data-name="Path 128" transform="translate(-1334 -2655)"/>
            <path id="Rectangle_936" d="M0 0h24v24H0z" class="cls-1" data-name="Rectangle 936" transform="translate(724 474)"/>
        </g>
    </g>
</svg>
