<svg xmlns="http://www.w3.org/2000/svg" width="24" height="24" viewBox="0 0 24 24">
    <defs>
        <style>
            .cls-1{fill:#999}.cls-2{fill:none}
        </style>
    </defs>
    <g id="Group_1972" data-name="Group 1972" transform="translate(-568 -190)">
        <path id="Path_180" d="M2514.672 4466.051v-1.859a.731.731 0 1 1 1.461 0v1.859a.731.731 0 1 1-1.461 0zm.7 2.843a.834.834 0 0 0 .589-1.426.834.834 0 0 0-1.424.59.834.834 0 0 0 .835.835zm5.517-.787a3.957 3.957 0 0 1-2.319 1.182 5.183 5.183 0 0 1-4.729 4.507v3.071h1.792a.835.835 0 1 1 0 1.67h-5.246a.835.835 0 1 1 0-1.67h1.784v-3.067a5.182 5.182 0 0 1-4.724-4.509 3.943 3.943 0 0 1-2.324-1.18c-1.706-1.766-1.619-4.8-1.615-4.93a.74.74 0 0 1 .73-.716h3.13v-.626a.822.822 0 0 1 .819-.835h9.645a.815.815 0 0 1 .811.835v.626h3.131a.74.74 0 0 1 .73.716c-.004.125.086 3.16-1.62 4.926zm-14.7-1.017a2.72 2.72 0 0 0 1.183.7v-3.862h-2.371a5.444 5.444 0 0 0 1.18 3.162zm10.788-4.42h-7.934v5.416a3.969 3.969 0 1 0 7.934 0zm2.853 4.417a5.212 5.212 0 0 0 1.192-3.164h-2.375v3.86a2.72 2.72 0 0 0 1.175-.696z" class="cls-1" data-name="Path 180" transform="translate(-1932.501 -4268)"/>
        <path id="Rectangle_936" d="M0 0h24v24H0z" class="cls-2" data-name="Rectangle 936" transform="translate(568 190)"/>
    </g>
</svg>
