<svg xmlns="http://www.w3.org/2000/svg" width="169.42" height="148.613" viewBox="0 0 169.42 148.613">
    <defs>
        <style>
            .cls-1,.cls-3,.cls-4{fill:none;stroke-miterlimit:10}.cls-1{stroke:#bf263f;stroke-width:1.426px;stroke-dasharray:2.341 4.681;opacity:.512}.cls-2{fill:#ed4d67;opacity:.1}.cls-3,.cls-4{stroke:#f7657d;stroke-width:1.17px}.cls-3{opacity:.18}.cls-4{opacity:.14}.cls-5{fill:#fff}.cls-6{fill:#bf2640}
        </style>
    </defs>
    <g id="_17" data-name="17" transform="translate(-265.668 -554.235)">
        <g id="Group_2358" data-name="Group 2358">
            <g id="Group_2354" data-name="Group 2354">
                <g id="Group_2352" data-name="Group 2352">
                    <path id="Path_826" d="M285.124 588.874c10.873 33.834 16.16 56.832 6.283 89.336-10.607 34.909 61.973 26.781 89.338 6.284 26.017-19.489 70.688-44.274-6.283-89.337-31.954-18.707-100.662-41.52-89.338-6.283z" class="cls-1" data-name="Path 826"/>
                    <path id="Path_777" d="M416.088 580.573c-15.262 34.576-23.41 58.314-16.578 93.791 7.339 38.1-68.522 21.435-95.187-3.286-25.353-23.5-69.842-54.685 16.577-93.79 35.871-16.234 111.076-32.724 95.188 3.285z" class="cls-2" data-name="Path 777"/>
                </g>
                <g id="Group_2356" data-name="Group 2356">
                    <circle id="Ellipse_80" cx="3.297" cy="3.297" r="3.297" class="cls-3" data-name="Ellipse 80" transform="translate(410.228 584.9)"/>
                    <path id="Path_823" d="M417.955 620.538l5.172-2.714.7-5.8 4.179 4.08 5.735-1.129-2.589 5.235 2.845 5.1-5.779-.845-3.973 4.283-.983-5.757z" class="cls-4" data-name="Path 823"/>
                    <path id="Path_828" d="M269.235 555.327l3.389 1.9 3.495-1.712-.762 3.812 2.708 2.788-3.859.453-1.817 3.438-1.623-3.531-3.83-.664 2.857-2.635z" class="cls-4" data-name="Path 828"/>
                    <circle id="Ellipse_81" cx="5.638" cy="5.638" r="5.638" class="cls-3" data-name="Ellipse 81" transform="translate(270.954 672.676)"/>
                </g>
            </g>
        </g>
        <g id="Group_3715" data-name="Group 3715">
            <g id="Group_3706" data-name="Group 3706">
                <path id="Path_2602" d="M358.7 674.942h-41.41V590.2h63.16v63.075z" class="cls-5" data-name="Path 2602"/>
            </g>
            <g id="Group_3714" data-name="Group 3714">
                <g id="Group_3707" data-name="Group 3707">
                    <path id="Path_2603" d="M358.728 675.125h-41.519a1.359 1.359 0 0 1-1.36-1.362V589.9a1.359 1.359 0 0 1 1.36-1.362h62.278a1.364 1.364 0 0 1 1.362 1.368l-.24 63.139a1.363 1.363 0 0 1-.393.953L359.7 674.722a1.354 1.354 0 0 1-.972.403zm-40.157-2.725h39.589l19.728-19.927.231-61.218h-59.548z" class="cls-6" data-name="Path 2603"/>
                </g>
                <g id="Group_3708" data-name="Group 3708">
                    <path id="Path_2604" d="M358.726 675.125a1.4 1.4 0 0 1-.516-.1 1.371 1.371 0 0 1-.845-1.263v-10.334c0-8.128 3.593-11.75 11.648-11.75h10.235a1.361 1.361 0 0 1 .968 2.318L359.7 674.722a1.353 1.353 0 0 1-.974.403zm10.287-20.725c-6.505 0-8.923 2.449-8.923 9.029v7.024l15.891-16.053z" class="cls-6" data-name="Path 2604"/>
                </g>
                <g id="Group_3709" data-name="Group 3709">
                    <path id="Path_2605" d="M373.509 628.984H323.16a1.135 1.135 0 0 1-1.135-1.135v-7.932a1.135 1.135 0 0 1 1.135-1.135h50.349a1.135 1.135 0 0 1 1.136 1.135v7.932a1.135 1.135 0 0 1-1.136 1.135zm-49.209-2.268h48.079v-5.663H324.3z" class="cls-6" data-name="Path 2605"/>
                </g>
                <g id="Group_3710" data-name="Group 3710">
                    <path id="Path_2606" d="M373.509 636.946H323.16a1.136 1.136 0 0 1-1.135-1.136v-7.961a1.135 1.135 0 0 1 1.135-1.133h50.349a1.135 1.135 0 0 1 1.136 1.133v7.961a1.136 1.136 0 0 1-1.136 1.136zm-49.209-2.272h48.079v-5.69H324.3z" class="cls-6" data-name="Path 2606"/>
                </g>
                <g id="Group_3711" data-name="Group 3711">
                    <path id="Path_2607" d="M373.509 644.9H323.16a1.135 1.135 0 0 1-1.135-1.135v-7.955a1.136 1.136 0 0 1 1.135-1.136h50.349a1.136 1.136 0 0 1 1.136 1.136v7.959a1.135 1.135 0 0 1-1.136 1.131zm-49.209-2.264h48.079v-5.69H324.3z" class="cls-6" data-name="Path 2607"/>
                </g>
                <g id="Group_3712" data-name="Group 3712">
                    <path id="Path_2608" d="M358.013 644.9h-19.357a1.135 1.135 0 0 1-1.135-1.135v-23.848a1.135 1.135 0 0 1 1.135-1.135h19.357a1.135 1.135 0 0 1 1.135 1.135v23.852a1.135 1.135 0 0 1-1.135 1.131zm-18.223-2.268h17.088v-21.579H339.79z" class="cls-6" data-name="Path 2608"/>
                </g>
                <g id="Group_3713" data-name="Group 3713">
                    <path id="Path_2609" d="M333.669 605.778h-1.8v-1.591h1.8zm4.744-5.484l1.574-3h1.957l-2.482 4.2 2.623 4.281h-2.037l-1.616-3.058-1.614 3.058h-1.977l2.559-4.275-2.5-4.2h1.958zm6.236 4.179h3.734v1.3h-5.429V597.3h1.695zm9.243-.917a.969.969 0 0 0-.342-.775 3.09 3.09 0 0 0-1.212-.551 7.414 7.414 0 0 1-2.261-1.039 2.024 2.024 0 0 1-.766-1.651 2.074 2.074 0 0 1 .889-1.712 3.7 3.7 0 0 1 2.24-.653 3.387 3.387 0 0 1 2.259.734 2.3 2.3 0 0 1 .828 1.835v.04h-1.635a1.208 1.208 0 0 0-.383-.937 1.872 1.872 0 0 0-2.139-.061.968.968 0 0 0-.385.775.824.824 0 0 0 .4.692 5.421 5.421 0 0 0 1.373.591 5.089 5.089 0 0 1 2.1 1.019 2.145 2.145 0 0 1 .706 1.693 2.035 2.035 0 0 1-.847 1.711 3.608 3.608 0 0 1-2.24.634 4.186 4.186 0 0 1-2.4-.714 2.277 2.277 0 0 1-.988-2l.02-.04h1.635a1.234 1.234 0 0 0 .464 1.1 1.978 1.978 0 0 0 1.272.366 1.694 1.694 0 0 0 1.049-.285.95.95 0 0 0 .363-.774zm5.913-3.262l1.575-3h1.978l-2.5 4.2 2.643 4.281h-2.041l-1.633-3.058-1.616 3.058h-1.957l2.546-4.275-2.482-4.2h1.936z" class="cls-6" data-name="Path 2609"/>
                </g>
            </g>
        </g>
    </g>
</svg>
