<svg xmlns="http://www.w3.org/2000/svg" width="169.422" height="148.613" viewBox="0 0 169.422 148.613">
    <defs>
        <style>
            .cls-1,.cls-3,.cls-4{fill:none;stroke-miterlimit:10}.cls-1,.cls-5{stroke:#bf263f}.cls-1{stroke-width:1.426px;stroke-dasharray:2.341 4.681;opacity:.512}.cls-2{fill:#ed4d67;opacity:.1}.cls-3,.cls-4{stroke:#f7657d;stroke-width:1.17px}.cls-3{opacity:.18}.cls-4{opacity:.14}.cls-5{fill:#fff;stroke-linecap:round;stroke-linejoin:round;stroke-width:1.9px}
        </style>
    </defs>
    <g id="_02" data-name="2" transform="translate(-710.81 -57.284)">
        <g id="Group_2358" data-name="Group 2358">
            <g id="Group_2354" data-name="Group 2354">
                <g id="Group_2352" data-name="Group 2352">
                    <path id="Path_826" d="M730.267 91.923c10.873 33.834 16.16 56.833 6.283 89.336-10.608 34.909 61.972 26.781 89.338 6.284 26.017-19.489 70.688-44.273-6.283-89.337-31.954-18.706-100.662-41.52-89.338-6.283z" class="cls-1" data-name="Path 826"/>
                    <path id="Path_777" d="M861.23 83.622c-15.261 34.576-23.409 58.314-16.577 93.791 7.339 38.1-68.522 21.435-95.187-3.286-25.353-23.5-69.842-54.685 16.577-93.79 35.871-16.237 111.076-32.724 95.187 3.285z" class="cls-2" data-name="Path 777"/>
                </g>
                <g id="Group_2356" data-name="Group 2356">
                    <circle id="Ellipse_80" cx="3.297" cy="3.297" r="3.297" class="cls-3" data-name="Ellipse 80" transform="translate(855.371 87.949)"/>
                    <path id="Path_823" d="M863.1 123.588l5.172-2.714.7-5.8 4.18 4.08 5.735-1.129-2.587 5.235 2.845 5.1-5.779-.845-3.973 4.283-.983-5.757z" class="cls-4" data-name="Path 823"/>
                    <path id="Path_828" d="M714.378 58.376l3.389 1.9 3.495-1.713-.762 3.812 2.708 2.788-3.86.454-1.816 3.437-1.623-3.531-3.83-.663 2.857-2.635z" class="cls-4" data-name="Path 828"/>
                    <circle id="Ellipse_81" cx="5.638" cy="5.638" r="5.638" class="cls-3" data-name="Ellipse 81" transform="translate(716.097 175.725)"/>
                </g>
            </g>
        </g>
        <g id="Group_6047" data-name="Group 6047" transform="translate(765.078 88.184)">
            <g id="Group_3554" data-name="Group 3554" transform="translate(0 20.115)">
                <g id="Group_3550" data-name="Group 3550" transform="translate(12.154)">
                    <g id="Group_3547" data-name="Group 3547" transform="translate(0 17.382)">
                        <path id="Path_2312" d="M826.169 130.175v7.159a3.32 3.32 0 0 1-3.315-3.334v-.5a3.385 3.385 0 0 1 .059-.674 3.341 3.341 0 0 1 .908-1.674 3.3 3.3 0 0 1 2.348-.977z" class="cls-5" data-name="Path 2312" transform="translate(-822.854 -130.175)"/>
                    </g>
                    <g id="Group_3548" data-name="Group 3548" transform="translate(33.655 17.382)">
                        <path id="Path_2313" d="M854.489 133.5v.5a3.318 3.318 0 0 1-3.324 3.332v-7.159a3.319 3.319 0 0 1 2.356.976 3.138 3.138 0 0 1 .42.517v.007a3.153 3.153 0 0 1 .466 1.1.156.156 0 0 1 .021.054 3.889 3.889 0 0 1 .061.673z" class="cls-5" data-name="Path 2313" transform="translate(-851.165 -130.175)"/>
                    </g>
                    <g id="Group_3549" data-name="Group 3549" transform="translate(3.315)">
                        <path id="Path_2314" d="M855.967 140.094v-4.255c-.1-3.354 0-9.476 0-11.171-4.823-2.146-9.032-9.115-9.032-9.115-3.6 4.411-7.172 8.627-14.112 12a6.389 6.389 0 0 1 2.168.548l-2.168-.548h-.008a48.019 48.019 0 0 1-7.172 2.769v11a14.258 14.258 0 0 0 11.974 14.067h6.391a1.685 1.685 0 0 0 .188-.037h.016a14.239 14.239 0 0 0 11.771-14.03V140.1zm-22.543-3.932a1.331 1.331 0 1 1 1.335-1.327 1.325 1.325 0 0 1-1.336 1.326zm16.738 0a1.331 1.331 0 0 1 0-2.663 1.331 1.331 0 1 1 0 2.663zm-1.747-8.065a5.153 5.153 0 0 1 4.741 0z" class="cls-5" data-name="Path 2314" transform="translate(-825.643 -115.553)"/>
                        <path id="Path_2315" d="M853.894 132.42v-.061" class="cls-5" data-name="Path 2315" transform="translate(-820.31 -112.381)"/>
                    </g>
                </g>
                <g id="Group_3553" data-name="Group 3553" transform="translate(0 43.07)">
                    <g id="Group_3551" data-name="Group 3551">
                        <path id="Path_2316" d="M846.652 151.784h8.891c.562 0 1.126.023 1.688.075.615.053 1.208.136 1.808.248v.007a16.925 16.925 0 0 1 1.853.451 18.7 18.7 0 0 1 9.986 7.2 18.548 18.548 0 0 1 3.421 10.78v5.739H812.63v-5.744a18.741 18.741 0 0 1 9.34-16.212 18.7 18.7 0 0 1 7.735-2.469c.218-.021.442-.037.66-.044.33-.023.675-.031 1.02-.031h15.267z" class="cls-5" data-name="Path 2316" transform="translate(-812.63 -151.784)"/>
                    </g>
                    <g id="Group_3552" data-name="Group 3552" transform="translate(17.056 .031)">
                        <path id="Line_372" d="M.023.044L0 0" class="cls-5" data-name="Line 372"/>
                        <path id="Line_373" d="M.022 0L0 .044" class="cls-5" data-name="Line 373" transform="translate(27.542)"/>
                    </g>
                </g>
            </g>
            <path id="Path_2317" d="M842.278 149.027v9.046c-2.663 1.058-5.237.909-6.392 0v-9.01h6.189a1.68 1.68 0 0 0 .188-.037z" class="cls-5" data-name="Path 2317" transform="translate(-808.24 -89.12)"/>
            <path id="Path_2318" d="M837.056 131.767v5.653a1.8 1.8 0 0 0 3.608 0v-5.653" class="cls-5" data-name="Path 2318" transform="translate(-808.019 -92.378)"/>
            <g id="Group_3555" data-name="Group 3555" transform="translate(19.657 38.057)">
                <path id="Path_2319" d="M833.734 131.985a1.331 1.331 0 1 1-1.335-1.336 1.331 1.331 0 0 1 1.335 1.336z" class="cls-5" data-name="Path 2319" transform="translate(-828.806 -130.646)"/>
                <path id="Line_374" d="M0 0h5.577" class="cls-5" data-name="Line 374"/>
            </g>
            <g id="Group_3556" data-name="Group 3556" transform="translate(36.388 38.057)">
                <path id="Path_2320" d="M847.814 131.985a1.331 1.331 0 1 1-1.335-1.336 1.332 1.332 0 0 1 1.335 1.336z" class="cls-5" data-name="Path 2320" transform="translate(-842.88 -130.646)"/>
                <path id="Line_375" d="M0 0h5.578" class="cls-5" data-name="Line 375"/>
            </g>
            <path id="Path_2321" d="M849.539 126.193H844.8a5.153 5.153 0 0 1 4.739 0z" class="cls-5" data-name="Path 2321" transform="translate(-806.558 -93.534)"/>
            <path id="Path_2322" d="M833.851 126.192l-2.168-.548a6.389 6.389 0 0 1 2.168.548z" class="cls-5" data-name="Path 2322" transform="translate(-809.034 -93.533)"/>
            <path id="Path_2323" d="M843.769 142.52l-4.141 2.187-4.428-2.187" class="cls-5" data-name="Path 2323" transform="translate(-808.37 -90.348)"/>
            <path id="Path_2324" d="M826.762 115.4a7.926 7.926 0 0 1-2.955-2.521" class="cls-5" data-name="Path 2324" transform="translate(-810.52 -95.942)"/>
            <path id="Path_2325" d="M867.9 123.315a12.361 12.361 0 0 1-4.824 0s-2.205 13.016-2.168 14.307a3.132 3.132 0 0 0-.42-.517 3.319 3.319 0 0 0-2.356-.976v7.159h-.016v-4.255c-.1-3.353 0-9.476 0-11.171-4.823-2.146-9.032-9.115-9.032-9.115-3.6 4.411-7.172 8.627-14.112 12h-.008a48.02 48.02 0 0 1-7.172 2.769v2.618a3.3 3.3 0 0 0-2.348.976s-.968-2.814-2.558-9.865c0 0-6.317-1.681-8.628-6.2 0 0 8.4-1.472 11.351-5.462-3.353-4.561-2.933-12.206-2.933-12.206a14.467 14.467 0 0 0 11.417 1.627 19.526 19.526 0 0 0 3.047-6.362s2.671 4.331 6.025 6.026c0 0 6.444-3.8 6.819-6.026 0 0 1.216 4.9 7.593 6.677s7.696 12.557 10.323 17.996z" class="cls-5" data-name="Path 2325" transform="translate(-812.323 -98.632)"/>
            <path id="Path_2326" d="M831.28 103.984c-1.117 1.712-2.115 2.979-2.115 3.107" class="cls-5" data-name="Path 2326" transform="translate(-809.509 -97.622)"/>
        </g>
    </g>
</svg>
